<?xml version="1.0"?>
<!-- Generated by SVGo and Plotinum VG -->
<svg width="850.39pt" height="566.93pt" viewBox="0 0 850.39 566.93"
	xmlns="http://www.w3.org/2000/svg"
	xmlns:xlink="http://www.w3.org/1999/xlink">
<g transform="scale(1, -1) translate(0, -566.93)">
<path d="M0,0L850.39,0L850.39,566.93L0,566.93Z" style="fill:#FFFFFF" />
<text x="245.42" y="-557.54" transform="scale(1, -1)"
	style="font-family:Liberation Serif;font-variant:normal;font-weight:normal;font-style:normal;font-size:12px">Raw Data Measures: scale_deployment_0_1-k3s3nodes-zeroload-emptydb</text>
<text x="435.19" y="-3.9023" transform="scale(1, -1)"
	style="font-family:Liberation Serif;font-variant:normal;font-weight:normal;font-style:normal;font-size:12px">Restart ID</text>
<text x="63.385" y="-16.541" transform="scale(1, -1)"
	style="font-family:Liberation Serif;font-variant:normal;font-weight:normal;font-style:normal;font-size:10px">0.00</text>
<text x="707.01" y="-16.541" transform="scale(1, -1)"
	style="font-family:Liberation Serif;font-variant:normal;font-weight:normal;font-style:normal;font-size:10px">250.00</text>
<path d="M72.135,24.363L72.135,32.363" style="fill:none;stroke:#000000;stroke-width:0.5" />
<path d="M720.76,24.363L720.76,32.363" style="fill:none;stroke:#000000;stroke-width:0.5" />
<path d="M201.86,28.363L201.86,32.363" style="fill:none;stroke:#000000;stroke-width:0.5" />
<path d="M331.59,28.363L331.59,32.363" style="fill:none;stroke:#000000;stroke-width:0.5" />
<path d="M461.31,28.363L461.31,32.363" style="fill:none;stroke:#000000;stroke-width:0.5" />
<path d="M591.04,28.363L591.04,32.363" style="fill:none;stroke:#000000;stroke-width:0.5" />
<path d="M72.135,32.363L847.89,32.363" style="fill:none;stroke:#000000;stroke-width:0.5" />
<g transform="rotate(90)">
<text x="265.43" y="9.3867" transform="scale(1, -1)"
	style="font-family:Liberation Serif;font-variant:normal;font-weight:normal;font-style:normal;font-size:12px">Duration: ms</text>
</g>
<text x="20.885" y="-91.492" transform="scale(1, -1)"
	style="font-family:Liberation Serif;font-variant:normal;font-weight:normal;font-style:normal;font-size:10px">2500.00</text>
<text x="15.885" y="-301.74" transform="scale(1, -1)"
	style="font-family:Liberation Serif;font-variant:normal;font-weight:normal;font-style:normal;font-size:10px">12500.00</text>
<text x="15.885" y="-511.98" transform="scale(1, -1)"
	style="font-family:Liberation Serif;font-variant:normal;font-weight:normal;font-style:normal;font-size:10px">22500.00</text>
<path d="M55.885,93.777L63.885,93.777" style="fill:none;stroke:#000000;stroke-width:0.5" />
<path d="M55.885,304.02L63.885,304.02" style="fill:none;stroke:#000000;stroke-width:0.5" />
<path d="M55.885,514.26L63.885,514.26" style="fill:none;stroke:#000000;stroke-width:0.5" />
<path d="M59.885,198.9L63.885,198.9" style="fill:none;stroke:#000000;stroke-width:0.5" />
<path d="M59.885,409.14L63.885,409.14" style="fill:none;stroke:#000000;stroke-width:0.5" />
<path d="M63.885,42.709L63.885,551.14" style="fill:none;stroke:#000000;stroke-width:0.5" />
<path d="M72.135,42.709L72.135,551.14" style="fill:none;stroke:#808080;stroke-width:0.25" />
<path d="M720.76,42.709L720.76,551.14" style="fill:none;stroke:#808080;stroke-width:0.25" />
<path d="M72.135,93.777L847.89,93.777" style="fill:none;stroke:#808080;stroke-width:0.25" />
<path d="M72.135,304.02L847.89,304.02" style="fill:none;stroke:#808080;stroke-width:0.25" />
<path d="M72.135,514.26L847.89,514.26" style="fill:none;stroke:#808080;stroke-width:0.25" />
<path d="M72.135,57.258L74.729,59.003L77.324,79.06L79.918,75.023L82.513,70.209L85.107,65.31L87.702,59.739L90.296,98.613L92.891,67.118L95.485,55.576L98.08,83.896L100.67,66.95L103.27,65.668L105.86,66.298L108.46,54.798L111.05,76.054L113.65,69.893L116.24,64.196L118.84,58.751L121.43,79.607L124.02,79.502L126.62,74.14L129.21,69.347L131.81,64.995L134.4,66.046L137,66.74L139.59,55.197L142.19,83.16L144.78,61.252L147.38,66.067L149.97,67.013L152.56,61.231L155.16,80.406L157.75,79.565L160.35,67.434L162.94,66.95L165.54,67.265L168.13,61.61L170.73,79.985L173.32,67.686L175.92,79.712L178.51,73.762L181.1,74.582L183.7,69.01L186.29,63.691L188.89,63.523L191.48,64.007L194.08,51.939L196.67,72.606L199.27,67.791L201.86,62.325L204.45,79.438L207.05,67.202L209.64,66.424L212.24,67.349L214.83,56.312L217.43,77.735L220.02,72.458L222.62,73.299L225.21,68.169L227.81,62.051L230.4,80.174L232.99,50.656L235.59,72.059L238.18,67.371L240.78,60.979L243.37,79.586L245.97,67.602L248.56,65.184L251.16,59.339L253.75,80.006L256.35,67.076L258.94,70.272L261.53,65.142L264.13,59.36L266.72,79.565L269.32,80.321L271.91,73.615L274.51,76.243L277.1,70.776L279.7,65.226L282.29,59.928L284.88,80.006L287.48,67.097L290.07,69.641L292.67,65.163L295.26,59.486L297.86,80.532L300.45,68.401L303.05,65.857L305.64,60.517L308.24,79.754L310.83,73.678L313.42,70.398L316.02,64.679L318.61,72.059L321.21,66.719L323.8,67.518L326.4,62.766L328.99,86.166L331.59,529.34L334.18,72.311L336.77,66.256L339.37,59.655L341.96,73.909L344.56,72.627L347.15,73.341L349.75,61.862L352.34,71.428L354.94,71.239L357.53,72.648L360.13,64.112L362.72,70.945L365.31,67.728L367.91,69.957L370.5,73.173L373.1,60.39L375.69,71.449L378.29,76.558L380.88,74.266L383.48,72.753L386.07,70.44L388.67,65.773L391.26,59.549L393.85,69.83L396.45,70.882L399.04,78.387L401.64,72.858L404.23,69.914L406.83,63.965L409.42,66.277L412.02,81.499L414.61,68.548L417.2,81.898L419.8,72.227L422.39,68.527L424.99,71.029L427.58,65.773L430.18,72.521L432.77,70.293L435.37,70.776L437.96,66.698L440.56,55.933L443.15,80.006L445.74,73.699L448.34,74.813L450.93,68.926L453.53,70.104L456.12,61.505L458.72,68.317L461.31,66.551L463.91,70.861L466.5,66.256L469.1,61.4L471.69,78.051L474.28,71.449L476.88,64.343L479.47,70.818L482.07,67.286L484.66,57.468L487.26,72.017L489.85,70.629L492.45,59.865L495.04,70.713L497.63,72.585L500.23,71.786L502.82,73.93L505.42,70.02L508.01,58.561L510.61,69.872L513.2,67.013L515.8,69.095L518.39,61.379L520.99,68.779L523.58,70.209L526.17,70.566L528.77,63.859L531.36,69.914L533.96,71.512L536.55,70.966L539.15,63.649L541.74,68.422L544.34,73.362L546.93,71.029L549.52,71.828L552.12,62.745L554.71,71.512L557.31,73.362L559.9,73.762L562.5,70.566L565.09,61.82L567.69,72.143L570.28,70.524L572.88,77.483L575.47,70.209L578.06,66.361L580.66,60.243L583.25,83.854L585.85,58.666L588.44,80.574L591.04,548.13L593.63,59.213L596.23,69.62L598.82,61.841L601.42,91.527L604.01,79.039L606.6,63.607L609.2,65.268L611.79,61.862L614.39,86.292L616.98,68.233L619.58,77L622.17,69.116L624.77,70.65L627.36,74.266L629.95,71.218L632.55,59.486L635.14,73.741L637.74,76.831L640.33,69.872L642.93,67.034L645.52,52.864L648.12,75.171L650.71,66.782L653.31,68.464L655.9,72.143L658.49,68.527L661.09,56.606L663.68,85.262L666.28,47.902L668.87,69.746L671.47,66.656L674.06,81.541L676.66,74.96L679.25,76.621L681.84,66.53L684.44,55.387L687.03,91.633L689.63,61.631L692.22,89.803L694.82,60.517L697.41,68.842L700.01,74.351L702.6,62.892L705.2,81.709L707.79,54.377L710.38,71.702L712.98,71.786L715.57,65.289L718.17,54.84L720.76,80.553L723.36,73.573L725.95,76.117L728.55,74.918L731.14,76.579L733.74,82.95L736.33,72.5L738.92,76.642L741.52,66.53L744.11,59.57L746.71,75.486L749.3,72.774L751.9,62.997L754.49,62.787L757.09,75.906L759.68,78.913L762.27,73.32L764.87,77.294L767.46,76.306L770.06,64.49L772.65,56.333L775.25,67.034L777.84,63.607L780.44,73.32L783.03,75.36L785.63,68.632L788.22,68.296L790.81,80.763L793.41,83.938L796,71.68L798.6,73.068L801.19,70.776L803.79,85.451L806.38,67.875L808.98,74.813L811.57,80.195L814.17,74.498L816.76,79.312L819.35,69.179L821.95,76.285L824.54,71.723L827.14,75.023L829.73,67.917L832.33,60.327L834.92,75.002L837.52,77L840.11,66.992L842.7,77.651L845.3,71.996L847.89,69.494" style="fill:none;stroke:#F15A60" />
<path d="M72.135,60.383L69.428,55.695L74.841,55.695Z" style="fill:#F15A60" />
<path d="M74.729,62.128L72.023,57.44L77.436,57.44Z" style="fill:#F15A60" />
<path d="M77.324,82.185L74.617,77.498L80.03,77.498Z" style="fill:#F15A60" />
<path d="M79.918,78.148L77.212,73.461L82.625,73.461Z" style="fill:#F15A60" />
<path d="M82.513,73.334L79.806,68.646L85.219,68.646Z" style="fill:#F15A60" />
<path d="M85.107,68.435L82.401,63.748L87.814,63.748Z" style="fill:#F15A60" />
<path d="M87.702,62.864L84.996,58.176L90.408,58.176Z" style="fill:#F15A60" />
<path d="M90.296,101.74L87.59,97.05L93.003,97.05Z" style="fill:#F15A60" />
<path d="M92.891,70.243L90.185,65.556L95.597,65.556Z" style="fill:#F15A60" />
<path d="M95.485,58.701L92.779,54.013L98.192,54.013Z" style="fill:#F15A60" />
<path d="M98.08,87.021L95.374,82.333L100.79,82.333Z" style="fill:#F15A60" />
<path d="M100.67,70.075L97.968,65.388L103.38,65.388Z" style="fill:#F15A60" />
<path d="M103.27,68.793L100.56,64.105L105.98,64.105Z" style="fill:#F15A60" />
<path d="M105.86,69.423L103.16,64.736L108.57,64.736Z" style="fill:#F15A60" />
<path d="M108.46,57.923L105.75,53.235L111.16,53.235Z" style="fill:#F15A60" />
<path d="M111.05,79.179L108.35,74.491L113.76,74.491Z" style="fill:#F15A60" />
<path d="M113.65,73.018L110.94,68.331L116.35,68.331Z" style="fill:#F15A60" />
<path d="M116.24,67.321L113.54,62.633L118.95,62.633Z" style="fill:#F15A60" />
<path d="M118.84,61.876L116.13,57.188L121.54,57.188Z" style="fill:#F15A60" />
<path d="M121.43,82.732L118.72,78.044L124.14,78.044Z" style="fill:#F15A60" />
<path d="M124.02,82.627L121.32,77.939L126.73,77.939Z" style="fill:#F15A60" />
<path d="M126.62,77.265L123.91,72.578L129.33,72.578Z" style="fill:#F15A60" />
<path d="M129.21,72.472L126.51,67.784L131.92,67.784Z" style="fill:#F15A60" />
<path d="M131.81,68.12L129.1,63.432L134.51,63.432Z" style="fill:#F15A60" />
<path d="M134.4,69.171L131.7,64.483L137.11,64.483Z" style="fill:#F15A60" />
<path d="M137,69.865L134.29,65.177L139.7,65.177Z" style="fill:#F15A60" />
<path d="M139.59,58.322L136.89,53.635L142.3,53.635Z" style="fill:#F15A60" />
<path d="M142.19,86.285L139.48,81.597L144.89,81.597Z" style="fill:#F15A60" />
<path d="M144.78,64.377L142.07,59.69L147.49,59.69Z" style="fill:#F15A60" />
<path d="M147.38,69.192L144.67,64.505L150.08,64.505Z" style="fill:#F15A60" />
<path d="M149.97,70.138L147.26,65.451L152.68,65.451Z" style="fill:#F15A60" />
<path d="M152.56,64.356L149.86,59.669L155.27,59.669Z" style="fill:#F15A60" />
<path d="M155.16,83.531L152.45,78.843L157.87,78.843Z" style="fill:#F15A60" />
<path d="M157.75,82.69L155.05,78.002L160.46,78.002Z" style="fill:#F15A60" />
<path d="M160.35,70.559L157.64,65.871L163.05,65.871Z" style="fill:#F15A60" />
<path d="M162.94,70.075L160.24,65.388L165.65,65.388Z" style="fill:#F15A60" />
<path d="M165.54,70.39L162.83,65.703L168.24,65.703Z" style="fill:#F15A60" />
<path d="M168.13,64.735L165.43,60.047L170.84,60.047Z" style="fill:#F15A60" />
<path d="M170.73,83.11L168.02,78.423L173.43,78.423Z" style="fill:#F15A60" />
<path d="M173.32,70.811L170.61,66.123L176.03,66.123Z" style="fill:#F15A60" />
<path d="M175.92,82.837L173.21,78.149L178.62,78.149Z" style="fill:#F15A60" />
<path d="M178.51,76.887L175.8,72.199L181.22,72.199Z" style="fill:#F15A60" />
<path d="M181.1,77.707L178.4,73.019L183.81,73.019Z" style="fill:#F15A60" />
<path d="M183.7,72.135L180.99,67.448L186.41,67.448Z" style="fill:#F15A60" />
<path d="M186.29,66.816L183.59,62.129L189,62.129Z" style="fill:#F15A60" />
<path d="M188.89,66.648L186.18,61.961L191.59,61.961Z" style="fill:#F15A60" />
<path d="M191.48,67.132L188.78,62.444L194.19,62.444Z" style="fill:#F15A60" />
<path d="M194.08,55.064L191.37,50.376L196.78,50.376Z" style="fill:#F15A60" />
<path d="M196.67,75.731L193.96,71.043L199.38,71.043Z" style="fill:#F15A60" />
<path d="M199.27,70.916L196.56,66.228L201.97,66.228Z" style="fill:#F15A60" />
<path d="M201.86,65.45L199.15,60.762L204.57,60.762Z" style="fill:#F15A60" />
<path d="M204.45,82.563L201.75,77.876L207.16,77.876Z" style="fill:#F15A60" />
<path d="M207.05,70.327L204.34,65.64L209.76,65.64Z" style="fill:#F15A60" />
<path d="M209.64,69.549L206.94,64.862L212.35,64.862Z" style="fill:#F15A60" />
<path d="M212.24,70.474L209.53,65.787L214.94,65.787Z" style="fill:#F15A60" />
<path d="M214.83,59.437L212.13,54.749L217.54,54.749Z" style="fill:#F15A60" />
<path d="M217.43,80.86L214.72,76.173L220.13,76.173Z" style="fill:#F15A60" />
<path d="M220.02,75.583L217.32,70.896L222.73,70.896Z" style="fill:#F15A60" />
<path d="M222.62,76.424L219.91,71.737L225.32,71.737Z" style="fill:#F15A60" />
<path d="M225.21,71.294L222.5,66.607L227.92,66.607Z" style="fill:#F15A60" />
<path d="M227.81,65.176L225.1,60.489L230.51,60.489Z" style="fill:#F15A60" />
<path d="M230.4,83.299L227.69,78.612L233.11,78.612Z" style="fill:#F15A60" />
<path d="M232.99,53.781L230.29,49.094L235.7,49.094Z" style="fill:#F15A60" />
<path d="M235.59,75.184L232.88,70.496L238.3,70.496Z" style="fill:#F15A60" />
<path d="M238.18,70.496L235.48,65.808L240.89,65.808Z" style="fill:#F15A60" />
<path d="M240.78,64.104L238.07,59.417L243.48,59.417Z" style="fill:#F15A60" />
<path d="M243.37,82.711L240.67,78.023L246.08,78.023Z" style="fill:#F15A60" />
<path d="M245.97,70.727L243.26,66.039L248.67,66.039Z" style="fill:#F15A60" />
<path d="M248.56,68.309L245.86,63.621L251.27,63.621Z" style="fill:#F15A60" />
<path d="M251.16,62.464L248.45,57.777L253.86,57.777Z" style="fill:#F15A60" />
<path d="M253.75,83.131L251.04,78.444L256.46,78.444Z" style="fill:#F15A60" />
<path d="M256.35,70.201L253.64,65.514L259.05,65.514Z" style="fill:#F15A60" />
<path d="M258.94,73.397L256.23,68.709L261.65,68.709Z" style="fill:#F15A60" />
<path d="M261.53,68.267L258.83,63.579L264.24,63.579Z" style="fill:#F15A60" />
<path d="M264.13,62.485L261.42,57.798L266.83,57.798Z" style="fill:#F15A60" />
<path d="M266.72,82.69L264.02,78.002L269.43,78.002Z" style="fill:#F15A60" />
<path d="M269.32,83.446L266.61,78.759L272.02,78.759Z" style="fill:#F15A60" />
<path d="M271.91,76.74L269.21,72.052L274.62,72.052Z" style="fill:#F15A60" />
<path d="M274.51,79.368L271.8,74.68L277.21,74.68Z" style="fill:#F15A60" />
<path d="M277.1,73.901L274.39,69.214L279.81,69.214Z" style="fill:#F15A60" />
<path d="M279.7,68.351L276.99,63.664L282.4,63.664Z" style="fill:#F15A60" />
<path d="M282.29,63.053L279.58,58.365L285,58.365Z" style="fill:#F15A60" />
<path d="M284.88,83.131L282.18,78.444L287.59,78.444Z" style="fill:#F15A60" />
<path d="M287.48,70.222L284.77,65.535L290.19,65.535Z" style="fill:#F15A60" />
<path d="M290.07,72.766L287.37,68.079L292.78,68.079Z" style="fill:#F15A60" />
<path d="M292.67,68.288L289.96,63.6L295.37,63.6Z" style="fill:#F15A60" />
<path d="M295.26,62.611L292.56,57.924L297.97,57.924Z" style="fill:#F15A60" />
<path d="M297.86,83.657L295.15,78.969L300.56,78.969Z" style="fill:#F15A60" />
<path d="M300.45,71.526L297.75,66.838L303.16,66.838Z" style="fill:#F15A60" />
<path d="M303.05,68.982L300.34,64.294L305.75,64.294Z" style="fill:#F15A60" />
<path d="M305.64,63.642L302.93,58.954L308.35,58.954Z" style="fill:#F15A60" />
<path d="M308.24,82.879L305.53,78.191L310.94,78.191Z" style="fill:#F15A60" />
<path d="M310.83,76.803L308.12,72.115L313.54,72.115Z" style="fill:#F15A60" />
<path d="M313.42,73.523L310.72,68.836L316.13,68.836Z" style="fill:#F15A60" />
<path d="M316.02,67.804L313.31,63.117L318.73,63.117Z" style="fill:#F15A60" />
<path d="M318.61,75.184L315.91,70.496L321.32,70.496Z" style="fill:#F15A60" />
<path d="M321.21,69.844L318.5,65.156L323.91,65.156Z" style="fill:#F15A60" />
<path d="M323.8,70.643L321.1,65.955L326.51,65.955Z" style="fill:#F15A60" />
<path d="M326.4,65.891L323.69,61.204L329.1,61.204Z" style="fill:#F15A60" />
<path d="M328.99,89.291L326.29,84.604L331.7,84.604Z" style="fill:#F15A60" />
<path d="M331.59,532.46L328.88,527.78L334.29,527.78Z" style="fill:#F15A60" />
<path d="M334.18,75.436L331.47,70.749L336.89,70.749Z" style="fill:#F15A60" />
<path d="M336.77,69.381L334.07,64.694L339.48,64.694Z" style="fill:#F15A60" />
<path d="M339.37,62.78L336.66,58.092L342.08,58.092Z" style="fill:#F15A60" />
<path d="M341.96,77.034L339.26,72.347L344.67,72.347Z" style="fill:#F15A60" />
<path d="M344.56,75.752L341.85,71.064L347.26,71.064Z" style="fill:#F15A60" />
<path d="M347.15,76.466L344.45,71.779L349.86,71.779Z" style="fill:#F15A60" />
<path d="M349.75,64.987L347.04,60.3L352.45,60.3Z" style="fill:#F15A60" />
<path d="M352.34,74.553L349.64,69.866L355.05,69.866Z" style="fill:#F15A60" />
<path d="M354.94,74.364L352.23,69.676L357.64,69.676Z" style="fill:#F15A60" />
<path d="M357.53,75.773L354.82,71.085L360.24,71.085Z" style="fill:#F15A60" />
<path d="M360.13,67.237L357.42,62.549L362.83,62.549Z" style="fill:#F15A60" />
<path d="M362.72,74.07L360.01,69.382L365.43,69.382Z" style="fill:#F15A60" />
<path d="M365.31,70.853L362.61,66.165L368.02,66.165Z" style="fill:#F15A60" />
<path d="M367.91,73.082L365.2,68.394L370.62,68.394Z" style="fill:#F15A60" />
<path d="M370.5,76.298L367.8,71.611L373.21,71.611Z" style="fill:#F15A60" />
<path d="M373.1,63.515L370.39,58.828L375.8,58.828Z" style="fill:#F15A60" />
<path d="M375.69,74.574L372.99,69.887L378.4,69.887Z" style="fill:#F15A60" />
<path d="M378.29,79.683L375.58,74.996L380.99,74.996Z" style="fill:#F15A60" />
<path d="M380.88,77.391L378.18,72.704L383.59,72.704Z" style="fill:#F15A60" />
<path d="M383.48,75.878L380.77,71.19L386.18,71.19Z" style="fill:#F15A60" />
<path d="M386.07,73.565L383.36,68.878L388.78,68.878Z" style="fill:#F15A60" />
<path d="M388.67,68.898L385.96,64.21L391.37,64.21Z" style="fill:#F15A60" />
<path d="M391.26,62.674L388.55,57.987L393.97,57.987Z" style="fill:#F15A60" />
<path d="M393.85,72.955L391.15,68.268L396.56,68.268Z" style="fill:#F15A60" />
<path d="M396.45,74.007L393.74,69.319L399.16,69.319Z" style="fill:#F15A60" />
<path d="M399.04,81.512L396.34,76.825L401.75,76.825Z" style="fill:#F15A60" />
<path d="M401.64,75.983L398.93,71.295L404.34,71.295Z" style="fill:#F15A60" />
<path d="M404.23,73.039L401.53,68.352L406.94,68.352Z" style="fill:#F15A60" />
<path d="M406.83,67.09L404.12,62.402L409.53,62.402Z" style="fill:#F15A60" />
<path d="M409.42,69.402L406.71,64.715L412.13,64.715Z" style="fill:#F15A60" />
<path d="M412.02,84.624L409.31,79.936L414.72,79.936Z" style="fill:#F15A60" />
<path d="M414.61,71.673L411.9,66.985L417.32,66.985Z" style="fill:#F15A60" />
<path d="M417.2,85.023L414.5,80.336L419.91,80.336Z" style="fill:#F15A60" />
<path d="M419.8,75.352L417.09,70.665L422.51,70.665Z" style="fill:#F15A60" />
<path d="M422.39,71.652L419.69,66.964L425.1,66.964Z" style="fill:#F15A60" />
<path d="M424.99,74.154L422.28,69.466L427.69,69.466Z" style="fill:#F15A60" />
<path d="M427.58,68.898L424.88,64.21L430.29,64.21Z" style="fill:#F15A60" />
<path d="M430.18,75.646L427.47,70.959L432.88,70.959Z" style="fill:#F15A60" />
<path d="M432.77,73.418L430.07,68.73L435.48,68.73Z" style="fill:#F15A60" />
<path d="M435.37,73.901L432.66,69.214L438.07,69.214Z" style="fill:#F15A60" />
<path d="M437.96,69.823L435.25,65.135L440.67,65.135Z" style="fill:#F15A60" />
<path d="M440.56,59.058L437.85,54.371L443.26,54.371Z" style="fill:#F15A60" />
<path d="M443.15,83.131L440.44,78.444L445.86,78.444Z" style="fill:#F15A60" />
<path d="M445.74,76.824L443.04,72.136L448.45,72.136Z" style="fill:#F15A60" />
<path d="M448.34,77.938L445.63,73.251L451.05,73.251Z" style="fill:#F15A60" />
<path d="M450.93,72.051L448.23,67.364L453.64,67.364Z" style="fill:#F15A60" />
<path d="M453.53,73.229L450.82,68.541L456.23,68.541Z" style="fill:#F15A60" />
<path d="M456.12,64.63L453.42,59.942L458.83,59.942Z" style="fill:#F15A60" />
<path d="M458.72,71.442L456.01,66.754L461.42,66.754Z" style="fill:#F15A60" />
<path d="M461.31,69.676L458.61,64.988L464.02,64.988Z" style="fill:#F15A60" />
<path d="M463.91,73.986L461.2,69.298L466.61,69.298Z" style="fill:#F15A60" />
<path d="M466.5,69.381L463.79,64.694L469.21,64.694Z" style="fill:#F15A60" />
<path d="M469.1,64.525L466.39,59.837L471.8,59.837Z" style="fill:#F15A60" />
<path d="M471.69,81.176L468.98,76.488L474.4,76.488Z" style="fill:#F15A60" />
<path d="M474.28,74.574L471.58,69.887L476.99,69.887Z" style="fill:#F15A60" />
<path d="M476.88,67.468L474.17,62.781L479.58,62.781Z" style="fill:#F15A60" />
<path d="M479.47,73.943L476.77,69.256L482.18,69.256Z" style="fill:#F15A60" />
<path d="M482.07,70.411L479.36,65.724L484.77,65.724Z" style="fill:#F15A60" />
<path d="M484.66,60.593L481.96,55.906L487.37,55.906Z" style="fill:#F15A60" />
<path d="M487.26,75.142L484.55,70.454L489.96,70.454Z" style="fill:#F15A60" />
<path d="M489.85,73.754L487.14,69.067L492.56,69.067Z" style="fill:#F15A60" />
<path d="M492.45,62.99L489.74,58.302L495.15,58.302Z" style="fill:#F15A60" />
<path d="M495.04,73.838L492.33,69.151L497.75,69.151Z" style="fill:#F15A60" />
<path d="M497.63,75.71L494.93,71.022L500.34,71.022Z" style="fill:#F15A60" />
<path d="M500.23,74.911L497.52,70.223L502.94,70.223Z" style="fill:#F15A60" />
<path d="M502.82,77.055L500.12,72.368L505.53,72.368Z" style="fill:#F15A60" />
<path d="M505.42,73.145L502.71,68.457L508.12,68.457Z" style="fill:#F15A60" />
<path d="M508.01,61.686L505.31,56.999L510.72,56.999Z" style="fill:#F15A60" />
<path d="M510.61,72.997L507.9,68.31L513.31,68.31Z" style="fill:#F15A60" />
<path d="M513.2,70.138L510.5,65.451L515.91,65.451Z" style="fill:#F15A60" />
<path d="M515.8,72.22L513.09,67.532L518.5,67.532Z" style="fill:#F15A60" />
<path d="M518.39,64.504L515.68,59.816L521.1,59.816Z" style="fill:#F15A60" />
<path d="M520.99,71.904L518.28,67.217L523.69,67.217Z" style="fill:#F15A60" />
<path d="M523.58,73.334L520.87,68.646L526.29,68.646Z" style="fill:#F15A60" />
<path d="M526.17,73.691L523.47,69.004L528.88,69.004Z" style="fill:#F15A60" />
<path d="M528.77,66.984L526.06,62.297L531.48,62.297Z" style="fill:#F15A60" />
<path d="M531.36,73.039L528.66,68.352L534.07,68.352Z" style="fill:#F15A60" />
<path d="M533.96,74.637L531.25,69.95L536.66,69.95Z" style="fill:#F15A60" />
<path d="M536.55,74.091L533.85,69.403L539.26,69.403Z" style="fill:#F15A60" />
<path d="M539.15,66.774L536.44,62.087L541.85,62.087Z" style="fill:#F15A60" />
<path d="M541.74,71.547L539.04,66.859L544.45,66.859Z" style="fill:#F15A60" />
<path d="M544.34,76.487L541.63,71.8L547.04,71.8Z" style="fill:#F15A60" />
<path d="M546.93,74.154L544.22,69.466L549.64,69.466Z" style="fill:#F15A60" />
<path d="M549.52,74.953L546.82,70.265L552.23,70.265Z" style="fill:#F15A60" />
<path d="M552.12,65.87L549.41,61.183L554.83,61.183Z" style="fill:#F15A60" />
<path d="M554.71,74.637L552.01,69.95L557.42,69.95Z" style="fill:#F15A60" />
<path d="M557.31,76.487L554.6,71.8L560.01,71.8Z" style="fill:#F15A60" />
<path d="M559.9,76.887L557.2,72.199L562.61,72.199Z" style="fill:#F15A60" />
<path d="M562.5,73.691L559.79,69.004L565.2,69.004Z" style="fill:#F15A60" />
<path d="M565.09,64.945L562.39,60.258L567.8,60.258Z" style="fill:#F15A60" />
<path d="M567.69,75.268L564.98,70.581L570.39,70.581Z" style="fill:#F15A60" />
<path d="M570.28,73.649L567.57,68.962L572.99,68.962Z" style="fill:#F15A60" />
<path d="M572.88,80.608L570.17,75.921L575.58,75.921Z" style="fill:#F15A60" />
<path d="M575.47,73.334L572.76,68.646L578.18,68.646Z" style="fill:#F15A60" />
<path d="M578.06,69.486L575.36,64.799L580.77,64.799Z" style="fill:#F15A60" />
<path d="M580.66,63.368L577.95,58.681L583.37,58.681Z" style="fill:#F15A60" />
<path d="M583.25,86.979L580.55,82.291L585.96,82.291Z" style="fill:#F15A60" />
<path d="M585.85,61.791L583.14,57.104L588.55,57.104Z" style="fill:#F15A60" />
<path d="M588.44,83.699L585.74,79.011L591.15,79.011Z" style="fill:#F15A60" />
<path d="M591.04,551.26L588.33,546.57L593.74,546.57Z" style="fill:#F15A60" />
<path d="M593.63,62.338L590.93,57.651L596.34,57.651Z" style="fill:#F15A60" />
<path d="M596.23,72.745L593.52,68.058L598.93,68.058Z" style="fill:#F15A60" />
<path d="M598.82,64.966L596.11,60.279L601.53,60.279Z" style="fill:#F15A60" />
<path d="M601.42,94.652L598.71,89.965L604.12,89.965Z" style="fill:#F15A60" />
<path d="M604.01,82.164L601.3,77.477L606.72,77.477Z" style="fill:#F15A60" />
<path d="M606.6,66.732L603.9,62.045L609.31,62.045Z" style="fill:#F15A60" />
<path d="M609.2,68.393L606.49,63.706L611.9,63.706Z" style="fill:#F15A60" />
<path d="M611.79,64.987L609.09,60.3L614.5,60.3Z" style="fill:#F15A60" />
<path d="M614.39,89.417L611.68,84.73L617.09,84.73Z" style="fill:#F15A60" />
<path d="M616.98,71.358L614.28,66.67L619.69,66.67Z" style="fill:#F15A60" />
<path d="M619.58,80.125L616.87,75.437L622.28,75.437Z" style="fill:#F15A60" />
<path d="M622.17,72.241L619.46,67.553L624.88,67.553Z" style="fill:#F15A60" />
<path d="M624.77,73.775L622.06,69.088L627.47,69.088Z" style="fill:#F15A60" />
<path d="M627.36,77.391L624.65,72.704L630.07,72.704Z" style="fill:#F15A60" />
<path d="M629.95,74.343L627.25,69.655L632.66,69.655Z" style="fill:#F15A60" />
<path d="M632.55,62.611L629.84,57.924L635.26,57.924Z" style="fill:#F15A60" />
<path d="M635.14,76.866L632.44,72.178L637.85,72.178Z" style="fill:#F15A60" />
<path d="M637.74,79.956L635.03,75.269L640.44,75.269Z" style="fill:#F15A60" />
<path d="M640.33,72.997L637.63,68.31L643.04,68.31Z" style="fill:#F15A60" />
<path d="M642.93,70.159L640.22,65.472L645.63,65.472Z" style="fill:#F15A60" />
<path d="M645.52,55.989L642.82,51.301L648.23,51.301Z" style="fill:#F15A60" />
<path d="M648.12,78.296L645.41,73.608L650.82,73.608Z" style="fill:#F15A60" />
<path d="M650.71,69.907L648,65.219L653.42,65.219Z" style="fill:#F15A60" />
<path d="M653.31,71.589L650.6,66.901L656.01,66.901Z" style="fill:#F15A60" />
<path d="M655.9,75.268L653.19,70.581L658.61,70.581Z" style="fill:#F15A60" />
<path d="M658.49,71.652L655.79,66.964L661.2,66.964Z" style="fill:#F15A60" />
<path d="M661.09,59.731L658.38,55.044L663.8,55.044Z" style="fill:#F15A60" />
<path d="M663.68,88.387L660.98,83.7L666.39,83.7Z" style="fill:#F15A60" />
<path d="M666.28,51.027L663.57,46.339L668.98,46.339Z" style="fill:#F15A60" />
<path d="M668.87,72.871L666.17,68.184L671.58,68.184Z" style="fill:#F15A60" />
<path d="M671.47,69.781L668.76,65.093L674.17,65.093Z" style="fill:#F15A60" />
<path d="M674.06,84.666L671.36,79.978L676.77,79.978Z" style="fill:#F15A60" />
<path d="M676.66,78.085L673.95,73.398L679.36,73.398Z" style="fill:#F15A60" />
<path d="M679.25,79.746L676.54,75.059L681.96,75.059Z" style="fill:#F15A60" />
<path d="M681.84,69.655L679.14,64.967L684.55,64.967Z" style="fill:#F15A60" />
<path d="M684.44,58.512L681.73,53.824L687.15,53.824Z" style="fill:#F15A60" />
<path d="M687.03,94.758L684.33,90.07L689.74,90.07Z" style="fill:#F15A60" />
<path d="M689.63,64.756L686.92,60.068L692.33,60.068Z" style="fill:#F15A60" />
<path d="M692.22,92.928L689.52,88.241L694.93,88.241Z" style="fill:#F15A60" />
<path d="M694.82,63.642L692.11,58.954L697.52,58.954Z" style="fill:#F15A60" />
<path d="M697.41,71.967L694.71,67.28L700.12,67.28Z" style="fill:#F15A60" />
<path d="M700.01,77.476L697.3,72.788L702.71,72.788Z" style="fill:#F15A60" />
<path d="M702.6,66.017L699.89,61.33L705.31,61.33Z" style="fill:#F15A60" />
<path d="M705.2,84.834L702.49,80.147L707.9,80.147Z" style="fill:#F15A60" />
<path d="M707.79,57.502L705.08,52.815L710.5,52.815Z" style="fill:#F15A60" />
<path d="M710.38,74.827L707.68,70.139L713.09,70.139Z" style="fill:#F15A60" />
<path d="M712.98,74.911L710.27,70.223L715.69,70.223Z" style="fill:#F15A60" />
<path d="M715.57,68.414L712.87,63.727L718.28,63.727Z" style="fill:#F15A60" />
<path d="M718.17,57.965L715.46,53.278L720.87,53.278Z" style="fill:#F15A60" />
<path d="M720.76,83.678L718.06,78.99L723.47,78.99Z" style="fill:#F15A60" />
<path d="M723.36,76.698L720.65,72.01L726.06,72.01Z" style="fill:#F15A60" />
<path d="M725.95,79.242L723.25,74.554L728.66,74.554Z" style="fill:#F15A60" />
<path d="M728.55,78.043L725.84,73.356L731.25,73.356Z" style="fill:#F15A60" />
<path d="M731.14,79.704L728.43,75.017L733.85,75.017Z" style="fill:#F15A60" />
<path d="M733.74,86.075L731.03,81.387L736.44,81.387Z" style="fill:#F15A60" />
<path d="M736.33,75.625L733.62,70.938L739.04,70.938Z" style="fill:#F15A60" />
<path d="M738.92,79.767L736.22,75.08L741.63,75.08Z" style="fill:#F15A60" />
<path d="M741.52,69.655L738.81,64.967L744.23,64.967Z" style="fill:#F15A60" />
<path d="M744.11,62.695L741.41,58.008L746.82,58.008Z" style="fill:#F15A60" />
<path d="M746.71,78.611L744,73.923L749.41,73.923Z" style="fill:#F15A60" />
<path d="M749.3,75.899L746.6,71.211L752.01,71.211Z" style="fill:#F15A60" />
<path d="M751.9,66.122L749.19,61.435L754.6,61.435Z" style="fill:#F15A60" />
<path d="M754.49,65.912L751.78,61.225L757.2,61.225Z" style="fill:#F15A60" />
<path d="M757.09,79.031L754.38,74.344L759.79,74.344Z" style="fill:#F15A60" />
<path d="M759.68,82.038L756.97,77.35L762.39,77.35Z" style="fill:#F15A60" />
<path d="M762.27,76.445L759.57,71.758L764.98,71.758Z" style="fill:#F15A60" />
<path d="M764.87,80.419L762.16,75.731L767.58,75.731Z" style="fill:#F15A60" />
<path d="M767.46,79.431L764.76,74.743L770.17,74.743Z" style="fill:#F15A60" />
<path d="M770.06,67.615L767.35,62.928L772.76,62.928Z" style="fill:#F15A60" />
<path d="M772.65,59.458L769.95,54.77L775.36,54.77Z" style="fill:#F15A60" />
<path d="M775.25,70.159L772.54,65.472L777.95,65.472Z" style="fill:#F15A60" />
<path d="M777.84,66.732L775.14,62.045L780.55,62.045Z" style="fill:#F15A60" />
<path d="M780.44,76.445L777.73,71.758L783.14,71.758Z" style="fill:#F15A60" />
<path d="M783.03,78.485L780.32,73.797L785.74,73.797Z" style="fill:#F15A60" />
<path d="M785.63,71.757L782.92,67.069L788.33,67.069Z" style="fill:#F15A60" />
<path d="M788.22,71.421L785.51,66.733L790.93,66.733Z" style="fill:#F15A60" />
<path d="M790.81,83.888L788.11,79.201L793.52,79.201Z" style="fill:#F15A60" />
<path d="M793.41,87.063L790.7,82.375L796.12,82.375Z" style="fill:#F15A60" />
<path d="M796,74.805L793.3,70.118L798.71,70.118Z" style="fill:#F15A60" />
<path d="M798.6,76.193L795.89,71.506L801.3,71.506Z" style="fill:#F15A60" />
<path d="M801.19,73.901L798.49,69.214L803.9,69.214Z" style="fill:#F15A60" />
<path d="M803.79,88.576L801.08,83.889L806.49,83.889Z" style="fill:#F15A60" />
<path d="M806.38,71L803.68,66.313L809.09,66.313Z" style="fill:#F15A60" />
<path d="M808.98,77.938L806.27,73.251L811.68,73.251Z" style="fill:#F15A60" />
<path d="M811.57,83.32L808.86,78.633L814.28,78.633Z" style="fill:#F15A60" />
<path d="M814.17,77.623L811.46,72.935L816.87,72.935Z" style="fill:#F15A60" />
<path d="M816.76,82.437L814.05,77.75L819.47,77.75Z" style="fill:#F15A60" />
<path d="M819.35,72.304L816.65,67.616L822.06,67.616Z" style="fill:#F15A60" />
<path d="M821.95,79.41L819.24,74.722L824.65,74.722Z" style="fill:#F15A60" />
<path d="M824.54,74.848L821.84,70.16L827.25,70.16Z" style="fill:#F15A60" />
<path d="M827.14,78.148L824.43,73.461L829.84,73.461Z" style="fill:#F15A60" />
<path d="M829.73,71.042L827.03,66.355L832.44,66.355Z" style="fill:#F15A60" />
<path d="M832.33,63.452L829.62,58.765L835.03,58.765Z" style="fill:#F15A60" />
<path d="M834.92,78.127L832.21,73.44L837.63,73.44Z" style="fill:#F15A60" />
<path d="M837.52,80.125L834.81,75.437L840.22,75.437Z" style="fill:#F15A60" />
<path d="M840.11,70.117L837.4,65.43L842.82,65.43Z" style="fill:#F15A60" />
<path d="M842.7,80.776L840,76.089L845.41,76.089Z" style="fill:#F15A60" />
<path d="M845.3,75.121L842.59,70.433L848.01,70.433Z" style="fill:#F15A60" />
<path d="M847.89,72.619L845.19,67.931L850.6,67.931Z" style="fill:#F15A60" />
<path d="M72.135,58.898L74.729,60.58L77.324,80.616L79.918,76.621L82.513,71.912L85.107,66.845L87.702,61.294L90.296,100.19L92.891,69.052L95.485,57.09L98.08,85.451L100.67,68.443L103.27,67.244L105.86,67.959L108.46,56.354L111.05,77.63L113.65,71.47L116.24,65.941L118.84,60.285L121.43,81.183L124.02,81.078L126.62,75.843L129.21,71.029L131.81,66.572L134.4,67.602L137,68.38L139.59,56.858L142.19,84.758L144.78,62.829L147.38,67.77L149.97,68.779L152.56,62.934L155.16,82.003L157.75,81.141L160.35,69.284L162.94,68.611L165.54,68.989L168.13,63.229L170.73,81.877L173.32,69.221L175.92,81.31L178.51,75.423L181.1,76.243L183.7,70.608L186.29,65.331L188.89,65.037L191.48,65.583L194.08,53.494L196.67,74.182L199.27,69.431L201.86,63.923L204.45,81.057L207.05,68.779L209.64,68.085L212.24,69.452L214.83,57.868L217.43,79.27L220.02,74.014L222.62,74.834L225.21,69.704L227.81,63.628L230.4,81.709L232.99,52.233L235.59,73.762L238.18,68.989L240.78,62.682L243.37,81.226L245.97,69.2L248.56,67.181L251.16,60.916L253.75,81.772L256.35,68.884L258.94,71.933L261.53,66.782L264.13,60.916L266.72,81.162L269.32,81.919L271.91,75.234L274.51,77.757L277.1,72.374L279.7,66.803L282.29,61.652L284.88,81.646L287.48,68.632L290.07,71.197L292.67,66.719L295.26,61.021L297.86,82.193L300.45,69.978L303.05,67.56L305.64,62.156L308.24,81.646L310.83,75.255L313.42,71.933L316.02,66.298L318.61,73.846L321.21,68.296L323.8,69.326L326.4,64.364L328.99,87.722L331.59,533.94L334.18,75.402L336.77,69.515L339.37,63.124L341.96,76.874L344.56,75.654L347.15,76.411L349.75,67.728L352.34,74.456L354.94,74.245L357.53,76.18L360.13,69.242L362.72,74.645L365.31,70.755L367.91,73.089L370.5,76.369L373.1,64.112L375.69,74.876L378.29,80.069L380.88,77.441L383.48,77.126L386.07,74.119L388.67,69.2L391.26,63.187L393.85,73.825L396.45,73.993L399.04,81.583L401.64,75.969L404.23,72.837L406.83,68.338L409.42,69.347L412.02,84.526L414.61,71.575L417.2,85.409L419.8,75.381L422.39,72.143L424.99,74.351L427.58,69.284L430.18,76.747L432.77,73.215L435.37,74.266L437.96,70.167L440.56,58.814L443.15,82.907L445.74,76.768L448.34,78.45L450.93,73.068L453.53,73.11L456.12,67.56L458.72,71.975L461.31,69.788L463.91,73.867L466.5,69.809L469.1,65.52L471.69,80.973L474.28,75.444L476.88,67.938L479.47,74.456L482.07,72.69L484.66,60.874L487.26,75.297L489.85,74.435L492.45,64.091L495.04,74.519L497.63,75.717L500.23,75.78L502.82,77.231L505.42,73.573L508.01,61.316L510.61,73.951L513.2,70.65L515.8,72.101L518.39,65.983L520.99,71.933L523.58,74.035L526.17,73.362L528.77,68.905L531.36,73.678L533.96,74.351L536.55,74.645L539.15,67.749L541.74,71.05L544.34,76.516L546.93,74.098L549.52,74.75L552.12,66.551L554.71,75.044L557.31,76.411L559.9,76.768L562.5,74.435L565.09,65.962L567.69,75.381L570.28,73.489L572.88,81.099L575.47,73.741L578.06,70.377L580.66,63.712L583.25,87.154L585.85,61.799L588.44,83.643L591.04,551.14L593.63,61.82L596.23,72.374L598.82,64.911L601.42,94.261L604.01,83.265L606.6,67.833L609.2,68.359L611.79,65.52L614.39,89.047L616.98,71.365L619.58,80.09L622.17,72.164L624.77,73.32L627.36,76.684L629.95,73.657L632.55,62.892L635.14,76.705L637.74,79.649L640.33,72.816L642.93,70.503L645.52,55.134L648.12,78.808L650.71,70.02L653.31,71.491L655.9,75.423L658.49,71.554L661.09,58.856L663.68,88.122L666.28,50.341L668.87,72.627L671.47,68.947L674.06,84.716L676.66,78.661L679.25,79.039L681.84,69.683L684.44,57.889L687.03,94.05L689.63,64.427L692.22,92.242L694.82,63.901L697.41,72.732L700.01,77.105L702.6,66.635L705.2,84.674L707.79,56.732L710.38,74.981L712.98,74.372L715.57,68.632L718.17,57.657L720.76,83.748L723.36,76.726L725.95,79.901L728.55,78.114L731.14,80.364L733.74,87.302L736.33,76.012L738.92,80.343L741.52,69.052L744.11,63.166L746.71,78.219L749.3,75.633L751.9,65.857L754.49,65.478L757.09,79.186L759.68,82.024L762.27,76.432L764.87,80.3L767.46,80.132L770.06,67.959L772.65,59.129L775.25,71.092L777.84,67.581L780.44,77.862L783.03,80.7L785.63,71.638L788.22,72.521L790.81,85.409L793.41,88.079L796,75.128L798.6,76.979L801.19,73.951L803.79,89.719L806.38,71.134L808.98,77.82L811.57,83.58L814.17,78.808L816.76,84.274L819.35,72.332L821.95,79.228L824.54,75.423L827.14,78.072L829.73,71.533L832.33,65.373L834.92,79.018L837.52,81.162L840.11,70.335L842.7,80.763L845.3,75.57L847.89,73.152" style="fill:none;stroke:#7AC36A" />
<path d="M72.135,62.023L69.428,57.335L74.841,57.335Z" style="fill:#7AC36A" />
<path d="M74.729,63.705L72.023,59.017L77.436,59.017Z" style="fill:#7AC36A" />
<path d="M77.324,83.741L74.617,79.053L80.03,79.053Z" style="fill:#7AC36A" />
<path d="M79.918,79.746L77.212,75.059L82.625,75.059Z" style="fill:#7AC36A" />
<path d="M82.513,75.037L79.806,70.349L85.219,70.349Z" style="fill:#7AC36A" />
<path d="M85.107,69.97L82.401,65.282L87.814,65.282Z" style="fill:#7AC36A" />
<path d="M87.702,64.419L84.996,59.732L90.408,59.732Z" style="fill:#7AC36A" />
<path d="M90.296,103.31L87.59,98.627L93.003,98.627Z" style="fill:#7AC36A" />
<path d="M92.891,72.177L90.185,67.49L95.597,67.49Z" style="fill:#7AC36A" />
<path d="M95.485,60.215L92.779,55.527L98.192,55.527Z" style="fill:#7AC36A" />
<path d="M98.08,88.576L95.374,83.889L100.79,83.889Z" style="fill:#7AC36A" />
<path d="M100.67,71.568L97.968,66.88L103.38,66.88Z" style="fill:#7AC36A" />
<path d="M103.27,70.369L100.56,65.682L105.98,65.682Z" style="fill:#7AC36A" />
<path d="M105.86,71.084L103.16,66.397L108.57,66.397Z" style="fill:#7AC36A" />
<path d="M108.46,59.479L105.75,54.791L111.16,54.791Z" style="fill:#7AC36A" />
<path d="M111.05,80.755L108.35,76.068L113.76,76.068Z" style="fill:#7AC36A" />
<path d="M113.65,74.595L110.94,69.908L116.35,69.908Z" style="fill:#7AC36A" />
<path d="M116.24,69.066L113.54,64.378L118.95,64.378Z" style="fill:#7AC36A" />
<path d="M118.84,63.41L116.13,58.723L121.54,58.723Z" style="fill:#7AC36A" />
<path d="M121.43,84.308L118.72,79.621L124.14,79.621Z" style="fill:#7AC36A" />
<path d="M124.02,84.203L121.32,79.516L126.73,79.516Z" style="fill:#7AC36A" />
<path d="M126.62,78.968L123.91,74.281L129.33,74.281Z" style="fill:#7AC36A" />
<path d="M129.21,74.154L126.51,69.466L131.92,69.466Z" style="fill:#7AC36A" />
<path d="M131.81,69.697L129.1,65.009L134.51,65.009Z" style="fill:#7AC36A" />
<path d="M134.4,70.727L131.7,66.039L137.11,66.039Z" style="fill:#7AC36A" />
<path d="M137,71.505L134.29,66.817L139.7,66.817Z" style="fill:#7AC36A" />
<path d="M139.59,59.983L136.89,55.296L142.3,55.296Z" style="fill:#7AC36A" />
<path d="M142.19,87.883L139.48,83.195L144.89,83.195Z" style="fill:#7AC36A" />
<path d="M144.78,65.954L142.07,61.267L147.49,61.267Z" style="fill:#7AC36A" />
<path d="M147.38,70.895L144.67,66.207L150.08,66.207Z" style="fill:#7AC36A" />
<path d="M149.97,71.904L147.26,67.217L152.68,67.217Z" style="fill:#7AC36A" />
<path d="M152.56,66.059L149.86,61.372L155.27,61.372Z" style="fill:#7AC36A" />
<path d="M155.16,85.128L152.45,80.441L157.87,80.441Z" style="fill:#7AC36A" />
<path d="M157.75,84.266L155.05,79.579L160.46,79.579Z" style="fill:#7AC36A" />
<path d="M160.35,72.409L157.64,67.721L163.05,67.721Z" style="fill:#7AC36A" />
<path d="M162.94,71.736L160.24,67.048L165.65,67.048Z" style="fill:#7AC36A" />
<path d="M165.54,72.114L162.83,67.427L168.24,67.427Z" style="fill:#7AC36A" />
<path d="M168.13,66.354L165.43,61.666L170.84,61.666Z" style="fill:#7AC36A" />
<path d="M170.73,85.002L168.02,80.315L173.43,80.315Z" style="fill:#7AC36A" />
<path d="M173.32,72.346L170.61,67.658L176.03,67.658Z" style="fill:#7AC36A" />
<path d="M175.92,84.435L173.21,79.747L178.62,79.747Z" style="fill:#7AC36A" />
<path d="M178.51,78.548L175.8,73.86L181.22,73.86Z" style="fill:#7AC36A" />
<path d="M181.1,79.368L178.4,74.68L183.81,74.68Z" style="fill:#7AC36A" />
<path d="M183.7,73.733L180.99,69.046L186.41,69.046Z" style="fill:#7AC36A" />
<path d="M186.29,68.456L183.59,63.769L189,63.769Z" style="fill:#7AC36A" />
<path d="M188.89,68.162L186.18,63.474L191.59,63.474Z" style="fill:#7AC36A" />
<path d="M191.48,68.708L188.78,64.021L194.19,64.021Z" style="fill:#7AC36A" />
<path d="M194.08,56.619L191.37,51.932L196.78,51.932Z" style="fill:#7AC36A" />
<path d="M196.67,77.307L193.96,72.62L199.38,72.62Z" style="fill:#7AC36A" />
<path d="M199.27,72.556L196.56,67.868L201.97,67.868Z" style="fill:#7AC36A" />
<path d="M201.86,67.048L199.15,62.36L204.57,62.36Z" style="fill:#7AC36A" />
<path d="M204.45,84.182L201.75,79.495L207.16,79.495Z" style="fill:#7AC36A" />
<path d="M207.05,71.904L204.34,67.217L209.76,67.217Z" style="fill:#7AC36A" />
<path d="M209.64,71.21L206.94,66.523L212.35,66.523Z" style="fill:#7AC36A" />
<path d="M212.24,72.577L209.53,67.889L214.94,67.889Z" style="fill:#7AC36A" />
<path d="M214.83,60.993L212.13,56.305L217.54,56.305Z" style="fill:#7AC36A" />
<path d="M217.43,82.395L214.72,77.708L220.13,77.708Z" style="fill:#7AC36A" />
<path d="M220.02,77.139L217.32,72.452L222.73,72.452Z" style="fill:#7AC36A" />
<path d="M222.62,77.959L219.91,73.272L225.32,73.272Z" style="fill:#7AC36A" />
<path d="M225.21,72.829L222.5,68.142L227.92,68.142Z" style="fill:#7AC36A" />
<path d="M227.81,66.753L225.1,62.066L230.51,62.066Z" style="fill:#7AC36A" />
<path d="M230.4,84.834L227.69,80.147L233.11,80.147Z" style="fill:#7AC36A" />
<path d="M232.99,55.358L230.29,50.671L235.7,50.671Z" style="fill:#7AC36A" />
<path d="M235.59,76.887L232.88,72.199L238.3,72.199Z" style="fill:#7AC36A" />
<path d="M238.18,72.114L235.48,67.427L240.89,67.427Z" style="fill:#7AC36A" />
<path d="M240.78,65.807L238.07,61.12L243.48,61.12Z" style="fill:#7AC36A" />
<path d="M243.37,84.351L240.67,79.663L246.08,79.663Z" style="fill:#7AC36A" />
<path d="M245.97,72.325L243.26,67.637L248.67,67.637Z" style="fill:#7AC36A" />
<path d="M248.56,70.306L245.86,65.619L251.27,65.619Z" style="fill:#7AC36A" />
<path d="M251.16,64.041L248.45,59.354L253.86,59.354Z" style="fill:#7AC36A" />
<path d="M253.75,84.897L251.04,80.21L256.46,80.21Z" style="fill:#7AC36A" />
<path d="M256.35,72.009L253.64,67.322L259.05,67.322Z" style="fill:#7AC36A" />
<path d="M258.94,75.058L256.23,70.37L261.65,70.37Z" style="fill:#7AC36A" />
<path d="M261.53,69.907L258.83,65.219L264.24,65.219Z" style="fill:#7AC36A" />
<path d="M264.13,64.041L261.42,59.354L266.83,59.354Z" style="fill:#7AC36A" />
<path d="M266.72,84.287L264.02,79.6L269.43,79.6Z" style="fill:#7AC36A" />
<path d="M269.32,85.044L266.61,80.357L272.02,80.357Z" style="fill:#7AC36A" />
<path d="M271.91,78.359L269.21,73.671L274.62,73.671Z" style="fill:#7AC36A" />
<path d="M274.51,80.882L271.8,76.194L277.21,76.194Z" style="fill:#7AC36A" />
<path d="M277.1,75.499L274.39,70.812L279.81,70.812Z" style="fill:#7AC36A" />
<path d="M279.7,69.928L276.99,65.24L282.4,65.24Z" style="fill:#7AC36A" />
<path d="M282.29,64.777L279.58,60.089L285,60.089Z" style="fill:#7AC36A" />
<path d="M284.88,84.771L282.18,80.084L287.59,80.084Z" style="fill:#7AC36A" />
<path d="M287.48,71.757L284.77,67.069L290.19,67.069Z" style="fill:#7AC36A" />
<path d="M290.07,74.322L287.37,69.634L292.78,69.634Z" style="fill:#7AC36A" />
<path d="M292.67,69.844L289.96,65.156L295.37,65.156Z" style="fill:#7AC36A" />
<path d="M295.26,64.146L292.56,59.459L297.97,59.459Z" style="fill:#7AC36A" />
<path d="M297.86,85.318L295.15,80.63L300.56,80.63Z" style="fill:#7AC36A" />
<path d="M300.45,73.103L297.75,68.415L303.16,68.415Z" style="fill:#7AC36A" />
<path d="M303.05,70.685L300.34,65.997L305.75,65.997Z" style="fill:#7AC36A" />
<path d="M305.64,65.281L302.93,60.594L308.35,60.594Z" style="fill:#7AC36A" />
<path d="M308.24,84.771L305.53,80.084L310.94,80.084Z" style="fill:#7AC36A" />
<path d="M310.83,78.38L308.12,73.692L313.54,73.692Z" style="fill:#7AC36A" />
<path d="M313.42,75.058L310.72,70.37L316.13,70.37Z" style="fill:#7AC36A" />
<path d="M316.02,69.423L313.31,64.736L318.73,64.736Z" style="fill:#7AC36A" />
<path d="M318.61,76.971L315.91,72.283L321.32,72.283Z" style="fill:#7AC36A" />
<path d="M321.21,71.421L318.5,66.733L323.91,66.733Z" style="fill:#7AC36A" />
<path d="M323.8,72.451L321.1,67.763L326.51,67.763Z" style="fill:#7AC36A" />
<path d="M326.4,67.489L323.69,62.802L329.1,62.802Z" style="fill:#7AC36A" />
<path d="M328.99,90.847L326.29,86.16L331.7,86.16Z" style="fill:#7AC36A" />
<path d="M331.59,537.07L328.88,532.38L334.29,532.38Z" style="fill:#7AC36A" />
<path d="M334.18,78.527L331.47,73.839L336.89,73.839Z" style="fill:#7AC36A" />
<path d="M336.77,72.64L334.07,67.952L339.48,67.952Z" style="fill:#7AC36A" />
<path d="M339.37,66.249L336.66,61.561L342.08,61.561Z" style="fill:#7AC36A" />
<path d="M341.96,79.999L339.26,75.311L344.67,75.311Z" style="fill:#7AC36A" />
<path d="M344.56,78.779L341.85,74.092L347.26,74.092Z" style="fill:#7AC36A" />
<path d="M347.15,79.536L344.45,74.848L349.86,74.848Z" style="fill:#7AC36A" />
<path d="M349.75,70.853L347.04,66.165L352.45,66.165Z" style="fill:#7AC36A" />
<path d="M352.34,77.581L349.64,72.893L355.05,72.893Z" style="fill:#7AC36A" />
<path d="M354.94,77.37L352.23,72.683L357.64,72.683Z" style="fill:#7AC36A" />
<path d="M357.53,79.305L354.82,74.617L360.24,74.617Z" style="fill:#7AC36A" />
<path d="M360.13,72.367L357.42,67.679L362.83,67.679Z" style="fill:#7AC36A" />
<path d="M362.72,77.77L360.01,73.082L365.43,73.082Z" style="fill:#7AC36A" />
<path d="M365.31,73.88L362.61,69.193L368.02,69.193Z" style="fill:#7AC36A" />
<path d="M367.91,76.214L365.2,71.527L370.62,71.527Z" style="fill:#7AC36A" />
<path d="M370.5,79.494L367.8,74.806L373.21,74.806Z" style="fill:#7AC36A" />
<path d="M373.1,67.237L370.39,62.549L375.8,62.549Z" style="fill:#7AC36A" />
<path d="M375.69,78.001L372.99,73.314L378.4,73.314Z" style="fill:#7AC36A" />
<path d="M378.29,83.194L375.58,78.507L380.99,78.507Z" style="fill:#7AC36A" />
<path d="M380.88,80.566L378.18,75.879L383.59,75.879Z" style="fill:#7AC36A" />
<path d="M383.48,80.251L380.77,75.563L386.18,75.563Z" style="fill:#7AC36A" />
<path d="M386.07,77.244L383.36,72.557L388.78,72.557Z" style="fill:#7AC36A" />
<path d="M388.67,72.325L385.96,67.637L391.37,67.637Z" style="fill:#7AC36A" />
<path d="M391.26,66.312L388.55,61.624L393.97,61.624Z" style="fill:#7AC36A" />
<path d="M393.85,76.95L391.15,72.262L396.56,72.262Z" style="fill:#7AC36A" />
<path d="M396.45,77.118L393.74,72.431L399.16,72.431Z" style="fill:#7AC36A" />
<path d="M399.04,84.708L396.34,80.02L401.75,80.02Z" style="fill:#7AC36A" />
<path d="M401.64,79.094L398.93,74.407L404.34,74.407Z" style="fill:#7AC36A" />
<path d="M404.23,75.962L401.53,71.274L406.94,71.274Z" style="fill:#7AC36A" />
<path d="M406.83,71.463L404.12,66.775L409.53,66.775Z" style="fill:#7AC36A" />
<path d="M409.42,72.472L406.71,67.784L412.13,67.784Z" style="fill:#7AC36A" />
<path d="M412.02,87.651L409.31,82.964L414.72,82.964Z" style="fill:#7AC36A" />
<path d="M414.61,74.7L411.9,70.013L417.32,70.013Z" style="fill:#7AC36A" />
<path d="M417.2,88.534L414.5,83.847L419.91,83.847Z" style="fill:#7AC36A" />
<path d="M419.8,78.506L417.09,73.818L422.51,73.818Z" style="fill:#7AC36A" />
<path d="M422.39,75.268L419.69,70.581L425.1,70.581Z" style="fill:#7AC36A" />
<path d="M424.99,77.476L422.28,72.788L427.69,72.788Z" style="fill:#7AC36A" />
<path d="M427.58,72.409L424.88,67.721L430.29,67.721Z" style="fill:#7AC36A" />
<path d="M430.18,79.872L427.47,75.185L432.88,75.185Z" style="fill:#7AC36A" />
<path d="M432.77,76.34L430.07,71.653L435.48,71.653Z" style="fill:#7AC36A" />
<path d="M435.37,77.391L432.66,72.704L438.07,72.704Z" style="fill:#7AC36A" />
<path d="M437.96,73.292L435.25,68.604L440.67,68.604Z" style="fill:#7AC36A" />
<path d="M440.56,61.939L437.85,57.251L443.26,57.251Z" style="fill:#7AC36A" />
<path d="M443.15,86.032L440.44,81.345L445.86,81.345Z" style="fill:#7AC36A" />
<path d="M445.74,79.893L443.04,75.206L448.45,75.206Z" style="fill:#7AC36A" />
<path d="M448.34,81.575L445.63,76.888L451.05,76.888Z" style="fill:#7AC36A" />
<path d="M450.93,76.193L448.23,71.506L453.64,71.506Z" style="fill:#7AC36A" />
<path d="M453.53,76.235L450.82,71.548L456.23,71.548Z" style="fill:#7AC36A" />
<path d="M456.12,70.685L453.42,65.997L458.83,65.997Z" style="fill:#7AC36A" />
<path d="M458.72,75.1L456.01,70.412L461.42,70.412Z" style="fill:#7AC36A" />
<path d="M461.31,72.913L458.61,68.226L464.02,68.226Z" style="fill:#7AC36A" />
<path d="M463.91,76.992L461.2,72.305L466.61,72.305Z" style="fill:#7AC36A" />
<path d="M466.5,72.934L463.79,68.247L469.21,68.247Z" style="fill:#7AC36A" />
<path d="M469.1,68.645L466.39,63.958L471.8,63.958Z" style="fill:#7AC36A" />
<path d="M471.69,84.098L468.98,79.411L474.4,79.411Z" style="fill:#7AC36A" />
<path d="M474.28,78.569L471.58,73.881L476.99,73.881Z" style="fill:#7AC36A" />
<path d="M476.88,71.063L474.17,66.376L479.58,66.376Z" style="fill:#7AC36A" />
<path d="M479.47,77.581L476.77,72.893L482.18,72.893Z" style="fill:#7AC36A" />
<path d="M482.07,75.815L479.36,71.127L484.77,71.127Z" style="fill:#7AC36A" />
<path d="M484.66,63.999L481.96,59.311L487.37,59.311Z" style="fill:#7AC36A" />
<path d="M487.26,78.422L484.55,73.734L489.96,73.734Z" style="fill:#7AC36A" />
<path d="M489.85,77.56L487.14,72.872L492.56,72.872Z" style="fill:#7AC36A" />
<path d="M492.45,67.216L489.74,62.528L495.15,62.528Z" style="fill:#7AC36A" />
<path d="M495.04,77.644L492.33,72.956L497.75,72.956Z" style="fill:#7AC36A" />
<path d="M497.63,78.842L494.93,74.155L500.34,74.155Z" style="fill:#7AC36A" />
<path d="M500.23,78.905L497.52,74.218L502.94,74.218Z" style="fill:#7AC36A" />
<path d="M502.82,80.356L500.12,75.668L505.53,75.668Z" style="fill:#7AC36A" />
<path d="M505.42,76.698L502.71,72.01L508.12,72.01Z" style="fill:#7AC36A" />
<path d="M508.01,64.441L505.31,59.753L510.72,59.753Z" style="fill:#7AC36A" />
<path d="M510.61,77.076L507.9,72.389L513.31,72.389Z" style="fill:#7AC36A" />
<path d="M513.2,73.775L510.5,69.088L515.91,69.088Z" style="fill:#7AC36A" />
<path d="M515.8,75.226L513.09,70.538L518.5,70.538Z" style="fill:#7AC36A" />
<path d="M518.39,69.108L515.68,64.42L521.1,64.42Z" style="fill:#7AC36A" />
<path d="M520.99,75.058L518.28,70.37L523.69,70.37Z" style="fill:#7AC36A" />
<path d="M523.58,77.16L520.87,72.473L526.29,72.473Z" style="fill:#7AC36A" />
<path d="M526.17,76.487L523.47,71.8L528.88,71.8Z" style="fill:#7AC36A" />
<path d="M528.77,72.03L526.06,67.343L531.48,67.343Z" style="fill:#7AC36A" />
<path d="M531.36,76.803L528.66,72.115L534.07,72.115Z" style="fill:#7AC36A" />
<path d="M533.96,77.476L531.25,72.788L536.66,72.788Z" style="fill:#7AC36A" />
<path d="M536.55,77.77L533.85,73.082L539.26,73.082Z" style="fill:#7AC36A" />
<path d="M539.15,70.874L536.44,66.186L541.85,66.186Z" style="fill:#7AC36A" />
<path d="M541.74,74.175L539.04,69.487L544.45,69.487Z" style="fill:#7AC36A" />
<path d="M544.34,79.641L541.63,74.954L547.04,74.954Z" style="fill:#7AC36A" />
<path d="M546.93,77.223L544.22,72.536L549.64,72.536Z" style="fill:#7AC36A" />
<path d="M549.52,77.875L546.82,73.188L552.23,73.188Z" style="fill:#7AC36A" />
<path d="M552.12,69.676L549.41,64.988L554.83,64.988Z" style="fill:#7AC36A" />
<path d="M554.71,78.169L552.01,73.482L557.42,73.482Z" style="fill:#7AC36A" />
<path d="M557.31,79.536L554.6,74.848L560.01,74.848Z" style="fill:#7AC36A" />
<path d="M559.9,79.893L557.2,75.206L562.61,75.206Z" style="fill:#7AC36A" />
<path d="M562.5,77.56L559.79,72.872L565.2,72.872Z" style="fill:#7AC36A" />
<path d="M565.09,69.087L562.39,64.399L567.8,64.399Z" style="fill:#7AC36A" />
<path d="M567.69,78.506L564.98,73.818L570.39,73.818Z" style="fill:#7AC36A" />
<path d="M570.28,76.614L567.57,71.926L572.99,71.926Z" style="fill:#7AC36A" />
<path d="M572.88,84.224L570.17,79.537L575.58,79.537Z" style="fill:#7AC36A" />
<path d="M575.47,76.866L572.76,72.178L578.18,72.178Z" style="fill:#7AC36A" />
<path d="M578.06,73.502L575.36,68.814L580.77,68.814Z" style="fill:#7AC36A" />
<path d="M580.66,66.837L577.95,62.15L583.37,62.15Z" style="fill:#7AC36A" />
<path d="M583.25,90.279L580.55,85.592L585.96,85.592Z" style="fill:#7AC36A" />
<path d="M585.85,64.924L583.14,60.237L588.55,60.237Z" style="fill:#7AC36A" />
<path d="M588.44,86.768L585.74,82.081L591.15,82.081Z" style="fill:#7AC36A" />
<path d="M591.04,554.27L588.33,549.58L593.74,549.58Z" style="fill:#7AC36A" />
<path d="M593.63,64.945L590.93,60.258L596.34,60.258Z" style="fill:#7AC36A" />
<path d="M596.23,75.499L593.52,70.812L598.93,70.812Z" style="fill:#7AC36A" />
<path d="M598.82,68.036L596.11,63.348L601.53,63.348Z" style="fill:#7AC36A" />
<path d="M601.42,97.386L598.71,92.698L604.12,92.698Z" style="fill:#7AC36A" />
<path d="M604.01,86.39L601.3,81.702L606.72,81.702Z" style="fill:#7AC36A" />
<path d="M606.6,70.958L603.9,66.271L609.31,66.271Z" style="fill:#7AC36A" />
<path d="M609.2,71.484L606.49,66.796L611.9,66.796Z" style="fill:#7AC36A" />
<path d="M611.79,68.645L609.09,63.958L614.5,63.958Z" style="fill:#7AC36A" />
<path d="M614.39,92.172L611.68,87.484L617.09,87.484Z" style="fill:#7AC36A" />
<path d="M616.98,74.49L614.28,69.803L619.69,69.803Z" style="fill:#7AC36A" />
<path d="M619.58,83.215L616.87,78.528L622.28,78.528Z" style="fill:#7AC36A" />
<path d="M622.17,75.289L619.46,70.602L624.88,70.602Z" style="fill:#7AC36A" />
<path d="M624.77,76.445L622.06,71.758L627.47,71.758Z" style="fill:#7AC36A" />
<path d="M627.36,79.809L624.65,75.122L630.07,75.122Z" style="fill:#7AC36A" />
<path d="M629.95,76.782L627.25,72.094L632.66,72.094Z" style="fill:#7AC36A" />
<path d="M632.55,66.017L629.84,61.33L635.26,61.33Z" style="fill:#7AC36A" />
<path d="M635.14,79.83L632.44,75.143L637.85,75.143Z" style="fill:#7AC36A" />
<path d="M637.74,82.774L635.03,78.086L640.44,78.086Z" style="fill:#7AC36A" />
<path d="M640.33,75.941L637.63,71.253L643.04,71.253Z" style="fill:#7AC36A" />
<path d="M642.93,73.628L640.22,68.941L645.63,68.941Z" style="fill:#7AC36A" />
<path d="M645.52,58.259L642.82,53.572L648.23,53.572Z" style="fill:#7AC36A" />
<path d="M648.12,81.933L645.41,77.245L650.82,77.245Z" style="fill:#7AC36A" />
<path d="M650.71,73.145L648,68.457L653.42,68.457Z" style="fill:#7AC36A" />
<path d="M653.31,74.616L650.6,69.929L656.01,69.929Z" style="fill:#7AC36A" />
<path d="M655.9,78.548L653.19,73.86L658.61,73.86Z" style="fill:#7AC36A" />
<path d="M658.49,74.679L655.79,69.992L661.2,69.992Z" style="fill:#7AC36A" />
<path d="M661.09,61.981L658.38,57.293L663.8,57.293Z" style="fill:#7AC36A" />
<path d="M663.68,91.247L660.98,86.559L666.39,86.559Z" style="fill:#7AC36A" />
<path d="M666.28,53.466L663.57,48.778L668.98,48.778Z" style="fill:#7AC36A" />
<path d="M668.87,75.752L666.17,71.064L671.58,71.064Z" style="fill:#7AC36A" />
<path d="M671.47,72.072L668.76,67.385L674.17,67.385Z" style="fill:#7AC36A" />
<path d="M674.06,87.841L671.36,83.153L676.77,83.153Z" style="fill:#7AC36A" />
<path d="M676.66,81.786L673.95,77.098L679.36,77.098Z" style="fill:#7AC36A" />
<path d="M679.25,82.164L676.54,77.477L681.96,77.477Z" style="fill:#7AC36A" />
<path d="M681.84,72.808L679.14,68.121L684.55,68.121Z" style="fill:#7AC36A" />
<path d="M684.44,61.014L681.73,56.326L687.15,56.326Z" style="fill:#7AC36A" />
<path d="M687.03,97.175L684.33,92.488L689.74,92.488Z" style="fill:#7AC36A" />
<path d="M689.63,67.552L686.92,62.865L692.33,62.865Z" style="fill:#7AC36A" />
<path d="M692.22,95.367L689.52,90.68L694.93,90.68Z" style="fill:#7AC36A" />
<path d="M694.82,67.026L692.11,62.339L697.52,62.339Z" style="fill:#7AC36A" />
<path d="M697.41,75.857L694.71,71.169L700.12,71.169Z" style="fill:#7AC36A" />
<path d="M700.01,80.23L697.3,75.542L702.71,75.542Z" style="fill:#7AC36A" />
<path d="M702.6,69.76L699.89,65.072L705.31,65.072Z" style="fill:#7AC36A" />
<path d="M705.2,87.799L702.49,83.111L707.9,83.111Z" style="fill:#7AC36A" />
<path d="M707.79,59.857L705.08,55.17L710.5,55.17Z" style="fill:#7AC36A" />
<path d="M710.38,78.106L707.68,73.419L713.09,73.419Z" style="fill:#7AC36A" />
<path d="M712.98,77.497L710.27,72.809L715.69,72.809Z" style="fill:#7AC36A" />
<path d="M715.57,71.757L712.87,67.069L718.28,67.069Z" style="fill:#7AC36A" />
<path d="M718.17,60.782L715.46,56.095L720.87,56.095Z" style="fill:#7AC36A" />
<path d="M720.76,86.873L718.06,82.186L723.47,82.186Z" style="fill:#7AC36A" />
<path d="M723.36,79.851L720.65,75.164L726.06,75.164Z" style="fill:#7AC36A" />
<path d="M725.95,83.026L723.25,78.339L728.66,78.339Z" style="fill:#7AC36A" />
<path d="M728.55,81.239L725.84,76.551L731.25,76.551Z" style="fill:#7AC36A" />
<path d="M731.14,83.489L728.43,78.801L733.85,78.801Z" style="fill:#7AC36A" />
<path d="M733.74,90.427L731.03,85.739L736.44,85.739Z" style="fill:#7AC36A" />
<path d="M736.33,79.137L733.62,74.449L739.04,74.449Z" style="fill:#7AC36A" />
<path d="M738.92,83.468L736.22,78.78L741.63,78.78Z" style="fill:#7AC36A" />
<path d="M741.52,72.177L738.81,67.49L744.23,67.49Z" style="fill:#7AC36A" />
<path d="M744.11,66.291L741.41,61.603L746.82,61.603Z" style="fill:#7AC36A" />
<path d="M746.71,81.344L744,76.657L749.41,76.657Z" style="fill:#7AC36A" />
<path d="M749.3,78.758L746.6,74.071L752.01,74.071Z" style="fill:#7AC36A" />
<path d="M751.9,68.982L749.19,64.294L754.6,64.294Z" style="fill:#7AC36A" />
<path d="M754.49,68.603L751.78,63.916L757.2,63.916Z" style="fill:#7AC36A" />
<path d="M757.09,82.311L754.38,77.624L759.79,77.624Z" style="fill:#7AC36A" />
<path d="M759.68,85.149L756.97,80.462L762.39,80.462Z" style="fill:#7AC36A" />
<path d="M762.27,79.557L759.57,74.869L764.98,74.869Z" style="fill:#7AC36A" />
<path d="M764.87,83.425L762.16,78.738L767.58,78.738Z" style="fill:#7AC36A" />
<path d="M767.46,83.257L764.76,78.57L770.17,78.57Z" style="fill:#7AC36A" />
<path d="M770.06,71.084L767.35,66.397L772.76,66.397Z" style="fill:#7AC36A" />
<path d="M772.65,62.254L769.95,57.566L775.36,57.566Z" style="fill:#7AC36A" />
<path d="M775.25,74.217L772.54,69.529L777.95,69.529Z" style="fill:#7AC36A" />
<path d="M777.84,70.706L775.14,66.018L780.55,66.018Z" style="fill:#7AC36A" />
<path d="M780.44,80.987L777.73,76.299L783.14,76.299Z" style="fill:#7AC36A" />
<path d="M783.03,83.825L780.32,79.137L785.74,79.137Z" style="fill:#7AC36A" />
<path d="M785.63,74.763L782.92,70.076L788.33,70.076Z" style="fill:#7AC36A" />
<path d="M788.22,75.646L785.51,70.959L790.93,70.959Z" style="fill:#7AC36A" />
<path d="M790.81,88.534L788.11,83.847L793.52,83.847Z" style="fill:#7AC36A" />
<path d="M793.41,91.204L790.7,86.517L796.12,86.517Z" style="fill:#7AC36A" />
<path d="M796,78.253L793.3,73.566L798.71,73.566Z" style="fill:#7AC36A" />
<path d="M798.6,80.104L795.89,75.416L801.3,75.416Z" style="fill:#7AC36A" />
<path d="M801.19,77.076L798.49,72.389L803.9,72.389Z" style="fill:#7AC36A" />
<path d="M803.79,92.844L801.08,88.157L806.49,88.157Z" style="fill:#7AC36A" />
<path d="M806.38,74.259L803.68,69.571L809.09,69.571Z" style="fill:#7AC36A" />
<path d="M808.98,80.945L806.27,76.257L811.68,76.257Z" style="fill:#7AC36A" />
<path d="M811.57,86.705L808.86,82.018L814.28,82.018Z" style="fill:#7AC36A" />
<path d="M814.17,81.933L811.46,77.245L816.87,77.245Z" style="fill:#7AC36A" />
<path d="M816.76,87.399L814.05,82.712L819.47,82.712Z" style="fill:#7AC36A" />
<path d="M819.35,75.457L816.65,70.77L822.06,70.77Z" style="fill:#7AC36A" />
<path d="M821.95,82.353L819.24,77.666L824.65,77.666Z" style="fill:#7AC36A" />
<path d="M824.54,78.548L821.84,73.86L827.25,73.86Z" style="fill:#7AC36A" />
<path d="M827.14,81.197L824.43,76.509L829.84,76.509Z" style="fill:#7AC36A" />
<path d="M829.73,74.658L827.03,69.971L832.44,69.971Z" style="fill:#7AC36A" />
<path d="M832.33,68.498L829.62,63.811L835.03,63.811Z" style="fill:#7AC36A" />
<path d="M834.92,82.143L832.21,77.455L837.63,77.455Z" style="fill:#7AC36A" />
<path d="M837.52,84.287L834.81,79.6L840.22,79.6Z" style="fill:#7AC36A" />
<path d="M840.11,73.46L837.4,68.772L842.82,68.772Z" style="fill:#7AC36A" />
<path d="M842.7,83.888L840,79.201L845.41,79.201Z" style="fill:#7AC36A" />
<path d="M845.3,78.695L842.59,74.007L848.01,74.007Z" style="fill:#7AC36A" />
<path d="M847.89,76.277L845.19,71.59L850.6,71.59Z" style="fill:#7AC36A" />
<path d="M72.135,42.835L74.729,42.793L77.324,42.772L79.918,42.814L82.513,42.919L85.107,42.73L87.702,42.772L90.296,42.772L92.891,43.15L95.485,42.709L98.08,42.772L100.67,42.709L103.27,42.772L105.86,42.856L108.46,42.772L111.05,42.793L113.65,42.793L116.24,42.961L118.84,42.751L121.43,42.772L124.02,42.772L126.62,42.919L129.21,42.877L131.81,42.772L134.4,42.772L137,42.856L139.59,42.856L142.19,42.793L144.78,42.772L147.38,42.919L149.97,42.961L152.56,42.898L155.16,42.793L157.75,42.772L160.35,43.066L162.94,42.877L165.54,42.919L168.13,42.835L170.73,43.087L173.32,42.73L175.92,42.793L178.51,42.856L181.1,42.877L183.7,42.793L186.29,42.835L188.89,42.73L191.48,42.793L194.08,42.751L196.67,42.793L199.27,42.856L201.86,42.793L204.45,42.835L207.05,42.772L209.64,42.877L212.24,43.298L214.83,42.772L217.43,42.73L220.02,42.751L222.62,42.73L225.21,42.751L227.81,42.793L230.4,42.73L232.99,42.793L235.59,42.898L238.18,42.835L240.78,42.919L243.37,42.835L245.97,42.814L248.56,43.193L251.16,42.772L253.75,42.961L256.35,43.024L258.94,42.877L261.53,42.856L264.13,42.751L266.72,42.793L269.32,42.814L271.91,42.835L274.51,42.73L277.1,42.793L279.7,42.793L282.29,42.94L284.88,42.835L287.48,42.73L290.07,42.751L292.67,42.751L295.26,42.751L297.86,42.856L300.45,42.772L303.05,42.898L305.64,42.856L308.24,43.087L310.83,42.793L313.42,42.73L316.02,42.835L318.61,42.982L321.21,42.793L323.8,43.003L326.4,42.814L328.99,42.751L331.59,45.821L334.18,44.307L336.77,44.475L339.37,44.664L341.96,44.16L344.56,44.223L347.15,44.265L349.75,47.061L352.34,44.244L354.94,44.223L357.53,44.748L360.13,46.325L362.72,44.896L365.31,44.244L367.91,44.328L370.5,44.391L373.1,44.938L375.69,44.643L378.29,44.727L380.88,44.391L383.48,45.568L386.07,44.874L388.67,44.622L391.26,44.832L393.85,45.19L396.45,44.307L399.04,44.412L401.64,44.328L404.23,44.139L406.83,45.568L409.42,44.265L412.02,44.223L414.61,44.223L417.2,44.706L419.8,44.349L422.39,44.832L424.99,44.538L427.58,44.706L430.18,45.442L432.77,44.139L435.37,44.685L437.96,44.685L440.56,44.076L443.15,44.118L445.74,44.286L448.34,44.832L450.93,45.337L453.53,44.202L456.12,47.25L458.72,44.874L461.31,44.433L463.91,44.223L466.5,44.748L469.1,45.316L471.69,44.118L474.28,45.19L476.88,44.811L479.47,44.832L482.07,46.598L484.66,44.622L487.26,44.475L489.85,45.022L492.45,45.442L495.04,45.001L497.63,44.328L500.23,45.19L502.82,44.517L505.42,44.748L508.01,43.949L510.61,45.274L513.2,44.853L515.8,44.223L518.39,45.821L520.99,44.37L523.58,45.022L526.17,43.991L528.77,46.241L531.36,44.98L533.96,44.055L536.55,44.896L539.15,45.295L541.74,43.844L544.34,44.37L546.93,44.265L549.52,44.118L552.12,45.022L554.71,44.748L557.31,44.244L559.9,44.202L562.5,45.064L565.09,45.337L567.69,44.433L570.28,44.181L572.88,44.811L575.47,44.727L578.06,45.211L580.66,44.685L583.25,44.517L585.85,44.328L588.44,44.265L591.04,44.223L593.63,43.823L596.23,43.97L598.82,44.286L601.42,43.928L604.01,45.421L606.6,45.442L609.2,44.286L611.79,44.874L614.39,43.949L616.98,44.328L619.58,44.286L622.17,44.244L624.77,43.886L627.36,43.634L629.95,43.634L632.55,44.622L635.14,44.16L637.74,44.012L640.33,44.16L642.93,44.685L645.52,43.487L648.12,44.853L650.71,44.454L653.31,44.223L655.9,44.475L658.49,44.223L661.09,43.445L663.68,44.055L666.28,43.634L668.87,44.076L671.47,43.487L674.06,44.37L676.66,44.917L679.25,43.613L681.84,44.349L684.44,43.697L687.03,43.634L689.63,43.991L692.22,43.655L694.82,44.58L697.41,45.106L700.01,43.97L702.6,44.938L705.2,44.16L707.79,43.55L710.38,44.496L712.98,43.802L715.57,44.559L718.17,44.012L720.76,44.391L723.36,44.349L725.95,44.98L728.55,44.391L731.14,45.001L733.74,45.568L736.33,44.706L738.92,44.896L741.52,43.739L744.11,44.811L746.71,43.928L749.3,44.076L751.9,44.076L754.49,43.907L757.09,44.496L759.68,44.307L762.27,44.328L764.87,44.202L767.46,45.022L770.06,44.664L772.65,43.991L775.25,45.253L777.84,45.19L780.44,45.736L783.03,46.535L785.63,44.202L788.22,45.442L790.81,45.842L793.41,45.358L796,44.664L798.6,45.106L801.19,44.37L803.79,45.484L806.38,44.475L808.98,44.202L811.57,44.601L814.17,45.505L816.76,46.178L819.35,44.37L821.95,44.139L824.54,44.896L827.14,44.244L829.73,44.832L832.33,46.241L834.92,45.211L837.52,45.358L840.11,44.559L842.7,44.307L845.3,44.769L847.89,44.853" style="fill:none;stroke:#5A9BD4" />
<path d="M72.135,45.96L69.428,41.273L74.841,41.273Z" style="fill:#5A9BD4" />
<path d="M74.729,45.918L72.023,41.231L77.436,41.231Z" style="fill:#5A9BD4" />
<path d="M77.324,45.897L74.617,41.21L80.03,41.21Z" style="fill:#5A9BD4" />
<path d="M79.918,45.939L77.212,41.252L82.625,41.252Z" style="fill:#5A9BD4" />
<path d="M82.513,46.044L79.806,41.357L85.219,41.357Z" style="fill:#5A9BD4" />
<path d="M85.107,45.855L82.401,41.168L87.814,41.168Z" style="fill:#5A9BD4" />
<path d="M87.702,45.897L84.996,41.21L90.408,41.21Z" style="fill:#5A9BD4" />
<path d="M90.296,45.897L87.59,41.21L93.003,41.21Z" style="fill:#5A9BD4" />
<path d="M92.891,46.275L90.185,41.588L95.597,41.588Z" style="fill:#5A9BD4" />
<path d="M95.485,45.834L92.779,41.146L98.192,41.146Z" style="fill:#5A9BD4" />
<path d="M98.08,45.897L95.374,41.21L100.79,41.21Z" style="fill:#5A9BD4" />
<path d="M100.67,45.834L97.968,41.146L103.38,41.146Z" style="fill:#5A9BD4" />
<path d="M103.27,45.897L100.56,41.21L105.98,41.21Z" style="fill:#5A9BD4" />
<path d="M105.86,45.981L103.16,41.294L108.57,41.294Z" style="fill:#5A9BD4" />
<path d="M108.46,45.897L105.75,41.21L111.16,41.21Z" style="fill:#5A9BD4" />
<path d="M111.05,45.918L108.35,41.231L113.76,41.231Z" style="fill:#5A9BD4" />
<path d="M113.65,45.918L110.94,41.231L116.35,41.231Z" style="fill:#5A9BD4" />
<path d="M116.24,46.086L113.54,41.399L118.95,41.399Z" style="fill:#5A9BD4" />
<path d="M118.84,45.876L116.13,41.189L121.54,41.189Z" style="fill:#5A9BD4" />
<path d="M121.43,45.897L118.72,41.21L124.14,41.21Z" style="fill:#5A9BD4" />
<path d="M124.02,45.897L121.32,41.21L126.73,41.21Z" style="fill:#5A9BD4" />
<path d="M126.62,46.044L123.91,41.357L129.33,41.357Z" style="fill:#5A9BD4" />
<path d="M129.21,46.002L126.51,41.315L131.92,41.315Z" style="fill:#5A9BD4" />
<path d="M131.81,45.897L129.1,41.21L134.51,41.21Z" style="fill:#5A9BD4" />
<path d="M134.4,45.897L131.7,41.21L137.11,41.21Z" style="fill:#5A9BD4" />
<path d="M137,45.981L134.29,41.294L139.7,41.294Z" style="fill:#5A9BD4" />
<path d="M139.59,45.981L136.89,41.294L142.3,41.294Z" style="fill:#5A9BD4" />
<path d="M142.19,45.918L139.48,41.231L144.89,41.231Z" style="fill:#5A9BD4" />
<path d="M144.78,45.897L142.07,41.21L147.49,41.21Z" style="fill:#5A9BD4" />
<path d="M147.38,46.044L144.67,41.357L150.08,41.357Z" style="fill:#5A9BD4" />
<path d="M149.97,46.086L147.26,41.399L152.68,41.399Z" style="fill:#5A9BD4" />
<path d="M152.56,46.023L149.86,41.336L155.27,41.336Z" style="fill:#5A9BD4" />
<path d="M155.16,45.918L152.45,41.231L157.87,41.231Z" style="fill:#5A9BD4" />
<path d="M157.75,45.897L155.05,41.21L160.46,41.21Z" style="fill:#5A9BD4" />
<path d="M160.35,46.191L157.64,41.504L163.05,41.504Z" style="fill:#5A9BD4" />
<path d="M162.94,46.002L160.24,41.315L165.65,41.315Z" style="fill:#5A9BD4" />
<path d="M165.54,46.044L162.83,41.357L168.24,41.357Z" style="fill:#5A9BD4" />
<path d="M168.13,45.96L165.43,41.273L170.84,41.273Z" style="fill:#5A9BD4" />
<path d="M170.73,46.212L168.02,41.525L173.43,41.525Z" style="fill:#5A9BD4" />
<path d="M173.32,45.855L170.61,41.168L176.03,41.168Z" style="fill:#5A9BD4" />
<path d="M175.92,45.918L173.21,41.231L178.62,41.231Z" style="fill:#5A9BD4" />
<path d="M178.51,45.981L175.8,41.294L181.22,41.294Z" style="fill:#5A9BD4" />
<path d="M181.1,46.002L178.4,41.315L183.81,41.315Z" style="fill:#5A9BD4" />
<path d="M183.7,45.918L180.99,41.231L186.41,41.231Z" style="fill:#5A9BD4" />
<path d="M186.29,45.96L183.59,41.273L189,41.273Z" style="fill:#5A9BD4" />
<path d="M188.89,45.855L186.18,41.168L191.59,41.168Z" style="fill:#5A9BD4" />
<path d="M191.48,45.918L188.78,41.231L194.19,41.231Z" style="fill:#5A9BD4" />
<path d="M194.08,45.876L191.37,41.189L196.78,41.189Z" style="fill:#5A9BD4" />
<path d="M196.67,45.918L193.96,41.231L199.38,41.231Z" style="fill:#5A9BD4" />
<path d="M199.27,45.981L196.56,41.294L201.97,41.294Z" style="fill:#5A9BD4" />
<path d="M201.86,45.918L199.15,41.231L204.57,41.231Z" style="fill:#5A9BD4" />
<path d="M204.45,45.96L201.75,41.273L207.16,41.273Z" style="fill:#5A9BD4" />
<path d="M207.05,45.897L204.34,41.21L209.76,41.21Z" style="fill:#5A9BD4" />
<path d="M209.64,46.002L206.94,41.315L212.35,41.315Z" style="fill:#5A9BD4" />
<path d="M212.24,46.423L209.53,41.735L214.94,41.735Z" style="fill:#5A9BD4" />
<path d="M214.83,45.897L212.13,41.21L217.54,41.21Z" style="fill:#5A9BD4" />
<path d="M217.43,45.855L214.72,41.168L220.13,41.168Z" style="fill:#5A9BD4" />
<path d="M220.02,45.876L217.32,41.189L222.73,41.189Z" style="fill:#5A9BD4" />
<path d="M222.62,45.855L219.91,41.168L225.32,41.168Z" style="fill:#5A9BD4" />
<path d="M225.21,45.876L222.5,41.189L227.92,41.189Z" style="fill:#5A9BD4" />
<path d="M227.81,45.918L225.1,41.231L230.51,41.231Z" style="fill:#5A9BD4" />
<path d="M230.4,45.855L227.69,41.168L233.11,41.168Z" style="fill:#5A9BD4" />
<path d="M232.99,45.918L230.29,41.231L235.7,41.231Z" style="fill:#5A9BD4" />
<path d="M235.59,46.023L232.88,41.336L238.3,41.336Z" style="fill:#5A9BD4" />
<path d="M238.18,45.96L235.48,41.273L240.89,41.273Z" style="fill:#5A9BD4" />
<path d="M240.78,46.044L238.07,41.357L243.48,41.357Z" style="fill:#5A9BD4" />
<path d="M243.37,45.96L240.67,41.273L246.08,41.273Z" style="fill:#5A9BD4" />
<path d="M245.97,45.939L243.26,41.252L248.67,41.252Z" style="fill:#5A9BD4" />
<path d="M248.56,46.318L245.86,41.63L251.27,41.63Z" style="fill:#5A9BD4" />
<path d="M251.16,45.897L248.45,41.21L253.86,41.21Z" style="fill:#5A9BD4" />
<path d="M253.75,46.086L251.04,41.399L256.46,41.399Z" style="fill:#5A9BD4" />
<path d="M256.35,46.149L253.64,41.462L259.05,41.462Z" style="fill:#5A9BD4" />
<path d="M258.94,46.002L256.23,41.315L261.65,41.315Z" style="fill:#5A9BD4" />
<path d="M261.53,45.981L258.83,41.294L264.24,41.294Z" style="fill:#5A9BD4" />
<path d="M264.13,45.876L261.42,41.189L266.83,41.189Z" style="fill:#5A9BD4" />
<path d="M266.72,45.918L264.02,41.231L269.43,41.231Z" style="fill:#5A9BD4" />
<path d="M269.32,45.939L266.61,41.252L272.02,41.252Z" style="fill:#5A9BD4" />
<path d="M271.91,45.96L269.21,41.273L274.62,41.273Z" style="fill:#5A9BD4" />
<path d="M274.51,45.855L271.8,41.168L277.21,41.168Z" style="fill:#5A9BD4" />
<path d="M277.1,45.918L274.39,41.231L279.81,41.231Z" style="fill:#5A9BD4" />
<path d="M279.7,45.918L276.99,41.231L282.4,41.231Z" style="fill:#5A9BD4" />
<path d="M282.29,46.065L279.58,41.378L285,41.378Z" style="fill:#5A9BD4" />
<path d="M284.88,45.96L282.18,41.273L287.59,41.273Z" style="fill:#5A9BD4" />
<path d="M287.48,45.855L284.77,41.168L290.19,41.168Z" style="fill:#5A9BD4" />
<path d="M290.07,45.876L287.37,41.189L292.78,41.189Z" style="fill:#5A9BD4" />
<path d="M292.67,45.876L289.96,41.189L295.37,41.189Z" style="fill:#5A9BD4" />
<path d="M295.26,45.876L292.56,41.189L297.97,41.189Z" style="fill:#5A9BD4" />
<path d="M297.86,45.981L295.15,41.294L300.56,41.294Z" style="fill:#5A9BD4" />
<path d="M300.45,45.897L297.75,41.21L303.16,41.21Z" style="fill:#5A9BD4" />
<path d="M303.05,46.023L300.34,41.336L305.75,41.336Z" style="fill:#5A9BD4" />
<path d="M305.64,45.981L302.93,41.294L308.35,41.294Z" style="fill:#5A9BD4" />
<path d="M308.24,46.212L305.53,41.525L310.94,41.525Z" style="fill:#5A9BD4" />
<path d="M310.83,45.918L308.12,41.231L313.54,41.231Z" style="fill:#5A9BD4" />
<path d="M313.42,45.855L310.72,41.168L316.13,41.168Z" style="fill:#5A9BD4" />
<path d="M316.02,45.96L313.31,41.273L318.73,41.273Z" style="fill:#5A9BD4" />
<path d="M318.61,46.107L315.91,41.42L321.32,41.42Z" style="fill:#5A9BD4" />
<path d="M321.21,45.918L318.5,41.231L323.91,41.231Z" style="fill:#5A9BD4" />
<path d="M323.8,46.128L321.1,41.441L326.51,41.441Z" style="fill:#5A9BD4" />
<path d="M326.4,45.939L323.69,41.252L329.1,41.252Z" style="fill:#5A9BD4" />
<path d="M328.99,45.876L326.29,41.189L331.7,41.189Z" style="fill:#5A9BD4" />
<path d="M331.59,48.946L328.88,44.258L334.29,44.258Z" style="fill:#5A9BD4" />
<path d="M334.18,47.432L331.47,42.744L336.89,42.744Z" style="fill:#5A9BD4" />
<path d="M336.77,47.6L334.07,42.913L339.48,42.913Z" style="fill:#5A9BD4" />
<path d="M339.37,47.789L336.66,43.102L342.08,43.102Z" style="fill:#5A9BD4" />
<path d="M341.96,47.285L339.26,42.597L344.67,42.597Z" style="fill:#5A9BD4" />
<path d="M344.56,47.348L341.85,42.66L347.26,42.66Z" style="fill:#5A9BD4" />
<path d="M347.15,47.39L344.45,42.702L349.86,42.702Z" style="fill:#5A9BD4" />
<path d="M349.75,50.186L347.04,45.499L352.45,45.499Z" style="fill:#5A9BD4" />
<path d="M352.34,47.369L349.64,42.681L355.05,42.681Z" style="fill:#5A9BD4" />
<path d="M354.94,47.348L352.23,42.66L357.64,42.66Z" style="fill:#5A9BD4" />
<path d="M357.53,47.873L354.82,43.186L360.24,43.186Z" style="fill:#5A9BD4" />
<path d="M360.13,49.45L357.42,44.763L362.83,44.763Z" style="fill:#5A9BD4" />
<path d="M362.72,48.021L360.01,43.333L365.43,43.333Z" style="fill:#5A9BD4" />
<path d="M365.31,47.369L362.61,42.681L368.02,42.681Z" style="fill:#5A9BD4" />
<path d="M367.91,47.453L365.2,42.765L370.62,42.765Z" style="fill:#5A9BD4" />
<path d="M370.5,47.516L367.8,42.828L373.21,42.828Z" style="fill:#5A9BD4" />
<path d="M373.1,48.063L370.39,43.375L375.8,43.375Z" style="fill:#5A9BD4" />
<path d="M375.69,47.768L372.99,43.081L378.4,43.081Z" style="fill:#5A9BD4" />
<path d="M378.29,47.852L375.58,43.165L380.99,43.165Z" style="fill:#5A9BD4" />
<path d="M380.88,47.516L378.18,42.828L383.59,42.828Z" style="fill:#5A9BD4" />
<path d="M383.48,48.693L380.77,44.006L386.18,44.006Z" style="fill:#5A9BD4" />
<path d="M386.07,47.999L383.36,43.312L388.78,43.312Z" style="fill:#5A9BD4" />
<path d="M388.67,47.747L385.96,43.06L391.37,43.06Z" style="fill:#5A9BD4" />
<path d="M391.26,47.957L388.55,43.27L393.97,43.27Z" style="fill:#5A9BD4" />
<path d="M393.85,48.315L391.15,43.627L396.56,43.627Z" style="fill:#5A9BD4" />
<path d="M396.45,47.432L393.74,42.744L399.16,42.744Z" style="fill:#5A9BD4" />
<path d="M399.04,47.537L396.34,42.849L401.75,42.849Z" style="fill:#5A9BD4" />
<path d="M401.64,47.453L398.93,42.765L404.34,42.765Z" style="fill:#5A9BD4" />
<path d="M404.23,47.264L401.53,42.576L406.94,42.576Z" style="fill:#5A9BD4" />
<path d="M406.83,48.693L404.12,44.006L409.53,44.006Z" style="fill:#5A9BD4" />
<path d="M409.42,47.39L406.71,42.702L412.13,42.702Z" style="fill:#5A9BD4" />
<path d="M412.02,47.348L409.31,42.66L414.72,42.66Z" style="fill:#5A9BD4" />
<path d="M414.61,47.348L411.9,42.66L417.32,42.66Z" style="fill:#5A9BD4" />
<path d="M417.2,47.831L414.5,43.144L419.91,43.144Z" style="fill:#5A9BD4" />
<path d="M419.8,47.474L417.09,42.786L422.51,42.786Z" style="fill:#5A9BD4" />
<path d="M422.39,47.957L419.69,43.27L425.1,43.27Z" style="fill:#5A9BD4" />
<path d="M424.99,47.663L422.28,42.976L427.69,42.976Z" style="fill:#5A9BD4" />
<path d="M427.58,47.831L424.88,43.144L430.29,43.144Z" style="fill:#5A9BD4" />
<path d="M430.18,48.567L427.47,43.88L432.88,43.88Z" style="fill:#5A9BD4" />
<path d="M432.77,47.264L430.07,42.576L435.48,42.576Z" style="fill:#5A9BD4" />
<path d="M435.37,47.81L432.66,43.123L438.07,43.123Z" style="fill:#5A9BD4" />
<path d="M437.96,47.81L435.25,43.123L440.67,43.123Z" style="fill:#5A9BD4" />
<path d="M440.56,47.201L437.85,42.513L443.26,42.513Z" style="fill:#5A9BD4" />
<path d="M443.15,47.243L440.44,42.555L445.86,42.555Z" style="fill:#5A9BD4" />
<path d="M445.74,47.411L443.04,42.723L448.45,42.723Z" style="fill:#5A9BD4" />
<path d="M448.34,47.957L445.63,43.27L451.05,43.27Z" style="fill:#5A9BD4" />
<path d="M450.93,48.462L448.23,43.775L453.64,43.775Z" style="fill:#5A9BD4" />
<path d="M453.53,47.327L450.82,42.639L456.23,42.639Z" style="fill:#5A9BD4" />
<path d="M456.12,50.375L453.42,45.688L458.83,45.688Z" style="fill:#5A9BD4" />
<path d="M458.72,47.999L456.01,43.312L461.42,43.312Z" style="fill:#5A9BD4" />
<path d="M461.31,47.558L458.61,42.87L464.02,42.87Z" style="fill:#5A9BD4" />
<path d="M463.91,47.348L461.2,42.66L466.61,42.66Z" style="fill:#5A9BD4" />
<path d="M466.5,47.873L463.79,43.186L469.21,43.186Z" style="fill:#5A9BD4" />
<path d="M469.1,48.441L466.39,43.753L471.8,43.753Z" style="fill:#5A9BD4" />
<path d="M471.69,47.243L468.98,42.555L474.4,42.555Z" style="fill:#5A9BD4" />
<path d="M474.28,48.315L471.58,43.627L476.99,43.627Z" style="fill:#5A9BD4" />
<path d="M476.88,47.936L474.17,43.249L479.58,43.249Z" style="fill:#5A9BD4" />
<path d="M479.47,47.957L476.77,43.27L482.18,43.27Z" style="fill:#5A9BD4" />
<path d="M482.07,49.723L479.36,45.036L484.77,45.036Z" style="fill:#5A9BD4" />
<path d="M484.66,47.747L481.96,43.06L487.37,43.06Z" style="fill:#5A9BD4" />
<path d="M487.26,47.6L484.55,42.913L489.96,42.913Z" style="fill:#5A9BD4" />
<path d="M489.85,48.147L487.14,43.459L492.56,43.459Z" style="fill:#5A9BD4" />
<path d="M492.45,48.567L489.74,43.88L495.15,43.88Z" style="fill:#5A9BD4" />
<path d="M495.04,48.126L492.33,43.438L497.75,43.438Z" style="fill:#5A9BD4" />
<path d="M497.63,47.453L494.93,42.765L500.34,42.765Z" style="fill:#5A9BD4" />
<path d="M500.23,48.315L497.52,43.627L502.94,43.627Z" style="fill:#5A9BD4" />
<path d="M502.82,47.642L500.12,42.955L505.53,42.955Z" style="fill:#5A9BD4" />
<path d="M505.42,47.873L502.71,43.186L508.12,43.186Z" style="fill:#5A9BD4" />
<path d="M508.01,47.074L505.31,42.387L510.72,42.387Z" style="fill:#5A9BD4" />
<path d="M510.61,48.399L507.9,43.711L513.31,43.711Z" style="fill:#5A9BD4" />
<path d="M513.2,47.978L510.5,43.291L515.91,43.291Z" style="fill:#5A9BD4" />
<path d="M515.8,47.348L513.09,42.66L518.5,42.66Z" style="fill:#5A9BD4" />
<path d="M518.39,48.946L515.68,44.258L521.1,44.258Z" style="fill:#5A9BD4" />
<path d="M520.99,47.495L518.28,42.807L523.69,42.807Z" style="fill:#5A9BD4" />
<path d="M523.58,48.147L520.87,43.459L526.29,43.459Z" style="fill:#5A9BD4" />
<path d="M526.17,47.116L523.47,42.429L528.88,42.429Z" style="fill:#5A9BD4" />
<path d="M528.77,49.366L526.06,44.679L531.48,44.679Z" style="fill:#5A9BD4" />
<path d="M531.36,48.105L528.66,43.417L534.07,43.417Z" style="fill:#5A9BD4" />
<path d="M533.96,47.18L531.25,42.492L536.66,42.492Z" style="fill:#5A9BD4" />
<path d="M536.55,48.021L533.85,43.333L539.26,43.333Z" style="fill:#5A9BD4" />
<path d="M539.15,48.42L536.44,43.732L541.85,43.732Z" style="fill:#5A9BD4" />
<path d="M541.74,46.969L539.04,42.282L544.45,42.282Z" style="fill:#5A9BD4" />
<path d="M544.34,47.495L541.63,42.807L547.04,42.807Z" style="fill:#5A9BD4" />
<path d="M546.93,47.39L544.22,42.702L549.64,42.702Z" style="fill:#5A9BD4" />
<path d="M549.52,47.243L546.82,42.555L552.23,42.555Z" style="fill:#5A9BD4" />
<path d="M552.12,48.147L549.41,43.459L554.83,43.459Z" style="fill:#5A9BD4" />
<path d="M554.71,47.873L552.01,43.186L557.42,43.186Z" style="fill:#5A9BD4" />
<path d="M557.31,47.369L554.6,42.681L560.01,42.681Z" style="fill:#5A9BD4" />
<path d="M559.9,47.327L557.2,42.639L562.61,42.639Z" style="fill:#5A9BD4" />
<path d="M562.5,48.189L559.79,43.501L565.2,43.501Z" style="fill:#5A9BD4" />
<path d="M565.09,48.462L562.39,43.775L567.8,43.775Z" style="fill:#5A9BD4" />
<path d="M567.69,47.558L564.98,42.87L570.39,42.87Z" style="fill:#5A9BD4" />
<path d="M570.28,47.306L567.57,42.618L572.99,42.618Z" style="fill:#5A9BD4" />
<path d="M572.88,47.936L570.17,43.249L575.58,43.249Z" style="fill:#5A9BD4" />
<path d="M575.47,47.852L572.76,43.165L578.18,43.165Z" style="fill:#5A9BD4" />
<path d="M578.06,48.336L575.36,43.648L580.77,43.648Z" style="fill:#5A9BD4" />
<path d="M580.66,47.81L577.95,43.123L583.37,43.123Z" style="fill:#5A9BD4" />
<path d="M583.25,47.642L580.55,42.955L585.96,42.955Z" style="fill:#5A9BD4" />
<path d="M585.85,47.453L583.14,42.765L588.55,42.765Z" style="fill:#5A9BD4" />
<path d="M588.44,47.39L585.74,42.702L591.15,42.702Z" style="fill:#5A9BD4" />
<path d="M591.04,47.348L588.33,42.66L593.74,42.66Z" style="fill:#5A9BD4" />
<path d="M593.63,46.948L590.93,42.261L596.34,42.261Z" style="fill:#5A9BD4" />
<path d="M596.23,47.095L593.52,42.408L598.93,42.408Z" style="fill:#5A9BD4" />
<path d="M598.82,47.411L596.11,42.723L601.53,42.723Z" style="fill:#5A9BD4" />
<path d="M601.42,47.053L598.71,42.366L604.12,42.366Z" style="fill:#5A9BD4" />
<path d="M604.01,48.546L601.3,43.859L606.72,43.859Z" style="fill:#5A9BD4" />
<path d="M606.6,48.567L603.9,43.88L609.31,43.88Z" style="fill:#5A9BD4" />
<path d="M609.2,47.411L606.49,42.723L611.9,42.723Z" style="fill:#5A9BD4" />
<path d="M611.79,47.999L609.09,43.312L614.5,43.312Z" style="fill:#5A9BD4" />
<path d="M614.39,47.074L611.68,42.387L617.09,42.387Z" style="fill:#5A9BD4" />
<path d="M616.98,47.453L614.28,42.765L619.69,42.765Z" style="fill:#5A9BD4" />
<path d="M619.58,47.411L616.87,42.723L622.28,42.723Z" style="fill:#5A9BD4" />
<path d="M622.17,47.369L619.46,42.681L624.88,42.681Z" style="fill:#5A9BD4" />
<path d="M624.77,47.011L622.06,42.324L627.47,42.324Z" style="fill:#5A9BD4" />
<path d="M627.36,46.759L624.65,42.072L630.07,42.072Z" style="fill:#5A9BD4" />
<path d="M629.95,46.759L627.25,42.072L632.66,42.072Z" style="fill:#5A9BD4" />
<path d="M632.55,47.747L629.84,43.06L635.26,43.06Z" style="fill:#5A9BD4" />
<path d="M635.14,47.285L632.44,42.597L637.85,42.597Z" style="fill:#5A9BD4" />
<path d="M637.74,47.137L635.03,42.45L640.44,42.45Z" style="fill:#5A9BD4" />
<path d="M640.33,47.285L637.63,42.597L643.04,42.597Z" style="fill:#5A9BD4" />
<path d="M642.93,47.81L640.22,43.123L645.63,43.123Z" style="fill:#5A9BD4" />
<path d="M645.52,46.612L642.82,41.924L648.23,41.924Z" style="fill:#5A9BD4" />
<path d="M648.12,47.978L645.41,43.291L650.82,43.291Z" style="fill:#5A9BD4" />
<path d="M650.71,47.579L648,42.892L653.42,42.892Z" style="fill:#5A9BD4" />
<path d="M653.31,47.348L650.6,42.66L656.01,42.66Z" style="fill:#5A9BD4" />
<path d="M655.9,47.6L653.19,42.913L658.61,42.913Z" style="fill:#5A9BD4" />
<path d="M658.49,47.348L655.79,42.66L661.2,42.66Z" style="fill:#5A9BD4" />
<path d="M661.09,46.57L658.38,41.882L663.8,41.882Z" style="fill:#5A9BD4" />
<path d="M663.68,47.18L660.98,42.492L666.39,42.492Z" style="fill:#5A9BD4" />
<path d="M666.28,46.759L663.57,42.072L668.98,42.072Z" style="fill:#5A9BD4" />
<path d="M668.87,47.201L666.17,42.513L671.58,42.513Z" style="fill:#5A9BD4" />
<path d="M671.47,46.612L668.76,41.924L674.17,41.924Z" style="fill:#5A9BD4" />
<path d="M674.06,47.495L671.36,42.807L676.77,42.807Z" style="fill:#5A9BD4" />
<path d="M676.66,48.042L673.95,43.354L679.36,43.354Z" style="fill:#5A9BD4" />
<path d="M679.25,46.738L676.54,42.051L681.96,42.051Z" style="fill:#5A9BD4" />
<path d="M681.84,47.474L679.14,42.786L684.55,42.786Z" style="fill:#5A9BD4" />
<path d="M684.44,46.822L681.73,42.135L687.15,42.135Z" style="fill:#5A9BD4" />
<path d="M687.03,46.759L684.33,42.072L689.74,42.072Z" style="fill:#5A9BD4" />
<path d="M689.63,47.116L686.92,42.429L692.33,42.429Z" style="fill:#5A9BD4" />
<path d="M692.22,46.78L689.52,42.093L694.93,42.093Z" style="fill:#5A9BD4" />
<path d="M694.82,47.705L692.11,43.018L697.52,43.018Z" style="fill:#5A9BD4" />
<path d="M697.41,48.231L694.71,43.543L700.12,43.543Z" style="fill:#5A9BD4" />
<path d="M700.01,47.095L697.3,42.408L702.71,42.408Z" style="fill:#5A9BD4" />
<path d="M702.6,48.063L699.89,43.375L705.31,43.375Z" style="fill:#5A9BD4" />
<path d="M705.2,47.285L702.49,42.597L707.9,42.597Z" style="fill:#5A9BD4" />
<path d="M707.79,46.675L705.08,41.987L710.5,41.987Z" style="fill:#5A9BD4" />
<path d="M710.38,47.621L707.68,42.934L713.09,42.934Z" style="fill:#5A9BD4" />
<path d="M712.98,46.927L710.27,42.24L715.69,42.24Z" style="fill:#5A9BD4" />
<path d="M715.57,47.684L712.87,42.997L718.28,42.997Z" style="fill:#5A9BD4" />
<path d="M718.17,47.137L715.46,42.45L720.87,42.45Z" style="fill:#5A9BD4" />
<path d="M720.76,47.516L718.06,42.828L723.47,42.828Z" style="fill:#5A9BD4" />
<path d="M723.36,47.474L720.65,42.786L726.06,42.786Z" style="fill:#5A9BD4" />
<path d="M725.95,48.105L723.25,43.417L728.66,43.417Z" style="fill:#5A9BD4" />
<path d="M728.55,47.516L725.84,42.828L731.25,42.828Z" style="fill:#5A9BD4" />
<path d="M731.14,48.126L728.43,43.438L733.85,43.438Z" style="fill:#5A9BD4" />
<path d="M733.74,48.693L731.03,44.006L736.44,44.006Z" style="fill:#5A9BD4" />
<path d="M736.33,47.831L733.62,43.144L739.04,43.144Z" style="fill:#5A9BD4" />
<path d="M738.92,48.021L736.22,43.333L741.63,43.333Z" style="fill:#5A9BD4" />
<path d="M741.52,46.864L738.81,42.177L744.23,42.177Z" style="fill:#5A9BD4" />
<path d="M744.11,47.936L741.41,43.249L746.82,43.249Z" style="fill:#5A9BD4" />
<path d="M746.71,47.053L744,42.366L749.41,42.366Z" style="fill:#5A9BD4" />
<path d="M749.3,47.201L746.6,42.513L752.01,42.513Z" style="fill:#5A9BD4" />
<path d="M751.9,47.201L749.19,42.513L754.6,42.513Z" style="fill:#5A9BD4" />
<path d="M754.49,47.032L751.78,42.345L757.2,42.345Z" style="fill:#5A9BD4" />
<path d="M757.09,47.621L754.38,42.934L759.79,42.934Z" style="fill:#5A9BD4" />
<path d="M759.68,47.432L756.97,42.744L762.39,42.744Z" style="fill:#5A9BD4" />
<path d="M762.27,47.453L759.57,42.765L764.98,42.765Z" style="fill:#5A9BD4" />
<path d="M764.87,47.327L762.16,42.639L767.58,42.639Z" style="fill:#5A9BD4" />
<path d="M767.46,48.147L764.76,43.459L770.17,43.459Z" style="fill:#5A9BD4" />
<path d="M770.06,47.789L767.35,43.102L772.76,43.102Z" style="fill:#5A9BD4" />
<path d="M772.65,47.116L769.95,42.429L775.36,42.429Z" style="fill:#5A9BD4" />
<path d="M775.25,48.378L772.54,43.69L777.95,43.69Z" style="fill:#5A9BD4" />
<path d="M777.84,48.315L775.14,43.627L780.55,43.627Z" style="fill:#5A9BD4" />
<path d="M780.44,48.861L777.73,44.174L783.14,44.174Z" style="fill:#5A9BD4" />
<path d="M783.03,49.66L780.32,44.973L785.74,44.973Z" style="fill:#5A9BD4" />
<path d="M785.63,47.327L782.92,42.639L788.33,42.639Z" style="fill:#5A9BD4" />
<path d="M788.22,48.567L785.51,43.88L790.93,43.88Z" style="fill:#5A9BD4" />
<path d="M790.81,48.967L788.11,44.279L793.52,44.279Z" style="fill:#5A9BD4" />
<path d="M793.41,48.483L790.7,43.796L796.12,43.796Z" style="fill:#5A9BD4" />
<path d="M796,47.789L793.3,43.102L798.71,43.102Z" style="fill:#5A9BD4" />
<path d="M798.6,48.231L795.89,43.543L801.3,43.543Z" style="fill:#5A9BD4" />
<path d="M801.19,47.495L798.49,42.807L803.9,42.807Z" style="fill:#5A9BD4" />
<path d="M803.79,48.609L801.08,43.922L806.49,43.922Z" style="fill:#5A9BD4" />
<path d="M806.38,47.6L803.68,42.913L809.09,42.913Z" style="fill:#5A9BD4" />
<path d="M808.98,47.327L806.27,42.639L811.68,42.639Z" style="fill:#5A9BD4" />
<path d="M811.57,47.726L808.86,43.039L814.28,43.039Z" style="fill:#5A9BD4" />
<path d="M814.17,48.63L811.46,43.943L816.87,43.943Z" style="fill:#5A9BD4" />
<path d="M816.76,49.303L814.05,44.615L819.47,44.615Z" style="fill:#5A9BD4" />
<path d="M819.35,47.495L816.65,42.807L822.06,42.807Z" style="fill:#5A9BD4" />
<path d="M821.95,47.264L819.24,42.576L824.65,42.576Z" style="fill:#5A9BD4" />
<path d="M824.54,48.021L821.84,43.333L827.25,43.333Z" style="fill:#5A9BD4" />
<path d="M827.14,47.369L824.43,42.681L829.84,42.681Z" style="fill:#5A9BD4" />
<path d="M829.73,47.957L827.03,43.27L832.44,43.27Z" style="fill:#5A9BD4" />
<path d="M832.33,49.366L829.62,44.679L835.03,44.679Z" style="fill:#5A9BD4" />
<path d="M834.92,48.336L832.21,43.648L837.63,43.648Z" style="fill:#5A9BD4" />
<path d="M837.52,48.483L834.81,43.796L840.22,43.796Z" style="fill:#5A9BD4" />
<path d="M840.11,47.684L837.4,42.997L842.82,42.997Z" style="fill:#5A9BD4" />
<path d="M842.7,47.432L840,42.744L845.41,42.744Z" style="fill:#5A9BD4" />
<path d="M845.3,47.894L842.59,43.207L848.01,43.207Z" style="fill:#5A9BD4" />
<path d="M847.89,47.978L845.19,43.291L850.6,43.291Z" style="fill:#5A9BD4" />
<path d="M830.39,65.668L850.39,65.668" style="fill:none;stroke:#F15A60" />
<path d="M840.39,68.793L837.69,64.105L843.1,64.105Z" style="fill:#F15A60" />
<text x="790.07" y="-63.181" transform="scale(1, -1)"
	style="font-family:Liberation Serif;font-variant:normal;font-weight:normal;font-style:normal;font-size:12px">to-main</text>
<path d="M830.39,55.484L850.39,55.484" style="fill:none;stroke:#7AC36A" />
<path d="M840.39,58.609L837.69,53.922L843.1,53.922Z" style="fill:#7AC36A" />
<text x="763.42" y="-52.997" transform="scale(1, -1)"
	style="font-family:Liberation Serif;font-variant:normal;font-weight:normal;font-style:normal;font-size:12px">to-fronted-up</text>
<path d="M830.39,45.301L850.39,45.301" style="fill:none;stroke:#5A9BD4" />
<path d="M840.39,48.426L837.69,43.738L843.1,43.738Z" style="fill:#5A9BD4" />
<text x="721.44" y="-42.813" transform="scale(1, -1)"
	style="font-family:Liberation Serif;font-variant:normal;font-weight:normal;font-style:normal;font-size:12px">fronted-up-main-delta</text>
</g>
</svg>
