<?xml version="1.0"?>
<!-- Generated by SVGo and Plotinum VG -->
<svg width="850.39pt" height="566.93pt" viewBox="0 0 850.39 566.93"
	xmlns="http://www.w3.org/2000/svg"
	xmlns:xlink="http://www.w3.org/1999/xlink">
<g transform="scale(1, -1) translate(0, -566.93)">
<path d="M0,0L850.39,0L850.39,566.93L0,566.93Z" style="fill:#FFFFFF" />
<text x="211.76" y="-557.54" transform="scale(1, -1)"
	style="font-family:Liberation Serif;font-variant:normal;font-weight:normal;font-style:normal;font-size:12px">Percentiles - Main (Nearest Rank): scale_deployment_0_1-k3s3nodes-zeroload-emptydb</text>
<text x="433.53" y="-3.9023" transform="scale(1, -1)"
	style="font-family:Liberation Serif;font-variant:normal;font-weight:normal;font-style:normal;font-size:12px">Percentile</text>
<text x="215.06" y="-16.541" transform="scale(1, -1)"
	style="font-family:Liberation Serif;font-variant:normal;font-weight:normal;font-style:normal;font-size:10px">20</text>
<text x="526.48" y="-16.541" transform="scale(1, -1)"
	style="font-family:Liberation Serif;font-variant:normal;font-weight:normal;font-style:normal;font-size:10px">60</text>
<text x="835.39" y="-16.541" transform="scale(1, -1)"
	style="font-family:Liberation Serif;font-variant:normal;font-weight:normal;font-style:normal;font-size:10px">100</text>
<path d="M220.06,24.363L220.06,32.363" style="fill:none;stroke:#000000;stroke-width:0.5" />
<path d="M531.48,24.363L531.48,32.363" style="fill:none;stroke:#000000;stroke-width:0.5" />
<path d="M842.89,24.363L842.89,32.363" style="fill:none;stroke:#000000;stroke-width:0.5" />
<path d="M142.2,28.363L142.2,32.363" style="fill:none;stroke:#000000;stroke-width:0.5" />
<path d="M297.91,28.363L297.91,32.363" style="fill:none;stroke:#000000;stroke-width:0.5" />
<path d="M375.77,28.363L375.77,32.363" style="fill:none;stroke:#000000;stroke-width:0.5" />
<path d="M453.62,28.363L453.62,32.363" style="fill:none;stroke:#000000;stroke-width:0.5" />
<path d="M609.33,28.363L609.33,32.363" style="fill:none;stroke:#000000;stroke-width:0.5" />
<path d="M687.18,28.363L687.18,32.363" style="fill:none;stroke:#000000;stroke-width:0.5" />
<path d="M765.04,28.363L765.04,32.363" style="fill:none;stroke:#000000;stroke-width:0.5" />
<path d="M72.135,32.363L842.89,32.363" style="fill:none;stroke:#000000;stroke-width:0.5" />
<g transform="rotate(90)">
<text x="265.43" y="9.3867" transform="scale(1, -1)"
	style="font-family:Liberation Serif;font-variant:normal;font-weight:normal;font-style:normal;font-size:12px">Duration: ms</text>
</g>
<text x="20.885" y="-83.294" transform="scale(1, -1)"
	style="font-family:Liberation Serif;font-variant:normal;font-weight:normal;font-style:normal;font-size:10px">2500.00</text>
<text x="15.885" y="-298.72" transform="scale(1, -1)"
	style="font-family:Liberation Serif;font-variant:normal;font-weight:normal;font-style:normal;font-size:10px">12500.00</text>
<text x="15.885" y="-514.15" transform="scale(1, -1)"
	style="font-family:Liberation Serif;font-variant:normal;font-weight:normal;font-style:normal;font-size:10px">22500.00</text>
<path d="M55.885,85.579L63.885,85.579" style="fill:none;stroke:#000000;stroke-width:0.5" />
<path d="M55.885,301.01L63.885,301.01" style="fill:none;stroke:#000000;stroke-width:0.5" />
<path d="M55.885,516.43L63.885,516.43" style="fill:none;stroke:#000000;stroke-width:0.5" />
<path d="M59.885,193.29L63.885,193.29" style="fill:none;stroke:#000000;stroke-width:0.5" />
<path d="M59.885,408.72L63.885,408.72" style="fill:none;stroke:#000000;stroke-width:0.5" />
<path d="M63.885,42.709L63.885,551.14" style="fill:none;stroke:#000000;stroke-width:0.5" />
<path d="M220.06,42.709L220.06,551.14" style="fill:none;stroke:#808080;stroke-width:0.25" />
<path d="M531.48,42.709L531.48,551.14" style="fill:none;stroke:#808080;stroke-width:0.25" />
<path d="M842.89,42.709L842.89,551.14" style="fill:none;stroke:#808080;stroke-width:0.25" />
<path d="M72.135,85.579L842.89,85.579" style="fill:none;stroke:#808080;stroke-width:0.25" />
<path d="M72.135,301.01L842.89,301.01" style="fill:none;stroke:#808080;stroke-width:0.25" />
<path d="M72.135,516.43L842.89,516.43" style="fill:none;stroke:#808080;stroke-width:0.25" />
<path d="M72.135,42.709L79.92,45.639L87.706,46.242L95.491,47.19L103.28,48.159L111.06,49.603L118.85,50.163L126.63,50.443L134.42,50.529L142.2,50.831L149.99,51.305L157.77,51.498L165.56,52.252L173.35,52.511L181.13,52.834L188.92,52.877L196.7,53.782L204.49,53.933L212.27,54.665L220.06,54.751L227.84,55.075L235.63,55.419L243.41,56.087L251.2,56.281L258.99,56.389L266.77,56.884L274.56,57.164L282.34,57.38L290.13,57.487L297.91,57.66L305.7,57.832L313.48,57.918L321.27,58.134L329.05,58.177L336.84,58.241L344.63,58.414L352.41,58.521L360.2,58.758L367.98,58.952L375.77,59.34L383.55,59.491L391.34,59.642L399.12,59.728L406.91,60.029L414.69,60.288L422.48,60.546L430.27,60.848L438.05,61.085L445.84,61.128L453.62,61.236L461.41,61.43L469.19,61.516L476.98,61.753L484.76,61.861L492.55,62.011L500.33,62.054L508.12,62.184L515.91,62.27L523.69,62.679L531.48,62.765L539.26,62.959L547.05,63.045L554.83,63.282L562.62,63.412L570.4,63.584L578.19,63.799L585.97,63.907L593.76,64.058L601.54,64.467L609.33,64.618L617.12,64.661L624.9,64.984L632.69,65.07L640.47,65.243L648.26,65.587L656.04,65.911L663.83,66.255L671.61,66.363L679.4,66.708L687.18,67.419L694.97,67.656L702.76,67.957L710.54,68.216L718.33,68.69L726.11,69.142L733.9,70.348L741.68,70.758L749.47,71.016L757.25,71.059L765.04,71.447L772.82,71.469L780.61,71.792L788.4,72.029L796.18,72.998L803.97,73.407L811.75,75.411L819.54,76.854L827.32,77.91L835.11,83.382L842.89,551.14" style="fill:none;stroke:#F15A60" />
<path d="M72.135,45.834L69.428,41.146L74.841,41.146Z" style="fill:#F15A60" />
<path d="M79.92,48.764L77.214,44.076L82.627,44.076Z" style="fill:#F15A60" />
<path d="M87.706,49.367L84.999,44.679L90.412,44.679Z" style="fill:#F15A60" />
<path d="M95.491,50.315L92.785,45.627L98.197,45.627Z" style="fill:#F15A60" />
<path d="M103.28,51.284L100.57,46.597L105.98,46.597Z" style="fill:#F15A60" />
<path d="M111.06,52.728L108.36,48.04L113.77,48.04Z" style="fill:#F15A60" />
<path d="M118.85,53.288L116.14,48.6L121.55,48.6Z" style="fill:#F15A60" />
<path d="M126.63,53.568L123.93,48.88L129.34,48.88Z" style="fill:#F15A60" />
<path d="M134.42,53.654L131.71,48.967L137.12,48.967Z" style="fill:#F15A60" />
<path d="M142.2,53.956L139.5,49.268L144.91,49.268Z" style="fill:#F15A60" />
<path d="M149.99,54.43L147.28,49.742L152.7,49.742Z" style="fill:#F15A60" />
<path d="M157.77,54.623L155.07,49.936L160.48,49.936Z" style="fill:#F15A60" />
<path d="M165.56,55.377L162.85,50.69L168.27,50.69Z" style="fill:#F15A60" />
<path d="M173.35,55.636L170.64,50.948L176.05,50.948Z" style="fill:#F15A60" />
<path d="M181.13,55.959L178.42,51.272L183.84,51.272Z" style="fill:#F15A60" />
<path d="M188.92,56.002L186.21,51.315L191.62,51.315Z" style="fill:#F15A60" />
<path d="M196.7,56.907L194,52.219L199.41,52.219Z" style="fill:#F15A60" />
<path d="M204.49,57.058L201.78,52.37L207.19,52.37Z" style="fill:#F15A60" />
<path d="M212.27,57.79L209.57,53.103L214.98,53.103Z" style="fill:#F15A60" />
<path d="M220.06,57.876L217.35,53.189L222.76,53.189Z" style="fill:#F15A60" />
<path d="M227.84,58.2L225.14,53.512L230.55,53.512Z" style="fill:#F15A60" />
<path d="M235.63,58.544L232.92,53.857L238.34,53.857Z" style="fill:#F15A60" />
<path d="M243.41,59.212L240.71,54.525L246.12,54.525Z" style="fill:#F15A60" />
<path d="M251.2,59.406L248.49,54.718L253.91,54.718Z" style="fill:#F15A60" />
<path d="M258.99,59.514L256.28,54.826L261.69,54.826Z" style="fill:#F15A60" />
<path d="M266.77,60.009L264.06,55.322L269.48,55.322Z" style="fill:#F15A60" />
<path d="M274.56,60.289L271.85,55.602L277.26,55.602Z" style="fill:#F15A60" />
<path d="M282.34,60.505L279.64,55.817L285.05,55.817Z" style="fill:#F15A60" />
<path d="M290.13,60.612L287.42,55.925L292.83,55.925Z" style="fill:#F15A60" />
<path d="M297.91,60.785L295.21,56.097L300.62,56.097Z" style="fill:#F15A60" />
<path d="M305.7,60.957L302.99,56.27L308.4,56.27Z" style="fill:#F15A60" />
<path d="M313.48,61.043L310.78,56.356L316.19,56.356Z" style="fill:#F15A60" />
<path d="M321.27,61.259L318.56,56.571L323.98,56.571Z" style="fill:#F15A60" />
<path d="M329.05,61.302L326.35,56.614L331.76,56.614Z" style="fill:#F15A60" />
<path d="M336.84,61.366L334.13,56.679L339.55,56.679Z" style="fill:#F15A60" />
<path d="M344.63,61.539L341.92,56.851L347.33,56.851Z" style="fill:#F15A60" />
<path d="M352.41,61.646L349.7,56.959L355.12,56.959Z" style="fill:#F15A60" />
<path d="M360.2,61.883L357.49,57.196L362.9,57.196Z" style="fill:#F15A60" />
<path d="M367.98,62.077L365.28,57.39L370.69,57.39Z" style="fill:#F15A60" />
<path d="M375.77,62.465L373.06,57.778L378.47,57.778Z" style="fill:#F15A60" />
<path d="M383.55,62.616L380.85,57.928L386.26,57.928Z" style="fill:#F15A60" />
<path d="M391.34,62.767L388.63,58.079L394.04,58.079Z" style="fill:#F15A60" />
<path d="M399.12,62.853L396.42,58.165L401.83,58.165Z" style="fill:#F15A60" />
<path d="M406.91,63.154L404.2,58.467L409.62,58.467Z" style="fill:#F15A60" />
<path d="M414.69,63.413L411.99,58.725L417.4,58.725Z" style="fill:#F15A60" />
<path d="M422.48,63.671L419.77,58.984L425.19,58.984Z" style="fill:#F15A60" />
<path d="M430.27,63.973L427.56,59.286L432.97,59.286Z" style="fill:#F15A60" />
<path d="M438.05,64.21L435.34,59.522L440.76,59.522Z" style="fill:#F15A60" />
<path d="M445.84,64.253L443.13,59.566L448.54,59.566Z" style="fill:#F15A60" />
<path d="M453.62,64.361L450.92,59.673L456.33,59.673Z" style="fill:#F15A60" />
<path d="M461.41,64.555L458.7,59.867L464.11,59.867Z" style="fill:#F15A60" />
<path d="M469.19,64.641L466.49,59.953L471.9,59.953Z" style="fill:#F15A60" />
<path d="M476.98,64.878L474.27,60.19L479.68,60.19Z" style="fill:#F15A60" />
<path d="M484.76,64.986L482.06,60.298L487.47,60.298Z" style="fill:#F15A60" />
<path d="M492.55,65.136L489.84,60.449L495.26,60.449Z" style="fill:#F15A60" />
<path d="M500.33,65.179L497.63,60.492L503.04,60.492Z" style="fill:#F15A60" />
<path d="M508.12,65.309L505.41,60.621L510.83,60.621Z" style="fill:#F15A60" />
<path d="M515.91,65.395L513.2,60.707L518.61,60.707Z" style="fill:#F15A60" />
<path d="M523.69,65.804L520.98,61.117L526.4,61.117Z" style="fill:#F15A60" />
<path d="M531.48,65.89L528.77,61.203L534.18,61.203Z" style="fill:#F15A60" />
<path d="M539.26,66.084L536.56,61.397L541.97,61.397Z" style="fill:#F15A60" />
<path d="M547.05,66.17L544.34,61.483L549.75,61.483Z" style="fill:#F15A60" />
<path d="M554.83,66.407L552.13,61.72L557.54,61.72Z" style="fill:#F15A60" />
<path d="M562.62,66.537L559.91,61.849L565.32,61.849Z" style="fill:#F15A60" />
<path d="M570.4,66.709L567.7,62.021L573.11,62.021Z" style="fill:#F15A60" />
<path d="M578.19,66.924L575.48,62.237L580.89,62.237Z" style="fill:#F15A60" />
<path d="M585.97,67.032L583.27,62.345L588.68,62.345Z" style="fill:#F15A60" />
<path d="M593.76,67.183L591.05,62.495L596.47,62.495Z" style="fill:#F15A60" />
<path d="M601.54,67.592L598.84,62.905L604.25,62.905Z" style="fill:#F15A60" />
<path d="M609.33,67.743L606.62,63.055L612.04,63.055Z" style="fill:#F15A60" />
<path d="M617.12,67.786L614.41,63.099L619.82,63.099Z" style="fill:#F15A60" />
<path d="M624.9,68.109L622.19,63.422L627.61,63.422Z" style="fill:#F15A60" />
<path d="M632.69,68.195L629.98,63.508L635.39,63.508Z" style="fill:#F15A60" />
<path d="M640.47,68.368L637.77,63.68L643.18,63.68Z" style="fill:#F15A60" />
<path d="M648.26,68.712L645.55,64.025L650.96,64.025Z" style="fill:#F15A60" />
<path d="M656.04,69.036L653.34,64.348L658.75,64.348Z" style="fill:#F15A60" />
<path d="M663.83,69.38L661.12,64.693L666.53,64.693Z" style="fill:#F15A60" />
<path d="M671.61,69.488L668.91,64.8L674.32,64.8Z" style="fill:#F15A60" />
<path d="M679.4,69.833L676.69,65.145L682.11,65.145Z" style="fill:#F15A60" />
<path d="M687.18,70.544L684.48,65.856L689.89,65.856Z" style="fill:#F15A60" />
<path d="M694.97,70.781L692.26,66.093L697.68,66.093Z" style="fill:#F15A60" />
<path d="M702.76,71.082L700.05,66.395L705.46,66.395Z" style="fill:#F15A60" />
<path d="M710.54,71.341L707.83,66.653L713.25,66.653Z" style="fill:#F15A60" />
<path d="M718.33,71.815L715.62,67.127L721.03,67.127Z" style="fill:#F15A60" />
<path d="M726.11,72.267L723.41,67.579L728.82,67.579Z" style="fill:#F15A60" />
<path d="M733.9,73.473L731.19,68.786L736.6,68.786Z" style="fill:#F15A60" />
<path d="M741.68,73.883L738.98,69.195L744.39,69.195Z" style="fill:#F15A60" />
<path d="M749.47,74.141L746.76,69.454L752.17,69.454Z" style="fill:#F15A60" />
<path d="M757.25,74.184L754.55,69.497L759.96,69.497Z" style="fill:#F15A60" />
<path d="M765.04,74.572L762.33,69.885L767.75,69.885Z" style="fill:#F15A60" />
<path d="M772.82,74.594L770.12,69.906L775.53,69.906Z" style="fill:#F15A60" />
<path d="M780.61,74.917L777.9,70.229L783.32,70.229Z" style="fill:#F15A60" />
<path d="M788.4,75.154L785.69,70.466L791.1,70.466Z" style="fill:#F15A60" />
<path d="M796.18,76.123L793.47,71.436L798.89,71.436Z" style="fill:#F15A60" />
<path d="M803.97,76.532L801.26,71.845L806.67,71.845Z" style="fill:#F15A60" />
<path d="M811.75,78.536L809.05,73.848L814.46,73.848Z" style="fill:#F15A60" />
<path d="M819.54,79.979L816.83,75.292L822.24,75.292Z" style="fill:#F15A60" />
<path d="M827.32,81.035L824.62,76.347L830.03,76.347Z" style="fill:#F15A60" />
<path d="M835.11,86.507L832.4,81.819L837.81,81.819Z" style="fill:#F15A60" />
<path d="M842.89,554.27L840.19,549.58L845.6,549.58Z" style="fill:#F15A60" />
<path d="M830.39,45.301L850.39,45.301" style="fill:none;stroke:#F15A60" />
<path d="M840.39,48.426L837.69,43.738L843.1,43.738Z" style="fill:#F15A60" />
<text x="790.07" y="-42.813" transform="scale(1, -1)"
	style="font-family:Liberation Serif;font-variant:normal;font-weight:normal;font-style:normal;font-size:12px">to-main</text>
</g>
</svg>
