<?xml version="1.0"?>
<!-- Generated by SVGo and Plotinum VG -->
<svg width="850.39pt" height="566.93pt" viewBox="0 0 850.39 566.93"
	xmlns="http://www.w3.org/2000/svg"
	xmlns:xlink="http://www.w3.org/1999/xlink">
<g transform="scale(1, -1) translate(0, -566.93)">
<path d="M0,0L850.39,0L850.39,566.93L0,566.93Z" style="fill:#FFFFFF" />
<text x="194.43" y="-557.54" transform="scale(1, -1)"
	style="font-family:Liberation Serif;font-variant:normal;font-weight:normal;font-style:normal;font-size:12px">Percentiles - FrontEndUp (Nearest Rank): scale_deployment_0_1-k3s3nodes-zeroload-emptydb</text>
<text x="433.53" y="-3.9023" transform="scale(1, -1)"
	style="font-family:Liberation Serif;font-variant:normal;font-weight:normal;font-style:normal;font-size:12px">Percentile</text>
<text x="215.06" y="-16.541" transform="scale(1, -1)"
	style="font-family:Liberation Serif;font-variant:normal;font-weight:normal;font-style:normal;font-size:10px">20</text>
<text x="526.48" y="-16.541" transform="scale(1, -1)"
	style="font-family:Liberation Serif;font-variant:normal;font-weight:normal;font-style:normal;font-size:10px">60</text>
<text x="835.39" y="-16.541" transform="scale(1, -1)"
	style="font-family:Liberation Serif;font-variant:normal;font-weight:normal;font-style:normal;font-size:10px">100</text>
<path d="M220.06,24.363L220.06,32.363" style="fill:none;stroke:#000000;stroke-width:0.5" />
<path d="M531.48,24.363L531.48,32.363" style="fill:none;stroke:#000000;stroke-width:0.5" />
<path d="M842.89,24.363L842.89,32.363" style="fill:none;stroke:#000000;stroke-width:0.5" />
<path d="M142.2,28.363L142.2,32.363" style="fill:none;stroke:#000000;stroke-width:0.5" />
<path d="M297.91,28.363L297.91,32.363" style="fill:none;stroke:#000000;stroke-width:0.5" />
<path d="M375.77,28.363L375.77,32.363" style="fill:none;stroke:#000000;stroke-width:0.5" />
<path d="M453.62,28.363L453.62,32.363" style="fill:none;stroke:#000000;stroke-width:0.5" />
<path d="M609.33,28.363L609.33,32.363" style="fill:none;stroke:#000000;stroke-width:0.5" />
<path d="M687.18,28.363L687.18,32.363" style="fill:none;stroke:#000000;stroke-width:0.5" />
<path d="M765.04,28.363L765.04,32.363" style="fill:none;stroke:#000000;stroke-width:0.5" />
<path d="M72.135,32.363L842.89,32.363" style="fill:none;stroke:#000000;stroke-width:0.5" />
<g transform="rotate(90)">
<text x="265.43" y="9.3867" transform="scale(1, -1)"
	style="font-family:Liberation Serif;font-variant:normal;font-weight:normal;font-style:normal;font-size:12px">Duration: ms</text>
</g>
<text x="20.885" y="-81.579" transform="scale(1, -1)"
	style="font-family:Liberation Serif;font-variant:normal;font-weight:normal;font-style:normal;font-size:10px">2500.00</text>
<text x="15.885" y="-296.38" transform="scale(1, -1)"
	style="font-family:Liberation Serif;font-variant:normal;font-weight:normal;font-style:normal;font-size:10px">12500.00</text>
<text x="15.885" y="-511.18" transform="scale(1, -1)"
	style="font-family:Liberation Serif;font-variant:normal;font-weight:normal;font-style:normal;font-size:10px">22500.00</text>
<path d="M55.885,83.865L63.885,83.865" style="fill:none;stroke:#000000;stroke-width:0.5" />
<path d="M55.885,298.66L63.885,298.66" style="fill:none;stroke:#000000;stroke-width:0.5" />
<path d="M55.885,513.46L63.885,513.46" style="fill:none;stroke:#000000;stroke-width:0.5" />
<path d="M59.885,191.26L63.885,191.26" style="fill:none;stroke:#000000;stroke-width:0.5" />
<path d="M59.885,406.06L63.885,406.06" style="fill:none;stroke:#000000;stroke-width:0.5" />
<path d="M63.885,42.709L63.885,551.14" style="fill:none;stroke:#000000;stroke-width:0.5" />
<path d="M220.06,42.709L220.06,551.14" style="fill:none;stroke:#808080;stroke-width:0.25" />
<path d="M531.48,42.709L531.48,551.14" style="fill:none;stroke:#808080;stroke-width:0.25" />
<path d="M842.89,42.709L842.89,551.14" style="fill:none;stroke:#808080;stroke-width:0.25" />
<path d="M72.135,83.865L842.89,83.865" style="fill:none;stroke:#808080;stroke-width:0.25" />
<path d="M72.135,298.66L842.89,298.66" style="fill:none;stroke:#808080;stroke-width:0.25" />
<path d="M72.135,513.46L842.89,513.46" style="fill:none;stroke:#808080;stroke-width:0.25" />
<path d="M72.135,42.709L79.92,46.017L87.706,46.962L95.491,48.143L103.28,48.466L111.06,50.248L118.85,50.399L126.63,51.043L134.42,51.559L142.2,52.311L149.99,52.59L157.77,53.062L165.56,53.363L173.35,53.814L181.13,54.501L188.92,54.953L196.7,55.06L204.49,55.447L212.27,56.048L220.06,56.22L227.84,56.349L235.63,57.079L243.41,57.122L251.2,57.294L258.99,57.487L266.77,57.831L274.56,57.917L282.34,58.175L290.13,58.325L297.91,58.497L305.7,58.604L313.48,58.755L321.27,58.84L329.05,58.905L336.84,59.077L344.63,59.356L352.41,59.592L360.2,59.957L367.98,60.237L375.77,60.645L383.55,60.795L391.34,61.096L399.12,61.182L406.91,61.547L414.69,61.59L422.48,61.783L430.27,61.998L438.05,62.32L445.84,62.471L453.62,62.75L461.41,62.965L469.19,63.222L476.98,63.394L484.76,63.502L492.55,63.609L500.33,63.695L508.12,63.845L515.91,64.017L523.69,64.103L531.48,64.125L539.26,64.318L547.05,64.554L554.83,64.812L562.62,64.984L570.4,65.091L578.19,65.113L585.97,65.327L593.76,65.478L601.54,65.714L609.33,66.079L617.12,66.144L624.9,66.401L632.69,66.466L640.47,66.595L648.26,66.852L656.04,67.368L663.83,67.604L671.61,67.969L679.4,68.571L687.18,68.807L694.97,69.043L702.76,69.86L710.54,70.096L718.33,70.418L726.11,70.783L733.9,70.912L741.68,70.977L749.47,71.127L757.25,71.471L765.04,71.707L772.82,71.857L780.61,73.125L788.4,73.619L796.18,74.564L803.97,75.316L811.75,77.098L819.54,78.044L827.32,79.719L835.11,84.359L842.89,551.14" style="fill:none;stroke:#7AC36A" />
<path d="M72.135,45.834L69.428,41.146L74.841,41.146Z" style="fill:#7AC36A" />
<path d="M79.92,49.142L77.214,44.454L82.627,44.454Z" style="fill:#7AC36A" />
<path d="M87.706,50.087L84.999,45.4L90.412,45.4Z" style="fill:#7AC36A" />
<path d="M95.491,51.268L92.785,46.581L98.197,46.581Z" style="fill:#7AC36A" />
<path d="M103.28,51.591L100.57,46.903L105.98,46.903Z" style="fill:#7AC36A" />
<path d="M111.06,53.373L108.36,48.686L113.77,48.686Z" style="fill:#7AC36A" />
<path d="M118.85,53.524L116.14,48.836L121.55,48.836Z" style="fill:#7AC36A" />
<path d="M126.63,54.168L123.93,49.481L129.34,49.481Z" style="fill:#7AC36A" />
<path d="M134.42,54.684L131.71,49.996L137.12,49.996Z" style="fill:#7AC36A" />
<path d="M142.2,55.436L139.5,50.748L144.91,50.748Z" style="fill:#7AC36A" />
<path d="M149.99,55.715L147.28,51.027L152.7,51.027Z" style="fill:#7AC36A" />
<path d="M157.77,56.187L155.07,51.5L160.48,51.5Z" style="fill:#7AC36A" />
<path d="M165.56,56.488L162.85,51.801L168.27,51.801Z" style="fill:#7AC36A" />
<path d="M173.35,56.939L170.64,52.252L176.05,52.252Z" style="fill:#7AC36A" />
<path d="M181.13,57.626L178.42,52.939L183.84,52.939Z" style="fill:#7AC36A" />
<path d="M188.92,58.078L186.21,53.39L191.62,53.39Z" style="fill:#7AC36A" />
<path d="M196.7,58.185L194,53.497L199.41,53.497Z" style="fill:#7AC36A" />
<path d="M204.49,58.572L201.78,53.884L207.19,53.884Z" style="fill:#7AC36A" />
<path d="M212.27,59.173L209.57,54.486L214.98,54.486Z" style="fill:#7AC36A" />
<path d="M220.06,59.345L217.35,54.657L222.76,54.657Z" style="fill:#7AC36A" />
<path d="M227.84,59.474L225.14,54.786L230.55,54.786Z" style="fill:#7AC36A" />
<path d="M235.63,60.204L232.92,55.517L238.34,55.517Z" style="fill:#7AC36A" />
<path d="M243.41,60.247L240.71,55.56L246.12,55.56Z" style="fill:#7AC36A" />
<path d="M251.2,60.419L248.49,55.731L253.91,55.731Z" style="fill:#7AC36A" />
<path d="M258.99,60.612L256.28,55.925L261.69,55.925Z" style="fill:#7AC36A" />
<path d="M266.77,60.956L264.06,56.268L269.48,56.268Z" style="fill:#7AC36A" />
<path d="M274.56,61.042L271.85,56.354L277.26,56.354Z" style="fill:#7AC36A" />
<path d="M282.34,61.3L279.64,56.612L285.05,56.612Z" style="fill:#7AC36A" />
<path d="M290.13,61.45L287.42,56.762L292.83,56.762Z" style="fill:#7AC36A" />
<path d="M297.91,61.622L295.21,56.934L300.62,56.934Z" style="fill:#7AC36A" />
<path d="M305.7,61.729L302.99,57.042L308.4,57.042Z" style="fill:#7AC36A" />
<path d="M313.48,61.88L310.78,57.192L316.19,57.192Z" style="fill:#7AC36A" />
<path d="M321.27,61.965L318.56,57.278L323.98,57.278Z" style="fill:#7AC36A" />
<path d="M329.05,62.03L326.35,57.342L331.76,57.342Z" style="fill:#7AC36A" />
<path d="M336.84,62.202L334.13,57.514L339.55,57.514Z" style="fill:#7AC36A" />
<path d="M344.63,62.481L341.92,57.793L347.33,57.793Z" style="fill:#7AC36A" />
<path d="M352.41,62.717L349.7,58.03L355.12,58.03Z" style="fill:#7AC36A" />
<path d="M360.2,63.082L357.49,58.395L362.9,58.395Z" style="fill:#7AC36A" />
<path d="M367.98,63.362L365.28,58.674L370.69,58.674Z" style="fill:#7AC36A" />
<path d="M375.77,63.77L373.06,59.082L378.47,59.082Z" style="fill:#7AC36A" />
<path d="M383.55,63.92L380.85,59.233L386.26,59.233Z" style="fill:#7AC36A" />
<path d="M391.34,64.221L388.63,59.533L394.04,59.533Z" style="fill:#7AC36A" />
<path d="M399.12,64.307L396.42,59.619L401.83,59.619Z" style="fill:#7AC36A" />
<path d="M406.91,64.672L404.2,59.984L409.62,59.984Z" style="fill:#7AC36A" />
<path d="M414.69,64.715L411.99,60.027L417.4,60.027Z" style="fill:#7AC36A" />
<path d="M422.48,64.908L419.77,60.221L425.19,60.221Z" style="fill:#7AC36A" />
<path d="M430.27,65.123L427.56,60.436L432.97,60.436Z" style="fill:#7AC36A" />
<path d="M438.05,65.445L435.34,60.758L440.76,60.758Z" style="fill:#7AC36A" />
<path d="M445.84,65.596L443.13,60.908L448.54,60.908Z" style="fill:#7AC36A" />
<path d="M453.62,65.875L450.92,61.187L456.33,61.187Z" style="fill:#7AC36A" />
<path d="M461.41,66.09L458.7,61.402L464.11,61.402Z" style="fill:#7AC36A" />
<path d="M469.19,66.347L466.49,61.66L471.9,61.66Z" style="fill:#7AC36A" />
<path d="M476.98,66.519L474.27,61.832L479.68,61.832Z" style="fill:#7AC36A" />
<path d="M484.76,66.627L482.06,61.939L487.47,61.939Z" style="fill:#7AC36A" />
<path d="M492.55,66.734L489.84,62.047L495.26,62.047Z" style="fill:#7AC36A" />
<path d="M500.33,66.82L497.63,62.132L503.04,62.132Z" style="fill:#7AC36A" />
<path d="M508.12,66.97L505.41,62.283L510.83,62.283Z" style="fill:#7AC36A" />
<path d="M515.91,67.142L513.2,62.455L518.61,62.455Z" style="fill:#7AC36A" />
<path d="M523.69,67.228L520.98,62.541L526.4,62.541Z" style="fill:#7AC36A" />
<path d="M531.48,67.25L528.77,62.562L534.18,62.562Z" style="fill:#7AC36A" />
<path d="M539.26,67.443L536.56,62.755L541.97,62.755Z" style="fill:#7AC36A" />
<path d="M547.05,67.679L544.34,62.992L549.75,62.992Z" style="fill:#7AC36A" />
<path d="M554.83,67.937L552.13,63.249L557.54,63.249Z" style="fill:#7AC36A" />
<path d="M562.62,68.109L559.91,63.421L565.32,63.421Z" style="fill:#7AC36A" />
<path d="M570.4,68.216L567.7,63.529L573.11,63.529Z" style="fill:#7AC36A" />
<path d="M578.19,68.238L575.48,63.55L580.89,63.55Z" style="fill:#7AC36A" />
<path d="M585.97,68.452L583.27,63.765L588.68,63.765Z" style="fill:#7AC36A" />
<path d="M593.76,68.603L591.05,63.915L596.47,63.915Z" style="fill:#7AC36A" />
<path d="M601.54,68.839L598.84,64.152L604.25,64.152Z" style="fill:#7AC36A" />
<path d="M609.33,69.204L606.62,64.517L612.04,64.517Z" style="fill:#7AC36A" />
<path d="M617.12,69.269L614.41,64.581L619.82,64.581Z" style="fill:#7AC36A" />
<path d="M624.9,69.526L622.19,64.839L627.61,64.839Z" style="fill:#7AC36A" />
<path d="M632.69,69.591L629.98,64.903L635.39,64.903Z" style="fill:#7AC36A" />
<path d="M640.47,69.72L637.77,65.032L643.18,65.032Z" style="fill:#7AC36A" />
<path d="M648.26,69.977L645.55,65.29L650.96,65.29Z" style="fill:#7AC36A" />
<path d="M656.04,70.493L653.34,65.805L658.75,65.805Z" style="fill:#7AC36A" />
<path d="M663.83,70.729L661.12,66.042L666.53,66.042Z" style="fill:#7AC36A" />
<path d="M671.61,71.094L668.91,66.407L674.32,66.407Z" style="fill:#7AC36A" />
<path d="M679.4,71.696L676.69,67.008L682.11,67.008Z" style="fill:#7AC36A" />
<path d="M687.18,71.932L684.48,67.245L689.89,67.245Z" style="fill:#7AC36A" />
<path d="M694.97,72.168L692.26,67.481L697.68,67.481Z" style="fill:#7AC36A" />
<path d="M702.76,72.985L700.05,68.297L705.46,68.297Z" style="fill:#7AC36A" />
<path d="M710.54,73.221L707.83,68.533L713.25,68.533Z" style="fill:#7AC36A" />
<path d="M718.33,73.543L715.62,68.856L721.03,68.856Z" style="fill:#7AC36A" />
<path d="M726.11,73.908L723.41,69.221L728.82,69.221Z" style="fill:#7AC36A" />
<path d="M733.9,74.037L731.19,69.35L736.6,69.35Z" style="fill:#7AC36A" />
<path d="M741.68,74.102L738.98,69.414L744.39,69.414Z" style="fill:#7AC36A" />
<path d="M749.47,74.252L746.76,69.564L752.17,69.564Z" style="fill:#7AC36A" />
<path d="M757.25,74.596L754.55,69.908L759.96,69.908Z" style="fill:#7AC36A" />
<path d="M765.04,74.832L762.33,70.144L767.75,70.144Z" style="fill:#7AC36A" />
<path d="M772.82,74.982L770.12,70.295L775.53,70.295Z" style="fill:#7AC36A" />
<path d="M780.61,76.25L777.9,71.562L783.32,71.562Z" style="fill:#7AC36A" />
<path d="M788.4,76.744L785.69,72.056L791.1,72.056Z" style="fill:#7AC36A" />
<path d="M796.18,77.689L793.47,73.001L798.89,73.001Z" style="fill:#7AC36A" />
<path d="M803.97,78.441L801.26,73.753L806.67,73.753Z" style="fill:#7AC36A" />
<path d="M811.75,80.223L809.05,75.536L814.46,75.536Z" style="fill:#7AC36A" />
<path d="M819.54,81.169L816.83,76.481L822.24,76.481Z" style="fill:#7AC36A" />
<path d="M827.32,82.844L824.62,78.156L830.03,78.156Z" style="fill:#7AC36A" />
<path d="M835.11,87.484L832.4,82.796L837.81,82.796Z" style="fill:#7AC36A" />
<path d="M842.89,554.27L840.19,549.58L845.6,549.58Z" style="fill:#7AC36A" />
<path d="M830.39,45.301L850.39,45.301" style="fill:none;stroke:#7AC36A" />
<path d="M840.39,48.426L837.69,43.738L843.1,43.738Z" style="fill:#7AC36A" />
<text x="763.42" y="-42.813" transform="scale(1, -1)"
	style="font-family:Liberation Serif;font-variant:normal;font-weight:normal;font-style:normal;font-size:12px">to-fronted-up</text>
</g>
</svg>
