<?xml version="1.0"?>
<!-- Generated by SVGo and Plotinum VG -->
<svg width="850.39pt" height="566.93pt" viewBox="0 0 850.39 566.93"
	xmlns="http://www.w3.org/2000/svg"
	xmlns:xlink="http://www.w3.org/1999/xlink">
<g transform="scale(1, -1) translate(0, -566.93)">
<path d="M0,0L850.39,0L850.39,566.93L0,566.93Z" style="fill:#FFFFFF" />
<text x="164.77" y="-557.54" transform="scale(1, -1)"
	style="font-family:Liberation Serif;font-variant:normal;font-weight:normal;font-style:normal;font-size:12px">Percentiles - FrontEndUp-Main-Delta (Nearest Rank): scale_deployment_0_1-k3s3nodes-zeroload-emptydb</text>
<text x="428.53" y="-3.9023" transform="scale(1, -1)"
	style="font-family:Liberation Serif;font-variant:normal;font-weight:normal;font-style:normal;font-size:12px">Percentile</text>
<text x="206.98" y="-16.541" transform="scale(1, -1)"
	style="font-family:Liberation Serif;font-variant:normal;font-weight:normal;font-style:normal;font-size:10px">20</text>
<text x="522.44" y="-16.541" transform="scale(1, -1)"
	style="font-family:Liberation Serif;font-variant:normal;font-weight:normal;font-style:normal;font-size:10px">60</text>
<text x="835.39" y="-16.541" transform="scale(1, -1)"
	style="font-family:Liberation Serif;font-variant:normal;font-weight:normal;font-style:normal;font-size:10px">100</text>
<path d="M211.98,24.363L211.98,32.363" style="fill:none;stroke:#000000;stroke-width:0.5" />
<path d="M527.44,24.363L527.44,32.363" style="fill:none;stroke:#000000;stroke-width:0.5" />
<path d="M842.89,24.363L842.89,32.363" style="fill:none;stroke:#000000;stroke-width:0.5" />
<path d="M133.11,28.363L133.11,32.363" style="fill:none;stroke:#000000;stroke-width:0.5" />
<path d="M290.84,28.363L290.84,32.363" style="fill:none;stroke:#000000;stroke-width:0.5" />
<path d="M369.71,28.363L369.71,32.363" style="fill:none;stroke:#000000;stroke-width:0.5" />
<path d="M448.57,28.363L448.57,32.363" style="fill:none;stroke:#000000;stroke-width:0.5" />
<path d="M606.3,28.363L606.3,32.363" style="fill:none;stroke:#000000;stroke-width:0.5" />
<path d="M685.16,28.363L685.16,32.363" style="fill:none;stroke:#000000;stroke-width:0.5" />
<path d="M764.03,28.363L764.03,32.363" style="fill:none;stroke:#000000;stroke-width:0.5" />
<path d="M62.135,32.363L842.89,32.363" style="fill:none;stroke:#000000;stroke-width:0.5" />
<g transform="rotate(90)">
<text x="265.43" y="9.3867" transform="scale(1, -1)"
	style="font-family:Liberation Serif;font-variant:normal;font-weight:normal;font-style:normal;font-size:12px">Duration: ms</text>
</g>
<text x="20.885" y="-47.518" transform="scale(1, -1)"
	style="font-family:Liberation Serif;font-variant:normal;font-weight:normal;font-style:normal;font-size:10px">75.00</text>
<text x="15.885" y="-284" transform="scale(1, -1)"
	style="font-family:Liberation Serif;font-variant:normal;font-weight:normal;font-style:normal;font-size:10px">175.00</text>
<text x="15.885" y="-520.48" transform="scale(1, -1)"
	style="font-family:Liberation Serif;font-variant:normal;font-weight:normal;font-style:normal;font-size:10px">275.00</text>
<path d="M45.885,49.803L53.885,49.803" style="fill:none;stroke:#000000;stroke-width:0.5" />
<path d="M45.885,286.28L53.885,286.28" style="fill:none;stroke:#000000;stroke-width:0.5" />
<path d="M45.885,522.76L53.885,522.76" style="fill:none;stroke:#000000;stroke-width:0.5" />
<path d="M49.885,168.04L53.885,168.04" style="fill:none;stroke:#000000;stroke-width:0.5" />
<path d="M49.885,404.52L53.885,404.52" style="fill:none;stroke:#000000;stroke-width:0.5" />
<path d="M53.885,42.709L53.885,551.14" style="fill:none;stroke:#000000;stroke-width:0.5" />
<path d="M211.98,42.709L211.98,551.14" style="fill:none;stroke:#808080;stroke-width:0.25" />
<path d="M527.44,42.709L527.44,551.14" style="fill:none;stroke:#808080;stroke-width:0.25" />
<path d="M842.89,42.709L842.89,551.14" style="fill:none;stroke:#808080;stroke-width:0.25" />
<path d="M62.135,49.803L842.89,49.803" style="fill:none;stroke:#808080;stroke-width:0.25" />
<path d="M62.135,286.28L842.89,286.28" style="fill:none;stroke:#808080;stroke-width:0.25" />
<path d="M62.135,522.76L842.89,522.76" style="fill:none;stroke:#808080;stroke-width:0.25" />
<path d="M62.135,42.709L70.021,42.709L77.908,42.709L85.794,45.074L93.681,45.074L101.57,45.074L109.45,47.439L117.34,47.439L125.23,47.439L133.11,47.439L141,47.439L148.89,47.439L156.77,49.803L164.66,49.803L172.55,49.803L180.43,49.803L188.32,49.803L196.2,52.168L204.09,52.168L211.98,54.533L219.86,54.533L227.75,54.533L235.64,56.898L243.52,56.898L251.41,59.263L259.3,59.263L267.18,61.627L275.07,63.992L282.96,63.992L290.84,68.722L298.73,73.451L306.61,82.911L314.5,94.734L322.39,127.84L330.27,142.03L338.16,144.4L346.05,151.49L353.93,165.68L361.82,175.14L369.71,179.87L377.59,182.23L385.48,184.6L393.37,191.69L401.25,194.06L409.14,198.79L417.03,201.15L424.91,203.52L432.8,203.52L440.68,208.24L448.57,208.24L456.46,210.61L464.34,210.61L472.23,210.61L480.12,212.97L488,215.34L495.89,215.34L503.78,217.7L511.66,220.07L519.55,222.43L527.44,222.43L535.32,224.8L543.21,227.16L551.09,227.16L558.98,229.53L566.87,231.89L574.75,236.62L582.64,238.99L590.53,241.35L598.41,246.08L606.3,250.81L614.19,255.54L622.07,260.27L629.96,262.63L637.85,262.63L645.73,265L653.62,269.73L661.51,269.73L669.39,276.82L677.28,279.19L685.16,279.19L693.05,281.55L700.94,283.92L708.82,286.28L716.71,291.01L724.6,295.74L732.48,300.47L740.37,300.47L748.26,309.93L756.14,319.39L764.03,321.75L771.92,331.21L779.8,335.94L787.69,345.4L795.57,347.77L803.46,354.86L811.35,361.96L819.23,390.33L827.12,437.63L835.01,470.74L842.89,551.14" style="fill:none;stroke:#5A9BD4" />
<path d="M62.135,45.834L59.428,41.146L64.841,41.146Z" style="fill:#5A9BD4" />
<path d="M70.021,45.834L67.315,41.146L72.728,41.146Z" style="fill:#5A9BD4" />
<path d="M77.908,45.834L75.201,41.146L80.614,41.146Z" style="fill:#5A9BD4" />
<path d="M85.794,48.199L83.088,43.511L88.5,43.511Z" style="fill:#5A9BD4" />
<path d="M93.681,48.199L90.974,43.511L96.387,43.511Z" style="fill:#5A9BD4" />
<path d="M101.57,48.199L98.861,43.511L104.27,43.511Z" style="fill:#5A9BD4" />
<path d="M109.45,50.564L106.75,45.876L112.16,45.876Z" style="fill:#5A9BD4" />
<path d="M117.34,50.564L114.63,45.876L120.05,45.876Z" style="fill:#5A9BD4" />
<path d="M125.23,50.564L122.52,45.876L127.93,45.876Z" style="fill:#5A9BD4" />
<path d="M133.11,50.564L130.41,45.876L135.82,45.876Z" style="fill:#5A9BD4" />
<path d="M141,50.564L138.29,45.876L143.71,45.876Z" style="fill:#5A9BD4" />
<path d="M148.89,50.564L146.18,45.876L151.59,45.876Z" style="fill:#5A9BD4" />
<path d="M156.77,52.928L154.07,48.241L159.48,48.241Z" style="fill:#5A9BD4" />
<path d="M164.66,52.928L161.95,48.241L167.36,48.241Z" style="fill:#5A9BD4" />
<path d="M172.55,52.928L169.84,48.241L175.25,48.241Z" style="fill:#5A9BD4" />
<path d="M180.43,52.928L177.73,48.241L183.14,48.241Z" style="fill:#5A9BD4" />
<path d="M188.32,52.928L185.61,48.241L191.02,48.241Z" style="fill:#5A9BD4" />
<path d="M196.2,55.293L193.5,50.606L198.91,50.606Z" style="fill:#5A9BD4" />
<path d="M204.09,55.293L201.38,50.606L206.8,50.606Z" style="fill:#5A9BD4" />
<path d="M211.98,57.658L209.27,52.97L214.68,52.97Z" style="fill:#5A9BD4" />
<path d="M219.86,57.658L217.16,52.97L222.57,52.97Z" style="fill:#5A9BD4" />
<path d="M227.75,57.658L225.04,52.97L230.46,52.97Z" style="fill:#5A9BD4" />
<path d="M235.64,60.023L232.93,55.335L238.34,55.335Z" style="fill:#5A9BD4" />
<path d="M243.52,60.023L240.82,55.335L246.23,55.335Z" style="fill:#5A9BD4" />
<path d="M251.41,62.388L248.7,57.7L254.12,57.7Z" style="fill:#5A9BD4" />
<path d="M259.3,62.388L256.59,57.7L262,57.7Z" style="fill:#5A9BD4" />
<path d="M267.18,64.752L264.48,60.065L269.89,60.065Z" style="fill:#5A9BD4" />
<path d="M275.07,67.117L272.36,62.43L277.78,62.43Z" style="fill:#5A9BD4" />
<path d="M282.96,67.117L280.25,62.43L285.66,62.43Z" style="fill:#5A9BD4" />
<path d="M290.84,71.847L288.14,67.159L293.55,67.159Z" style="fill:#5A9BD4" />
<path d="M298.73,76.576L296.02,71.889L301.43,71.889Z" style="fill:#5A9BD4" />
<path d="M306.61,86.036L303.91,81.348L309.32,81.348Z" style="fill:#5A9BD4" />
<path d="M314.5,97.859L311.79,93.172L317.21,93.172Z" style="fill:#5A9BD4" />
<path d="M322.39,130.97L319.68,126.28L325.09,126.28Z" style="fill:#5A9BD4" />
<path d="M330.27,145.16L327.57,140.47L332.98,140.47Z" style="fill:#5A9BD4" />
<path d="M338.16,147.52L335.45,142.83L340.87,142.83Z" style="fill:#5A9BD4" />
<path d="M346.05,154.61L343.34,149.93L348.75,149.93Z" style="fill:#5A9BD4" />
<path d="M353.93,168.8L351.23,164.12L356.64,164.12Z" style="fill:#5A9BD4" />
<path d="M361.82,178.26L359.11,173.58L364.53,173.58Z" style="fill:#5A9BD4" />
<path d="M369.71,182.99L367,178.3L372.41,178.3Z" style="fill:#5A9BD4" />
<path d="M377.59,185.36L374.89,180.67L380.3,180.67Z" style="fill:#5A9BD4" />
<path d="M385.48,187.72L382.77,183.03L388.19,183.03Z" style="fill:#5A9BD4" />
<path d="M393.37,194.82L390.66,190.13L396.07,190.13Z" style="fill:#5A9BD4" />
<path d="M401.25,197.18L398.55,192.49L403.96,192.49Z" style="fill:#5A9BD4" />
<path d="M409.14,201.91L406.43,197.22L411.85,197.22Z" style="fill:#5A9BD4" />
<path d="M417.03,204.28L414.32,199.59L419.73,199.59Z" style="fill:#5A9BD4" />
<path d="M424.91,206.64L422.21,201.95L427.62,201.95Z" style="fill:#5A9BD4" />
<path d="M432.8,206.64L430.09,201.95L435.5,201.95Z" style="fill:#5A9BD4" />
<path d="M440.68,211.37L437.98,206.68L443.39,206.68Z" style="fill:#5A9BD4" />
<path d="M448.57,211.37L445.86,206.68L451.28,206.68Z" style="fill:#5A9BD4" />
<path d="M456.46,213.73L453.75,209.05L459.16,209.05Z" style="fill:#5A9BD4" />
<path d="M464.34,213.73L461.64,209.05L467.05,209.05Z" style="fill:#5A9BD4" />
<path d="M472.23,213.73L469.52,209.05L474.94,209.05Z" style="fill:#5A9BD4" />
<path d="M480.12,216.1L477.41,211.41L482.82,211.41Z" style="fill:#5A9BD4" />
<path d="M488,218.46L485.3,213.78L490.71,213.78Z" style="fill:#5A9BD4" />
<path d="M495.89,218.46L493.18,213.78L498.6,213.78Z" style="fill:#5A9BD4" />
<path d="M503.78,220.83L501.07,216.14L506.48,216.14Z" style="fill:#5A9BD4" />
<path d="M511.66,223.19L508.96,218.51L514.37,218.51Z" style="fill:#5A9BD4" />
<path d="M519.55,225.56L516.84,220.87L522.26,220.87Z" style="fill:#5A9BD4" />
<path d="M527.44,225.56L524.73,220.87L530.14,220.87Z" style="fill:#5A9BD4" />
<path d="M535.32,227.92L532.62,223.24L538.03,223.24Z" style="fill:#5A9BD4" />
<path d="M543.21,230.29L540.5,225.6L545.91,225.6Z" style="fill:#5A9BD4" />
<path d="M551.09,230.29L548.39,225.6L553.8,225.6Z" style="fill:#5A9BD4" />
<path d="M558.98,232.65L556.28,227.97L561.69,227.97Z" style="fill:#5A9BD4" />
<path d="M566.87,235.02L564.16,230.33L569.57,230.33Z" style="fill:#5A9BD4" />
<path d="M574.75,239.75L572.05,235.06L577.46,235.06Z" style="fill:#5A9BD4" />
<path d="M582.64,242.11L579.93,237.42L585.35,237.42Z" style="fill:#5A9BD4" />
<path d="M590.53,244.48L587.82,239.79L593.23,239.79Z" style="fill:#5A9BD4" />
<path d="M598.41,249.21L595.71,244.52L601.12,244.52Z" style="fill:#5A9BD4" />
<path d="M606.3,253.94L603.59,249.25L609.01,249.25Z" style="fill:#5A9BD4" />
<path d="M614.19,258.67L611.48,253.98L616.89,253.98Z" style="fill:#5A9BD4" />
<path d="M622.07,263.4L619.37,258.71L624.78,258.71Z" style="fill:#5A9BD4" />
<path d="M629.96,265.76L627.25,261.07L632.67,261.07Z" style="fill:#5A9BD4" />
<path d="M637.85,265.76L635.14,261.07L640.55,261.07Z" style="fill:#5A9BD4" />
<path d="M645.73,268.12L643.03,263.44L648.44,263.44Z" style="fill:#5A9BD4" />
<path d="M653.62,272.85L650.91,268.17L656.33,268.17Z" style="fill:#5A9BD4" />
<path d="M661.51,272.85L658.8,268.17L664.21,268.17Z" style="fill:#5A9BD4" />
<path d="M669.39,279.95L666.69,275.26L672.1,275.26Z" style="fill:#5A9BD4" />
<path d="M677.28,282.31L674.57,277.63L679.98,277.63Z" style="fill:#5A9BD4" />
<path d="M685.16,282.31L682.46,277.63L687.87,277.63Z" style="fill:#5A9BD4" />
<path d="M693.05,284.68L690.34,279.99L695.76,279.99Z" style="fill:#5A9BD4" />
<path d="M700.94,287.04L698.23,282.36L703.64,282.36Z" style="fill:#5A9BD4" />
<path d="M708.82,289.41L706.12,284.72L711.53,284.72Z" style="fill:#5A9BD4" />
<path d="M716.71,294.14L714,289.45L719.42,289.45Z" style="fill:#5A9BD4" />
<path d="M724.6,298.87L721.89,294.18L727.3,294.18Z" style="fill:#5A9BD4" />
<path d="M732.48,303.6L729.78,298.91L735.19,298.91Z" style="fill:#5A9BD4" />
<path d="M740.37,303.6L737.66,298.91L743.08,298.91Z" style="fill:#5A9BD4" />
<path d="M748.26,313.06L745.55,308.37L750.96,308.37Z" style="fill:#5A9BD4" />
<path d="M756.14,322.52L753.44,317.83L758.85,317.83Z" style="fill:#5A9BD4" />
<path d="M764.03,324.88L761.32,320.19L766.74,320.19Z" style="fill:#5A9BD4" />
<path d="M771.92,334.34L769.21,329.65L774.62,329.65Z" style="fill:#5A9BD4" />
<path d="M779.8,339.07L777.1,334.38L782.51,334.38Z" style="fill:#5A9BD4" />
<path d="M787.69,348.53L784.98,343.84L790.39,343.84Z" style="fill:#5A9BD4" />
<path d="M795.57,350.89L792.87,346.21L798.28,346.21Z" style="fill:#5A9BD4" />
<path d="M803.46,357.99L800.76,353.3L806.17,353.3Z" style="fill:#5A9BD4" />
<path d="M811.35,365.08L808.64,360.39L814.05,360.39Z" style="fill:#5A9BD4" />
<path d="M819.23,393.46L816.53,388.77L821.94,388.77Z" style="fill:#5A9BD4" />
<path d="M827.12,440.75L824.41,436.07L829.83,436.07Z" style="fill:#5A9BD4" />
<path d="M835.01,473.86L832.3,469.17L837.71,469.17Z" style="fill:#5A9BD4" />
<path d="M842.89,554.27L840.19,549.58L845.6,549.58Z" style="fill:#5A9BD4" />
<path d="M830.39,45.301L850.39,45.301" style="fill:none;stroke:#5A9BD4" />
<path d="M840.39,48.426L837.69,43.738L843.1,43.738Z" style="fill:#5A9BD4" />
<text x="763.42" y="-42.813" transform="scale(1, -1)"
	style="font-family:Liberation Serif;font-variant:normal;font-weight:normal;font-style:normal;font-size:12px">to-fronted-up</text>
</g>
</svg>
