<?xml version="1.0"?>
<!-- Generated by SVGo and Plotinum VG -->
<svg width="850.39pt" height="566.93pt" viewBox="0 0 850.39 566.93"
	xmlns="http://www.w3.org/2000/svg"
	xmlns:xlink="http://www.w3.org/1999/xlink">
<g transform="scale(1, -1) translate(0, -566.93)">
<path d="M0,0L850.39,0L850.39,566.93L0,566.93Z" style="fill:#FFFFFF" />
<text x="287.54" y="-557.54" transform="scale(1, -1)"
	style="font-family:Liberation Serif;font-variant:normal;font-weight:normal;font-style:normal;font-size:12px">Raw Data Measures: regular-localhost-zeroload-emptydb</text>
<text x="427.69" y="-3.9023" transform="scale(1, -1)"
	style="font-family:Liberation Serif;font-variant:normal;font-weight:normal;font-style:normal;font-size:12px">Restart ID</text>
<text x="54.635" y="-16.541" transform="scale(1, -1)"
	style="font-family:Liberation Serif;font-variant:normal;font-weight:normal;font-style:normal;font-size:10px">0</text>
<text x="291.76" y="-16.541" transform="scale(1, -1)"
	style="font-family:Liberation Serif;font-variant:normal;font-weight:normal;font-style:normal;font-size:10px">30</text>
<text x="531.38" y="-16.541" transform="scale(1, -1)"
	style="font-family:Liberation Serif;font-variant:normal;font-weight:normal;font-style:normal;font-size:10px">60</text>
<text x="771.01" y="-16.541" transform="scale(1, -1)"
	style="font-family:Liberation Serif;font-variant:normal;font-weight:normal;font-style:normal;font-size:10px">90</text>
<path d="M57.135,24.363L57.135,32.363" style="fill:none;stroke:#000000;stroke-width:0.5" />
<path d="M296.76,24.363L296.76,32.363" style="fill:none;stroke:#000000;stroke-width:0.5" />
<path d="M536.38,24.363L536.38,32.363" style="fill:none;stroke:#000000;stroke-width:0.5" />
<path d="M776.01,24.363L776.01,32.363" style="fill:none;stroke:#000000;stroke-width:0.5" />
<path d="M137.01,28.363L137.01,32.363" style="fill:none;stroke:#000000;stroke-width:0.5" />
<path d="M216.88,28.363L216.88,32.363" style="fill:none;stroke:#000000;stroke-width:0.5" />
<path d="M376.63,28.363L376.63,32.363" style="fill:none;stroke:#000000;stroke-width:0.5" />
<path d="M456.51,28.363L456.51,32.363" style="fill:none;stroke:#000000;stroke-width:0.5" />
<path d="M616.26,28.363L616.26,32.363" style="fill:none;stroke:#000000;stroke-width:0.5" />
<path d="M696.13,28.363L696.13,32.363" style="fill:none;stroke:#000000;stroke-width:0.5" />
<path d="M57.135,32.363L847.89,32.363" style="fill:none;stroke:#000000;stroke-width:0.5" />
<g transform="rotate(90)">
<text x="265.43" y="9.3867" transform="scale(1, -1)"
	style="font-family:Liberation Serif;font-variant:normal;font-weight:normal;font-style:normal;font-size:12px">Duration: ms</text>
</g>
<text x="15.885" y="-40.424" transform="scale(1, -1)"
	style="font-family:Liberation Serif;font-variant:normal;font-weight:normal;font-style:normal;font-size:10px">25.00</text>
<text x="15.885" y="-275.81" transform="scale(1, -1)"
	style="font-family:Liberation Serif;font-variant:normal;font-weight:normal;font-style:normal;font-size:10px">50.00</text>
<text x="15.885" y="-511.19" transform="scale(1, -1)"
	style="font-family:Liberation Serif;font-variant:normal;font-weight:normal;font-style:normal;font-size:10px">75.00</text>
<path d="M40.885,42.709L48.885,42.709" style="fill:none;stroke:#000000;stroke-width:0.5" />
<path d="M40.885,278.09L48.885,278.09" style="fill:none;stroke:#000000;stroke-width:0.5" />
<path d="M40.885,513.48L48.885,513.48" style="fill:none;stroke:#000000;stroke-width:0.5" />
<path d="M44.885,89.786L48.885,89.786" style="fill:none;stroke:#000000;stroke-width:0.5" />
<path d="M44.885,136.86L48.885,136.86" style="fill:none;stroke:#000000;stroke-width:0.5" />
<path d="M44.885,183.94L48.885,183.94" style="fill:none;stroke:#000000;stroke-width:0.5" />
<path d="M44.885,231.02L48.885,231.02" style="fill:none;stroke:#000000;stroke-width:0.5" />
<path d="M44.885,325.17L48.885,325.17" style="fill:none;stroke:#000000;stroke-width:0.5" />
<path d="M44.885,372.25L48.885,372.25" style="fill:none;stroke:#000000;stroke-width:0.5" />
<path d="M44.885,419.32L48.885,419.32" style="fill:none;stroke:#000000;stroke-width:0.5" />
<path d="M44.885,466.4L48.885,466.4" style="fill:none;stroke:#000000;stroke-width:0.5" />
<path d="M48.885,42.709L48.885,551.14" style="fill:none;stroke:#000000;stroke-width:0.5" />
<path d="M57.135,42.709L57.135,551.14" style="fill:none;stroke:#808080;stroke-width:0.25" />
<path d="M296.76,42.709L296.76,551.14" style="fill:none;stroke:#808080;stroke-width:0.25" />
<path d="M536.38,42.709L536.38,551.14" style="fill:none;stroke:#808080;stroke-width:0.25" />
<path d="M776.01,42.709L776.01,551.14" style="fill:none;stroke:#808080;stroke-width:0.25" />
<path d="M57.135,42.709L847.89,42.709" style="fill:none;stroke:#808080;stroke-width:0.25" />
<path d="M57.135,278.09L847.89,278.09" style="fill:none;stroke:#808080;stroke-width:0.25" />
<path d="M57.135,513.48L847.89,513.48" style="fill:none;stroke:#808080;stroke-width:0.25" />
<path d="M57.135,249.85L65.122,155.69L73.11,146.28L81.097,212.19L89.085,174.52L97.072,155.69L105.06,249.85L113.05,212.19L121.03,146.28L129.02,165.11L137.01,146.28L145,193.36L152.98,155.69L160.97,259.26L168.96,146.28L176.95,146.28L184.93,146.28L192.92,315.76L200.91,146.28L208.9,202.77L216.88,146.28L224.87,146.28L232.86,155.69L240.85,146.28L248.83,174.52L256.82,212.19L264.81,146.28L272.8,202.77L280.78,212.19L288.77,146.28L296.76,155.69L304.75,212.19L312.73,155.69L320.72,146.28L328.71,146.28L336.7,146.28L344.68,155.69L352.67,202.77L360.66,136.86L368.65,155.69L376.63,249.85L384.62,136.86L392.61,268.68L400.6,146.28L408.58,127.45L416.57,146.28L424.56,146.28L432.55,183.94L440.53,165.11L448.52,183.94L456.51,296.92L464.5,136.86L472.48,155.69L480.47,155.69L488.46,155.69L496.45,249.85L504.43,193.36L512.42,259.26L520.41,249.85L528.4,174.52L536.38,221.6L544.37,202.77L552.36,146.28L560.34,193.36L568.33,155.69L576.32,259.26L584.31,146.28L592.29,183.94L600.28,155.69L608.27,174.52L616.26,136.86L624.24,155.69L632.23,165.11L640.22,146.28L648.21,165.11L656.19,146.28L664.18,146.28L672.17,155.69L680.16,259.26L688.14,174.52L696.13,146.28L704.12,183.94L712.11,183.94L720.09,155.69L728.08,193.36L736.07,136.86L744.06,155.69L752.04,278.09L760.03,146.28L768.02,231.02L776.01,231.02L783.99,278.09L791.98,155.69L799.97,165.11L807.96,174.52L815.94,127.45L823.93,146.28L831.92,136.86L839.91,155.69L847.89,231.02" style="fill:none;stroke:#F15A60" />
<path d="M57.135,252.97L54.428,248.29L59.841,248.29Z" style="fill:#F15A60" />
<path d="M65.122,158.82L62.416,154.13L67.829,154.13Z" style="fill:#F15A60" />
<path d="M73.11,149.4L70.403,144.72L75.816,144.72Z" style="fill:#F15A60" />
<path d="M81.097,215.31L78.391,210.62L83.803,210.62Z" style="fill:#F15A60" />
<path d="M89.085,177.65L86.378,172.96L91.791,172.96Z" style="fill:#F15A60" />
<path d="M97.072,158.82L94.366,154.13L99.778,154.13Z" style="fill:#F15A60" />
<path d="M105.06,252.97L102.35,248.29L107.77,248.29Z" style="fill:#F15A60" />
<path d="M113.05,215.31L110.34,210.62L115.75,210.62Z" style="fill:#F15A60" />
<path d="M121.03,149.4L118.33,144.72L123.74,144.72Z" style="fill:#F15A60" />
<path d="M129.02,168.23L126.32,163.55L131.73,163.55Z" style="fill:#F15A60" />
<path d="M137.01,149.4L134.3,144.72L139.72,144.72Z" style="fill:#F15A60" />
<path d="M145,196.48L142.29,191.79L147.7,191.79Z" style="fill:#F15A60" />
<path d="M152.98,158.82L150.28,154.13L155.69,154.13Z" style="fill:#F15A60" />
<path d="M160.97,262.39L158.27,257.7L163.68,257.7Z" style="fill:#F15A60" />
<path d="M168.96,149.4L166.25,144.72L171.67,144.72Z" style="fill:#F15A60" />
<path d="M176.95,149.4L174.24,144.72L179.65,144.72Z" style="fill:#F15A60" />
<path d="M184.93,149.4L182.23,144.72L187.64,144.72Z" style="fill:#F15A60" />
<path d="M192.92,318.88L190.22,314.19L195.63,314.19Z" style="fill:#F15A60" />
<path d="M200.91,149.4L198.2,144.72L203.62,144.72Z" style="fill:#F15A60" />
<path d="M208.9,205.9L206.19,201.21L211.6,201.21Z" style="fill:#F15A60" />
<path d="M216.88,149.4L214.18,144.72L219.59,144.72Z" style="fill:#F15A60" />
<path d="M224.87,149.4L222.17,144.72L227.58,144.72Z" style="fill:#F15A60" />
<path d="M232.86,158.82L230.15,154.13L235.57,154.13Z" style="fill:#F15A60" />
<path d="M240.85,149.4L238.14,144.72L243.55,144.72Z" style="fill:#F15A60" />
<path d="M248.83,177.65L246.13,172.96L251.54,172.96Z" style="fill:#F15A60" />
<path d="M256.82,215.31L254.12,210.62L259.53,210.62Z" style="fill:#F15A60" />
<path d="M264.81,149.4L262.1,144.72L267.52,144.72Z" style="fill:#F15A60" />
<path d="M272.8,205.9L270.09,201.21L275.5,201.21Z" style="fill:#F15A60" />
<path d="M280.78,215.31L278.08,210.62L283.49,210.62Z" style="fill:#F15A60" />
<path d="M288.77,149.4L286.06,144.72L291.48,144.72Z" style="fill:#F15A60" />
<path d="M296.76,158.82L294.05,154.13L299.47,154.13Z" style="fill:#F15A60" />
<path d="M304.75,215.31L302.04,210.62L307.45,210.62Z" style="fill:#F15A60" />
<path d="M312.73,158.82L310.03,154.13L315.44,154.13Z" style="fill:#F15A60" />
<path d="M320.72,149.4L318.01,144.72L323.43,144.72Z" style="fill:#F15A60" />
<path d="M328.71,149.4L326,144.72L331.41,144.72Z" style="fill:#F15A60" />
<path d="M336.7,149.4L333.99,144.72L339.4,144.72Z" style="fill:#F15A60" />
<path d="M344.68,158.82L341.98,154.13L347.39,154.13Z" style="fill:#F15A60" />
<path d="M352.67,205.9L349.96,201.21L355.38,201.21Z" style="fill:#F15A60" />
<path d="M360.66,139.99L357.95,135.3L363.36,135.3Z" style="fill:#F15A60" />
<path d="M368.65,158.82L365.94,154.13L371.35,154.13Z" style="fill:#F15A60" />
<path d="M376.63,252.97L373.93,248.29L379.34,248.29Z" style="fill:#F15A60" />
<path d="M384.62,139.99L381.91,135.3L387.33,135.3Z" style="fill:#F15A60" />
<path d="M392.61,271.8L389.9,267.12L395.31,267.12Z" style="fill:#F15A60" />
<path d="M400.6,149.4L397.89,144.72L403.3,144.72Z" style="fill:#F15A60" />
<path d="M408.58,130.57L405.88,125.88L411.29,125.88Z" style="fill:#F15A60" />
<path d="M416.57,149.4L413.86,144.72L419.28,144.72Z" style="fill:#F15A60" />
<path d="M424.56,149.4L421.85,144.72L427.26,144.72Z" style="fill:#F15A60" />
<path d="M432.55,187.06L429.84,182.38L435.25,182.38Z" style="fill:#F15A60" />
<path d="M440.53,168.23L437.83,163.55L443.24,163.55Z" style="fill:#F15A60" />
<path d="M448.52,187.06L445.81,182.38L451.23,182.38Z" style="fill:#F15A60" />
<path d="M456.51,300.05L453.8,295.36L459.21,295.36Z" style="fill:#F15A60" />
<path d="M464.5,139.99L461.79,135.3L467.2,135.3Z" style="fill:#F15A60" />
<path d="M472.48,158.82L469.78,154.13L475.19,154.13Z" style="fill:#F15A60" />
<path d="M480.47,158.82L477.76,154.13L483.18,154.13Z" style="fill:#F15A60" />
<path d="M488.46,158.82L485.75,154.13L491.16,154.13Z" style="fill:#F15A60" />
<path d="M496.45,252.97L493.74,248.29L499.15,248.29Z" style="fill:#F15A60" />
<path d="M504.43,196.48L501.73,191.79L507.14,191.79Z" style="fill:#F15A60" />
<path d="M512.42,262.39L509.71,257.7L515.13,257.7Z" style="fill:#F15A60" />
<path d="M520.41,252.97L517.7,248.29L523.11,248.29Z" style="fill:#F15A60" />
<path d="M528.4,177.65L525.69,172.96L531.1,172.96Z" style="fill:#F15A60" />
<path d="M536.38,224.73L533.68,220.04L539.09,220.04Z" style="fill:#F15A60" />
<path d="M544.37,205.9L541.66,201.21L547.08,201.21Z" style="fill:#F15A60" />
<path d="M552.36,149.4L549.65,144.72L555.06,144.72Z" style="fill:#F15A60" />
<path d="M560.34,196.48L557.64,191.79L563.05,191.79Z" style="fill:#F15A60" />
<path d="M568.33,158.82L565.63,154.13L571.04,154.13Z" style="fill:#F15A60" />
<path d="M576.32,262.39L573.61,257.7L579.03,257.7Z" style="fill:#F15A60" />
<path d="M584.31,149.4L581.6,144.72L587.01,144.72Z" style="fill:#F15A60" />
<path d="M592.29,187.06L589.59,182.38L595,182.38Z" style="fill:#F15A60" />
<path d="M600.28,158.82L597.58,154.13L602.99,154.13Z" style="fill:#F15A60" />
<path d="M608.27,177.65L605.56,172.96L610.98,172.96Z" style="fill:#F15A60" />
<path d="M616.26,139.99L613.55,135.3L618.96,135.3Z" style="fill:#F15A60" />
<path d="M624.24,158.82L621.54,154.13L626.95,154.13Z" style="fill:#F15A60" />
<path d="M632.23,168.23L629.53,163.55L634.94,163.55Z" style="fill:#F15A60" />
<path d="M640.22,149.4L637.51,144.72L642.93,144.72Z" style="fill:#F15A60" />
<path d="M648.21,168.23L645.5,163.55L650.91,163.55Z" style="fill:#F15A60" />
<path d="M656.19,149.4L653.49,144.72L658.9,144.72Z" style="fill:#F15A60" />
<path d="M664.18,149.4L661.48,144.72L666.89,144.72Z" style="fill:#F15A60" />
<path d="M672.17,158.82L669.46,154.13L674.88,154.13Z" style="fill:#F15A60" />
<path d="M680.16,262.39L677.45,257.7L682.86,257.7Z" style="fill:#F15A60" />
<path d="M688.14,177.65L685.44,172.96L690.85,172.96Z" style="fill:#F15A60" />
<path d="M696.13,149.4L693.43,144.72L698.84,144.72Z" style="fill:#F15A60" />
<path d="M704.12,187.06L701.41,182.38L706.83,182.38Z" style="fill:#F15A60" />
<path d="M712.11,187.06L709.4,182.38L714.81,182.38Z" style="fill:#F15A60" />
<path d="M720.09,158.82L717.39,154.13L722.8,154.13Z" style="fill:#F15A60" />
<path d="M728.08,196.48L725.38,191.79L730.79,191.79Z" style="fill:#F15A60" />
<path d="M736.07,139.99L733.36,135.3L738.78,135.3Z" style="fill:#F15A60" />
<path d="M744.06,158.82L741.35,154.13L746.76,154.13Z" style="fill:#F15A60" />
<path d="M752.04,281.22L749.34,276.53L754.75,276.53Z" style="fill:#F15A60" />
<path d="M760.03,149.4L757.33,144.72L762.74,144.72Z" style="fill:#F15A60" />
<path d="M768.02,234.14L765.31,229.45L770.73,229.45Z" style="fill:#F15A60" />
<path d="M776.01,234.14L773.3,229.45L778.71,229.45Z" style="fill:#F15A60" />
<path d="M783.99,281.22L781.29,276.53L786.7,276.53Z" style="fill:#F15A60" />
<path d="M791.98,158.82L789.28,154.13L794.69,154.13Z" style="fill:#F15A60" />
<path d="M799.97,168.23L797.26,163.55L802.68,163.55Z" style="fill:#F15A60" />
<path d="M807.96,177.65L805.25,172.96L810.66,172.96Z" style="fill:#F15A60" />
<path d="M815.94,130.57L813.24,125.88L818.65,125.88Z" style="fill:#F15A60" />
<path d="M823.93,149.4L821.22,144.72L826.64,144.72Z" style="fill:#F15A60" />
<path d="M831.92,139.99L829.21,135.3L834.63,135.3Z" style="fill:#F15A60" />
<path d="M839.91,158.82L837.2,154.13L842.61,154.13Z" style="fill:#F15A60" />
<path d="M847.89,234.14L845.19,229.45L850.6,229.45Z" style="fill:#F15A60" />
<path d="M57.135,513.48L65.122,409.91L73.11,419.32L81.097,466.4L89.085,428.74L97.072,428.74L105.06,504.06L113.05,466.4L121.03,400.49L129.02,428.74L137.01,400.49L145,447.57L152.98,409.91L160.97,522.89L168.96,391.08L176.95,409.91L184.93,447.57L192.92,551.14L200.91,409.91L208.9,456.99L216.88,400.49L224.87,409.91L232.86,419.32L240.85,419.32L248.83,438.16L256.82,475.82L264.81,409.91L272.8,456.99L280.78,466.4L288.77,400.49L296.76,409.91L304.75,466.4L312.73,409.91L320.72,409.91L328.71,400.49L336.7,409.91L344.68,419.32L352.67,456.99L360.66,391.08L368.65,419.32L376.63,504.06L384.62,391.08L392.61,522.89L400.6,409.91L408.58,381.66L416.57,419.32L424.56,409.91L432.55,428.74L440.53,428.74L448.52,447.57L456.51,551.14L464.5,381.66L472.48,428.74L480.47,428.74L488.46,400.49L496.45,504.06L504.43,456.99L512.42,504.06L520.41,513.48L528.4,438.16L536.38,475.82L544.37,447.57L552.36,419.32L560.34,447.57L568.33,409.91L576.32,522.89L584.31,419.32L592.29,438.16L600.28,419.32L608.27,447.57L616.26,391.08L624.24,419.32L632.23,428.74L640.22,419.32L648.21,419.32L656.19,409.91L664.18,409.91L672.17,419.32L680.16,522.89L688.14,419.32L696.13,494.65L704.12,438.16L712.11,447.57L720.09,419.32L728.08,466.4L736.07,391.08L744.06,419.32L752.04,532.31L760.03,409.91L768.02,494.65L776.01,485.23L783.99,532.31L791.98,400.49L799.97,419.32L807.96,428.74L815.94,381.66L823.93,409.91L831.92,419.32L839.91,419.32L847.89,494.65" style="fill:none;stroke:#7AC36A" />
<path d="M57.135,516.6L54.428,511.92L59.841,511.92Z" style="fill:#7AC36A" />
<path d="M65.122,413.03L62.416,408.35L67.829,408.35Z" style="fill:#7AC36A" />
<path d="M73.11,422.45L70.403,417.76L75.816,417.76Z" style="fill:#7AC36A" />
<path d="M81.097,469.53L78.391,464.84L83.803,464.84Z" style="fill:#7AC36A" />
<path d="M89.085,431.86L86.378,427.18L91.791,427.18Z" style="fill:#7AC36A" />
<path d="M97.072,431.86L94.366,427.18L99.778,427.18Z" style="fill:#7AC36A" />
<path d="M105.06,507.19L102.35,502.5L107.77,502.5Z" style="fill:#7AC36A" />
<path d="M113.05,469.53L110.34,464.84L115.75,464.84Z" style="fill:#7AC36A" />
<path d="M121.03,403.62L118.33,398.93L123.74,398.93Z" style="fill:#7AC36A" />
<path d="M129.02,431.86L126.32,427.18L131.73,427.18Z" style="fill:#7AC36A" />
<path d="M137.01,403.62L134.3,398.93L139.72,398.93Z" style="fill:#7AC36A" />
<path d="M145,450.7L142.29,446.01L147.7,446.01Z" style="fill:#7AC36A" />
<path d="M152.98,413.03L150.28,408.35L155.69,408.35Z" style="fill:#7AC36A" />
<path d="M160.97,526.02L158.27,521.33L163.68,521.33Z" style="fill:#7AC36A" />
<path d="M168.96,394.2L166.25,389.52L171.67,389.52Z" style="fill:#7AC36A" />
<path d="M176.95,413.03L174.24,408.35L179.65,408.35Z" style="fill:#7AC36A" />
<path d="M184.93,450.7L182.23,446.01L187.64,446.01Z" style="fill:#7AC36A" />
<path d="M192.92,554.27L190.22,549.58L195.63,549.58Z" style="fill:#7AC36A" />
<path d="M200.91,413.03L198.2,408.35L203.62,408.35Z" style="fill:#7AC36A" />
<path d="M208.9,460.11L206.19,455.42L211.6,455.42Z" style="fill:#7AC36A" />
<path d="M216.88,403.62L214.18,398.93L219.59,398.93Z" style="fill:#7AC36A" />
<path d="M224.87,413.03L222.17,408.35L227.58,408.35Z" style="fill:#7AC36A" />
<path d="M232.86,422.45L230.15,417.76L235.57,417.76Z" style="fill:#7AC36A" />
<path d="M240.85,422.45L238.14,417.76L243.55,417.76Z" style="fill:#7AC36A" />
<path d="M248.83,441.28L246.13,436.59L251.54,436.59Z" style="fill:#7AC36A" />
<path d="M256.82,478.94L254.12,474.25L259.53,474.25Z" style="fill:#7AC36A" />
<path d="M264.81,413.03L262.1,408.35L267.52,408.35Z" style="fill:#7AC36A" />
<path d="M272.8,460.11L270.09,455.42L275.5,455.42Z" style="fill:#7AC36A" />
<path d="M280.78,469.53L278.08,464.84L283.49,464.84Z" style="fill:#7AC36A" />
<path d="M288.77,403.62L286.06,398.93L291.48,398.93Z" style="fill:#7AC36A" />
<path d="M296.76,413.03L294.05,408.35L299.47,408.35Z" style="fill:#7AC36A" />
<path d="M304.75,469.53L302.04,464.84L307.45,464.84Z" style="fill:#7AC36A" />
<path d="M312.73,413.03L310.03,408.35L315.44,408.35Z" style="fill:#7AC36A" />
<path d="M320.72,413.03L318.01,408.35L323.43,408.35Z" style="fill:#7AC36A" />
<path d="M328.71,403.62L326,398.93L331.41,398.93Z" style="fill:#7AC36A" />
<path d="M336.7,413.03L333.99,408.35L339.4,408.35Z" style="fill:#7AC36A" />
<path d="M344.68,422.45L341.98,417.76L347.39,417.76Z" style="fill:#7AC36A" />
<path d="M352.67,460.11L349.96,455.42L355.38,455.42Z" style="fill:#7AC36A" />
<path d="M360.66,394.2L357.95,389.52L363.36,389.52Z" style="fill:#7AC36A" />
<path d="M368.65,422.45L365.94,417.76L371.35,417.76Z" style="fill:#7AC36A" />
<path d="M376.63,507.19L373.93,502.5L379.34,502.5Z" style="fill:#7AC36A" />
<path d="M384.62,394.2L381.91,389.52L387.33,389.52Z" style="fill:#7AC36A" />
<path d="M392.61,526.02L389.9,521.33L395.31,521.33Z" style="fill:#7AC36A" />
<path d="M400.6,413.03L397.89,408.35L403.3,408.35Z" style="fill:#7AC36A" />
<path d="M408.58,384.79L405.88,380.1L411.29,380.1Z" style="fill:#7AC36A" />
<path d="M416.57,422.45L413.86,417.76L419.28,417.76Z" style="fill:#7AC36A" />
<path d="M424.56,413.03L421.85,408.35L427.26,408.35Z" style="fill:#7AC36A" />
<path d="M432.55,431.86L429.84,427.18L435.25,427.18Z" style="fill:#7AC36A" />
<path d="M440.53,431.86L437.83,427.18L443.24,427.18Z" style="fill:#7AC36A" />
<path d="M448.52,450.7L445.81,446.01L451.23,446.01Z" style="fill:#7AC36A" />
<path d="M456.51,554.27L453.8,549.58L459.21,549.58Z" style="fill:#7AC36A" />
<path d="M464.5,384.79L461.79,380.1L467.2,380.1Z" style="fill:#7AC36A" />
<path d="M472.48,431.86L469.78,427.18L475.19,427.18Z" style="fill:#7AC36A" />
<path d="M480.47,431.86L477.76,427.18L483.18,427.18Z" style="fill:#7AC36A" />
<path d="M488.46,403.62L485.75,398.93L491.16,398.93Z" style="fill:#7AC36A" />
<path d="M496.45,507.19L493.74,502.5L499.15,502.5Z" style="fill:#7AC36A" />
<path d="M504.43,460.11L501.73,455.42L507.14,455.42Z" style="fill:#7AC36A" />
<path d="M512.42,507.19L509.71,502.5L515.13,502.5Z" style="fill:#7AC36A" />
<path d="M520.41,516.6L517.7,511.92L523.11,511.92Z" style="fill:#7AC36A" />
<path d="M528.4,441.28L525.69,436.59L531.1,436.59Z" style="fill:#7AC36A" />
<path d="M536.38,478.94L533.68,474.25L539.09,474.25Z" style="fill:#7AC36A" />
<path d="M544.37,450.7L541.66,446.01L547.08,446.01Z" style="fill:#7AC36A" />
<path d="M552.36,422.45L549.65,417.76L555.06,417.76Z" style="fill:#7AC36A" />
<path d="M560.34,450.7L557.64,446.01L563.05,446.01Z" style="fill:#7AC36A" />
<path d="M568.33,413.03L565.63,408.35L571.04,408.35Z" style="fill:#7AC36A" />
<path d="M576.32,526.02L573.61,521.33L579.03,521.33Z" style="fill:#7AC36A" />
<path d="M584.31,422.45L581.6,417.76L587.01,417.76Z" style="fill:#7AC36A" />
<path d="M592.29,441.28L589.59,436.59L595,436.59Z" style="fill:#7AC36A" />
<path d="M600.28,422.45L597.58,417.76L602.99,417.76Z" style="fill:#7AC36A" />
<path d="M608.27,450.7L605.56,446.01L610.98,446.01Z" style="fill:#7AC36A" />
<path d="M616.26,394.2L613.55,389.52L618.96,389.52Z" style="fill:#7AC36A" />
<path d="M624.24,422.45L621.54,417.76L626.95,417.76Z" style="fill:#7AC36A" />
<path d="M632.23,431.86L629.53,427.18L634.94,427.18Z" style="fill:#7AC36A" />
<path d="M640.22,422.45L637.51,417.76L642.93,417.76Z" style="fill:#7AC36A" />
<path d="M648.21,422.45L645.5,417.76L650.91,417.76Z" style="fill:#7AC36A" />
<path d="M656.19,413.03L653.49,408.35L658.9,408.35Z" style="fill:#7AC36A" />
<path d="M664.18,413.03L661.48,408.35L666.89,408.35Z" style="fill:#7AC36A" />
<path d="M672.17,422.45L669.46,417.76L674.88,417.76Z" style="fill:#7AC36A" />
<path d="M680.16,526.02L677.45,521.33L682.86,521.33Z" style="fill:#7AC36A" />
<path d="M688.14,422.45L685.44,417.76L690.85,417.76Z" style="fill:#7AC36A" />
<path d="M696.13,497.77L693.43,493.09L698.84,493.09Z" style="fill:#7AC36A" />
<path d="M704.12,441.28L701.41,436.59L706.83,436.59Z" style="fill:#7AC36A" />
<path d="M712.11,450.7L709.4,446.01L714.81,446.01Z" style="fill:#7AC36A" />
<path d="M720.09,422.45L717.39,417.76L722.8,417.76Z" style="fill:#7AC36A" />
<path d="M728.08,469.53L725.38,464.84L730.79,464.84Z" style="fill:#7AC36A" />
<path d="M736.07,394.2L733.36,389.52L738.78,389.52Z" style="fill:#7AC36A" />
<path d="M744.06,422.45L741.35,417.76L746.76,417.76Z" style="fill:#7AC36A" />
<path d="M752.04,535.43L749.34,530.75L754.75,530.75Z" style="fill:#7AC36A" />
<path d="M760.03,413.03L757.33,408.35L762.74,408.35Z" style="fill:#7AC36A" />
<path d="M768.02,497.77L765.31,493.09L770.73,493.09Z" style="fill:#7AC36A" />
<path d="M776.01,488.36L773.3,483.67L778.71,483.67Z" style="fill:#7AC36A" />
<path d="M783.99,535.43L781.29,530.75L786.7,530.75Z" style="fill:#7AC36A" />
<path d="M791.98,403.62L789.28,398.93L794.69,398.93Z" style="fill:#7AC36A" />
<path d="M799.97,422.45L797.26,417.76L802.68,417.76Z" style="fill:#7AC36A" />
<path d="M807.96,431.86L805.25,427.18L810.66,427.18Z" style="fill:#7AC36A" />
<path d="M815.94,384.79L813.24,380.1L818.65,380.1Z" style="fill:#7AC36A" />
<path d="M823.93,413.03L821.22,408.35L826.64,408.35Z" style="fill:#7AC36A" />
<path d="M831.92,422.45L829.21,417.76L834.63,417.76Z" style="fill:#7AC36A" />
<path d="M839.91,422.45L837.2,417.76L842.61,417.76Z" style="fill:#7AC36A" />
<path d="M847.89,497.77L845.19,493.09L850.6,493.09Z" style="fill:#7AC36A" />
<path d="M57.135,70.955L65.122,52.124L73.11,80.371L81.097,61.54L89.085,52.124L97.072,70.955L105.06,61.54L113.05,61.54L121.03,61.54L129.02,61.54L137.01,61.54L145,61.54L152.98,52.124L160.97,61.54L168.96,52.124L176.95,61.54L184.93,99.201L192.92,42.709L200.91,70.955L208.9,61.54L216.88,52.124L224.87,61.54L232.86,70.955L240.85,70.955L248.83,61.54L256.82,61.54L264.81,70.955L272.8,61.54L280.78,61.54L288.77,52.124L296.76,61.54L304.75,61.54L312.73,61.54L320.72,70.955L328.71,52.124L336.7,70.955L344.68,70.955L352.67,61.54L360.66,61.54L368.65,61.54L376.63,61.54L384.62,52.124L392.61,52.124L400.6,61.54L408.58,61.54L416.57,70.955L424.56,61.54L432.55,52.124L440.53,70.955L448.52,61.54L456.51,61.54L464.5,52.124L472.48,70.955L480.47,70.955L488.46,52.124L496.45,52.124L504.43,61.54L512.42,52.124L520.41,61.54L528.4,70.955L536.38,61.54L544.37,52.124L552.36,70.955L560.34,52.124L568.33,61.54L576.32,61.54L584.31,70.955L592.29,61.54L600.28,61.54L608.27,70.955L616.26,52.124L624.24,70.955L632.23,61.54L640.22,70.955L648.21,61.54L656.19,70.955L664.18,61.54L672.17,61.54L680.16,61.54L688.14,52.124L696.13,155.69L704.12,61.54L712.11,61.54L720.09,70.955L728.08,70.955L736.07,61.54L744.06,61.54L752.04,52.124L760.03,70.955L768.02,61.54L776.01,61.54L783.99,61.54L791.98,52.124L799.97,61.54L807.96,52.124L815.94,61.54L823.93,61.54L831.92,80.371L839.91,70.955L847.89,61.54" style="fill:none;stroke:#5A9BD4" />
<path d="M57.135,74.08L54.428,69.393L59.841,69.393Z" style="fill:#5A9BD4" />
<path d="M65.122,55.249L62.416,50.562L67.829,50.562Z" style="fill:#5A9BD4" />
<path d="M73.11,83.496L70.403,78.808L75.816,78.808Z" style="fill:#5A9BD4" />
<path d="M81.097,64.665L78.391,59.977L83.803,59.977Z" style="fill:#5A9BD4" />
<path d="M89.085,55.249L86.378,50.562L91.791,50.562Z" style="fill:#5A9BD4" />
<path d="M97.072,74.08L94.366,69.393L99.778,69.393Z" style="fill:#5A9BD4" />
<path d="M105.06,64.665L102.35,59.977L107.77,59.977Z" style="fill:#5A9BD4" />
<path d="M113.05,64.665L110.34,59.977L115.75,59.977Z" style="fill:#5A9BD4" />
<path d="M121.03,64.665L118.33,59.977L123.74,59.977Z" style="fill:#5A9BD4" />
<path d="M129.02,64.665L126.32,59.977L131.73,59.977Z" style="fill:#5A9BD4" />
<path d="M137.01,64.665L134.3,59.977L139.72,59.977Z" style="fill:#5A9BD4" />
<path d="M145,64.665L142.29,59.977L147.7,59.977Z" style="fill:#5A9BD4" />
<path d="M152.98,55.249L150.28,50.562L155.69,50.562Z" style="fill:#5A9BD4" />
<path d="M160.97,64.665L158.27,59.977L163.68,59.977Z" style="fill:#5A9BD4" />
<path d="M168.96,55.249L166.25,50.562L171.67,50.562Z" style="fill:#5A9BD4" />
<path d="M176.95,64.665L174.24,59.977L179.65,59.977Z" style="fill:#5A9BD4" />
<path d="M184.93,102.33L182.23,97.639L187.64,97.639Z" style="fill:#5A9BD4" />
<path d="M192.92,45.834L190.22,41.146L195.63,41.146Z" style="fill:#5A9BD4" />
<path d="M200.91,74.08L198.2,69.393L203.62,69.393Z" style="fill:#5A9BD4" />
<path d="M208.9,64.665L206.19,59.977L211.6,59.977Z" style="fill:#5A9BD4" />
<path d="M216.88,55.249L214.18,50.562L219.59,50.562Z" style="fill:#5A9BD4" />
<path d="M224.87,64.665L222.17,59.977L227.58,59.977Z" style="fill:#5A9BD4" />
<path d="M232.86,74.08L230.15,69.393L235.57,69.393Z" style="fill:#5A9BD4" />
<path d="M240.85,74.08L238.14,69.393L243.55,69.393Z" style="fill:#5A9BD4" />
<path d="M248.83,64.665L246.13,59.977L251.54,59.977Z" style="fill:#5A9BD4" />
<path d="M256.82,64.665L254.12,59.977L259.53,59.977Z" style="fill:#5A9BD4" />
<path d="M264.81,74.08L262.1,69.393L267.52,69.393Z" style="fill:#5A9BD4" />
<path d="M272.8,64.665L270.09,59.977L275.5,59.977Z" style="fill:#5A9BD4" />
<path d="M280.78,64.665L278.08,59.977L283.49,59.977Z" style="fill:#5A9BD4" />
<path d="M288.77,55.249L286.06,50.562L291.48,50.562Z" style="fill:#5A9BD4" />
<path d="M296.76,64.665L294.05,59.977L299.47,59.977Z" style="fill:#5A9BD4" />
<path d="M304.75,64.665L302.04,59.977L307.45,59.977Z" style="fill:#5A9BD4" />
<path d="M312.73,64.665L310.03,59.977L315.44,59.977Z" style="fill:#5A9BD4" />
<path d="M320.72,74.08L318.01,69.393L323.43,69.393Z" style="fill:#5A9BD4" />
<path d="M328.71,55.249L326,50.562L331.41,50.562Z" style="fill:#5A9BD4" />
<path d="M336.7,74.08L333.99,69.393L339.4,69.393Z" style="fill:#5A9BD4" />
<path d="M344.68,74.08L341.98,69.393L347.39,69.393Z" style="fill:#5A9BD4" />
<path d="M352.67,64.665L349.96,59.977L355.38,59.977Z" style="fill:#5A9BD4" />
<path d="M360.66,64.665L357.95,59.977L363.36,59.977Z" style="fill:#5A9BD4" />
<path d="M368.65,64.665L365.94,59.977L371.35,59.977Z" style="fill:#5A9BD4" />
<path d="M376.63,64.665L373.93,59.977L379.34,59.977Z" style="fill:#5A9BD4" />
<path d="M384.62,55.249L381.91,50.562L387.33,50.562Z" style="fill:#5A9BD4" />
<path d="M392.61,55.249L389.9,50.562L395.31,50.562Z" style="fill:#5A9BD4" />
<path d="M400.6,64.665L397.89,59.977L403.3,59.977Z" style="fill:#5A9BD4" />
<path d="M408.58,64.665L405.88,59.977L411.29,59.977Z" style="fill:#5A9BD4" />
<path d="M416.57,74.08L413.86,69.393L419.28,69.393Z" style="fill:#5A9BD4" />
<path d="M424.56,64.665L421.85,59.977L427.26,59.977Z" style="fill:#5A9BD4" />
<path d="M432.55,55.249L429.84,50.562L435.25,50.562Z" style="fill:#5A9BD4" />
<path d="M440.53,74.08L437.83,69.393L443.24,69.393Z" style="fill:#5A9BD4" />
<path d="M448.52,64.665L445.81,59.977L451.23,59.977Z" style="fill:#5A9BD4" />
<path d="M456.51,64.665L453.8,59.977L459.21,59.977Z" style="fill:#5A9BD4" />
<path d="M464.5,55.249L461.79,50.562L467.2,50.562Z" style="fill:#5A9BD4" />
<path d="M472.48,74.08L469.78,69.393L475.19,69.393Z" style="fill:#5A9BD4" />
<path d="M480.47,74.08L477.76,69.393L483.18,69.393Z" style="fill:#5A9BD4" />
<path d="M488.46,55.249L485.75,50.562L491.16,50.562Z" style="fill:#5A9BD4" />
<path d="M496.45,55.249L493.74,50.562L499.15,50.562Z" style="fill:#5A9BD4" />
<path d="M504.43,64.665L501.73,59.977L507.14,59.977Z" style="fill:#5A9BD4" />
<path d="M512.42,55.249L509.71,50.562L515.13,50.562Z" style="fill:#5A9BD4" />
<path d="M520.41,64.665L517.7,59.977L523.11,59.977Z" style="fill:#5A9BD4" />
<path d="M528.4,74.08L525.69,69.393L531.1,69.393Z" style="fill:#5A9BD4" />
<path d="M536.38,64.665L533.68,59.977L539.09,59.977Z" style="fill:#5A9BD4" />
<path d="M544.37,55.249L541.66,50.562L547.08,50.562Z" style="fill:#5A9BD4" />
<path d="M552.36,74.08L549.65,69.393L555.06,69.393Z" style="fill:#5A9BD4" />
<path d="M560.34,55.249L557.64,50.562L563.05,50.562Z" style="fill:#5A9BD4" />
<path d="M568.33,64.665L565.63,59.977L571.04,59.977Z" style="fill:#5A9BD4" />
<path d="M576.32,64.665L573.61,59.977L579.03,59.977Z" style="fill:#5A9BD4" />
<path d="M584.31,74.08L581.6,69.393L587.01,69.393Z" style="fill:#5A9BD4" />
<path d="M592.29,64.665L589.59,59.977L595,59.977Z" style="fill:#5A9BD4" />
<path d="M600.28,64.665L597.58,59.977L602.99,59.977Z" style="fill:#5A9BD4" />
<path d="M608.27,74.08L605.56,69.393L610.98,69.393Z" style="fill:#5A9BD4" />
<path d="M616.26,55.249L613.55,50.562L618.96,50.562Z" style="fill:#5A9BD4" />
<path d="M624.24,74.08L621.54,69.393L626.95,69.393Z" style="fill:#5A9BD4" />
<path d="M632.23,64.665L629.53,59.977L634.94,59.977Z" style="fill:#5A9BD4" />
<path d="M640.22,74.08L637.51,69.393L642.93,69.393Z" style="fill:#5A9BD4" />
<path d="M648.21,64.665L645.5,59.977L650.91,59.977Z" style="fill:#5A9BD4" />
<path d="M656.19,74.08L653.49,69.393L658.9,69.393Z" style="fill:#5A9BD4" />
<path d="M664.18,64.665L661.48,59.977L666.89,59.977Z" style="fill:#5A9BD4" />
<path d="M672.17,64.665L669.46,59.977L674.88,59.977Z" style="fill:#5A9BD4" />
<path d="M680.16,64.665L677.45,59.977L682.86,59.977Z" style="fill:#5A9BD4" />
<path d="M688.14,55.249L685.44,50.562L690.85,50.562Z" style="fill:#5A9BD4" />
<path d="M696.13,158.82L693.43,154.13L698.84,154.13Z" style="fill:#5A9BD4" />
<path d="M704.12,64.665L701.41,59.977L706.83,59.977Z" style="fill:#5A9BD4" />
<path d="M712.11,64.665L709.4,59.977L714.81,59.977Z" style="fill:#5A9BD4" />
<path d="M720.09,74.08L717.39,69.393L722.8,69.393Z" style="fill:#5A9BD4" />
<path d="M728.08,74.08L725.38,69.393L730.79,69.393Z" style="fill:#5A9BD4" />
<path d="M736.07,64.665L733.36,59.977L738.78,59.977Z" style="fill:#5A9BD4" />
<path d="M744.06,64.665L741.35,59.977L746.76,59.977Z" style="fill:#5A9BD4" />
<path d="M752.04,55.249L749.34,50.562L754.75,50.562Z" style="fill:#5A9BD4" />
<path d="M760.03,74.08L757.33,69.393L762.74,69.393Z" style="fill:#5A9BD4" />
<path d="M768.02,64.665L765.31,59.977L770.73,59.977Z" style="fill:#5A9BD4" />
<path d="M776.01,64.665L773.3,59.977L778.71,59.977Z" style="fill:#5A9BD4" />
<path d="M783.99,64.665L781.29,59.977L786.7,59.977Z" style="fill:#5A9BD4" />
<path d="M791.98,55.249L789.28,50.562L794.69,50.562Z" style="fill:#5A9BD4" />
<path d="M799.97,64.665L797.26,59.977L802.68,59.977Z" style="fill:#5A9BD4" />
<path d="M807.96,55.249L805.25,50.562L810.66,50.562Z" style="fill:#5A9BD4" />
<path d="M815.94,64.665L813.24,59.977L818.65,59.977Z" style="fill:#5A9BD4" />
<path d="M823.93,64.665L821.22,59.977L826.64,59.977Z" style="fill:#5A9BD4" />
<path d="M831.92,83.496L829.21,78.808L834.63,78.808Z" style="fill:#5A9BD4" />
<path d="M839.91,74.08L837.2,69.393L842.61,69.393Z" style="fill:#5A9BD4" />
<path d="M847.89,64.665L845.19,59.977L850.6,59.977Z" style="fill:#5A9BD4" />
<path d="M830.39,65.668L850.39,65.668" style="fill:none;stroke:#F15A60" />
<path d="M840.39,68.793L837.69,64.105L843.1,64.105Z" style="fill:#F15A60" />
<text x="790.07" y="-63.181" transform="scale(1, -1)"
	style="font-family:Liberation Serif;font-variant:normal;font-weight:normal;font-style:normal;font-size:12px">to-main</text>
<path d="M830.39,55.484L850.39,55.484" style="fill:none;stroke:#7AC36A" />
<path d="M840.39,58.609L837.69,53.922L843.1,53.922Z" style="fill:#7AC36A" />
<text x="763.42" y="-52.997" transform="scale(1, -1)"
	style="font-family:Liberation Serif;font-variant:normal;font-weight:normal;font-style:normal;font-size:12px">to-fronted-up</text>
<path d="M830.39,45.301L850.39,45.301" style="fill:none;stroke:#5A9BD4" />
<path d="M840.39,48.426L837.69,43.738L843.1,43.738Z" style="fill:#5A9BD4" />
<text x="721.44" y="-42.813" transform="scale(1, -1)"
	style="font-family:Liberation Serif;font-variant:normal;font-weight:normal;font-style:normal;font-size:12px">fronted-up-main-delta</text>
</g>
</svg>
