<?xml version="1.0"?>
<!-- Generated by SVGo and Plotinum VG -->
<svg width="850.39pt" height="566.93pt" viewBox="0 0 850.39 566.93"
	xmlns="http://www.w3.org/2000/svg"
	xmlns:xlink="http://www.w3.org/1999/xlink">
<g transform="scale(1, -1) translate(0, -566.93)">
<path d="M0,0L850.39,0L850.39,566.93L0,566.93Z" style="fill:#FFFFFF" />
<text x="253.88" y="-557.54" transform="scale(1, -1)"
	style="font-family:Liberation Serif;font-variant:normal;font-weight:normal;font-style:normal;font-size:12px">Percentiles - Main (Nearest Rank): regular-localhost-zeroload-emptydb</text>
<text x="419.78" y="-3.9023" transform="scale(1, -1)"
	style="font-family:Liberation Serif;font-variant:normal;font-weight:normal;font-style:normal;font-size:12px">Percentile</text>
<text x="192.84" y="-16.541" transform="scale(1, -1)"
	style="font-family:Liberation Serif;font-variant:normal;font-weight:normal;font-style:normal;font-size:10px">20</text>
<text x="515.36" y="-16.541" transform="scale(1, -1)"
	style="font-family:Liberation Serif;font-variant:normal;font-weight:normal;font-style:normal;font-size:10px">60</text>
<text x="835.39" y="-16.541" transform="scale(1, -1)"
	style="font-family:Liberation Serif;font-variant:normal;font-weight:normal;font-style:normal;font-size:10px">100</text>
<path d="M197.84,24.363L197.84,32.363" style="fill:none;stroke:#000000;stroke-width:0.5" />
<path d="M520.36,24.363L520.36,32.363" style="fill:none;stroke:#000000;stroke-width:0.5" />
<path d="M842.89,24.363L842.89,32.363" style="fill:none;stroke:#000000;stroke-width:0.5" />
<path d="M117.2,28.363L117.2,32.363" style="fill:none;stroke:#000000;stroke-width:0.5" />
<path d="M278.47,28.363L278.47,32.363" style="fill:none;stroke:#000000;stroke-width:0.5" />
<path d="M359.1,28.363L359.1,32.363" style="fill:none;stroke:#000000;stroke-width:0.5" />
<path d="M439.73,28.363L439.73,32.363" style="fill:none;stroke:#000000;stroke-width:0.5" />
<path d="M601,28.363L601,32.363" style="fill:none;stroke:#000000;stroke-width:0.5" />
<path d="M681.63,28.363L681.63,32.363" style="fill:none;stroke:#000000;stroke-width:0.5" />
<path d="M762.26,28.363L762.26,32.363" style="fill:none;stroke:#000000;stroke-width:0.5" />
<path d="M44.635,32.363L842.89,32.363" style="fill:none;stroke:#000000;stroke-width:0.5" />
<g transform="rotate(90)">
<text x="265.43" y="9.3867" transform="scale(1, -1)"
	style="font-family:Liberation Serif;font-variant:normal;font-weight:normal;font-style:normal;font-size:12px">Duration: ms</text>
</g>
<text x="15.885" y="-91.267" transform="scale(1, -1)"
	style="font-family:Liberation Serif;font-variant:normal;font-weight:normal;font-style:normal;font-size:10px">36</text>
<text x="15.885" y="-294.64" transform="scale(1, -1)"
	style="font-family:Liberation Serif;font-variant:normal;font-weight:normal;font-style:normal;font-size:10px">44</text>
<text x="15.885" y="-498.01" transform="scale(1, -1)"
	style="font-family:Liberation Serif;font-variant:normal;font-weight:normal;font-style:normal;font-size:10px">52</text>
<path d="M28.385,93.552L36.385,93.552" style="fill:none;stroke:#000000;stroke-width:0.5" />
<path d="M28.385,296.92L36.385,296.92" style="fill:none;stroke:#000000;stroke-width:0.5" />
<path d="M28.385,500.3L36.385,500.3" style="fill:none;stroke:#000000;stroke-width:0.5" />
<path d="M32.385,195.24L36.385,195.24" style="fill:none;stroke:#000000;stroke-width:0.5" />
<path d="M32.385,398.61L36.385,398.61" style="fill:none;stroke:#000000;stroke-width:0.5" />
<path d="M36.385,42.709L36.385,551.14" style="fill:none;stroke:#000000;stroke-width:0.5" />
<path d="M197.84,42.709L197.84,551.14" style="fill:none;stroke:#808080;stroke-width:0.25" />
<path d="M520.36,42.709L520.36,551.14" style="fill:none;stroke:#808080;stroke-width:0.25" />
<path d="M842.89,42.709L842.89,551.14" style="fill:none;stroke:#808080;stroke-width:0.25" />
<path d="M44.635,93.552L842.89,93.552" style="fill:none;stroke:#808080;stroke-width:0.25" />
<path d="M44.635,296.92L842.89,296.92" style="fill:none;stroke:#808080;stroke-width:0.25" />
<path d="M44.635,500.3L842.89,500.3" style="fill:none;stroke:#808080;stroke-width:0.25" />
<path d="M44.635,42.709L52.698,42.709L60.761,68.131L68.824,68.131L76.888,68.131L84.951,68.131L93.014,68.131L101.08,68.131L109.14,93.552L117.2,93.552L125.27,93.552L133.33,93.552L141.39,93.552L149.46,93.552L157.52,93.552L165.58,93.552L173.65,93.552L181.71,93.552L189.77,93.552L197.84,93.552L205.9,93.552L213.96,93.552L222.03,93.552L230.09,93.552L238.15,93.552L246.22,93.552L254.28,93.552L262.34,93.552L270.4,93.552L278.47,93.552L286.53,93.552L294.59,93.552L302.66,93.552L310.72,93.552L318.78,118.97L326.85,118.97L334.91,118.97L342.97,118.97L351.04,118.97L359.1,118.97L367.16,118.97L375.23,118.97L383.29,118.97L391.35,118.97L399.42,118.97L407.48,118.97L415.54,118.97L423.61,118.97L431.67,118.97L439.73,118.97L447.8,118.97L455.86,118.97L463.92,118.97L471.99,144.4L480.05,144.4L488.11,144.4L496.18,144.4L504.24,144.4L512.3,169.82L520.36,169.82L528.43,169.82L536.49,169.82L544.55,169.82L552.62,169.82L560.68,195.24L568.74,195.24L576.81,195.24L584.87,195.24L592.93,195.24L601,220.66L609.06,220.66L617.12,220.66L625.19,220.66L633.25,246.08L641.31,246.08L649.38,246.08L657.44,246.08L665.5,271.5L673.57,271.5L681.63,271.5L689.69,271.5L697.76,271.5L705.82,296.92L713.88,322.35L721.95,322.35L730.01,322.35L738.07,373.19L746.14,373.19L754.2,373.19L762.26,373.19L770.32,373.19L778.39,398.61L786.45,398.61L794.51,398.61L802.58,398.61L810.64,424.03L818.7,449.45L826.77,449.45L834.83,500.3L842.89,551.14" style="fill:none;stroke:#F15A60" />
<path d="M44.635,45.834L41.928,41.146L47.341,41.146Z" style="fill:#F15A60" />
<path d="M52.698,45.834L49.992,41.146L55.404,41.146Z" style="fill:#F15A60" />
<path d="M60.761,71.256L58.055,66.568L63.468,66.568Z" style="fill:#F15A60" />
<path d="M68.824,71.256L66.118,66.568L71.531,66.568Z" style="fill:#F15A60" />
<path d="M76.888,71.256L74.181,66.568L79.594,66.568Z" style="fill:#F15A60" />
<path d="M84.951,71.256L82.245,66.568L87.657,66.568Z" style="fill:#F15A60" />
<path d="M93.014,71.256L90.308,66.568L95.72,66.568Z" style="fill:#F15A60" />
<path d="M101.08,71.256L98.371,66.568L103.78,66.568Z" style="fill:#F15A60" />
<path d="M109.14,96.677L106.43,91.99L111.85,91.99Z" style="fill:#F15A60" />
<path d="M117.2,96.677L114.5,91.99L119.91,91.99Z" style="fill:#F15A60" />
<path d="M125.27,96.677L122.56,91.99L127.97,91.99Z" style="fill:#F15A60" />
<path d="M133.33,96.677L130.62,91.99L136.04,91.99Z" style="fill:#F15A60" />
<path d="M141.39,96.677L138.69,91.99L144.1,91.99Z" style="fill:#F15A60" />
<path d="M149.46,96.677L146.75,91.99L152.16,91.99Z" style="fill:#F15A60" />
<path d="M157.52,96.677L154.81,91.99L160.23,91.99Z" style="fill:#F15A60" />
<path d="M165.58,96.677L162.88,91.99L168.29,91.99Z" style="fill:#F15A60" />
<path d="M173.65,96.677L170.94,91.99L176.35,91.99Z" style="fill:#F15A60" />
<path d="M181.71,96.677L179,91.99L184.42,91.99Z" style="fill:#F15A60" />
<path d="M189.77,96.677L187.07,91.99L192.48,91.99Z" style="fill:#F15A60" />
<path d="M197.84,96.677L195.13,91.99L200.54,91.99Z" style="fill:#F15A60" />
<path d="M205.9,96.677L203.19,91.99L208.61,91.99Z" style="fill:#F15A60" />
<path d="M213.96,96.677L211.26,91.99L216.67,91.99Z" style="fill:#F15A60" />
<path d="M222.03,96.677L219.32,91.99L224.73,91.99Z" style="fill:#F15A60" />
<path d="M230.09,96.677L227.38,91.99L232.8,91.99Z" style="fill:#F15A60" />
<path d="M238.15,96.677L235.45,91.99L240.86,91.99Z" style="fill:#F15A60" />
<path d="M246.22,96.677L243.51,91.99L248.92,91.99Z" style="fill:#F15A60" />
<path d="M254.28,96.677L251.57,91.99L256.98,91.99Z" style="fill:#F15A60" />
<path d="M262.34,96.677L259.64,91.99L265.05,91.99Z" style="fill:#F15A60" />
<path d="M270.4,96.677L267.7,91.99L273.11,91.99Z" style="fill:#F15A60" />
<path d="M278.47,96.677L275.76,91.99L281.17,91.99Z" style="fill:#F15A60" />
<path d="M286.53,96.677L283.83,91.99L289.24,91.99Z" style="fill:#F15A60" />
<path d="M294.59,96.677L291.89,91.99L297.3,91.99Z" style="fill:#F15A60" />
<path d="M302.66,96.677L299.95,91.99L305.36,91.99Z" style="fill:#F15A60" />
<path d="M310.72,96.677L308.01,91.99L313.43,91.99Z" style="fill:#F15A60" />
<path d="M318.78,122.1L316.08,117.41L321.49,117.41Z" style="fill:#F15A60" />
<path d="M326.85,122.1L324.14,117.41L329.55,117.41Z" style="fill:#F15A60" />
<path d="M334.91,122.1L332.2,117.41L337.62,117.41Z" style="fill:#F15A60" />
<path d="M342.97,122.1L340.27,117.41L345.68,117.41Z" style="fill:#F15A60" />
<path d="M351.04,122.1L348.33,117.41L353.74,117.41Z" style="fill:#F15A60" />
<path d="M359.1,122.1L356.39,117.41L361.81,117.41Z" style="fill:#F15A60" />
<path d="M367.16,122.1L364.46,117.41L369.87,117.41Z" style="fill:#F15A60" />
<path d="M375.23,122.1L372.52,117.41L377.93,117.41Z" style="fill:#F15A60" />
<path d="M383.29,122.1L380.58,117.41L386,117.41Z" style="fill:#F15A60" />
<path d="M391.35,122.1L388.65,117.41L394.06,117.41Z" style="fill:#F15A60" />
<path d="M399.42,122.1L396.71,117.41L402.12,117.41Z" style="fill:#F15A60" />
<path d="M407.48,122.1L404.77,117.41L410.19,117.41Z" style="fill:#F15A60" />
<path d="M415.54,122.1L412.84,117.41L418.25,117.41Z" style="fill:#F15A60" />
<path d="M423.61,122.1L420.9,117.41L426.31,117.41Z" style="fill:#F15A60" />
<path d="M431.67,122.1L428.96,117.41L434.38,117.41Z" style="fill:#F15A60" />
<path d="M439.73,122.1L437.03,117.41L442.44,117.41Z" style="fill:#F15A60" />
<path d="M447.8,122.1L445.09,117.41L450.5,117.41Z" style="fill:#F15A60" />
<path d="M455.86,122.1L453.15,117.41L458.57,117.41Z" style="fill:#F15A60" />
<path d="M463.92,122.1L461.22,117.41L466.63,117.41Z" style="fill:#F15A60" />
<path d="M471.99,147.52L469.28,142.83L474.69,142.83Z" style="fill:#F15A60" />
<path d="M480.05,147.52L477.34,142.83L482.76,142.83Z" style="fill:#F15A60" />
<path d="M488.11,147.52L485.41,142.83L490.82,142.83Z" style="fill:#F15A60" />
<path d="M496.18,147.52L493.47,142.83L498.88,142.83Z" style="fill:#F15A60" />
<path d="M504.24,147.52L501.53,142.83L506.94,142.83Z" style="fill:#F15A60" />
<path d="M512.3,172.94L509.6,168.25L515.01,168.25Z" style="fill:#F15A60" />
<path d="M520.36,172.94L517.66,168.25L523.07,168.25Z" style="fill:#F15A60" />
<path d="M528.43,172.94L525.72,168.25L531.13,168.25Z" style="fill:#F15A60" />
<path d="M536.49,172.94L533.78,168.25L539.2,168.25Z" style="fill:#F15A60" />
<path d="M544.55,172.94L541.85,168.25L547.26,168.25Z" style="fill:#F15A60" />
<path d="M552.62,172.94L549.91,168.25L555.32,168.25Z" style="fill:#F15A60" />
<path d="M560.68,198.36L557.97,193.68L563.39,193.68Z" style="fill:#F15A60" />
<path d="M568.74,198.36L566.04,193.68L571.45,193.68Z" style="fill:#F15A60" />
<path d="M576.81,198.36L574.1,193.68L579.51,193.68Z" style="fill:#F15A60" />
<path d="M584.87,198.36L582.16,193.68L587.58,193.68Z" style="fill:#F15A60" />
<path d="M592.93,198.36L590.23,193.68L595.64,193.68Z" style="fill:#F15A60" />
<path d="M601,223.78L598.29,219.1L603.7,219.1Z" style="fill:#F15A60" />
<path d="M609.06,223.78L606.35,219.1L611.77,219.1Z" style="fill:#F15A60" />
<path d="M617.12,223.78L614.42,219.1L619.83,219.1Z" style="fill:#F15A60" />
<path d="M625.19,223.78L622.48,219.1L627.89,219.1Z" style="fill:#F15A60" />
<path d="M633.25,249.21L630.54,244.52L635.96,244.52Z" style="fill:#F15A60" />
<path d="M641.31,249.21L638.61,244.52L644.02,244.52Z" style="fill:#F15A60" />
<path d="M649.38,249.21L646.67,244.52L652.08,244.52Z" style="fill:#F15A60" />
<path d="M657.44,249.21L654.73,244.52L660.15,244.52Z" style="fill:#F15A60" />
<path d="M665.5,274.63L662.8,269.94L668.21,269.94Z" style="fill:#F15A60" />
<path d="M673.57,274.63L670.86,269.94L676.27,269.94Z" style="fill:#F15A60" />
<path d="M681.63,274.63L678.92,269.94L684.34,269.94Z" style="fill:#F15A60" />
<path d="M689.69,274.63L686.99,269.94L692.4,269.94Z" style="fill:#F15A60" />
<path d="M697.76,274.63L695.05,269.94L700.46,269.94Z" style="fill:#F15A60" />
<path d="M705.82,300.05L703.11,295.36L708.53,295.36Z" style="fill:#F15A60" />
<path d="M713.88,325.47L711.18,320.78L716.59,320.78Z" style="fill:#F15A60" />
<path d="M721.95,325.47L719.24,320.78L724.65,320.78Z" style="fill:#F15A60" />
<path d="M730.01,325.47L727.3,320.78L732.71,320.78Z" style="fill:#F15A60" />
<path d="M738.07,376.31L735.37,371.63L740.78,371.63Z" style="fill:#F15A60" />
<path d="M746.14,376.31L743.43,371.63L748.84,371.63Z" style="fill:#F15A60" />
<path d="M754.2,376.31L751.49,371.63L756.9,371.63Z" style="fill:#F15A60" />
<path d="M762.26,376.31L759.56,371.63L764.97,371.63Z" style="fill:#F15A60" />
<path d="M770.32,376.31L767.62,371.63L773.03,371.63Z" style="fill:#F15A60" />
<path d="M778.39,401.74L775.68,397.05L781.09,397.05Z" style="fill:#F15A60" />
<path d="M786.45,401.74L783.74,397.05L789.16,397.05Z" style="fill:#F15A60" />
<path d="M794.51,401.74L791.81,397.05L797.22,397.05Z" style="fill:#F15A60" />
<path d="M802.58,401.74L799.87,397.05L805.28,397.05Z" style="fill:#F15A60" />
<path d="M810.64,427.16L807.93,422.47L813.35,422.47Z" style="fill:#F15A60" />
<path d="M818.7,452.58L816,447.89L821.41,447.89Z" style="fill:#F15A60" />
<path d="M826.77,452.58L824.06,447.89L829.47,447.89Z" style="fill:#F15A60" />
<path d="M834.83,503.42L832.12,498.73L837.54,498.73Z" style="fill:#F15A60" />
<path d="M842.89,554.27L840.19,549.58L845.6,549.58Z" style="fill:#F15A60" />
<path d="M830.39,45.301L850.39,45.301" style="fill:none;stroke:#F15A60" />
<path d="M840.39,48.426L837.69,43.738L843.1,43.738Z" style="fill:#F15A60" />
<text x="790.07" y="-42.813" transform="scale(1, -1)"
	style="font-family:Liberation Serif;font-variant:normal;font-weight:normal;font-style:normal;font-size:12px">to-main</text>
</g>
</svg>
