<?xml version="1.0"?>
<!-- Generated by SVGo and Plotinum VG -->
<svg width="850.39pt" height="566.93pt" viewBox="0 0 850.39 566.93"
	xmlns="http://www.w3.org/2000/svg"
	xmlns:xlink="http://www.w3.org/1999/xlink">
<g transform="scale(1, -1) translate(0, -566.93)">
<path d="M0,0L850.39,0L850.39,566.93L0,566.93Z" style="fill:#FFFFFF" />
<text x="206.89" y="-557.54" transform="scale(1, -1)"
	style="font-family:Liberation Serif;font-variant:normal;font-weight:normal;font-style:normal;font-size:12px">Percentiles - FrontEndUp-Main-Delta (Nearest Rank): regular-localhost-zeroload-emptydb</text>
<text x="419.78" y="-3.9023" transform="scale(1, -1)"
	style="font-family:Liberation Serif;font-variant:normal;font-weight:normal;font-style:normal;font-size:12px">Percentile</text>
<text x="192.84" y="-16.541" transform="scale(1, -1)"
	style="font-family:Liberation Serif;font-variant:normal;font-weight:normal;font-style:normal;font-size:10px">20</text>
<text x="515.36" y="-16.541" transform="scale(1, -1)"
	style="font-family:Liberation Serif;font-variant:normal;font-weight:normal;font-style:normal;font-size:10px">60</text>
<text x="835.39" y="-16.541" transform="scale(1, -1)"
	style="font-family:Liberation Serif;font-variant:normal;font-weight:normal;font-style:normal;font-size:10px">100</text>
<path d="M197.84,24.363L197.84,32.363" style="fill:none;stroke:#000000;stroke-width:0.5" />
<path d="M520.36,24.363L520.36,32.363" style="fill:none;stroke:#000000;stroke-width:0.5" />
<path d="M842.89,24.363L842.89,32.363" style="fill:none;stroke:#000000;stroke-width:0.5" />
<path d="M117.2,28.363L117.2,32.363" style="fill:none;stroke:#000000;stroke-width:0.5" />
<path d="M278.47,28.363L278.47,32.363" style="fill:none;stroke:#000000;stroke-width:0.5" />
<path d="M359.1,28.363L359.1,32.363" style="fill:none;stroke:#000000;stroke-width:0.5" />
<path d="M439.73,28.363L439.73,32.363" style="fill:none;stroke:#000000;stroke-width:0.5" />
<path d="M601,28.363L601,32.363" style="fill:none;stroke:#000000;stroke-width:0.5" />
<path d="M681.63,28.363L681.63,32.363" style="fill:none;stroke:#000000;stroke-width:0.5" />
<path d="M762.26,28.363L762.26,32.363" style="fill:none;stroke:#000000;stroke-width:0.5" />
<path d="M44.635,32.363L842.89,32.363" style="fill:none;stroke:#000000;stroke-width:0.5" />
<g transform="rotate(90)">
<text x="265.43" y="9.3867" transform="scale(1, -1)"
	style="font-family:Liberation Serif;font-variant:normal;font-weight:normal;font-style:normal;font-size:12px">Duration: ms</text>
</g>
<text x="15.885" y="-40.424" transform="scale(1, -1)"
	style="font-family:Liberation Serif;font-variant:normal;font-weight:normal;font-style:normal;font-size:10px">25</text>
<text x="15.885" y="-252.27" transform="scale(1, -1)"
	style="font-family:Liberation Serif;font-variant:normal;font-weight:normal;font-style:normal;font-size:10px">30</text>
<text x="15.885" y="-464.12" transform="scale(1, -1)"
	style="font-family:Liberation Serif;font-variant:normal;font-weight:normal;font-style:normal;font-size:10px">35</text>
<path d="M28.385,42.709L36.385,42.709" style="fill:none;stroke:#000000;stroke-width:0.5" />
<path d="M28.385,254.56L36.385,254.56" style="fill:none;stroke:#000000;stroke-width:0.5" />
<path d="M28.385,466.4L36.385,466.4" style="fill:none;stroke:#000000;stroke-width:0.5" />
<path d="M32.385,85.078L36.385,85.078" style="fill:none;stroke:#000000;stroke-width:0.5" />
<path d="M32.385,127.45L36.385,127.45" style="fill:none;stroke:#000000;stroke-width:0.5" />
<path d="M32.385,169.82L36.385,169.82" style="fill:none;stroke:#000000;stroke-width:0.5" />
<path d="M32.385,212.19L36.385,212.19" style="fill:none;stroke:#000000;stroke-width:0.5" />
<path d="M32.385,296.92L36.385,296.92" style="fill:none;stroke:#000000;stroke-width:0.5" />
<path d="M32.385,339.29L36.385,339.29" style="fill:none;stroke:#000000;stroke-width:0.5" />
<path d="M32.385,381.66L36.385,381.66" style="fill:none;stroke:#000000;stroke-width:0.5" />
<path d="M32.385,424.03L36.385,424.03" style="fill:none;stroke:#000000;stroke-width:0.5" />
<path d="M32.385,508.77L36.385,508.77" style="fill:none;stroke:#000000;stroke-width:0.5" />
<path d="M32.385,551.14L36.385,551.14" style="fill:none;stroke:#000000;stroke-width:0.5" />
<path d="M36.385,42.709L36.385,551.14" style="fill:none;stroke:#000000;stroke-width:0.5" />
<path d="M197.84,42.709L197.84,551.14" style="fill:none;stroke:#808080;stroke-width:0.25" />
<path d="M520.36,42.709L520.36,551.14" style="fill:none;stroke:#808080;stroke-width:0.25" />
<path d="M842.89,42.709L842.89,551.14" style="fill:none;stroke:#808080;stroke-width:0.25" />
<path d="M44.635,42.709L842.89,42.709" style="fill:none;stroke:#808080;stroke-width:0.25" />
<path d="M44.635,254.56L842.89,254.56" style="fill:none;stroke:#808080;stroke-width:0.25" />
<path d="M44.635,466.4L842.89,466.4" style="fill:none;stroke:#808080;stroke-width:0.25" />
<path d="M44.635,42.709L52.698,85.078L60.761,85.078L68.824,85.078L76.888,85.078L84.951,85.078L93.014,85.078L101.08,85.078L109.14,85.078L117.2,85.078L125.27,85.078L133.33,85.078L141.39,85.078L149.46,85.078L157.52,85.078L165.58,85.078L173.65,85.078L181.71,85.078L189.77,85.078L197.84,85.078L205.9,85.078L213.96,85.078L222.03,127.45L230.09,127.45L238.15,127.45L246.22,127.45L254.28,127.45L262.34,127.45L270.4,127.45L278.47,127.45L286.53,127.45L294.59,127.45L302.66,127.45L310.72,127.45L318.78,127.45L326.85,127.45L334.91,127.45L342.97,127.45L351.04,127.45L359.1,127.45L367.16,127.45L375.23,127.45L383.29,127.45L391.35,127.45L399.42,127.45L407.48,127.45L415.54,127.45L423.61,127.45L431.67,127.45L439.73,127.45L447.8,127.45L455.86,127.45L463.92,127.45L471.99,127.45L480.05,127.45L488.11,127.45L496.18,127.45L504.24,127.45L512.3,127.45L520.36,127.45L528.43,127.45L536.49,127.45L544.55,127.45L552.62,127.45L560.68,127.45L568.74,127.45L576.81,127.45L584.87,127.45L592.93,127.45L601,127.45L609.06,127.45L617.12,127.45L625.19,169.82L633.25,169.82L641.31,169.82L649.38,169.82L657.44,169.82L665.5,169.82L673.57,169.82L681.63,169.82L689.69,169.82L697.76,169.82L705.82,169.82L713.88,169.82L721.95,169.82L730.01,169.82L738.07,169.82L746.14,169.82L754.2,169.82L762.26,169.82L770.32,169.82L778.39,169.82L786.45,169.82L794.51,169.82L802.58,169.82L810.64,169.82L818.7,212.19L826.77,212.19L834.83,296.92L842.89,551.14" style="fill:none;stroke:#5A9BD4" />
<path d="M44.635,45.834L41.928,41.146L47.341,41.146Z" style="fill:#5A9BD4" />
<path d="M52.698,88.203L49.992,83.516L55.404,83.516Z" style="fill:#5A9BD4" />
<path d="M60.761,88.203L58.055,83.516L63.468,83.516Z" style="fill:#5A9BD4" />
<path d="M68.824,88.203L66.118,83.516L71.531,83.516Z" style="fill:#5A9BD4" />
<path d="M76.888,88.203L74.181,83.516L79.594,83.516Z" style="fill:#5A9BD4" />
<path d="M84.951,88.203L82.245,83.516L87.657,83.516Z" style="fill:#5A9BD4" />
<path d="M93.014,88.203L90.308,83.516L95.72,83.516Z" style="fill:#5A9BD4" />
<path d="M101.08,88.203L98.371,83.516L103.78,83.516Z" style="fill:#5A9BD4" />
<path d="M109.14,88.203L106.43,83.516L111.85,83.516Z" style="fill:#5A9BD4" />
<path d="M117.2,88.203L114.5,83.516L119.91,83.516Z" style="fill:#5A9BD4" />
<path d="M125.27,88.203L122.56,83.516L127.97,83.516Z" style="fill:#5A9BD4" />
<path d="M133.33,88.203L130.62,83.516L136.04,83.516Z" style="fill:#5A9BD4" />
<path d="M141.39,88.203L138.69,83.516L144.1,83.516Z" style="fill:#5A9BD4" />
<path d="M149.46,88.203L146.75,83.516L152.16,83.516Z" style="fill:#5A9BD4" />
<path d="M157.52,88.203L154.81,83.516L160.23,83.516Z" style="fill:#5A9BD4" />
<path d="M165.58,88.203L162.88,83.516L168.29,83.516Z" style="fill:#5A9BD4" />
<path d="M173.65,88.203L170.94,83.516L176.35,83.516Z" style="fill:#5A9BD4" />
<path d="M181.71,88.203L179,83.516L184.42,83.516Z" style="fill:#5A9BD4" />
<path d="M189.77,88.203L187.07,83.516L192.48,83.516Z" style="fill:#5A9BD4" />
<path d="M197.84,88.203L195.13,83.516L200.54,83.516Z" style="fill:#5A9BD4" />
<path d="M205.9,88.203L203.19,83.516L208.61,83.516Z" style="fill:#5A9BD4" />
<path d="M213.96,88.203L211.26,83.516L216.67,83.516Z" style="fill:#5A9BD4" />
<path d="M222.03,130.57L219.32,125.88L224.73,125.88Z" style="fill:#5A9BD4" />
<path d="M230.09,130.57L227.38,125.88L232.8,125.88Z" style="fill:#5A9BD4" />
<path d="M238.15,130.57L235.45,125.88L240.86,125.88Z" style="fill:#5A9BD4" />
<path d="M246.22,130.57L243.51,125.88L248.92,125.88Z" style="fill:#5A9BD4" />
<path d="M254.28,130.57L251.57,125.88L256.98,125.88Z" style="fill:#5A9BD4" />
<path d="M262.34,130.57L259.64,125.88L265.05,125.88Z" style="fill:#5A9BD4" />
<path d="M270.4,130.57L267.7,125.88L273.11,125.88Z" style="fill:#5A9BD4" />
<path d="M278.47,130.57L275.76,125.88L281.17,125.88Z" style="fill:#5A9BD4" />
<path d="M286.53,130.57L283.83,125.88L289.24,125.88Z" style="fill:#5A9BD4" />
<path d="M294.59,130.57L291.89,125.88L297.3,125.88Z" style="fill:#5A9BD4" />
<path d="M302.66,130.57L299.95,125.88L305.36,125.88Z" style="fill:#5A9BD4" />
<path d="M310.72,130.57L308.01,125.88L313.43,125.88Z" style="fill:#5A9BD4" />
<path d="M318.78,130.57L316.08,125.88L321.49,125.88Z" style="fill:#5A9BD4" />
<path d="M326.85,130.57L324.14,125.88L329.55,125.88Z" style="fill:#5A9BD4" />
<path d="M334.91,130.57L332.2,125.88L337.62,125.88Z" style="fill:#5A9BD4" />
<path d="M342.97,130.57L340.27,125.88L345.68,125.88Z" style="fill:#5A9BD4" />
<path d="M351.04,130.57L348.33,125.88L353.74,125.88Z" style="fill:#5A9BD4" />
<path d="M359.1,130.57L356.39,125.88L361.81,125.88Z" style="fill:#5A9BD4" />
<path d="M367.16,130.57L364.46,125.88L369.87,125.88Z" style="fill:#5A9BD4" />
<path d="M375.23,130.57L372.52,125.88L377.93,125.88Z" style="fill:#5A9BD4" />
<path d="M383.29,130.57L380.58,125.88L386,125.88Z" style="fill:#5A9BD4" />
<path d="M391.35,130.57L388.65,125.88L394.06,125.88Z" style="fill:#5A9BD4" />
<path d="M399.42,130.57L396.71,125.88L402.12,125.88Z" style="fill:#5A9BD4" />
<path d="M407.48,130.57L404.77,125.88L410.19,125.88Z" style="fill:#5A9BD4" />
<path d="M415.54,130.57L412.84,125.88L418.25,125.88Z" style="fill:#5A9BD4" />
<path d="M423.61,130.57L420.9,125.88L426.31,125.88Z" style="fill:#5A9BD4" />
<path d="M431.67,130.57L428.96,125.88L434.38,125.88Z" style="fill:#5A9BD4" />
<path d="M439.73,130.57L437.03,125.88L442.44,125.88Z" style="fill:#5A9BD4" />
<path d="M447.8,130.57L445.09,125.88L450.5,125.88Z" style="fill:#5A9BD4" />
<path d="M455.86,130.57L453.15,125.88L458.57,125.88Z" style="fill:#5A9BD4" />
<path d="M463.92,130.57L461.22,125.88L466.63,125.88Z" style="fill:#5A9BD4" />
<path d="M471.99,130.57L469.28,125.88L474.69,125.88Z" style="fill:#5A9BD4" />
<path d="M480.05,130.57L477.34,125.88L482.76,125.88Z" style="fill:#5A9BD4" />
<path d="M488.11,130.57L485.41,125.88L490.82,125.88Z" style="fill:#5A9BD4" />
<path d="M496.18,130.57L493.47,125.88L498.88,125.88Z" style="fill:#5A9BD4" />
<path d="M504.24,130.57L501.53,125.88L506.94,125.88Z" style="fill:#5A9BD4" />
<path d="M512.3,130.57L509.6,125.88L515.01,125.88Z" style="fill:#5A9BD4" />
<path d="M520.36,130.57L517.66,125.88L523.07,125.88Z" style="fill:#5A9BD4" />
<path d="M528.43,130.57L525.72,125.88L531.13,125.88Z" style="fill:#5A9BD4" />
<path d="M536.49,130.57L533.78,125.88L539.2,125.88Z" style="fill:#5A9BD4" />
<path d="M544.55,130.57L541.85,125.88L547.26,125.88Z" style="fill:#5A9BD4" />
<path d="M552.62,130.57L549.91,125.88L555.32,125.88Z" style="fill:#5A9BD4" />
<path d="M560.68,130.57L557.97,125.88L563.39,125.88Z" style="fill:#5A9BD4" />
<path d="M568.74,130.57L566.04,125.88L571.45,125.88Z" style="fill:#5A9BD4" />
<path d="M576.81,130.57L574.1,125.88L579.51,125.88Z" style="fill:#5A9BD4" />
<path d="M584.87,130.57L582.16,125.88L587.58,125.88Z" style="fill:#5A9BD4" />
<path d="M592.93,130.57L590.23,125.88L595.64,125.88Z" style="fill:#5A9BD4" />
<path d="M601,130.57L598.29,125.88L603.7,125.88Z" style="fill:#5A9BD4" />
<path d="M609.06,130.57L606.35,125.88L611.77,125.88Z" style="fill:#5A9BD4" />
<path d="M617.12,130.57L614.42,125.88L619.83,125.88Z" style="fill:#5A9BD4" />
<path d="M625.19,172.94L622.48,168.25L627.89,168.25Z" style="fill:#5A9BD4" />
<path d="M633.25,172.94L630.54,168.25L635.96,168.25Z" style="fill:#5A9BD4" />
<path d="M641.31,172.94L638.61,168.25L644.02,168.25Z" style="fill:#5A9BD4" />
<path d="M649.38,172.94L646.67,168.25L652.08,168.25Z" style="fill:#5A9BD4" />
<path d="M657.44,172.94L654.73,168.25L660.15,168.25Z" style="fill:#5A9BD4" />
<path d="M665.5,172.94L662.8,168.25L668.21,168.25Z" style="fill:#5A9BD4" />
<path d="M673.57,172.94L670.86,168.25L676.27,168.25Z" style="fill:#5A9BD4" />
<path d="M681.63,172.94L678.92,168.25L684.34,168.25Z" style="fill:#5A9BD4" />
<path d="M689.69,172.94L686.99,168.25L692.4,168.25Z" style="fill:#5A9BD4" />
<path d="M697.76,172.94L695.05,168.25L700.46,168.25Z" style="fill:#5A9BD4" />
<path d="M705.82,172.94L703.11,168.25L708.53,168.25Z" style="fill:#5A9BD4" />
<path d="M713.88,172.94L711.18,168.25L716.59,168.25Z" style="fill:#5A9BD4" />
<path d="M721.95,172.94L719.24,168.25L724.65,168.25Z" style="fill:#5A9BD4" />
<path d="M730.01,172.94L727.3,168.25L732.71,168.25Z" style="fill:#5A9BD4" />
<path d="M738.07,172.94L735.37,168.25L740.78,168.25Z" style="fill:#5A9BD4" />
<path d="M746.14,172.94L743.43,168.25L748.84,168.25Z" style="fill:#5A9BD4" />
<path d="M754.2,172.94L751.49,168.25L756.9,168.25Z" style="fill:#5A9BD4" />
<path d="M762.26,172.94L759.56,168.25L764.97,168.25Z" style="fill:#5A9BD4" />
<path d="M770.32,172.94L767.62,168.25L773.03,168.25Z" style="fill:#5A9BD4" />
<path d="M778.39,172.94L775.68,168.25L781.09,168.25Z" style="fill:#5A9BD4" />
<path d="M786.45,172.94L783.74,168.25L789.16,168.25Z" style="fill:#5A9BD4" />
<path d="M794.51,172.94L791.81,168.25L797.22,168.25Z" style="fill:#5A9BD4" />
<path d="M802.58,172.94L799.87,168.25L805.28,168.25Z" style="fill:#5A9BD4" />
<path d="M810.64,172.94L807.93,168.25L813.35,168.25Z" style="fill:#5A9BD4" />
<path d="M818.7,215.31L816,210.62L821.41,210.62Z" style="fill:#5A9BD4" />
<path d="M826.77,215.31L824.06,210.62L829.47,210.62Z" style="fill:#5A9BD4" />
<path d="M834.83,300.05L832.12,295.36L837.54,295.36Z" style="fill:#5A9BD4" />
<path d="M842.89,554.27L840.19,549.58L845.6,549.58Z" style="fill:#5A9BD4" />
<path d="M830.39,45.301L850.39,45.301" style="fill:none;stroke:#5A9BD4" />
<path d="M840.39,48.426L837.69,43.738L843.1,43.738Z" style="fill:#5A9BD4" />
<text x="763.42" y="-42.813" transform="scale(1, -1)"
	style="font-family:Liberation Serif;font-variant:normal;font-weight:normal;font-style:normal;font-size:12px">to-fronted-up</text>
</g>
</svg>
