<?xml version="1.0"?>
<!-- Generated by SVGo and Plotinum VG -->
<svg width="850.39pt" height="566.93pt" viewBox="0 0 850.39 566.93"
	xmlns="http://www.w3.org/2000/svg"
	xmlns:xlink="http://www.w3.org/1999/xlink">
<g transform="scale(1, -1) translate(0, -566.93)">
<path d="M0,0L850.39,0L850.39,566.93L0,566.93Z" style="fill:#FFFFFF" />
<text x="236.55" y="-557.54" transform="scale(1, -1)"
	style="font-family:Liberation Serif;font-variant:normal;font-weight:normal;font-style:normal;font-size:12px">Percentiles - FrontEndUp (Nearest Rank): regular-localhost-zeroload-emptydb</text>
<text x="426.03" y="-3.9023" transform="scale(1, -1)"
	style="font-family:Liberation Serif;font-variant:normal;font-weight:normal;font-style:normal;font-size:12px">Percentile</text>
<text x="202.94" y="-16.541" transform="scale(1, -1)"
	style="font-family:Liberation Serif;font-variant:normal;font-weight:normal;font-style:normal;font-size:10px">20</text>
<text x="520.42" y="-16.541" transform="scale(1, -1)"
	style="font-family:Liberation Serif;font-variant:normal;font-weight:normal;font-style:normal;font-size:10px">60</text>
<text x="835.39" y="-16.541" transform="scale(1, -1)"
	style="font-family:Liberation Serif;font-variant:normal;font-weight:normal;font-style:normal;font-size:10px">100</text>
<path d="M207.94,24.363L207.94,32.363" style="fill:none;stroke:#000000;stroke-width:0.5" />
<path d="M525.42,24.363L525.42,32.363" style="fill:none;stroke:#000000;stroke-width:0.5" />
<path d="M842.89,24.363L842.89,32.363" style="fill:none;stroke:#000000;stroke-width:0.5" />
<path d="M128.57,28.363L128.57,32.363" style="fill:none;stroke:#000000;stroke-width:0.5" />
<path d="M287.31,28.363L287.31,32.363" style="fill:none;stroke:#000000;stroke-width:0.5" />
<path d="M366.68,28.363L366.68,32.363" style="fill:none;stroke:#000000;stroke-width:0.5" />
<path d="M446.05,28.363L446.05,32.363" style="fill:none;stroke:#000000;stroke-width:0.5" />
<path d="M604.78,28.363L604.78,32.363" style="fill:none;stroke:#000000;stroke-width:0.5" />
<path d="M684.15,28.363L684.15,32.363" style="fill:none;stroke:#000000;stroke-width:0.5" />
<path d="M763.52,28.363L763.52,32.363" style="fill:none;stroke:#000000;stroke-width:0.5" />
<path d="M57.135,32.363L842.89,32.363" style="fill:none;stroke:#000000;stroke-width:0.5" />
<g transform="rotate(90)">
<text x="265.43" y="9.3867" transform="scale(1, -1)"
	style="font-family:Liberation Serif;font-variant:normal;font-weight:normal;font-style:normal;font-size:12px">Duration: ms</text>
</g>
<text x="15.885" y="-82.793" transform="scale(1, -1)"
	style="font-family:Liberation Serif;font-variant:normal;font-weight:normal;font-style:normal;font-size:10px">62.50</text>
<text x="15.885" y="-294.64" transform="scale(1, -1)"
	style="font-family:Liberation Serif;font-variant:normal;font-weight:normal;font-style:normal;font-size:10px">70.00</text>
<text x="15.885" y="-506.49" transform="scale(1, -1)"
	style="font-family:Liberation Serif;font-variant:normal;font-weight:normal;font-style:normal;font-size:10px">77.50</text>
<path d="M40.885,85.078L48.885,85.078" style="fill:none;stroke:#000000;stroke-width:0.5" />
<path d="M40.885,296.92L48.885,296.92" style="fill:none;stroke:#000000;stroke-width:0.5" />
<path d="M40.885,508.77L48.885,508.77" style="fill:none;stroke:#000000;stroke-width:0.5" />
<path d="M44.885,191L48.885,191" style="fill:none;stroke:#000000;stroke-width:0.5" />
<path d="M44.885,402.85L48.885,402.85" style="fill:none;stroke:#000000;stroke-width:0.5" />
<path d="M48.885,42.709L48.885,551.14" style="fill:none;stroke:#000000;stroke-width:0.5" />
<path d="M207.94,42.709L207.94,551.14" style="fill:none;stroke:#808080;stroke-width:0.25" />
<path d="M525.42,42.709L525.42,551.14" style="fill:none;stroke:#808080;stroke-width:0.25" />
<path d="M842.89,42.709L842.89,551.14" style="fill:none;stroke:#808080;stroke-width:0.25" />
<path d="M57.135,85.078L842.89,85.078" style="fill:none;stroke:#808080;stroke-width:0.25" />
<path d="M57.135,296.92L842.89,296.92" style="fill:none;stroke:#808080;stroke-width:0.25" />
<path d="M57.135,508.77L842.89,508.77" style="fill:none;stroke:#808080;stroke-width:0.25" />
<path d="M57.135,42.709L65.072,42.709L73.009,42.709L80.946,70.955L88.883,70.955L96.82,70.955L104.76,70.955L112.69,70.955L120.63,99.201L128.57,99.201L136.5,99.201L144.44,99.201L152.38,99.201L160.32,99.201L168.25,99.201L176.19,127.45L184.13,127.45L192.06,127.45L200,127.45L207.94,127.45L215.87,127.45L223.81,127.45L231.75,127.45L239.68,127.45L247.62,127.45L255.56,127.45L263.5,127.45L271.43,127.45L279.37,127.45L287.31,127.45L295.24,127.45L303.18,127.45L311.12,155.69L319.05,155.69L326.99,155.69L334.93,155.69L342.87,155.69L350.8,155.69L358.74,155.69L366.68,155.69L374.61,155.69L382.55,155.69L390.49,155.69L398.42,155.69L406.36,155.69L414.3,155.69L422.23,155.69L430.17,155.69L438.11,155.69L446.05,155.69L453.98,155.69L461.92,183.94L469.86,183.94L477.79,183.94L485.73,183.94L493.67,183.94L501.6,183.94L509.54,183.94L517.48,183.94L525.42,183.94L533.35,212.19L541.29,212.19L549.23,212.19L557.16,212.19L565.1,240.43L573.04,240.43L580.97,240.43L588.91,240.43L596.85,240.43L604.78,240.43L612.72,240.43L620.66,268.68L628.6,268.68L636.53,268.68L644.47,268.68L652.41,296.92L660.34,296.92L668.28,296.92L676.22,296.92L684.15,296.92L692.09,325.17L700.03,325.17L707.97,353.42L715.9,381.66L723.84,381.66L731.78,381.66L739.71,409.91L747.65,409.91L755.59,409.91L763.52,409.91L771.46,438.16L779.4,438.16L787.33,466.4L795.27,466.4L803.21,466.4L811.15,466.4L819.08,494.65L827.02,494.65L834.96,551.14L842.89,551.14" style="fill:none;stroke:#7AC36A" />
<path d="M57.135,45.834L54.428,41.146L59.841,41.146Z" style="fill:#7AC36A" />
<path d="M65.072,45.834L62.365,41.146L67.778,41.146Z" style="fill:#7AC36A" />
<path d="M73.009,45.834L70.302,41.146L75.715,41.146Z" style="fill:#7AC36A" />
<path d="M80.946,74.08L78.239,69.393L83.652,69.393Z" style="fill:#7AC36A" />
<path d="M88.883,74.08L86.176,69.393L91.589,69.393Z" style="fill:#7AC36A" />
<path d="M96.82,74.08L94.113,69.393L99.526,69.393Z" style="fill:#7AC36A" />
<path d="M104.76,74.08L102.05,69.393L107.46,69.393Z" style="fill:#7AC36A" />
<path d="M112.69,74.08L109.99,69.393L115.4,69.393Z" style="fill:#7AC36A" />
<path d="M120.63,102.33L117.92,97.639L123.34,97.639Z" style="fill:#7AC36A" />
<path d="M128.57,102.33L125.86,97.639L131.27,97.639Z" style="fill:#7AC36A" />
<path d="M136.5,102.33L133.8,97.639L139.21,97.639Z" style="fill:#7AC36A" />
<path d="M144.44,102.33L141.73,97.639L147.15,97.639Z" style="fill:#7AC36A" />
<path d="M152.38,102.33L149.67,97.639L155.08,97.639Z" style="fill:#7AC36A" />
<path d="M160.32,102.33L157.61,97.639L163.02,97.639Z" style="fill:#7AC36A" />
<path d="M168.25,102.33L165.55,97.639L170.96,97.639Z" style="fill:#7AC36A" />
<path d="M176.19,130.57L173.48,125.88L178.9,125.88Z" style="fill:#7AC36A" />
<path d="M184.13,130.57L181.42,125.88L186.83,125.88Z" style="fill:#7AC36A" />
<path d="M192.06,130.57L189.36,125.88L194.77,125.88Z" style="fill:#7AC36A" />
<path d="M200,130.57L197.29,125.88L202.71,125.88Z" style="fill:#7AC36A" />
<path d="M207.94,130.57L205.23,125.88L210.64,125.88Z" style="fill:#7AC36A" />
<path d="M215.87,130.57L213.17,125.88L218.58,125.88Z" style="fill:#7AC36A" />
<path d="M223.81,130.57L221.1,125.88L226.52,125.88Z" style="fill:#7AC36A" />
<path d="M231.75,130.57L229.04,125.88L234.45,125.88Z" style="fill:#7AC36A" />
<path d="M239.68,130.57L236.98,125.88L242.39,125.88Z" style="fill:#7AC36A" />
<path d="M247.62,130.57L244.92,125.88L250.33,125.88Z" style="fill:#7AC36A" />
<path d="M255.56,130.57L252.85,125.88L258.27,125.88Z" style="fill:#7AC36A" />
<path d="M263.5,130.57L260.79,125.88L266.2,125.88Z" style="fill:#7AC36A" />
<path d="M271.43,130.57L268.73,125.88L274.14,125.88Z" style="fill:#7AC36A" />
<path d="M279.37,130.57L276.66,125.88L282.08,125.88Z" style="fill:#7AC36A" />
<path d="M287.31,130.57L284.6,125.88L290.01,125.88Z" style="fill:#7AC36A" />
<path d="M295.24,130.57L292.54,125.88L297.95,125.88Z" style="fill:#7AC36A" />
<path d="M303.18,130.57L300.47,125.88L305.89,125.88Z" style="fill:#7AC36A" />
<path d="M311.12,158.82L308.41,154.13L313.82,154.13Z" style="fill:#7AC36A" />
<path d="M319.05,158.82L316.35,154.13L321.76,154.13Z" style="fill:#7AC36A" />
<path d="M326.99,158.82L324.29,154.13L329.7,154.13Z" style="fill:#7AC36A" />
<path d="M334.93,158.82L332.22,154.13L337.63,154.13Z" style="fill:#7AC36A" />
<path d="M342.87,158.82L340.16,154.13L345.57,154.13Z" style="fill:#7AC36A" />
<path d="M350.8,158.82L348.1,154.13L353.51,154.13Z" style="fill:#7AC36A" />
<path d="M358.74,158.82L356.03,154.13L361.45,154.13Z" style="fill:#7AC36A" />
<path d="M366.68,158.82L363.97,154.13L369.38,154.13Z" style="fill:#7AC36A" />
<path d="M374.61,158.82L371.91,154.13L377.32,154.13Z" style="fill:#7AC36A" />
<path d="M382.55,158.82L379.84,154.13L385.26,154.13Z" style="fill:#7AC36A" />
<path d="M390.49,158.82L387.78,154.13L393.19,154.13Z" style="fill:#7AC36A" />
<path d="M398.42,158.82L395.72,154.13L401.13,154.13Z" style="fill:#7AC36A" />
<path d="M406.36,158.82L403.65,154.13L409.07,154.13Z" style="fill:#7AC36A" />
<path d="M414.3,158.82L411.59,154.13L417,154.13Z" style="fill:#7AC36A" />
<path d="M422.23,158.82L419.53,154.13L424.94,154.13Z" style="fill:#7AC36A" />
<path d="M430.17,158.82L427.47,154.13L432.88,154.13Z" style="fill:#7AC36A" />
<path d="M438.11,158.82L435.4,154.13L440.82,154.13Z" style="fill:#7AC36A" />
<path d="M446.05,158.82L443.34,154.13L448.75,154.13Z" style="fill:#7AC36A" />
<path d="M453.98,158.82L451.28,154.13L456.69,154.13Z" style="fill:#7AC36A" />
<path d="M461.92,187.06L459.21,182.38L464.63,182.38Z" style="fill:#7AC36A" />
<path d="M469.86,187.06L467.15,182.38L472.56,182.38Z" style="fill:#7AC36A" />
<path d="M477.79,187.06L475.09,182.38L480.5,182.38Z" style="fill:#7AC36A" />
<path d="M485.73,187.06L483.02,182.38L488.44,182.38Z" style="fill:#7AC36A" />
<path d="M493.67,187.06L490.96,182.38L496.37,182.38Z" style="fill:#7AC36A" />
<path d="M501.6,187.06L498.9,182.38L504.31,182.38Z" style="fill:#7AC36A" />
<path d="M509.54,187.06L506.84,182.38L512.25,182.38Z" style="fill:#7AC36A" />
<path d="M517.48,187.06L514.77,182.38L520.18,182.38Z" style="fill:#7AC36A" />
<path d="M525.42,187.06L522.71,182.38L528.12,182.38Z" style="fill:#7AC36A" />
<path d="M533.35,215.31L530.65,210.62L536.06,210.62Z" style="fill:#7AC36A" />
<path d="M541.29,215.31L538.58,210.62L544,210.62Z" style="fill:#7AC36A" />
<path d="M549.23,215.31L546.52,210.62L551.93,210.62Z" style="fill:#7AC36A" />
<path d="M557.16,215.31L554.46,210.62L559.87,210.62Z" style="fill:#7AC36A" />
<path d="M565.1,243.56L562.39,238.87L567.81,238.87Z" style="fill:#7AC36A" />
<path d="M573.04,243.56L570.33,238.87L575.74,238.87Z" style="fill:#7AC36A" />
<path d="M580.97,243.56L578.27,238.87L583.68,238.87Z" style="fill:#7AC36A" />
<path d="M588.91,243.56L586.2,238.87L591.62,238.87Z" style="fill:#7AC36A" />
<path d="M596.85,243.56L594.14,238.87L599.55,238.87Z" style="fill:#7AC36A" />
<path d="M604.78,243.56L602.08,238.87L607.49,238.87Z" style="fill:#7AC36A" />
<path d="M612.72,243.56L610.02,238.87L615.43,238.87Z" style="fill:#7AC36A" />
<path d="M620.66,271.8L617.95,267.12L623.37,267.12Z" style="fill:#7AC36A" />
<path d="M628.6,271.8L625.89,267.12L631.3,267.12Z" style="fill:#7AC36A" />
<path d="M636.53,271.8L633.83,267.12L639.24,267.12Z" style="fill:#7AC36A" />
<path d="M644.47,271.8L641.76,267.12L647.18,267.12Z" style="fill:#7AC36A" />
<path d="M652.41,300.05L649.7,295.36L655.11,295.36Z" style="fill:#7AC36A" />
<path d="M660.34,300.05L657.64,295.36L663.05,295.36Z" style="fill:#7AC36A" />
<path d="M668.28,300.05L665.57,295.36L670.99,295.36Z" style="fill:#7AC36A" />
<path d="M676.22,300.05L673.51,295.36L678.92,295.36Z" style="fill:#7AC36A" />
<path d="M684.15,300.05L681.45,295.36L686.86,295.36Z" style="fill:#7AC36A" />
<path d="M692.09,328.3L689.39,323.61L694.8,323.61Z" style="fill:#7AC36A" />
<path d="M700.03,328.3L697.32,323.61L702.73,323.61Z" style="fill:#7AC36A" />
<path d="M707.97,356.54L705.26,351.85L710.67,351.85Z" style="fill:#7AC36A" />
<path d="M715.9,384.79L713.2,380.1L718.61,380.1Z" style="fill:#7AC36A" />
<path d="M723.84,384.79L721.13,380.1L726.55,380.1Z" style="fill:#7AC36A" />
<path d="M731.78,384.79L729.07,380.1L734.48,380.1Z" style="fill:#7AC36A" />
<path d="M739.71,413.03L737.01,408.35L742.42,408.35Z" style="fill:#7AC36A" />
<path d="M747.65,413.03L744.94,408.35L750.36,408.35Z" style="fill:#7AC36A" />
<path d="M755.59,413.03L752.88,408.35L758.29,408.35Z" style="fill:#7AC36A" />
<path d="M763.52,413.03L760.82,408.35L766.23,408.35Z" style="fill:#7AC36A" />
<path d="M771.46,441.28L768.75,436.59L774.17,436.59Z" style="fill:#7AC36A" />
<path d="M779.4,441.28L776.69,436.59L782.1,436.59Z" style="fill:#7AC36A" />
<path d="M787.33,469.53L784.63,464.84L790.04,464.84Z" style="fill:#7AC36A" />
<path d="M795.27,469.53L792.57,464.84L797.98,464.84Z" style="fill:#7AC36A" />
<path d="M803.21,469.53L800.5,464.84L805.92,464.84Z" style="fill:#7AC36A" />
<path d="M811.15,469.53L808.44,464.84L813.85,464.84Z" style="fill:#7AC36A" />
<path d="M819.08,497.77L816.38,493.09L821.79,493.09Z" style="fill:#7AC36A" />
<path d="M827.02,497.77L824.31,493.09L829.73,493.09Z" style="fill:#7AC36A" />
<path d="M834.96,554.27L832.25,549.58L837.66,549.58Z" style="fill:#7AC36A" />
<path d="M842.89,554.27L840.19,549.58L845.6,549.58Z" style="fill:#7AC36A" />
<path d="M830.39,45.301L850.39,45.301" style="fill:none;stroke:#7AC36A" />
<path d="M840.39,48.426L837.69,43.738L843.1,43.738Z" style="fill:#7AC36A" />
<text x="763.42" y="-42.813" transform="scale(1, -1)"
	style="font-family:Liberation Serif;font-variant:normal;font-weight:normal;font-style:normal;font-size:12px">to-fronted-up</text>
</g>
</svg>
