<?xml version="1.0"?>
<!-- Generated by SVGo and Plotinum VG -->
<svg width="850.39pt" height="566.93pt" viewBox="0 0 850.39 566.93"
	xmlns="http://www.w3.org/2000/svg"
	xmlns:xlink="http://www.w3.org/1999/xlink">
<g transform="scale(1, -1) translate(0, -566.93)">
<path d="M0,0L850.39,0L850.39,566.93L0,566.93Z" style="fill:#FFFFFF" />
<text x="234.42" y="-557.54" transform="scale(1, -1)"
	style="font-family:Liberation Serif;font-variant:normal;font-weight:normal;font-style:normal;font-size:12px">Percentiles - FrontEndUp (Nearest Rank): segfault-localhost-zeroload-emptydb</text>
<text x="427.28" y="-3.9023" transform="scale(1, -1)"
	style="font-family:Liberation Serif;font-variant:normal;font-weight:normal;font-style:normal;font-size:12px">Percentile</text>
<text x="204.96" y="-16.541" transform="scale(1, -1)"
	style="font-family:Liberation Serif;font-variant:normal;font-weight:normal;font-style:normal;font-size:10px">20</text>
<text x="521.43" y="-16.541" transform="scale(1, -1)"
	style="font-family:Liberation Serif;font-variant:normal;font-weight:normal;font-style:normal;font-size:10px">60</text>
<text x="835.39" y="-16.541" transform="scale(1, -1)"
	style="font-family:Liberation Serif;font-variant:normal;font-weight:normal;font-style:normal;font-size:10px">100</text>
<path d="M209.96,24.363L209.96,32.363" style="fill:none;stroke:#000000;stroke-width:0.5" />
<path d="M526.43,24.363L526.43,32.363" style="fill:none;stroke:#000000;stroke-width:0.5" />
<path d="M842.89,24.363L842.89,32.363" style="fill:none;stroke:#000000;stroke-width:0.5" />
<path d="M130.84,28.363L130.84,32.363" style="fill:none;stroke:#000000;stroke-width:0.5" />
<path d="M289.07,28.363L289.07,32.363" style="fill:none;stroke:#000000;stroke-width:0.5" />
<path d="M368.19,28.363L368.19,32.363" style="fill:none;stroke:#000000;stroke-width:0.5" />
<path d="M447.31,28.363L447.31,32.363" style="fill:none;stroke:#000000;stroke-width:0.5" />
<path d="M605.54,28.363L605.54,32.363" style="fill:none;stroke:#000000;stroke-width:0.5" />
<path d="M684.66,28.363L684.66,32.363" style="fill:none;stroke:#000000;stroke-width:0.5" />
<path d="M763.78,28.363L763.78,32.363" style="fill:none;stroke:#000000;stroke-width:0.5" />
<path d="M59.635,32.363L842.89,32.363" style="fill:none;stroke:#000000;stroke-width:0.5" />
<g transform="rotate(90)">
<text x="265.43" y="9.3867" transform="scale(1, -1)"
	style="font-family:Liberation Serif;font-variant:normal;font-weight:normal;font-style:normal;font-size:12px">Duration: ms</text>
</g>
<text x="15.885" y="-123.68" transform="scale(1, -1)"
	style="font-family:Liberation Serif;font-variant:normal;font-weight:normal;font-style:normal;font-size:10px">10000</text>
<text x="15.885" y="-297.91" transform="scale(1, -1)"
	style="font-family:Liberation Serif;font-variant:normal;font-weight:normal;font-style:normal;font-size:10px">20000</text>
<text x="15.885" y="-472.13" transform="scale(1, -1)"
	style="font-family:Liberation Serif;font-variant:normal;font-weight:normal;font-style:normal;font-size:10px">30000</text>
<path d="M43.385,125.97L51.385,125.97" style="fill:none;stroke:#000000;stroke-width:0.5" />
<path d="M43.385,300.19L51.385,300.19" style="fill:none;stroke:#000000;stroke-width:0.5" />
<path d="M43.385,474.41L51.385,474.41" style="fill:none;stroke:#000000;stroke-width:0.5" />
<path d="M47.385,56.281L51.385,56.281" style="fill:none;stroke:#000000;stroke-width:0.5" />
<path d="M47.385,91.125L51.385,91.125" style="fill:none;stroke:#000000;stroke-width:0.5" />
<path d="M47.385,160.81L51.385,160.81" style="fill:none;stroke:#000000;stroke-width:0.5" />
<path d="M47.385,195.66L51.385,195.66" style="fill:none;stroke:#000000;stroke-width:0.5" />
<path d="M47.385,230.5L51.385,230.5" style="fill:none;stroke:#000000;stroke-width:0.5" />
<path d="M47.385,265.35L51.385,265.35" style="fill:none;stroke:#000000;stroke-width:0.5" />
<path d="M47.385,335.04L51.385,335.04" style="fill:none;stroke:#000000;stroke-width:0.5" />
<path d="M47.385,369.88L51.385,369.88" style="fill:none;stroke:#000000;stroke-width:0.5" />
<path d="M47.385,404.72L51.385,404.72" style="fill:none;stroke:#000000;stroke-width:0.5" />
<path d="M47.385,439.57L51.385,439.57" style="fill:none;stroke:#000000;stroke-width:0.5" />
<path d="M47.385,509.26L51.385,509.26" style="fill:none;stroke:#000000;stroke-width:0.5" />
<path d="M47.385,544.1L51.385,544.1" style="fill:none;stroke:#000000;stroke-width:0.5" />
<path d="M51.385,42.709L51.385,551.14" style="fill:none;stroke:#000000;stroke-width:0.5" />
<path d="M209.96,42.709L209.96,551.14" style="fill:none;stroke:#808080;stroke-width:0.25" />
<path d="M526.43,42.709L526.43,551.14" style="fill:none;stroke:#808080;stroke-width:0.25" />
<path d="M842.89,42.709L842.89,551.14" style="fill:none;stroke:#808080;stroke-width:0.25" />
<path d="M59.635,125.97L842.89,125.97" style="fill:none;stroke:#808080;stroke-width:0.25" />
<path d="M59.635,300.19L842.89,300.19" style="fill:none;stroke:#808080;stroke-width:0.25" />
<path d="M59.635,474.41L842.89,474.41" style="fill:none;stroke:#808080;stroke-width:0.25" />
<path d="M59.635,42.709L67.546,52.413L75.458,74.609L83.37,76.072L91.282,92.955L99.193,99.801L107.11,105.93L115.02,111.16L122.93,116.84L130.84,117.43L138.75,118.9L146.66,123.98L154.58,124.18L162.49,128.34L170.4,131.11L178.31,133.95L186.22,140.48L194.13,141.44L202.05,144.47L209.96,146.82L217.87,148.18L225.78,148.32L233.69,151.18L241.6,151.89L249.52,153.69L257.43,159.05L265.34,162.49L273.25,165.6L281.16,170.76L289.07,172.38L296.99,178.53L304.9,179.82L312.81,181.25L320.72,181.55L328.63,190.43L336.54,191.06L344.46,191.83L352.37,198.46L360.28,200.61L368.19,201.02L376.1,204.28L384.01,205.55L391.93,206.74L399.84,207.26L407.75,207.63L415.66,209.14L423.57,210.33L431.48,210.59L439.4,212.16L447.31,213.27L455.22,213.46L463.13,225.26L471.04,226.69L478.96,227.91L486.87,228.03L494.78,231.77L502.69,232.73L510.6,235.29L518.51,238.08L526.43,246.41L534.34,251.6L542.25,258.29L550.16,258.4L558.07,259.42L565.98,259.77L573.9,260.5L581.81,261.11L589.72,262.42L597.63,263.2L605.54,264.93L613.45,266.36L621.37,266.67L629.28,266.97L637.19,267.61L645.1,267.7L653.01,268.87L660.92,269.51L668.84,271.55L676.75,271.62L684.66,272.19L692.57,282.16L700.48,282.54L708.39,286.74L716.31,291.51L724.22,296.62L732.13,298.36L740.04,299.23L747.95,299.6L755.86,303.47L763.78,304.11L771.69,310.92L779.6,319.09L787.51,328.9L795.42,343.89L803.34,347.44L811.25,358.15L819.16,359.06L827.07,395.42L834.98,443.94L842.89,551.14" style="fill:none;stroke:#7AC36A" />
<path d="M59.635,45.834L56.928,41.146L62.341,41.146Z" style="fill:#7AC36A" />
<path d="M67.546,55.538L64.84,50.851L70.253,50.851Z" style="fill:#7AC36A" />
<path d="M75.458,77.734L72.752,73.046L78.165,73.046Z" style="fill:#7AC36A" />
<path d="M83.37,79.197L80.664,74.51L86.076,74.51Z" style="fill:#7AC36A" />
<path d="M91.282,96.08L88.575,91.392L93.988,91.392Z" style="fill:#7AC36A" />
<path d="M99.193,102.93L96.487,98.239L101.9,98.239Z" style="fill:#7AC36A" />
<path d="M107.11,109.06L104.4,104.37L109.81,104.37Z" style="fill:#7AC36A" />
<path d="M115.02,114.29L112.31,109.6L117.72,109.6Z" style="fill:#7AC36A" />
<path d="M122.93,119.97L120.22,115.28L125.63,115.28Z" style="fill:#7AC36A" />
<path d="M130.84,120.56L128.13,115.87L133.55,115.87Z" style="fill:#7AC36A" />
<path d="M138.75,122.02L136.05,117.33L141.46,117.33Z" style="fill:#7AC36A" />
<path d="M146.66,127.11L143.96,122.42L149.37,122.42Z" style="fill:#7AC36A" />
<path d="M154.58,127.3L151.87,122.61L157.28,122.61Z" style="fill:#7AC36A" />
<path d="M162.49,131.46L159.78,126.78L165.19,126.78Z" style="fill:#7AC36A" />
<path d="M170.4,134.23L167.69,129.55L173.1,129.55Z" style="fill:#7AC36A" />
<path d="M178.31,137.07L175.6,132.39L181.02,132.39Z" style="fill:#7AC36A" />
<path d="M186.22,143.61L183.52,138.92L188.93,138.92Z" style="fill:#7AC36A" />
<path d="M194.13,144.57L191.43,139.88L196.84,139.88Z" style="fill:#7AC36A" />
<path d="M202.05,147.6L199.34,142.91L204.75,142.91Z" style="fill:#7AC36A" />
<path d="M209.96,149.95L207.25,145.26L212.66,145.26Z" style="fill:#7AC36A" />
<path d="M217.87,151.31L215.16,146.62L220.58,146.62Z" style="fill:#7AC36A" />
<path d="M225.78,151.45L223.07,146.76L228.49,146.76Z" style="fill:#7AC36A" />
<path d="M233.69,154.3L230.99,149.62L236.4,149.62Z" style="fill:#7AC36A" />
<path d="M241.6,155.02L238.9,150.33L244.31,150.33Z" style="fill:#7AC36A" />
<path d="M249.52,156.81L246.81,152.13L252.22,152.13Z" style="fill:#7AC36A" />
<path d="M257.43,162.18L254.72,157.49L260.13,157.49Z" style="fill:#7AC36A" />
<path d="M265.34,165.61L262.63,160.92L268.05,160.92Z" style="fill:#7AC36A" />
<path d="M273.25,168.73L270.54,164.04L275.96,164.04Z" style="fill:#7AC36A" />
<path d="M281.16,173.89L278.46,169.2L283.87,169.2Z" style="fill:#7AC36A" />
<path d="M289.07,175.51L286.37,170.82L291.78,170.82Z" style="fill:#7AC36A" />
<path d="M296.99,181.66L294.28,176.97L299.69,176.97Z" style="fill:#7AC36A" />
<path d="M304.9,182.95L302.19,178.26L307.6,178.26Z" style="fill:#7AC36A" />
<path d="M312.81,184.38L310.1,179.69L315.52,179.69Z" style="fill:#7AC36A" />
<path d="M320.72,184.67L318.01,179.98L323.43,179.98Z" style="fill:#7AC36A" />
<path d="M328.63,193.56L325.93,188.87L331.34,188.87Z" style="fill:#7AC36A" />
<path d="M336.54,194.18L333.84,189.5L339.25,189.5Z" style="fill:#7AC36A" />
<path d="M344.46,194.95L341.75,190.26L347.16,190.26Z" style="fill:#7AC36A" />
<path d="M352.37,201.59L349.66,196.9L355.07,196.9Z" style="fill:#7AC36A" />
<path d="M360.28,203.73L357.57,199.04L362.99,199.04Z" style="fill:#7AC36A" />
<path d="M368.19,204.15L365.48,199.46L370.9,199.46Z" style="fill:#7AC36A" />
<path d="M376.1,207.41L373.4,202.72L378.81,202.72Z" style="fill:#7AC36A" />
<path d="M384.01,208.68L381.31,203.99L386.72,203.99Z" style="fill:#7AC36A" />
<path d="M391.93,209.86L389.22,205.18L394.63,205.18Z" style="fill:#7AC36A" />
<path d="M399.84,210.39L397.13,205.7L402.54,205.7Z" style="fill:#7AC36A" />
<path d="M407.75,210.75L405.04,206.06L410.46,206.06Z" style="fill:#7AC36A" />
<path d="M415.66,212.27L412.96,207.58L418.37,207.58Z" style="fill:#7AC36A" />
<path d="M423.57,213.45L420.87,208.77L426.28,208.77Z" style="fill:#7AC36A" />
<path d="M431.48,213.71L428.78,209.03L434.19,209.03Z" style="fill:#7AC36A" />
<path d="M439.4,215.28L436.69,210.59L442.1,210.59Z" style="fill:#7AC36A" />
<path d="M447.31,216.4L444.6,211.71L450.01,211.71Z" style="fill:#7AC36A" />
<path d="M455.22,216.59L452.51,211.9L457.93,211.9Z" style="fill:#7AC36A" />
<path d="M463.13,228.38L460.43,223.7L465.84,223.7Z" style="fill:#7AC36A" />
<path d="M471.04,229.81L468.34,225.12L473.75,225.12Z" style="fill:#7AC36A" />
<path d="M478.96,231.03L476.25,226.34L481.66,226.34Z" style="fill:#7AC36A" />
<path d="M486.87,231.15L484.16,226.47L489.57,226.47Z" style="fill:#7AC36A" />
<path d="M494.78,234.9L492.07,230.21L497.48,230.21Z" style="fill:#7AC36A" />
<path d="M502.69,235.86L499.98,231.17L505.4,231.17Z" style="fill:#7AC36A" />
<path d="M510.6,238.42L507.9,233.73L513.31,233.73Z" style="fill:#7AC36A" />
<path d="M518.51,241.21L515.81,236.52L521.22,236.52Z" style="fill:#7AC36A" />
<path d="M526.43,249.53L523.72,244.85L529.13,244.85Z" style="fill:#7AC36A" />
<path d="M534.34,254.73L531.63,250.04L537.04,250.04Z" style="fill:#7AC36A" />
<path d="M542.25,261.42L539.54,256.73L544.96,256.73Z" style="fill:#7AC36A" />
<path d="M550.16,261.52L547.45,256.83L552.87,256.83Z" style="fill:#7AC36A" />
<path d="M558.07,262.55L555.37,257.86L560.78,257.86Z" style="fill:#7AC36A" />
<path d="M565.98,262.9L563.28,258.21L568.69,258.21Z" style="fill:#7AC36A" />
<path d="M573.9,263.63L571.19,258.94L576.6,258.94Z" style="fill:#7AC36A" />
<path d="M581.81,264.24L579.1,259.55L584.51,259.55Z" style="fill:#7AC36A" />
<path d="M589.72,265.54L587.01,260.86L592.43,260.86Z" style="fill:#7AC36A" />
<path d="M597.63,266.33L594.92,261.64L600.34,261.64Z" style="fill:#7AC36A" />
<path d="M605.54,268.05L602.84,263.37L608.25,263.37Z" style="fill:#7AC36A" />
<path d="M613.45,269.48L610.75,264.79L616.16,264.79Z" style="fill:#7AC36A" />
<path d="M621.37,269.8L618.66,265.11L624.07,265.11Z" style="fill:#7AC36A" />
<path d="M629.28,270.09L626.57,265.4L631.98,265.4Z" style="fill:#7AC36A" />
<path d="M637.19,270.74L634.48,266.05L639.9,266.05Z" style="fill:#7AC36A" />
<path d="M645.1,270.82L642.39,266.14L647.81,266.14Z" style="fill:#7AC36A" />
<path d="M653.01,271.99L650.31,267.3L655.72,267.3Z" style="fill:#7AC36A" />
<path d="M660.92,272.64L658.22,267.95L663.63,267.95Z" style="fill:#7AC36A" />
<path d="M668.84,274.67L666.13,269.99L671.54,269.99Z" style="fill:#7AC36A" />
<path d="M676.75,274.74L674.04,270.06L679.45,270.06Z" style="fill:#7AC36A" />
<path d="M684.66,275.32L681.95,270.63L687.37,270.63Z" style="fill:#7AC36A" />
<path d="M692.57,285.28L689.86,280.6L695.28,280.6Z" style="fill:#7AC36A" />
<path d="M700.48,285.67L697.78,280.98L703.19,280.98Z" style="fill:#7AC36A" />
<path d="M708.39,289.87L705.69,285.18L711.1,285.18Z" style="fill:#7AC36A" />
<path d="M716.31,294.64L713.6,289.95L719.01,289.95Z" style="fill:#7AC36A" />
<path d="M724.22,299.74L721.51,295.06L726.92,295.06Z" style="fill:#7AC36A" />
<path d="M732.13,301.49L729.42,296.8L734.84,296.8Z" style="fill:#7AC36A" />
<path d="M740.04,302.36L737.34,297.67L742.75,297.67Z" style="fill:#7AC36A" />
<path d="M747.95,302.72L745.25,298.04L750.66,298.04Z" style="fill:#7AC36A" />
<path d="M755.86,306.59L753.16,301.9L758.57,301.9Z" style="fill:#7AC36A" />
<path d="M763.78,307.24L761.07,302.55L766.48,302.55Z" style="fill:#7AC36A" />
<path d="M771.69,314.05L768.98,309.36L774.39,309.36Z" style="fill:#7AC36A" />
<path d="M779.6,322.22L776.89,317.53L782.31,317.53Z" style="fill:#7AC36A" />
<path d="M787.51,332.03L784.81,327.34L790.22,327.34Z" style="fill:#7AC36A" />
<path d="M795.42,347.01L792.72,342.32L798.13,342.32Z" style="fill:#7AC36A" />
<path d="M803.34,350.57L800.63,345.88L806.04,345.88Z" style="fill:#7AC36A" />
<path d="M811.25,361.28L808.54,356.59L813.95,356.59Z" style="fill:#7AC36A" />
<path d="M819.16,362.19L816.45,357.5L821.86,357.5Z" style="fill:#7AC36A" />
<path d="M827.07,398.55L824.36,393.86L829.78,393.86Z" style="fill:#7AC36A" />
<path d="M834.98,447.07L832.28,442.38L837.69,442.38Z" style="fill:#7AC36A" />
<path d="M842.89,554.27L840.19,549.58L845.6,549.58Z" style="fill:#7AC36A" />
<path d="M830.39,45.301L850.39,45.301" style="fill:none;stroke:#7AC36A" />
<path d="M840.39,48.426L837.69,43.738L843.1,43.738Z" style="fill:#7AC36A" />
<text x="763.42" y="-42.813" transform="scale(1, -1)"
	style="font-family:Liberation Serif;font-variant:normal;font-weight:normal;font-style:normal;font-size:12px">to-fronted-up</text>
</g>
</svg>
