<?xml version="1.0"?>
<!-- Generated by SVGo and Plotinum VG -->
<svg width="850.39pt" height="566.93pt" viewBox="0 0 850.39 566.93"
	xmlns="http://www.w3.org/2000/svg"
	xmlns:xlink="http://www.w3.org/1999/xlink">
<g transform="scale(1, -1) translate(0, -566.93)">
<path d="M0,0L850.39,0L850.39,566.93L0,566.93Z" style="fill:#FFFFFF" />
<text x="204.77" y="-557.54" transform="scale(1, -1)"
	style="font-family:Liberation Serif;font-variant:normal;font-weight:normal;font-style:normal;font-size:12px">Percentiles - FrontEndUp-Main-Delta (Nearest Rank): segfault-localhost-zeroload-emptydb</text>
<text x="419.78" y="-3.9023" transform="scale(1, -1)"
	style="font-family:Liberation Serif;font-variant:normal;font-weight:normal;font-style:normal;font-size:12px">Percentile</text>
<text x="192.84" y="-16.541" transform="scale(1, -1)"
	style="font-family:Liberation Serif;font-variant:normal;font-weight:normal;font-style:normal;font-size:10px">20</text>
<text x="515.36" y="-16.541" transform="scale(1, -1)"
	style="font-family:Liberation Serif;font-variant:normal;font-weight:normal;font-style:normal;font-size:10px">60</text>
<text x="835.39" y="-16.541" transform="scale(1, -1)"
	style="font-family:Liberation Serif;font-variant:normal;font-weight:normal;font-style:normal;font-size:10px">100</text>
<path d="M197.84,24.363L197.84,32.363" style="fill:none;stroke:#000000;stroke-width:0.5" />
<path d="M520.36,24.363L520.36,32.363" style="fill:none;stroke:#000000;stroke-width:0.5" />
<path d="M842.89,24.363L842.89,32.363" style="fill:none;stroke:#000000;stroke-width:0.5" />
<path d="M117.2,28.363L117.2,32.363" style="fill:none;stroke:#000000;stroke-width:0.5" />
<path d="M278.47,28.363L278.47,32.363" style="fill:none;stroke:#000000;stroke-width:0.5" />
<path d="M359.1,28.363L359.1,32.363" style="fill:none;stroke:#000000;stroke-width:0.5" />
<path d="M439.73,28.363L439.73,32.363" style="fill:none;stroke:#000000;stroke-width:0.5" />
<path d="M601,28.363L601,32.363" style="fill:none;stroke:#000000;stroke-width:0.5" />
<path d="M681.63,28.363L681.63,32.363" style="fill:none;stroke:#000000;stroke-width:0.5" />
<path d="M762.26,28.363L762.26,32.363" style="fill:none;stroke:#000000;stroke-width:0.5" />
<path d="M44.635,32.363L842.89,32.363" style="fill:none;stroke:#000000;stroke-width:0.5" />
<g transform="rotate(90)">
<text x="265.43" y="9.3867" transform="scale(1, -1)"
	style="font-family:Liberation Serif;font-variant:normal;font-weight:normal;font-style:normal;font-size:12px">Duration: ms</text>
</g>
<text x="15.885" y="-93.385" transform="scale(1, -1)"
	style="font-family:Liberation Serif;font-variant:normal;font-weight:normal;font-style:normal;font-size:10px">30</text>
<text x="15.885" y="-305.23" transform="scale(1, -1)"
	style="font-family:Liberation Serif;font-variant:normal;font-weight:normal;font-style:normal;font-size:10px">50</text>
<text x="15.885" y="-517.08" transform="scale(1, -1)"
	style="font-family:Liberation Serif;font-variant:normal;font-weight:normal;font-style:normal;font-size:10px">70</text>
<path d="M28.385,95.671L36.385,95.671" style="fill:none;stroke:#000000;stroke-width:0.5" />
<path d="M28.385,307.52L36.385,307.52" style="fill:none;stroke:#000000;stroke-width:0.5" />
<path d="M28.385,519.36L36.385,519.36" style="fill:none;stroke:#000000;stroke-width:0.5" />
<path d="M32.385,201.59L36.385,201.59" style="fill:none;stroke:#000000;stroke-width:0.5" />
<path d="M32.385,413.44L36.385,413.44" style="fill:none;stroke:#000000;stroke-width:0.5" />
<path d="M36.385,42.709L36.385,551.14" style="fill:none;stroke:#000000;stroke-width:0.5" />
<path d="M197.84,42.709L197.84,551.14" style="fill:none;stroke:#808080;stroke-width:0.25" />
<path d="M520.36,42.709L520.36,551.14" style="fill:none;stroke:#808080;stroke-width:0.25" />
<path d="M842.89,42.709L842.89,551.14" style="fill:none;stroke:#808080;stroke-width:0.25" />
<path d="M44.635,95.671L842.89,95.671" style="fill:none;stroke:#808080;stroke-width:0.25" />
<path d="M44.635,307.52L842.89,307.52" style="fill:none;stroke:#808080;stroke-width:0.25" />
<path d="M44.635,519.36L842.89,519.36" style="fill:none;stroke:#808080;stroke-width:0.25" />
<path d="M44.635,42.709L52.698,53.301L60.761,53.301L68.824,53.301L76.888,53.301L84.951,53.301L93.014,63.894L101.08,63.894L109.14,63.894L117.2,63.894L125.27,63.894L133.33,63.894L141.39,63.894L149.46,63.894L157.52,63.894L165.58,63.894L173.65,63.894L181.71,63.894L189.77,63.894L197.84,63.894L205.9,63.894L213.96,63.894L222.03,63.894L230.09,74.486L238.15,74.486L246.22,74.486L254.28,74.486L262.34,74.486L270.4,74.486L278.47,74.486L286.53,74.486L294.59,74.486L302.66,74.486L310.72,74.486L318.78,74.486L326.85,74.486L334.91,74.486L342.97,74.486L351.04,74.486L359.1,74.486L367.16,74.486L375.23,74.486L383.29,85.078L391.35,85.078L399.42,85.078L407.48,85.078L415.54,85.078L423.61,85.078L431.67,85.078L439.73,85.078L447.8,85.078L455.86,85.078L463.92,85.078L471.99,85.078L480.05,85.078L488.11,85.078L496.18,85.078L504.24,95.671L512.3,95.671L520.36,95.671L528.43,95.671L536.49,95.671L544.55,95.671L552.62,106.26L560.68,106.26L568.74,106.26L576.81,106.26L584.87,106.26L592.93,106.26L601,106.26L609.06,116.86L617.12,116.86L625.19,116.86L633.25,116.86L641.31,127.45L649.38,127.45L657.44,127.45L665.5,127.45L673.57,127.45L681.63,127.45L689.69,138.04L697.76,138.04L705.82,138.04L713.88,138.04L721.95,138.04L730.01,138.04L738.07,148.63L746.14,159.22L754.2,159.22L762.26,180.41L770.32,201.59L778.39,212.19L786.45,222.78L794.51,243.96L802.58,275.74L810.64,381.66L818.7,392.26L826.77,476.99L834.83,487.59L842.89,551.14" style="fill:none;stroke:#5A9BD4" />
<path d="M44.635,45.834L41.928,41.146L47.341,41.146Z" style="fill:#5A9BD4" />
<path d="M52.698,56.426L49.992,51.739L55.404,51.739Z" style="fill:#5A9BD4" />
<path d="M60.761,56.426L58.055,51.739L63.468,51.739Z" style="fill:#5A9BD4" />
<path d="M68.824,56.426L66.118,51.739L71.531,51.739Z" style="fill:#5A9BD4" />
<path d="M76.888,56.426L74.181,51.739L79.594,51.739Z" style="fill:#5A9BD4" />
<path d="M84.951,56.426L82.245,51.739L87.657,51.739Z" style="fill:#5A9BD4" />
<path d="M93.014,67.019L90.308,62.331L95.72,62.331Z" style="fill:#5A9BD4" />
<path d="M101.08,67.019L98.371,62.331L103.78,62.331Z" style="fill:#5A9BD4" />
<path d="M109.14,67.019L106.43,62.331L111.85,62.331Z" style="fill:#5A9BD4" />
<path d="M117.2,67.019L114.5,62.331L119.91,62.331Z" style="fill:#5A9BD4" />
<path d="M125.27,67.019L122.56,62.331L127.97,62.331Z" style="fill:#5A9BD4" />
<path d="M133.33,67.019L130.62,62.331L136.04,62.331Z" style="fill:#5A9BD4" />
<path d="M141.39,67.019L138.69,62.331L144.1,62.331Z" style="fill:#5A9BD4" />
<path d="M149.46,67.019L146.75,62.331L152.16,62.331Z" style="fill:#5A9BD4" />
<path d="M157.52,67.019L154.81,62.331L160.23,62.331Z" style="fill:#5A9BD4" />
<path d="M165.58,67.019L162.88,62.331L168.29,62.331Z" style="fill:#5A9BD4" />
<path d="M173.65,67.019L170.94,62.331L176.35,62.331Z" style="fill:#5A9BD4" />
<path d="M181.71,67.019L179,62.331L184.42,62.331Z" style="fill:#5A9BD4" />
<path d="M189.77,67.019L187.07,62.331L192.48,62.331Z" style="fill:#5A9BD4" />
<path d="M197.84,67.019L195.13,62.331L200.54,62.331Z" style="fill:#5A9BD4" />
<path d="M205.9,67.019L203.19,62.331L208.61,62.331Z" style="fill:#5A9BD4" />
<path d="M213.96,67.019L211.26,62.331L216.67,62.331Z" style="fill:#5A9BD4" />
<path d="M222.03,67.019L219.32,62.331L224.73,62.331Z" style="fill:#5A9BD4" />
<path d="M230.09,77.611L227.38,72.923L232.8,72.923Z" style="fill:#5A9BD4" />
<path d="M238.15,77.611L235.45,72.923L240.86,72.923Z" style="fill:#5A9BD4" />
<path d="M246.22,77.611L243.51,72.923L248.92,72.923Z" style="fill:#5A9BD4" />
<path d="M254.28,77.611L251.57,72.923L256.98,72.923Z" style="fill:#5A9BD4" />
<path d="M262.34,77.611L259.64,72.923L265.05,72.923Z" style="fill:#5A9BD4" />
<path d="M270.4,77.611L267.7,72.923L273.11,72.923Z" style="fill:#5A9BD4" />
<path d="M278.47,77.611L275.76,72.923L281.17,72.923Z" style="fill:#5A9BD4" />
<path d="M286.53,77.611L283.83,72.923L289.24,72.923Z" style="fill:#5A9BD4" />
<path d="M294.59,77.611L291.89,72.923L297.3,72.923Z" style="fill:#5A9BD4" />
<path d="M302.66,77.611L299.95,72.923L305.36,72.923Z" style="fill:#5A9BD4" />
<path d="M310.72,77.611L308.01,72.923L313.43,72.923Z" style="fill:#5A9BD4" />
<path d="M318.78,77.611L316.08,72.923L321.49,72.923Z" style="fill:#5A9BD4" />
<path d="M326.85,77.611L324.14,72.923L329.55,72.923Z" style="fill:#5A9BD4" />
<path d="M334.91,77.611L332.2,72.923L337.62,72.923Z" style="fill:#5A9BD4" />
<path d="M342.97,77.611L340.27,72.923L345.68,72.923Z" style="fill:#5A9BD4" />
<path d="M351.04,77.611L348.33,72.923L353.74,72.923Z" style="fill:#5A9BD4" />
<path d="M359.1,77.611L356.39,72.923L361.81,72.923Z" style="fill:#5A9BD4" />
<path d="M367.16,77.611L364.46,72.923L369.87,72.923Z" style="fill:#5A9BD4" />
<path d="M375.23,77.611L372.52,72.923L377.93,72.923Z" style="fill:#5A9BD4" />
<path d="M383.29,88.203L380.58,83.516L386,83.516Z" style="fill:#5A9BD4" />
<path d="M391.35,88.203L388.65,83.516L394.06,83.516Z" style="fill:#5A9BD4" />
<path d="M399.42,88.203L396.71,83.516L402.12,83.516Z" style="fill:#5A9BD4" />
<path d="M407.48,88.203L404.77,83.516L410.19,83.516Z" style="fill:#5A9BD4" />
<path d="M415.54,88.203L412.84,83.516L418.25,83.516Z" style="fill:#5A9BD4" />
<path d="M423.61,88.203L420.9,83.516L426.31,83.516Z" style="fill:#5A9BD4" />
<path d="M431.67,88.203L428.96,83.516L434.38,83.516Z" style="fill:#5A9BD4" />
<path d="M439.73,88.203L437.03,83.516L442.44,83.516Z" style="fill:#5A9BD4" />
<path d="M447.8,88.203L445.09,83.516L450.5,83.516Z" style="fill:#5A9BD4" />
<path d="M455.86,88.203L453.15,83.516L458.57,83.516Z" style="fill:#5A9BD4" />
<path d="M463.92,88.203L461.22,83.516L466.63,83.516Z" style="fill:#5A9BD4" />
<path d="M471.99,88.203L469.28,83.516L474.69,83.516Z" style="fill:#5A9BD4" />
<path d="M480.05,88.203L477.34,83.516L482.76,83.516Z" style="fill:#5A9BD4" />
<path d="M488.11,88.203L485.41,83.516L490.82,83.516Z" style="fill:#5A9BD4" />
<path d="M496.18,88.203L493.47,83.516L498.88,83.516Z" style="fill:#5A9BD4" />
<path d="M504.24,98.796L501.53,94.108L506.94,94.108Z" style="fill:#5A9BD4" />
<path d="M512.3,98.796L509.6,94.108L515.01,94.108Z" style="fill:#5A9BD4" />
<path d="M520.36,98.796L517.66,94.108L523.07,94.108Z" style="fill:#5A9BD4" />
<path d="M528.43,98.796L525.72,94.108L531.13,94.108Z" style="fill:#5A9BD4" />
<path d="M536.49,98.796L533.78,94.108L539.2,94.108Z" style="fill:#5A9BD4" />
<path d="M544.55,98.796L541.85,94.108L547.26,94.108Z" style="fill:#5A9BD4" />
<path d="M552.62,109.39L549.91,104.7L555.32,104.7Z" style="fill:#5A9BD4" />
<path d="M560.68,109.39L557.97,104.7L563.39,104.7Z" style="fill:#5A9BD4" />
<path d="M568.74,109.39L566.04,104.7L571.45,104.7Z" style="fill:#5A9BD4" />
<path d="M576.81,109.39L574.1,104.7L579.51,104.7Z" style="fill:#5A9BD4" />
<path d="M584.87,109.39L582.16,104.7L587.58,104.7Z" style="fill:#5A9BD4" />
<path d="M592.93,109.39L590.23,104.7L595.64,104.7Z" style="fill:#5A9BD4" />
<path d="M601,109.39L598.29,104.7L603.7,104.7Z" style="fill:#5A9BD4" />
<path d="M609.06,119.98L606.35,115.29L611.77,115.29Z" style="fill:#5A9BD4" />
<path d="M617.12,119.98L614.42,115.29L619.83,115.29Z" style="fill:#5A9BD4" />
<path d="M625.19,119.98L622.48,115.29L627.89,115.29Z" style="fill:#5A9BD4" />
<path d="M633.25,119.98L630.54,115.29L635.96,115.29Z" style="fill:#5A9BD4" />
<path d="M641.31,130.57L638.61,125.88L644.02,125.88Z" style="fill:#5A9BD4" />
<path d="M649.38,130.57L646.67,125.88L652.08,125.88Z" style="fill:#5A9BD4" />
<path d="M657.44,130.57L654.73,125.88L660.15,125.88Z" style="fill:#5A9BD4" />
<path d="M665.5,130.57L662.8,125.88L668.21,125.88Z" style="fill:#5A9BD4" />
<path d="M673.57,130.57L670.86,125.88L676.27,125.88Z" style="fill:#5A9BD4" />
<path d="M681.63,130.57L678.92,125.88L684.34,125.88Z" style="fill:#5A9BD4" />
<path d="M689.69,141.16L686.99,136.48L692.4,136.48Z" style="fill:#5A9BD4" />
<path d="M697.76,141.16L695.05,136.48L700.46,136.48Z" style="fill:#5A9BD4" />
<path d="M705.82,141.16L703.11,136.48L708.53,136.48Z" style="fill:#5A9BD4" />
<path d="M713.88,141.16L711.18,136.48L716.59,136.48Z" style="fill:#5A9BD4" />
<path d="M721.95,141.16L719.24,136.48L724.65,136.48Z" style="fill:#5A9BD4" />
<path d="M730.01,141.16L727.3,136.48L732.71,136.48Z" style="fill:#5A9BD4" />
<path d="M738.07,151.76L735.37,147.07L740.78,147.07Z" style="fill:#5A9BD4" />
<path d="M746.14,162.35L743.43,157.66L748.84,157.66Z" style="fill:#5A9BD4" />
<path d="M754.2,162.35L751.49,157.66L756.9,157.66Z" style="fill:#5A9BD4" />
<path d="M762.26,183.53L759.56,178.85L764.97,178.85Z" style="fill:#5A9BD4" />
<path d="M770.32,204.72L767.62,200.03L773.03,200.03Z" style="fill:#5A9BD4" />
<path d="M778.39,215.31L775.68,210.62L781.09,210.62Z" style="fill:#5A9BD4" />
<path d="M786.45,225.9L783.74,221.22L789.16,221.22Z" style="fill:#5A9BD4" />
<path d="M794.51,247.09L791.81,242.4L797.22,242.4Z" style="fill:#5A9BD4" />
<path d="M802.58,278.86L799.87,274.18L805.28,274.18Z" style="fill:#5A9BD4" />
<path d="M810.64,384.79L807.93,380.1L813.35,380.1Z" style="fill:#5A9BD4" />
<path d="M818.7,395.38L816,390.69L821.41,390.69Z" style="fill:#5A9BD4" />
<path d="M826.77,480.12L824.06,475.43L829.47,475.43Z" style="fill:#5A9BD4" />
<path d="M834.83,490.71L832.12,486.02L837.54,486.02Z" style="fill:#5A9BD4" />
<path d="M842.89,554.27L840.19,549.58L845.6,549.58Z" style="fill:#5A9BD4" />
<path d="M830.39,45.301L850.39,45.301" style="fill:none;stroke:#5A9BD4" />
<path d="M840.39,48.426L837.69,43.738L843.1,43.738Z" style="fill:#5A9BD4" />
<text x="763.42" y="-42.813" transform="scale(1, -1)"
	style="font-family:Liberation Serif;font-variant:normal;font-weight:normal;font-style:normal;font-size:12px">to-fronted-up</text>
</g>
</svg>
