<?xml version="1.0"?>
<!-- Generated by SVGo and Plotinum VG -->
<svg width="850.39pt" height="566.93pt" viewBox="0 0 850.39 566.93"
	xmlns="http://www.w3.org/2000/svg"
	xmlns:xlink="http://www.w3.org/1999/xlink">
<g transform="scale(1, -1) translate(0, -566.93)">
<path d="M0,0L850.39,0L850.39,566.93L0,566.93Z" style="fill:#FFFFFF" />
<text x="285.41" y="-557.54" transform="scale(1, -1)"
	style="font-family:Liberation Serif;font-variant:normal;font-weight:normal;font-style:normal;font-size:12px">Raw Data Measures: segfault-localhost-zeroload-emptydb</text>
<text x="428.94" y="-3.9023" transform="scale(1, -1)"
	style="font-family:Liberation Serif;font-variant:normal;font-weight:normal;font-style:normal;font-size:12px">Restart ID</text>
<text x="57.135" y="-16.541" transform="scale(1, -1)"
	style="font-family:Liberation Serif;font-variant:normal;font-weight:normal;font-style:normal;font-size:10px">0</text>
<text x="293.5" y="-16.541" transform="scale(1, -1)"
	style="font-family:Liberation Serif;font-variant:normal;font-weight:normal;font-style:normal;font-size:10px">30</text>
<text x="532.37" y="-16.541" transform="scale(1, -1)"
	style="font-family:Liberation Serif;font-variant:normal;font-weight:normal;font-style:normal;font-size:10px">60</text>
<text x="771.23" y="-16.541" transform="scale(1, -1)"
	style="font-family:Liberation Serif;font-variant:normal;font-weight:normal;font-style:normal;font-size:10px">90</text>
<path d="M59.635,24.363L59.635,32.363" style="fill:none;stroke:#000000;stroke-width:0.5" />
<path d="M298.5,24.363L298.5,32.363" style="fill:none;stroke:#000000;stroke-width:0.5" />
<path d="M537.37,24.363L537.37,32.363" style="fill:none;stroke:#000000;stroke-width:0.5" />
<path d="M776.23,24.363L776.23,32.363" style="fill:none;stroke:#000000;stroke-width:0.5" />
<path d="M139.26,28.363L139.26,32.363" style="fill:none;stroke:#000000;stroke-width:0.5" />
<path d="M218.88,28.363L218.88,32.363" style="fill:none;stroke:#000000;stroke-width:0.5" />
<path d="M378.12,28.363L378.12,32.363" style="fill:none;stroke:#000000;stroke-width:0.5" />
<path d="M457.75,28.363L457.75,32.363" style="fill:none;stroke:#000000;stroke-width:0.5" />
<path d="M616.99,28.363L616.99,32.363" style="fill:none;stroke:#000000;stroke-width:0.5" />
<path d="M696.61,28.363L696.61,32.363" style="fill:none;stroke:#000000;stroke-width:0.5" />
<path d="M59.635,32.363L847.89,32.363" style="fill:none;stroke:#000000;stroke-width:0.5" />
<g transform="rotate(90)">
<text x="265.43" y="9.3867" transform="scale(1, -1)"
	style="font-family:Liberation Serif;font-variant:normal;font-weight:normal;font-style:normal;font-size:12px">Duration: ms</text>
</g>
<text x="15.885" y="-187.94" transform="scale(1, -1)"
	style="font-family:Liberation Serif;font-variant:normal;font-weight:normal;font-style:normal;font-size:10px">10000</text>
<text x="15.885" y="-483.72" transform="scale(1, -1)"
	style="font-family:Liberation Serif;font-variant:normal;font-weight:normal;font-style:normal;font-size:10px">30000</text>
<path d="M43.385,190.23L51.385,190.23" style="fill:none;stroke:#000000;stroke-width:0.5" />
<path d="M43.385,486.01L51.385,486.01" style="fill:none;stroke:#000000;stroke-width:0.5" />
<path d="M47.385,338.12L51.385,338.12" style="fill:none;stroke:#000000;stroke-width:0.5" />
<path d="M51.385,42.709L51.385,551.14" style="fill:none;stroke:#000000;stroke-width:0.5" />
<path d="M59.635,42.709L59.635,551.14" style="fill:none;stroke:#808080;stroke-width:0.25" />
<path d="M298.5,42.709L298.5,551.14" style="fill:none;stroke:#808080;stroke-width:0.25" />
<path d="M537.37,42.709L537.37,551.14" style="fill:none;stroke:#808080;stroke-width:0.25" />
<path d="M776.23,42.709L776.23,551.14" style="fill:none;stroke:#808080;stroke-width:0.25" />
<path d="M59.635,190.23L847.89,190.23" style="fill:none;stroke:#808080;stroke-width:0.25" />
<path d="M59.635,486.01L847.89,486.01" style="fill:none;stroke:#808080;stroke-width:0.25" />
<path d="M59.635,182.49L67.597,262.75L75.559,191.74L83.521,119.05L91.484,263.79L99.446,236.74L107.41,386.82L115.37,177.14L123.33,361.89L131.29,234.39L139.26,208.67L147.22,341.02L155.18,418.57L163.14,227.41L171.11,292.01L179.07,213.33L187.03,275.22L194.99,310.05L202.95,303.39L210.92,304.52L218.88,336.86L226.84,302.11L234.8,330.34L242.77,282.59L250.73,295.87L258.69,208.7L266.65,223.37L274.61,313.33L282.58,196.53L290.54,313.88L298.5,127.35L306.46,181.99L314.43,310.05L322.39,326.27L330.35,305.66L338.31,276.32L346.27,253.47L354.24,307.7L362.2,205.49L370.16,256.17L378.12,244.49L386.09,245.66L394.05,303.08L402.01,188.06L409.97,311.63L417.93,147.37L425.9,146.08L433.86,353.78L441.82,302.2L449.78,211.23L457.75,259.04L465.71,308.98L473.67,334.63L481.63,336.15L489.59,377.78L497.56,550.73L505.52,183.8L513.48,387.01L521.44,459.71L529.41,217.91L537.37,263.88L545.33,261.36L553.29,304L561.25,161.35L569.22,202.79L577.18,202.03L585.14,252.89L593.1,172.23L601.07,188.31L609.03,220.81L616.99,245.08L624.95,276.46L632.91,260.4L640.88,236.73L648.84,258.82L656.8,279.63L664.76,274.08L672.73,167.62L680.69,374.78L688.65,194.16L696.61,322.71L704.57,207.5L712.54,306.31L720.5,261.66L728.46,284.97L736.42,313.47L744.38,337.22L752.35,340.49L760.31,309.25L768.27,311.13L776.23,309.5L784.2,322.4L792.16,235.51L800.12,258.38L808.08,346.82L816.04,229.23L824.01,251.31L831.97,257.37L839.93,211.84L847.89,280.44" style="fill:none;stroke:#F15A60" />
<path d="M59.635,185.62L56.928,180.93L62.341,180.93Z" style="fill:#F15A60" />
<path d="M67.597,265.88L64.891,261.19L70.303,261.19Z" style="fill:#F15A60" />
<path d="M75.559,194.86L72.853,190.18L78.266,190.18Z" style="fill:#F15A60" />
<path d="M83.521,122.17L80.815,117.49L86.228,117.49Z" style="fill:#F15A60" />
<path d="M91.484,266.91L88.777,262.23L94.19,262.23Z" style="fill:#F15A60" />
<path d="M99.446,239.87L96.739,235.18L102.15,235.18Z" style="fill:#F15A60" />
<path d="M107.41,389.94L104.7,385.26L110.11,385.26Z" style="fill:#F15A60" />
<path d="M115.37,180.27L112.66,175.58L118.08,175.58Z" style="fill:#F15A60" />
<path d="M123.33,365.01L120.63,360.32L126.04,360.32Z" style="fill:#F15A60" />
<path d="M131.29,237.51L128.59,232.83L134,232.83Z" style="fill:#F15A60" />
<path d="M139.26,211.8L136.55,207.11L141.96,207.11Z" style="fill:#F15A60" />
<path d="M147.22,344.14L144.51,339.46L149.93,339.46Z" style="fill:#F15A60" />
<path d="M155.18,421.7L152.47,417.01L157.89,417.01Z" style="fill:#F15A60" />
<path d="M163.14,230.53L160.44,225.85L165.85,225.85Z" style="fill:#F15A60" />
<path d="M171.11,295.13L168.4,290.44L173.81,290.44Z" style="fill:#F15A60" />
<path d="M179.07,216.45L176.36,211.77L181.77,211.77Z" style="fill:#F15A60" />
<path d="M187.03,278.35L184.32,273.66L189.74,273.66Z" style="fill:#F15A60" />
<path d="M194.99,313.17L192.29,308.49L197.7,308.49Z" style="fill:#F15A60" />
<path d="M202.95,306.52L200.25,301.83L205.66,301.83Z" style="fill:#F15A60" />
<path d="M210.92,307.64L208.21,302.96L213.62,302.96Z" style="fill:#F15A60" />
<path d="M218.88,339.99L216.17,335.3L221.59,335.3Z" style="fill:#F15A60" />
<path d="M226.84,305.23L224.13,300.55L229.55,300.55Z" style="fill:#F15A60" />
<path d="M234.8,333.47L232.1,328.78L237.51,328.78Z" style="fill:#F15A60" />
<path d="M242.77,285.71L240.06,281.02L245.47,281.02Z" style="fill:#F15A60" />
<path d="M250.73,298.99L248.02,294.3L253.43,294.3Z" style="fill:#F15A60" />
<path d="M258.69,211.83L255.98,207.14L261.4,207.14Z" style="fill:#F15A60" />
<path d="M266.65,226.5L263.95,221.81L269.36,221.81Z" style="fill:#F15A60" />
<path d="M274.61,316.46L271.91,311.77L277.32,311.77Z" style="fill:#F15A60" />
<path d="M282.58,199.65L279.87,194.97L285.28,194.97Z" style="fill:#F15A60" />
<path d="M290.54,317.01L287.83,312.32L293.25,312.32Z" style="fill:#F15A60" />
<path d="M298.5,130.47L295.79,125.78L301.21,125.78Z" style="fill:#F15A60" />
<path d="M306.46,185.12L303.76,180.43L309.17,180.43Z" style="fill:#F15A60" />
<path d="M314.43,313.17L311.72,308.49L317.13,308.49Z" style="fill:#F15A60" />
<path d="M322.39,329.4L319.68,324.71L325.09,324.71Z" style="fill:#F15A60" />
<path d="M330.35,308.78L327.64,304.09L333.06,304.09Z" style="fill:#F15A60" />
<path d="M338.31,279.44L335.61,274.75L341.02,274.75Z" style="fill:#F15A60" />
<path d="M346.27,256.59L343.57,251.9L348.98,251.9Z" style="fill:#F15A60" />
<path d="M354.24,310.82L351.53,306.14L356.94,306.14Z" style="fill:#F15A60" />
<path d="M362.2,208.62L359.49,203.93L364.91,203.93Z" style="fill:#F15A60" />
<path d="M370.16,259.3L367.45,254.61L372.87,254.61Z" style="fill:#F15A60" />
<path d="M378.12,247.62L375.42,242.93L380.83,242.93Z" style="fill:#F15A60" />
<path d="M386.09,248.78L383.38,244.1L388.79,244.1Z" style="fill:#F15A60" />
<path d="M394.05,306.21L391.34,301.52L396.75,301.52Z" style="fill:#F15A60" />
<path d="M402.01,191.18L399.3,186.49L404.72,186.49Z" style="fill:#F15A60" />
<path d="M409.97,314.76L407.27,310.07L412.68,310.07Z" style="fill:#F15A60" />
<path d="M417.93,150.5L415.23,145.81L420.64,145.81Z" style="fill:#F15A60" />
<path d="M425.9,149.21L423.19,144.52L428.6,144.52Z" style="fill:#F15A60" />
<path d="M433.86,356.91L431.15,352.22L436.57,352.22Z" style="fill:#F15A60" />
<path d="M441.82,305.32L439.11,300.63L444.53,300.63Z" style="fill:#F15A60" />
<path d="M449.78,214.35L447.08,209.67L452.49,209.67Z" style="fill:#F15A60" />
<path d="M457.75,262.17L455.04,257.48L460.45,257.48Z" style="fill:#F15A60" />
<path d="M465.71,312.11L463,307.42L468.41,307.42Z" style="fill:#F15A60" />
<path d="M473.67,337.75L470.96,333.07L476.38,333.07Z" style="fill:#F15A60" />
<path d="M481.63,339.28L478.93,334.59L484.34,334.59Z" style="fill:#F15A60" />
<path d="M489.59,380.91L486.89,376.22L492.3,376.22Z" style="fill:#F15A60" />
<path d="M497.56,553.85L494.85,549.16L500.26,549.16Z" style="fill:#F15A60" />
<path d="M505.52,186.92L502.81,182.23L508.22,182.23Z" style="fill:#F15A60" />
<path d="M513.48,390.14L510.77,385.45L516.19,385.45Z" style="fill:#F15A60" />
<path d="M521.44,462.84L518.74,458.15L524.15,458.15Z" style="fill:#F15A60" />
<path d="M529.41,221.04L526.7,216.35L532.11,216.35Z" style="fill:#F15A60" />
<path d="M537.37,267L534.66,262.32L540.07,262.32Z" style="fill:#F15A60" />
<path d="M545.33,264.49L542.62,259.8L548.04,259.8Z" style="fill:#F15A60" />
<path d="M553.29,307.13L550.59,302.44L556,302.44Z" style="fill:#F15A60" />
<path d="M561.25,164.47L558.55,159.78L563.96,159.78Z" style="fill:#F15A60" />
<path d="M569.22,205.91L566.51,201.22L571.92,201.22Z" style="fill:#F15A60" />
<path d="M577.18,205.16L574.47,200.47L579.88,200.47Z" style="fill:#F15A60" />
<path d="M585.14,256.02L582.43,251.33L587.85,251.33Z" style="fill:#F15A60" />
<path d="M593.1,175.36L590.4,170.67L595.81,170.67Z" style="fill:#F15A60" />
<path d="M601.07,191.43L598.36,186.74L603.77,186.74Z" style="fill:#F15A60" />
<path d="M609.03,223.94L606.32,219.25L611.73,219.25Z" style="fill:#F15A60" />
<path d="M616.99,248.21L614.28,243.52L619.7,243.52Z" style="fill:#F15A60" />
<path d="M624.95,279.59L622.25,274.9L627.66,274.9Z" style="fill:#F15A60" />
<path d="M632.91,263.53L630.21,258.84L635.62,258.84Z" style="fill:#F15A60" />
<path d="M640.88,239.85L638.17,235.16L643.58,235.16Z" style="fill:#F15A60" />
<path d="M648.84,261.95L646.13,257.26L651.54,257.26Z" style="fill:#F15A60" />
<path d="M656.8,282.75L654.09,278.07L659.51,278.07Z" style="fill:#F15A60" />
<path d="M664.76,277.21L662.06,272.52L667.47,272.52Z" style="fill:#F15A60" />
<path d="M672.73,170.74L670.02,166.05L675.43,166.05Z" style="fill:#F15A60" />
<path d="M680.69,377.91L677.98,373.22L683.39,373.22Z" style="fill:#F15A60" />
<path d="M688.65,197.29L685.94,192.6L691.36,192.6Z" style="fill:#F15A60" />
<path d="M696.61,325.83L693.91,321.15L699.32,321.15Z" style="fill:#F15A60" />
<path d="M704.57,210.63L701.87,205.94L707.28,205.94Z" style="fill:#F15A60" />
<path d="M712.54,309.43L709.83,304.75L715.24,304.75Z" style="fill:#F15A60" />
<path d="M720.5,264.79L717.79,260.1L723.2,260.1Z" style="fill:#F15A60" />
<path d="M728.46,288.09L725.75,283.41L731.17,283.41Z" style="fill:#F15A60" />
<path d="M736.42,316.59L733.72,311.9L739.13,311.9Z" style="fill:#F15A60" />
<path d="M744.38,340.34L741.68,335.65L747.09,335.65Z" style="fill:#F15A60" />
<path d="M752.35,343.61L749.64,338.92L755.05,338.92Z" style="fill:#F15A60" />
<path d="M760.31,312.38L757.6,307.69L763.02,307.69Z" style="fill:#F15A60" />
<path d="M768.27,314.25L765.57,309.57L770.98,309.57Z" style="fill:#F15A60" />
<path d="M776.23,312.63L773.53,307.94L778.94,307.94Z" style="fill:#F15A60" />
<path d="M784.2,325.52L781.49,320.84L786.9,320.84Z" style="fill:#F15A60" />
<path d="M792.16,238.64L789.45,233.95L794.86,233.95Z" style="fill:#F15A60" />
<path d="M800.12,261.5L797.41,256.81L802.83,256.81Z" style="fill:#F15A60" />
<path d="M808.08,349.94L805.38,345.25L810.79,345.25Z" style="fill:#F15A60" />
<path d="M816.04,232.35L813.34,227.67L818.75,227.67Z" style="fill:#F15A60" />
<path d="M824.01,254.43L821.3,249.75L826.71,249.75Z" style="fill:#F15A60" />
<path d="M831.97,260.5L829.26,255.81L834.68,255.81Z" style="fill:#F15A60" />
<path d="M839.93,214.96L837.23,210.27L842.64,210.27Z" style="fill:#F15A60" />
<path d="M847.89,283.57L845.19,278.88L850.6,278.88Z" style="fill:#F15A60" />
<path d="M59.635,182.98L67.597,263.39L75.559,192.24L83.521,119.55L91.484,264.34L99.446,237.41L107.41,387.32L115.37,177.66L123.33,362.49L131.29,234.85L139.26,209.09L147.22,341.45L155.18,418.96L163.14,228.25L171.11,292.47L179.07,213.76L187.03,275.72L194.99,310.46L202.95,303.81L210.92,304.95L218.88,337.31L226.84,302.55L234.8,330.75L242.77,283.03L250.73,296.87L258.69,209.2L266.65,223.87L274.61,313.81L282.58,197L290.54,314.35L298.5,127.79L306.46,182.48L314.43,310.54L322.39,326.7L330.35,306.06L338.31,276.76L346.27,253.94L354.24,308.19L362.2,205.94L370.16,256.71L378.12,244.95L386.09,246.13L394.05,303.51L402.01,188.54L409.97,312.08L417.93,147.87L425.9,146.63L433.86,354.17L441.82,302.64L449.78,211.63L457.75,259.55L465.71,309.4L473.67,335.09L481.63,336.57L489.59,378.23L497.56,551.14L505.52,184.22L513.48,388.09L521.44,460.14L529.41,218.31L537.37,264.5L545.33,261.84L553.29,304.43L561.25,162.2L569.22,203.36L577.18,202.55L585.14,253.59L593.1,173.22L601.07,188.71L609.03,221.23L616.99,245.48L624.95,276.86L632.91,260.83L640.88,237.15L648.84,259.23L656.8,280.04L664.76,274.51L672.73,168.02L680.69,375.21L688.65,194.59L696.61,323.14L704.57,207.93L712.54,306.72L720.5,262.06L728.46,285.4L736.42,313.87L744.38,337.62L752.35,340.9L760.31,309.67L768.27,311.53L776.23,309.92L784.2,322.81L792.16,235.94L800.12,258.79L808.08,347.23L816.04,229.63L824.01,251.77L831.97,257.79L839.93,212.24L847.89,280.86" style="fill:none;stroke:#7AC36A" />
<path d="M59.635,186.11L56.928,181.42L62.341,181.42Z" style="fill:#7AC36A" />
<path d="M67.597,266.52L64.891,261.83L70.303,261.83Z" style="fill:#7AC36A" />
<path d="M75.559,195.37L72.853,190.68L78.266,190.68Z" style="fill:#7AC36A" />
<path d="M83.521,122.68L80.815,117.99L86.228,117.99Z" style="fill:#7AC36A" />
<path d="M91.484,267.46L88.777,262.77L94.19,262.77Z" style="fill:#7AC36A" />
<path d="M99.446,240.53L96.739,235.84L102.15,235.84Z" style="fill:#7AC36A" />
<path d="M107.41,390.45L104.7,385.76L110.11,385.76Z" style="fill:#7AC36A" />
<path d="M115.37,180.78L112.66,176.1L118.08,176.1Z" style="fill:#7AC36A" />
<path d="M123.33,365.62L120.63,360.93L126.04,360.93Z" style="fill:#7AC36A" />
<path d="M131.29,237.97L128.59,233.29L134,233.29Z" style="fill:#7AC36A" />
<path d="M139.26,212.21L136.55,207.52L141.96,207.52Z" style="fill:#7AC36A" />
<path d="M147.22,344.57L144.51,339.88L149.93,339.88Z" style="fill:#7AC36A" />
<path d="M155.18,422.08L152.47,417.39L157.89,417.39Z" style="fill:#7AC36A" />
<path d="M163.14,231.38L160.44,226.69L165.85,226.69Z" style="fill:#7AC36A" />
<path d="M171.11,295.59L168.4,290.9L173.81,290.9Z" style="fill:#7AC36A" />
<path d="M179.07,216.88L176.36,212.2L181.77,212.2Z" style="fill:#7AC36A" />
<path d="M187.03,278.85L184.32,274.16L189.74,274.16Z" style="fill:#7AC36A" />
<path d="M194.99,313.59L192.29,308.9L197.7,308.9Z" style="fill:#7AC36A" />
<path d="M202.95,306.93L200.25,302.25L205.66,302.25Z" style="fill:#7AC36A" />
<path d="M210.92,308.07L208.21,303.39L213.62,303.39Z" style="fill:#7AC36A" />
<path d="M218.88,340.43L216.17,335.74L221.59,335.74Z" style="fill:#7AC36A" />
<path d="M226.84,305.68L224.13,300.99L229.55,300.99Z" style="fill:#7AC36A" />
<path d="M234.8,333.88L232.1,329.19L237.51,329.19Z" style="fill:#7AC36A" />
<path d="M242.77,286.16L240.06,281.47L245.47,281.47Z" style="fill:#7AC36A" />
<path d="M250.73,300L248.02,295.31L253.43,295.31Z" style="fill:#7AC36A" />
<path d="M258.69,212.33L255.98,207.64L261.4,207.64Z" style="fill:#7AC36A" />
<path d="M266.65,227L263.95,222.31L269.36,222.31Z" style="fill:#7AC36A" />
<path d="M274.61,316.93L271.91,312.24L277.32,312.24Z" style="fill:#7AC36A" />
<path d="M282.58,200.13L279.87,195.44L285.28,195.44Z" style="fill:#7AC36A" />
<path d="M290.54,317.48L287.83,312.79L293.25,312.79Z" style="fill:#7AC36A" />
<path d="M298.5,130.92L295.79,126.23L301.21,126.23Z" style="fill:#7AC36A" />
<path d="M306.46,185.6L303.76,180.92L309.17,180.92Z" style="fill:#7AC36A" />
<path d="M314.43,313.66L311.72,308.98L317.13,308.98Z" style="fill:#7AC36A" />
<path d="M322.39,329.83L319.68,325.14L325.09,325.14Z" style="fill:#7AC36A" />
<path d="M330.35,309.18L327.64,304.49L333.06,304.49Z" style="fill:#7AC36A" />
<path d="M338.31,279.88L335.61,275.2L341.02,275.2Z" style="fill:#7AC36A" />
<path d="M346.27,257.07L343.57,252.38L348.98,252.38Z" style="fill:#7AC36A" />
<path d="M354.24,311.31L351.53,306.62L356.94,306.62Z" style="fill:#7AC36A" />
<path d="M362.2,209.06L359.49,204.37L364.91,204.37Z" style="fill:#7AC36A" />
<path d="M370.16,259.83L367.45,255.14L372.87,255.14Z" style="fill:#7AC36A" />
<path d="M378.12,248.07L375.42,243.39L380.83,243.39Z" style="fill:#7AC36A" />
<path d="M386.09,249.26L383.38,244.57L388.79,244.57Z" style="fill:#7AC36A" />
<path d="M394.05,306.64L391.34,301.95L396.75,301.95Z" style="fill:#7AC36A" />
<path d="M402.01,191.67L399.3,186.98L404.72,186.98Z" style="fill:#7AC36A" />
<path d="M409.97,315.2L407.27,310.51L412.68,310.51Z" style="fill:#7AC36A" />
<path d="M417.93,151L415.23,146.31L420.64,146.31Z" style="fill:#7AC36A" />
<path d="M425.9,149.76L423.19,145.07L428.6,145.07Z" style="fill:#7AC36A" />
<path d="M433.86,357.29L431.15,352.6L436.57,352.6Z" style="fill:#7AC36A" />
<path d="M441.82,305.77L439.11,301.08L444.53,301.08Z" style="fill:#7AC36A" />
<path d="M449.78,214.75L447.08,210.07L452.49,210.07Z" style="fill:#7AC36A" />
<path d="M457.75,262.67L455.04,257.98L460.45,257.98Z" style="fill:#7AC36A" />
<path d="M465.71,312.52L463,307.84L468.41,307.84Z" style="fill:#7AC36A" />
<path d="M473.67,338.21L470.96,333.53L476.38,333.53Z" style="fill:#7AC36A" />
<path d="M481.63,339.69L478.93,335L484.34,335Z" style="fill:#7AC36A" />
<path d="M489.59,381.35L486.89,376.66L492.3,376.66Z" style="fill:#7AC36A" />
<path d="M497.56,554.27L494.85,549.58L500.26,549.58Z" style="fill:#7AC36A" />
<path d="M505.52,187.35L502.81,182.66L508.22,182.66Z" style="fill:#7AC36A" />
<path d="M513.48,391.22L510.77,386.53L516.19,386.53Z" style="fill:#7AC36A" />
<path d="M521.44,463.27L518.74,458.58L524.15,458.58Z" style="fill:#7AC36A" />
<path d="M529.41,221.44L526.7,216.75L532.11,216.75Z" style="fill:#7AC36A" />
<path d="M537.37,267.62L534.66,262.94L540.07,262.94Z" style="fill:#7AC36A" />
<path d="M545.33,264.96L542.62,260.28L548.04,260.28Z" style="fill:#7AC36A" />
<path d="M553.29,307.55L550.59,302.87L556,302.87Z" style="fill:#7AC36A" />
<path d="M561.25,165.33L558.55,160.64L563.96,160.64Z" style="fill:#7AC36A" />
<path d="M569.22,206.49L566.51,201.8L571.92,201.8Z" style="fill:#7AC36A" />
<path d="M577.18,205.67L574.47,200.99L579.88,200.99Z" style="fill:#7AC36A" />
<path d="M585.14,256.71L582.43,252.02L587.85,252.02Z" style="fill:#7AC36A" />
<path d="M593.1,176.35L590.4,171.66L595.81,171.66Z" style="fill:#7AC36A" />
<path d="M601.07,191.83L598.36,187.14L603.77,187.14Z" style="fill:#7AC36A" />
<path d="M609.03,224.35L606.32,219.66L611.73,219.66Z" style="fill:#7AC36A" />
<path d="M616.99,248.61L614.28,243.92L619.7,243.92Z" style="fill:#7AC36A" />
<path d="M624.95,279.99L622.25,275.3L627.66,275.3Z" style="fill:#7AC36A" />
<path d="M632.91,263.96L630.21,259.27L635.62,259.27Z" style="fill:#7AC36A" />
<path d="M640.88,240.28L638.17,235.59L643.58,235.59Z" style="fill:#7AC36A" />
<path d="M648.84,262.36L646.13,257.67L651.54,257.67Z" style="fill:#7AC36A" />
<path d="M656.8,283.17L654.09,278.48L659.51,278.48Z" style="fill:#7AC36A" />
<path d="M664.76,277.64L662.06,272.95L667.47,272.95Z" style="fill:#7AC36A" />
<path d="M672.73,171.14L670.02,166.45L675.43,166.45Z" style="fill:#7AC36A" />
<path d="M680.69,378.34L677.98,373.65L683.39,373.65Z" style="fill:#7AC36A" />
<path d="M688.65,197.72L685.94,193.03L691.36,193.03Z" style="fill:#7AC36A" />
<path d="M696.61,326.26L693.91,321.58L699.32,321.58Z" style="fill:#7AC36A" />
<path d="M704.57,211.06L701.87,206.37L707.28,206.37Z" style="fill:#7AC36A" />
<path d="M712.54,309.85L709.83,305.16L715.24,305.16Z" style="fill:#7AC36A" />
<path d="M720.5,265.18L717.79,260.5L723.2,260.5Z" style="fill:#7AC36A" />
<path d="M728.46,288.52L725.75,283.83L731.17,283.83Z" style="fill:#7AC36A" />
<path d="M736.42,316.99L733.72,312.3L739.13,312.3Z" style="fill:#7AC36A" />
<path d="M744.38,340.74L741.68,336.05L747.09,336.05Z" style="fill:#7AC36A" />
<path d="M752.35,344.02L749.64,339.34L755.05,339.34Z" style="fill:#7AC36A" />
<path d="M760.31,312.79L757.6,308.1L763.02,308.1Z" style="fill:#7AC36A" />
<path d="M768.27,314.65L765.57,309.97L770.98,309.97Z" style="fill:#7AC36A" />
<path d="M776.23,313.04L773.53,308.35L778.94,308.35Z" style="fill:#7AC36A" />
<path d="M784.2,325.94L781.49,321.25L786.9,321.25Z" style="fill:#7AC36A" />
<path d="M792.16,239.07L789.45,234.38L794.86,234.38Z" style="fill:#7AC36A" />
<path d="M800.12,261.92L797.41,257.23L802.83,257.23Z" style="fill:#7AC36A" />
<path d="M808.08,350.35L805.38,345.67L810.79,345.67Z" style="fill:#7AC36A" />
<path d="M816.04,232.75L813.34,228.06L818.75,228.06Z" style="fill:#7AC36A" />
<path d="M824.01,254.89L821.3,250.2L826.71,250.2Z" style="fill:#7AC36A" />
<path d="M831.97,260.91L829.26,256.22L834.68,256.22Z" style="fill:#7AC36A" />
<path d="M839.93,215.36L837.23,210.67L842.64,210.67Z" style="fill:#7AC36A" />
<path d="M847.89,283.98L845.19,279.29L850.6,279.29Z" style="fill:#7AC36A" />
<path d="M59.635,42.827L67.597,42.96L75.559,42.827L83.521,42.842L91.484,42.872L99.446,42.99L107.41,42.842L115.37,42.842L123.33,42.931L131.29,42.783L139.26,42.753L147.22,42.768L155.18,42.724L163.14,43.182L171.11,42.783L179.07,42.768L187.03,42.827L194.99,42.753L202.95,42.739L210.92,42.768L218.88,42.768L226.84,42.783L234.8,42.753L242.77,42.783L250.73,43.33L258.69,42.827L266.65,42.827L274.61,42.813L282.58,42.798L290.54,42.798L298.5,42.783L306.46,42.827L314.43,42.813L322.39,42.768L330.35,42.739L338.31,42.768L346.27,42.798L354.24,42.813L362.2,42.768L370.16,42.857L378.12,42.783L386.09,42.798L394.05,42.768L402.01,42.813L409.97,42.768L417.93,42.842L425.9,42.872L433.86,42.709L441.82,42.768L449.78,42.739L457.75,42.842L465.71,42.753L473.67,42.798L481.63,42.739L489.59,42.768L497.56,42.753L505.52,42.753L513.48,43.419L521.44,42.753L529.41,42.739L537.37,42.946L545.33,42.798L553.29,42.768L561.25,43.197L569.22,42.901L577.18,42.842L585.14,43.034L593.1,43.315L601.07,42.739L609.03,42.753L616.99,42.739L624.95,42.724L632.91,42.753L640.88,42.753L648.84,42.753L656.8,42.753L664.76,42.753L672.73,42.739L680.69,42.753L688.65,42.768L696.61,42.753L704.57,42.768L712.54,42.753L720.5,42.739L728.46,42.768L736.42,42.739L744.38,42.724L752.35,42.739L760.31,42.753L768.27,42.724L776.23,42.739L784.2,42.739L792.16,42.753L800.12,42.739L808.08,42.739L816.04,42.724L824.01,42.798L831.97,42.753L839.93,42.739L847.89,42.739" style="fill:none;stroke:#5A9BD4" />
<path d="M59.635,45.952L56.928,41.265L62.341,41.265Z" style="fill:#5A9BD4" />
<path d="M67.597,46.085L64.891,41.398L70.303,41.398Z" style="fill:#5A9BD4" />
<path d="M75.559,45.952L72.853,41.265L78.266,41.265Z" style="fill:#5A9BD4" />
<path d="M83.521,45.967L80.815,41.28L86.228,41.28Z" style="fill:#5A9BD4" />
<path d="M91.484,45.997L88.777,41.309L94.19,41.309Z" style="fill:#5A9BD4" />
<path d="M99.446,46.115L96.739,41.427L102.15,41.427Z" style="fill:#5A9BD4" />
<path d="M107.41,45.967L104.7,41.28L110.11,41.28Z" style="fill:#5A9BD4" />
<path d="M115.37,45.967L112.66,41.28L118.08,41.28Z" style="fill:#5A9BD4" />
<path d="M123.33,46.056L120.63,41.368L126.04,41.368Z" style="fill:#5A9BD4" />
<path d="M131.29,45.908L128.59,41.22L134,41.22Z" style="fill:#5A9BD4" />
<path d="M139.26,45.878L136.55,41.191L141.96,41.191Z" style="fill:#5A9BD4" />
<path d="M147.22,45.893L144.51,41.206L149.93,41.206Z" style="fill:#5A9BD4" />
<path d="M155.18,45.849L152.47,41.161L157.89,41.161Z" style="fill:#5A9BD4" />
<path d="M163.14,46.307L160.44,41.62L165.85,41.62Z" style="fill:#5A9BD4" />
<path d="M171.11,45.908L168.4,41.22L173.81,41.22Z" style="fill:#5A9BD4" />
<path d="M179.07,45.893L176.36,41.206L181.77,41.206Z" style="fill:#5A9BD4" />
<path d="M187.03,45.952L184.32,41.265L189.74,41.265Z" style="fill:#5A9BD4" />
<path d="M194.99,45.878L192.29,41.191L197.7,41.191Z" style="fill:#5A9BD4" />
<path d="M202.95,45.864L200.25,41.176L205.66,41.176Z" style="fill:#5A9BD4" />
<path d="M210.92,45.893L208.21,41.206L213.62,41.206Z" style="fill:#5A9BD4" />
<path d="M218.88,45.893L216.17,41.206L221.59,41.206Z" style="fill:#5A9BD4" />
<path d="M226.84,45.908L224.13,41.22L229.55,41.22Z" style="fill:#5A9BD4" />
<path d="M234.8,45.878L232.1,41.191L237.51,41.191Z" style="fill:#5A9BD4" />
<path d="M242.77,45.908L240.06,41.22L245.47,41.22Z" style="fill:#5A9BD4" />
<path d="M250.73,46.455L248.02,41.768L253.43,41.768Z" style="fill:#5A9BD4" />
<path d="M258.69,45.952L255.98,41.265L261.4,41.265Z" style="fill:#5A9BD4" />
<path d="M266.65,45.952L263.95,41.265L269.36,41.265Z" style="fill:#5A9BD4" />
<path d="M274.61,45.938L271.91,41.25L277.32,41.25Z" style="fill:#5A9BD4" />
<path d="M282.58,45.923L279.87,41.235L285.28,41.235Z" style="fill:#5A9BD4" />
<path d="M290.54,45.923L287.83,41.235L293.25,41.235Z" style="fill:#5A9BD4" />
<path d="M298.5,45.908L295.79,41.22L301.21,41.22Z" style="fill:#5A9BD4" />
<path d="M306.46,45.952L303.76,41.265L309.17,41.265Z" style="fill:#5A9BD4" />
<path d="M314.43,45.938L311.72,41.25L317.13,41.25Z" style="fill:#5A9BD4" />
<path d="M322.39,45.893L319.68,41.206L325.09,41.206Z" style="fill:#5A9BD4" />
<path d="M330.35,45.864L327.64,41.176L333.06,41.176Z" style="fill:#5A9BD4" />
<path d="M338.31,45.893L335.61,41.206L341.02,41.206Z" style="fill:#5A9BD4" />
<path d="M346.27,45.923L343.57,41.235L348.98,41.235Z" style="fill:#5A9BD4" />
<path d="M354.24,45.938L351.53,41.25L356.94,41.25Z" style="fill:#5A9BD4" />
<path d="M362.2,45.893L359.49,41.206L364.91,41.206Z" style="fill:#5A9BD4" />
<path d="M370.16,45.982L367.45,41.294L372.87,41.294Z" style="fill:#5A9BD4" />
<path d="M378.12,45.908L375.42,41.22L380.83,41.22Z" style="fill:#5A9BD4" />
<path d="M386.09,45.923L383.38,41.235L388.79,41.235Z" style="fill:#5A9BD4" />
<path d="M394.05,45.893L391.34,41.206L396.75,41.206Z" style="fill:#5A9BD4" />
<path d="M402.01,45.938L399.3,41.25L404.72,41.25Z" style="fill:#5A9BD4" />
<path d="M409.97,45.893L407.27,41.206L412.68,41.206Z" style="fill:#5A9BD4" />
<path d="M417.93,45.967L415.23,41.28L420.64,41.28Z" style="fill:#5A9BD4" />
<path d="M425.9,45.997L423.19,41.309L428.6,41.309Z" style="fill:#5A9BD4" />
<path d="M433.86,45.834L431.15,41.146L436.57,41.146Z" style="fill:#5A9BD4" />
<path d="M441.82,45.893L439.11,41.206L444.53,41.206Z" style="fill:#5A9BD4" />
<path d="M449.78,45.864L447.08,41.176L452.49,41.176Z" style="fill:#5A9BD4" />
<path d="M457.75,45.967L455.04,41.28L460.45,41.28Z" style="fill:#5A9BD4" />
<path d="M465.71,45.878L463,41.191L468.41,41.191Z" style="fill:#5A9BD4" />
<path d="M473.67,45.923L470.96,41.235L476.38,41.235Z" style="fill:#5A9BD4" />
<path d="M481.63,45.864L478.93,41.176L484.34,41.176Z" style="fill:#5A9BD4" />
<path d="M489.59,45.893L486.89,41.206L492.3,41.206Z" style="fill:#5A9BD4" />
<path d="M497.56,45.878L494.85,41.191L500.26,41.191Z" style="fill:#5A9BD4" />
<path d="M505.52,45.878L502.81,41.191L508.22,41.191Z" style="fill:#5A9BD4" />
<path d="M513.48,46.544L510.77,41.856L516.19,41.856Z" style="fill:#5A9BD4" />
<path d="M521.44,45.878L518.74,41.191L524.15,41.191Z" style="fill:#5A9BD4" />
<path d="M529.41,45.864L526.7,41.176L532.11,41.176Z" style="fill:#5A9BD4" />
<path d="M537.37,46.071L534.66,41.383L540.07,41.383Z" style="fill:#5A9BD4" />
<path d="M545.33,45.923L542.62,41.235L548.04,41.235Z" style="fill:#5A9BD4" />
<path d="M553.29,45.893L550.59,41.206L556,41.206Z" style="fill:#5A9BD4" />
<path d="M561.25,46.322L558.55,41.635L563.96,41.635Z" style="fill:#5A9BD4" />
<path d="M569.22,46.026L566.51,41.339L571.92,41.339Z" style="fill:#5A9BD4" />
<path d="M577.18,45.967L574.47,41.28L579.88,41.28Z" style="fill:#5A9BD4" />
<path d="M585.14,46.159L582.43,41.472L587.85,41.472Z" style="fill:#5A9BD4" />
<path d="M593.1,46.44L590.4,41.753L595.81,41.753Z" style="fill:#5A9BD4" />
<path d="M601.07,45.864L598.36,41.176L603.77,41.176Z" style="fill:#5A9BD4" />
<path d="M609.03,45.878L606.32,41.191L611.73,41.191Z" style="fill:#5A9BD4" />
<path d="M616.99,45.864L614.28,41.176L619.7,41.176Z" style="fill:#5A9BD4" />
<path d="M624.95,45.849L622.25,41.161L627.66,41.161Z" style="fill:#5A9BD4" />
<path d="M632.91,45.878L630.21,41.191L635.62,41.191Z" style="fill:#5A9BD4" />
<path d="M640.88,45.878L638.17,41.191L643.58,41.191Z" style="fill:#5A9BD4" />
<path d="M648.84,45.878L646.13,41.191L651.54,41.191Z" style="fill:#5A9BD4" />
<path d="M656.8,45.878L654.09,41.191L659.51,41.191Z" style="fill:#5A9BD4" />
<path d="M664.76,45.878L662.06,41.191L667.47,41.191Z" style="fill:#5A9BD4" />
<path d="M672.73,45.864L670.02,41.176L675.43,41.176Z" style="fill:#5A9BD4" />
<path d="M680.69,45.878L677.98,41.191L683.39,41.191Z" style="fill:#5A9BD4" />
<path d="M688.65,45.893L685.94,41.206L691.36,41.206Z" style="fill:#5A9BD4" />
<path d="M696.61,45.878L693.91,41.191L699.32,41.191Z" style="fill:#5A9BD4" />
<path d="M704.57,45.893L701.87,41.206L707.28,41.206Z" style="fill:#5A9BD4" />
<path d="M712.54,45.878L709.83,41.191L715.24,41.191Z" style="fill:#5A9BD4" />
<path d="M720.5,45.864L717.79,41.176L723.2,41.176Z" style="fill:#5A9BD4" />
<path d="M728.46,45.893L725.75,41.206L731.17,41.206Z" style="fill:#5A9BD4" />
<path d="M736.42,45.864L733.72,41.176L739.13,41.176Z" style="fill:#5A9BD4" />
<path d="M744.38,45.849L741.68,41.161L747.09,41.161Z" style="fill:#5A9BD4" />
<path d="M752.35,45.864L749.64,41.176L755.05,41.176Z" style="fill:#5A9BD4" />
<path d="M760.31,45.878L757.6,41.191L763.02,41.191Z" style="fill:#5A9BD4" />
<path d="M768.27,45.849L765.57,41.161L770.98,41.161Z" style="fill:#5A9BD4" />
<path d="M776.23,45.864L773.53,41.176L778.94,41.176Z" style="fill:#5A9BD4" />
<path d="M784.2,45.864L781.49,41.176L786.9,41.176Z" style="fill:#5A9BD4" />
<path d="M792.16,45.878L789.45,41.191L794.86,41.191Z" style="fill:#5A9BD4" />
<path d="M800.12,45.864L797.41,41.176L802.83,41.176Z" style="fill:#5A9BD4" />
<path d="M808.08,45.864L805.38,41.176L810.79,41.176Z" style="fill:#5A9BD4" />
<path d="M816.04,45.849L813.34,41.161L818.75,41.161Z" style="fill:#5A9BD4" />
<path d="M824.01,45.923L821.3,41.235L826.71,41.235Z" style="fill:#5A9BD4" />
<path d="M831.97,45.878L829.26,41.191L834.68,41.191Z" style="fill:#5A9BD4" />
<path d="M839.93,45.864L837.23,41.176L842.64,41.176Z" style="fill:#5A9BD4" />
<path d="M847.89,45.864L845.19,41.176L850.6,41.176Z" style="fill:#5A9BD4" />
<path d="M830.39,65.668L850.39,65.668" style="fill:none;stroke:#F15A60" />
<path d="M840.39,68.793L837.69,64.105L843.1,64.105Z" style="fill:#F15A60" />
<text x="790.07" y="-63.181" transform="scale(1, -1)"
	style="font-family:Liberation Serif;font-variant:normal;font-weight:normal;font-style:normal;font-size:12px">to-main</text>
<path d="M830.39,55.484L850.39,55.484" style="fill:none;stroke:#7AC36A" />
<path d="M840.39,58.609L837.69,53.922L843.1,53.922Z" style="fill:#7AC36A" />
<text x="763.42" y="-52.997" transform="scale(1, -1)"
	style="font-family:Liberation Serif;font-variant:normal;font-weight:normal;font-style:normal;font-size:12px">to-fronted-up</text>
<path d="M830.39,45.301L850.39,45.301" style="fill:none;stroke:#5A9BD4" />
<path d="M840.39,48.426L837.69,43.738L843.1,43.738Z" style="fill:#5A9BD4" />
<text x="721.44" y="-42.813" transform="scale(1, -1)"
	style="font-family:Liberation Serif;font-variant:normal;font-weight:normal;font-style:normal;font-size:12px">fronted-up-main-delta</text>
</g>
</svg>
