<?xml version="1.0"?>
<!-- Generated by SVGo and Plotinum VG -->
<svg width="850.39pt" height="566.93pt" viewBox="0 0 850.39 566.93"
	xmlns="http://www.w3.org/2000/svg"
	xmlns:xlink="http://www.w3.org/1999/xlink">
<g transform="scale(1, -1) translate(0, -566.93)">
<path d="M0,0L850.39,0L850.39,566.93L0,566.93Z" style="fill:#FFFFFF" />
<text x="251.76" y="-557.54" transform="scale(1, -1)"
	style="font-family:Liberation Serif;font-variant:normal;font-weight:normal;font-style:normal;font-size:12px">Percentiles - Main (Nearest Rank): segfault-localhost-zeroload-emptydb</text>
<text x="427.28" y="-3.9023" transform="scale(1, -1)"
	style="font-family:Liberation Serif;font-variant:normal;font-weight:normal;font-style:normal;font-size:12px">Percentile</text>
<text x="204.96" y="-16.541" transform="scale(1, -1)"
	style="font-family:Liberation Serif;font-variant:normal;font-weight:normal;font-style:normal;font-size:10px">20</text>
<text x="521.43" y="-16.541" transform="scale(1, -1)"
	style="font-family:Liberation Serif;font-variant:normal;font-weight:normal;font-style:normal;font-size:10px">60</text>
<text x="835.39" y="-16.541" transform="scale(1, -1)"
	style="font-family:Liberation Serif;font-variant:normal;font-weight:normal;font-style:normal;font-size:10px">100</text>
<path d="M209.96,24.363L209.96,32.363" style="fill:none;stroke:#000000;stroke-width:0.5" />
<path d="M526.43,24.363L526.43,32.363" style="fill:none;stroke:#000000;stroke-width:0.5" />
<path d="M842.89,24.363L842.89,32.363" style="fill:none;stroke:#000000;stroke-width:0.5" />
<path d="M130.84,28.363L130.84,32.363" style="fill:none;stroke:#000000;stroke-width:0.5" />
<path d="M289.07,28.363L289.07,32.363" style="fill:none;stroke:#000000;stroke-width:0.5" />
<path d="M368.19,28.363L368.19,32.363" style="fill:none;stroke:#000000;stroke-width:0.5" />
<path d="M447.31,28.363L447.31,32.363" style="fill:none;stroke:#000000;stroke-width:0.5" />
<path d="M605.54,28.363L605.54,32.363" style="fill:none;stroke:#000000;stroke-width:0.5" />
<path d="M684.66,28.363L684.66,32.363" style="fill:none;stroke:#000000;stroke-width:0.5" />
<path d="M763.78,28.363L763.78,32.363" style="fill:none;stroke:#000000;stroke-width:0.5" />
<path d="M59.635,32.363L842.89,32.363" style="fill:none;stroke:#000000;stroke-width:0.5" />
<g transform="rotate(90)">
<text x="265.43" y="9.3867" transform="scale(1, -1)"
	style="font-family:Liberation Serif;font-variant:normal;font-weight:normal;font-style:normal;font-size:12px">Duration: ms</text>
</g>
<text x="15.885" y="-124.26" transform="scale(1, -1)"
	style="font-family:Liberation Serif;font-variant:normal;font-weight:normal;font-style:normal;font-size:10px">10000</text>
<text x="15.885" y="-298.45" transform="scale(1, -1)"
	style="font-family:Liberation Serif;font-variant:normal;font-weight:normal;font-style:normal;font-size:10px">20000</text>
<text x="15.885" y="-472.63" transform="scale(1, -1)"
	style="font-family:Liberation Serif;font-variant:normal;font-weight:normal;font-style:normal;font-size:10px">30000</text>
<path d="M43.385,126.54L51.385,126.54" style="fill:none;stroke:#000000;stroke-width:0.5" />
<path d="M43.385,300.73L51.385,300.73" style="fill:none;stroke:#000000;stroke-width:0.5" />
<path d="M43.385,474.92L51.385,474.92" style="fill:none;stroke:#000000;stroke-width:0.5" />
<path d="M47.385,56.87L51.385,56.87" style="fill:none;stroke:#000000;stroke-width:0.5" />
<path d="M47.385,91.707L51.385,91.707" style="fill:none;stroke:#000000;stroke-width:0.5" />
<path d="M47.385,161.38L51.385,161.38" style="fill:none;stroke:#000000;stroke-width:0.5" />
<path d="M47.385,196.22L51.385,196.22" style="fill:none;stroke:#000000;stroke-width:0.5" />
<path d="M47.385,231.06L51.385,231.06" style="fill:none;stroke:#000000;stroke-width:0.5" />
<path d="M47.385,265.89L51.385,265.89" style="fill:none;stroke:#000000;stroke-width:0.5" />
<path d="M47.385,335.57L51.385,335.57" style="fill:none;stroke:#000000;stroke-width:0.5" />
<path d="M47.385,370.4L51.385,370.4" style="fill:none;stroke:#000000;stroke-width:0.5" />
<path d="M47.385,405.24L51.385,405.24" style="fill:none;stroke:#000000;stroke-width:0.5" />
<path d="M47.385,440.08L51.385,440.08" style="fill:none;stroke:#000000;stroke-width:0.5" />
<path d="M47.385,509.75L51.385,509.75" style="fill:none;stroke:#000000;stroke-width:0.5" />
<path d="M47.385,544.59L51.385,544.59" style="fill:none;stroke:#000000;stroke-width:0.5" />
<path d="M51.385,42.709L51.385,551.14" style="fill:none;stroke:#000000;stroke-width:0.5" />
<path d="M209.96,42.709L209.96,551.14" style="fill:none;stroke:#808080;stroke-width:0.25" />
<path d="M526.43,42.709L526.43,551.14" style="fill:none;stroke:#808080;stroke-width:0.25" />
<path d="M842.89,42.709L842.89,551.14" style="fill:none;stroke:#808080;stroke-width:0.25" />
<path d="M59.635,126.54L842.89,126.54" style="fill:none;stroke:#808080;stroke-width:0.25" />
<path d="M59.635,300.73L842.89,300.73" style="fill:none;stroke:#808080;stroke-width:0.25" />
<path d="M59.635,474.92L842.89,474.92" style="fill:none;stroke:#808080;stroke-width:0.25" />
<path d="M59.635,42.709L67.546,52.481L75.458,74.55L83.37,76.066L91.282,92.526L99.193,99.912L107.11,105.35L115.02,111.13L122.93,116.84L130.84,117.43L138.75,118.97L146.66,123.98L154.58,124.28L162.49,128.32L170.4,131.18L178.31,133.96L186.22,140.44L194.13,141.33L202.05,144.52L209.96,146.89L217.87,148.27L225.78,148.3L233.69,151.28L241.6,151.99L249.52,153.75L257.43,159.15L265.34,162.57L273.25,165.58L281.16,170.33L289.07,172.48L296.99,178.56L304.9,179.88L312.81,181.31L320.72,181.33L328.63,190.45L336.54,191.15L344.46,191.83L352.37,198.48L360.28,200.35L368.19,201.03L376.1,204.21L384.01,205.63L391.93,206.81L399.84,207.33L407.75,207.59L415.66,209.2L423.57,210.33L431.48,210.68L439.4,211.97L447.31,213.18L455.22,213.29L463.13,225.31L471.04,226.65L478.96,227.94L486.87,228.11L494.78,231.84L502.69,232.8L510.6,235.32L518.51,238.13L526.43,246.42L534.34,250.97L542.25,258.32L550.16,258.42L558.07,259.47L565.98,259.83L573.9,260.55L581.81,261.16L589.72,262.5L597.63,263.26L605.54,264.9L613.45,266.42L621.37,266.73L629.28,267.03L637.19,267.67L645.1,267.67L653.01,268.94L660.92,269.53L668.84,271.54L676.75,271.69L684.66,272.18L692.57,282.21L700.48,282.58L708.39,286.78L716.31,291.57L724.22,296.62L732.13,298.41L740.04,299.25L747.95,299.67L755.86,303.52L763.78,304.14L771.69,310.97L779.6,319.18L787.51,328.72L795.42,343.91L803.34,347.45L811.25,358.09L819.16,358.32L827.07,395.49L834.98,443.95L842.89,551.14" style="fill:none;stroke:#F15A60" />
<path d="M59.635,45.834L56.928,41.146L62.341,41.146Z" style="fill:#F15A60" />
<path d="M67.546,55.606L64.84,50.918L70.253,50.918Z" style="fill:#F15A60" />
<path d="M75.458,77.675L72.752,72.988L78.165,72.988Z" style="fill:#F15A60" />
<path d="M83.37,79.191L80.664,74.503L86.076,74.503Z" style="fill:#F15A60" />
<path d="M91.282,95.651L88.575,90.964L93.988,90.964Z" style="fill:#F15A60" />
<path d="M99.193,103.04L96.487,98.349L101.9,98.349Z" style="fill:#F15A60" />
<path d="M107.11,108.47L104.4,103.78L109.81,103.78Z" style="fill:#F15A60" />
<path d="M115.02,114.25L112.31,109.57L117.72,109.57Z" style="fill:#F15A60" />
<path d="M122.93,119.97L120.22,115.28L125.63,115.28Z" style="fill:#F15A60" />
<path d="M130.84,120.56L128.13,115.87L133.55,115.87Z" style="fill:#F15A60" />
<path d="M138.75,122.09L136.05,117.41L141.46,117.41Z" style="fill:#F15A60" />
<path d="M146.66,127.11L143.96,122.42L149.37,122.42Z" style="fill:#F15A60" />
<path d="M154.58,127.41L151.87,122.72L157.28,122.72Z" style="fill:#F15A60" />
<path d="M162.49,131.45L159.78,126.76L165.19,126.76Z" style="fill:#F15A60" />
<path d="M170.4,134.3L167.69,129.62L173.1,129.62Z" style="fill:#F15A60" />
<path d="M178.31,137.09L175.6,132.4L181.02,132.4Z" style="fill:#F15A60" />
<path d="M186.22,143.57L183.52,138.88L188.93,138.88Z" style="fill:#F15A60" />
<path d="M194.13,144.46L191.43,139.77L196.84,139.77Z" style="fill:#F15A60" />
<path d="M202.05,147.65L199.34,142.96L204.75,142.96Z" style="fill:#F15A60" />
<path d="M209.96,150.01L207.25,145.33L212.66,145.33Z" style="fill:#F15A60" />
<path d="M217.87,151.39L215.16,146.7L220.58,146.7Z" style="fill:#F15A60" />
<path d="M225.78,151.43L223.07,146.74L228.49,146.74Z" style="fill:#F15A60" />
<path d="M233.69,154.4L230.99,149.72L236.4,149.72Z" style="fill:#F15A60" />
<path d="M241.6,155.12L238.9,150.43L244.31,150.43Z" style="fill:#F15A60" />
<path d="M249.52,156.88L246.81,152.19L252.22,152.19Z" style="fill:#F15A60" />
<path d="M257.43,162.28L254.72,157.59L260.13,157.59Z" style="fill:#F15A60" />
<path d="M265.34,165.69L262.63,161L268.05,161Z" style="fill:#F15A60" />
<path d="M273.25,168.7L270.54,164.02L275.96,164.02Z" style="fill:#F15A60" />
<path d="M281.16,173.46L278.46,168.77L283.87,168.77Z" style="fill:#F15A60" />
<path d="M289.07,175.6L286.37,170.91L291.78,170.91Z" style="fill:#F15A60" />
<path d="M296.99,181.68L294.28,176.99L299.69,176.99Z" style="fill:#F15A60" />
<path d="M304.9,183.01L302.19,178.32L307.6,178.32Z" style="fill:#F15A60" />
<path d="M312.81,184.43L310.1,179.75L315.52,179.75Z" style="fill:#F15A60" />
<path d="M320.72,184.45L318.01,179.76L323.43,179.76Z" style="fill:#F15A60" />
<path d="M328.63,193.58L325.93,188.89L331.34,188.89Z" style="fill:#F15A60" />
<path d="M336.54,194.28L333.84,189.59L339.25,189.59Z" style="fill:#F15A60" />
<path d="M344.46,194.95L341.75,190.27L347.16,190.27Z" style="fill:#F15A60" />
<path d="M352.37,201.61L349.66,196.92L355.07,196.92Z" style="fill:#F15A60" />
<path d="M360.28,203.47L357.57,198.78L362.99,198.78Z" style="fill:#F15A60" />
<path d="M368.19,204.15L365.48,199.46L370.9,199.46Z" style="fill:#F15A60" />
<path d="M376.1,207.34L373.4,202.65L378.81,202.65Z" style="fill:#F15A60" />
<path d="M384.01,208.75L381.31,204.06L386.72,204.06Z" style="fill:#F15A60" />
<path d="M391.93,209.93L389.22,205.25L394.63,205.25Z" style="fill:#F15A60" />
<path d="M399.84,210.46L397.13,205.77L402.54,205.77Z" style="fill:#F15A60" />
<path d="M407.75,210.72L405.04,206.03L410.46,206.03Z" style="fill:#F15A60" />
<path d="M415.66,212.32L412.96,207.63L418.37,207.63Z" style="fill:#F15A60" />
<path d="M423.57,213.45L420.87,208.77L426.28,208.77Z" style="fill:#F15A60" />
<path d="M431.48,213.8L428.78,209.11L434.19,209.11Z" style="fill:#F15A60" />
<path d="M439.4,215.09L436.69,210.4L442.1,210.4Z" style="fill:#F15A60" />
<path d="M447.31,216.31L444.6,211.62L450.01,211.62Z" style="fill:#F15A60" />
<path d="M455.22,216.41L452.51,211.73L457.93,211.73Z" style="fill:#F15A60" />
<path d="M463.13,228.43L460.43,223.75L465.84,223.75Z" style="fill:#F15A60" />
<path d="M471.04,229.77L468.34,225.09L473.75,225.09Z" style="fill:#F15A60" />
<path d="M478.96,231.06L476.25,226.38L481.66,226.38Z" style="fill:#F15A60" />
<path d="M486.87,231.24L484.16,226.55L489.57,226.55Z" style="fill:#F15A60" />
<path d="M494.78,234.96L492.07,230.28L497.48,230.28Z" style="fill:#F15A60" />
<path d="M502.69,235.92L499.98,231.24L505.4,231.24Z" style="fill:#F15A60" />
<path d="M510.6,238.45L507.9,233.76L513.31,233.76Z" style="fill:#F15A60" />
<path d="M518.51,241.25L515.81,236.57L521.22,236.57Z" style="fill:#F15A60" />
<path d="M526.43,249.54L523.72,244.86L529.13,244.86Z" style="fill:#F15A60" />
<path d="M534.34,254.09L531.63,249.4L537.04,249.4Z" style="fill:#F15A60" />
<path d="M542.25,261.44L539.54,256.75L544.96,256.75Z" style="fill:#F15A60" />
<path d="M550.16,261.55L547.45,256.86L552.87,256.86Z" style="fill:#F15A60" />
<path d="M558.07,262.59L555.37,257.9L560.78,257.9Z" style="fill:#F15A60" />
<path d="M565.98,262.96L563.28,258.27L568.69,258.27Z" style="fill:#F15A60" />
<path d="M573.9,263.67L571.19,258.98L576.6,258.98Z" style="fill:#F15A60" />
<path d="M581.81,264.28L579.1,259.59L584.51,259.59Z" style="fill:#F15A60" />
<path d="M589.72,265.62L587.01,260.93L592.43,260.93Z" style="fill:#F15A60" />
<path d="M597.63,266.39L594.92,261.7L600.34,261.7Z" style="fill:#F15A60" />
<path d="M605.54,268.03L602.84,263.34L608.25,263.34Z" style="fill:#F15A60" />
<path d="M613.45,269.54L610.75,264.85L616.16,264.85Z" style="fill:#F15A60" />
<path d="M621.37,269.85L618.66,265.17L624.07,265.17Z" style="fill:#F15A60" />
<path d="M629.28,270.15L626.57,265.46L631.98,265.46Z" style="fill:#F15A60" />
<path d="M637.19,270.8L634.48,266.11L639.9,266.11Z" style="fill:#F15A60" />
<path d="M645.1,270.8L642.39,266.11L647.81,266.11Z" style="fill:#F15A60" />
<path d="M653.01,272.07L650.31,267.38L655.72,267.38Z" style="fill:#F15A60" />
<path d="M660.92,272.66L658.22,267.97L663.63,267.97Z" style="fill:#F15A60" />
<path d="M668.84,274.66L666.13,269.97L671.54,269.97Z" style="fill:#F15A60" />
<path d="M676.75,274.82L674.04,270.13L679.45,270.13Z" style="fill:#F15A60" />
<path d="M684.66,275.31L681.95,270.62L687.37,270.62Z" style="fill:#F15A60" />
<path d="M692.57,285.34L689.86,280.65L695.28,280.65Z" style="fill:#F15A60" />
<path d="M700.48,285.71L697.78,281.02L703.19,281.02Z" style="fill:#F15A60" />
<path d="M708.39,289.9L705.69,285.22L711.1,285.22Z" style="fill:#F15A60" />
<path d="M716.31,294.69L713.6,290.01L719.01,290.01Z" style="fill:#F15A60" />
<path d="M724.22,299.74L721.51,295.06L726.92,295.06Z" style="fill:#F15A60" />
<path d="M732.13,301.54L729.42,296.85L734.84,296.85Z" style="fill:#F15A60" />
<path d="M740.04,302.37L737.34,297.69L742.75,297.69Z" style="fill:#F15A60" />
<path d="M747.95,302.79L745.25,298.11L750.66,298.11Z" style="fill:#F15A60" />
<path d="M755.86,306.64L753.16,301.95L758.57,301.95Z" style="fill:#F15A60" />
<path d="M763.78,307.27L761.07,302.58L766.48,302.58Z" style="fill:#F15A60" />
<path d="M771.69,314.1L768.98,309.41L774.39,309.41Z" style="fill:#F15A60" />
<path d="M779.6,322.3L776.89,317.61L782.31,317.61Z" style="fill:#F15A60" />
<path d="M787.51,331.85L784.81,327.16L790.22,327.16Z" style="fill:#F15A60" />
<path d="M795.42,347.04L792.72,342.35L798.13,342.35Z" style="fill:#F15A60" />
<path d="M803.34,350.57L800.63,345.88L806.04,345.88Z" style="fill:#F15A60" />
<path d="M811.25,361.21L808.54,356.53L813.95,356.53Z" style="fill:#F15A60" />
<path d="M819.16,361.44L816.45,356.75L821.86,356.75Z" style="fill:#F15A60" />
<path d="M827.07,398.61L824.36,393.93L829.78,393.93Z" style="fill:#F15A60" />
<path d="M834.98,447.07L832.28,442.38L837.69,442.38Z" style="fill:#F15A60" />
<path d="M842.89,554.27L840.19,549.58L845.6,549.58Z" style="fill:#F15A60" />
<path d="M830.39,45.301L850.39,45.301" style="fill:none;stroke:#F15A60" />
<path d="M840.39,48.426L837.69,43.738L843.1,43.738Z" style="fill:#F15A60" />
<text x="790.07" y="-42.813" transform="scale(1, -1)"
	style="font-family:Liberation Serif;font-variant:normal;font-weight:normal;font-style:normal;font-size:12px">to-main</text>
</g>
</svg>
