<?xml version="1.0"?>
<!-- Generated by SVGo and Plotinum VG -->
<svg width="850.39pt" height="566.93pt" viewBox="0 0 850.39 566.93"
	xmlns="http://www.w3.org/2000/svg"
	xmlns:xlink="http://www.w3.org/1999/xlink">
<g transform="scale(1, -1) translate(0, -566.93)">
<path d="M0,0L850.39,0L850.39,566.93L0,566.93Z" style="fill:#FFFFFF" />
<text x="274.87" y="-557.54" transform="scale(1, -1)"
	style="font-family:Liberation Serif;font-variant:normal;font-weight:normal;font-style:normal;font-size:12px">Percentiles - Main (Nearest Rank): regular-localhost-writeload</text>
<text x="424.78" y="-3.9023" transform="scale(1, -1)"
	style="font-family:Liberation Serif;font-variant:normal;font-weight:normal;font-style:normal;font-size:12px">Percentile</text>
<text x="200.92" y="-16.541" transform="scale(1, -1)"
	style="font-family:Liberation Serif;font-variant:normal;font-weight:normal;font-style:normal;font-size:10px">20</text>
<text x="519.41" y="-16.541" transform="scale(1, -1)"
	style="font-family:Liberation Serif;font-variant:normal;font-weight:normal;font-style:normal;font-size:10px">60</text>
<text x="835.39" y="-16.541" transform="scale(1, -1)"
	style="font-family:Liberation Serif;font-variant:normal;font-weight:normal;font-style:normal;font-size:10px">100</text>
<path d="M205.92,24.363L205.92,32.363" style="fill:none;stroke:#000000;stroke-width:0.5" />
<path d="M524.41,24.363L524.41,32.363" style="fill:none;stroke:#000000;stroke-width:0.5" />
<path d="M842.89,24.363L842.89,32.363" style="fill:none;stroke:#000000;stroke-width:0.5" />
<path d="M126.29,28.363L126.29,32.363" style="fill:none;stroke:#000000;stroke-width:0.5" />
<path d="M285.54,28.363L285.54,32.363" style="fill:none;stroke:#000000;stroke-width:0.5" />
<path d="M365.16,28.363L365.16,32.363" style="fill:none;stroke:#000000;stroke-width:0.5" />
<path d="M444.78,28.363L444.78,32.363" style="fill:none;stroke:#000000;stroke-width:0.5" />
<path d="M604.03,28.363L604.03,32.363" style="fill:none;stroke:#000000;stroke-width:0.5" />
<path d="M683.65,28.363L683.65,32.363" style="fill:none;stroke:#000000;stroke-width:0.5" />
<path d="M763.27,28.363L763.27,32.363" style="fill:none;stroke:#000000;stroke-width:0.5" />
<path d="M54.635,32.363L842.89,32.363" style="fill:none;stroke:#000000;stroke-width:0.5" />
<g transform="rotate(90)">
<text x="265.43" y="9.3867" transform="scale(1, -1)"
	style="font-family:Liberation Serif;font-variant:normal;font-weight:normal;font-style:normal;font-size:12px">Duration: ms</text>
</g>
<text x="20.885" y="-116.34" transform="scale(1, -1)"
	style="font-family:Liberation Serif;font-variant:normal;font-weight:normal;font-style:normal;font-size:10px">300</text>
<text x="20.885" y="-300" transform="scale(1, -1)"
	style="font-family:Liberation Serif;font-variant:normal;font-weight:normal;font-style:normal;font-size:10px">900</text>
<text x="15.885" y="-483.66" transform="scale(1, -1)"
	style="font-family:Liberation Serif;font-variant:normal;font-weight:normal;font-style:normal;font-size:10px">1500</text>
<path d="M38.385,118.62L46.385,118.62" style="fill:none;stroke:#000000;stroke-width:0.5" />
<path d="M38.385,302.28L46.385,302.28" style="fill:none;stroke:#000000;stroke-width:0.5" />
<path d="M38.385,485.94L46.385,485.94" style="fill:none;stroke:#000000;stroke-width:0.5" />
<path d="M42.385,210.45L46.385,210.45" style="fill:none;stroke:#000000;stroke-width:0.5" />
<path d="M42.385,394.11L46.385,394.11" style="fill:none;stroke:#000000;stroke-width:0.5" />
<path d="M46.385,42.709L46.385,551.14" style="fill:none;stroke:#000000;stroke-width:0.5" />
<path d="M205.92,42.709L205.92,551.14" style="fill:none;stroke:#808080;stroke-width:0.25" />
<path d="M524.41,42.709L524.41,551.14" style="fill:none;stroke:#808080;stroke-width:0.25" />
<path d="M842.89,42.709L842.89,551.14" style="fill:none;stroke:#808080;stroke-width:0.25" />
<path d="M54.635,118.62L842.89,118.62" style="fill:none;stroke:#808080;stroke-width:0.25" />
<path d="M54.635,302.28L842.89,302.28" style="fill:none;stroke:#808080;stroke-width:0.25" />
<path d="M54.635,485.94L842.89,485.94" style="fill:none;stroke:#808080;stroke-width:0.25" />
<path d="M54.635,42.709L62.597,42.709L70.559,45.464L78.521,45.77L86.484,46.688L94.446,49.443L102.41,49.749L110.37,49.749L118.33,50.055L126.29,50.361L134.26,50.361L142.22,50.668L150.18,50.668L158.14,50.668L166.11,50.974L174.07,50.974L182.03,50.974L189.99,50.974L197.95,51.28L205.92,52.198L213.88,52.81L221.84,53.422L229.8,53.422L237.77,54.035L245.73,54.953L253.69,55.565L261.65,55.871L269.61,56.177L277.58,57.402L285.54,58.014L293.5,58.32L301.46,59.851L309.43,61.687L317.39,80.971L325.35,83.114L333.31,85.257L341.27,87.706L349.24,90.154L357.2,91.379L365.16,97.807L373.12,100.87L381.09,101.17L389.05,102.7L397.01,106.99L404.97,111.28L412.93,123.52L420.9,128.42L428.86,130.25L436.82,131.78L444.78,132.4L452.75,135.46L460.71,135.46L468.67,140.35L476.63,140.35L484.59,141.58L492.56,143.42L500.52,144.33L508.48,147.39L516.44,147.7L524.41,151.07L532.37,151.68L540.33,151.99L548.29,158.72L556.25,161.78L564.22,164.84L572.18,166.99L580.14,167.9L588.1,168.21L596.07,172.19L604.03,181.37L611.99,182.29L619.95,184.43L627.91,188.11L635.88,189.02L643.84,189.64L651.8,191.78L659.76,196.68L667.73,196.68L675.69,198.51L683.65,202.8L691.61,228.82L699.57,233.1L707.54,239.53L715.5,250.86L723.46,256.67L731.42,265.55L739.38,267.08L747.35,275.65L755.31,278.41L763.27,285.45L771.23,295.55L779.2,296.47L787.16,309.93L795.12,322.18L803.08,360.13L811.04,367.79L819.01,390.44L826.97,403.29L834.93,415.84L842.89,551.14" style="fill:none;stroke:#F15A60" />
<path d="M54.635,45.834L51.928,41.146L57.341,41.146Z" style="fill:#F15A60" />
<path d="M62.597,45.834L59.891,41.146L65.303,41.146Z" style="fill:#F15A60" />
<path d="M70.559,48.589L67.853,43.901L73.266,43.901Z" style="fill:#F15A60" />
<path d="M78.521,48.895L75.815,44.207L81.228,44.207Z" style="fill:#F15A60" />
<path d="M86.484,49.813L83.777,45.126L89.19,45.126Z" style="fill:#F15A60" />
<path d="M94.446,52.568L91.739,47.881L97.152,47.881Z" style="fill:#F15A60" />
<path d="M102.41,52.874L99.702,48.187L105.11,48.187Z" style="fill:#F15A60" />
<path d="M110.37,52.874L107.66,48.187L113.08,48.187Z" style="fill:#F15A60" />
<path d="M118.33,53.18L115.63,48.493L121.04,48.493Z" style="fill:#F15A60" />
<path d="M126.29,53.486L123.59,48.799L129,48.799Z" style="fill:#F15A60" />
<path d="M134.26,53.486L131.55,48.799L136.96,48.799Z" style="fill:#F15A60" />
<path d="M142.22,53.793L139.51,49.105L144.93,49.105Z" style="fill:#F15A60" />
<path d="M150.18,53.793L147.47,49.105L152.89,49.105Z" style="fill:#F15A60" />
<path d="M158.14,53.793L155.44,49.105L160.85,49.105Z" style="fill:#F15A60" />
<path d="M166.11,54.099L163.4,49.411L168.81,49.411Z" style="fill:#F15A60" />
<path d="M174.07,54.099L171.36,49.411L176.77,49.411Z" style="fill:#F15A60" />
<path d="M182.03,54.099L179.32,49.411L184.74,49.411Z" style="fill:#F15A60" />
<path d="M189.99,54.099L187.29,49.411L192.7,49.411Z" style="fill:#F15A60" />
<path d="M197.95,54.405L195.25,49.717L200.66,49.717Z" style="fill:#F15A60" />
<path d="M205.92,55.323L203.21,50.636L208.62,50.636Z" style="fill:#F15A60" />
<path d="M213.88,55.935L211.17,51.248L216.59,51.248Z" style="fill:#F15A60" />
<path d="M221.84,56.547L219.13,51.86L224.55,51.86Z" style="fill:#F15A60" />
<path d="M229.8,56.547L227.1,51.86L232.51,51.86Z" style="fill:#F15A60" />
<path d="M237.77,57.16L235.06,52.472L240.47,52.472Z" style="fill:#F15A60" />
<path d="M245.73,58.078L243.02,53.39L248.43,53.39Z" style="fill:#F15A60" />
<path d="M253.69,58.69L250.98,54.003L256.4,54.003Z" style="fill:#F15A60" />
<path d="M261.65,58.996L258.95,54.309L264.36,54.309Z" style="fill:#F15A60" />
<path d="M269.61,59.302L266.91,54.615L272.32,54.615Z" style="fill:#F15A60" />
<path d="M277.58,60.527L274.87,55.839L280.28,55.839Z" style="fill:#F15A60" />
<path d="M285.54,61.139L282.83,56.451L288.25,56.451Z" style="fill:#F15A60" />
<path d="M293.5,61.445L290.79,56.758L296.21,56.758Z" style="fill:#F15A60" />
<path d="M301.46,62.976L298.76,58.288L304.17,58.288Z" style="fill:#F15A60" />
<path d="M309.43,64.812L306.72,60.125L312.13,60.125Z" style="fill:#F15A60" />
<path d="M317.39,84.096L314.68,79.409L320.09,79.409Z" style="fill:#F15A60" />
<path d="M325.35,86.239L322.64,81.552L328.06,81.552Z" style="fill:#F15A60" />
<path d="M333.31,88.382L330.61,83.694L336.02,83.694Z" style="fill:#F15A60" />
<path d="M341.27,90.831L338.57,86.143L343.98,86.143Z" style="fill:#F15A60" />
<path d="M349.24,93.279L346.53,88.592L351.94,88.592Z" style="fill:#F15A60" />
<path d="M357.2,94.504L354.49,89.816L359.91,89.816Z" style="fill:#F15A60" />
<path d="M365.16,100.93L362.45,96.244L367.87,96.244Z" style="fill:#F15A60" />
<path d="M373.12,103.99L370.42,99.305L375.83,99.305Z" style="fill:#F15A60" />
<path d="M381.09,104.3L378.38,99.611L383.79,99.611Z" style="fill:#F15A60" />
<path d="M389.05,105.83L386.34,101.14L391.75,101.14Z" style="fill:#F15A60" />
<path d="M397.01,110.11L394.3,105.43L399.72,105.43Z" style="fill:#F15A60" />
<path d="M404.97,114.4L402.27,109.71L407.68,109.71Z" style="fill:#F15A60" />
<path d="M412.93,126.64L410.23,121.96L415.64,121.96Z" style="fill:#F15A60" />
<path d="M420.9,131.54L418.19,126.85L423.6,126.85Z" style="fill:#F15A60" />
<path d="M428.86,133.38L426.15,128.69L431.57,128.69Z" style="fill:#F15A60" />
<path d="M436.82,134.91L434.11,130.22L439.53,130.22Z" style="fill:#F15A60" />
<path d="M444.78,135.52L442.08,130.83L447.49,130.83Z" style="fill:#F15A60" />
<path d="M452.75,138.58L450.04,133.89L455.45,133.89Z" style="fill:#F15A60" />
<path d="M460.71,138.58L458,133.89L463.41,133.89Z" style="fill:#F15A60" />
<path d="M468.67,143.48L465.96,138.79L471.38,138.79Z" style="fill:#F15A60" />
<path d="M476.63,143.48L473.93,138.79L479.34,138.79Z" style="fill:#F15A60" />
<path d="M484.59,144.7L481.89,140.02L487.3,140.02Z" style="fill:#F15A60" />
<path d="M492.56,146.54L489.85,141.85L495.26,141.85Z" style="fill:#F15A60" />
<path d="M500.52,147.46L497.81,142.77L503.22,142.77Z" style="fill:#F15A60" />
<path d="M508.48,150.52L505.77,145.83L511.19,145.83Z" style="fill:#F15A60" />
<path d="M516.44,150.83L513.74,146.14L519.15,146.14Z" style="fill:#F15A60" />
<path d="M524.41,154.19L521.7,149.51L527.11,149.51Z" style="fill:#F15A60" />
<path d="M532.37,154.81L529.66,150.12L535.07,150.12Z" style="fill:#F15A60" />
<path d="M540.33,155.11L537.62,150.42L543.04,150.42Z" style="fill:#F15A60" />
<path d="M548.29,161.85L545.59,157.16L551,157.16Z" style="fill:#F15A60" />
<path d="M556.25,164.91L553.55,160.22L558.96,160.22Z" style="fill:#F15A60" />
<path d="M564.22,167.97L561.51,163.28L566.92,163.28Z" style="fill:#F15A60" />
<path d="M572.18,170.11L569.47,165.42L574.88,165.42Z" style="fill:#F15A60" />
<path d="M580.14,171.03L577.43,166.34L582.85,166.34Z" style="fill:#F15A60" />
<path d="M588.1,171.33L585.4,166.65L590.81,166.65Z" style="fill:#F15A60" />
<path d="M596.07,175.31L593.36,170.63L598.77,170.63Z" style="fill:#F15A60" />
<path d="M604.03,184.5L601.32,179.81L606.73,179.81Z" style="fill:#F15A60" />
<path d="M611.99,185.42L609.28,180.73L614.7,180.73Z" style="fill:#F15A60" />
<path d="M619.95,187.56L617.25,182.87L622.66,182.87Z" style="fill:#F15A60" />
<path d="M627.91,191.23L625.21,186.54L630.62,186.54Z" style="fill:#F15A60" />
<path d="M635.88,192.15L633.17,187.46L638.58,187.46Z" style="fill:#F15A60" />
<path d="M643.84,192.76L641.13,188.07L646.54,188.07Z" style="fill:#F15A60" />
<path d="M651.8,194.9L649.09,190.22L654.51,190.22Z" style="fill:#F15A60" />
<path d="M659.76,199.8L657.06,195.11L662.47,195.11Z" style="fill:#F15A60" />
<path d="M667.73,199.8L665.02,195.11L670.43,195.11Z" style="fill:#F15A60" />
<path d="M675.69,201.64L672.98,196.95L678.39,196.95Z" style="fill:#F15A60" />
<path d="M683.65,205.92L680.94,201.24L686.36,201.24Z" style="fill:#F15A60" />
<path d="M691.61,231.94L688.91,227.25L694.32,227.25Z" style="fill:#F15A60" />
<path d="M699.57,236.23L696.87,231.54L702.28,231.54Z" style="fill:#F15A60" />
<path d="M707.54,242.66L704.83,237.97L710.24,237.97Z" style="fill:#F15A60" />
<path d="M715.5,253.98L712.79,249.29L718.2,249.29Z" style="fill:#F15A60" />
<path d="M723.46,259.8L720.75,255.11L726.17,255.11Z" style="fill:#F15A60" />
<path d="M731.42,268.67L728.72,263.99L734.13,263.99Z" style="fill:#F15A60" />
<path d="M739.38,270.2L736.68,265.52L742.09,265.52Z" style="fill:#F15A60" />
<path d="M747.35,278.78L744.64,274.09L750.05,274.09Z" style="fill:#F15A60" />
<path d="M755.31,281.53L752.6,276.84L758.02,276.84Z" style="fill:#F15A60" />
<path d="M763.27,288.57L760.57,283.88L765.98,283.88Z" style="fill:#F15A60" />
<path d="M771.23,298.67L768.53,293.98L773.94,293.98Z" style="fill:#F15A60" />
<path d="M779.2,299.59L776.49,294.9L781.9,294.9Z" style="fill:#F15A60" />
<path d="M787.16,313.06L784.45,308.37L789.86,308.37Z" style="fill:#F15A60" />
<path d="M795.12,325.3L792.41,320.62L797.83,320.62Z" style="fill:#F15A60" />
<path d="M803.08,363.26L800.38,358.57L805.79,358.57Z" style="fill:#F15A60" />
<path d="M811.04,370.91L808.34,366.22L813.75,366.22Z" style="fill:#F15A60" />
<path d="M819.01,393.56L816.3,388.88L821.71,388.88Z" style="fill:#F15A60" />
<path d="M826.97,406.42L824.26,401.73L829.68,401.73Z" style="fill:#F15A60" />
<path d="M834.93,418.97L832.23,414.28L837.64,414.28Z" style="fill:#F15A60" />
<path d="M842.89,554.27L840.19,549.58L845.6,549.58Z" style="fill:#F15A60" />
<path d="M830.39,45.301L850.39,45.301" style="fill:none;stroke:#F15A60" />
<path d="M840.39,48.426L837.69,43.738L843.1,43.738Z" style="fill:#F15A60" />
<text x="790.07" y="-42.813" transform="scale(1, -1)"
	style="font-family:Liberation Serif;font-variant:normal;font-weight:normal;font-style:normal;font-size:12px">to-main</text>
</g>
</svg>
