<?xml version="1.0"?>
<!-- Generated by SVGo and Plotinum VG -->
<svg width="850.39pt" height="566.93pt" viewBox="0 0 850.39 566.93"
	xmlns="http://www.w3.org/2000/svg"
	xmlns:xlink="http://www.w3.org/1999/xlink">
<g transform="scale(1, -1) translate(0, -566.93)">
<path d="M0,0L850.39,0L850.39,566.93L0,566.93Z" style="fill:#FFFFFF" />
<text x="308.53" y="-557.54" transform="scale(1, -1)"
	style="font-family:Liberation Serif;font-variant:normal;font-weight:normal;font-style:normal;font-size:12px">Raw Data Measures: regular-localhost-writeload</text>
<text x="432.69" y="-3.9023" transform="scale(1, -1)"
	style="font-family:Liberation Serif;font-variant:normal;font-weight:normal;font-style:normal;font-size:12px">Restart ID</text>
<text x="64.635" y="-16.541" transform="scale(1, -1)"
	style="font-family:Liberation Serif;font-variant:normal;font-weight:normal;font-style:normal;font-size:10px">0</text>
<text x="298.73" y="-16.541" transform="scale(1, -1)"
	style="font-family:Liberation Serif;font-variant:normal;font-weight:normal;font-style:normal;font-size:10px">30</text>
<text x="535.32" y="-16.541" transform="scale(1, -1)"
	style="font-family:Liberation Serif;font-variant:normal;font-weight:normal;font-style:normal;font-size:10px">60</text>
<text x="771.92" y="-16.541" transform="scale(1, -1)"
	style="font-family:Liberation Serif;font-variant:normal;font-weight:normal;font-style:normal;font-size:10px">90</text>
<path d="M67.135,24.363L67.135,32.363" style="fill:none;stroke:#000000;stroke-width:0.5" />
<path d="M303.73,24.363L303.73,32.363" style="fill:none;stroke:#000000;stroke-width:0.5" />
<path d="M540.32,24.363L540.32,32.363" style="fill:none;stroke:#000000;stroke-width:0.5" />
<path d="M776.92,24.363L776.92,32.363" style="fill:none;stroke:#000000;stroke-width:0.5" />
<path d="M146,28.363L146,32.363" style="fill:none;stroke:#000000;stroke-width:0.5" />
<path d="M224.86,28.363L224.86,32.363" style="fill:none;stroke:#000000;stroke-width:0.5" />
<path d="M382.59,28.363L382.59,32.363" style="fill:none;stroke:#000000;stroke-width:0.5" />
<path d="M461.46,28.363L461.46,32.363" style="fill:none;stroke:#000000;stroke-width:0.5" />
<path d="M619.19,28.363L619.19,32.363" style="fill:none;stroke:#000000;stroke-width:0.5" />
<path d="M698.05,28.363L698.05,32.363" style="fill:none;stroke:#000000;stroke-width:0.5" />
<path d="M67.135,32.363L847.89,32.363" style="fill:none;stroke:#000000;stroke-width:0.5" />
<g transform="rotate(90)">
<text x="264.2" y="9.3867" transform="scale(1, -1)"
	style="font-family:Liberation Serif;font-variant:normal;font-weight:normal;font-style:normal;font-size:12px">Duration: ms</text>
</g>
<text x="20.885" y="-105.83" transform="scale(1, -1)"
	style="font-family:Liberation Serif;font-variant:normal;font-weight:normal;font-style:normal;font-size:10px">250.00</text>
<text x="15.885" y="-325.83" transform="scale(1, -1)"
	style="font-family:Liberation Serif;font-variant:normal;font-weight:normal;font-style:normal;font-size:10px">1000.00</text>
<text x="15.885" y="-545.82" transform="scale(1, -1)"
	style="font-family:Liberation Serif;font-variant:normal;font-weight:normal;font-style:normal;font-size:10px">1750.00</text>
<path d="M50.885,108.12L58.885,108.12" style="fill:none;stroke:#000000;stroke-width:0.5" />
<path d="M50.885,328.11L58.885,328.11" style="fill:none;stroke:#000000;stroke-width:0.5" />
<path d="M50.885,548.1L58.885,548.1" style="fill:none;stroke:#000000;stroke-width:0.5" />
<path d="M54.885,218.12L58.885,218.12" style="fill:none;stroke:#000000;stroke-width:0.5" />
<path d="M54.885,438.11L58.885,438.11" style="fill:none;stroke:#000000;stroke-width:0.5" />
<path d="M58.885,42.709L58.885,548.69" style="fill:none;stroke:#000000;stroke-width:0.5" />
<path d="M67.135,42.709L67.135,548.69" style="fill:none;stroke:#808080;stroke-width:0.25" />
<path d="M303.73,42.709L303.73,548.69" style="fill:none;stroke:#808080;stroke-width:0.25" />
<path d="M540.32,42.709L540.32,548.69" style="fill:none;stroke:#808080;stroke-width:0.25" />
<path d="M776.92,42.709L776.92,548.69" style="fill:none;stroke:#808080;stroke-width:0.25" />
<path d="M67.135,108.12L847.89,108.12" style="fill:none;stroke:#808080;stroke-width:0.25" />
<path d="M67.135,328.11L847.89,328.11" style="fill:none;stroke:#808080;stroke-width:0.25" />
<path d="M67.135,548.1L847.89,548.1" style="fill:none;stroke:#808080;stroke-width:0.25" />
<path d="M67.135,135.99L75.021,66.468L82.908,57.375L90.794,102.84L98.681,144.79L106.57,64.708L114.45,354.22L122.34,182.92L130.23,203.45L138.11,50.042L146,57.668L153.89,138.92L161.77,282.65L169.66,59.135L177.55,150.36L185.43,197.58L193.32,361.55L201.2,232.49L209.09,238.65L216.98,57.962L224.86,59.722L232.75,293.21L240.64,185.85L248.52,68.228L256.41,57.375L264.3,143.61L272.18,150.65L280.07,53.855L287.96,88.761L295.84,383.26L303.73,143.61L311.61,57.668L319.5,190.84L327.39,174.12L335.27,199.34L343.16,64.121L351.05,154.76L358.93,106.07L366.82,57.082L374.71,65.001L382.59,161.21L390.48,133.93L398.37,52.682L406.25,57.962L414.14,292.33L422.03,115.75L429.91,537.25L437.8,138.92L445.68,107.53L453.57,60.895L461.46,170.01L469.34,96.68L477.23,197.58L485.12,62.362L493,167.08L500.89,147.42L508.78,93.16L516.66,62.948L524.55,132.17L532.44,135.4L540.32,62.655L548.21,317.85L556.09,263.58L563.98,52.975L571.87,154.46L579.75,395.58L587.64,56.495L595.53,95.507L603.41,146.55L611.3,275.9L619.19,57.668L627.07,407.6L634.96,127.48L642.85,228.38L650.73,265.05L658.62,192.89L666.51,56.788L674.39,86.707L682.28,105.77L690.16,111.64L698.05,60.308L705.94,50.042L713.82,164.14L721.71,255.07L729.6,57.962L737.48,249.5L745.37,190.25L753.26,58.255L761.14,61.775L769.03,189.37L776.92,153.88L784.8,57.962L792.69,56.788L800.57,169.13L808.46,170.3L816.35,60.308L824.23,90.814L832.12,306.11L840.01,273.26L847.89,183.8" style="fill:none;stroke:#F15A60" />
<path d="M67.135,139.11L64.428,134.42L69.841,134.42Z" style="fill:#F15A60" />
<path d="M75.021,69.593L72.315,64.906L77.728,64.906Z" style="fill:#F15A60" />
<path d="M82.908,60.5L80.201,55.813L85.614,55.813Z" style="fill:#F15A60" />
<path d="M90.794,105.97L88.088,101.28L93.5,101.28Z" style="fill:#F15A60" />
<path d="M98.681,147.91L95.974,143.22L101.39,143.22Z" style="fill:#F15A60" />
<path d="M106.57,67.833L103.86,63.146L109.27,63.146Z" style="fill:#F15A60" />
<path d="M114.45,357.34L111.75,352.65L117.16,352.65Z" style="fill:#F15A60" />
<path d="M122.34,186.04L119.63,181.35L125.05,181.35Z" style="fill:#F15A60" />
<path d="M130.23,206.57L127.52,201.89L132.93,201.89Z" style="fill:#F15A60" />
<path d="M138.11,53.167L135.41,48.48L140.82,48.48Z" style="fill:#F15A60" />
<path d="M146,60.793L143.29,56.106L148.71,56.106Z" style="fill:#F15A60" />
<path d="M153.89,142.04L151.18,137.36L156.59,137.36Z" style="fill:#F15A60" />
<path d="M161.77,285.77L159.07,281.08L164.48,281.08Z" style="fill:#F15A60" />
<path d="M169.66,62.26L166.95,57.573L172.36,57.573Z" style="fill:#F15A60" />
<path d="M177.55,153.48L174.84,148.8L180.25,148.8Z" style="fill:#F15A60" />
<path d="M185.43,200.71L182.73,196.02L188.14,196.02Z" style="fill:#F15A60" />
<path d="M193.32,364.68L190.61,359.99L196.02,359.99Z" style="fill:#F15A60" />
<path d="M201.2,235.61L198.5,230.93L203.91,230.93Z" style="fill:#F15A60" />
<path d="M209.09,241.77L206.38,237.09L211.8,237.09Z" style="fill:#F15A60" />
<path d="M216.98,61.087L214.27,56.399L219.68,56.399Z" style="fill:#F15A60" />
<path d="M224.86,62.847L222.16,58.159L227.57,58.159Z" style="fill:#F15A60" />
<path d="M232.75,296.33L230.04,291.64L235.46,291.64Z" style="fill:#F15A60" />
<path d="M240.64,188.98L237.93,184.29L243.34,184.29Z" style="fill:#F15A60" />
<path d="M248.52,71.353L245.82,66.666L251.23,66.666Z" style="fill:#F15A60" />
<path d="M256.41,60.5L253.7,55.813L259.12,55.813Z" style="fill:#F15A60" />
<path d="M264.3,146.74L261.59,142.05L267,142.05Z" style="fill:#F15A60" />
<path d="M272.18,153.78L269.48,149.09L274.89,149.09Z" style="fill:#F15A60" />
<path d="M280.07,56.98L277.36,52.293L282.78,52.293Z" style="fill:#F15A60" />
<path d="M287.96,91.886L285.25,87.198L290.66,87.198Z" style="fill:#F15A60" />
<path d="M295.84,386.38L293.14,381.69L298.55,381.69Z" style="fill:#F15A60" />
<path d="M303.73,146.74L301.02,142.05L306.43,142.05Z" style="fill:#F15A60" />
<path d="M311.61,60.793L308.91,56.106L314.32,56.106Z" style="fill:#F15A60" />
<path d="M319.5,193.96L316.79,189.27L322.21,189.27Z" style="fill:#F15A60" />
<path d="M327.39,177.24L324.68,172.55L330.09,172.55Z" style="fill:#F15A60" />
<path d="M335.27,202.47L332.57,197.78L337.98,197.78Z" style="fill:#F15A60" />
<path d="M343.16,67.246L340.45,62.559L345.87,62.559Z" style="fill:#F15A60" />
<path d="M351.05,157.88L348.34,153.2L353.75,153.2Z" style="fill:#F15A60" />
<path d="M358.93,109.19L356.23,104.5L361.64,104.5Z" style="fill:#F15A60" />
<path d="M366.82,60.207L364.11,55.519L369.53,55.519Z" style="fill:#F15A60" />
<path d="M374.71,68.126L372,63.439L377.41,63.439Z" style="fill:#F15A60" />
<path d="M382.59,164.34L379.89,159.65L385.3,159.65Z" style="fill:#F15A60" />
<path d="M390.48,137.06L387.77,132.37L393.19,132.37Z" style="fill:#F15A60" />
<path d="M398.37,55.807L395.66,51.119L401.07,51.119Z" style="fill:#F15A60" />
<path d="M406.25,61.087L403.55,56.399L408.96,56.399Z" style="fill:#F15A60" />
<path d="M414.14,295.45L411.43,290.76L416.85,290.76Z" style="fill:#F15A60" />
<path d="M422.03,118.87L419.32,114.18L424.73,114.18Z" style="fill:#F15A60" />
<path d="M429.91,540.38L427.21,535.69L432.62,535.69Z" style="fill:#F15A60" />
<path d="M437.8,142.04L435.09,137.36L440.5,137.36Z" style="fill:#F15A60" />
<path d="M445.68,110.66L442.98,105.97L448.39,105.97Z" style="fill:#F15A60" />
<path d="M453.57,64.02L450.86,59.332L456.28,59.332Z" style="fill:#F15A60" />
<path d="M461.46,173.14L458.75,168.45L464.16,168.45Z" style="fill:#F15A60" />
<path d="M469.34,99.805L466.64,95.118L472.05,95.118Z" style="fill:#F15A60" />
<path d="M477.23,200.71L474.52,196.02L479.94,196.02Z" style="fill:#F15A60" />
<path d="M485.12,65.487L482.41,60.799L487.82,60.799Z" style="fill:#F15A60" />
<path d="M493,170.2L490.3,165.52L495.71,165.52Z" style="fill:#F15A60" />
<path d="M500.89,150.55L498.18,145.86L503.6,145.86Z" style="fill:#F15A60" />
<path d="M508.78,96.285L506.07,91.598L511.48,91.598Z" style="fill:#F15A60" />
<path d="M516.66,66.073L513.96,61.386L519.37,61.386Z" style="fill:#F15A60" />
<path d="M524.55,135.3L521.84,130.61L527.26,130.61Z" style="fill:#F15A60" />
<path d="M532.44,138.52L529.73,133.84L535.14,133.84Z" style="fill:#F15A60" />
<path d="M540.32,65.78L537.62,61.092L543.03,61.092Z" style="fill:#F15A60" />
<path d="M548.21,320.97L545.5,316.28L550.91,316.28Z" style="fill:#F15A60" />
<path d="M556.09,266.71L553.39,262.02L558.8,262.02Z" style="fill:#F15A60" />
<path d="M563.98,56.1L561.28,51.413L566.69,51.413Z" style="fill:#F15A60" />
<path d="M571.87,157.59L569.16,152.9L574.57,152.9Z" style="fill:#F15A60" />
<path d="M579.75,398.7L577.05,394.01L582.46,394.01Z" style="fill:#F15A60" />
<path d="M587.64,59.62L584.93,54.933L590.35,54.933Z" style="fill:#F15A60" />
<path d="M595.53,98.632L592.82,93.944L598.23,93.944Z" style="fill:#F15A60" />
<path d="M603.41,149.67L600.71,144.98L606.12,144.98Z" style="fill:#F15A60" />
<path d="M611.3,279.03L608.59,274.34L614.01,274.34Z" style="fill:#F15A60" />
<path d="M619.19,60.793L616.48,56.106L621.89,56.106Z" style="fill:#F15A60" />
<path d="M627.07,410.73L624.37,406.04L629.78,406.04Z" style="fill:#F15A60" />
<path d="M634.96,130.6L632.25,125.92L637.67,125.92Z" style="fill:#F15A60" />
<path d="M642.85,231.51L640.14,226.82L645.55,226.82Z" style="fill:#F15A60" />
<path d="M650.73,268.17L648.03,263.48L653.44,263.48Z" style="fill:#F15A60" />
<path d="M658.62,196.01L655.91,191.33L661.33,191.33Z" style="fill:#F15A60" />
<path d="M666.51,59.913L663.8,55.226L669.21,55.226Z" style="fill:#F15A60" />
<path d="M674.39,89.832L671.69,85.145L677.1,85.145Z" style="fill:#F15A60" />
<path d="M682.28,108.9L679.57,104.21L684.98,104.21Z" style="fill:#F15A60" />
<path d="M690.16,114.76L687.46,110.08L692.87,110.08Z" style="fill:#F15A60" />
<path d="M698.05,63.433L695.34,58.746L700.76,58.746Z" style="fill:#F15A60" />
<path d="M705.94,53.167L703.23,48.48L708.64,48.48Z" style="fill:#F15A60" />
<path d="M713.82,167.27L711.12,162.58L716.53,162.58Z" style="fill:#F15A60" />
<path d="M721.71,258.2L719,253.51L724.42,253.51Z" style="fill:#F15A60" />
<path d="M729.6,61.087L726.89,56.399L732.3,56.399Z" style="fill:#F15A60" />
<path d="M737.48,252.63L734.78,247.94L740.19,247.94Z" style="fill:#F15A60" />
<path d="M745.37,193.38L742.66,188.69L748.08,188.69Z" style="fill:#F15A60" />
<path d="M753.26,61.38L750.55,56.693L755.96,56.693Z" style="fill:#F15A60" />
<path d="M761.14,64.9L758.44,60.212L763.85,60.212Z" style="fill:#F15A60" />
<path d="M769.03,192.5L766.32,187.81L771.74,187.81Z" style="fill:#F15A60" />
<path d="M776.92,157L774.21,152.32L779.62,152.32Z" style="fill:#F15A60" />
<path d="M784.8,61.087L782.1,56.399L787.51,56.399Z" style="fill:#F15A60" />
<path d="M792.69,59.913L789.98,55.226L795.39,55.226Z" style="fill:#F15A60" />
<path d="M800.57,172.26L797.87,167.57L803.28,167.57Z" style="fill:#F15A60" />
<path d="M808.46,173.43L805.76,168.74L811.17,168.74Z" style="fill:#F15A60" />
<path d="M816.35,63.433L813.64,58.746L819.05,58.746Z" style="fill:#F15A60" />
<path d="M824.23,93.939L821.53,89.251L826.94,89.251Z" style="fill:#F15A60" />
<path d="M832.12,309.24L829.41,304.55L834.83,304.55Z" style="fill:#F15A60" />
<path d="M840.01,276.39L837.3,271.7L842.71,271.7Z" style="fill:#F15A60" />
<path d="M847.89,186.92L845.19,182.23L850.6,182.23Z" style="fill:#F15A60" />
<path d="M67.135,155.05L75.021,79.668L82.908,68.228L90.794,115.75L98.681,162.97L106.57,75.268L114.45,364.78L122.34,194.94L130.23,216.65L138.11,60.015L146,65.881L153.89,156.22L161.77,295.85L169.66,70.575L177.55,167.96L185.43,210.49L193.32,369.76L201.2,245.69L209.09,247.74L216.98,70.575L224.86,74.681L232.75,306.99L240.64,198.17L248.52,87.881L256.41,68.521L264.3,159.45L272.18,163.56L280.07,62.655L287.96,104.6L295.84,391.47L303.73,155.64L311.61,65.881L319.5,204.04L327.39,189.96L335.27,210.2L343.16,72.921L351.05,166.78L358.93,119.27L366.82,65.881L374.71,77.028L382.59,174.41L390.48,150.65L398.37,64.708L406.25,70.281L414.14,303.47L422.03,128.07L429.91,548.69L437.8,154.46L445.68,120.44L453.57,73.214L461.46,179.1L469.34,108.12L477.23,209.02L485.12,82.014L493,182.33L500.89,166.2L508.78,110.17L516.66,71.161L524.55,149.18L532.44,147.72L540.32,70.575L548.21,326.64L556.09,275.31L563.98,65.588L571.87,167.66L579.75,405.84L587.64,65.295L595.53,109L603.41,164.14L611.3,284.41L619.19,70.281L627.07,416.69L634.96,141.56L642.85,245.39L650.73,275.61L658.62,207.56L666.51,67.348L674.39,98.734L682.28,122.79L690.16,126.31L698.05,68.815L705.94,59.135L713.82,175.88L721.71,266.81L729.6,66.761L737.48,263.87L745.37,202.57L753.26,70.281L761.14,73.508L769.03,204.62L776.92,166.78L784.8,66.761L792.69,65.001L800.57,182.33L808.46,192.89L816.35,70.575L824.23,111.05L832.12,314.91L840.01,284.41L847.89,198.17" style="fill:none;stroke:#7AC36A" />
<path d="M67.135,158.18L64.428,153.49L69.841,153.49Z" style="fill:#7AC36A" />
<path d="M75.021,82.793L72.315,78.105L77.728,78.105Z" style="fill:#7AC36A" />
<path d="M82.908,71.353L80.201,66.666L85.614,66.666Z" style="fill:#7AC36A" />
<path d="M90.794,118.87L88.088,114.18L93.5,114.18Z" style="fill:#7AC36A" />
<path d="M98.681,166.1L95.974,161.41L101.39,161.41Z" style="fill:#7AC36A" />
<path d="M106.57,78.393L103.86,73.705L109.27,73.705Z" style="fill:#7AC36A" />
<path d="M114.45,367.9L111.75,363.21L117.16,363.21Z" style="fill:#7AC36A" />
<path d="M122.34,198.07L119.63,193.38L125.05,193.38Z" style="fill:#7AC36A" />
<path d="M130.23,219.77L127.52,215.09L132.93,215.09Z" style="fill:#7AC36A" />
<path d="M138.11,63.14L135.41,58.452L140.82,58.452Z" style="fill:#7AC36A" />
<path d="M146,69.006L143.29,64.319L148.71,64.319Z" style="fill:#7AC36A" />
<path d="M153.89,159.35L151.18,154.66L156.59,154.66Z" style="fill:#7AC36A" />
<path d="M161.77,298.97L159.07,294.28L164.48,294.28Z" style="fill:#7AC36A" />
<path d="M169.66,73.7L166.95,69.012L172.36,69.012Z" style="fill:#7AC36A" />
<path d="M177.55,171.08L174.84,166.4L180.25,166.4Z" style="fill:#7AC36A" />
<path d="M185.43,213.61L182.73,208.93L188.14,208.93Z" style="fill:#7AC36A" />
<path d="M193.32,372.89L190.61,368.2L196.02,368.2Z" style="fill:#7AC36A" />
<path d="M201.2,248.81L198.5,244.13L203.91,244.13Z" style="fill:#7AC36A" />
<path d="M209.09,250.87L206.38,246.18L211.8,246.18Z" style="fill:#7AC36A" />
<path d="M216.98,73.7L214.27,69.012L219.68,69.012Z" style="fill:#7AC36A" />
<path d="M224.86,77.806L222.16,73.119L227.57,73.119Z" style="fill:#7AC36A" />
<path d="M232.75,310.12L230.04,305.43L235.46,305.43Z" style="fill:#7AC36A" />
<path d="M240.64,201.29L237.93,196.61L243.34,196.61Z" style="fill:#7AC36A" />
<path d="M248.52,91.006L245.82,86.318L251.23,86.318Z" style="fill:#7AC36A" />
<path d="M256.41,71.646L253.7,66.959L259.12,66.959Z" style="fill:#7AC36A" />
<path d="M264.3,162.58L261.59,157.89L267,157.89Z" style="fill:#7AC36A" />
<path d="M272.18,166.68L269.48,162L274.89,162Z" style="fill:#7AC36A" />
<path d="M280.07,65.78L277.36,61.092L282.78,61.092Z" style="fill:#7AC36A" />
<path d="M287.96,107.72L285.25,103.04L290.66,103.04Z" style="fill:#7AC36A" />
<path d="M295.84,394.59L293.14,389.91L298.55,389.91Z" style="fill:#7AC36A" />
<path d="M303.73,158.76L301.02,154.08L306.43,154.08Z" style="fill:#7AC36A" />
<path d="M311.61,69.006L308.91,64.319L314.32,64.319Z" style="fill:#7AC36A" />
<path d="M319.5,207.16L316.79,202.47L322.21,202.47Z" style="fill:#7AC36A" />
<path d="M327.39,193.08L324.68,188.39L330.09,188.39Z" style="fill:#7AC36A" />
<path d="M335.27,213.32L332.57,208.63L337.98,208.63Z" style="fill:#7AC36A" />
<path d="M343.16,76.046L340.45,71.359L345.87,71.359Z" style="fill:#7AC36A" />
<path d="M351.05,169.91L348.34,165.22L353.75,165.22Z" style="fill:#7AC36A" />
<path d="M358.93,122.39L356.23,117.7L361.64,117.7Z" style="fill:#7AC36A" />
<path d="M366.82,69.006L364.11,64.319L369.53,64.319Z" style="fill:#7AC36A" />
<path d="M374.71,80.153L372,75.465L377.41,75.465Z" style="fill:#7AC36A" />
<path d="M382.59,177.54L379.89,172.85L385.3,172.85Z" style="fill:#7AC36A" />
<path d="M390.48,153.78L387.77,149.09L393.19,149.09Z" style="fill:#7AC36A" />
<path d="M398.37,67.833L395.66,63.146L401.07,63.146Z" style="fill:#7AC36A" />
<path d="M406.25,73.406L403.55,68.719L408.96,68.719Z" style="fill:#7AC36A" />
<path d="M414.14,306.6L411.43,301.91L416.85,301.91Z" style="fill:#7AC36A" />
<path d="M422.03,131.19L419.32,126.5L424.73,126.5Z" style="fill:#7AC36A" />
<path d="M429.91,551.81L427.21,547.13L432.62,547.13Z" style="fill:#7AC36A" />
<path d="M437.8,157.59L435.09,152.9L440.5,152.9Z" style="fill:#7AC36A" />
<path d="M445.68,123.56L442.98,118.88L448.39,118.88Z" style="fill:#7AC36A" />
<path d="M453.57,76.339L450.86,71.652L456.28,71.652Z" style="fill:#7AC36A" />
<path d="M461.46,182.23L458.75,177.54L464.16,177.54Z" style="fill:#7AC36A" />
<path d="M469.34,111.24L466.64,106.56L472.05,106.56Z" style="fill:#7AC36A" />
<path d="M477.23,212.15L474.52,207.46L479.94,207.46Z" style="fill:#7AC36A" />
<path d="M485.12,85.139L482.41,80.452L487.82,80.452Z" style="fill:#7AC36A" />
<path d="M493,185.46L490.3,180.77L495.71,180.77Z" style="fill:#7AC36A" />
<path d="M500.89,169.32L498.18,164.64L503.6,164.64Z" style="fill:#7AC36A" />
<path d="M508.78,113.3L506.07,108.61L511.48,108.61Z" style="fill:#7AC36A" />
<path d="M516.66,74.286L513.96,69.599L519.37,69.599Z" style="fill:#7AC36A" />
<path d="M524.55,152.31L521.84,147.62L527.26,147.62Z" style="fill:#7AC36A" />
<path d="M532.44,150.84L529.73,146.16L535.14,146.16Z" style="fill:#7AC36A" />
<path d="M540.32,73.7L537.62,69.012L543.03,69.012Z" style="fill:#7AC36A" />
<path d="M548.21,329.77L545.5,325.08L550.91,325.08Z" style="fill:#7AC36A" />
<path d="M556.09,278.44L553.39,273.75L558.8,273.75Z" style="fill:#7AC36A" />
<path d="M563.98,68.713L561.28,64.026L566.69,64.026Z" style="fill:#7AC36A" />
<path d="M571.87,170.79L569.16,166.1L574.57,166.1Z" style="fill:#7AC36A" />
<path d="M579.75,408.97L577.05,404.28L582.46,404.28Z" style="fill:#7AC36A" />
<path d="M587.64,68.42L584.93,63.732L590.35,63.732Z" style="fill:#7AC36A" />
<path d="M595.53,112.12L592.82,107.44L598.23,107.44Z" style="fill:#7AC36A" />
<path d="M603.41,167.27L600.71,162.58L606.12,162.58Z" style="fill:#7AC36A" />
<path d="M611.3,287.53L608.59,282.84L614.01,282.84Z" style="fill:#7AC36A" />
<path d="M619.19,73.406L616.48,68.719L621.89,68.719Z" style="fill:#7AC36A" />
<path d="M627.07,419.82L624.37,415.13L629.78,415.13Z" style="fill:#7AC36A" />
<path d="M634.96,144.68L632.25,140L637.67,140Z" style="fill:#7AC36A" />
<path d="M642.85,248.52L640.14,243.83L645.55,243.83Z" style="fill:#7AC36A" />
<path d="M650.73,278.73L648.03,274.04L653.44,274.04Z" style="fill:#7AC36A" />
<path d="M658.62,210.68L655.91,205.99L661.33,205.99Z" style="fill:#7AC36A" />
<path d="M666.51,70.473L663.8,65.786L669.21,65.786Z" style="fill:#7AC36A" />
<path d="M674.39,101.86L671.69,97.171L677.1,97.171Z" style="fill:#7AC36A" />
<path d="M682.28,125.91L679.57,121.22L684.98,121.22Z" style="fill:#7AC36A" />
<path d="M690.16,129.43L687.46,124.74L692.87,124.74Z" style="fill:#7AC36A" />
<path d="M698.05,71.94L695.34,67.252L700.76,67.252Z" style="fill:#7AC36A" />
<path d="M705.94,62.26L703.23,57.573L708.64,57.573Z" style="fill:#7AC36A" />
<path d="M713.82,179L711.12,174.31L716.53,174.31Z" style="fill:#7AC36A" />
<path d="M721.71,269.93L719,265.24L724.42,265.24Z" style="fill:#7AC36A" />
<path d="M729.6,69.886L726.89,65.199L732.3,65.199Z" style="fill:#7AC36A" />
<path d="M737.48,267L734.78,262.31L740.19,262.31Z" style="fill:#7AC36A" />
<path d="M745.37,205.69L742.66,201.01L748.08,201.01Z" style="fill:#7AC36A" />
<path d="M753.26,73.406L750.55,68.719L755.96,68.719Z" style="fill:#7AC36A" />
<path d="M761.14,76.633L758.44,71.945L763.85,71.945Z" style="fill:#7AC36A" />
<path d="M769.03,207.75L766.32,203.06L771.74,203.06Z" style="fill:#7AC36A" />
<path d="M776.92,169.91L774.21,165.22L779.62,165.22Z" style="fill:#7AC36A" />
<path d="M784.8,69.886L782.1,65.199L787.51,65.199Z" style="fill:#7AC36A" />
<path d="M792.69,68.126L789.98,63.439L795.39,63.439Z" style="fill:#7AC36A" />
<path d="M800.57,185.46L797.87,180.77L803.28,180.77Z" style="fill:#7AC36A" />
<path d="M808.46,196.01L805.76,191.33L811.17,191.33Z" style="fill:#7AC36A" />
<path d="M816.35,73.7L813.64,69.012L819.05,69.012Z" style="fill:#7AC36A" />
<path d="M824.23,114.18L821.53,109.49L826.94,109.49Z" style="fill:#7AC36A" />
<path d="M832.12,318.04L829.41,313.35L834.83,313.35Z" style="fill:#7AC36A" />
<path d="M840.01,287.53L837.3,282.84L842.71,282.84Z" style="fill:#7AC36A" />
<path d="M847.89,201.29L845.19,196.61L850.6,196.61Z" style="fill:#7AC36A" />
<path d="M67.135,53.855L75.021,47.695L82.908,45.349L90.794,47.695L98.681,52.975L106.57,45.349L114.45,45.349L122.34,46.522L130.23,47.695L138.11,44.762L146,43.002L153.89,52.095L161.77,47.989L169.66,46.229L177.55,52.095L185.43,47.695L193.32,43.002L201.2,47.695L209.09,43.882L216.98,47.109L224.86,49.749L232.75,48.575L240.64,46.815L248.52,54.149L256.41,45.936L264.3,50.335L272.18,47.402L280.07,43.296L287.96,50.629L295.84,43.002L303.73,46.815L311.61,42.709L319.5,47.989L327.39,50.335L335.27,45.642L343.16,43.296L351.05,46.522L358.93,47.695L366.82,43.589L374.71,46.522L382.59,47.695L390.48,51.509L398.37,46.522L406.25,46.815L414.14,45.642L422.03,47.109L429.91,45.936L437.8,50.042L445.68,47.695L453.57,47.109L461.46,43.882L469.34,46.229L477.23,45.936L485.12,54.149L493,49.749L500.89,53.269L508.78,51.509L516.66,42.709L524.55,51.802L532.44,47.109L540.32,42.709L548.21,43.589L556.09,46.522L563.98,47.402L571.87,47.989L579.75,45.056L587.64,43.589L595.53,48.282L603.41,52.389L611.3,43.002L619.19,47.109L627.07,43.882L634.96,48.575L642.85,51.802L650.73,45.056L658.62,49.455L666.51,45.349L674.39,46.815L682.28,51.802L690.16,49.455L698.05,43.002L705.94,43.589L713.82,46.522L721.71,46.522L729.6,43.296L737.48,48.869L745.37,46.815L753.26,46.522L761.14,46.522L769.03,50.042L776.92,47.695L784.8,43.296L792.69,43.002L800.57,47.695L808.46,57.082L816.35,44.762L824.23,54.735L832.12,43.589L840.01,45.642L847.89,49.162" style="fill:none;stroke:#5A9BD4" />
<path d="M67.135,56.98L64.428,52.293L69.841,52.293Z" style="fill:#5A9BD4" />
<path d="M75.021,50.82L72.315,46.133L77.728,46.133Z" style="fill:#5A9BD4" />
<path d="M82.908,48.474L80.201,43.786L85.614,43.786Z" style="fill:#5A9BD4" />
<path d="M90.794,50.82L88.088,46.133L93.5,46.133Z" style="fill:#5A9BD4" />
<path d="M98.681,56.1L95.974,51.413L101.39,51.413Z" style="fill:#5A9BD4" />
<path d="M106.57,48.474L103.86,43.786L109.27,43.786Z" style="fill:#5A9BD4" />
<path d="M114.45,48.474L111.75,43.786L117.16,43.786Z" style="fill:#5A9BD4" />
<path d="M122.34,49.647L119.63,44.96L125.05,44.96Z" style="fill:#5A9BD4" />
<path d="M130.23,50.82L127.52,46.133L132.93,46.133Z" style="fill:#5A9BD4" />
<path d="M138.11,47.887L135.41,43.2L140.82,43.2Z" style="fill:#5A9BD4" />
<path d="M146,46.127L143.29,41.44L148.71,41.44Z" style="fill:#5A9BD4" />
<path d="M153.89,55.22L151.18,50.533L156.59,50.533Z" style="fill:#5A9BD4" />
<path d="M161.77,51.114L159.07,46.426L164.48,46.426Z" style="fill:#5A9BD4" />
<path d="M169.66,49.354L166.95,44.666L172.36,44.666Z" style="fill:#5A9BD4" />
<path d="M177.55,55.22L174.84,50.533L180.25,50.533Z" style="fill:#5A9BD4" />
<path d="M185.43,50.82L182.73,46.133L188.14,46.133Z" style="fill:#5A9BD4" />
<path d="M193.32,46.127L190.61,41.44L196.02,41.44Z" style="fill:#5A9BD4" />
<path d="M201.2,50.82L198.5,46.133L203.91,46.133Z" style="fill:#5A9BD4" />
<path d="M209.09,47.007L206.38,42.32L211.8,42.32Z" style="fill:#5A9BD4" />
<path d="M216.98,50.234L214.27,45.546L219.68,45.546Z" style="fill:#5A9BD4" />
<path d="M224.86,52.874L222.16,48.186L227.57,48.186Z" style="fill:#5A9BD4" />
<path d="M232.75,51.7L230.04,47.013L235.46,47.013Z" style="fill:#5A9BD4" />
<path d="M240.64,49.94L237.93,45.253L243.34,45.253Z" style="fill:#5A9BD4" />
<path d="M248.52,57.274L245.82,52.586L251.23,52.586Z" style="fill:#5A9BD4" />
<path d="M256.41,49.061L253.7,44.373L259.12,44.373Z" style="fill:#5A9BD4" />
<path d="M264.3,53.46L261.59,48.773L267,48.773Z" style="fill:#5A9BD4" />
<path d="M272.18,50.527L269.48,45.84L274.89,45.84Z" style="fill:#5A9BD4" />
<path d="M280.07,46.421L277.36,41.733L282.78,41.733Z" style="fill:#5A9BD4" />
<path d="M287.96,53.754L285.25,49.066L290.66,49.066Z" style="fill:#5A9BD4" />
<path d="M295.84,46.127L293.14,41.44L298.55,41.44Z" style="fill:#5A9BD4" />
<path d="M303.73,49.94L301.02,45.253L306.43,45.253Z" style="fill:#5A9BD4" />
<path d="M311.61,45.834L308.91,41.146L314.32,41.146Z" style="fill:#5A9BD4" />
<path d="M319.5,51.114L316.79,46.426L322.21,46.426Z" style="fill:#5A9BD4" />
<path d="M327.39,53.46L324.68,48.773L330.09,48.773Z" style="fill:#5A9BD4" />
<path d="M335.27,48.767L332.57,44.08L337.98,44.08Z" style="fill:#5A9BD4" />
<path d="M343.16,46.421L340.45,41.733L345.87,41.733Z" style="fill:#5A9BD4" />
<path d="M351.05,49.647L348.34,44.96L353.75,44.96Z" style="fill:#5A9BD4" />
<path d="M358.93,50.82L356.23,46.133L361.64,46.133Z" style="fill:#5A9BD4" />
<path d="M366.82,46.714L364.11,42.026L369.53,42.026Z" style="fill:#5A9BD4" />
<path d="M374.71,49.647L372,44.96L377.41,44.96Z" style="fill:#5A9BD4" />
<path d="M382.59,50.82L379.89,46.133L385.3,46.133Z" style="fill:#5A9BD4" />
<path d="M390.48,54.634L387.77,49.946L393.19,49.946Z" style="fill:#5A9BD4" />
<path d="M398.37,49.647L395.66,44.96L401.07,44.96Z" style="fill:#5A9BD4" />
<path d="M406.25,49.94L403.55,45.253L408.96,45.253Z" style="fill:#5A9BD4" />
<path d="M414.14,48.767L411.43,44.08L416.85,44.08Z" style="fill:#5A9BD4" />
<path d="M422.03,50.234L419.32,45.546L424.73,45.546Z" style="fill:#5A9BD4" />
<path d="M429.91,49.061L427.21,44.373L432.62,44.373Z" style="fill:#5A9BD4" />
<path d="M437.8,53.167L435.09,48.48L440.5,48.48Z" style="fill:#5A9BD4" />
<path d="M445.68,50.82L442.98,46.133L448.39,46.133Z" style="fill:#5A9BD4" />
<path d="M453.57,50.234L450.86,45.546L456.28,45.546Z" style="fill:#5A9BD4" />
<path d="M461.46,47.007L458.75,42.32L464.16,42.32Z" style="fill:#5A9BD4" />
<path d="M469.34,49.354L466.64,44.666L472.05,44.666Z" style="fill:#5A9BD4" />
<path d="M477.23,49.061L474.52,44.373L479.94,44.373Z" style="fill:#5A9BD4" />
<path d="M485.12,57.274L482.41,52.586L487.82,52.586Z" style="fill:#5A9BD4" />
<path d="M493,52.874L490.3,48.186L495.71,48.186Z" style="fill:#5A9BD4" />
<path d="M500.89,56.394L498.18,51.706L503.6,51.706Z" style="fill:#5A9BD4" />
<path d="M508.78,54.634L506.07,49.946L511.48,49.946Z" style="fill:#5A9BD4" />
<path d="M516.66,45.834L513.96,41.146L519.37,41.146Z" style="fill:#5A9BD4" />
<path d="M524.55,54.927L521.84,50.239L527.26,50.239Z" style="fill:#5A9BD4" />
<path d="M532.44,50.234L529.73,45.546L535.14,45.546Z" style="fill:#5A9BD4" />
<path d="M540.32,45.834L537.62,41.146L543.03,41.146Z" style="fill:#5A9BD4" />
<path d="M548.21,46.714L545.5,42.026L550.91,42.026Z" style="fill:#5A9BD4" />
<path d="M556.09,49.647L553.39,44.96L558.8,44.96Z" style="fill:#5A9BD4" />
<path d="M563.98,50.527L561.28,45.84L566.69,45.84Z" style="fill:#5A9BD4" />
<path d="M571.87,51.114L569.16,46.426L574.57,46.426Z" style="fill:#5A9BD4" />
<path d="M579.75,48.181L577.05,43.493L582.46,43.493Z" style="fill:#5A9BD4" />
<path d="M587.64,46.714L584.93,42.026L590.35,42.026Z" style="fill:#5A9BD4" />
<path d="M595.53,51.407L592.82,46.72L598.23,46.72Z" style="fill:#5A9BD4" />
<path d="M603.41,55.514L600.71,50.826L606.12,50.826Z" style="fill:#5A9BD4" />
<path d="M611.3,46.127L608.59,41.44L614.01,41.44Z" style="fill:#5A9BD4" />
<path d="M619.19,50.234L616.48,45.546L621.89,45.546Z" style="fill:#5A9BD4" />
<path d="M627.07,47.007L624.37,42.32L629.78,42.32Z" style="fill:#5A9BD4" />
<path d="M634.96,51.7L632.25,47.013L637.67,47.013Z" style="fill:#5A9BD4" />
<path d="M642.85,54.927L640.14,50.239L645.55,50.239Z" style="fill:#5A9BD4" />
<path d="M650.73,48.181L648.03,43.493L653.44,43.493Z" style="fill:#5A9BD4" />
<path d="M658.62,52.58L655.91,47.893L661.33,47.893Z" style="fill:#5A9BD4" />
<path d="M666.51,48.474L663.8,43.786L669.21,43.786Z" style="fill:#5A9BD4" />
<path d="M674.39,49.94L671.69,45.253L677.1,45.253Z" style="fill:#5A9BD4" />
<path d="M682.28,54.927L679.57,50.239L684.98,50.239Z" style="fill:#5A9BD4" />
<path d="M690.16,52.58L687.46,47.893L692.87,47.893Z" style="fill:#5A9BD4" />
<path d="M698.05,46.127L695.34,41.44L700.76,41.44Z" style="fill:#5A9BD4" />
<path d="M705.94,46.714L703.23,42.026L708.64,42.026Z" style="fill:#5A9BD4" />
<path d="M713.82,49.647L711.12,44.96L716.53,44.96Z" style="fill:#5A9BD4" />
<path d="M721.71,49.647L719,44.96L724.42,44.96Z" style="fill:#5A9BD4" />
<path d="M729.6,46.421L726.89,41.733L732.3,41.733Z" style="fill:#5A9BD4" />
<path d="M737.48,51.994L734.78,47.306L740.19,47.306Z" style="fill:#5A9BD4" />
<path d="M745.37,49.94L742.66,45.253L748.08,45.253Z" style="fill:#5A9BD4" />
<path d="M753.26,49.647L750.55,44.96L755.96,44.96Z" style="fill:#5A9BD4" />
<path d="M761.14,49.647L758.44,44.96L763.85,44.96Z" style="fill:#5A9BD4" />
<path d="M769.03,53.167L766.32,48.48L771.74,48.48Z" style="fill:#5A9BD4" />
<path d="M776.92,50.82L774.21,46.133L779.62,46.133Z" style="fill:#5A9BD4" />
<path d="M784.8,46.421L782.1,41.733L787.51,41.733Z" style="fill:#5A9BD4" />
<path d="M792.69,46.127L789.98,41.44L795.39,41.44Z" style="fill:#5A9BD4" />
<path d="M800.57,50.82L797.87,46.133L803.28,46.133Z" style="fill:#5A9BD4" />
<path d="M808.46,60.207L805.76,55.519L811.17,55.519Z" style="fill:#5A9BD4" />
<path d="M816.35,47.887L813.64,43.2L819.05,43.2Z" style="fill:#5A9BD4" />
<path d="M824.23,57.86L821.53,53.173L826.94,53.173Z" style="fill:#5A9BD4" />
<path d="M832.12,46.714L829.41,42.026L834.83,42.026Z" style="fill:#5A9BD4" />
<path d="M840.01,48.767L837.3,44.08L842.71,44.08Z" style="fill:#5A9BD4" />
<path d="M847.89,52.287L845.19,47.6L850.6,47.6Z" style="fill:#5A9BD4" />
<path d="M830.39,65.668L850.39,65.668" style="fill:none;stroke:#F15A60" />
<path d="M840.39,68.793L837.69,64.105L843.1,64.105Z" style="fill:#F15A60" />
<text x="790.07" y="-63.181" transform="scale(1, -1)"
	style="font-family:Liberation Serif;font-variant:normal;font-weight:normal;font-style:normal;font-size:12px">to-main</text>
<path d="M830.39,55.484L850.39,55.484" style="fill:none;stroke:#7AC36A" />
<path d="M840.39,58.609L837.69,53.922L843.1,53.922Z" style="fill:#7AC36A" />
<text x="763.42" y="-52.997" transform="scale(1, -1)"
	style="font-family:Liberation Serif;font-variant:normal;font-weight:normal;font-style:normal;font-size:12px">to-fronted-up</text>
<path d="M830.39,45.301L850.39,45.301" style="fill:none;stroke:#5A9BD4" />
<path d="M840.39,48.426L837.69,43.738L843.1,43.738Z" style="fill:#5A9BD4" />
<text x="721.44" y="-42.813" transform="scale(1, -1)"
	style="font-family:Liberation Serif;font-variant:normal;font-weight:normal;font-style:normal;font-size:12px">fronted-up-main-delta</text>
</g>
</svg>
