<?xml version="1.0"?>
<!-- Generated by SVGo and Plotinum VG -->
<svg width="850.39pt" height="566.93pt" viewBox="0 0 850.39 566.93"
	xmlns="http://www.w3.org/2000/svg"
	xmlns:xlink="http://www.w3.org/1999/xlink">
<g transform="scale(1, -1) translate(0, -566.93)">
<path d="M0,0L850.39,0L850.39,566.93L0,566.93Z" style="fill:#FFFFFF" />
<text x="257.54" y="-557.54" transform="scale(1, -1)"
	style="font-family:Liberation Serif;font-variant:normal;font-weight:normal;font-style:normal;font-size:12px">Percentiles - FrontEndUp (Nearest Rank): regular-localhost-writeload</text>
<text x="431.03" y="-3.9023" transform="scale(1, -1)"
	style="font-family:Liberation Serif;font-variant:normal;font-weight:normal;font-style:normal;font-size:12px">Percentile</text>
<text x="211.02" y="-16.541" transform="scale(1, -1)"
	style="font-family:Liberation Serif;font-variant:normal;font-weight:normal;font-style:normal;font-size:10px">20</text>
<text x="524.46" y="-16.541" transform="scale(1, -1)"
	style="font-family:Liberation Serif;font-variant:normal;font-weight:normal;font-style:normal;font-size:10px">60</text>
<text x="835.39" y="-16.541" transform="scale(1, -1)"
	style="font-family:Liberation Serif;font-variant:normal;font-weight:normal;font-style:normal;font-size:10px">100</text>
<path d="M216.02,24.363L216.02,32.363" style="fill:none;stroke:#000000;stroke-width:0.5" />
<path d="M529.46,24.363L529.46,32.363" style="fill:none;stroke:#000000;stroke-width:0.5" />
<path d="M842.89,24.363L842.89,32.363" style="fill:none;stroke:#000000;stroke-width:0.5" />
<path d="M137.66,28.363L137.66,32.363" style="fill:none;stroke:#000000;stroke-width:0.5" />
<path d="M294.38,28.363L294.38,32.363" style="fill:none;stroke:#000000;stroke-width:0.5" />
<path d="M372.74,28.363L372.74,32.363" style="fill:none;stroke:#000000;stroke-width:0.5" />
<path d="M451.1,28.363L451.1,32.363" style="fill:none;stroke:#000000;stroke-width:0.5" />
<path d="M607.82,28.363L607.82,32.363" style="fill:none;stroke:#000000;stroke-width:0.5" />
<path d="M686.17,28.363L686.17,32.363" style="fill:none;stroke:#000000;stroke-width:0.5" />
<path d="M764.53,28.363L764.53,32.363" style="fill:none;stroke:#000000;stroke-width:0.5" />
<path d="M67.135,32.363L842.89,32.363" style="fill:none;stroke:#000000;stroke-width:0.5" />
<g transform="rotate(90)">
<text x="264.21" y="9.3867" transform="scale(1, -1)"
	style="font-family:Liberation Serif;font-variant:normal;font-weight:normal;font-style:normal;font-size:12px">Duration: ms</text>
</g>
<text x="20.885" y="-91.054" transform="scale(1, -1)"
	style="font-family:Liberation Serif;font-variant:normal;font-weight:normal;font-style:normal;font-size:10px">250.00</text>
<text x="15.885" y="-318.44" transform="scale(1, -1)"
	style="font-family:Liberation Serif;font-variant:normal;font-weight:normal;font-style:normal;font-size:10px">1000.00</text>
<text x="15.885" y="-545.82" transform="scale(1, -1)"
	style="font-family:Liberation Serif;font-variant:normal;font-weight:normal;font-style:normal;font-size:10px">1750.00</text>
<path d="M50.885,93.339L58.885,93.339" style="fill:none;stroke:#000000;stroke-width:0.5" />
<path d="M50.885,320.72L58.885,320.72" style="fill:none;stroke:#000000;stroke-width:0.5" />
<path d="M50.885,548.1L58.885,548.1" style="fill:none;stroke:#000000;stroke-width:0.5" />
<path d="M54.885,207.03L58.885,207.03" style="fill:none;stroke:#000000;stroke-width:0.5" />
<path d="M54.885,434.41L58.885,434.41" style="fill:none;stroke:#000000;stroke-width:0.5" />
<path d="M58.885,42.709L58.885,548.71" style="fill:none;stroke:#000000;stroke-width:0.5" />
<path d="M216.02,42.709L216.02,548.71" style="fill:none;stroke:#808080;stroke-width:0.25" />
<path d="M529.46,42.709L529.46,548.71" style="fill:none;stroke:#808080;stroke-width:0.25" />
<path d="M842.89,42.709L842.89,548.71" style="fill:none;stroke:#808080;stroke-width:0.25" />
<path d="M67.135,93.339L842.89,93.339" style="fill:none;stroke:#808080;stroke-width:0.25" />
<path d="M67.135,320.72L842.89,320.72" style="fill:none;stroke:#808080;stroke-width:0.25" />
<path d="M67.135,548.1L842.89,548.1" style="fill:none;stroke:#808080;stroke-width:0.25" />
<path d="M67.135,42.709L74.971,43.619L82.807,46.347L90.643,48.469L98.479,48.772L106.31,49.076L114.15,49.379L121.99,49.682L129.82,49.682L137.66,49.682L145.49,50.592L153.33,50.592L161.17,51.198L169,52.107L176.84,52.411L184.67,52.714L192.51,54.23L200.35,54.23L208.18,54.23L216.02,54.533L223.85,54.533L231.69,54.533L239.53,54.533L247.36,55.139L255.2,56.958L263.03,57.261L270.87,57.565L278.71,58.777L286.54,59.384L294.38,61.203L302.21,63.931L310.05,66.357L317.89,72.42L325.72,83.638L333.56,89.701L341.39,93.339L349.23,94.249L357.06,95.462L364.9,96.371L372.74,101.22L380.57,104.86L388.41,106.07L396.24,108.5L404.08,112.14L411.92,113.96L419.75,127.9L427.59,134.27L435.42,135.78L443.26,137.3L451.1,141.24L458.93,141.85L466.77,142.45L474.6,143.06L482.44,146.4L490.28,150.03L498.11,150.64L505.95,151.25L513.78,153.37L521.62,153.97L529.46,153.97L537.29,154.88L545.13,155.19L552.96,161.86L560.8,163.37L568.64,166.71L576.47,170.04L584.31,170.04L592.14,177.93L599.98,180.96L607.82,183.08L615.65,186.41L623.49,186.41L631.32,190.96L639.16,192.48L646.99,193.08L654.83,196.12L662.67,197.63L670.5,198.84L678.34,199.15L686.17,205.51L694.01,235.23L701.85,235.53L709.68,237.65L717.52,254.33L725.35,257.36L733.19,266.15L741.03,266.45L748.86,275.55L756.7,275.55L764.53,287.37L772.37,295.25L780.21,298.89L788.04,307.08L795.88,319.21L803.71,358.62L811.55,363.77L819.39,386.21L827.22,401.06L835.06,412.28L842.89,548.71" style="fill:none;stroke:#7AC36A" />
<path d="M67.135,45.834L64.428,41.146L69.841,41.146Z" style="fill:#7AC36A" />
<path d="M74.971,46.744L72.264,42.056L77.677,42.056Z" style="fill:#7AC36A" />
<path d="M82.807,49.472L80.1,44.785L85.513,44.785Z" style="fill:#7AC36A" />
<path d="M90.643,51.594L87.936,46.907L93.349,46.907Z" style="fill:#7AC36A" />
<path d="M98.479,51.897L95.772,47.21L101.18,47.21Z" style="fill:#7AC36A" />
<path d="M106.31,52.201L103.61,47.513L109.02,47.513Z" style="fill:#7AC36A" />
<path d="M114.15,52.504L111.44,47.816L116.86,47.816Z" style="fill:#7AC36A" />
<path d="M121.99,52.807L119.28,48.12L124.69,48.12Z" style="fill:#7AC36A" />
<path d="M129.82,52.807L127.12,48.12L132.53,48.12Z" style="fill:#7AC36A" />
<path d="M137.66,52.807L134.95,48.12L140.36,48.12Z" style="fill:#7AC36A" />
<path d="M145.49,53.717L142.79,49.029L148.2,49.029Z" style="fill:#7AC36A" />
<path d="M153.33,53.717L150.62,49.029L156.04,49.029Z" style="fill:#7AC36A" />
<path d="M161.17,54.323L158.46,49.635L163.87,49.635Z" style="fill:#7AC36A" />
<path d="M169,55.232L166.3,50.545L171.71,50.545Z" style="fill:#7AC36A" />
<path d="M176.84,55.536L174.13,50.848L179.54,50.848Z" style="fill:#7AC36A" />
<path d="M184.67,55.839L181.97,51.151L187.38,51.151Z" style="fill:#7AC36A" />
<path d="M192.51,57.355L189.8,52.667L195.22,52.667Z" style="fill:#7AC36A" />
<path d="M200.35,57.355L197.64,52.667L203.05,52.667Z" style="fill:#7AC36A" />
<path d="M208.18,57.355L205.48,52.667L210.89,52.667Z" style="fill:#7AC36A" />
<path d="M216.02,57.658L213.31,52.97L218.72,52.97Z" style="fill:#7AC36A" />
<path d="M223.85,57.658L221.15,52.97L226.56,52.97Z" style="fill:#7AC36A" />
<path d="M231.69,57.658L228.98,52.97L234.4,52.97Z" style="fill:#7AC36A" />
<path d="M239.53,57.658L236.82,52.97L242.23,52.97Z" style="fill:#7AC36A" />
<path d="M247.36,58.264L244.66,53.577L250.07,53.577Z" style="fill:#7AC36A" />
<path d="M255.2,60.083L252.49,55.396L257.9,55.396Z" style="fill:#7AC36A" />
<path d="M263.03,60.386L260.33,55.699L265.74,55.699Z" style="fill:#7AC36A" />
<path d="M270.87,60.69L268.16,56.002L273.58,56.002Z" style="fill:#7AC36A" />
<path d="M278.71,61.902L276,57.215L281.41,57.215Z" style="fill:#7AC36A" />
<path d="M286.54,62.509L283.84,57.821L289.25,57.821Z" style="fill:#7AC36A" />
<path d="M294.38,64.328L291.67,59.64L297.08,59.64Z" style="fill:#7AC36A" />
<path d="M302.21,67.056L299.51,62.369L304.92,62.369Z" style="fill:#7AC36A" />
<path d="M310.05,69.482L307.34,64.794L312.76,64.794Z" style="fill:#7AC36A" />
<path d="M317.89,75.545L315.18,70.858L320.59,70.858Z" style="fill:#7AC36A" />
<path d="M325.72,86.763L323.01,82.075L328.43,82.075Z" style="fill:#7AC36A" />
<path d="M333.56,92.826L330.85,88.139L336.26,88.139Z" style="fill:#7AC36A" />
<path d="M341.39,96.464L338.69,91.777L344.1,91.777Z" style="fill:#7AC36A" />
<path d="M349.23,97.374L346.52,92.686L351.94,92.686Z" style="fill:#7AC36A" />
<path d="M357.06,98.587L354.36,93.899L359.77,93.899Z" style="fill:#7AC36A" />
<path d="M364.9,99.496L362.19,94.809L367.61,94.809Z" style="fill:#7AC36A" />
<path d="M372.74,104.35L370.03,99.659L375.44,99.659Z" style="fill:#7AC36A" />
<path d="M380.57,107.99L377.87,103.3L383.28,103.3Z" style="fill:#7AC36A" />
<path d="M388.41,109.2L385.7,104.51L391.11,104.51Z" style="fill:#7AC36A" />
<path d="M396.24,111.62L393.54,106.94L398.95,106.94Z" style="fill:#7AC36A" />
<path d="M404.08,115.26L401.37,110.57L406.79,110.57Z" style="fill:#7AC36A" />
<path d="M411.92,117.08L409.21,112.39L414.62,112.39Z" style="fill:#7AC36A" />
<path d="M419.75,131.03L417.05,126.34L422.46,126.34Z" style="fill:#7AC36A" />
<path d="M427.59,137.39L424.88,132.71L430.29,132.71Z" style="fill:#7AC36A" />
<path d="M435.42,138.91L432.72,134.22L438.13,134.22Z" style="fill:#7AC36A" />
<path d="M443.26,140.42L440.55,135.74L445.97,135.74Z" style="fill:#7AC36A" />
<path d="M451.1,144.37L448.39,139.68L453.8,139.68Z" style="fill:#7AC36A" />
<path d="M458.93,144.97L456.23,140.28L461.64,140.28Z" style="fill:#7AC36A" />
<path d="M466.77,145.58L464.06,140.89L469.47,140.89Z" style="fill:#7AC36A" />
<path d="M474.6,146.19L471.9,141.5L477.31,141.5Z" style="fill:#7AC36A" />
<path d="M482.44,149.52L479.73,144.83L485.15,144.83Z" style="fill:#7AC36A" />
<path d="M490.28,153.16L487.57,148.47L492.98,148.47Z" style="fill:#7AC36A" />
<path d="M498.11,153.76L495.41,149.08L500.82,149.08Z" style="fill:#7AC36A" />
<path d="M505.95,154.37L503.24,149.68L508.65,149.68Z" style="fill:#7AC36A" />
<path d="M513.78,156.49L511.08,151.81L516.49,151.81Z" style="fill:#7AC36A" />
<path d="M521.62,157.1L518.91,152.41L524.33,152.41Z" style="fill:#7AC36A" />
<path d="M529.46,157.1L526.75,152.41L532.16,152.41Z" style="fill:#7AC36A" />
<path d="M537.29,158.01L534.59,153.32L540,153.32Z" style="fill:#7AC36A" />
<path d="M545.13,158.31L542.42,153.62L547.83,153.62Z" style="fill:#7AC36A" />
<path d="M552.96,164.98L550.26,160.29L555.67,160.29Z" style="fill:#7AC36A" />
<path d="M560.8,166.5L558.09,161.81L563.51,161.81Z" style="fill:#7AC36A" />
<path d="M568.64,169.83L565.93,165.15L571.34,165.15Z" style="fill:#7AC36A" />
<path d="M576.47,173.17L573.77,168.48L579.18,168.48Z" style="fill:#7AC36A" />
<path d="M584.31,173.17L581.6,168.48L587.01,168.48Z" style="fill:#7AC36A" />
<path d="M592.14,181.05L589.44,176.36L594.85,176.36Z" style="fill:#7AC36A" />
<path d="M599.98,184.08L597.27,179.39L602.69,179.39Z" style="fill:#7AC36A" />
<path d="M607.82,186.2L605.11,181.52L610.52,181.52Z" style="fill:#7AC36A" />
<path d="M615.65,189.54L612.94,184.85L618.36,184.85Z" style="fill:#7AC36A" />
<path d="M623.49,189.54L620.78,184.85L626.19,184.85Z" style="fill:#7AC36A" />
<path d="M631.32,194.09L628.62,189.4L634.03,189.4Z" style="fill:#7AC36A" />
<path d="M639.16,195.6L636.45,190.92L641.87,190.92Z" style="fill:#7AC36A" />
<path d="M646.99,196.21L644.29,191.52L649.7,191.52Z" style="fill:#7AC36A" />
<path d="M654.83,199.24L652.12,194.55L657.54,194.55Z" style="fill:#7AC36A" />
<path d="M662.67,200.76L659.96,196.07L665.37,196.07Z" style="fill:#7AC36A" />
<path d="M670.5,201.97L667.8,197.28L673.21,197.28Z" style="fill:#7AC36A" />
<path d="M678.34,202.27L675.63,197.59L681.05,197.59Z" style="fill:#7AC36A" />
<path d="M686.17,208.64L683.47,203.95L688.88,203.95Z" style="fill:#7AC36A" />
<path d="M694.01,238.35L691.3,233.66L696.72,233.66Z" style="fill:#7AC36A" />
<path d="M701.85,238.65L699.14,233.97L704.55,233.97Z" style="fill:#7AC36A" />
<path d="M709.68,240.78L706.98,236.09L712.39,236.09Z" style="fill:#7AC36A" />
<path d="M717.52,257.45L714.81,252.76L720.22,252.76Z" style="fill:#7AC36A" />
<path d="M725.35,260.48L722.65,255.79L728.06,255.79Z" style="fill:#7AC36A" />
<path d="M733.19,269.27L730.48,264.59L735.9,264.59Z" style="fill:#7AC36A" />
<path d="M741.03,269.58L738.32,264.89L743.73,264.89Z" style="fill:#7AC36A" />
<path d="M748.86,278.67L746.16,273.99L751.57,273.99Z" style="fill:#7AC36A" />
<path d="M756.7,278.67L753.99,273.99L759.4,273.99Z" style="fill:#7AC36A" />
<path d="M764.53,290.5L761.83,285.81L767.24,285.81Z" style="fill:#7AC36A" />
<path d="M772.37,298.38L769.66,293.69L775.08,293.69Z" style="fill:#7AC36A" />
<path d="M780.21,302.02L777.5,297.33L782.91,297.33Z" style="fill:#7AC36A" />
<path d="M788.04,310.2L785.34,305.52L790.75,305.52Z" style="fill:#7AC36A" />
<path d="M795.88,322.33L793.17,317.64L798.58,317.64Z" style="fill:#7AC36A" />
<path d="M803.71,361.74L801.01,357.06L806.42,357.06Z" style="fill:#7AC36A" />
<path d="M811.55,366.9L808.84,362.21L814.26,362.21Z" style="fill:#7AC36A" />
<path d="M819.39,389.33L816.68,384.64L822.09,384.64Z" style="fill:#7AC36A" />
<path d="M827.22,404.19L824.52,399.5L829.93,399.5Z" style="fill:#7AC36A" />
<path d="M835.06,415.41L832.35,410.72L837.76,410.72Z" style="fill:#7AC36A" />
<path d="M842.89,551.83L840.19,547.15L845.6,547.15Z" style="fill:#7AC36A" />
<path d="M830.39,45.301L850.39,45.301" style="fill:none;stroke:#7AC36A" />
<path d="M840.39,48.426L837.69,43.738L843.1,43.738Z" style="fill:#7AC36A" />
<text x="763.42" y="-42.813" transform="scale(1, -1)"
	style="font-family:Liberation Serif;font-variant:normal;font-weight:normal;font-style:normal;font-size:12px">to-fronted-up</text>
</g>
</svg>
