<?xml version="1.0"?>
<!-- Generated by SVGo and Plotinum VG -->
<svg width="850.39pt" height="566.93pt" viewBox="0 0 850.39 566.93"
	xmlns="http://www.w3.org/2000/svg"
	xmlns:xlink="http://www.w3.org/1999/xlink">
<g transform="scale(1, -1) translate(0, -566.93)">
<path d="M0,0L850.39,0L850.39,566.93L0,566.93Z" style="fill:#FFFFFF" />
<text x="227.89" y="-557.54" transform="scale(1, -1)"
	style="font-family:Liberation Serif;font-variant:normal;font-weight:normal;font-style:normal;font-size:12px">Percentiles - FrontEndUp-Main-Delta (Nearest Rank): regular-localhost-writeload</text>
<text x="419.78" y="-3.9023" transform="scale(1, -1)"
	style="font-family:Liberation Serif;font-variant:normal;font-weight:normal;font-style:normal;font-size:12px">Percentile</text>
<text x="192.84" y="-16.541" transform="scale(1, -1)"
	style="font-family:Liberation Serif;font-variant:normal;font-weight:normal;font-style:normal;font-size:10px">20</text>
<text x="515.36" y="-16.541" transform="scale(1, -1)"
	style="font-family:Liberation Serif;font-variant:normal;font-weight:normal;font-style:normal;font-size:10px">60</text>
<text x="835.39" y="-16.541" transform="scale(1, -1)"
	style="font-family:Liberation Serif;font-variant:normal;font-weight:normal;font-style:normal;font-size:10px">100</text>
<path d="M197.84,24.363L197.84,32.363" style="fill:none;stroke:#000000;stroke-width:0.5" />
<path d="M520.36,24.363L520.36,32.363" style="fill:none;stroke:#000000;stroke-width:0.5" />
<path d="M842.89,24.363L842.89,32.363" style="fill:none;stroke:#000000;stroke-width:0.5" />
<path d="M117.2,28.363L117.2,32.363" style="fill:none;stroke:#000000;stroke-width:0.5" />
<path d="M278.47,28.363L278.47,32.363" style="fill:none;stroke:#000000;stroke-width:0.5" />
<path d="M359.1,28.363L359.1,32.363" style="fill:none;stroke:#000000;stroke-width:0.5" />
<path d="M439.73,28.363L439.73,32.363" style="fill:none;stroke:#000000;stroke-width:0.5" />
<path d="M601,28.363L601,32.363" style="fill:none;stroke:#000000;stroke-width:0.5" />
<path d="M681.63,28.363L681.63,32.363" style="fill:none;stroke:#000000;stroke-width:0.5" />
<path d="M762.26,28.363L762.26,32.363" style="fill:none;stroke:#000000;stroke-width:0.5" />
<path d="M44.635,32.363L842.89,32.363" style="fill:none;stroke:#000000;stroke-width:0.5" />
<g transform="rotate(90)">
<text x="265.43" y="9.3867" transform="scale(1, -1)"
	style="font-family:Liberation Serif;font-variant:normal;font-weight:normal;font-style:normal;font-size:12px">Duration: ms</text>
</g>
<text x="15.885" y="-71.552" transform="scale(1, -1)"
	style="font-family:Liberation Serif;font-variant:normal;font-weight:normal;font-style:normal;font-size:10px">30</text>
<text x="15.885" y="-279.08" transform="scale(1, -1)"
	style="font-family:Liberation Serif;font-variant:normal;font-weight:normal;font-style:normal;font-size:10px">50</text>
<text x="15.885" y="-486.6" transform="scale(1, -1)"
	style="font-family:Liberation Serif;font-variant:normal;font-weight:normal;font-style:normal;font-size:10px">70</text>
<path d="M28.385,73.837L36.385,73.837" style="fill:none;stroke:#000000;stroke-width:0.5" />
<path d="M28.385,281.36L36.385,281.36" style="fill:none;stroke:#000000;stroke-width:0.5" />
<path d="M28.385,488.88L36.385,488.88" style="fill:none;stroke:#000000;stroke-width:0.5" />
<path d="M32.385,177.6L36.385,177.6" style="fill:none;stroke:#000000;stroke-width:0.5" />
<path d="M32.385,385.12L36.385,385.12" style="fill:none;stroke:#000000;stroke-width:0.5" />
<path d="M36.385,42.709L36.385,551.14" style="fill:none;stroke:#000000;stroke-width:0.5" />
<path d="M197.84,42.709L197.84,551.14" style="fill:none;stroke:#808080;stroke-width:0.25" />
<path d="M520.36,42.709L520.36,551.14" style="fill:none;stroke:#808080;stroke-width:0.25" />
<path d="M842.89,42.709L842.89,551.14" style="fill:none;stroke:#808080;stroke-width:0.25" />
<path d="M44.635,73.837L842.89,73.837" style="fill:none;stroke:#808080;stroke-width:0.25" />
<path d="M44.635,281.36L842.89,281.36" style="fill:none;stroke:#808080;stroke-width:0.25" />
<path d="M44.635,488.88L842.89,488.88" style="fill:none;stroke:#808080;stroke-width:0.25" />
<path d="M44.635,42.709L52.698,42.709L60.761,42.709L68.824,53.085L76.888,53.085L84.951,53.085L93.014,53.085L101.08,53.085L109.14,53.085L117.2,63.461L125.27,63.461L133.33,63.461L141.39,63.461L149.46,73.837L157.52,73.837L165.58,73.837L173.65,73.837L181.71,73.837L189.77,84.214L197.84,84.214L205.9,84.214L213.96,115.34L222.03,115.34L230.09,125.72L238.15,125.72L246.22,136.09L254.28,136.09L262.34,136.09L270.4,136.09L278.47,146.47L286.53,146.47L294.59,146.47L302.66,156.85L310.72,156.85L318.78,156.85L326.85,167.22L334.91,167.22L342.97,177.6L351.04,177.6L359.1,177.6L367.16,177.6L375.23,177.6L383.29,177.6L391.35,177.6L399.42,177.6L407.48,177.6L415.54,187.98L423.61,187.98L431.67,187.98L439.73,187.98L447.8,187.98L455.86,198.35L463.92,198.35L471.99,198.35L480.05,198.35L488.11,198.35L496.18,208.73L504.24,208.73L512.3,219.1L520.36,219.1L528.43,219.1L536.49,219.1L544.55,219.1L552.62,219.1L560.68,219.1L568.74,219.1L576.81,219.1L584.87,219.1L592.93,229.48L601,229.48L609.06,229.48L617.12,239.86L625.19,250.23L633.25,250.23L641.31,260.61L649.38,270.98L657.44,281.36L665.5,281.36L673.57,291.74L681.63,291.74L689.69,302.11L697.76,302.11L705.82,312.49L713.88,312.49L721.95,322.86L730.01,353.99L738.07,353.99L746.14,364.37L754.2,364.37L762.26,364.37L770.32,374.75L778.39,374.75L786.45,385.12L794.51,405.87L802.58,416.25L810.64,437L818.7,447.38L826.77,447.38L834.83,468.13L842.89,551.14" style="fill:none;stroke:#5A9BD4" />
<path d="M44.635,45.834L41.928,41.146L47.341,41.146Z" style="fill:#5A9BD4" />
<path d="M52.698,45.834L49.992,41.146L55.404,41.146Z" style="fill:#5A9BD4" />
<path d="M60.761,45.834L58.055,41.146L63.468,41.146Z" style="fill:#5A9BD4" />
<path d="M68.824,56.21L66.118,51.523L71.531,51.523Z" style="fill:#5A9BD4" />
<path d="M76.888,56.21L74.181,51.523L79.594,51.523Z" style="fill:#5A9BD4" />
<path d="M84.951,56.21L82.245,51.523L87.657,51.523Z" style="fill:#5A9BD4" />
<path d="M93.014,56.21L90.308,51.523L95.72,51.523Z" style="fill:#5A9BD4" />
<path d="M101.08,56.21L98.371,51.523L103.78,51.523Z" style="fill:#5A9BD4" />
<path d="M109.14,56.21L106.43,51.523L111.85,51.523Z" style="fill:#5A9BD4" />
<path d="M117.2,66.586L114.5,61.899L119.91,61.899Z" style="fill:#5A9BD4" />
<path d="M125.27,66.586L122.56,61.899L127.97,61.899Z" style="fill:#5A9BD4" />
<path d="M133.33,66.586L130.62,61.899L136.04,61.899Z" style="fill:#5A9BD4" />
<path d="M141.39,66.586L138.69,61.899L144.1,61.899Z" style="fill:#5A9BD4" />
<path d="M149.46,76.962L146.75,72.275L152.16,72.275Z" style="fill:#5A9BD4" />
<path d="M157.52,76.962L154.81,72.275L160.23,72.275Z" style="fill:#5A9BD4" />
<path d="M165.58,76.962L162.88,72.275L168.29,72.275Z" style="fill:#5A9BD4" />
<path d="M173.65,76.962L170.94,72.275L176.35,72.275Z" style="fill:#5A9BD4" />
<path d="M181.71,76.962L179,72.275L184.42,72.275Z" style="fill:#5A9BD4" />
<path d="M189.77,87.339L187.07,82.651L192.48,82.651Z" style="fill:#5A9BD4" />
<path d="M197.84,87.339L195.13,82.651L200.54,82.651Z" style="fill:#5A9BD4" />
<path d="M205.9,87.339L203.19,82.651L208.61,82.651Z" style="fill:#5A9BD4" />
<path d="M213.96,118.47L211.26,113.78L216.67,113.78Z" style="fill:#5A9BD4" />
<path d="M222.03,118.47L219.32,113.78L224.73,113.78Z" style="fill:#5A9BD4" />
<path d="M230.09,128.84L227.38,124.16L232.8,124.16Z" style="fill:#5A9BD4" />
<path d="M238.15,128.84L235.45,124.16L240.86,124.16Z" style="fill:#5A9BD4" />
<path d="M246.22,139.22L243.51,134.53L248.92,134.53Z" style="fill:#5A9BD4" />
<path d="M254.28,139.22L251.57,134.53L256.98,134.53Z" style="fill:#5A9BD4" />
<path d="M262.34,139.22L259.64,134.53L265.05,134.53Z" style="fill:#5A9BD4" />
<path d="M270.4,139.22L267.7,134.53L273.11,134.53Z" style="fill:#5A9BD4" />
<path d="M278.47,149.6L275.76,144.91L281.17,144.91Z" style="fill:#5A9BD4" />
<path d="M286.53,149.6L283.83,144.91L289.24,144.91Z" style="fill:#5A9BD4" />
<path d="M294.59,149.6L291.89,144.91L297.3,144.91Z" style="fill:#5A9BD4" />
<path d="M302.66,159.97L299.95,155.28L305.36,155.28Z" style="fill:#5A9BD4" />
<path d="M310.72,159.97L308.01,155.28L313.43,155.28Z" style="fill:#5A9BD4" />
<path d="M318.78,159.97L316.08,155.28L321.49,155.28Z" style="fill:#5A9BD4" />
<path d="M326.85,170.35L324.14,165.66L329.55,165.66Z" style="fill:#5A9BD4" />
<path d="M334.91,170.35L332.2,165.66L337.62,165.66Z" style="fill:#5A9BD4" />
<path d="M342.97,180.72L340.27,176.04L345.68,176.04Z" style="fill:#5A9BD4" />
<path d="M351.04,180.72L348.33,176.04L353.74,176.04Z" style="fill:#5A9BD4" />
<path d="M359.1,180.72L356.39,176.04L361.81,176.04Z" style="fill:#5A9BD4" />
<path d="M367.16,180.72L364.46,176.04L369.87,176.04Z" style="fill:#5A9BD4" />
<path d="M375.23,180.72L372.52,176.04L377.93,176.04Z" style="fill:#5A9BD4" />
<path d="M383.29,180.72L380.58,176.04L386,176.04Z" style="fill:#5A9BD4" />
<path d="M391.35,180.72L388.65,176.04L394.06,176.04Z" style="fill:#5A9BD4" />
<path d="M399.42,180.72L396.71,176.04L402.12,176.04Z" style="fill:#5A9BD4" />
<path d="M407.48,180.72L404.77,176.04L410.19,176.04Z" style="fill:#5A9BD4" />
<path d="M415.54,191.1L412.84,186.41L418.25,186.41Z" style="fill:#5A9BD4" />
<path d="M423.61,191.1L420.9,186.41L426.31,186.41Z" style="fill:#5A9BD4" />
<path d="M431.67,191.1L428.96,186.41L434.38,186.41Z" style="fill:#5A9BD4" />
<path d="M439.73,191.1L437.03,186.41L442.44,186.41Z" style="fill:#5A9BD4" />
<path d="M447.8,191.1L445.09,186.41L450.5,186.41Z" style="fill:#5A9BD4" />
<path d="M455.86,201.48L453.15,196.79L458.57,196.79Z" style="fill:#5A9BD4" />
<path d="M463.92,201.48L461.22,196.79L466.63,196.79Z" style="fill:#5A9BD4" />
<path d="M471.99,201.48L469.28,196.79L474.69,196.79Z" style="fill:#5A9BD4" />
<path d="M480.05,201.48L477.34,196.79L482.76,196.79Z" style="fill:#5A9BD4" />
<path d="M488.11,201.48L485.41,196.79L490.82,196.79Z" style="fill:#5A9BD4" />
<path d="M496.18,211.85L493.47,207.16L498.88,207.16Z" style="fill:#5A9BD4" />
<path d="M504.24,211.85L501.53,207.16L506.94,207.16Z" style="fill:#5A9BD4" />
<path d="M512.3,222.23L509.6,217.54L515.01,217.54Z" style="fill:#5A9BD4" />
<path d="M520.36,222.23L517.66,217.54L523.07,217.54Z" style="fill:#5A9BD4" />
<path d="M528.43,222.23L525.72,217.54L531.13,217.54Z" style="fill:#5A9BD4" />
<path d="M536.49,222.23L533.78,217.54L539.2,217.54Z" style="fill:#5A9BD4" />
<path d="M544.55,222.23L541.85,217.54L547.26,217.54Z" style="fill:#5A9BD4" />
<path d="M552.62,222.23L549.91,217.54L555.32,217.54Z" style="fill:#5A9BD4" />
<path d="M560.68,222.23L557.97,217.54L563.39,217.54Z" style="fill:#5A9BD4" />
<path d="M568.74,222.23L566.04,217.54L571.45,217.54Z" style="fill:#5A9BD4" />
<path d="M576.81,222.23L574.1,217.54L579.51,217.54Z" style="fill:#5A9BD4" />
<path d="M584.87,222.23L582.16,217.54L587.58,217.54Z" style="fill:#5A9BD4" />
<path d="M592.93,232.6L590.23,227.92L595.64,227.92Z" style="fill:#5A9BD4" />
<path d="M601,232.6L598.29,227.92L603.7,227.92Z" style="fill:#5A9BD4" />
<path d="M609.06,232.6L606.35,227.92L611.77,227.92Z" style="fill:#5A9BD4" />
<path d="M617.12,242.98L614.42,238.29L619.83,238.29Z" style="fill:#5A9BD4" />
<path d="M625.19,253.36L622.48,248.67L627.89,248.67Z" style="fill:#5A9BD4" />
<path d="M633.25,253.36L630.54,248.67L635.96,248.67Z" style="fill:#5A9BD4" />
<path d="M641.31,263.73L638.61,259.05L644.02,259.05Z" style="fill:#5A9BD4" />
<path d="M649.38,274.11L646.67,269.42L652.08,269.42Z" style="fill:#5A9BD4" />
<path d="M657.44,284.49L654.73,279.8L660.15,279.8Z" style="fill:#5A9BD4" />
<path d="M665.5,284.49L662.8,279.8L668.21,279.8Z" style="fill:#5A9BD4" />
<path d="M673.57,294.86L670.86,290.17L676.27,290.17Z" style="fill:#5A9BD4" />
<path d="M681.63,294.86L678.92,290.17L684.34,290.17Z" style="fill:#5A9BD4" />
<path d="M689.69,305.24L686.99,300.55L692.4,300.55Z" style="fill:#5A9BD4" />
<path d="M697.76,305.24L695.05,300.55L700.46,300.55Z" style="fill:#5A9BD4" />
<path d="M705.82,315.61L703.11,310.93L708.53,310.93Z" style="fill:#5A9BD4" />
<path d="M713.88,315.61L711.18,310.93L716.59,310.93Z" style="fill:#5A9BD4" />
<path d="M721.95,325.99L719.24,321.3L724.65,321.3Z" style="fill:#5A9BD4" />
<path d="M730.01,357.12L727.3,352.43L732.71,352.43Z" style="fill:#5A9BD4" />
<path d="M738.07,357.12L735.37,352.43L740.78,352.43Z" style="fill:#5A9BD4" />
<path d="M746.14,367.49L743.43,362.81L748.84,362.81Z" style="fill:#5A9BD4" />
<path d="M754.2,367.49L751.49,362.81L756.9,362.81Z" style="fill:#5A9BD4" />
<path d="M762.26,367.49L759.56,362.81L764.97,362.81Z" style="fill:#5A9BD4" />
<path d="M770.32,377.87L767.62,373.18L773.03,373.18Z" style="fill:#5A9BD4" />
<path d="M778.39,377.87L775.68,373.18L781.09,373.18Z" style="fill:#5A9BD4" />
<path d="M786.45,388.25L783.74,383.56L789.16,383.56Z" style="fill:#5A9BD4" />
<path d="M794.51,409L791.81,404.31L797.22,404.31Z" style="fill:#5A9BD4" />
<path d="M802.58,419.38L799.87,414.69L805.28,414.69Z" style="fill:#5A9BD4" />
<path d="M810.64,440.13L807.93,435.44L813.35,435.44Z" style="fill:#5A9BD4" />
<path d="M818.7,450.5L816,445.82L821.41,445.82Z" style="fill:#5A9BD4" />
<path d="M826.77,450.5L824.06,445.82L829.47,445.82Z" style="fill:#5A9BD4" />
<path d="M834.83,471.26L832.12,466.57L837.54,466.57Z" style="fill:#5A9BD4" />
<path d="M842.89,554.27L840.19,549.58L845.6,549.58Z" style="fill:#5A9BD4" />
<path d="M830.39,45.301L850.39,45.301" style="fill:none;stroke:#5A9BD4" />
<path d="M840.39,48.426L837.69,43.738L843.1,43.738Z" style="fill:#5A9BD4" />
<text x="763.42" y="-42.813" transform="scale(1, -1)"
	style="font-family:Liberation Serif;font-variant:normal;font-weight:normal;font-style:normal;font-size:12px">to-fronted-up</text>
</g>
</svg>
