<?xml version="1.0"?>
<!-- Generated by SVGo and Plotinum VG -->
<svg width="850.39pt" height="566.93pt" viewBox="0 0 850.39 566.93"
	xmlns="http://www.w3.org/2000/svg"
	xmlns:xlink="http://www.w3.org/1999/xlink">
<g transform="scale(1, -1) translate(0, -566.93)">
<path d="M0,0L850.39,0L850.39,566.93L0,566.93Z" style="fill:#FFFFFF" />
<text x="269.07" y="-557.54" transform="scale(1, -1)"
	style="font-family:Liberation Serif;font-variant:normal;font-weight:normal;font-style:normal;font-size:12px">Percentiles - Main (Nearest Rank): s3wl-putobj-100ms-ClusterIp</text>
<text x="428.53" y="-3.9023" transform="scale(1, -1)"
	style="font-family:Liberation Serif;font-variant:normal;font-weight:normal;font-style:normal;font-size:12px">Percentile</text>
<text x="206.98" y="-16.541" transform="scale(1, -1)"
	style="font-family:Liberation Serif;font-variant:normal;font-weight:normal;font-style:normal;font-size:10px">20</text>
<text x="522.44" y="-16.541" transform="scale(1, -1)"
	style="font-family:Liberation Serif;font-variant:normal;font-weight:normal;font-style:normal;font-size:10px">60</text>
<text x="835.39" y="-16.541" transform="scale(1, -1)"
	style="font-family:Liberation Serif;font-variant:normal;font-weight:normal;font-style:normal;font-size:10px">100</text>
<path d="M211.98,24.363L211.98,32.363" style="fill:none;stroke:#000000;stroke-width:0.5" />
<path d="M527.44,24.363L527.44,32.363" style="fill:none;stroke:#000000;stroke-width:0.5" />
<path d="M842.89,24.363L842.89,32.363" style="fill:none;stroke:#000000;stroke-width:0.5" />
<path d="M133.11,28.363L133.11,32.363" style="fill:none;stroke:#000000;stroke-width:0.5" />
<path d="M290.84,28.363L290.84,32.363" style="fill:none;stroke:#000000;stroke-width:0.5" />
<path d="M369.71,28.363L369.71,32.363" style="fill:none;stroke:#000000;stroke-width:0.5" />
<path d="M448.57,28.363L448.57,32.363" style="fill:none;stroke:#000000;stroke-width:0.5" />
<path d="M606.3,28.363L606.3,32.363" style="fill:none;stroke:#000000;stroke-width:0.5" />
<path d="M685.16,28.363L685.16,32.363" style="fill:none;stroke:#000000;stroke-width:0.5" />
<path d="M764.03,28.363L764.03,32.363" style="fill:none;stroke:#000000;stroke-width:0.5" />
<path d="M62.135,32.363L842.89,32.363" style="fill:none;stroke:#000000;stroke-width:0.5" />
<g transform="rotate(90)">
<text x="265.43" y="9.3867" transform="scale(1, -1)"
	style="font-family:Liberation Serif;font-variant:normal;font-weight:normal;font-style:normal;font-size:12px">Duration: ms</text>
</g>
<text x="15.885" y="-49.423" transform="scale(1, -1)"
	style="font-family:Liberation Serif;font-variant:normal;font-weight:normal;font-style:normal;font-size:10px">575.00</text>
<text x="15.885" y="-274.39" transform="scale(1, -1)"
	style="font-family:Liberation Serif;font-variant:normal;font-weight:normal;font-style:normal;font-size:10px">625.00</text>
<text x="15.885" y="-499.36" transform="scale(1, -1)"
	style="font-family:Liberation Serif;font-variant:normal;font-weight:normal;font-style:normal;font-size:10px">675.00</text>
<path d="M45.885,51.708L53.885,51.708" style="fill:none;stroke:#000000;stroke-width:0.5" />
<path d="M45.885,276.68L53.885,276.68" style="fill:none;stroke:#000000;stroke-width:0.5" />
<path d="M45.885,501.65L53.885,501.65" style="fill:none;stroke:#000000;stroke-width:0.5" />
<path d="M49.885,96.702L53.885,96.702" style="fill:none;stroke:#000000;stroke-width:0.5" />
<path d="M49.885,141.7L53.885,141.7" style="fill:none;stroke:#000000;stroke-width:0.5" />
<path d="M49.885,186.69L53.885,186.69" style="fill:none;stroke:#000000;stroke-width:0.5" />
<path d="M49.885,231.68L53.885,231.68" style="fill:none;stroke:#000000;stroke-width:0.5" />
<path d="M49.885,321.67L53.885,321.67" style="fill:none;stroke:#000000;stroke-width:0.5" />
<path d="M49.885,366.67L53.885,366.67" style="fill:none;stroke:#000000;stroke-width:0.5" />
<path d="M49.885,411.66L53.885,411.66" style="fill:none;stroke:#000000;stroke-width:0.5" />
<path d="M49.885,456.65L53.885,456.65" style="fill:none;stroke:#000000;stroke-width:0.5" />
<path d="M49.885,546.64L53.885,546.64" style="fill:none;stroke:#000000;stroke-width:0.5" />
<path d="M53.885,42.709L53.885,551.14" style="fill:none;stroke:#000000;stroke-width:0.5" />
<path d="M211.98,42.709L211.98,551.14" style="fill:none;stroke:#808080;stroke-width:0.25" />
<path d="M527.44,42.709L527.44,551.14" style="fill:none;stroke:#808080;stroke-width:0.25" />
<path d="M842.89,42.709L842.89,551.14" style="fill:none;stroke:#808080;stroke-width:0.25" />
<path d="M62.135,51.708L842.89,51.708" style="fill:none;stroke:#808080;stroke-width:0.25" />
<path d="M62.135,276.68L842.89,276.68" style="fill:none;stroke:#808080;stroke-width:0.25" />
<path d="M62.135,501.65L842.89,501.65" style="fill:none;stroke:#808080;stroke-width:0.25" />
<path d="M62.135,42.709L70.021,42.709L77.908,42.709L85.794,42.709L93.681,42.709L101.57,42.709L109.45,42.709L117.34,42.709L125.23,42.709L133.11,42.709L141,60.707L148.89,60.707L156.77,60.707L164.66,60.707L172.55,60.707L180.43,60.707L188.32,60.707L196.2,60.707L204.09,60.707L211.98,60.707L219.86,92.202L227.75,92.202L235.64,92.202L243.52,92.202L251.41,92.202L259.3,92.202L267.18,92.202L275.07,92.202L282.96,92.202L290.84,92.202L298.73,128.2L306.61,128.2L314.5,128.2L322.39,128.2L330.27,128.2L338.16,128.2L346.05,128.2L353.93,128.2L361.82,128.2L369.71,128.2L377.59,168.69L385.48,168.69L393.37,168.69L401.25,168.69L409.14,168.69L417.03,168.69L424.91,168.69L432.8,168.69L440.68,168.69L448.57,168.69L456.46,191.19L464.34,191.19L472.23,191.19L480.12,191.19L488,191.19L495.89,191.19L503.78,191.19L511.66,191.19L519.55,191.19L527.44,191.19L535.32,191.19L543.21,191.19L551.09,191.19L558.98,191.19L566.87,191.19L574.75,191.19L582.64,191.19L590.53,191.19L598.41,191.19L606.3,191.19L614.19,483.65L622.07,483.65L629.96,483.65L637.85,483.65L645.73,483.65L653.62,483.65L661.51,483.65L669.39,483.65L677.28,483.65L685.16,483.65L693.05,492.65L700.94,492.65L708.82,492.65L716.71,492.65L724.6,492.65L732.48,492.65L740.37,492.65L748.26,492.65L756.14,492.65L764.03,492.65L771.92,551.14L779.8,551.14L787.69,551.14L795.57,551.14L803.46,551.14L811.35,551.14L819.23,551.14L827.12,551.14L835.01,551.14L842.89,551.14" style="fill:none;stroke:#F15A60" />
<path d="M62.135,45.834L59.428,41.146L64.841,41.146Z" style="fill:#F15A60" />
<path d="M70.021,45.834L67.315,41.146L72.728,41.146Z" style="fill:#F15A60" />
<path d="M77.908,45.834L75.201,41.146L80.614,41.146Z" style="fill:#F15A60" />
<path d="M85.794,45.834L83.088,41.146L88.5,41.146Z" style="fill:#F15A60" />
<path d="M93.681,45.834L90.974,41.146L96.387,41.146Z" style="fill:#F15A60" />
<path d="M101.57,45.834L98.861,41.146L104.27,41.146Z" style="fill:#F15A60" />
<path d="M109.45,45.834L106.75,41.146L112.16,41.146Z" style="fill:#F15A60" />
<path d="M117.34,45.834L114.63,41.146L120.05,41.146Z" style="fill:#F15A60" />
<path d="M125.23,45.834L122.52,41.146L127.93,41.146Z" style="fill:#F15A60" />
<path d="M133.11,45.834L130.41,41.146L135.82,41.146Z" style="fill:#F15A60" />
<path d="M141,63.832L138.29,59.144L143.71,59.144Z" style="fill:#F15A60" />
<path d="M148.89,63.832L146.18,59.144L151.59,59.144Z" style="fill:#F15A60" />
<path d="M156.77,63.832L154.07,59.144L159.48,59.144Z" style="fill:#F15A60" />
<path d="M164.66,63.832L161.95,59.144L167.36,59.144Z" style="fill:#F15A60" />
<path d="M172.55,63.832L169.84,59.144L175.25,59.144Z" style="fill:#F15A60" />
<path d="M180.43,63.832L177.73,59.144L183.14,59.144Z" style="fill:#F15A60" />
<path d="M188.32,63.832L185.61,59.144L191.02,59.144Z" style="fill:#F15A60" />
<path d="M196.2,63.832L193.5,59.144L198.91,59.144Z" style="fill:#F15A60" />
<path d="M204.09,63.832L201.38,59.144L206.8,59.144Z" style="fill:#F15A60" />
<path d="M211.98,63.832L209.27,59.144L214.68,59.144Z" style="fill:#F15A60" />
<path d="M219.86,95.327L217.16,90.64L222.57,90.64Z" style="fill:#F15A60" />
<path d="M227.75,95.327L225.04,90.64L230.46,90.64Z" style="fill:#F15A60" />
<path d="M235.64,95.327L232.93,90.64L238.34,90.64Z" style="fill:#F15A60" />
<path d="M243.52,95.327L240.82,90.64L246.23,90.64Z" style="fill:#F15A60" />
<path d="M251.41,95.327L248.7,90.64L254.12,90.64Z" style="fill:#F15A60" />
<path d="M259.3,95.327L256.59,90.64L262,90.64Z" style="fill:#F15A60" />
<path d="M267.18,95.327L264.48,90.64L269.89,90.64Z" style="fill:#F15A60" />
<path d="M275.07,95.327L272.36,90.64L277.78,90.64Z" style="fill:#F15A60" />
<path d="M282.96,95.327L280.25,90.64L285.66,90.64Z" style="fill:#F15A60" />
<path d="M290.84,95.327L288.14,90.64L293.55,90.64Z" style="fill:#F15A60" />
<path d="M298.73,131.32L296.02,126.63L301.43,126.63Z" style="fill:#F15A60" />
<path d="M306.61,131.32L303.91,126.63L309.32,126.63Z" style="fill:#F15A60" />
<path d="M314.5,131.32L311.79,126.63L317.21,126.63Z" style="fill:#F15A60" />
<path d="M322.39,131.32L319.68,126.63L325.09,126.63Z" style="fill:#F15A60" />
<path d="M330.27,131.32L327.57,126.63L332.98,126.63Z" style="fill:#F15A60" />
<path d="M338.16,131.32L335.45,126.63L340.87,126.63Z" style="fill:#F15A60" />
<path d="M346.05,131.32L343.34,126.63L348.75,126.63Z" style="fill:#F15A60" />
<path d="M353.93,131.32L351.23,126.63L356.64,126.63Z" style="fill:#F15A60" />
<path d="M361.82,131.32L359.11,126.63L364.53,126.63Z" style="fill:#F15A60" />
<path d="M369.71,131.32L367,126.63L372.41,126.63Z" style="fill:#F15A60" />
<path d="M377.59,171.82L374.89,167.13L380.3,167.13Z" style="fill:#F15A60" />
<path d="M385.48,171.82L382.77,167.13L388.19,167.13Z" style="fill:#F15A60" />
<path d="M393.37,171.82L390.66,167.13L396.07,167.13Z" style="fill:#F15A60" />
<path d="M401.25,171.82L398.55,167.13L403.96,167.13Z" style="fill:#F15A60" />
<path d="M409.14,171.82L406.43,167.13L411.85,167.13Z" style="fill:#F15A60" />
<path d="M417.03,171.82L414.32,167.13L419.73,167.13Z" style="fill:#F15A60" />
<path d="M424.91,171.82L422.21,167.13L427.62,167.13Z" style="fill:#F15A60" />
<path d="M432.8,171.82L430.09,167.13L435.5,167.13Z" style="fill:#F15A60" />
<path d="M440.68,171.82L437.98,167.13L443.39,167.13Z" style="fill:#F15A60" />
<path d="M448.57,171.82L445.86,167.13L451.28,167.13Z" style="fill:#F15A60" />
<path d="M456.46,194.31L453.75,189.63L459.16,189.63Z" style="fill:#F15A60" />
<path d="M464.34,194.31L461.64,189.63L467.05,189.63Z" style="fill:#F15A60" />
<path d="M472.23,194.31L469.52,189.63L474.94,189.63Z" style="fill:#F15A60" />
<path d="M480.12,194.31L477.41,189.63L482.82,189.63Z" style="fill:#F15A60" />
<path d="M488,194.31L485.3,189.63L490.71,189.63Z" style="fill:#F15A60" />
<path d="M495.89,194.31L493.18,189.63L498.6,189.63Z" style="fill:#F15A60" />
<path d="M503.78,194.31L501.07,189.63L506.48,189.63Z" style="fill:#F15A60" />
<path d="M511.66,194.31L508.96,189.63L514.37,189.63Z" style="fill:#F15A60" />
<path d="M519.55,194.31L516.84,189.63L522.26,189.63Z" style="fill:#F15A60" />
<path d="M527.44,194.31L524.73,189.63L530.14,189.63Z" style="fill:#F15A60" />
<path d="M535.32,194.31L532.62,189.63L538.03,189.63Z" style="fill:#F15A60" />
<path d="M543.21,194.31L540.5,189.63L545.91,189.63Z" style="fill:#F15A60" />
<path d="M551.09,194.31L548.39,189.63L553.8,189.63Z" style="fill:#F15A60" />
<path d="M558.98,194.31L556.28,189.63L561.69,189.63Z" style="fill:#F15A60" />
<path d="M566.87,194.31L564.16,189.63L569.57,189.63Z" style="fill:#F15A60" />
<path d="M574.75,194.31L572.05,189.63L577.46,189.63Z" style="fill:#F15A60" />
<path d="M582.64,194.31L579.93,189.63L585.35,189.63Z" style="fill:#F15A60" />
<path d="M590.53,194.31L587.82,189.63L593.23,189.63Z" style="fill:#F15A60" />
<path d="M598.41,194.31L595.71,189.63L601.12,189.63Z" style="fill:#F15A60" />
<path d="M606.3,194.31L603.59,189.63L609.01,189.63Z" style="fill:#F15A60" />
<path d="M614.19,486.77L611.48,482.09L616.89,482.09Z" style="fill:#F15A60" />
<path d="M622.07,486.77L619.37,482.09L624.78,482.09Z" style="fill:#F15A60" />
<path d="M629.96,486.77L627.25,482.09L632.67,482.09Z" style="fill:#F15A60" />
<path d="M637.85,486.77L635.14,482.09L640.55,482.09Z" style="fill:#F15A60" />
<path d="M645.73,486.77L643.03,482.09L648.44,482.09Z" style="fill:#F15A60" />
<path d="M653.62,486.77L650.91,482.09L656.33,482.09Z" style="fill:#F15A60" />
<path d="M661.51,486.77L658.8,482.09L664.21,482.09Z" style="fill:#F15A60" />
<path d="M669.39,486.77L666.69,482.09L672.1,482.09Z" style="fill:#F15A60" />
<path d="M677.28,486.77L674.57,482.09L679.98,482.09Z" style="fill:#F15A60" />
<path d="M685.16,486.77L682.46,482.09L687.87,482.09Z" style="fill:#F15A60" />
<path d="M693.05,495.77L690.34,491.09L695.76,491.09Z" style="fill:#F15A60" />
<path d="M700.94,495.77L698.23,491.09L703.64,491.09Z" style="fill:#F15A60" />
<path d="M708.82,495.77L706.12,491.09L711.53,491.09Z" style="fill:#F15A60" />
<path d="M716.71,495.77L714,491.09L719.42,491.09Z" style="fill:#F15A60" />
<path d="M724.6,495.77L721.89,491.09L727.3,491.09Z" style="fill:#F15A60" />
<path d="M732.48,495.77L729.78,491.09L735.19,491.09Z" style="fill:#F15A60" />
<path d="M740.37,495.77L737.66,491.09L743.08,491.09Z" style="fill:#F15A60" />
<path d="M748.26,495.77L745.55,491.09L750.96,491.09Z" style="fill:#F15A60" />
<path d="M756.14,495.77L753.44,491.09L758.85,491.09Z" style="fill:#F15A60" />
<path d="M764.03,495.77L761.32,491.09L766.74,491.09Z" style="fill:#F15A60" />
<path d="M771.92,554.27L769.21,549.58L774.62,549.58Z" style="fill:#F15A60" />
<path d="M779.8,554.27L777.1,549.58L782.51,549.58Z" style="fill:#F15A60" />
<path d="M787.69,554.27L784.98,549.58L790.39,549.58Z" style="fill:#F15A60" />
<path d="M795.57,554.27L792.87,549.58L798.28,549.58Z" style="fill:#F15A60" />
<path d="M803.46,554.27L800.76,549.58L806.17,549.58Z" style="fill:#F15A60" />
<path d="M811.35,554.27L808.64,549.58L814.05,549.58Z" style="fill:#F15A60" />
<path d="M819.23,554.27L816.53,549.58L821.94,549.58Z" style="fill:#F15A60" />
<path d="M827.12,554.27L824.41,549.58L829.83,549.58Z" style="fill:#F15A60" />
<path d="M835.01,554.27L832.3,549.58L837.71,549.58Z" style="fill:#F15A60" />
<path d="M842.89,554.27L840.19,549.58L845.6,549.58Z" style="fill:#F15A60" />
<path d="M830.39,45.301L850.39,45.301" style="fill:none;stroke:#F15A60" />
<path d="M840.39,48.426L837.69,43.738L843.1,43.738Z" style="fill:#F15A60" />
<text x="790.07" y="-42.813" transform="scale(1, -1)"
	style="font-family:Liberation Serif;font-variant:normal;font-weight:normal;font-style:normal;font-size:12px">to-main</text>
</g>
</svg>
