<?xml version="1.0"?>
<!-- Generated by SVGo and Plotinum VG -->
<svg width="850.39pt" height="566.93pt" viewBox="0 0 850.39 566.93"
	xmlns="http://www.w3.org/2000/svg"
	xmlns:xlink="http://www.w3.org/1999/xlink">
<g transform="scale(1, -1) translate(0, -566.93)">
<path d="M0,0L850.39,0L850.39,566.93L0,566.93Z" style="fill:#FFFFFF" />
<text x="222.08" y="-557.54" transform="scale(1, -1)"
	style="font-family:Liberation Serif;font-variant:normal;font-weight:normal;font-style:normal;font-size:12px">Percentiles - FrontEndUp-Main-Delta (Nearest Rank): s3wl-putobj-100ms-ClusterIp</text>
<text x="419.78" y="-3.9023" transform="scale(1, -1)"
	style="font-family:Liberation Serif;font-variant:normal;font-weight:normal;font-style:normal;font-size:12px">Percentile</text>
<text x="192.84" y="-16.541" transform="scale(1, -1)"
	style="font-family:Liberation Serif;font-variant:normal;font-weight:normal;font-style:normal;font-size:10px">20</text>
<text x="515.36" y="-16.541" transform="scale(1, -1)"
	style="font-family:Liberation Serif;font-variant:normal;font-weight:normal;font-style:normal;font-size:10px">60</text>
<text x="835.39" y="-16.541" transform="scale(1, -1)"
	style="font-family:Liberation Serif;font-variant:normal;font-weight:normal;font-style:normal;font-size:10px">100</text>
<path d="M197.84,24.363L197.84,32.363" style="fill:none;stroke:#000000;stroke-width:0.5" />
<path d="M520.36,24.363L520.36,32.363" style="fill:none;stroke:#000000;stroke-width:0.5" />
<path d="M842.89,24.363L842.89,32.363" style="fill:none;stroke:#000000;stroke-width:0.5" />
<path d="M117.2,28.363L117.2,32.363" style="fill:none;stroke:#000000;stroke-width:0.5" />
<path d="M278.47,28.363L278.47,32.363" style="fill:none;stroke:#000000;stroke-width:0.5" />
<path d="M359.1,28.363L359.1,32.363" style="fill:none;stroke:#000000;stroke-width:0.5" />
<path d="M439.73,28.363L439.73,32.363" style="fill:none;stroke:#000000;stroke-width:0.5" />
<path d="M601,28.363L601,32.363" style="fill:none;stroke:#000000;stroke-width:0.5" />
<path d="M681.63,28.363L681.63,32.363" style="fill:none;stroke:#000000;stroke-width:0.5" />
<path d="M762.26,28.363L762.26,32.363" style="fill:none;stroke:#000000;stroke-width:0.5" />
<path d="M44.635,32.363L842.89,32.363" style="fill:none;stroke:#000000;stroke-width:0.5" />
<g transform="rotate(90)">
<text x="263.91" y="9.3867" transform="scale(1, -1)"
	style="font-family:Liberation Serif;font-variant:normal;font-weight:normal;font-style:normal;font-size:12px">Duration: ms</text>
</g>
<text x="15.885" y="-40.424" transform="scale(1, -1)"
	style="font-family:Liberation Serif;font-variant:normal;font-weight:normal;font-style:normal;font-size:10px">39</text>
<text x="15.885" y="-293.12" transform="scale(1, -1)"
	style="font-family:Liberation Serif;font-variant:normal;font-weight:normal;font-style:normal;font-size:10px">41</text>
<text x="15.885" y="-545.82" transform="scale(1, -1)"
	style="font-family:Liberation Serif;font-variant:normal;font-weight:normal;font-style:normal;font-size:10px">43</text>
<path d="M28.385,42.709L36.385,42.709" style="fill:none;stroke:#000000;stroke-width:0.5" />
<path d="M28.385,295.41L36.385,295.41" style="fill:none;stroke:#000000;stroke-width:0.5" />
<path d="M28.385,548.1L36.385,548.1" style="fill:none;stroke:#000000;stroke-width:0.5" />
<path d="M32.385,169.06L36.385,169.06" style="fill:none;stroke:#000000;stroke-width:0.5" />
<path d="M32.385,421.75L36.385,421.75" style="fill:none;stroke:#000000;stroke-width:0.5" />
<path d="M36.385,42.709L36.385,548.1" style="fill:none;stroke:#000000;stroke-width:0.5" />
<path d="M197.84,42.709L197.84,548.1" style="fill:none;stroke:#808080;stroke-width:0.25" />
<path d="M520.36,42.709L520.36,548.1" style="fill:none;stroke:#808080;stroke-width:0.25" />
<path d="M842.89,42.709L842.89,548.1" style="fill:none;stroke:#808080;stroke-width:0.25" />
<path d="M44.635,42.709L842.89,42.709" style="fill:none;stroke:#808080;stroke-width:0.25" />
<path d="M44.635,295.41L842.89,295.41" style="fill:none;stroke:#808080;stroke-width:0.25" />
<path d="M44.635,548.1L842.89,548.1" style="fill:none;stroke:#808080;stroke-width:0.25" />
<path d="M44.635,42.709L52.698,42.709L60.761,42.709L68.824,42.709L76.888,42.709L84.951,42.709L93.014,42.709L101.08,42.709L109.14,42.709L117.2,42.709L125.27,169.06L133.33,169.06L141.39,169.06L149.46,169.06L157.52,169.06L165.58,169.06L173.65,169.06L181.71,169.06L189.77,169.06L197.84,169.06L205.9,169.06L213.96,169.06L222.03,169.06L230.09,169.06L238.15,169.06L246.22,169.06L254.28,169.06L262.34,169.06L270.4,169.06L278.47,169.06L286.53,295.41L294.59,295.41L302.66,295.41L310.72,295.41L318.78,295.41L326.85,295.41L334.91,295.41L342.97,295.41L351.04,295.41L359.1,295.41L367.16,295.41L375.23,295.41L383.29,295.41L391.35,295.41L399.42,295.41L407.48,295.41L415.54,295.41L423.61,295.41L431.67,295.41L439.73,295.41L447.8,295.41L455.86,295.41L463.92,295.41L471.99,295.41L480.05,295.41L488.11,295.41L496.18,295.41L504.24,295.41L512.3,295.41L520.36,295.41L528.43,295.41L536.49,295.41L544.55,295.41L552.62,295.41L560.68,295.41L568.74,295.41L576.81,295.41L584.87,295.41L592.93,295.41L601,295.41L609.06,295.41L617.12,295.41L625.19,295.41L633.25,295.41L641.31,295.41L649.38,295.41L657.44,295.41L665.5,295.41L673.57,295.41L681.63,295.41L689.69,421.75L697.76,421.75L705.82,421.75L713.88,421.75L721.95,421.75L730.01,421.75L738.07,421.75L746.14,421.75L754.2,421.75L762.26,421.75L770.32,548.1L778.39,548.1L786.45,548.1L794.51,548.1L802.58,548.1L810.64,548.1L818.7,548.1L826.77,548.1L834.83,548.1L842.89,548.1" style="fill:none;stroke:#5A9BD4" />
<path d="M44.635,45.834L41.928,41.146L47.341,41.146Z" style="fill:#5A9BD4" />
<path d="M52.698,45.834L49.992,41.146L55.404,41.146Z" style="fill:#5A9BD4" />
<path d="M60.761,45.834L58.055,41.146L63.468,41.146Z" style="fill:#5A9BD4" />
<path d="M68.824,45.834L66.118,41.146L71.531,41.146Z" style="fill:#5A9BD4" />
<path d="M76.888,45.834L74.181,41.146L79.594,41.146Z" style="fill:#5A9BD4" />
<path d="M84.951,45.834L82.245,41.146L87.657,41.146Z" style="fill:#5A9BD4" />
<path d="M93.014,45.834L90.308,41.146L95.72,41.146Z" style="fill:#5A9BD4" />
<path d="M101.08,45.834L98.371,41.146L103.78,41.146Z" style="fill:#5A9BD4" />
<path d="M109.14,45.834L106.43,41.146L111.85,41.146Z" style="fill:#5A9BD4" />
<path d="M117.2,45.834L114.5,41.146L119.91,41.146Z" style="fill:#5A9BD4" />
<path d="M125.27,172.18L122.56,167.49L127.97,167.49Z" style="fill:#5A9BD4" />
<path d="M133.33,172.18L130.62,167.49L136.04,167.49Z" style="fill:#5A9BD4" />
<path d="M141.39,172.18L138.69,167.49L144.1,167.49Z" style="fill:#5A9BD4" />
<path d="M149.46,172.18L146.75,167.49L152.16,167.49Z" style="fill:#5A9BD4" />
<path d="M157.52,172.18L154.81,167.49L160.23,167.49Z" style="fill:#5A9BD4" />
<path d="M165.58,172.18L162.88,167.49L168.29,167.49Z" style="fill:#5A9BD4" />
<path d="M173.65,172.18L170.94,167.49L176.35,167.49Z" style="fill:#5A9BD4" />
<path d="M181.71,172.18L179,167.49L184.42,167.49Z" style="fill:#5A9BD4" />
<path d="M189.77,172.18L187.07,167.49L192.48,167.49Z" style="fill:#5A9BD4" />
<path d="M197.84,172.18L195.13,167.49L200.54,167.49Z" style="fill:#5A9BD4" />
<path d="M205.9,172.18L203.19,167.49L208.61,167.49Z" style="fill:#5A9BD4" />
<path d="M213.96,172.18L211.26,167.49L216.67,167.49Z" style="fill:#5A9BD4" />
<path d="M222.03,172.18L219.32,167.49L224.73,167.49Z" style="fill:#5A9BD4" />
<path d="M230.09,172.18L227.38,167.49L232.8,167.49Z" style="fill:#5A9BD4" />
<path d="M238.15,172.18L235.45,167.49L240.86,167.49Z" style="fill:#5A9BD4" />
<path d="M246.22,172.18L243.51,167.49L248.92,167.49Z" style="fill:#5A9BD4" />
<path d="M254.28,172.18L251.57,167.49L256.98,167.49Z" style="fill:#5A9BD4" />
<path d="M262.34,172.18L259.64,167.49L265.05,167.49Z" style="fill:#5A9BD4" />
<path d="M270.4,172.18L267.7,167.49L273.11,167.49Z" style="fill:#5A9BD4" />
<path d="M278.47,172.18L275.76,167.49L281.17,167.49Z" style="fill:#5A9BD4" />
<path d="M286.53,298.53L283.83,293.84L289.24,293.84Z" style="fill:#5A9BD4" />
<path d="M294.59,298.53L291.89,293.84L297.3,293.84Z" style="fill:#5A9BD4" />
<path d="M302.66,298.53L299.95,293.84L305.36,293.84Z" style="fill:#5A9BD4" />
<path d="M310.72,298.53L308.01,293.84L313.43,293.84Z" style="fill:#5A9BD4" />
<path d="M318.78,298.53L316.08,293.84L321.49,293.84Z" style="fill:#5A9BD4" />
<path d="M326.85,298.53L324.14,293.84L329.55,293.84Z" style="fill:#5A9BD4" />
<path d="M334.91,298.53L332.2,293.84L337.62,293.84Z" style="fill:#5A9BD4" />
<path d="M342.97,298.53L340.27,293.84L345.68,293.84Z" style="fill:#5A9BD4" />
<path d="M351.04,298.53L348.33,293.84L353.74,293.84Z" style="fill:#5A9BD4" />
<path d="M359.1,298.53L356.39,293.84L361.81,293.84Z" style="fill:#5A9BD4" />
<path d="M367.16,298.53L364.46,293.84L369.87,293.84Z" style="fill:#5A9BD4" />
<path d="M375.23,298.53L372.52,293.84L377.93,293.84Z" style="fill:#5A9BD4" />
<path d="M383.29,298.53L380.58,293.84L386,293.84Z" style="fill:#5A9BD4" />
<path d="M391.35,298.53L388.65,293.84L394.06,293.84Z" style="fill:#5A9BD4" />
<path d="M399.42,298.53L396.71,293.84L402.12,293.84Z" style="fill:#5A9BD4" />
<path d="M407.48,298.53L404.77,293.84L410.19,293.84Z" style="fill:#5A9BD4" />
<path d="M415.54,298.53L412.84,293.84L418.25,293.84Z" style="fill:#5A9BD4" />
<path d="M423.61,298.53L420.9,293.84L426.31,293.84Z" style="fill:#5A9BD4" />
<path d="M431.67,298.53L428.96,293.84L434.38,293.84Z" style="fill:#5A9BD4" />
<path d="M439.73,298.53L437.03,293.84L442.44,293.84Z" style="fill:#5A9BD4" />
<path d="M447.8,298.53L445.09,293.84L450.5,293.84Z" style="fill:#5A9BD4" />
<path d="M455.86,298.53L453.15,293.84L458.57,293.84Z" style="fill:#5A9BD4" />
<path d="M463.92,298.53L461.22,293.84L466.63,293.84Z" style="fill:#5A9BD4" />
<path d="M471.99,298.53L469.28,293.84L474.69,293.84Z" style="fill:#5A9BD4" />
<path d="M480.05,298.53L477.34,293.84L482.76,293.84Z" style="fill:#5A9BD4" />
<path d="M488.11,298.53L485.41,293.84L490.82,293.84Z" style="fill:#5A9BD4" />
<path d="M496.18,298.53L493.47,293.84L498.88,293.84Z" style="fill:#5A9BD4" />
<path d="M504.24,298.53L501.53,293.84L506.94,293.84Z" style="fill:#5A9BD4" />
<path d="M512.3,298.53L509.6,293.84L515.01,293.84Z" style="fill:#5A9BD4" />
<path d="M520.36,298.53L517.66,293.84L523.07,293.84Z" style="fill:#5A9BD4" />
<path d="M528.43,298.53L525.72,293.84L531.13,293.84Z" style="fill:#5A9BD4" />
<path d="M536.49,298.53L533.78,293.84L539.2,293.84Z" style="fill:#5A9BD4" />
<path d="M544.55,298.53L541.85,293.84L547.26,293.84Z" style="fill:#5A9BD4" />
<path d="M552.62,298.53L549.91,293.84L555.32,293.84Z" style="fill:#5A9BD4" />
<path d="M560.68,298.53L557.97,293.84L563.39,293.84Z" style="fill:#5A9BD4" />
<path d="M568.74,298.53L566.04,293.84L571.45,293.84Z" style="fill:#5A9BD4" />
<path d="M576.81,298.53L574.1,293.84L579.51,293.84Z" style="fill:#5A9BD4" />
<path d="M584.87,298.53L582.16,293.84L587.58,293.84Z" style="fill:#5A9BD4" />
<path d="M592.93,298.53L590.23,293.84L595.64,293.84Z" style="fill:#5A9BD4" />
<path d="M601,298.53L598.29,293.84L603.7,293.84Z" style="fill:#5A9BD4" />
<path d="M609.06,298.53L606.35,293.84L611.77,293.84Z" style="fill:#5A9BD4" />
<path d="M617.12,298.53L614.42,293.84L619.83,293.84Z" style="fill:#5A9BD4" />
<path d="M625.19,298.53L622.48,293.84L627.89,293.84Z" style="fill:#5A9BD4" />
<path d="M633.25,298.53L630.54,293.84L635.96,293.84Z" style="fill:#5A9BD4" />
<path d="M641.31,298.53L638.61,293.84L644.02,293.84Z" style="fill:#5A9BD4" />
<path d="M649.38,298.53L646.67,293.84L652.08,293.84Z" style="fill:#5A9BD4" />
<path d="M657.44,298.53L654.73,293.84L660.15,293.84Z" style="fill:#5A9BD4" />
<path d="M665.5,298.53L662.8,293.84L668.21,293.84Z" style="fill:#5A9BD4" />
<path d="M673.57,298.53L670.86,293.84L676.27,293.84Z" style="fill:#5A9BD4" />
<path d="M681.63,298.53L678.92,293.84L684.34,293.84Z" style="fill:#5A9BD4" />
<path d="M689.69,424.88L686.99,420.19L692.4,420.19Z" style="fill:#5A9BD4" />
<path d="M697.76,424.88L695.05,420.19L700.46,420.19Z" style="fill:#5A9BD4" />
<path d="M705.82,424.88L703.11,420.19L708.53,420.19Z" style="fill:#5A9BD4" />
<path d="M713.88,424.88L711.18,420.19L716.59,420.19Z" style="fill:#5A9BD4" />
<path d="M721.95,424.88L719.24,420.19L724.65,420.19Z" style="fill:#5A9BD4" />
<path d="M730.01,424.88L727.3,420.19L732.71,420.19Z" style="fill:#5A9BD4" />
<path d="M738.07,424.88L735.37,420.19L740.78,420.19Z" style="fill:#5A9BD4" />
<path d="M746.14,424.88L743.43,420.19L748.84,420.19Z" style="fill:#5A9BD4" />
<path d="M754.2,424.88L751.49,420.19L756.9,420.19Z" style="fill:#5A9BD4" />
<path d="M762.26,424.88L759.56,420.19L764.97,420.19Z" style="fill:#5A9BD4" />
<path d="M770.32,551.23L767.62,546.54L773.03,546.54Z" style="fill:#5A9BD4" />
<path d="M778.39,551.23L775.68,546.54L781.09,546.54Z" style="fill:#5A9BD4" />
<path d="M786.45,551.23L783.74,546.54L789.16,546.54Z" style="fill:#5A9BD4" />
<path d="M794.51,551.23L791.81,546.54L797.22,546.54Z" style="fill:#5A9BD4" />
<path d="M802.58,551.23L799.87,546.54L805.28,546.54Z" style="fill:#5A9BD4" />
<path d="M810.64,551.23L807.93,546.54L813.35,546.54Z" style="fill:#5A9BD4" />
<path d="M818.7,551.23L816,546.54L821.41,546.54Z" style="fill:#5A9BD4" />
<path d="M826.77,551.23L824.06,546.54L829.47,546.54Z" style="fill:#5A9BD4" />
<path d="M834.83,551.23L832.12,546.54L837.54,546.54Z" style="fill:#5A9BD4" />
<path d="M842.89,551.23L840.19,546.54L845.6,546.54Z" style="fill:#5A9BD4" />
<path d="M830.39,45.301L850.39,45.301" style="fill:none;stroke:#5A9BD4" />
<path d="M840.39,48.426L837.69,43.738L843.1,43.738Z" style="fill:#5A9BD4" />
<text x="763.42" y="-42.813" transform="scale(1, -1)"
	style="font-family:Liberation Serif;font-variant:normal;font-weight:normal;font-style:normal;font-size:12px">to-fronted-up</text>
</g>
</svg>
