<?xml version="1.0"?>
<!-- Generated by SVGo and Plotinum VG -->
<svg width="850.39pt" height="566.93pt" viewBox="0 0 850.39 566.93"
	xmlns="http://www.w3.org/2000/svg"
	xmlns:xlink="http://www.w3.org/1999/xlink">
<g transform="scale(1, -1) translate(0, -566.93)">
<path d="M0,0L850.39,0L850.39,566.93L0,566.93Z" style="fill:#FFFFFF" />
<text x="302.72" y="-557.54" transform="scale(1, -1)"
	style="font-family:Liberation Serif;font-variant:normal;font-weight:normal;font-style:normal;font-size:12px">Raw Data Measures: s3wl-putobj-100ms-ClusterIp</text>
<text x="423.94" y="-3.9023" transform="scale(1, -1)"
	style="font-family:Liberation Serif;font-variant:normal;font-weight:normal;font-style:normal;font-size:12px">Restart ID</text>
<text x="47.135" y="-16.541" transform="scale(1, -1)"
	style="font-family:Liberation Serif;font-variant:normal;font-weight:normal;font-style:normal;font-size:10px">0</text>
<text x="401.92" y="-16.541" transform="scale(1, -1)"
	style="font-family:Liberation Serif;font-variant:normal;font-weight:normal;font-style:normal;font-size:10px">4</text>
<text x="756.7" y="-16.541" transform="scale(1, -1)"
	style="font-family:Liberation Serif;font-variant:normal;font-weight:normal;font-style:normal;font-size:10px">8</text>
<path d="M49.635,24.363L49.635,32.363" style="fill:none;stroke:#000000;stroke-width:0.5" />
<path d="M404.42,24.363L404.42,32.363" style="fill:none;stroke:#000000;stroke-width:0.5" />
<path d="M759.2,24.363L759.2,32.363" style="fill:none;stroke:#000000;stroke-width:0.5" />
<path d="M138.33,28.363L138.33,32.363" style="fill:none;stroke:#000000;stroke-width:0.5" />
<path d="M227.03,28.363L227.03,32.363" style="fill:none;stroke:#000000;stroke-width:0.5" />
<path d="M315.72,28.363L315.72,32.363" style="fill:none;stroke:#000000;stroke-width:0.5" />
<path d="M493.11,28.363L493.11,32.363" style="fill:none;stroke:#000000;stroke-width:0.5" />
<path d="M581.81,28.363L581.81,32.363" style="fill:none;stroke:#000000;stroke-width:0.5" />
<path d="M670.5,28.363L670.5,32.363" style="fill:none;stroke:#000000;stroke-width:0.5" />
<path d="M847.89,28.363L847.89,32.363" style="fill:none;stroke:#000000;stroke-width:0.5" />
<path d="M49.635,32.363L847.89,32.363" style="fill:none;stroke:#000000;stroke-width:0.5" />
<g transform="rotate(90)">
<text x="265.43" y="9.3867" transform="scale(1, -1)"
	style="font-family:Liberation Serif;font-variant:normal;font-weight:normal;font-style:normal;font-size:12px">Duration: ms</text>
</g>
<text x="15.885" y="-85.437" transform="scale(1, -1)"
	style="font-family:Liberation Serif;font-variant:normal;font-weight:normal;font-style:normal;font-size:10px">100</text>
<text x="15.885" y="-306.82" transform="scale(1, -1)"
	style="font-family:Liberation Serif;font-variant:normal;font-weight:normal;font-style:normal;font-size:10px">400</text>
<text x="15.885" y="-528.19" transform="scale(1, -1)"
	style="font-family:Liberation Serif;font-variant:normal;font-weight:normal;font-style:normal;font-size:10px">700</text>
<path d="M33.385,87.722L41.385,87.722" style="fill:none;stroke:#000000;stroke-width:0.5" />
<path d="M33.385,309.1L41.385,309.1" style="fill:none;stroke:#000000;stroke-width:0.5" />
<path d="M33.385,530.48L41.385,530.48" style="fill:none;stroke:#000000;stroke-width:0.5" />
<path d="M37.385,161.52L41.385,161.52" style="fill:none;stroke:#000000;stroke-width:0.5" />
<path d="M37.385,235.31L41.385,235.31" style="fill:none;stroke:#000000;stroke-width:0.5" />
<path d="M37.385,382.89L41.385,382.89" style="fill:none;stroke:#000000;stroke-width:0.5" />
<path d="M37.385,456.69L41.385,456.69" style="fill:none;stroke:#000000;stroke-width:0.5" />
<path d="M41.385,42.709L41.385,551.14" style="fill:none;stroke:#000000;stroke-width:0.5" />
<path d="M49.635,42.709L49.635,551.14" style="fill:none;stroke:#808080;stroke-width:0.25" />
<path d="M404.42,42.709L404.42,551.14" style="fill:none;stroke:#808080;stroke-width:0.25" />
<path d="M759.2,42.709L759.2,551.14" style="fill:none;stroke:#808080;stroke-width:0.25" />
<path d="M49.635,87.722L847.89,87.722" style="fill:none;stroke:#808080;stroke-width:0.25" />
<path d="M49.635,309.1L847.89,309.1" style="fill:none;stroke:#808080;stroke-width:0.25" />
<path d="M49.635,530.48L847.89,530.48" style="fill:none;stroke:#808080;stroke-width:0.25" />
<path d="M49.635,461.11L138.33,509.08L227.03,461.11L315.72,444.88L404.42,436.76L493.11,450.78L581.81,439.71L670.5,520.15L759.2,510.55L847.89,457.42" style="fill:none;stroke:#F15A60" />
<path d="M49.635,464.24L46.928,459.55L52.341,459.55Z" style="fill:#F15A60" />
<path d="M138.33,512.2L135.62,507.52L141.04,507.52Z" style="fill:#F15A60" />
<path d="M227.03,464.24L224.32,459.55L229.73,459.55Z" style="fill:#F15A60" />
<path d="M315.72,448L313.01,443.32L318.43,443.32Z" style="fill:#F15A60" />
<path d="M404.42,439.89L401.71,435.2L407.12,435.2Z" style="fill:#F15A60" />
<path d="M493.11,453.91L490.41,449.22L495.82,449.22Z" style="fill:#F15A60" />
<path d="M581.81,442.84L579.1,438.15L584.51,438.15Z" style="fill:#F15A60" />
<path d="M670.5,523.27L667.8,518.58L673.21,518.58Z" style="fill:#F15A60" />
<path d="M759.2,513.68L756.49,508.99L761.9,508.99Z" style="fill:#F15A60" />
<path d="M847.89,460.55L845.19,455.86L850.6,455.86Z" style="fill:#F15A60" />
<path d="M49.635,492.11L138.33,540.07L227.03,491.37L315.72,475.13L404.42,466.28L493.11,482.51L581.81,471.44L670.5,551.14L759.2,540.81L847.89,486.94" style="fill:none;stroke:#7AC36A" />
<path d="M49.635,495.23L46.928,490.54L52.341,490.54Z" style="fill:#7AC36A" />
<path d="M138.33,543.2L135.62,538.51L141.04,538.51Z" style="fill:#7AC36A" />
<path d="M227.03,494.49L224.32,489.81L229.73,489.81Z" style="fill:#7AC36A" />
<path d="M315.72,478.26L313.01,473.57L318.43,473.57Z" style="fill:#7AC36A" />
<path d="M404.42,469.4L401.71,464.72L407.12,464.72Z" style="fill:#7AC36A" />
<path d="M493.11,485.64L490.41,480.95L495.82,480.95Z" style="fill:#7AC36A" />
<path d="M581.81,474.57L579.1,469.88L584.51,469.88Z" style="fill:#7AC36A" />
<path d="M670.5,554.27L667.8,549.58L673.21,549.58Z" style="fill:#7AC36A" />
<path d="M759.2,543.93L756.49,539.25L761.9,539.25Z" style="fill:#7AC36A" />
<path d="M847.89,490.07L845.19,485.38L850.6,485.38Z" style="fill:#7AC36A" />
<path d="M49.635,44.185L138.33,44.185L227.03,44.185L315.72,44.185L404.42,43.447L493.11,44.923L581.81,45.661L670.5,44.185L759.2,43.447L847.89,42.709" style="fill:none;stroke:#5A9BD4" />
<path d="M49.635,47.31L46.928,42.622L52.341,42.622Z" style="fill:#5A9BD4" />
<path d="M138.33,47.31L135.62,42.622L141.04,42.622Z" style="fill:#5A9BD4" />
<path d="M227.03,47.31L224.32,42.622L229.73,42.622Z" style="fill:#5A9BD4" />
<path d="M315.72,47.31L313.01,42.622L318.43,42.622Z" style="fill:#5A9BD4" />
<path d="M404.42,46.572L401.71,41.884L407.12,41.884Z" style="fill:#5A9BD4" />
<path d="M493.11,48.048L490.41,43.36L495.82,43.36Z" style="fill:#5A9BD4" />
<path d="M581.81,48.786L579.1,44.098L584.51,44.098Z" style="fill:#5A9BD4" />
<path d="M670.5,47.31L667.8,42.622L673.21,42.622Z" style="fill:#5A9BD4" />
<path d="M759.2,46.572L756.49,41.884L761.9,41.884Z" style="fill:#5A9BD4" />
<path d="M847.89,45.834L845.19,41.146L850.6,41.146Z" style="fill:#5A9BD4" />
<path d="M830.39,65.668L850.39,65.668" style="fill:none;stroke:#F15A60" />
<path d="M840.39,68.793L837.69,64.105L843.1,64.105Z" style="fill:#F15A60" />
<text x="790.07" y="-63.181" transform="scale(1, -1)"
	style="font-family:Liberation Serif;font-variant:normal;font-weight:normal;font-style:normal;font-size:12px">to-main</text>
<path d="M830.39,55.484L850.39,55.484" style="fill:none;stroke:#7AC36A" />
<path d="M840.39,58.609L837.69,53.922L843.1,53.922Z" style="fill:#7AC36A" />
<text x="763.42" y="-52.997" transform="scale(1, -1)"
	style="font-family:Liberation Serif;font-variant:normal;font-weight:normal;font-style:normal;font-size:12px">to-fronted-up</text>
<path d="M830.39,45.301L850.39,45.301" style="fill:none;stroke:#5A9BD4" />
<path d="M840.39,48.426L837.69,43.738L843.1,43.738Z" style="fill:#5A9BD4" />
<text x="721.44" y="-42.813" transform="scale(1, -1)"
	style="font-family:Liberation Serif;font-variant:normal;font-weight:normal;font-style:normal;font-size:12px">fronted-up-main-delta</text>
</g>
</svg>
