<?xml version="1.0"?>
<!-- Generated by SVGo and Plotinum VG -->
<svg width="850.39pt" height="566.93pt" viewBox="0 0 850.39 566.93"
	xmlns="http://www.w3.org/2000/svg"
	xmlns:xlink="http://www.w3.org/1999/xlink">
<g transform="scale(1, -1) translate(0, -566.93)">
<path d="M0,0L850.39,0L850.39,566.93L0,566.93Z" style="fill:#FFFFFF" />
<text x="308.82" y="-557.54" transform="scale(1, -1)"
	style="font-family:Liberation Serif;font-variant:normal;font-weight:normal;font-style:normal;font-size:12px">RTT S3Workload: s3wl-putobj-100ms-ClusterIp</text>
<text x="438.81" y="-3.9023" transform="scale(1, -1)"
	style="font-family:Liberation Serif;font-variant:normal;font-weight:normal;font-style:normal;font-size:12px">Time</text>
<text x="47.128" y="-16.541" transform="scale(1, -1)"
	style="font-family:Liberation Serif;font-variant:normal;font-weight:normal;font-style:normal;font-size:10px">0.00</text>
<text x="407.18" y="-16.541" transform="scale(1, -1)"
	style="font-family:Liberation Serif;font-variant:normal;font-weight:normal;font-style:normal;font-size:10px">25000.00</text>
<text x="777.23" y="-16.541" transform="scale(1, -1)"
	style="font-family:Liberation Serif;font-variant:normal;font-weight:normal;font-style:normal;font-size:10px">50000.00</text>
<path d="M55.878,24.363L55.878,32.363" style="fill:none;stroke:#000000;stroke-width:0.5" />
<path d="M425.93,24.363L425.93,32.363" style="fill:none;stroke:#000000;stroke-width:0.5" />
<path d="M795.98,24.363L795.98,32.363" style="fill:none;stroke:#000000;stroke-width:0.5" />
<path d="M129.89,28.363L129.89,32.363" style="fill:none;stroke:#000000;stroke-width:0.5" />
<path d="M203.9,28.363L203.9,32.363" style="fill:none;stroke:#000000;stroke-width:0.5" />
<path d="M277.91,28.363L277.91,32.363" style="fill:none;stroke:#000000;stroke-width:0.5" />
<path d="M351.92,28.363L351.92,32.363" style="fill:none;stroke:#000000;stroke-width:0.5" />
<path d="M499.94,28.363L499.94,32.363" style="fill:none;stroke:#000000;stroke-width:0.5" />
<path d="M573.95,28.363L573.95,32.363" style="fill:none;stroke:#000000;stroke-width:0.5" />
<path d="M647.96,28.363L647.96,32.363" style="fill:none;stroke:#000000;stroke-width:0.5" />
<path d="M721.97,28.363L721.97,32.363" style="fill:none;stroke:#000000;stroke-width:0.5" />
<path d="M54.635,32.363L847.89,32.363" style="fill:none;stroke:#000000;stroke-width:0.5" />
<g transform="rotate(90)">
<text x="276.08" y="9.3867" transform="scale(1, -1)"
	style="font-family:Liberation Serif;font-variant:normal;font-weight:normal;font-style:normal;font-size:12px">RTT: ms</text>
</g>
<text x="30.885" y="-37.924" transform="scale(1, -1)"
	style="font-family:Liberation Serif;font-variant:normal;font-weight:normal;font-style:normal;font-size:10px">0</text>
<text x="15.885" y="-252.46" transform="scale(1, -1)"
	style="font-family:Liberation Serif;font-variant:normal;font-weight:normal;font-style:normal;font-size:10px">1000</text>
<text x="15.885" y="-467" transform="scale(1, -1)"
	style="font-family:Liberation Serif;font-variant:normal;font-weight:normal;font-style:normal;font-size:10px">2000</text>
<path d="M38.385,40.209L46.385,40.209" style="fill:none;stroke:#000000;stroke-width:0.5" />
<path d="M38.385,254.75L46.385,254.75" style="fill:none;stroke:#000000;stroke-width:0.5" />
<path d="M38.385,469.28L46.385,469.28" style="fill:none;stroke:#000000;stroke-width:0.5" />
<path d="M42.385,83.116L46.385,83.116" style="fill:none;stroke:#000000;stroke-width:0.5" />
<path d="M42.385,126.02L46.385,126.02" style="fill:none;stroke:#000000;stroke-width:0.5" />
<path d="M42.385,168.93L46.385,168.93" style="fill:none;stroke:#000000;stroke-width:0.5" />
<path d="M42.385,211.84L46.385,211.84" style="fill:none;stroke:#000000;stroke-width:0.5" />
<path d="M42.385,297.65L46.385,297.65" style="fill:none;stroke:#000000;stroke-width:0.5" />
<path d="M42.385,340.56L46.385,340.56" style="fill:none;stroke:#000000;stroke-width:0.5" />
<path d="M42.385,383.47L46.385,383.47" style="fill:none;stroke:#000000;stroke-width:0.5" />
<path d="M42.385,426.38L46.385,426.38" style="fill:none;stroke:#000000;stroke-width:0.5" />
<path d="M42.385,512.19L46.385,512.19" style="fill:none;stroke:#000000;stroke-width:0.5" />
<path d="M46.385,40.209L46.385,553.64" style="fill:none;stroke:#000000;stroke-width:0.5" />
<path d="M55.878,40.209L55.878,553.64" style="fill:none;stroke:#808080;stroke-width:0.25" />
<path d="M425.93,40.209L425.93,553.64" style="fill:none;stroke:#808080;stroke-width:0.25" />
<path d="M795.98,40.209L795.98,553.64" style="fill:none;stroke:#808080;stroke-width:0.25" />
<path d="M54.635,40.209L847.89,40.209" style="fill:none;stroke:#808080;stroke-width:0.25" />
<path d="M54.635,254.75L847.89,254.75" style="fill:none;stroke:#808080;stroke-width:0.25" />
<path d="M54.635,469.28L847.89,469.28" style="fill:none;stroke:#808080;stroke-width:0.25" />
<path d="M64.212,296.92L94.482,296.92" style="fill:none;stroke:#5A9BD4" />
<path d="M64.212,300.05L61.505,295.36L66.918,295.36Z" style="fill:none;stroke:#5A9BD4;stroke-width:0.5" />
<path d="M94.482,300.05L91.776,295.36L97.188,295.36Z" style="fill:none;stroke:#5A9BD4;stroke-width:0.5" />
<path d="M54.635,296.92L64.212,296.92" style="fill:none;stroke:#FAA75B" />
<path d="M57.135,296.92A2.5,2.5 0 1 1 52.135,296.92A2.5,2.5 0 1 1 57.135,296.92Z" style="fill:#FAA75B" />
<path d="M66.712,296.92A2.5,2.5 0 1 1 61.712,296.92A2.5,2.5 0 1 1 66.712,296.92Z" style="fill:#FAA75B" />
<path d="M152.09,296.92L180.91,296.92" style="fill:none;stroke:#5A9BD4" />
<path d="M152.09,300.05L149.39,295.36L154.8,295.36Z" style="fill:none;stroke:#5A9BD4;stroke-width:0.5" />
<path d="M180.91,300.05L178.21,295.36L183.62,295.36Z" style="fill:none;stroke:#5A9BD4;stroke-width:0.5" />
<path d="M141.52,296.92L152.09,296.92" style="fill:none;stroke:#FAA75B" />
<path d="M144.02,296.92A2.5,2.5 0 1 1 139.02,296.92A2.5,2.5 0 1 1 144.02,296.92Z" style="fill:#FAA75B" />
<path d="M154.59,296.92A2.5,2.5 0 1 1 149.59,296.92A2.5,2.5 0 1 1 154.59,296.92Z" style="fill:#FAA75B" />
<path d="M238.95,296.92L251.22,296.92" style="fill:none;stroke:#5A9BD4" />
<path d="M238.95,300.05L236.24,295.36L241.66,295.36Z" style="fill:none;stroke:#5A9BD4;stroke-width:0.5" />
<path d="M251.22,300.05L248.52,295.36L253.93,295.36Z" style="fill:none;stroke:#5A9BD4;stroke-width:0.5" />
<path d="M229.36,296.92L238.95,296.92" style="fill:none;stroke:#FAA75B" />
<path d="M231.86,296.92A2.5,2.5 0 1 1 226.86,296.92A2.5,2.5 0 1 1 231.86,296.92Z" style="fill:#FAA75B" />
<path d="M241.45,296.92A2.5,2.5 0 1 1 236.45,296.92A2.5,2.5 0 1 1 241.45,296.92Z" style="fill:#FAA75B" />
<path d="M325.5,296.92L340.39,296.92" style="fill:none;stroke:#5A9BD4" />
<path d="M325.5,300.05L322.79,295.36L328.2,295.36Z" style="fill:none;stroke:#5A9BD4;stroke-width:0.5" />
<path d="M340.39,300.05L337.68,295.36L343.1,295.36Z" style="fill:none;stroke:#5A9BD4;stroke-width:0.5" />
<path d="M316.25,296.92L325.5,296.92" style="fill:none;stroke:#FAA75B" />
<path d="M318.75,296.92A2.5,2.5 0 1 1 313.75,296.92A2.5,2.5 0 1 1 318.75,296.92Z" style="fill:#FAA75B" />
<path d="M328,296.92A2.5,2.5 0 1 1 323,296.92A2.5,2.5 0 1 1 328,296.92Z" style="fill:#FAA75B" />
<path d="M411.87,296.92L424.45,296.92" style="fill:none;stroke:#5A9BD4" />
<path d="M411.87,300.05L409.16,295.36L414.57,295.36Z" style="fill:none;stroke:#5A9BD4;stroke-width:0.5" />
<path d="M424.45,300.05L421.74,295.36L427.16,295.36Z" style="fill:none;stroke:#5A9BD4;stroke-width:0.5" />
<path d="M402.78,296.92L411.87,296.92" style="fill:none;stroke:#FAA75B" />
<path d="M405.28,296.92A2.5,2.5 0 1 1 400.28,296.92A2.5,2.5 0 1 1 405.28,296.92Z" style="fill:#FAA75B" />
<path d="M414.37,296.92A2.5,2.5 0 1 1 409.37,296.92A2.5,2.5 0 1 1 414.37,296.92Z" style="fill:#FAA75B" />
<path d="M498.61,296.92L511.29,296.92" style="fill:none;stroke:#5A9BD4" />
<path d="M498.61,300.05L495.9,295.36L501.32,295.36Z" style="fill:none;stroke:#5A9BD4;stroke-width:0.5" />
<path d="M511.29,300.05L508.59,295.36L514,295.36Z" style="fill:none;stroke:#5A9BD4;stroke-width:0.5" />
<path d="M489.21,296.92L498.61,296.92" style="fill:none;stroke:#FAA75B" />
<path d="M491.71,296.92A2.5,2.5 0 1 1 486.71,296.92A2.5,2.5 0 1 1 491.71,296.92Z" style="fill:#FAA75B" />
<path d="M501.11,296.92A2.5,2.5 0 1 1 496.11,296.92A2.5,2.5 0 1 1 501.11,296.92Z" style="fill:#FAA75B" />
<path d="M585.11,296.92L585.78,296.92" style="fill:none;stroke:#5A9BD4" />
<path d="M585.11,300.05L582.41,295.36L587.82,295.36Z" style="fill:none;stroke:#5A9BD4;stroke-width:0.5" />
<path d="M585.78,300.05L583.07,295.36L588.48,295.36Z" style="fill:none;stroke:#5A9BD4;stroke-width:0.5" />
<path d="M575.92,296.92L585.11,296.92" style="fill:none;stroke:#FAA75B" />
<path d="M578.42,296.92A2.5,2.5 0 1 1 573.42,296.92A2.5,2.5 0 1 1 578.42,296.92Z" style="fill:#FAA75B" />
<path d="M587.61,296.92A2.5,2.5 0 1 1 582.61,296.92A2.5,2.5 0 1 1 587.61,296.92Z" style="fill:#FAA75B" />
<path d="M673.2,296.92L684.18,296.92" style="fill:none;stroke:#5A9BD4" />
<path d="M673.2,300.05L670.49,295.36L675.91,295.36Z" style="fill:none;stroke:#5A9BD4;stroke-width:0.5" />
<path d="M684.18,300.05L681.48,295.36L686.89,295.36Z" style="fill:none;stroke:#5A9BD4;stroke-width:0.5" />
<path d="M662.42,296.92L673.2,296.92" style="fill:none;stroke:#FAA75B" />
<path d="M664.92,296.92A2.5,2.5 0 1 1 659.92,296.92A2.5,2.5 0 1 1 664.92,296.92Z" style="fill:#FAA75B" />
<path d="M675.7,296.92A2.5,2.5 0 1 1 670.7,296.92A2.5,2.5 0 1 1 675.7,296.92Z" style="fill:#FAA75B" />
<path d="M761.06,296.92L791.53,296.92" style="fill:none;stroke:#5A9BD4" />
<path d="M761.06,300.05L758.36,295.36L763.77,295.36Z" style="fill:none;stroke:#5A9BD4;stroke-width:0.5" />
<path d="M791.53,300.05L788.82,295.36L794.23,295.36Z" style="fill:none;stroke:#5A9BD4;stroke-width:0.5" />
<path d="M750.5,296.92L761.06,296.92" style="fill:none;stroke:#FAA75B" />
<path d="M753,296.92A2.5,2.5 0 1 1 748,296.92A2.5,2.5 0 1 1 753,296.92Z" style="fill:#FAA75B" />
<path d="M763.56,296.92A2.5,2.5 0 1 1 758.56,296.92A2.5,2.5 0 1 1 763.56,296.92Z" style="fill:#FAA75B" />
<path d="M838.41,296.92L847.89,296.92" style="fill:none;stroke:#FAA75B" />
<path d="M840.91,296.92A2.5,2.5 0 1 1 835.91,296.92A2.5,2.5 0 1 1 840.91,296.92Z" style="fill:#FAA75B" />
<path d="M850.39,296.92A2.5,2.5 0 1 1 845.39,296.92A2.5,2.5 0 1 1 850.39,296.92Z" style="fill:#FAA75B" />
<path d="M55.878,40.209L55.878,109.08" style="fill:none;stroke:#C40000" />
<path d="M60.63,40.209L60.63,531.03" style="fill:none;stroke:#008000" />
<path d="M94.482,40.209L94.482,42.154" style="fill:none;stroke:#008000" />
<path d="M95.844,40.209L95.844,42.572" style="fill:none;stroke:#008000" />
<path d="M97.324,40.209L97.324,42.537" style="fill:none;stroke:#008000" />
<path d="M98.804,40.209L98.804,42.546" style="fill:none;stroke:#008000" />
<path d="M100.27,40.209L100.27,42.481" style="fill:none;stroke:#008000" />
<path d="M101.76,40.209L101.76,42.549" style="fill:none;stroke:#008000" />
<path d="M103.23,40.209L103.23,42.665" style="fill:none;stroke:#008000" />
<path d="M104.73,40.209L104.73,42.496" style="fill:none;stroke:#008000" />
<path d="M106.21,40.209L106.21,42.516" style="fill:none;stroke:#008000" />
<path d="M107.69,40.209L107.69,42.436" style="fill:none;stroke:#008000" />
<path d="M109.17,40.209L109.17,42.624" style="fill:none;stroke:#008000" />
<path d="M110.65,40.209L110.65,42.628" style="fill:none;stroke:#008000" />
<path d="M112.13,40.209L112.13,42.536" style="fill:none;stroke:#008000" />
<path d="M113.61,40.209L113.61,42.42" style="fill:none;stroke:#008000" />
<path d="M115.09,40.209L115.09,42.544" style="fill:none;stroke:#008000" />
<path d="M116.57,40.209L116.57,42.516" style="fill:none;stroke:#008000" />
<path d="M118.05,40.209L118.05,42.52" style="fill:none;stroke:#008000" />
<path d="M119.53,40.209L119.53,42.531" style="fill:none;stroke:#008000" />
<path d="M121.01,40.209L121.01,42.625" style="fill:none;stroke:#008000" />
<path d="M122.47,40.209L122.47,42.744" style="fill:none;stroke:#008000" />
<path d="M123.97,40.209L123.97,42.566" style="fill:none;stroke:#008000" />
<path d="M125.45,40.209L125.45,42.659" style="fill:none;stroke:#008000" />
<path d="M126.91,40.209L126.91,42.495" style="fill:none;stroke:#008000" />
<path d="M128.39,40.209L128.39,42.603" style="fill:none;stroke:#008000" />
<path d="M129.89,40.209L129.89,42.576" style="fill:none;stroke:#008000" />
<path d="M131.35,40.209L131.35,42.542" style="fill:none;stroke:#008000" />
<path d="M132.83,40.209L132.83,42.533" style="fill:none;stroke:#008000" />
<path d="M134.31,40.209L134.31,42.35" style="fill:none;stroke:#008000" />
<path d="M135.81,40.209L135.81,42.592" style="fill:none;stroke:#008000" />
<path d="M137.29,40.209L137.29,41.887" style="fill:none;stroke:#008000" />
<path d="M138.77,40.209L138.77,44.198" style="fill:none;stroke:#008000" />
<path d="M140.25,40.209L140.25,42.618" style="fill:none;stroke:#008000" />
<path d="M141.72,40.209L141.72,113.52" style="fill:none;stroke:#C40000" />
<path d="M146.78,40.209L146.78,534.91" style="fill:none;stroke:#008000" />
<path d="M180.91,40.209L180.91,42.118" style="fill:none;stroke:#008000" />
<path d="M181.7,40.209L181.7,42.438" style="fill:none;stroke:#008000" />
<path d="M183.18,40.209L183.18,42.691" style="fill:none;stroke:#008000" />
<path d="M184.66,40.209L184.66,42.59" style="fill:none;stroke:#008000" />
<path d="M186.14,40.209L186.14,42.681" style="fill:none;stroke:#008000" />
<path d="M187.62,40.209L187.62,42.512" style="fill:none;stroke:#008000" />
<path d="M189.1,40.209L189.1,42.496" style="fill:none;stroke:#008000" />
<path d="M190.58,40.209L190.58,42.633" style="fill:none;stroke:#008000" />
<path d="M192.04,40.209L192.04,42.603" style="fill:none;stroke:#008000" />
<path d="M193.54,40.209L193.54,42.654" style="fill:none;stroke:#008000" />
<path d="M195,40.209L195,42.593" style="fill:none;stroke:#008000" />
<path d="M196.5,40.209L196.5,42.564" style="fill:none;stroke:#008000" />
<path d="M197.98,40.209L197.98,42.575" style="fill:none;stroke:#008000" />
<path d="M199.46,40.209L199.46,42.568" style="fill:none;stroke:#008000" />
<path d="M200.94,40.209L200.94,42.577" style="fill:none;stroke:#008000" />
<path d="M202.42,40.209L202.42,42.619" style="fill:none;stroke:#008000" />
<path d="M203.9,40.209L203.9,42.481" style="fill:none;stroke:#008000" />
<path d="M205.38,40.209L205.38,42.635" style="fill:none;stroke:#008000" />
<path d="M206.86,40.209L206.86,42.51" style="fill:none;stroke:#008000" />
<path d="M208.32,40.209L208.32,42.51" style="fill:none;stroke:#008000" />
<path d="M209.82,40.209L209.82,42.509" style="fill:none;stroke:#008000" />
<path d="M211.3,40.209L211.3,42.73" style="fill:none;stroke:#008000" />
<path d="M212.78,40.209L212.78,42.684" style="fill:none;stroke:#008000" />
<path d="M214.25,40.209L214.25,42.462" style="fill:none;stroke:#008000" />
<path d="M215.74,40.209L215.74,42.47" style="fill:none;stroke:#008000" />
<path d="M217.22,40.209L217.22,42.601" style="fill:none;stroke:#008000" />
<path d="M218.7,40.209L218.7,41.885" style="fill:none;stroke:#008000" />
<path d="M220.17,40.209L220.17,42.538" style="fill:none;stroke:#008000" />
<path d="M221.65,40.209L221.65,42.513" style="fill:none;stroke:#008000" />
<path d="M223.14,40.209L223.14,42.574" style="fill:none;stroke:#008000" />
<path d="M224.62,40.209L224.62,42.689" style="fill:none;stroke:#008000" />
<path d="M226.1,40.209L226.1,42.579" style="fill:none;stroke:#008000" />
<path d="M227.58,40.209L227.58,42.648" style="fill:none;stroke:#008000" />
<path d="M229.06,40.209L229.06,42.416" style="fill:none;stroke:#008000" />
<path d="M230.54,40.209L230.54,109.33" style="fill:none;stroke:#C40000" />
<path d="M235.31,40.209L235.31,270.8" style="fill:none;stroke:#008000" />
<path d="M251.22,40.209L251.22,42.316" style="fill:none;stroke:#008000" />
<path d="M251.37,40.209L251.37,42.104" style="fill:none;stroke:#008000" />
<path d="M252.75,40.209L252.75,42.486" style="fill:none;stroke:#008000" />
<path d="M254.21,40.209L254.21,42.476" style="fill:none;stroke:#008000" />
<path d="M255.71,40.209L255.71,42.523" style="fill:none;stroke:#008000" />
<path d="M257.19,40.209L257.19,42.641" style="fill:none;stroke:#008000" />
<path d="M258.67,40.209L258.67,42.468" style="fill:none;stroke:#008000" />
<path d="M260.13,40.209L260.13,41.576" style="fill:none;stroke:#008000" />
<path d="M261.63,40.209L261.63,43.48" style="fill:none;stroke:#008000" />
<path d="M263.11,40.209L263.11,42.612" style="fill:none;stroke:#008000" />
<path d="M264.59,40.209L264.59,42.598" style="fill:none;stroke:#008000" />
<path d="M266.07,40.209L266.07,42.764" style="fill:none;stroke:#008000" />
<path d="M267.55,40.209L267.55,42.614" style="fill:none;stroke:#008000" />
<path d="M269.01,40.209L269.01,42.446" style="fill:none;stroke:#008000" />
<path d="M270.51,40.209L270.51,42.46" style="fill:none;stroke:#008000" />
<path d="M271.99,40.209L271.99,42.679" style="fill:none;stroke:#008000" />
<path d="M273.47,40.209L273.47,42.647" style="fill:none;stroke:#008000" />
<path d="M274.93,40.209L274.93,41.528" style="fill:none;stroke:#008000" />
<path d="M276.43,40.209L276.43,43.917" style="fill:none;stroke:#008000" />
<path d="M277.89,40.209L277.89,42.534" style="fill:none;stroke:#008000" />
<path d="M279.39,40.209L279.39,42.692" style="fill:none;stroke:#008000" />
<path d="M280.87,40.209L280.87,42.564" style="fill:none;stroke:#008000" />
<path d="M282.34,40.209L282.34,42.408" style="fill:none;stroke:#008000" />
<path d="M283.83,40.209L283.83,42.592" style="fill:none;stroke:#008000" />
<path d="M285.3,40.209L285.3,42.533" style="fill:none;stroke:#008000" />
<path d="M286.79,40.209L286.79,42.673" style="fill:none;stroke:#008000" />
<path d="M288.26,40.209L288.26,42.517" style="fill:none;stroke:#008000" />
<path d="M289.75,40.209L289.75,42.697" style="fill:none;stroke:#008000" />
<path d="M291.23,40.209L291.23,42.736" style="fill:none;stroke:#008000" />
<path d="M292.71,40.209L292.71,42.603" style="fill:none;stroke:#008000" />
<path d="M294.18,40.209L294.18,42.529" style="fill:none;stroke:#008000" />
<path d="M295.67,40.209L295.67,42.547" style="fill:none;stroke:#008000" />
<path d="M297.15,40.209L297.15,42.978" style="fill:none;stroke:#008000" />
<path d="M298.63,40.209L298.63,42.613" style="fill:none;stroke:#008000" />
<path d="M300.1,40.209L300.1,42.259" style="fill:none;stroke:#008000" />
<path d="M301.58,40.209L301.58,42.489" style="fill:none;stroke:#008000" />
<path d="M303.06,40.209L303.06,42.454" style="fill:none;stroke:#008000" />
<path d="M304.55,40.209L304.55,42.552" style="fill:none;stroke:#008000" />
<path d="M306.02,40.209L306.02,42.547" style="fill:none;stroke:#008000" />
<path d="M307.51,40.209L307.51,42.489" style="fill:none;stroke:#008000" />
<path d="M308.99,40.209L308.99,42.804" style="fill:none;stroke:#008000" />
<path d="M310.47,40.209L310.47,42.52" style="fill:none;stroke:#008000" />
<path d="M311.95,40.209L311.95,42.632" style="fill:none;stroke:#008000" />
<path d="M313.42,40.209L313.42,42.578" style="fill:none;stroke:#008000" />
<path d="M314.9,40.209L314.9,42.442" style="fill:none;stroke:#008000" />
<path d="M316.38,40.209L316.38,109.61" style="fill:none;stroke:#C40000" />
<path d="M321.18,40.209L321.18,318.8" style="fill:none;stroke:#008000" />
<path d="M340.39,40.209L340.39,42.102" style="fill:none;stroke:#008000" />
<path d="M341.56,40.209L341.56,42.464" style="fill:none;stroke:#008000" />
<path d="M343.02,40.209L343.02,42.537" style="fill:none;stroke:#008000" />
<path d="M344.5,40.209L344.5,42.3" style="fill:none;stroke:#008000" />
<path d="M346,40.209L346,41.629" style="fill:none;stroke:#008000" />
<path d="M347.48,40.209L347.48,42.082" style="fill:none;stroke:#008000" />
<path d="M348.96,40.209L348.96,42.502" style="fill:none;stroke:#008000" />
<path d="M350.44,40.209L350.44,42.525" style="fill:none;stroke:#008000" />
<path d="M351.92,40.209L351.92,42.49" style="fill:none;stroke:#008000" />
<path d="M353.4,40.209L353.4,42.489" style="fill:none;stroke:#008000" />
<path d="M354.88,40.209L354.88,42.515" style="fill:none;stroke:#008000" />
<path d="M356.36,40.209L356.36,42.55" style="fill:none;stroke:#008000" />
<path d="M357.84,40.209L357.84,42.562" style="fill:none;stroke:#008000" />
<path d="M359.32,40.209L359.32,42.43" style="fill:none;stroke:#008000" />
<path d="M360.8,40.209L360.8,42.584" style="fill:none;stroke:#008000" />
<path d="M362.28,40.209L362.28,42.505" style="fill:none;stroke:#008000" />
<path d="M363.76,40.209L363.76,42.647" style="fill:none;stroke:#008000" />
<path d="M365.24,40.209L365.24,42.499" style="fill:none;stroke:#008000" />
<path d="M366.72,40.209L366.72,42.484" style="fill:none;stroke:#008000" />
<path d="M368.19,40.209L368.19,42.414" style="fill:none;stroke:#008000" />
<path d="M369.68,40.209L369.68,42.571" style="fill:none;stroke:#008000" />
<path d="M371.15,40.209L371.15,42.487" style="fill:none;stroke:#008000" />
<path d="M372.64,40.209L372.64,42.653" style="fill:none;stroke:#008000" />
<path d="M374.12,40.209L374.12,42.578" style="fill:none;stroke:#008000" />
<path d="M375.59,40.209L375.59,42.491" style="fill:none;stroke:#008000" />
<path d="M377.08,40.209L377.08,42.551" style="fill:none;stroke:#008000" />
<path d="M378.55,40.209L378.55,42.592" style="fill:none;stroke:#008000" />
<path d="M380.04,40.209L380.04,41.538" style="fill:none;stroke:#008000" />
<path d="M381.52,40.209L381.52,43.618" style="fill:none;stroke:#008000" />
<path d="M382.99,40.209L382.99,42.512" style="fill:none;stroke:#008000" />
<path d="M384.48,40.209L384.48,42.357" style="fill:none;stroke:#008000" />
<path d="M385.95,40.209L385.95,42.099" style="fill:none;stroke:#008000" />
<path d="M387.45,40.209L387.45,42.443" style="fill:none;stroke:#008000" />
<path d="M388.93,40.209L388.93,42.454" style="fill:none;stroke:#008000" />
<path d="M390.41,40.209L390.41,42.435" style="fill:none;stroke:#008000" />
<path d="M391.89,40.209L391.89,42.537" style="fill:none;stroke:#008000" />
<path d="M393.37,40.209L393.37,42.602" style="fill:none;stroke:#008000" />
<path d="M394.85,40.209L394.85,42.517" style="fill:none;stroke:#008000" />
<path d="M396.33,40.209L396.33,42.495" style="fill:none;stroke:#008000" />
<path d="M397.81,40.209L397.81,42.548" style="fill:none;stroke:#008000" />
<path d="M399.29,40.209L399.29,42.514" style="fill:none;stroke:#008000" />
<path d="M400.77,40.209L400.77,42.528" style="fill:none;stroke:#008000" />
<path d="M402.23,40.209L402.23,42.467" style="fill:none;stroke:#008000" />
<path d="M403.73,40.209L403.73,107.03" style="fill:none;stroke:#C40000" />
<path d="M408.33,40.209L408.33,273.72" style="fill:none;stroke:#008000" />
<path d="M424.45,40.209L424.45,42.155" style="fill:none;stroke:#008000" />
<path d="M425.93,40.209L425.93,42.519" style="fill:none;stroke:#008000" />
<path d="M427.41,40.209L427.41,42.486" style="fill:none;stroke:#008000" />
<path d="M428.89,40.209L428.89,42.566" style="fill:none;stroke:#008000" />
<path d="M430.37,40.209L430.37,42.514" style="fill:none;stroke:#008000" />
<path d="M431.85,40.209L431.85,42.631" style="fill:none;stroke:#008000" />
<path d="M433.32,40.209L433.32,41.535" style="fill:none;stroke:#008000" />
<path d="M434.81,40.209L434.81,43.772" style="fill:none;stroke:#008000" />
<path d="M436.29,40.209L436.29,42.104" style="fill:none;stroke:#008000" />
<path d="M437.77,40.209L437.77,42.325" style="fill:none;stroke:#008000" />
<path d="M439.25,40.209L439.25,42.557" style="fill:none;stroke:#008000" />
<path d="M440.73,40.209L440.73,42.59" style="fill:none;stroke:#008000" />
<path d="M442.2,40.209L442.2,42.528" style="fill:none;stroke:#008000" />
<path d="M443.69,40.209L443.69,42.08" style="fill:none;stroke:#008000" />
<path d="M445.17,40.209L445.17,42.514" style="fill:none;stroke:#008000" />
<path d="M446.65,40.209L446.65,42.615" style="fill:none;stroke:#008000" />
<path d="M448.13,40.209L448.13,42.435" style="fill:none;stroke:#008000" />
<path d="M449.61,40.209L449.61,42.655" style="fill:none;stroke:#008000" />
<path d="M451.09,40.209L451.09,42.518" style="fill:none;stroke:#008000" />
<path d="M452.57,40.209L452.57,42.56" style="fill:none;stroke:#008000" />
<path d="M454.05,40.209L454.05,42.508" style="fill:none;stroke:#008000" />
<path d="M455.53,40.209L455.53,42.5" style="fill:none;stroke:#008000" />
<path d="M457.01,40.209L457.01,42.528" style="fill:none;stroke:#008000" />
<path d="M458.5,40.209L458.5,42.599" style="fill:none;stroke:#008000" />
<path d="M459.96,40.209L459.96,42.559" style="fill:none;stroke:#008000" />
<path d="M461.44,40.209L461.44,42.679" style="fill:none;stroke:#008000" />
<path d="M462.94,40.209L462.94,42.679" style="fill:none;stroke:#008000" />
<path d="M464.42,40.209L464.42,42.523" style="fill:none;stroke:#008000" />
<path d="M465.9,40.209L465.9,42.494" style="fill:none;stroke:#008000" />
<path d="M467.38,40.209L467.38,42.44" style="fill:none;stroke:#008000" />
<path d="M468.84,40.209L468.84,42.492" style="fill:none;stroke:#008000" />
<path d="M470.34,40.209L470.34,42.488" style="fill:none;stroke:#008000" />
<path d="M471.82,40.209L471.82,42.606" style="fill:none;stroke:#008000" />
<path d="M473.28,40.209L473.28,42.458" style="fill:none;stroke:#008000" />
<path d="M474.78,40.209L474.78,42.546" style="fill:none;stroke:#008000" />
<path d="M476.24,40.209L476.24,42.478" style="fill:none;stroke:#008000" />
<path d="M477.74,40.209L477.74,42.614" style="fill:none;stroke:#008000" />
<path d="M479.22,40.209L479.22,42.431" style="fill:none;stroke:#008000" />
<path d="M480.7,40.209L480.7,42.471" style="fill:none;stroke:#008000" />
<path d="M482.18,40.209L482.18,42.594" style="fill:none;stroke:#008000" />
<path d="M483.64,40.209L483.64,42.456" style="fill:none;stroke:#008000" />
<path d="M485.12,40.209L485.12,42.481" style="fill:none;stroke:#008000" />
<path d="M486.62,40.209L486.62,42.62" style="fill:none;stroke:#008000" />
<path d="M488.1,40.209L488.1,42.497" style="fill:none;stroke:#008000" />
<path d="M489.58,40.209L489.58,100.85" style="fill:none;stroke:#C40000" />
<path d="M493.77,40.209L493.77,294.29" style="fill:none;stroke:#008000" />
<path d="M511.29,40.209L511.29,42.056" style="fill:none;stroke:#008000" />
<path d="M511.78,40.209L511.78,42.302" style="fill:none;stroke:#008000" />
<path d="M513.26,40.209L513.26,42.475" style="fill:none;stroke:#008000" />
<path d="M514.73,40.209L514.73,42.304" style="fill:none;stroke:#008000" />
<path d="M516.22,40.209L516.22,42.5" style="fill:none;stroke:#008000" />
<path d="M517.69,40.209L517.69,42.431" style="fill:none;stroke:#008000" />
<path d="M519.18,40.209L519.18,41.486" style="fill:none;stroke:#008000" />
<path d="M520.65,40.209L520.65,41.535" style="fill:none;stroke:#008000" />
<path d="M522.14,40.209L522.14,43.733" style="fill:none;stroke:#008000" />
<path d="M523.62,40.209L523.62,42.61" style="fill:none;stroke:#008000" />
<path d="M525.1,40.209L525.1,42.372" style="fill:none;stroke:#008000" />
<path d="M526.58,40.209L526.58,42.584" style="fill:none;stroke:#008000" />
<path d="M528.05,40.209L528.05,41.478" style="fill:none;stroke:#008000" />
<path d="M529.53,40.209L529.53,43.776" style="fill:none;stroke:#008000" />
<path d="M531.01,40.209L531.01,42.564" style="fill:none;stroke:#008000" />
<path d="M532.51,40.209L532.51,42.576" style="fill:none;stroke:#008000" />
<path d="M533.99,40.209L533.99,42.119" style="fill:none;stroke:#008000" />
<path d="M535.47,40.209L535.47,42.486" style="fill:none;stroke:#008000" />
<path d="M536.95,40.209L536.95,42.4" style="fill:none;stroke:#008000" />
<path d="M538.43,40.209L538.43,42.629" style="fill:none;stroke:#008000" />
<path d="M539.91,40.209L539.91,42.467" style="fill:none;stroke:#008000" />
<path d="M541.39,40.209L541.39,42.448" style="fill:none;stroke:#008000" />
<path d="M542.87,40.209L542.87,42.574" style="fill:none;stroke:#008000" />
<path d="M544.35,40.209L544.35,42.56" style="fill:none;stroke:#008000" />
<path d="M545.81,40.209L545.81,42.644" style="fill:none;stroke:#008000" />
<path d="M547.31,40.209L547.31,42.526" style="fill:none;stroke:#008000" />
<path d="M548.79,40.209L548.79,42.62" style="fill:none;stroke:#008000" />
<path d="M550.27,40.209L550.27,42.525" style="fill:none;stroke:#008000" />
<path d="M551.75,40.209L551.75,42.482" style="fill:none;stroke:#008000" />
<path d="M553.23,40.209L553.23,42.128" style="fill:none;stroke:#008000" />
<path d="M554.71,40.209L554.71,41.525" style="fill:none;stroke:#008000" />
<path d="M556.19,40.209L556.19,43.704" style="fill:none;stroke:#008000" />
<path d="M557.67,40.209L557.67,42.956" style="fill:none;stroke:#008000" />
<path d="M559.15,40.209L559.15,42.512" style="fill:none;stroke:#008000" />
<path d="M560.63,40.209L560.63,42.551" style="fill:none;stroke:#008000" />
<path d="M562.11,40.209L562.11,42.415" style="fill:none;stroke:#008000" />
<path d="M563.58,40.209L563.58,42.583" style="fill:none;stroke:#008000" />
<path d="M565.07,40.209L565.07,42.604" style="fill:none;stroke:#008000" />
<path d="M566.55,40.209L566.55,42.154" style="fill:none;stroke:#008000" />
<path d="M568.02,40.209L568.02,42.566" style="fill:none;stroke:#008000" />
<path d="M569.51,40.209L569.51,42.299" style="fill:none;stroke:#008000" />
<path d="M570.99,40.209L570.99,42.648" style="fill:none;stroke:#008000" />
<path d="M572.46,40.209L572.46,42.524" style="fill:none;stroke:#008000" />
<path d="M573.94,40.209L573.94,42.458" style="fill:none;stroke:#008000" />
<path d="M575.43,40.209L575.43,42.505" style="fill:none;stroke:#008000" />
<path d="M576.9,40.209L576.9,122.2" style="fill:none;stroke:#C40000" />
<path d="M582.55,40.209L582.55,76.934" style="fill:none;stroke:#008000" />
<path d="M585.1,40.209L585.1,41.841" style="fill:none;stroke:#008000" />
<path d="M585.78,40.209L585.78,41.47" style="fill:none;stroke:#008000" />
<path d="M587.27,40.209L587.27,43.481" style="fill:none;stroke:#008000" />
<path d="M588.74,40.209L588.74,42.839" style="fill:none;stroke:#008000" />
<path d="M590.23,40.209L590.23,42.588" style="fill:none;stroke:#008000" />
<path d="M591.7,40.209L591.7,42.534" style="fill:none;stroke:#008000" />
<path d="M593.18,40.209L593.18,42.642" style="fill:none;stroke:#008000" />
<path d="M594.67,40.209L594.67,42.53" style="fill:none;stroke:#008000" />
<path d="M596.15,40.209L596.15,42.608" style="fill:none;stroke:#008000" />
<path d="M597.62,40.209L597.62,42.584" style="fill:none;stroke:#008000" />
<path d="M599.11,40.209L599.11,41.855" style="fill:none;stroke:#008000" />
<path d="M600.6,40.209L600.6,42.466" style="fill:none;stroke:#008000" />
<path d="M602.08,40.209L602.08,42.618" style="fill:none;stroke:#008000" />
<path d="M603.56,40.209L603.56,42.398" style="fill:none;stroke:#008000" />
<path d="M605.04,40.209L605.04,42.815" style="fill:none;stroke:#008000" />
<path d="M606.5,40.209L606.5,41.595" style="fill:none;stroke:#008000" />
<path d="M607.98,40.209L607.98,42.774" style="fill:none;stroke:#008000" />
<path d="M609.48,40.209L609.48,42.669" style="fill:none;stroke:#008000" />
<path d="M610.96,40.209L610.96,42.016" style="fill:none;stroke:#008000" />
<path d="M612.44,40.209L612.44,42.661" style="fill:none;stroke:#008000" />
<path d="M613.92,40.209L613.92,42.491" style="fill:none;stroke:#008000" />
<path d="M615.4,40.209L615.4,42.513" style="fill:none;stroke:#008000" />
<path d="M616.88,40.209L616.88,42.407" style="fill:none;stroke:#008000" />
<path d="M618.34,40.209L618.34,42.508" style="fill:none;stroke:#008000" />
<path d="M619.82,40.209L619.82,42.497" style="fill:none;stroke:#008000" />
<path d="M621.32,40.209L621.32,42.633" style="fill:none;stroke:#008000" />
<path d="M622.8,40.209L622.8,42.487" style="fill:none;stroke:#008000" />
<path d="M624.28,40.209L624.28,42.502" style="fill:none;stroke:#008000" />
<path d="M625.76,40.209L625.76,42.565" style="fill:none;stroke:#008000" />
<path d="M627.24,40.209L627.24,42.577" style="fill:none;stroke:#008000" />
<path d="M628.7,40.209L628.7,42.892" style="fill:none;stroke:#008000" />
<path d="M630.2,40.209L630.2,42.674" style="fill:none;stroke:#008000" />
<path d="M631.68,40.209L631.68,42.635" style="fill:none;stroke:#008000" />
<path d="M633.16,40.209L633.16,42.499" style="fill:none;stroke:#008000" />
<path d="M634.63,40.209L634.63,42.662" style="fill:none;stroke:#008000" />
<path d="M636.11,40.209L636.11,42.529" style="fill:none;stroke:#008000" />
<path d="M637.6,40.209L637.6,42.623" style="fill:none;stroke:#008000" />
<path d="M639.08,40.209L639.08,42.614" style="fill:none;stroke:#008000" />
<path d="M640.55,40.209L640.55,42.695" style="fill:none;stroke:#008000" />
<path d="M642.04,40.209L642.04,42.499" style="fill:none;stroke:#008000" />
<path d="M643.52,40.209L643.52,42.759" style="fill:none;stroke:#008000" />
<path d="M645,40.209L645,42.319" style="fill:none;stroke:#008000" />
<path d="M646.48,40.209L646.48,42.459" style="fill:none;stroke:#008000" />
<path d="M647.96,40.209L647.96,42.557" style="fill:none;stroke:#008000" />
<path d="M649.44,40.209L649.44,42.567" style="fill:none;stroke:#008000" />
<path d="M650.91,40.209L650.91,42.505" style="fill:none;stroke:#008000" />
<path d="M652.39,40.209L652.39,42.608" style="fill:none;stroke:#008000" />
<path d="M653.88,40.209L653.88,42.587" style="fill:none;stroke:#008000" />
<path d="M655.35,40.209L655.35,42.491" style="fill:none;stroke:#008000" />
<path d="M656.84,40.209L656.84,42.663" style="fill:none;stroke:#008000" />
<path d="M658.32,40.209L658.32,42.546" style="fill:none;stroke:#008000" />
<path d="M659.8,40.209L659.8,42.592" style="fill:none;stroke:#008000" />
<path d="M661.28,40.209L661.28,42.436" style="fill:none;stroke:#008000" />
<path d="M662.76,40.209L662.76,98.455" style="fill:none;stroke:#C40000" />
<path d="M666.78,40.209L666.78,292.51" style="fill:none;stroke:#008000" />
<path d="M684.18,40.209L684.18,42.312" style="fill:none;stroke:#008000" />
<path d="M684.97,40.209L684.97,42.506" style="fill:none;stroke:#008000" />
<path d="M686.45,40.209L686.45,42.519" style="fill:none;stroke:#008000" />
<path d="M687.93,40.209L687.93,42.484" style="fill:none;stroke:#008000" />
<path d="M689.41,40.209L689.41,42.396" style="fill:none;stroke:#008000" />
<path d="M690.89,40.209L690.89,42.672" style="fill:none;stroke:#008000" />
<path d="M692.35,40.209L692.35,41.628" style="fill:none;stroke:#008000" />
<path d="M693.83,40.209L693.83,41.832" style="fill:none;stroke:#008000" />
<path d="M695.31,40.209L695.31,42.69" style="fill:none;stroke:#008000" />
<path d="M696.81,40.209L696.81,42.55" style="fill:none;stroke:#008000" />
<path d="M698.27,40.209L698.27,42.61" style="fill:none;stroke:#008000" />
<path d="M699.77,40.209L699.77,42.599" style="fill:none;stroke:#008000" />
<path d="M701.25,40.209L701.25,42.638" style="fill:none;stroke:#008000" />
<path d="M702.73,40.209L702.73,42.47" style="fill:none;stroke:#008000" />
<path d="M704.19,40.209L704.19,41.589" style="fill:none;stroke:#008000" />
<path d="M705.69,40.209L705.69,43.721" style="fill:none;stroke:#008000" />
<path d="M707.17,40.209L707.17,42.6" style="fill:none;stroke:#008000" />
<path d="M708.65,40.209L708.65,42.646" style="fill:none;stroke:#008000" />
<path d="M710.13,40.209L710.13,42.659" style="fill:none;stroke:#008000" />
<path d="M711.6,40.209L711.6,42.601" style="fill:none;stroke:#008000" />
<path d="M713.09,40.209L713.09,42.734" style="fill:none;stroke:#008000" />
<path d="M714.57,40.209L714.57,42.518" style="fill:none;stroke:#008000" />
<path d="M716.05,40.209L716.05,42.656" style="fill:none;stroke:#008000" />
<path d="M717.53,40.209L717.53,42.623" style="fill:none;stroke:#008000" />
<path d="M719,40.209L719,42.577" style="fill:none;stroke:#008000" />
<path d="M720.48,40.209L720.48,42.746" style="fill:none;stroke:#008000" />
<path d="M721.96,40.209L721.96,42.654" style="fill:none;stroke:#008000" />
<path d="M723.45,40.209L723.45,42.641" style="fill:none;stroke:#008000" />
<path d="M724.93,40.209L724.93,42.753" style="fill:none;stroke:#008000" />
<path d="M726.41,40.209L726.41,42.497" style="fill:none;stroke:#008000" />
<path d="M727.89,40.209L727.89,42.717" style="fill:none;stroke:#008000" />
<path d="M729.37,40.209L729.37,42.222" style="fill:none;stroke:#008000" />
<path d="M730.84,40.209L730.84,42.656" style="fill:none;stroke:#008000" />
<path d="M732.33,40.209L732.33,42.635" style="fill:none;stroke:#008000" />
<path d="M733.81,40.209L733.81,42.698" style="fill:none;stroke:#008000" />
<path d="M735.29,40.209L735.29,42.68" style="fill:none;stroke:#008000" />
<path d="M736.76,40.209L736.76,42.651" style="fill:none;stroke:#008000" />
<path d="M738.25,40.209L738.25,43.038" style="fill:none;stroke:#008000" />
<path d="M739.73,40.209L739.73,42.529" style="fill:none;stroke:#008000" />
<path d="M741.22,40.209L741.22,42.539" style="fill:none;stroke:#008000" />
<path d="M742.7,40.209L742.7,42.67" style="fill:none;stroke:#008000" />
<path d="M744.16,40.209L744.16,42.488" style="fill:none;stroke:#008000" />
<path d="M745.64,40.209L745.64,42.573" style="fill:none;stroke:#008000" />
<path d="M747.14,40.209L747.14,42.631" style="fill:none;stroke:#008000" />
<path d="M748.62,40.209L748.62,42.602" style="fill:none;stroke:#008000" />
<path d="M750.1,40.209L750.1,42.58" style="fill:none;stroke:#008000" />
<path d="M751.58,40.209L751.58,105.93" style="fill:none;stroke:#C40000" />
<path d="M756.11,40.209L756.11,553.64" style="fill:none;stroke:#008000" />
<path d="M791.53,40.209L791.53,42.096" style="fill:none;stroke:#008000" />
<path d="M793.02,40.209L793.02,42.506" style="fill:none;stroke:#008000" />
<path d="M794.5,40.209L794.5,42.261" style="fill:none;stroke:#008000" />
<path d="M795.97,40.209L795.97,42.596" style="fill:none;stroke:#008000" />
<path d="M797.46,40.209L797.46,42.799" style="fill:none;stroke:#008000" />
<path d="M798.94,40.209L798.94,42.48" style="fill:none;stroke:#008000" />
<path d="M800.42,40.209L800.42,42.453" style="fill:none;stroke:#008000" />
<path d="M801.9,40.209L801.9,42.534" style="fill:none;stroke:#008000" />
<path d="M803.38,40.209L803.38,42.526" style="fill:none;stroke:#008000" />
<path d="M804.86,40.209L804.86,42.519" style="fill:none;stroke:#008000" />
<path d="M806.34,40.209L806.34,42.568" style="fill:none;stroke:#008000" />
<path d="M807.82,40.209L807.82,42.238" style="fill:none;stroke:#008000" />
<path d="M809.3,40.209L809.3,42.48" style="fill:none;stroke:#008000" />
<path d="M810.78,40.209L810.78,42.459" style="fill:none;stroke:#008000" />
<path d="M812.27,40.209L812.27,42.553" style="fill:none;stroke:#008000" />
<path d="M813.75,40.209L813.75,42.569" style="fill:none;stroke:#008000" />
<path d="M815.21,40.209L815.21,42.392" style="fill:none;stroke:#008000" />
<path d="M816.71,40.209L816.71,42.258" style="fill:none;stroke:#008000" />
<path d="M818.19,40.209L818.19,42.469" style="fill:none;stroke:#008000" />
<path d="M819.67,40.209L819.67,42.519" style="fill:none;stroke:#008000" />
<path d="M821.15,40.209L821.15,42.433" style="fill:none;stroke:#008000" />
<path d="M822.61,40.209L822.61,42.518" style="fill:none;stroke:#008000" />
<path d="M824.09,40.209L824.09,42.291" style="fill:none;stroke:#008000" />
<path d="M825.57,40.209L825.57,42.267" style="fill:none;stroke:#008000" />
<path d="M827.07,40.209L827.07,42.537" style="fill:none;stroke:#008000" />
<path d="M828.55,40.209L828.55,42.416" style="fill:none;stroke:#008000" />
<path d="M830.03,40.209L830.03,42.209" style="fill:none;stroke:#008000" />
<path d="M831.49,40.209L831.49,42.483" style="fill:none;stroke:#008000" />
<path d="M832.97,40.209L832.97,42.499" style="fill:none;stroke:#008000" />
<path d="M834.47,40.209L834.47,42.377" style="fill:none;stroke:#008000" />
<path d="M835.95,40.209L835.95,42.53" style="fill:none;stroke:#008000" />
<path d="M837.43,40.209L837.43,42.738" style="fill:none;stroke:#008000" />
<path d="M838.89,40.209L838.89,118.58" style="fill:none;stroke:#C40000" />
<path d="M844.31,40.209L844.31,258.68" style="fill:none;stroke:#008000" />
</g>
</svg>
