<?xml version="1.0"?>
<!-- Generated by SVGo and Plotinum VG -->
<svg width="850.39pt" height="566.93pt" viewBox="0 0 850.39 566.93"
	xmlns="http://www.w3.org/2000/svg"
	xmlns:xlink="http://www.w3.org/1999/xlink">
<g transform="scale(1, -1) translate(0, -566.93)">
<path d="M0,0L850.39,0L850.39,566.93L0,566.93Z" style="fill:#FFFFFF" />
<text x="251.73" y="-557.54" transform="scale(1, -1)"
	style="font-family:Liberation Serif;font-variant:normal;font-weight:normal;font-style:normal;font-size:12px">Percentiles - FrontEndUp (Nearest Rank): s3wl-putobj-100ms-ClusterIp</text>
<text x="428.53" y="-3.9023" transform="scale(1, -1)"
	style="font-family:Liberation Serif;font-variant:normal;font-weight:normal;font-style:normal;font-size:12px">Percentile</text>
<text x="206.98" y="-16.541" transform="scale(1, -1)"
	style="font-family:Liberation Serif;font-variant:normal;font-weight:normal;font-style:normal;font-size:10px">20</text>
<text x="522.44" y="-16.541" transform="scale(1, -1)"
	style="font-family:Liberation Serif;font-variant:normal;font-weight:normal;font-style:normal;font-size:10px">60</text>
<text x="835.39" y="-16.541" transform="scale(1, -1)"
	style="font-family:Liberation Serif;font-variant:normal;font-weight:normal;font-style:normal;font-size:10px">100</text>
<path d="M211.98,24.363L211.98,32.363" style="fill:none;stroke:#000000;stroke-width:0.5" />
<path d="M527.44,24.363L527.44,32.363" style="fill:none;stroke:#000000;stroke-width:0.5" />
<path d="M842.89,24.363L842.89,32.363" style="fill:none;stroke:#000000;stroke-width:0.5" />
<path d="M133.11,28.363L133.11,32.363" style="fill:none;stroke:#000000;stroke-width:0.5" />
<path d="M290.84,28.363L290.84,32.363" style="fill:none;stroke:#000000;stroke-width:0.5" />
<path d="M369.71,28.363L369.71,32.363" style="fill:none;stroke:#000000;stroke-width:0.5" />
<path d="M448.57,28.363L448.57,32.363" style="fill:none;stroke:#000000;stroke-width:0.5" />
<path d="M606.3,28.363L606.3,32.363" style="fill:none;stroke:#000000;stroke-width:0.5" />
<path d="M685.16,28.363L685.16,32.363" style="fill:none;stroke:#000000;stroke-width:0.5" />
<path d="M764.03,28.363L764.03,32.363" style="fill:none;stroke:#000000;stroke-width:0.5" />
<path d="M62.135,32.363L842.89,32.363" style="fill:none;stroke:#000000;stroke-width:0.5" />
<g transform="rotate(90)">
<text x="265.43" y="9.3867" transform="scale(1, -1)"
	style="font-family:Liberation Serif;font-variant:normal;font-weight:normal;font-style:normal;font-size:12px">Duration: ms</text>
</g>
<text x="15.885" y="-93.478" transform="scale(1, -1)"
	style="font-family:Liberation Serif;font-variant:normal;font-weight:normal;font-style:normal;font-size:10px">625.00</text>
<text x="15.885" y="-314.53" transform="scale(1, -1)"
	style="font-family:Liberation Serif;font-variant:normal;font-weight:normal;font-style:normal;font-size:10px">675.00</text>
<text x="15.885" y="-535.59" transform="scale(1, -1)"
	style="font-family:Liberation Serif;font-variant:normal;font-weight:normal;font-style:normal;font-size:10px">725.00</text>
<path d="M45.885,95.763L53.885,95.763" style="fill:none;stroke:#000000;stroke-width:0.5" />
<path d="M45.885,316.82L53.885,316.82" style="fill:none;stroke:#000000;stroke-width:0.5" />
<path d="M45.885,537.88L53.885,537.88" style="fill:none;stroke:#000000;stroke-width:0.5" />
<path d="M49.885,51.551L53.885,51.551" style="fill:none;stroke:#000000;stroke-width:0.5" />
<path d="M49.885,139.97L53.885,139.97" style="fill:none;stroke:#000000;stroke-width:0.5" />
<path d="M49.885,184.19L53.885,184.19" style="fill:none;stroke:#000000;stroke-width:0.5" />
<path d="M49.885,228.4L53.885,228.4" style="fill:none;stroke:#000000;stroke-width:0.5" />
<path d="M49.885,272.61L53.885,272.61" style="fill:none;stroke:#000000;stroke-width:0.5" />
<path d="M49.885,361.03L53.885,361.03" style="fill:none;stroke:#000000;stroke-width:0.5" />
<path d="M49.885,405.24L53.885,405.24" style="fill:none;stroke:#000000;stroke-width:0.5" />
<path d="M49.885,449.45L53.885,449.45" style="fill:none;stroke:#000000;stroke-width:0.5" />
<path d="M49.885,493.67L53.885,493.67" style="fill:none;stroke:#000000;stroke-width:0.5" />
<path d="M53.885,42.709L53.885,551.14" style="fill:none;stroke:#000000;stroke-width:0.5" />
<path d="M211.98,42.709L211.98,551.14" style="fill:none;stroke:#808080;stroke-width:0.25" />
<path d="M527.44,42.709L527.44,551.14" style="fill:none;stroke:#808080;stroke-width:0.25" />
<path d="M842.89,42.709L842.89,551.14" style="fill:none;stroke:#808080;stroke-width:0.25" />
<path d="M62.135,95.763L842.89,95.763" style="fill:none;stroke:#808080;stroke-width:0.25" />
<path d="M62.135,316.82L842.89,316.82" style="fill:none;stroke:#808080;stroke-width:0.25" />
<path d="M62.135,537.88L842.89,537.88" style="fill:none;stroke:#808080;stroke-width:0.25" />
<path d="M62.135,42.709L70.021,42.709L77.908,42.709L85.794,42.709L93.681,42.709L101.57,42.709L109.45,42.709L117.34,42.709L125.23,42.709L133.11,42.709L141,73.657L148.89,73.657L156.77,73.657L164.66,73.657L172.55,73.657L180.43,73.657L188.32,73.657L196.2,73.657L204.09,73.657L211.98,73.657L219.86,95.763L227.75,95.763L235.64,95.763L243.52,95.763L251.41,95.763L259.3,95.763L267.18,95.763L275.07,95.763L282.96,95.763L290.84,95.763L298.73,139.97L306.61,139.97L314.5,139.97L322.39,139.97L330.27,139.97L338.16,139.97L346.05,139.97L353.93,139.97L361.82,139.97L369.71,139.97L377.59,166.5L385.48,166.5L393.37,166.5L401.25,166.5L409.14,166.5L417.03,166.5L424.91,166.5L432.8,166.5L440.68,166.5L448.57,166.5L456.46,193.03L464.34,193.03L472.23,193.03L480.12,193.03L488,193.03L495.89,193.03L503.78,193.03L511.66,193.03L519.55,193.03L527.44,193.03L535.32,197.45L543.21,197.45L551.09,197.45L558.98,197.45L566.87,197.45L574.75,197.45L582.64,197.45L590.53,197.45L598.41,197.45L606.3,197.45L614.19,484.82L622.07,484.82L629.96,484.82L637.85,484.82L645.73,484.82L653.62,484.82L661.51,484.82L669.39,484.82L677.28,484.82L685.16,484.82L693.05,489.24L700.94,489.24L708.82,489.24L716.71,489.24L724.6,489.24L732.48,489.24L740.37,489.24L748.26,489.24L756.14,489.24L764.03,489.24L771.92,551.14L779.8,551.14L787.69,551.14L795.57,551.14L803.46,551.14L811.35,551.14L819.23,551.14L827.12,551.14L835.01,551.14L842.89,551.14" style="fill:none;stroke:#7AC36A" />
<path d="M62.135,45.834L59.428,41.146L64.841,41.146Z" style="fill:#7AC36A" />
<path d="M70.021,45.834L67.315,41.146L72.728,41.146Z" style="fill:#7AC36A" />
<path d="M77.908,45.834L75.201,41.146L80.614,41.146Z" style="fill:#7AC36A" />
<path d="M85.794,45.834L83.088,41.146L88.5,41.146Z" style="fill:#7AC36A" />
<path d="M93.681,45.834L90.974,41.146L96.387,41.146Z" style="fill:#7AC36A" />
<path d="M101.57,45.834L98.861,41.146L104.27,41.146Z" style="fill:#7AC36A" />
<path d="M109.45,45.834L106.75,41.146L112.16,41.146Z" style="fill:#7AC36A" />
<path d="M117.34,45.834L114.63,41.146L120.05,41.146Z" style="fill:#7AC36A" />
<path d="M125.23,45.834L122.52,41.146L127.93,41.146Z" style="fill:#7AC36A" />
<path d="M133.11,45.834L130.41,41.146L135.82,41.146Z" style="fill:#7AC36A" />
<path d="M141,76.782L138.29,72.094L143.71,72.094Z" style="fill:#7AC36A" />
<path d="M148.89,76.782L146.18,72.094L151.59,72.094Z" style="fill:#7AC36A" />
<path d="M156.77,76.782L154.07,72.094L159.48,72.094Z" style="fill:#7AC36A" />
<path d="M164.66,76.782L161.95,72.094L167.36,72.094Z" style="fill:#7AC36A" />
<path d="M172.55,76.782L169.84,72.094L175.25,72.094Z" style="fill:#7AC36A" />
<path d="M180.43,76.782L177.73,72.094L183.14,72.094Z" style="fill:#7AC36A" />
<path d="M188.32,76.782L185.61,72.094L191.02,72.094Z" style="fill:#7AC36A" />
<path d="M196.2,76.782L193.5,72.094L198.91,72.094Z" style="fill:#7AC36A" />
<path d="M204.09,76.782L201.38,72.094L206.8,72.094Z" style="fill:#7AC36A" />
<path d="M211.98,76.782L209.27,72.094L214.68,72.094Z" style="fill:#7AC36A" />
<path d="M219.86,98.888L217.16,94.2L222.57,94.2Z" style="fill:#7AC36A" />
<path d="M227.75,98.888L225.04,94.2L230.46,94.2Z" style="fill:#7AC36A" />
<path d="M235.64,98.888L232.93,94.2L238.34,94.2Z" style="fill:#7AC36A" />
<path d="M243.52,98.888L240.82,94.2L246.23,94.2Z" style="fill:#7AC36A" />
<path d="M251.41,98.888L248.7,94.2L254.12,94.2Z" style="fill:#7AC36A" />
<path d="M259.3,98.888L256.59,94.2L262,94.2Z" style="fill:#7AC36A" />
<path d="M267.18,98.888L264.48,94.2L269.89,94.2Z" style="fill:#7AC36A" />
<path d="M275.07,98.888L272.36,94.2L277.78,94.2Z" style="fill:#7AC36A" />
<path d="M282.96,98.888L280.25,94.2L285.66,94.2Z" style="fill:#7AC36A" />
<path d="M290.84,98.888L288.14,94.2L293.55,94.2Z" style="fill:#7AC36A" />
<path d="M298.73,143.1L296.02,138.41L301.43,138.41Z" style="fill:#7AC36A" />
<path d="M306.61,143.1L303.91,138.41L309.32,138.41Z" style="fill:#7AC36A" />
<path d="M314.5,143.1L311.79,138.41L317.21,138.41Z" style="fill:#7AC36A" />
<path d="M322.39,143.1L319.68,138.41L325.09,138.41Z" style="fill:#7AC36A" />
<path d="M330.27,143.1L327.57,138.41L332.98,138.41Z" style="fill:#7AC36A" />
<path d="M338.16,143.1L335.45,138.41L340.87,138.41Z" style="fill:#7AC36A" />
<path d="M346.05,143.1L343.34,138.41L348.75,138.41Z" style="fill:#7AC36A" />
<path d="M353.93,143.1L351.23,138.41L356.64,138.41Z" style="fill:#7AC36A" />
<path d="M361.82,143.1L359.11,138.41L364.53,138.41Z" style="fill:#7AC36A" />
<path d="M369.71,143.1L367,138.41L372.41,138.41Z" style="fill:#7AC36A" />
<path d="M377.59,169.63L374.89,164.94L380.3,164.94Z" style="fill:#7AC36A" />
<path d="M385.48,169.63L382.77,164.94L388.19,164.94Z" style="fill:#7AC36A" />
<path d="M393.37,169.63L390.66,164.94L396.07,164.94Z" style="fill:#7AC36A" />
<path d="M401.25,169.63L398.55,164.94L403.96,164.94Z" style="fill:#7AC36A" />
<path d="M409.14,169.63L406.43,164.94L411.85,164.94Z" style="fill:#7AC36A" />
<path d="M417.03,169.63L414.32,164.94L419.73,164.94Z" style="fill:#7AC36A" />
<path d="M424.91,169.63L422.21,164.94L427.62,164.94Z" style="fill:#7AC36A" />
<path d="M432.8,169.63L430.09,164.94L435.5,164.94Z" style="fill:#7AC36A" />
<path d="M440.68,169.63L437.98,164.94L443.39,164.94Z" style="fill:#7AC36A" />
<path d="M448.57,169.63L445.86,164.94L451.28,164.94Z" style="fill:#7AC36A" />
<path d="M456.46,196.15L453.75,191.47L459.16,191.47Z" style="fill:#7AC36A" />
<path d="M464.34,196.15L461.64,191.47L467.05,191.47Z" style="fill:#7AC36A" />
<path d="M472.23,196.15L469.52,191.47L474.94,191.47Z" style="fill:#7AC36A" />
<path d="M480.12,196.15L477.41,191.47L482.82,191.47Z" style="fill:#7AC36A" />
<path d="M488,196.15L485.3,191.47L490.71,191.47Z" style="fill:#7AC36A" />
<path d="M495.89,196.15L493.18,191.47L498.6,191.47Z" style="fill:#7AC36A" />
<path d="M503.78,196.15L501.07,191.47L506.48,191.47Z" style="fill:#7AC36A" />
<path d="M511.66,196.15L508.96,191.47L514.37,191.47Z" style="fill:#7AC36A" />
<path d="M519.55,196.15L516.84,191.47L522.26,191.47Z" style="fill:#7AC36A" />
<path d="M527.44,196.15L524.73,191.47L530.14,191.47Z" style="fill:#7AC36A" />
<path d="M535.32,200.57L532.62,195.89L538.03,195.89Z" style="fill:#7AC36A" />
<path d="M543.21,200.57L540.5,195.89L545.91,195.89Z" style="fill:#7AC36A" />
<path d="M551.09,200.57L548.39,195.89L553.8,195.89Z" style="fill:#7AC36A" />
<path d="M558.98,200.57L556.28,195.89L561.69,195.89Z" style="fill:#7AC36A" />
<path d="M566.87,200.57L564.16,195.89L569.57,195.89Z" style="fill:#7AC36A" />
<path d="M574.75,200.57L572.05,195.89L577.46,195.89Z" style="fill:#7AC36A" />
<path d="M582.64,200.57L579.93,195.89L585.35,195.89Z" style="fill:#7AC36A" />
<path d="M590.53,200.57L587.82,195.89L593.23,195.89Z" style="fill:#7AC36A" />
<path d="M598.41,200.57L595.71,195.89L601.12,195.89Z" style="fill:#7AC36A" />
<path d="M606.3,200.57L603.59,195.89L609.01,195.89Z" style="fill:#7AC36A" />
<path d="M614.19,487.95L611.48,483.26L616.89,483.26Z" style="fill:#7AC36A" />
<path d="M622.07,487.95L619.37,483.26L624.78,483.26Z" style="fill:#7AC36A" />
<path d="M629.96,487.95L627.25,483.26L632.67,483.26Z" style="fill:#7AC36A" />
<path d="M637.85,487.95L635.14,483.26L640.55,483.26Z" style="fill:#7AC36A" />
<path d="M645.73,487.95L643.03,483.26L648.44,483.26Z" style="fill:#7AC36A" />
<path d="M653.62,487.95L650.91,483.26L656.33,483.26Z" style="fill:#7AC36A" />
<path d="M661.51,487.95L658.8,483.26L664.21,483.26Z" style="fill:#7AC36A" />
<path d="M669.39,487.95L666.69,483.26L672.1,483.26Z" style="fill:#7AC36A" />
<path d="M677.28,487.95L674.57,483.26L679.98,483.26Z" style="fill:#7AC36A" />
<path d="M685.16,487.95L682.46,483.26L687.87,483.26Z" style="fill:#7AC36A" />
<path d="M693.05,492.37L690.34,487.68L695.76,487.68Z" style="fill:#7AC36A" />
<path d="M700.94,492.37L698.23,487.68L703.64,487.68Z" style="fill:#7AC36A" />
<path d="M708.82,492.37L706.12,487.68L711.53,487.68Z" style="fill:#7AC36A" />
<path d="M716.71,492.37L714,487.68L719.42,487.68Z" style="fill:#7AC36A" />
<path d="M724.6,492.37L721.89,487.68L727.3,487.68Z" style="fill:#7AC36A" />
<path d="M732.48,492.37L729.78,487.68L735.19,487.68Z" style="fill:#7AC36A" />
<path d="M740.37,492.37L737.66,487.68L743.08,487.68Z" style="fill:#7AC36A" />
<path d="M748.26,492.37L745.55,487.68L750.96,487.68Z" style="fill:#7AC36A" />
<path d="M756.14,492.37L753.44,487.68L758.85,487.68Z" style="fill:#7AC36A" />
<path d="M764.03,492.37L761.32,487.68L766.74,487.68Z" style="fill:#7AC36A" />
<path d="M771.92,554.27L769.21,549.58L774.62,549.58Z" style="fill:#7AC36A" />
<path d="M779.8,554.27L777.1,549.58L782.51,549.58Z" style="fill:#7AC36A" />
<path d="M787.69,554.27L784.98,549.58L790.39,549.58Z" style="fill:#7AC36A" />
<path d="M795.57,554.27L792.87,549.58L798.28,549.58Z" style="fill:#7AC36A" />
<path d="M803.46,554.27L800.76,549.58L806.17,549.58Z" style="fill:#7AC36A" />
<path d="M811.35,554.27L808.64,549.58L814.05,549.58Z" style="fill:#7AC36A" />
<path d="M819.23,554.27L816.53,549.58L821.94,549.58Z" style="fill:#7AC36A" />
<path d="M827.12,554.27L824.41,549.58L829.83,549.58Z" style="fill:#7AC36A" />
<path d="M835.01,554.27L832.3,549.58L837.71,549.58Z" style="fill:#7AC36A" />
<path d="M842.89,554.27L840.19,549.58L845.6,549.58Z" style="fill:#7AC36A" />
<path d="M830.39,45.301L850.39,45.301" style="fill:none;stroke:#7AC36A" />
<path d="M840.39,48.426L837.69,43.738L843.1,43.738Z" style="fill:#7AC36A" />
<text x="763.42" y="-42.813" transform="scale(1, -1)"
	style="font-family:Liberation Serif;font-variant:normal;font-weight:normal;font-style:normal;font-size:12px">to-fronted-up</text>
</g>
</svg>
