<svg width="33" height="33" viewBox="0 0 33 33" fill="none" xmlns="http://www.w3.org/2000/svg">
<path d="M0.521973 2.73804C0.521973 1.63347 1.4174 0.738037 2.52197 0.738037H30.522C31.6265 0.738037 32.522 1.63347 32.522 2.73804V30.738C32.522 31.8426 31.6265 32.738 30.522 32.738H2.52197C1.4174 32.738 0.521973 31.8426 0.521973 30.738V2.73804Z" fill="#06527A"/>
<path d="M26.9588 8.28392H6.08509L6.58084 10.5326H26.463L26.9588 8.28392ZM26.7052 10.586L27.2009 8.33735C27.2172 8.26404 27.1992 8.18726 27.152 8.12864C27.1049 8.07002 27.0339 8.03613 26.9588 8.03613H6.08508C6.00986 8.03613 5.93879 8.0702 5.89193 8.12864C5.8449 8.18726 5.82674 8.26404 5.84299 8.33735L6.33874 10.586C6.36381 10.6996 6.46445 10.7805 6.58083 10.7805H26.4625C26.5789 10.7805 26.6796 10.6996 26.7046 10.586H26.7052ZM6.39361 8.53191H26.6498L26.2634 10.2848H6.78004L6.39361 8.53191ZM25.2377 13.0449H7.80618V14.2621H25.2377V13.0449ZM25.4855 14.2621V13.0449C25.4855 12.908 25.3745 12.797 25.2375 12.797L7.80645 12.7972C7.6695 12.7972 7.55848 12.9082 7.55848 13.0451V14.2623C7.55848 14.3992 7.6695 14.5103 7.80645 14.5103H25.2375C25.3745 14.5103 25.4855 14.3992 25.4855 14.2623V14.2621ZM8.05442 13.2929H24.9897V14.0141H8.05442V13.2929ZM11.906 10.5324H10.2854L9.04596 25.1919H10.6665L11.906 10.5324ZM10.9136 25.2128L12.1531 10.5532C12.159 10.4841 12.1356 10.4156 12.0886 10.3646C12.0416 10.3136 11.9755 10.2845 11.906 10.2845H10.2854C10.1566 10.2845 10.0492 10.3831 10.0383 10.5114L8.79886 25.1709C8.79298 25.2401 8.81632 25.3086 8.86335 25.3596C8.91039 25.4106 8.97644 25.4396 9.04596 25.4396H10.6665C10.7954 25.4396 10.9027 25.3411 10.9136 25.2128ZM10.5132 10.7803H11.6363L10.4386 24.944H9.3155L10.5132 10.7803ZM22.7588 10.5324H21.1382L22.3777 25.1919H23.9983L22.7588 10.5324ZM24.1807 25.3596C24.2277 25.3086 24.2511 25.2402 24.2452 25.171L23.0057 10.5115C22.9948 10.3832 22.8874 10.2846 22.7586 10.2846H21.138C21.0687 10.2846 21.0025 10.3137 20.9554 10.3647C20.9084 10.4157 20.885 10.4842 20.8909 10.5533L22.1304 25.2128C22.1413 25.3411 22.2487 25.4397 22.3775 25.4397H23.9981C24.0674 25.4397 24.1337 25.4107 24.1807 25.3596ZM21.4077 10.7803H22.5308L23.7285 24.944H22.6054L21.4077 10.7803ZM17.0289 10.5582H16.0151V13.2738H17.0289V10.5582ZM17.2767 13.2738V10.5582C17.2767 10.4213 17.1657 10.3103 17.0288 10.3103H16.0149C15.878 10.3103 15.767 10.4213 15.767 10.5582V13.2738C15.767 13.4107 15.878 13.5217 16.0149 13.5217H17.0288C17.1657 13.5217 17.2767 13.4107 17.2767 13.2738ZM16.2629 10.8062H16.781V13.026H16.2629V10.8062Z" fill="white"/>
</svg>
