<svg width="324" height="251" viewBox="0 0 324 251" fill="none" xmlns="http://www.w3.org/2000/svg">
<path d="M0.121948 16.8611C0.121948 8.02453 7.28539 0.861084 16.1219 0.861084H307.986C316.822 0.861084 323.986 8.02453 323.986 16.8611V234.245C323.986 243.081 316.822 250.245 307.986 250.245H16.122C7.2854 250.245 0.121948 243.081 0.121948 234.245V16.8611Z" fill="#06527A"/>
<path d="M256.329 49.1889H67.7786L72.2567 69.5007H251.85L256.329 49.1889ZM254.037 69.9833L258.516 49.6716C258.662 49.0093 258.5 48.3158 258.073 47.7863C257.649 47.2568 257.007 46.9507 256.329 46.9507H67.7785C67.0991 46.9507 66.4571 47.2584 66.0338 47.7863C65.6089 48.3158 65.4449 49.0093 65.5918 49.6716L70.0698 69.9833C70.2963 71.0095 71.2053 71.7405 72.2566 71.7405H251.846C252.897 71.7405 253.806 71.0095 254.033 69.9833H254.037ZM70.5655 51.429H253.538L250.047 67.2626H74.056L70.5655 51.429ZM240.782 92.1947H83.325V103.189H240.782V92.1947ZM243.02 103.189V92.1947C243.02 90.9576 242.018 89.9549 240.781 89.9549L83.3274 89.9564C82.0904 89.9564 81.0876 90.9592 81.0876 92.1963V103.191C81.0876 104.428 82.0904 105.431 83.3274 105.431H240.781C242.018 105.431 243.02 104.428 243.02 103.191V103.189ZM85.5673 94.4344H238.542V100.949H85.5673V94.4344ZM120.358 69.4995H105.72L94.5238 201.917H109.162L120.358 69.4995ZM111.394 202.105L122.59 69.6874C122.643 69.0626 122.433 68.4441 122.008 67.9833C121.583 67.5225 120.986 67.2601 120.358 67.2601H105.72C104.556 67.2601 103.586 68.1504 103.488 69.3094L92.2918 201.727C92.2387 202.352 92.4495 202.971 92.8744 203.431C93.2992 203.892 93.8959 204.154 94.5238 204.154H109.162C110.326 204.154 111.296 203.264 111.394 202.105ZM107.777 71.7387H117.922L107.103 199.678H96.9586L107.777 71.7387ZM218.39 69.4988H203.752L214.948 201.917H229.586L218.39 69.4988ZM231.234 203.432C231.659 202.971 231.87 202.353 231.817 201.728L220.621 69.3102C220.522 68.1512 219.552 67.2609 218.389 67.2609H203.75C203.124 67.2609 202.526 67.5233 202.101 67.9841C201.676 68.4449 201.465 69.0634 201.518 69.6882L212.714 202.106C212.813 203.265 213.783 204.155 214.946 204.155H229.585C230.211 204.155 230.809 203.893 231.234 203.432ZM206.186 71.738H216.331L227.15 199.677H217.005L206.186 71.738ZM166.633 69.7325H157.475V94.2615H166.633V69.7325ZM168.871 94.2615V69.7325C168.871 68.4954 167.869 67.4926 166.632 67.4926H157.474C156.237 67.4926 155.234 68.4954 155.234 69.7325V94.2615C155.234 95.4986 156.237 96.5014 157.474 96.5014H166.632C167.869 96.5014 168.871 95.4986 168.871 94.2615ZM159.714 71.9725H164.393V92.0235H159.714V71.9725Z" fill="white"/>
</svg>
