<?xml version="1.0"?>
<!-- Generated by SVGo and Plotinum VG -->
<svg width="850.39pt" height="566.93pt" viewBox="0 0 850.39 566.93"
	xmlns="http://www.w3.org/2000/svg"
	xmlns:xlink="http://www.w3.org/1999/xlink">
<g transform="scale(1, -1) translate(0, -566.93)">
<path d="M0,0L850.39,0L850.39,566.93L0,566.93Z" style="fill:#FFFFFF" />
<text x="238.21" y="-557.54" transform="scale(1, -1)"
	style="font-family:Liberation Serif;font-variant:normal;font-weight:normal;font-style:normal;font-size:12px">Percentiles - FrontEndUp (Nearest Rank): regular-localhost-zeroload-400Kdb</text>
<text x="424.78" y="-3.9023" transform="scale(1, -1)"
	style="font-family:Liberation Serif;font-variant:normal;font-weight:normal;font-style:normal;font-size:12px">Percentile</text>
<text x="200.92" y="-16.541" transform="scale(1, -1)"
	style="font-family:Liberation Serif;font-variant:normal;font-weight:normal;font-style:normal;font-size:10px">20</text>
<text x="519.41" y="-16.541" transform="scale(1, -1)"
	style="font-family:Liberation Serif;font-variant:normal;font-weight:normal;font-style:normal;font-size:10px">60</text>
<text x="835.39" y="-16.541" transform="scale(1, -1)"
	style="font-family:Liberation Serif;font-variant:normal;font-weight:normal;font-style:normal;font-size:10px">100</text>
<path d="M205.92,24.363L205.92,32.363" style="fill:none;stroke:#000000;stroke-width:0.5" />
<path d="M524.41,24.363L524.41,32.363" style="fill:none;stroke:#000000;stroke-width:0.5" />
<path d="M842.89,24.363L842.89,32.363" style="fill:none;stroke:#000000;stroke-width:0.5" />
<path d="M126.29,28.363L126.29,32.363" style="fill:none;stroke:#000000;stroke-width:0.5" />
<path d="M285.54,28.363L285.54,32.363" style="fill:none;stroke:#000000;stroke-width:0.5" />
<path d="M365.16,28.363L365.16,32.363" style="fill:none;stroke:#000000;stroke-width:0.5" />
<path d="M444.78,28.363L444.78,32.363" style="fill:none;stroke:#000000;stroke-width:0.5" />
<path d="M604.03,28.363L604.03,32.363" style="fill:none;stroke:#000000;stroke-width:0.5" />
<path d="M683.65,28.363L683.65,32.363" style="fill:none;stroke:#000000;stroke-width:0.5" />
<path d="M763.27,28.363L763.27,32.363" style="fill:none;stroke:#000000;stroke-width:0.5" />
<path d="M54.635,32.363L842.89,32.363" style="fill:none;stroke:#000000;stroke-width:0.5" />
<g transform="rotate(90)">
<text x="265.43" y="9.3867" transform="scale(1, -1)"
	style="font-family:Liberation Serif;font-variant:normal;font-weight:normal;font-style:normal;font-size:12px">Duration: ms</text>
</g>
<text x="20.885" y="-89.885" transform="scale(1, -1)"
	style="font-family:Liberation Serif;font-variant:normal;font-weight:normal;font-style:normal;font-size:10px">400</text>
<text x="15.885" y="-283.85" transform="scale(1, -1)"
	style="font-family:Liberation Serif;font-variant:normal;font-weight:normal;font-style:normal;font-size:10px">1200</text>
<text x="15.885" y="-477.82" transform="scale(1, -1)"
	style="font-family:Liberation Serif;font-variant:normal;font-weight:normal;font-style:normal;font-size:10px">2000</text>
<path d="M38.385,92.17L46.385,92.17" style="fill:none;stroke:#000000;stroke-width:0.5" />
<path d="M38.385,286.14L46.385,286.14" style="fill:none;stroke:#000000;stroke-width:0.5" />
<path d="M38.385,480.1L46.385,480.1" style="fill:none;stroke:#000000;stroke-width:0.5" />
<path d="M42.385,189.15L46.385,189.15" style="fill:none;stroke:#000000;stroke-width:0.5" />
<path d="M42.385,383.12L46.385,383.12" style="fill:none;stroke:#000000;stroke-width:0.5" />
<path d="M46.385,42.709L46.385,551.14" style="fill:none;stroke:#000000;stroke-width:0.5" />
<path d="M205.92,42.709L205.92,551.14" style="fill:none;stroke:#808080;stroke-width:0.25" />
<path d="M524.41,42.709L524.41,551.14" style="fill:none;stroke:#808080;stroke-width:0.25" />
<path d="M842.89,42.709L842.89,551.14" style="fill:none;stroke:#808080;stroke-width:0.25" />
<path d="M54.635,92.17L842.89,92.17" style="fill:none;stroke:#808080;stroke-width:0.25" />
<path d="M54.635,286.14L842.89,286.14" style="fill:none;stroke:#808080;stroke-width:0.25" />
<path d="M54.635,480.1L842.89,480.1" style="fill:none;stroke:#808080;stroke-width:0.25" />
<path d="M54.635,42.709L62.597,42.951L70.559,42.951L78.521,43.194L86.484,43.436L94.446,43.436L102.41,43.436L110.37,43.436L118.33,43.436L126.29,43.679L134.26,43.679L142.22,43.921L150.18,43.921L158.14,43.921L166.11,43.921L174.07,43.921L182.03,43.921L189.99,44.164L197.95,44.164L205.92,44.164L213.88,44.164L221.84,44.406L229.8,44.406L237.77,44.406L245.73,44.406L253.69,44.406L261.65,44.406L269.61,44.406L277.58,44.406L285.54,44.406L293.5,44.649L301.46,44.649L309.43,44.649L317.39,44.649L325.35,44.649L333.31,44.649L341.27,44.891L349.24,44.891L357.2,44.891L365.16,44.891L373.12,45.134L381.09,45.134L389.05,45.134L397.01,45.134L404.97,45.134L412.93,45.376L420.9,45.376L428.86,45.376L436.82,45.376L444.78,45.376L452.75,45.376L460.71,45.618L468.67,45.618L476.63,45.618L484.59,45.618L492.56,45.618L500.52,45.618L508.48,45.618L516.44,45.618L524.41,45.618L532.37,45.861L540.33,45.861L548.29,45.861L556.25,45.861L564.22,45.861L572.18,46.103L580.14,46.103L588.1,46.346L596.07,46.346L604.03,46.346L611.99,46.346L619.95,46.831L627.91,46.831L635.88,47.073L643.84,47.073L651.8,47.073L659.76,47.073L667.73,47.316L675.69,47.316L683.65,47.316L691.61,47.558L699.57,47.558L707.54,47.801L715.5,48.043L723.46,48.043L731.42,48.043L739.38,48.285L747.35,48.77L755.31,52.65L763.27,60.651L771.23,61.621L779.2,62.348L787.16,65.5L795.12,65.5L803.08,68.409L811.04,83.442L819.01,88.776L826.97,92.897L834.93,97.019L842.89,551.14" style="fill:none;stroke:#7AC36A" />
<path d="M54.635,45.834L51.928,41.146L57.341,41.146Z" style="fill:#7AC36A" />
<path d="M62.597,46.076L59.891,41.389L65.303,41.389Z" style="fill:#7AC36A" />
<path d="M70.559,46.076L67.853,41.389L73.266,41.389Z" style="fill:#7AC36A" />
<path d="M78.521,46.319L75.815,41.631L81.228,41.631Z" style="fill:#7AC36A" />
<path d="M86.484,46.561L83.777,41.874L89.19,41.874Z" style="fill:#7AC36A" />
<path d="M94.446,46.561L91.739,41.874L97.152,41.874Z" style="fill:#7AC36A" />
<path d="M102.41,46.561L99.702,41.874L105.11,41.874Z" style="fill:#7AC36A" />
<path d="M110.37,46.561L107.66,41.874L113.08,41.874Z" style="fill:#7AC36A" />
<path d="M118.33,46.561L115.63,41.874L121.04,41.874Z" style="fill:#7AC36A" />
<path d="M126.29,46.804L123.59,42.116L129,42.116Z" style="fill:#7AC36A" />
<path d="M134.26,46.804L131.55,42.116L136.96,42.116Z" style="fill:#7AC36A" />
<path d="M142.22,47.046L139.51,42.359L144.93,42.359Z" style="fill:#7AC36A" />
<path d="M150.18,47.046L147.47,42.359L152.89,42.359Z" style="fill:#7AC36A" />
<path d="M158.14,47.046L155.44,42.359L160.85,42.359Z" style="fill:#7AC36A" />
<path d="M166.11,47.046L163.4,42.359L168.81,42.359Z" style="fill:#7AC36A" />
<path d="M174.07,47.046L171.36,42.359L176.77,42.359Z" style="fill:#7AC36A" />
<path d="M182.03,47.046L179.32,42.359L184.74,42.359Z" style="fill:#7AC36A" />
<path d="M189.99,47.289L187.29,42.601L192.7,42.601Z" style="fill:#7AC36A" />
<path d="M197.95,47.289L195.25,42.601L200.66,42.601Z" style="fill:#7AC36A" />
<path d="M205.92,47.289L203.21,42.601L208.62,42.601Z" style="fill:#7AC36A" />
<path d="M213.88,47.289L211.17,42.601L216.59,42.601Z" style="fill:#7AC36A" />
<path d="M221.84,47.531L219.13,42.844L224.55,42.844Z" style="fill:#7AC36A" />
<path d="M229.8,47.531L227.1,42.844L232.51,42.844Z" style="fill:#7AC36A" />
<path d="M237.77,47.531L235.06,42.844L240.47,42.844Z" style="fill:#7AC36A" />
<path d="M245.73,47.531L243.02,42.844L248.43,42.844Z" style="fill:#7AC36A" />
<path d="M253.69,47.531L250.98,42.844L256.4,42.844Z" style="fill:#7AC36A" />
<path d="M261.65,47.531L258.95,42.844L264.36,42.844Z" style="fill:#7AC36A" />
<path d="M269.61,47.531L266.91,42.844L272.32,42.844Z" style="fill:#7AC36A" />
<path d="M277.58,47.531L274.87,42.844L280.28,42.844Z" style="fill:#7AC36A" />
<path d="M285.54,47.531L282.83,42.844L288.25,42.844Z" style="fill:#7AC36A" />
<path d="M293.5,47.774L290.79,43.086L296.21,43.086Z" style="fill:#7AC36A" />
<path d="M301.46,47.774L298.76,43.086L304.17,43.086Z" style="fill:#7AC36A" />
<path d="M309.43,47.774L306.72,43.086L312.13,43.086Z" style="fill:#7AC36A" />
<path d="M317.39,47.774L314.68,43.086L320.09,43.086Z" style="fill:#7AC36A" />
<path d="M325.35,47.774L322.64,43.086L328.06,43.086Z" style="fill:#7AC36A" />
<path d="M333.31,47.774L330.61,43.086L336.02,43.086Z" style="fill:#7AC36A" />
<path d="M341.27,48.016L338.57,43.329L343.98,43.329Z" style="fill:#7AC36A" />
<path d="M349.24,48.016L346.53,43.329L351.94,43.329Z" style="fill:#7AC36A" />
<path d="M357.2,48.016L354.49,43.329L359.91,43.329Z" style="fill:#7AC36A" />
<path d="M365.16,48.016L362.45,43.329L367.87,43.329Z" style="fill:#7AC36A" />
<path d="M373.12,48.259L370.42,43.571L375.83,43.571Z" style="fill:#7AC36A" />
<path d="M381.09,48.259L378.38,43.571L383.79,43.571Z" style="fill:#7AC36A" />
<path d="M389.05,48.259L386.34,43.571L391.75,43.571Z" style="fill:#7AC36A" />
<path d="M397.01,48.259L394.3,43.571L399.72,43.571Z" style="fill:#7AC36A" />
<path d="M404.97,48.259L402.27,43.571L407.68,43.571Z" style="fill:#7AC36A" />
<path d="M412.93,48.501L410.23,43.814L415.64,43.814Z" style="fill:#7AC36A" />
<path d="M420.9,48.501L418.19,43.814L423.6,43.814Z" style="fill:#7AC36A" />
<path d="M428.86,48.501L426.15,43.814L431.57,43.814Z" style="fill:#7AC36A" />
<path d="M436.82,48.501L434.11,43.814L439.53,43.814Z" style="fill:#7AC36A" />
<path d="M444.78,48.501L442.08,43.814L447.49,43.814Z" style="fill:#7AC36A" />
<path d="M452.75,48.501L450.04,43.814L455.45,43.814Z" style="fill:#7AC36A" />
<path d="M460.71,48.743L458,44.056L463.41,44.056Z" style="fill:#7AC36A" />
<path d="M468.67,48.743L465.96,44.056L471.38,44.056Z" style="fill:#7AC36A" />
<path d="M476.63,48.743L473.93,44.056L479.34,44.056Z" style="fill:#7AC36A" />
<path d="M484.59,48.743L481.89,44.056L487.3,44.056Z" style="fill:#7AC36A" />
<path d="M492.56,48.743L489.85,44.056L495.26,44.056Z" style="fill:#7AC36A" />
<path d="M500.52,48.743L497.81,44.056L503.22,44.056Z" style="fill:#7AC36A" />
<path d="M508.48,48.743L505.77,44.056L511.19,44.056Z" style="fill:#7AC36A" />
<path d="M516.44,48.743L513.74,44.056L519.15,44.056Z" style="fill:#7AC36A" />
<path d="M524.41,48.743L521.7,44.056L527.11,44.056Z" style="fill:#7AC36A" />
<path d="M532.37,48.986L529.66,44.298L535.07,44.298Z" style="fill:#7AC36A" />
<path d="M540.33,48.986L537.62,44.298L543.04,44.298Z" style="fill:#7AC36A" />
<path d="M548.29,48.986L545.59,44.298L551,44.298Z" style="fill:#7AC36A" />
<path d="M556.25,48.986L553.55,44.298L558.96,44.298Z" style="fill:#7AC36A" />
<path d="M564.22,48.986L561.51,44.298L566.92,44.298Z" style="fill:#7AC36A" />
<path d="M572.18,49.228L569.47,44.541L574.88,44.541Z" style="fill:#7AC36A" />
<path d="M580.14,49.228L577.43,44.541L582.85,44.541Z" style="fill:#7AC36A" />
<path d="M588.1,49.471L585.4,44.783L590.81,44.783Z" style="fill:#7AC36A" />
<path d="M596.07,49.471L593.36,44.783L598.77,44.783Z" style="fill:#7AC36A" />
<path d="M604.03,49.471L601.32,44.783L606.73,44.783Z" style="fill:#7AC36A" />
<path d="M611.99,49.471L609.28,44.783L614.7,44.783Z" style="fill:#7AC36A" />
<path d="M619.95,49.956L617.25,45.268L622.66,45.268Z" style="fill:#7AC36A" />
<path d="M627.91,49.956L625.21,45.268L630.62,45.268Z" style="fill:#7AC36A" />
<path d="M635.88,50.198L633.17,45.511L638.58,45.511Z" style="fill:#7AC36A" />
<path d="M643.84,50.198L641.13,45.511L646.54,45.511Z" style="fill:#7AC36A" />
<path d="M651.8,50.198L649.09,45.511L654.51,45.511Z" style="fill:#7AC36A" />
<path d="M659.76,50.198L657.06,45.511L662.47,45.511Z" style="fill:#7AC36A" />
<path d="M667.73,50.441L665.02,45.753L670.43,45.753Z" style="fill:#7AC36A" />
<path d="M675.69,50.441L672.98,45.753L678.39,45.753Z" style="fill:#7AC36A" />
<path d="M683.65,50.441L680.94,45.753L686.36,45.753Z" style="fill:#7AC36A" />
<path d="M691.61,50.683L688.91,45.996L694.32,45.996Z" style="fill:#7AC36A" />
<path d="M699.57,50.683L696.87,45.996L702.28,45.996Z" style="fill:#7AC36A" />
<path d="M707.54,50.926L704.83,46.238L710.24,46.238Z" style="fill:#7AC36A" />
<path d="M715.5,51.168L712.79,46.481L718.2,46.481Z" style="fill:#7AC36A" />
<path d="M723.46,51.168L720.75,46.481L726.17,46.481Z" style="fill:#7AC36A" />
<path d="M731.42,51.168L728.72,46.481L734.13,46.481Z" style="fill:#7AC36A" />
<path d="M739.38,51.41L736.68,46.723L742.09,46.723Z" style="fill:#7AC36A" />
<path d="M747.35,51.895L744.64,47.208L750.05,47.208Z" style="fill:#7AC36A" />
<path d="M755.31,55.775L752.6,51.087L758.02,51.087Z" style="fill:#7AC36A" />
<path d="M763.27,63.776L760.57,59.088L765.98,59.088Z" style="fill:#7AC36A" />
<path d="M771.23,64.746L768.53,60.058L773.94,60.058Z" style="fill:#7AC36A" />
<path d="M779.2,65.473L776.49,60.785L781.9,60.785Z" style="fill:#7AC36A" />
<path d="M787.16,68.625L784.45,63.937L789.86,63.937Z" style="fill:#7AC36A" />
<path d="M795.12,68.625L792.41,63.937L797.83,63.937Z" style="fill:#7AC36A" />
<path d="M803.08,71.534L800.38,66.847L805.79,66.847Z" style="fill:#7AC36A" />
<path d="M811.04,86.567L808.34,81.879L813.75,81.879Z" style="fill:#7AC36A" />
<path d="M819.01,91.901L816.3,87.213L821.71,87.213Z" style="fill:#7AC36A" />
<path d="M826.97,96.022L824.26,91.335L829.68,91.335Z" style="fill:#7AC36A" />
<path d="M834.93,100.14L832.23,95.457L837.64,95.457Z" style="fill:#7AC36A" />
<path d="M842.89,554.27L840.19,549.58L845.6,549.58Z" style="fill:#7AC36A" />
<path d="M830.39,45.301L850.39,45.301" style="fill:none;stroke:#7AC36A" />
<path d="M840.39,48.426L837.69,43.738L843.1,43.738Z" style="fill:#7AC36A" />
<text x="763.42" y="-42.813" transform="scale(1, -1)"
	style="font-family:Liberation Serif;font-variant:normal;font-weight:normal;font-style:normal;font-size:12px">to-fronted-up</text>
</g>
</svg>
