<?xml version="1.0"?>
<!-- Generated by SVGo and Plotinum VG -->
<svg width="850.39pt" height="566.93pt" viewBox="0 0 850.39 566.93"
	xmlns="http://www.w3.org/2000/svg"
	xmlns:xlink="http://www.w3.org/1999/xlink">
<g transform="scale(1, -1) translate(0, -566.93)">
<path d="M0,0L850.39,0L850.39,566.93L0,566.93Z" style="fill:#FFFFFF" />
<text x="255.55" y="-557.54" transform="scale(1, -1)"
	style="font-family:Liberation Serif;font-variant:normal;font-weight:normal;font-style:normal;font-size:12px">Percentiles - Main (Nearest Rank): regular-localhost-zeroload-800Kdb</text>
<text x="424.78" y="-3.9023" transform="scale(1, -1)"
	style="font-family:Liberation Serif;font-variant:normal;font-weight:normal;font-style:normal;font-size:12px">Percentile</text>
<text x="200.92" y="-16.541" transform="scale(1, -1)"
	style="font-family:Liberation Serif;font-variant:normal;font-weight:normal;font-style:normal;font-size:10px">20</text>
<text x="519.41" y="-16.541" transform="scale(1, -1)"
	style="font-family:Liberation Serif;font-variant:normal;font-weight:normal;font-style:normal;font-size:10px">60</text>
<text x="835.39" y="-16.541" transform="scale(1, -1)"
	style="font-family:Liberation Serif;font-variant:normal;font-weight:normal;font-style:normal;font-size:10px">100</text>
<path d="M205.92,24.363L205.92,32.363" style="fill:none;stroke:#000000;stroke-width:0.5" />
<path d="M524.41,24.363L524.41,32.363" style="fill:none;stroke:#000000;stroke-width:0.5" />
<path d="M842.89,24.363L842.89,32.363" style="fill:none;stroke:#000000;stroke-width:0.5" />
<path d="M126.29,28.363L126.29,32.363" style="fill:none;stroke:#000000;stroke-width:0.5" />
<path d="M285.54,28.363L285.54,32.363" style="fill:none;stroke:#000000;stroke-width:0.5" />
<path d="M365.16,28.363L365.16,32.363" style="fill:none;stroke:#000000;stroke-width:0.5" />
<path d="M444.78,28.363L444.78,32.363" style="fill:none;stroke:#000000;stroke-width:0.5" />
<path d="M604.03,28.363L604.03,32.363" style="fill:none;stroke:#000000;stroke-width:0.5" />
<path d="M683.65,28.363L683.65,32.363" style="fill:none;stroke:#000000;stroke-width:0.5" />
<path d="M763.27,28.363L763.27,32.363" style="fill:none;stroke:#000000;stroke-width:0.5" />
<path d="M54.635,32.363L842.89,32.363" style="fill:none;stroke:#000000;stroke-width:0.5" />
<g transform="rotate(90)">
<text x="265.43" y="9.3867" transform="scale(1, -1)"
	style="font-family:Liberation Serif;font-variant:normal;font-weight:normal;font-style:normal;font-size:12px">Duration: ms</text>
</g>
<text x="20.885" y="-129.3" transform="scale(1, -1)"
	style="font-family:Liberation Serif;font-variant:normal;font-weight:normal;font-style:normal;font-size:10px">500</text>
<text x="15.885" y="-318.8" transform="scale(1, -1)"
	style="font-family:Liberation Serif;font-variant:normal;font-weight:normal;font-style:normal;font-size:10px">1500</text>
<text x="15.885" y="-508.3" transform="scale(1, -1)"
	style="font-family:Liberation Serif;font-variant:normal;font-weight:normal;font-style:normal;font-size:10px">2500</text>
<path d="M38.385,131.58L46.385,131.58" style="fill:none;stroke:#000000;stroke-width:0.5" />
<path d="M38.385,321.09L46.385,321.09" style="fill:none;stroke:#000000;stroke-width:0.5" />
<path d="M38.385,510.59L46.385,510.59" style="fill:none;stroke:#000000;stroke-width:0.5" />
<path d="M42.385,226.34L46.385,226.34" style="fill:none;stroke:#000000;stroke-width:0.5" />
<path d="M42.385,415.84L46.385,415.84" style="fill:none;stroke:#000000;stroke-width:0.5" />
<path d="M46.385,42.709L46.385,551.14" style="fill:none;stroke:#000000;stroke-width:0.5" />
<path d="M205.92,42.709L205.92,551.14" style="fill:none;stroke:#808080;stroke-width:0.25" />
<path d="M524.41,42.709L524.41,551.14" style="fill:none;stroke:#808080;stroke-width:0.25" />
<path d="M842.89,42.709L842.89,551.14" style="fill:none;stroke:#808080;stroke-width:0.25" />
<path d="M54.635,131.58L842.89,131.58" style="fill:none;stroke:#808080;stroke-width:0.25" />
<path d="M54.635,321.09L842.89,321.09" style="fill:none;stroke:#808080;stroke-width:0.25" />
<path d="M54.635,510.59L842.89,510.59" style="fill:none;stroke:#808080;stroke-width:0.25" />
<path d="M54.635,42.709L62.597,43.088L70.559,43.277L78.521,43.277L86.484,43.277L94.446,43.277L102.41,43.277L110.37,43.277L118.33,43.467L126.29,43.467L134.26,43.467L142.22,43.467L150.18,43.467L158.14,43.467L166.11,43.467L174.07,43.467L182.03,43.467L189.99,43.467L197.95,43.467L205.92,43.467L213.88,43.467L221.84,43.656L229.8,43.656L237.77,43.656L245.73,43.656L253.69,43.656L261.65,43.656L269.61,43.656L277.58,43.656L285.54,43.656L293.5,43.656L301.46,43.656L309.43,43.656L317.39,43.656L325.35,43.846L333.31,43.846L341.27,43.846L349.24,43.846L357.2,43.846L365.16,43.846L373.12,43.846L381.09,43.846L389.05,43.846L397.01,43.846L404.97,43.846L412.93,44.035L420.9,44.035L428.86,44.035L436.82,44.035L444.78,44.035L452.75,44.035L460.71,44.035L468.67,44.035L476.63,44.035L484.59,44.225L492.56,44.225L500.52,44.225L508.48,44.225L516.44,44.225L524.41,44.225L532.37,44.225L540.33,44.225L548.29,44.225L556.25,44.414L564.22,44.414L572.18,44.414L580.14,44.414L588.1,44.414L596.07,44.414L604.03,44.414L611.99,44.604L619.95,44.604L627.91,44.604L635.88,44.793L643.84,44.793L651.8,44.793L659.76,44.793L667.73,44.793L675.69,44.793L683.65,44.793L691.61,44.793L699.57,44.983L707.54,45.172L715.5,45.172L723.46,45.172L731.42,45.362L739.38,45.362L747.35,45.362L755.31,45.362L763.27,45.362L771.23,45.551L779.2,45.741L787.16,45.741L795.12,45.931L803.08,46.12L811.04,46.12L819.01,46.499L826.97,47.257L834.93,135.19L842.89,551.14" style="fill:none;stroke:#F15A60" />
<path d="M54.635,45.834L51.928,41.146L57.341,41.146Z" style="fill:#F15A60" />
<path d="M62.597,46.213L59.891,41.525L65.303,41.525Z" style="fill:#F15A60" />
<path d="M70.559,46.402L67.853,41.715L73.266,41.715Z" style="fill:#F15A60" />
<path d="M78.521,46.402L75.815,41.715L81.228,41.715Z" style="fill:#F15A60" />
<path d="M86.484,46.402L83.777,41.715L89.19,41.715Z" style="fill:#F15A60" />
<path d="M94.446,46.402L91.739,41.715L97.152,41.715Z" style="fill:#F15A60" />
<path d="M102.41,46.402L99.702,41.715L105.11,41.715Z" style="fill:#F15A60" />
<path d="M110.37,46.402L107.66,41.715L113.08,41.715Z" style="fill:#F15A60" />
<path d="M118.33,46.592L115.63,41.904L121.04,41.904Z" style="fill:#F15A60" />
<path d="M126.29,46.592L123.59,41.904L129,41.904Z" style="fill:#F15A60" />
<path d="M134.26,46.592L131.55,41.904L136.96,41.904Z" style="fill:#F15A60" />
<path d="M142.22,46.592L139.51,41.904L144.93,41.904Z" style="fill:#F15A60" />
<path d="M150.18,46.592L147.47,41.904L152.89,41.904Z" style="fill:#F15A60" />
<path d="M158.14,46.592L155.44,41.904L160.85,41.904Z" style="fill:#F15A60" />
<path d="M166.11,46.592L163.4,41.904L168.81,41.904Z" style="fill:#F15A60" />
<path d="M174.07,46.592L171.36,41.904L176.77,41.904Z" style="fill:#F15A60" />
<path d="M182.03,46.592L179.32,41.904L184.74,41.904Z" style="fill:#F15A60" />
<path d="M189.99,46.592L187.29,41.904L192.7,41.904Z" style="fill:#F15A60" />
<path d="M197.95,46.592L195.25,41.904L200.66,41.904Z" style="fill:#F15A60" />
<path d="M205.92,46.592L203.21,41.904L208.62,41.904Z" style="fill:#F15A60" />
<path d="M213.88,46.592L211.17,41.904L216.59,41.904Z" style="fill:#F15A60" />
<path d="M221.84,46.781L219.13,42.094L224.55,42.094Z" style="fill:#F15A60" />
<path d="M229.8,46.781L227.1,42.094L232.51,42.094Z" style="fill:#F15A60" />
<path d="M237.77,46.781L235.06,42.094L240.47,42.094Z" style="fill:#F15A60" />
<path d="M245.73,46.781L243.02,42.094L248.43,42.094Z" style="fill:#F15A60" />
<path d="M253.69,46.781L250.98,42.094L256.4,42.094Z" style="fill:#F15A60" />
<path d="M261.65,46.781L258.95,42.094L264.36,42.094Z" style="fill:#F15A60" />
<path d="M269.61,46.781L266.91,42.094L272.32,42.094Z" style="fill:#F15A60" />
<path d="M277.58,46.781L274.87,42.094L280.28,42.094Z" style="fill:#F15A60" />
<path d="M285.54,46.781L282.83,42.094L288.25,42.094Z" style="fill:#F15A60" />
<path d="M293.5,46.781L290.79,42.094L296.21,42.094Z" style="fill:#F15A60" />
<path d="M301.46,46.781L298.76,42.094L304.17,42.094Z" style="fill:#F15A60" />
<path d="M309.43,46.781L306.72,42.094L312.13,42.094Z" style="fill:#F15A60" />
<path d="M317.39,46.781L314.68,42.094L320.09,42.094Z" style="fill:#F15A60" />
<path d="M325.35,46.971L322.64,42.283L328.06,42.283Z" style="fill:#F15A60" />
<path d="M333.31,46.971L330.61,42.283L336.02,42.283Z" style="fill:#F15A60" />
<path d="M341.27,46.971L338.57,42.283L343.98,42.283Z" style="fill:#F15A60" />
<path d="M349.24,46.971L346.53,42.283L351.94,42.283Z" style="fill:#F15A60" />
<path d="M357.2,46.971L354.49,42.283L359.91,42.283Z" style="fill:#F15A60" />
<path d="M365.16,46.971L362.45,42.283L367.87,42.283Z" style="fill:#F15A60" />
<path d="M373.12,46.971L370.42,42.283L375.83,42.283Z" style="fill:#F15A60" />
<path d="M381.09,46.971L378.38,42.283L383.79,42.283Z" style="fill:#F15A60" />
<path d="M389.05,46.971L386.34,42.283L391.75,42.283Z" style="fill:#F15A60" />
<path d="M397.01,46.971L394.3,42.283L399.72,42.283Z" style="fill:#F15A60" />
<path d="M404.97,46.971L402.27,42.283L407.68,42.283Z" style="fill:#F15A60" />
<path d="M412.93,47.16L410.23,42.473L415.64,42.473Z" style="fill:#F15A60" />
<path d="M420.9,47.16L418.19,42.473L423.6,42.473Z" style="fill:#F15A60" />
<path d="M428.86,47.16L426.15,42.473L431.57,42.473Z" style="fill:#F15A60" />
<path d="M436.82,47.16L434.11,42.473L439.53,42.473Z" style="fill:#F15A60" />
<path d="M444.78,47.16L442.08,42.473L447.49,42.473Z" style="fill:#F15A60" />
<path d="M452.75,47.16L450.04,42.473L455.45,42.473Z" style="fill:#F15A60" />
<path d="M460.71,47.16L458,42.473L463.41,42.473Z" style="fill:#F15A60" />
<path d="M468.67,47.16L465.96,42.473L471.38,42.473Z" style="fill:#F15A60" />
<path d="M476.63,47.16L473.93,42.473L479.34,42.473Z" style="fill:#F15A60" />
<path d="M484.59,47.35L481.89,42.662L487.3,42.662Z" style="fill:#F15A60" />
<path d="M492.56,47.35L489.85,42.662L495.26,42.662Z" style="fill:#F15A60" />
<path d="M500.52,47.35L497.81,42.662L503.22,42.662Z" style="fill:#F15A60" />
<path d="M508.48,47.35L505.77,42.662L511.19,42.662Z" style="fill:#F15A60" />
<path d="M516.44,47.35L513.74,42.662L519.15,42.662Z" style="fill:#F15A60" />
<path d="M524.41,47.35L521.7,42.662L527.11,42.662Z" style="fill:#F15A60" />
<path d="M532.37,47.35L529.66,42.662L535.07,42.662Z" style="fill:#F15A60" />
<path d="M540.33,47.35L537.62,42.662L543.04,42.662Z" style="fill:#F15A60" />
<path d="M548.29,47.35L545.59,42.662L551,42.662Z" style="fill:#F15A60" />
<path d="M556.25,47.539L553.55,42.852L558.96,42.852Z" style="fill:#F15A60" />
<path d="M564.22,47.539L561.51,42.852L566.92,42.852Z" style="fill:#F15A60" />
<path d="M572.18,47.539L569.47,42.852L574.88,42.852Z" style="fill:#F15A60" />
<path d="M580.14,47.539L577.43,42.852L582.85,42.852Z" style="fill:#F15A60" />
<path d="M588.1,47.539L585.4,42.852L590.81,42.852Z" style="fill:#F15A60" />
<path d="M596.07,47.539L593.36,42.852L598.77,42.852Z" style="fill:#F15A60" />
<path d="M604.03,47.539L601.32,42.852L606.73,42.852Z" style="fill:#F15A60" />
<path d="M611.99,47.729L609.28,43.041L614.7,43.041Z" style="fill:#F15A60" />
<path d="M619.95,47.729L617.25,43.041L622.66,43.041Z" style="fill:#F15A60" />
<path d="M627.91,47.729L625.21,43.041L630.62,43.041Z" style="fill:#F15A60" />
<path d="M635.88,47.918L633.17,43.231L638.58,43.231Z" style="fill:#F15A60" />
<path d="M643.84,47.918L641.13,43.231L646.54,43.231Z" style="fill:#F15A60" />
<path d="M651.8,47.918L649.09,43.231L654.51,43.231Z" style="fill:#F15A60" />
<path d="M659.76,47.918L657.06,43.231L662.47,43.231Z" style="fill:#F15A60" />
<path d="M667.73,47.918L665.02,43.231L670.43,43.231Z" style="fill:#F15A60" />
<path d="M675.69,47.918L672.98,43.231L678.39,43.231Z" style="fill:#F15A60" />
<path d="M683.65,47.918L680.94,43.231L686.36,43.231Z" style="fill:#F15A60" />
<path d="M691.61,47.918L688.91,43.231L694.32,43.231Z" style="fill:#F15A60" />
<path d="M699.57,48.108L696.87,43.42L702.28,43.42Z" style="fill:#F15A60" />
<path d="M707.54,48.297L704.83,43.61L710.24,43.61Z" style="fill:#F15A60" />
<path d="M715.5,48.297L712.79,43.61L718.2,43.61Z" style="fill:#F15A60" />
<path d="M723.46,48.297L720.75,43.61L726.17,43.61Z" style="fill:#F15A60" />
<path d="M731.42,48.487L728.72,43.799L734.13,43.799Z" style="fill:#F15A60" />
<path d="M739.38,48.487L736.68,43.799L742.09,43.799Z" style="fill:#F15A60" />
<path d="M747.35,48.487L744.64,43.799L750.05,43.799Z" style="fill:#F15A60" />
<path d="M755.31,48.487L752.6,43.799L758.02,43.799Z" style="fill:#F15A60" />
<path d="M763.27,48.487L760.57,43.799L765.98,43.799Z" style="fill:#F15A60" />
<path d="M771.23,48.676L768.53,43.989L773.94,43.989Z" style="fill:#F15A60" />
<path d="M779.2,48.866L776.49,44.178L781.9,44.178Z" style="fill:#F15A60" />
<path d="M787.16,48.866L784.45,44.178L789.86,44.178Z" style="fill:#F15A60" />
<path d="M795.12,49.056L792.41,44.368L797.83,44.368Z" style="fill:#F15A60" />
<path d="M803.08,49.245L800.38,44.558L805.79,44.558Z" style="fill:#F15A60" />
<path d="M811.04,49.245L808.34,44.558L813.75,44.558Z" style="fill:#F15A60" />
<path d="M819.01,49.624L816.3,44.937L821.71,44.937Z" style="fill:#F15A60" />
<path d="M826.97,50.382L824.26,45.695L829.68,45.695Z" style="fill:#F15A60" />
<path d="M834.93,138.31L832.23,133.62L837.64,133.62Z" style="fill:#F15A60" />
<path d="M842.89,554.27L840.19,549.58L845.6,549.58Z" style="fill:#F15A60" />
<path d="M830.39,45.301L850.39,45.301" style="fill:none;stroke:#F15A60" />
<path d="M840.39,48.426L837.69,43.738L843.1,43.738Z" style="fill:#F15A60" />
<text x="790.07" y="-42.813" transform="scale(1, -1)"
	style="font-family:Liberation Serif;font-variant:normal;font-weight:normal;font-style:normal;font-size:12px">to-main</text>
</g>
</svg>
