<?xml version="1.0"?>
<!-- Generated by SVGo and Plotinum VG -->
<svg width="850.39pt" height="566.93pt" viewBox="0 0 850.39 566.93"
	xmlns="http://www.w3.org/2000/svg"
	xmlns:xlink="http://www.w3.org/1999/xlink">
<g transform="scale(1, -1) translate(0, -566.93)">
<path d="M0,0L850.39,0L850.39,566.93L0,566.93Z" style="fill:#FFFFFF" />
<text x="208.56" y="-557.54" transform="scale(1, -1)"
	style="font-family:Liberation Serif;font-variant:normal;font-weight:normal;font-style:normal;font-size:12px">Percentiles - FrontEndUp-Main-Delta (Nearest Rank): regular-localhost-zeroload-800Kdb</text>
<text x="424.59" y="-3.9023" transform="scale(1, -1)"
	style="font-family:Liberation Serif;font-variant:normal;font-weight:normal;font-style:normal;font-size:12px">Percentile</text>
<text x="200.62" y="-16.541" transform="scale(1, -1)"
	style="font-family:Liberation Serif;font-variant:normal;font-weight:normal;font-style:normal;font-size:10px">20</text>
<text x="519.26" y="-16.541" transform="scale(1, -1)"
	style="font-family:Liberation Serif;font-variant:normal;font-weight:normal;font-style:normal;font-size:10px">60</text>
<text x="835.39" y="-16.541" transform="scale(1, -1)"
	style="font-family:Liberation Serif;font-variant:normal;font-weight:normal;font-style:normal;font-size:10px">100</text>
<path d="M205.62,24.363L205.62,32.363" style="fill:none;stroke:#000000;stroke-width:0.5" />
<path d="M524.26,24.363L524.26,32.363" style="fill:none;stroke:#000000;stroke-width:0.5" />
<path d="M842.89,24.363L842.89,32.363" style="fill:none;stroke:#000000;stroke-width:0.5" />
<path d="M125.96,28.363L125.96,32.363" style="fill:none;stroke:#000000;stroke-width:0.5" />
<path d="M285.28,28.363L285.28,32.363" style="fill:none;stroke:#000000;stroke-width:0.5" />
<path d="M364.94,28.363L364.94,32.363" style="fill:none;stroke:#000000;stroke-width:0.5" />
<path d="M444.6,28.363L444.6,32.363" style="fill:none;stroke:#000000;stroke-width:0.5" />
<path d="M603.91,28.363L603.91,32.363" style="fill:none;stroke:#000000;stroke-width:0.5" />
<path d="M683.57,28.363L683.57,32.363" style="fill:none;stroke:#000000;stroke-width:0.5" />
<path d="M763.23,28.363L763.23,32.363" style="fill:none;stroke:#000000;stroke-width:0.5" />
<path d="M54.264,32.363L842.89,32.363" style="fill:none;stroke:#000000;stroke-width:0.5" />
<g transform="rotate(90)">
<text x="265.43" y="9.3867" transform="scale(1, -1)"
	style="font-family:Liberation Serif;font-variant:normal;font-weight:normal;font-style:normal;font-size:12px">Duration: ms</text>
</g>
<text x="20.514" y="-68.373" transform="scale(1, -1)"
	style="font-family:Liberation Serif;font-variant:normal;font-weight:normal;font-style:normal;font-size:10px">300</text>
<text x="20.514" y="-306.24" transform="scale(1, -1)"
	style="font-family:Liberation Serif;font-variant:normal;font-weight:normal;font-style:normal;font-size:10px">700</text>
<text x="15.885" y="-544.1" transform="scale(1, -1)"
	style="font-family:Liberation Serif;font-variant:normal;font-weight:normal;font-style:normal;font-size:10px">1100</text>
<path d="M38.014,70.658L46.014,70.658" style="fill:none;stroke:#000000;stroke-width:0.5" />
<path d="M38.014,308.52L46.014,308.52" style="fill:none;stroke:#000000;stroke-width:0.5" />
<path d="M38.014,546.38L46.014,546.38" style="fill:none;stroke:#000000;stroke-width:0.5" />
<path d="M42.014,130.12L46.014,130.12" style="fill:none;stroke:#000000;stroke-width:0.5" />
<path d="M42.014,189.59L46.014,189.59" style="fill:none;stroke:#000000;stroke-width:0.5" />
<path d="M42.014,249.05L46.014,249.05" style="fill:none;stroke:#000000;stroke-width:0.5" />
<path d="M42.014,367.99L46.014,367.99" style="fill:none;stroke:#000000;stroke-width:0.5" />
<path d="M42.014,427.45L46.014,427.45" style="fill:none;stroke:#000000;stroke-width:0.5" />
<path d="M42.014,486.92L46.014,486.92" style="fill:none;stroke:#000000;stroke-width:0.5" />
<path d="M46.014,42.709L46.014,551.14" style="fill:none;stroke:#000000;stroke-width:0.5" />
<path d="M205.62,42.709L205.62,551.14" style="fill:none;stroke:#808080;stroke-width:0.25" />
<path d="M524.26,42.709L524.26,551.14" style="fill:none;stroke:#808080;stroke-width:0.25" />
<path d="M842.89,42.709L842.89,551.14" style="fill:none;stroke:#808080;stroke-width:0.25" />
<path d="M54.264,70.658L842.89,70.658" style="fill:none;stroke:#808080;stroke-width:0.25" />
<path d="M54.264,308.52L842.89,308.52" style="fill:none;stroke:#808080;stroke-width:0.25" />
<path d="M54.264,546.38L842.89,546.38" style="fill:none;stroke:#808080;stroke-width:0.25" />
<path d="M54.264,42.709L62.23,76.604L70.196,77.199L78.162,77.199L86.128,77.794L94.093,77.794L102.06,78.388L110.03,78.983L117.99,78.983L125.96,78.983L133.92,79.578L141.89,80.172L149.86,80.172L157.82,80.172L165.79,80.172L173.75,80.767L181.72,80.767L189.68,81.362L197.65,81.362L205.62,81.362L213.58,81.362L221.55,81.956L229.51,81.956L237.48,81.956L245.45,81.956L253.41,82.551L261.38,82.551L269.34,83.146L277.31,83.146L285.28,83.146L293.24,83.146L301.21,83.146L309.17,83.146L317.14,83.146L325.11,83.74L333.07,83.74L341.04,83.74L349,83.74L356.97,83.74L364.94,83.74L372.9,83.74L380.87,83.74L388.83,83.74L396.8,83.74L404.77,83.74L412.73,84.335L420.7,84.335L428.66,84.335L436.63,84.335L444.6,84.335L452.56,84.335L460.53,84.335L468.49,84.93L476.46,84.93L484.43,84.93L492.39,84.93L500.36,84.93L508.32,84.93L516.29,84.93L524.26,84.93L532.22,84.93L540.19,84.93L548.15,84.93L556.12,85.524L564.09,85.524L572.05,85.524L580.02,85.524L587.98,85.524L595.95,85.524L603.91,85.524L611.88,85.524L619.85,85.524L627.81,85.524L635.78,85.524L643.74,85.524L651.71,86.119L659.68,86.119L667.64,86.119L675.61,86.119L683.57,86.119L691.54,86.119L699.51,86.714L707.47,86.714L715.44,86.714L723.4,87.308L731.37,87.903L739.34,87.903L747.3,87.903L755.27,88.498L763.23,88.498L771.2,89.687L779.17,89.687L787.13,90.876L795.1,93.255L803.06,93.849L811.03,96.823L819,97.417L826.96,100.99L834.93,104.55L842.89,551.14" style="fill:none;stroke:#5A9BD4" />
<path d="M54.264,45.834L51.557,41.146L56.97,41.146Z" style="fill:#5A9BD4" />
<path d="M62.23,79.729L59.523,75.042L64.936,75.042Z" style="fill:#5A9BD4" />
<path d="M70.196,80.324L67.489,75.637L72.902,75.637Z" style="fill:#5A9BD4" />
<path d="M78.162,80.324L75.455,75.637L80.868,75.637Z" style="fill:#5A9BD4" />
<path d="M86.128,80.919L83.421,76.231L88.834,76.231Z" style="fill:#5A9BD4" />
<path d="M94.093,80.919L91.387,76.231L96.8,76.231Z" style="fill:#5A9BD4" />
<path d="M102.06,81.513L99.353,76.826L104.77,76.826Z" style="fill:#5A9BD4" />
<path d="M110.03,82.108L107.32,77.421L112.73,77.421Z" style="fill:#5A9BD4" />
<path d="M117.99,82.108L115.29,77.421L120.7,77.421Z" style="fill:#5A9BD4" />
<path d="M125.96,82.108L123.25,77.421L128.66,77.421Z" style="fill:#5A9BD4" />
<path d="M133.92,82.703L131.22,78.015L136.63,78.015Z" style="fill:#5A9BD4" />
<path d="M141.89,83.297L139.18,78.61L144.6,78.61Z" style="fill:#5A9BD4" />
<path d="M149.86,83.297L147.15,78.61L152.56,78.61Z" style="fill:#5A9BD4" />
<path d="M157.82,83.297L155.11,78.61L160.53,78.61Z" style="fill:#5A9BD4" />
<path d="M165.79,83.297L163.08,78.61L168.49,78.61Z" style="fill:#5A9BD4" />
<path d="M173.75,83.892L171.05,79.204L176.46,79.204Z" style="fill:#5A9BD4" />
<path d="M181.72,83.892L179.01,79.204L184.43,79.204Z" style="fill:#5A9BD4" />
<path d="M189.68,84.487L186.98,79.799L192.39,79.799Z" style="fill:#5A9BD4" />
<path d="M197.65,84.487L194.94,79.799L200.36,79.799Z" style="fill:#5A9BD4" />
<path d="M205.62,84.487L202.91,79.799L208.32,79.799Z" style="fill:#5A9BD4" />
<path d="M213.58,84.487L210.88,79.799L216.29,79.799Z" style="fill:#5A9BD4" />
<path d="M221.55,85.081L218.84,80.394L224.26,80.394Z" style="fill:#5A9BD4" />
<path d="M229.51,85.081L226.81,80.394L232.22,80.394Z" style="fill:#5A9BD4" />
<path d="M237.48,85.081L234.77,80.394L240.19,80.394Z" style="fill:#5A9BD4" />
<path d="M245.45,85.081L242.74,80.394L248.15,80.394Z" style="fill:#5A9BD4" />
<path d="M253.41,85.676L250.71,80.988L256.12,80.988Z" style="fill:#5A9BD4" />
<path d="M261.38,85.676L258.67,80.988L264.08,80.988Z" style="fill:#5A9BD4" />
<path d="M269.34,86.271L266.64,81.583L272.05,81.583Z" style="fill:#5A9BD4" />
<path d="M277.31,86.271L274.6,81.583L280.02,81.583Z" style="fill:#5A9BD4" />
<path d="M285.28,86.271L282.57,81.583L287.98,81.583Z" style="fill:#5A9BD4" />
<path d="M293.24,86.271L290.54,81.583L295.95,81.583Z" style="fill:#5A9BD4" />
<path d="M301.21,86.271L298.5,81.583L303.91,81.583Z" style="fill:#5A9BD4" />
<path d="M309.17,86.271L306.47,81.583L311.88,81.583Z" style="fill:#5A9BD4" />
<path d="M317.14,86.271L314.43,81.583L319.85,81.583Z" style="fill:#5A9BD4" />
<path d="M325.11,86.865L322.4,82.178L327.81,82.178Z" style="fill:#5A9BD4" />
<path d="M333.07,86.865L330.37,82.178L335.78,82.178Z" style="fill:#5A9BD4" />
<path d="M341.04,86.865L338.33,82.178L343.74,82.178Z" style="fill:#5A9BD4" />
<path d="M349,86.865L346.3,82.178L351.71,82.178Z" style="fill:#5A9BD4" />
<path d="M356.97,86.865L354.26,82.178L359.68,82.178Z" style="fill:#5A9BD4" />
<path d="M364.94,86.865L362.23,82.178L367.64,82.178Z" style="fill:#5A9BD4" />
<path d="M372.9,86.865L370.2,82.178L375.61,82.178Z" style="fill:#5A9BD4" />
<path d="M380.87,86.865L378.16,82.178L383.57,82.178Z" style="fill:#5A9BD4" />
<path d="M388.83,86.865L386.13,82.178L391.54,82.178Z" style="fill:#5A9BD4" />
<path d="M396.8,86.865L394.09,82.178L399.51,82.178Z" style="fill:#5A9BD4" />
<path d="M404.77,86.865L402.06,82.178L407.47,82.178Z" style="fill:#5A9BD4" />
<path d="M412.73,87.46L410.03,82.772L415.44,82.772Z" style="fill:#5A9BD4" />
<path d="M420.7,87.46L417.99,82.772L423.4,82.772Z" style="fill:#5A9BD4" />
<path d="M428.66,87.46L425.96,82.772L431.37,82.772Z" style="fill:#5A9BD4" />
<path d="M436.63,87.46L433.92,82.772L439.34,82.772Z" style="fill:#5A9BD4" />
<path d="M444.6,87.46L441.89,82.772L447.3,82.772Z" style="fill:#5A9BD4" />
<path d="M452.56,87.46L449.86,82.772L455.27,82.772Z" style="fill:#5A9BD4" />
<path d="M460.53,87.46L457.82,82.772L463.23,82.772Z" style="fill:#5A9BD4" />
<path d="M468.49,88.055L465.79,83.367L471.2,83.367Z" style="fill:#5A9BD4" />
<path d="M476.46,88.055L473.75,83.367L479.17,83.367Z" style="fill:#5A9BD4" />
<path d="M484.43,88.055L481.72,83.367L487.13,83.367Z" style="fill:#5A9BD4" />
<path d="M492.39,88.055L489.69,83.367L495.1,83.367Z" style="fill:#5A9BD4" />
<path d="M500.36,88.055L497.65,83.367L503.06,83.367Z" style="fill:#5A9BD4" />
<path d="M508.32,88.055L505.62,83.367L511.03,83.367Z" style="fill:#5A9BD4" />
<path d="M516.29,88.055L513.58,83.367L519,83.367Z" style="fill:#5A9BD4" />
<path d="M524.26,88.055L521.55,83.367L526.96,83.367Z" style="fill:#5A9BD4" />
<path d="M532.22,88.055L529.51,83.367L534.93,83.367Z" style="fill:#5A9BD4" />
<path d="M540.19,88.055L537.48,83.367L542.89,83.367Z" style="fill:#5A9BD4" />
<path d="M548.15,88.055L545.45,83.367L550.86,83.367Z" style="fill:#5A9BD4" />
<path d="M556.12,88.649L553.41,83.962L558.83,83.962Z" style="fill:#5A9BD4" />
<path d="M564.09,88.649L561.38,83.962L566.79,83.962Z" style="fill:#5A9BD4" />
<path d="M572.05,88.649L569.34,83.962L574.76,83.962Z" style="fill:#5A9BD4" />
<path d="M580.02,88.649L577.31,83.962L582.72,83.962Z" style="fill:#5A9BD4" />
<path d="M587.98,88.649L585.28,83.962L590.69,83.962Z" style="fill:#5A9BD4" />
<path d="M595.95,88.649L593.24,83.962L598.66,83.962Z" style="fill:#5A9BD4" />
<path d="M603.91,88.649L601.21,83.962L606.62,83.962Z" style="fill:#5A9BD4" />
<path d="M611.88,88.649L609.17,83.962L614.59,83.962Z" style="fill:#5A9BD4" />
<path d="M619.85,88.649L617.14,83.962L622.55,83.962Z" style="fill:#5A9BD4" />
<path d="M627.81,88.649L625.11,83.962L630.52,83.962Z" style="fill:#5A9BD4" />
<path d="M635.78,88.649L633.07,83.962L638.49,83.962Z" style="fill:#5A9BD4" />
<path d="M643.74,88.649L641.04,83.962L646.45,83.962Z" style="fill:#5A9BD4" />
<path d="M651.71,89.244L649,84.556L654.42,84.556Z" style="fill:#5A9BD4" />
<path d="M659.68,89.244L656.97,84.556L662.38,84.556Z" style="fill:#5A9BD4" />
<path d="M667.64,89.244L664.94,84.556L670.35,84.556Z" style="fill:#5A9BD4" />
<path d="M675.61,89.244L672.9,84.556L678.31,84.556Z" style="fill:#5A9BD4" />
<path d="M683.57,89.244L680.87,84.556L686.28,84.556Z" style="fill:#5A9BD4" />
<path d="M691.54,89.244L688.83,84.556L694.25,84.556Z" style="fill:#5A9BD4" />
<path d="M699.51,89.839L696.8,85.151L702.21,85.151Z" style="fill:#5A9BD4" />
<path d="M707.47,89.839L704.77,85.151L710.18,85.151Z" style="fill:#5A9BD4" />
<path d="M715.44,89.839L712.73,85.151L718.14,85.151Z" style="fill:#5A9BD4" />
<path d="M723.4,90.433L720.7,85.746L726.11,85.746Z" style="fill:#5A9BD4" />
<path d="M731.37,91.028L728.66,86.34L734.08,86.34Z" style="fill:#5A9BD4" />
<path d="M739.34,91.028L736.63,86.34L742.04,86.34Z" style="fill:#5A9BD4" />
<path d="M747.3,91.028L744.6,86.34L750.01,86.34Z" style="fill:#5A9BD4" />
<path d="M755.27,91.623L752.56,86.935L757.97,86.935Z" style="fill:#5A9BD4" />
<path d="M763.23,91.623L760.53,86.935L765.94,86.935Z" style="fill:#5A9BD4" />
<path d="M771.2,92.812L768.49,88.124L773.91,88.124Z" style="fill:#5A9BD4" />
<path d="M779.17,92.812L776.46,88.124L781.87,88.124Z" style="fill:#5A9BD4" />
<path d="M787.13,94.001L784.43,89.314L789.84,89.314Z" style="fill:#5A9BD4" />
<path d="M795.1,96.38L792.39,91.692L797.8,91.692Z" style="fill:#5A9BD4" />
<path d="M803.06,96.974L800.36,92.287L805.77,92.287Z" style="fill:#5A9BD4" />
<path d="M811.03,99.948L808.32,95.26L813.74,95.26Z" style="fill:#5A9BD4" />
<path d="M819,100.54L816.29,95.855L821.7,95.855Z" style="fill:#5A9BD4" />
<path d="M826.96,104.11L824.26,99.423L829.67,99.423Z" style="fill:#5A9BD4" />
<path d="M834.93,107.68L832.22,102.99L837.63,102.99Z" style="fill:#5A9BD4" />
<path d="M842.89,554.27L840.19,549.58L845.6,549.58Z" style="fill:#5A9BD4" />
<path d="M830.39,45.301L850.39,45.301" style="fill:none;stroke:#5A9BD4" />
<path d="M840.39,48.426L837.69,43.738L843.1,43.738Z" style="fill:#5A9BD4" />
<text x="763.42" y="-42.813" transform="scale(1, -1)"
	style="font-family:Liberation Serif;font-variant:normal;font-weight:normal;font-style:normal;font-size:12px">to-fronted-up</text>
</g>
</svg>
