<?xml version="1.0"?>
<!-- Generated by SVGo and Plotinum VG -->
<svg width="850.39pt" height="566.93pt" viewBox="0 0 850.39 566.93"
	xmlns="http://www.w3.org/2000/svg"
	xmlns:xlink="http://www.w3.org/1999/xlink">
<g transform="scale(1, -1) translate(0, -566.93)">
<path d="M0,0L850.39,0L850.39,566.93L0,566.93Z" style="fill:#FFFFFF" />
<text x="255.55" y="-557.54" transform="scale(1, -1)"
	style="font-family:Liberation Serif;font-variant:normal;font-weight:normal;font-style:normal;font-size:12px">Percentiles - Main (Nearest Rank): regular-localhost-zeroload-400Kdb</text>
<text x="424.78" y="-3.9023" transform="scale(1, -1)"
	style="font-family:Liberation Serif;font-variant:normal;font-weight:normal;font-style:normal;font-size:12px">Percentile</text>
<text x="200.92" y="-16.541" transform="scale(1, -1)"
	style="font-family:Liberation Serif;font-variant:normal;font-weight:normal;font-style:normal;font-size:10px">20</text>
<text x="519.41" y="-16.541" transform="scale(1, -1)"
	style="font-family:Liberation Serif;font-variant:normal;font-weight:normal;font-style:normal;font-size:10px">60</text>
<text x="835.39" y="-16.541" transform="scale(1, -1)"
	style="font-family:Liberation Serif;font-variant:normal;font-weight:normal;font-style:normal;font-size:10px">100</text>
<path d="M205.92,24.363L205.92,32.363" style="fill:none;stroke:#000000;stroke-width:0.5" />
<path d="M524.41,24.363L524.41,32.363" style="fill:none;stroke:#000000;stroke-width:0.5" />
<path d="M842.89,24.363L842.89,32.363" style="fill:none;stroke:#000000;stroke-width:0.5" />
<path d="M126.29,28.363L126.29,32.363" style="fill:none;stroke:#000000;stroke-width:0.5" />
<path d="M285.54,28.363L285.54,32.363" style="fill:none;stroke:#000000;stroke-width:0.5" />
<path d="M365.16,28.363L365.16,32.363" style="fill:none;stroke:#000000;stroke-width:0.5" />
<path d="M444.78,28.363L444.78,32.363" style="fill:none;stroke:#000000;stroke-width:0.5" />
<path d="M604.03,28.363L604.03,32.363" style="fill:none;stroke:#000000;stroke-width:0.5" />
<path d="M683.65,28.363L683.65,32.363" style="fill:none;stroke:#000000;stroke-width:0.5" />
<path d="M763.27,28.363L763.27,32.363" style="fill:none;stroke:#000000;stroke-width:0.5" />
<path d="M54.635,32.363L842.89,32.363" style="fill:none;stroke:#000000;stroke-width:0.5" />
<g transform="rotate(90)">
<text x="265.43" y="9.3867" transform="scale(1, -1)"
	style="font-family:Liberation Serif;font-variant:normal;font-weight:normal;font-style:normal;font-size:12px">Duration: ms</text>
</g>
<text x="20.885" y="-130.02" transform="scale(1, -1)"
	style="font-family:Liberation Serif;font-variant:normal;font-weight:normal;font-style:normal;font-size:10px">400</text>
<text x="15.885" y="-324.26" transform="scale(1, -1)"
	style="font-family:Liberation Serif;font-variant:normal;font-weight:normal;font-style:normal;font-size:10px">1200</text>
<text x="15.885" y="-518.5" transform="scale(1, -1)"
	style="font-family:Liberation Serif;font-variant:normal;font-weight:normal;font-style:normal;font-size:10px">2000</text>
<path d="M38.385,132.3L46.385,132.3" style="fill:none;stroke:#000000;stroke-width:0.5" />
<path d="M38.385,326.55L46.385,326.55" style="fill:none;stroke:#000000;stroke-width:0.5" />
<path d="M38.385,520.79L46.385,520.79" style="fill:none;stroke:#000000;stroke-width:0.5" />
<path d="M42.385,229.43L46.385,229.43" style="fill:none;stroke:#000000;stroke-width:0.5" />
<path d="M42.385,423.67L46.385,423.67" style="fill:none;stroke:#000000;stroke-width:0.5" />
<path d="M46.385,42.709L46.385,551.14" style="fill:none;stroke:#000000;stroke-width:0.5" />
<path d="M205.92,42.709L205.92,551.14" style="fill:none;stroke:#808080;stroke-width:0.25" />
<path d="M524.41,42.709L524.41,551.14" style="fill:none;stroke:#808080;stroke-width:0.25" />
<path d="M842.89,42.709L842.89,551.14" style="fill:none;stroke:#808080;stroke-width:0.25" />
<path d="M54.635,132.3L842.89,132.3" style="fill:none;stroke:#808080;stroke-width:0.25" />
<path d="M54.635,326.55L842.89,326.55" style="fill:none;stroke:#808080;stroke-width:0.25" />
<path d="M54.635,520.79L842.89,520.79" style="fill:none;stroke:#808080;stroke-width:0.25" />
<path d="M54.635,42.709L62.597,43.195L70.559,43.195L78.521,43.195L86.484,43.437L94.446,43.437L102.41,43.437L110.37,43.437L118.33,43.437L126.29,43.437L134.26,43.68L142.22,43.68L150.18,43.68L158.14,43.68L166.11,43.68L174.07,43.68L182.03,43.68L189.99,43.68L197.95,43.923L205.92,43.923L213.88,43.923L221.84,43.923L229.8,43.923L237.77,43.923L245.73,43.923L253.69,43.923L261.65,43.923L269.61,43.923L277.58,43.923L285.54,43.923L293.5,43.923L301.46,43.923L309.43,43.923L317.39,44.166L325.35,44.166L333.31,44.166L341.27,44.166L349.24,44.166L357.2,44.409L365.16,44.409L373.12,44.409L381.09,44.409L389.05,44.409L397.01,44.409L404.97,44.651L412.93,44.651L420.9,44.651L428.86,44.651L436.82,44.651L444.78,44.651L452.75,44.651L460.71,44.894L468.67,44.894L476.63,44.894L484.59,44.894L492.56,44.894L500.52,44.894L508.48,45.137L516.44,45.137L524.41,45.137L532.37,45.137L540.33,45.137L548.29,45.137L556.25,45.137L564.22,45.137L572.18,45.137L580.14,45.137L588.1,45.38L596.07,45.38L604.03,45.38L611.99,45.38L619.95,45.38L627.91,45.38L635.88,45.623L643.84,45.623L651.8,45.865L659.76,45.865L667.73,46.108L675.69,46.351L683.65,46.351L691.61,46.351L699.57,46.351L707.54,46.351L715.5,46.594L723.46,46.837L731.42,46.837L739.38,47.079L747.35,47.079L755.31,47.322L763.27,47.322L771.23,47.322L779.2,47.808L787.16,48.536L795.12,50.479L803.08,52.907L811.04,54.364L819.01,56.063L826.97,56.306L834.93,57.52L842.89,551.14" style="fill:none;stroke:#F15A60" />
<path d="M54.635,45.834L51.928,41.146L57.341,41.146Z" style="fill:#F15A60" />
<path d="M62.597,46.32L59.891,41.632L65.303,41.632Z" style="fill:#F15A60" />
<path d="M70.559,46.32L67.853,41.632L73.266,41.632Z" style="fill:#F15A60" />
<path d="M78.521,46.32L75.815,41.632L81.228,41.632Z" style="fill:#F15A60" />
<path d="M86.484,46.562L83.777,41.875L89.19,41.875Z" style="fill:#F15A60" />
<path d="M94.446,46.562L91.739,41.875L97.152,41.875Z" style="fill:#F15A60" />
<path d="M102.41,46.562L99.702,41.875L105.11,41.875Z" style="fill:#F15A60" />
<path d="M110.37,46.562L107.66,41.875L113.08,41.875Z" style="fill:#F15A60" />
<path d="M118.33,46.562L115.63,41.875L121.04,41.875Z" style="fill:#F15A60" />
<path d="M126.29,46.562L123.59,41.875L129,41.875Z" style="fill:#F15A60" />
<path d="M134.26,46.805L131.55,42.118L136.96,42.118Z" style="fill:#F15A60" />
<path d="M142.22,46.805L139.51,42.118L144.93,42.118Z" style="fill:#F15A60" />
<path d="M150.18,46.805L147.47,42.118L152.89,42.118Z" style="fill:#F15A60" />
<path d="M158.14,46.805L155.44,42.118L160.85,42.118Z" style="fill:#F15A60" />
<path d="M166.11,46.805L163.4,42.118L168.81,42.118Z" style="fill:#F15A60" />
<path d="M174.07,46.805L171.36,42.118L176.77,42.118Z" style="fill:#F15A60" />
<path d="M182.03,46.805L179.32,42.118L184.74,42.118Z" style="fill:#F15A60" />
<path d="M189.99,46.805L187.29,42.118L192.7,42.118Z" style="fill:#F15A60" />
<path d="M197.95,47.048L195.25,42.361L200.66,42.361Z" style="fill:#F15A60" />
<path d="M205.92,47.048L203.21,42.361L208.62,42.361Z" style="fill:#F15A60" />
<path d="M213.88,47.048L211.17,42.361L216.59,42.361Z" style="fill:#F15A60" />
<path d="M221.84,47.048L219.13,42.361L224.55,42.361Z" style="fill:#F15A60" />
<path d="M229.8,47.048L227.1,42.361L232.51,42.361Z" style="fill:#F15A60" />
<path d="M237.77,47.048L235.06,42.361L240.47,42.361Z" style="fill:#F15A60" />
<path d="M245.73,47.048L243.02,42.361L248.43,42.361Z" style="fill:#F15A60" />
<path d="M253.69,47.048L250.98,42.361L256.4,42.361Z" style="fill:#F15A60" />
<path d="M261.65,47.048L258.95,42.361L264.36,42.361Z" style="fill:#F15A60" />
<path d="M269.61,47.048L266.91,42.361L272.32,42.361Z" style="fill:#F15A60" />
<path d="M277.58,47.048L274.87,42.361L280.28,42.361Z" style="fill:#F15A60" />
<path d="M285.54,47.048L282.83,42.361L288.25,42.361Z" style="fill:#F15A60" />
<path d="M293.5,47.048L290.79,42.361L296.21,42.361Z" style="fill:#F15A60" />
<path d="M301.46,47.048L298.76,42.361L304.17,42.361Z" style="fill:#F15A60" />
<path d="M309.43,47.048L306.72,42.361L312.13,42.361Z" style="fill:#F15A60" />
<path d="M317.39,47.291L314.68,42.603L320.09,42.603Z" style="fill:#F15A60" />
<path d="M325.35,47.291L322.64,42.603L328.06,42.603Z" style="fill:#F15A60" />
<path d="M333.31,47.291L330.61,42.603L336.02,42.603Z" style="fill:#F15A60" />
<path d="M341.27,47.291L338.57,42.603L343.98,42.603Z" style="fill:#F15A60" />
<path d="M349.24,47.291L346.53,42.603L351.94,42.603Z" style="fill:#F15A60" />
<path d="M357.2,47.534L354.49,42.846L359.91,42.846Z" style="fill:#F15A60" />
<path d="M365.16,47.534L362.45,42.846L367.87,42.846Z" style="fill:#F15A60" />
<path d="M373.12,47.534L370.42,42.846L375.83,42.846Z" style="fill:#F15A60" />
<path d="M381.09,47.534L378.38,42.846L383.79,42.846Z" style="fill:#F15A60" />
<path d="M389.05,47.534L386.34,42.846L391.75,42.846Z" style="fill:#F15A60" />
<path d="M397.01,47.534L394.3,42.846L399.72,42.846Z" style="fill:#F15A60" />
<path d="M404.97,47.776L402.27,43.089L407.68,43.089Z" style="fill:#F15A60" />
<path d="M412.93,47.776L410.23,43.089L415.64,43.089Z" style="fill:#F15A60" />
<path d="M420.9,47.776L418.19,43.089L423.6,43.089Z" style="fill:#F15A60" />
<path d="M428.86,47.776L426.15,43.089L431.57,43.089Z" style="fill:#F15A60" />
<path d="M436.82,47.776L434.11,43.089L439.53,43.089Z" style="fill:#F15A60" />
<path d="M444.78,47.776L442.08,43.089L447.49,43.089Z" style="fill:#F15A60" />
<path d="M452.75,47.776L450.04,43.089L455.45,43.089Z" style="fill:#F15A60" />
<path d="M460.71,48.019L458,43.332L463.41,43.332Z" style="fill:#F15A60" />
<path d="M468.67,48.019L465.96,43.332L471.38,43.332Z" style="fill:#F15A60" />
<path d="M476.63,48.019L473.93,43.332L479.34,43.332Z" style="fill:#F15A60" />
<path d="M484.59,48.019L481.89,43.332L487.3,43.332Z" style="fill:#F15A60" />
<path d="M492.56,48.019L489.85,43.332L495.26,43.332Z" style="fill:#F15A60" />
<path d="M500.52,48.019L497.81,43.332L503.22,43.332Z" style="fill:#F15A60" />
<path d="M508.48,48.262L505.77,43.575L511.19,43.575Z" style="fill:#F15A60" />
<path d="M516.44,48.262L513.74,43.575L519.15,43.575Z" style="fill:#F15A60" />
<path d="M524.41,48.262L521.7,43.575L527.11,43.575Z" style="fill:#F15A60" />
<path d="M532.37,48.262L529.66,43.575L535.07,43.575Z" style="fill:#F15A60" />
<path d="M540.33,48.262L537.62,43.575L543.04,43.575Z" style="fill:#F15A60" />
<path d="M548.29,48.262L545.59,43.575L551,43.575Z" style="fill:#F15A60" />
<path d="M556.25,48.262L553.55,43.575L558.96,43.575Z" style="fill:#F15A60" />
<path d="M564.22,48.262L561.51,43.575L566.92,43.575Z" style="fill:#F15A60" />
<path d="M572.18,48.262L569.47,43.575L574.88,43.575Z" style="fill:#F15A60" />
<path d="M580.14,48.262L577.43,43.575L582.85,43.575Z" style="fill:#F15A60" />
<path d="M588.1,48.505L585.4,43.817L590.81,43.817Z" style="fill:#F15A60" />
<path d="M596.07,48.505L593.36,43.817L598.77,43.817Z" style="fill:#F15A60" />
<path d="M604.03,48.505L601.32,43.817L606.73,43.817Z" style="fill:#F15A60" />
<path d="M611.99,48.505L609.28,43.817L614.7,43.817Z" style="fill:#F15A60" />
<path d="M619.95,48.505L617.25,43.817L622.66,43.817Z" style="fill:#F15A60" />
<path d="M627.91,48.505L625.21,43.817L630.62,43.817Z" style="fill:#F15A60" />
<path d="M635.88,48.748L633.17,44.06L638.58,44.06Z" style="fill:#F15A60" />
<path d="M643.84,48.748L641.13,44.06L646.54,44.06Z" style="fill:#F15A60" />
<path d="M651.8,48.99L649.09,44.303L654.51,44.303Z" style="fill:#F15A60" />
<path d="M659.76,48.99L657.06,44.303L662.47,44.303Z" style="fill:#F15A60" />
<path d="M667.73,49.233L665.02,44.546L670.43,44.546Z" style="fill:#F15A60" />
<path d="M675.69,49.476L672.98,44.789L678.39,44.789Z" style="fill:#F15A60" />
<path d="M683.65,49.476L680.94,44.789L686.36,44.789Z" style="fill:#F15A60" />
<path d="M691.61,49.476L688.91,44.789L694.32,44.789Z" style="fill:#F15A60" />
<path d="M699.57,49.476L696.87,44.789L702.28,44.789Z" style="fill:#F15A60" />
<path d="M707.54,49.476L704.83,44.789L710.24,44.789Z" style="fill:#F15A60" />
<path d="M715.5,49.719L712.79,45.031L718.2,45.031Z" style="fill:#F15A60" />
<path d="M723.46,49.962L720.75,45.274L726.17,45.274Z" style="fill:#F15A60" />
<path d="M731.42,49.962L728.72,45.274L734.13,45.274Z" style="fill:#F15A60" />
<path d="M739.38,50.204L736.68,45.517L742.09,45.517Z" style="fill:#F15A60" />
<path d="M747.35,50.204L744.64,45.517L750.05,45.517Z" style="fill:#F15A60" />
<path d="M755.31,50.447L752.6,45.76L758.02,45.76Z" style="fill:#F15A60" />
<path d="M763.27,50.447L760.57,45.76L765.98,45.76Z" style="fill:#F15A60" />
<path d="M771.23,50.447L768.53,45.76L773.94,45.76Z" style="fill:#F15A60" />
<path d="M779.2,50.933L776.49,46.245L781.9,46.245Z" style="fill:#F15A60" />
<path d="M787.16,51.661L784.45,46.974L789.86,46.974Z" style="fill:#F15A60" />
<path d="M795.12,53.604L792.41,48.916L797.83,48.916Z" style="fill:#F15A60" />
<path d="M803.08,56.032L800.38,51.344L805.79,51.344Z" style="fill:#F15A60" />
<path d="M811.04,57.489L808.34,52.801L813.75,52.801Z" style="fill:#F15A60" />
<path d="M819.01,59.188L816.3,54.501L821.71,54.501Z" style="fill:#F15A60" />
<path d="M826.97,59.431L824.26,54.743L829.68,54.743Z" style="fill:#F15A60" />
<path d="M834.93,60.645L832.23,55.958L837.64,55.958Z" style="fill:#F15A60" />
<path d="M842.89,554.27L840.19,549.58L845.6,549.58Z" style="fill:#F15A60" />
<path d="M830.39,45.301L850.39,45.301" style="fill:none;stroke:#F15A60" />
<path d="M840.39,48.426L837.69,43.738L843.1,43.738Z" style="fill:#F15A60" />
<text x="790.07" y="-42.813" transform="scale(1, -1)"
	style="font-family:Liberation Serif;font-variant:normal;font-weight:normal;font-style:normal;font-size:12px">to-main</text>
</g>
</svg>
