<?xml version="1.0"?>
<!-- Generated by SVGo and Plotinum VG -->
<svg width="850.39pt" height="566.93pt" viewBox="0 0 850.39 566.93"
	xmlns="http://www.w3.org/2000/svg"
	xmlns:xlink="http://www.w3.org/1999/xlink">
<g transform="scale(1, -1) translate(0, -566.93)">
<path d="M0,0L850.39,0L850.39,566.93L0,566.93Z" style="fill:#FFFFFF" />
<text x="208.56" y="-557.54" transform="scale(1, -1)"
	style="font-family:Liberation Serif;font-variant:normal;font-weight:normal;font-style:normal;font-size:12px">Percentiles - FrontEndUp-Main-Delta (Nearest Rank): regular-localhost-zeroload-400Kdb</text>
<text x="422.28" y="-3.9023" transform="scale(1, -1)"
	style="font-family:Liberation Serif;font-variant:normal;font-weight:normal;font-style:normal;font-size:12px">Percentile</text>
<text x="196.88" y="-16.541" transform="scale(1, -1)"
	style="font-family:Liberation Serif;font-variant:normal;font-weight:normal;font-style:normal;font-size:10px">20</text>
<text x="517.39" y="-16.541" transform="scale(1, -1)"
	style="font-family:Liberation Serif;font-variant:normal;font-weight:normal;font-style:normal;font-size:10px">60</text>
<text x="835.39" y="-16.541" transform="scale(1, -1)"
	style="font-family:Liberation Serif;font-variant:normal;font-weight:normal;font-style:normal;font-size:10px">100</text>
<path d="M201.88,24.363L201.88,32.363" style="fill:none;stroke:#000000;stroke-width:0.5" />
<path d="M522.39,24.363L522.39,32.363" style="fill:none;stroke:#000000;stroke-width:0.5" />
<path d="M842.89,24.363L842.89,32.363" style="fill:none;stroke:#000000;stroke-width:0.5" />
<path d="M121.75,28.363L121.75,32.363" style="fill:none;stroke:#000000;stroke-width:0.5" />
<path d="M282,28.363L282,32.363" style="fill:none;stroke:#000000;stroke-width:0.5" />
<path d="M362.13,28.363L362.13,32.363" style="fill:none;stroke:#000000;stroke-width:0.5" />
<path d="M442.26,28.363L442.26,32.363" style="fill:none;stroke:#000000;stroke-width:0.5" />
<path d="M602.51,28.363L602.51,32.363" style="fill:none;stroke:#000000;stroke-width:0.5" />
<path d="M682.64,28.363L682.64,32.363" style="fill:none;stroke:#000000;stroke-width:0.5" />
<path d="M762.77,28.363L762.77,32.363" style="fill:none;stroke:#000000;stroke-width:0.5" />
<path d="M49.635,32.363L842.89,32.363" style="fill:none;stroke:#000000;stroke-width:0.5" />
<g transform="rotate(90)">
<text x="265.43" y="9.3867" transform="scale(1, -1)"
	style="font-family:Liberation Serif;font-variant:normal;font-weight:normal;font-style:normal;font-size:12px">Duration: ms</text>
</g>
<text x="15.885" y="-40.424" transform="scale(1, -1)"
	style="font-family:Liberation Serif;font-variant:normal;font-weight:normal;font-style:normal;font-size:10px">160</text>
<text x="15.885" y="-266.39" transform="scale(1, -1)"
	style="font-family:Liberation Serif;font-variant:normal;font-weight:normal;font-style:normal;font-size:10px">240</text>
<text x="15.885" y="-492.36" transform="scale(1, -1)"
	style="font-family:Liberation Serif;font-variant:normal;font-weight:normal;font-style:normal;font-size:10px">320</text>
<path d="M33.385,42.709L41.385,42.709" style="fill:none;stroke:#000000;stroke-width:0.5" />
<path d="M33.385,268.68L41.385,268.68" style="fill:none;stroke:#000000;stroke-width:0.5" />
<path d="M33.385,494.65L41.385,494.65" style="fill:none;stroke:#000000;stroke-width:0.5" />
<path d="M37.385,155.69L41.385,155.69" style="fill:none;stroke:#000000;stroke-width:0.5" />
<path d="M37.385,381.66L41.385,381.66" style="fill:none;stroke:#000000;stroke-width:0.5" />
<path d="M41.385,42.709L41.385,551.14" style="fill:none;stroke:#000000;stroke-width:0.5" />
<path d="M201.88,42.709L201.88,551.14" style="fill:none;stroke:#808080;stroke-width:0.25" />
<path d="M522.39,42.709L522.39,551.14" style="fill:none;stroke:#808080;stroke-width:0.25" />
<path d="M842.89,42.709L842.89,551.14" style="fill:none;stroke:#808080;stroke-width:0.25" />
<path d="M49.635,42.709L842.89,42.709" style="fill:none;stroke:#808080;stroke-width:0.25" />
<path d="M49.635,268.68L842.89,268.68" style="fill:none;stroke:#808080;stroke-width:0.25" />
<path d="M49.635,494.65L842.89,494.65" style="fill:none;stroke:#808080;stroke-width:0.25" />
<path d="M49.635,42.709L57.647,45.534L65.66,48.358L73.673,48.358L81.686,48.358L89.698,48.358L97.711,48.358L105.72,48.358L113.74,48.358L121.75,48.358L129.76,48.358L137.77,48.358L145.79,51.183L153.8,51.183L161.81,51.183L169.83,51.183L177.84,54.007L185.85,54.007L193.86,54.007L201.88,54.007L209.89,54.007L217.9,54.007L225.91,54.007L233.93,54.007L241.94,54.007L249.95,54.007L257.97,54.007L265.98,54.007L273.99,56.832L282,56.832L290.02,56.832L298.03,56.832L306.04,56.832L314.05,56.832L322.07,56.832L330.08,56.832L338.09,56.832L346.11,59.657L354.12,59.657L362.13,59.657L370.14,59.657L378.16,59.657L386.17,59.657L394.18,59.657L402.19,59.657L410.21,59.657L418.22,59.657L426.23,59.657L434.25,62.481L442.26,62.481L450.27,62.481L458.28,62.481L466.3,62.481L474.31,62.481L482.32,62.481L490.33,62.481L498.35,65.306L506.36,65.306L514.37,65.306L522.39,65.306L530.4,65.306L538.41,65.306L546.42,65.306L554.44,65.306L562.45,65.306L570.46,68.131L578.47,68.131L586.49,68.131L594.5,68.131L602.51,68.131L610.52,68.131L618.54,68.131L626.55,70.955L634.56,70.955L642.58,70.955L650.59,70.955L658.6,73.78L666.61,73.78L674.63,73.78L682.64,73.78L690.65,76.604L698.66,79.429L706.68,79.429L714.69,82.254L722.7,82.254L730.72,90.727L738.73,110.5L746.74,110.5L754.75,110.5L762.77,138.75L770.78,164.17L778.79,223.48L786.8,231.96L794.82,234.78L802.83,240.43L810.84,285.63L818.86,359.07L826.87,435.33L834.88,520.07L842.89,551.14" style="fill:none;stroke:#5A9BD4" />
<path d="M49.635,45.834L46.928,41.146L52.341,41.146Z" style="fill:#5A9BD4" />
<path d="M57.647,48.659L54.941,43.971L60.354,43.971Z" style="fill:#5A9BD4" />
<path d="M65.66,51.483L62.954,46.796L68.367,46.796Z" style="fill:#5A9BD4" />
<path d="M73.673,51.483L70.967,46.796L76.379,46.796Z" style="fill:#5A9BD4" />
<path d="M81.686,51.483L78.979,46.796L84.392,46.796Z" style="fill:#5A9BD4" />
<path d="M89.698,51.483L86.992,46.796L92.405,46.796Z" style="fill:#5A9BD4" />
<path d="M97.711,51.483L95.005,46.796L100.42,46.796Z" style="fill:#5A9BD4" />
<path d="M105.72,51.483L103.02,46.796L108.43,46.796Z" style="fill:#5A9BD4" />
<path d="M113.74,51.483L111.03,46.796L116.44,46.796Z" style="fill:#5A9BD4" />
<path d="M121.75,51.483L119.04,46.796L124.46,46.796Z" style="fill:#5A9BD4" />
<path d="M129.76,51.483L127.06,46.796L132.47,46.796Z" style="fill:#5A9BD4" />
<path d="M137.77,51.483L135.07,46.796L140.48,46.796Z" style="fill:#5A9BD4" />
<path d="M145.79,54.308L143.08,49.62L148.49,49.62Z" style="fill:#5A9BD4" />
<path d="M153.8,54.308L151.09,49.62L156.51,49.62Z" style="fill:#5A9BD4" />
<path d="M161.81,54.308L159.11,49.62L164.52,49.62Z" style="fill:#5A9BD4" />
<path d="M169.83,54.308L167.12,49.62L172.53,49.62Z" style="fill:#5A9BD4" />
<path d="M177.84,57.132L175.13,52.445L180.54,52.445Z" style="fill:#5A9BD4" />
<path d="M185.85,57.132L183.14,52.445L188.56,52.445Z" style="fill:#5A9BD4" />
<path d="M193.86,57.132L191.16,52.445L196.57,52.445Z" style="fill:#5A9BD4" />
<path d="M201.88,57.132L199.17,52.445L204.58,52.445Z" style="fill:#5A9BD4" />
<path d="M209.89,57.132L207.18,52.445L212.6,52.445Z" style="fill:#5A9BD4" />
<path d="M217.9,57.132L215.2,52.445L220.61,52.445Z" style="fill:#5A9BD4" />
<path d="M225.91,57.132L223.21,52.445L228.62,52.445Z" style="fill:#5A9BD4" />
<path d="M233.93,57.132L231.22,52.445L236.63,52.445Z" style="fill:#5A9BD4" />
<path d="M241.94,57.132L239.23,52.445L244.65,52.445Z" style="fill:#5A9BD4" />
<path d="M249.95,57.132L247.25,52.445L252.66,52.445Z" style="fill:#5A9BD4" />
<path d="M257.97,57.132L255.26,52.445L260.67,52.445Z" style="fill:#5A9BD4" />
<path d="M265.98,57.132L263.27,52.445L268.68,52.445Z" style="fill:#5A9BD4" />
<path d="M273.99,59.957L271.28,55.27L276.7,55.27Z" style="fill:#5A9BD4" />
<path d="M282,59.957L279.3,55.27L284.71,55.27Z" style="fill:#5A9BD4" />
<path d="M290.02,59.957L287.31,55.27L292.72,55.27Z" style="fill:#5A9BD4" />
<path d="M298.03,59.957L295.32,55.27L300.74,55.27Z" style="fill:#5A9BD4" />
<path d="M306.04,59.957L303.34,55.27L308.75,55.27Z" style="fill:#5A9BD4" />
<path d="M314.05,59.957L311.35,55.27L316.76,55.27Z" style="fill:#5A9BD4" />
<path d="M322.07,59.957L319.36,55.27L324.77,55.27Z" style="fill:#5A9BD4" />
<path d="M330.08,59.957L327.37,55.27L332.79,55.27Z" style="fill:#5A9BD4" />
<path d="M338.09,59.957L335.39,55.27L340.8,55.27Z" style="fill:#5A9BD4" />
<path d="M346.11,62.782L343.4,58.094L348.81,58.094Z" style="fill:#5A9BD4" />
<path d="M354.12,62.782L351.41,58.094L356.82,58.094Z" style="fill:#5A9BD4" />
<path d="M362.13,62.782L359.42,58.094L364.84,58.094Z" style="fill:#5A9BD4" />
<path d="M370.14,62.782L367.44,58.094L372.85,58.094Z" style="fill:#5A9BD4" />
<path d="M378.16,62.782L375.45,58.094L380.86,58.094Z" style="fill:#5A9BD4" />
<path d="M386.17,62.782L383.46,58.094L388.88,58.094Z" style="fill:#5A9BD4" />
<path d="M394.18,62.782L391.48,58.094L396.89,58.094Z" style="fill:#5A9BD4" />
<path d="M402.19,62.782L399.49,58.094L404.9,58.094Z" style="fill:#5A9BD4" />
<path d="M410.21,62.782L407.5,58.094L412.91,58.094Z" style="fill:#5A9BD4" />
<path d="M418.22,62.782L415.51,58.094L420.93,58.094Z" style="fill:#5A9BD4" />
<path d="M426.23,62.782L423.53,58.094L428.94,58.094Z" style="fill:#5A9BD4" />
<path d="M434.25,65.606L431.54,60.919L436.95,60.919Z" style="fill:#5A9BD4" />
<path d="M442.26,65.606L439.55,60.919L444.96,60.919Z" style="fill:#5A9BD4" />
<path d="M450.27,65.606L447.56,60.919L452.98,60.919Z" style="fill:#5A9BD4" />
<path d="M458.28,65.606L455.58,60.919L460.99,60.919Z" style="fill:#5A9BD4" />
<path d="M466.3,65.606L463.59,60.919L469,60.919Z" style="fill:#5A9BD4" />
<path d="M474.31,65.606L471.6,60.919L477.02,60.919Z" style="fill:#5A9BD4" />
<path d="M482.32,65.606L479.62,60.919L485.03,60.919Z" style="fill:#5A9BD4" />
<path d="M490.33,65.606L487.63,60.919L493.04,60.919Z" style="fill:#5A9BD4" />
<path d="M498.35,68.431L495.64,63.743L501.05,63.743Z" style="fill:#5A9BD4" />
<path d="M506.36,68.431L503.65,63.743L509.07,63.743Z" style="fill:#5A9BD4" />
<path d="M514.37,68.431L511.67,63.743L517.08,63.743Z" style="fill:#5A9BD4" />
<path d="M522.39,68.431L519.68,63.743L525.09,63.743Z" style="fill:#5A9BD4" />
<path d="M530.4,68.431L527.69,63.743L533.1,63.743Z" style="fill:#5A9BD4" />
<path d="M538.41,68.431L535.7,63.743L541.12,63.743Z" style="fill:#5A9BD4" />
<path d="M546.42,68.431L543.72,63.743L549.13,63.743Z" style="fill:#5A9BD4" />
<path d="M554.44,68.431L551.73,63.743L557.14,63.743Z" style="fill:#5A9BD4" />
<path d="M562.45,68.431L559.74,63.743L565.15,63.743Z" style="fill:#5A9BD4" />
<path d="M570.46,71.256L567.76,66.568L573.17,66.568Z" style="fill:#5A9BD4" />
<path d="M578.47,71.256L575.77,66.568L581.18,66.568Z" style="fill:#5A9BD4" />
<path d="M586.49,71.256L583.78,66.568L589.19,66.568Z" style="fill:#5A9BD4" />
<path d="M594.5,71.256L591.79,66.568L597.21,66.568Z" style="fill:#5A9BD4" />
<path d="M602.51,71.256L599.81,66.568L605.22,66.568Z" style="fill:#5A9BD4" />
<path d="M610.52,71.256L607.82,66.568L613.23,66.568Z" style="fill:#5A9BD4" />
<path d="M618.54,71.256L615.83,66.568L621.24,66.568Z" style="fill:#5A9BD4" />
<path d="M626.55,74.08L623.84,69.393L629.26,69.393Z" style="fill:#5A9BD4" />
<path d="M634.56,74.08L631.86,69.393L637.27,69.393Z" style="fill:#5A9BD4" />
<path d="M642.58,74.08L639.87,69.393L645.28,69.393Z" style="fill:#5A9BD4" />
<path d="M650.59,74.08L647.88,69.393L653.29,69.393Z" style="fill:#5A9BD4" />
<path d="M658.6,76.905L655.89,72.217L661.31,72.217Z" style="fill:#5A9BD4" />
<path d="M666.61,76.905L663.91,72.217L669.32,72.217Z" style="fill:#5A9BD4" />
<path d="M674.63,76.905L671.92,72.217L677.33,72.217Z" style="fill:#5A9BD4" />
<path d="M682.64,76.905L679.93,72.217L685.35,72.217Z" style="fill:#5A9BD4" />
<path d="M690.65,79.729L687.95,75.042L693.36,75.042Z" style="fill:#5A9BD4" />
<path d="M698.66,82.554L695.96,77.867L701.37,77.867Z" style="fill:#5A9BD4" />
<path d="M706.68,82.554L703.97,77.867L709.38,77.867Z" style="fill:#5A9BD4" />
<path d="M714.69,85.379L711.98,80.691L717.4,80.691Z" style="fill:#5A9BD4" />
<path d="M722.7,85.379L720,80.691L725.41,80.691Z" style="fill:#5A9BD4" />
<path d="M730.72,93.852L728.01,89.165L733.42,89.165Z" style="fill:#5A9BD4" />
<path d="M738.73,113.62L736.02,108.94L741.43,108.94Z" style="fill:#5A9BD4" />
<path d="M746.74,113.62L744.03,108.94L749.45,108.94Z" style="fill:#5A9BD4" />
<path d="M754.75,113.62L752.05,108.94L757.46,108.94Z" style="fill:#5A9BD4" />
<path d="M762.77,141.87L760.06,137.18L765.47,137.18Z" style="fill:#5A9BD4" />
<path d="M770.78,167.29L768.07,162.61L773.49,162.61Z" style="fill:#5A9BD4" />
<path d="M778.79,226.61L776.09,221.92L781.5,221.92Z" style="fill:#5A9BD4" />
<path d="M786.8,235.08L784.1,230.4L789.51,230.4Z" style="fill:#5A9BD4" />
<path d="M794.82,237.91L792.11,233.22L797.52,233.22Z" style="fill:#5A9BD4" />
<path d="M802.83,243.56L800.12,238.87L805.54,238.87Z" style="fill:#5A9BD4" />
<path d="M810.84,288.75L808.14,284.06L813.55,284.06Z" style="fill:#5A9BD4" />
<path d="M818.86,362.19L816.15,357.5L821.56,357.5Z" style="fill:#5A9BD4" />
<path d="M826.87,438.46L824.16,433.77L829.57,433.77Z" style="fill:#5A9BD4" />
<path d="M834.88,523.19L832.17,518.51L837.59,518.51Z" style="fill:#5A9BD4" />
<path d="M842.89,554.27L840.19,549.58L845.6,549.58Z" style="fill:#5A9BD4" />
<path d="M830.39,45.301L850.39,45.301" style="fill:none;stroke:#5A9BD4" />
<path d="M840.39,48.426L837.69,43.738L843.1,43.738Z" style="fill:#5A9BD4" />
<text x="763.42" y="-42.813" transform="scale(1, -1)"
	style="font-family:Liberation Serif;font-variant:normal;font-weight:normal;font-style:normal;font-size:12px">to-fronted-up</text>
</g>
</svg>
