<?xml version="1.0"?>
<!-- Generated by SVGo and Plotinum VG -->
<svg width="850.39pt" height="566.93pt" viewBox="0 0 850.39 566.93"
	xmlns="http://www.w3.org/2000/svg"
	xmlns:xlink="http://www.w3.org/1999/xlink">
<g transform="scale(1, -1) translate(0, -566.93)">
<path d="M0,0L850.39,0L850.39,566.93L0,566.93Z" style="fill:#FFFFFF" />
<text x="289.2" y="-557.54" transform="scale(1, -1)"
	style="font-family:Liberation Serif;font-variant:normal;font-weight:normal;font-style:normal;font-size:12px">Raw Data Measures: regular-localhost-zeroload-400Kdb</text>
<text x="432.69" y="-3.9023" transform="scale(1, -1)"
	style="font-family:Liberation Serif;font-variant:normal;font-weight:normal;font-style:normal;font-size:12px">Restart ID</text>
<text x="64.635" y="-16.541" transform="scale(1, -1)"
	style="font-family:Liberation Serif;font-variant:normal;font-weight:normal;font-style:normal;font-size:10px">0</text>
<text x="298.73" y="-16.541" transform="scale(1, -1)"
	style="font-family:Liberation Serif;font-variant:normal;font-weight:normal;font-style:normal;font-size:10px">30</text>
<text x="535.32" y="-16.541" transform="scale(1, -1)"
	style="font-family:Liberation Serif;font-variant:normal;font-weight:normal;font-style:normal;font-size:10px">60</text>
<text x="771.92" y="-16.541" transform="scale(1, -1)"
	style="font-family:Liberation Serif;font-variant:normal;font-weight:normal;font-style:normal;font-size:10px">90</text>
<path d="M67.135,24.363L67.135,32.363" style="fill:none;stroke:#000000;stroke-width:0.5" />
<path d="M303.73,24.363L303.73,32.363" style="fill:none;stroke:#000000;stroke-width:0.5" />
<path d="M540.32,24.363L540.32,32.363" style="fill:none;stroke:#000000;stroke-width:0.5" />
<path d="M776.92,24.363L776.92,32.363" style="fill:none;stroke:#000000;stroke-width:0.5" />
<path d="M146,28.363L146,32.363" style="fill:none;stroke:#000000;stroke-width:0.5" />
<path d="M224.86,28.363L224.86,32.363" style="fill:none;stroke:#000000;stroke-width:0.5" />
<path d="M382.59,28.363L382.59,32.363" style="fill:none;stroke:#000000;stroke-width:0.5" />
<path d="M461.46,28.363L461.46,32.363" style="fill:none;stroke:#000000;stroke-width:0.5" />
<path d="M619.19,28.363L619.19,32.363" style="fill:none;stroke:#000000;stroke-width:0.5" />
<path d="M698.05,28.363L698.05,32.363" style="fill:none;stroke:#000000;stroke-width:0.5" />
<path d="M67.135,32.363L847.89,32.363" style="fill:none;stroke:#000000;stroke-width:0.5" />
<g transform="rotate(90)">
<text x="265.43" y="9.3867" transform="scale(1, -1)"
	style="font-family:Liberation Serif;font-variant:normal;font-weight:normal;font-style:normal;font-size:12px">Duration: ms</text>
</g>
<text x="20.885" y="-89.649" transform="scale(1, -1)"
	style="font-family:Liberation Serif;font-variant:normal;font-weight:normal;font-style:normal;font-size:10px">250.00</text>
<text x="15.885" y="-314.42" transform="scale(1, -1)"
	style="font-family:Liberation Serif;font-variant:normal;font-weight:normal;font-style:normal;font-size:10px">1250.00</text>
<text x="15.885" y="-539.19" transform="scale(1, -1)"
	style="font-family:Liberation Serif;font-variant:normal;font-weight:normal;font-style:normal;font-size:10px">2250.00</text>
<path d="M50.885,91.934L58.885,91.934" style="fill:none;stroke:#000000;stroke-width:0.5" />
<path d="M50.885,316.7L58.885,316.7" style="fill:none;stroke:#000000;stroke-width:0.5" />
<path d="M50.885,541.47L58.885,541.47" style="fill:none;stroke:#000000;stroke-width:0.5" />
<path d="M54.885,204.32L58.885,204.32" style="fill:none;stroke:#000000;stroke-width:0.5" />
<path d="M54.885,429.09L58.885,429.09" style="fill:none;stroke:#000000;stroke-width:0.5" />
<path d="M58.885,42.709L58.885,551.14" style="fill:none;stroke:#000000;stroke-width:0.5" />
<path d="M67.135,42.709L67.135,551.14" style="fill:none;stroke:#808080;stroke-width:0.25" />
<path d="M303.73,42.709L303.73,551.14" style="fill:none;stroke:#808080;stroke-width:0.25" />
<path d="M540.32,42.709L540.32,551.14" style="fill:none;stroke:#808080;stroke-width:0.25" />
<path d="M776.92,42.709L776.92,551.14" style="fill:none;stroke:#808080;stroke-width:0.25" />
<path d="M67.135,91.934L847.89,91.934" style="fill:none;stroke:#808080;stroke-width:0.25" />
<path d="M67.135,316.7L847.89,316.7" style="fill:none;stroke:#808080;stroke-width:0.25" />
<path d="M67.135,541.47L847.89,541.47" style="fill:none;stroke:#808080;stroke-width:0.25" />
<path d="M67.135,46.98L75.021,43.608L82.908,46.98L90.794,44.732L98.681,44.282L106.57,45.856L114.45,46.53L122.34,43.608L130.23,43.833L138.11,47.429L146,45.181L153.89,43.833L161.77,43.833L169.66,43.608L177.55,44.507L185.43,43.608L193.32,44.282L201.2,44.282L209.09,44.957L216.98,45.631L224.86,44.507L232.75,43.833L240.64,44.732L248.52,45.406L256.41,45.631L264.3,44.957L272.18,43.383L280.07,45.406L287.96,44.058L295.84,43.608L303.73,44.058L311.61,43.159L319.5,43.383L327.39,44.507L335.27,46.98L343.16,43.383L351.05,46.081L358.93,44.732L366.82,44.058L374.71,44.507L382.59,53.498L390.48,43.608L398.37,44.282L406.25,46.081L414.14,44.732L422.03,46.081L429.91,44.507L437.8,45.181L445.68,44.957L453.57,45.181L461.46,43.833L469.34,45.181L477.23,55.296L485.12,56.42L493,49.902L500.89,55.071L508.78,52.149L516.66,46.305L524.55,43.833L532.44,46.081L540.32,44.282L548.21,43.833L556.09,48.103L563.98,44.957L571.87,43.833L579.75,42.709L587.64,43.383L595.53,44.058L603.41,43.833L611.3,43.608L619.19,45.181L627.07,46.755L634.96,43.833L642.85,43.383L650.73,43.383L658.62,44.732L666.51,46.755L674.39,44.957L682.28,43.833L690.16,44.957L698.05,43.159L705.94,44.507L713.82,44.507L721.71,43.159L729.6,513.38L737.48,45.181L745.37,46.081L753.26,44.957L761.14,43.833L769.03,44.957L776.92,44.957L784.8,44.957L792.69,43.608L800.57,46.53L808.46,43.833L816.35,43.833L824.23,44.282L832.12,43.833L840.01,44.058L847.89,44.732" style="fill:none;stroke:#F15A60" />
<path d="M67.135,50.105L64.428,45.417L69.841,45.417Z" style="fill:#F15A60" />
<path d="M75.021,46.733L72.315,42.046L77.728,42.046Z" style="fill:#F15A60" />
<path d="M82.908,50.105L80.201,45.417L85.614,45.417Z" style="fill:#F15A60" />
<path d="M90.794,47.857L88.088,43.169L93.5,43.169Z" style="fill:#F15A60" />
<path d="M98.681,47.407L95.974,42.72L101.39,42.72Z" style="fill:#F15A60" />
<path d="M106.57,48.981L103.86,44.293L109.27,44.293Z" style="fill:#F15A60" />
<path d="M114.45,49.655L111.75,44.968L117.16,44.968Z" style="fill:#F15A60" />
<path d="M122.34,46.733L119.63,42.046L125.05,42.046Z" style="fill:#F15A60" />
<path d="M130.23,46.958L127.52,42.27L132.93,42.27Z" style="fill:#F15A60" />
<path d="M138.11,50.554L135.41,45.867L140.82,45.867Z" style="fill:#F15A60" />
<path d="M146,48.306L143.29,43.619L148.71,43.619Z" style="fill:#F15A60" />
<path d="M153.89,46.958L151.18,42.27L156.59,42.27Z" style="fill:#F15A60" />
<path d="M161.77,46.958L159.07,42.27L164.48,42.27Z" style="fill:#F15A60" />
<path d="M169.66,46.733L166.95,42.046L172.36,42.046Z" style="fill:#F15A60" />
<path d="M177.55,47.632L174.84,42.945L180.25,42.945Z" style="fill:#F15A60" />
<path d="M185.43,46.733L182.73,42.046L188.14,42.046Z" style="fill:#F15A60" />
<path d="M193.32,47.407L190.61,42.72L196.02,42.72Z" style="fill:#F15A60" />
<path d="M201.2,47.407L198.5,42.72L203.91,42.72Z" style="fill:#F15A60" />
<path d="M209.09,48.082L206.38,43.394L211.8,43.394Z" style="fill:#F15A60" />
<path d="M216.98,48.756L214.27,44.069L219.68,44.069Z" style="fill:#F15A60" />
<path d="M224.86,47.632L222.16,42.945L227.57,42.945Z" style="fill:#F15A60" />
<path d="M232.75,46.958L230.04,42.27L235.46,42.27Z" style="fill:#F15A60" />
<path d="M240.64,47.857L237.93,43.169L243.34,43.169Z" style="fill:#F15A60" />
<path d="M248.52,48.531L245.82,43.844L251.23,43.844Z" style="fill:#F15A60" />
<path d="M256.41,48.756L253.7,44.069L259.12,44.069Z" style="fill:#F15A60" />
<path d="M264.3,48.082L261.59,43.394L267,43.394Z" style="fill:#F15A60" />
<path d="M272.18,46.508L269.48,41.821L274.89,41.821Z" style="fill:#F15A60" />
<path d="M280.07,48.531L277.36,43.844L282.78,43.844Z" style="fill:#F15A60" />
<path d="M287.96,47.183L285.25,42.495L290.66,42.495Z" style="fill:#F15A60" />
<path d="M295.84,46.733L293.14,42.046L298.55,42.046Z" style="fill:#F15A60" />
<path d="M303.73,47.183L301.02,42.495L306.43,42.495Z" style="fill:#F15A60" />
<path d="M311.61,46.284L308.91,41.596L314.32,41.596Z" style="fill:#F15A60" />
<path d="M319.5,46.508L316.79,41.821L322.21,41.821Z" style="fill:#F15A60" />
<path d="M327.39,47.632L324.68,42.945L330.09,42.945Z" style="fill:#F15A60" />
<path d="M335.27,50.105L332.57,45.417L337.98,45.417Z" style="fill:#F15A60" />
<path d="M343.16,46.508L340.45,41.821L345.87,41.821Z" style="fill:#F15A60" />
<path d="M351.05,49.206L348.34,44.518L353.75,44.518Z" style="fill:#F15A60" />
<path d="M358.93,47.857L356.23,43.169L361.64,43.169Z" style="fill:#F15A60" />
<path d="M366.82,47.183L364.11,42.495L369.53,42.495Z" style="fill:#F15A60" />
<path d="M374.71,47.632L372,42.945L377.41,42.945Z" style="fill:#F15A60" />
<path d="M382.59,56.623L379.89,51.935L385.3,51.935Z" style="fill:#F15A60" />
<path d="M390.48,46.733L387.77,42.046L393.19,42.046Z" style="fill:#F15A60" />
<path d="M398.37,47.407L395.66,42.72L401.07,42.72Z" style="fill:#F15A60" />
<path d="M406.25,49.206L403.55,44.518L408.96,44.518Z" style="fill:#F15A60" />
<path d="M414.14,47.857L411.43,43.169L416.85,43.169Z" style="fill:#F15A60" />
<path d="M422.03,49.206L419.32,44.518L424.73,44.518Z" style="fill:#F15A60" />
<path d="M429.91,47.632L427.21,42.945L432.62,42.945Z" style="fill:#F15A60" />
<path d="M437.8,48.306L435.09,43.619L440.5,43.619Z" style="fill:#F15A60" />
<path d="M445.68,48.082L442.98,43.394L448.39,43.394Z" style="fill:#F15A60" />
<path d="M453.57,48.306L450.86,43.619L456.28,43.619Z" style="fill:#F15A60" />
<path d="M461.46,46.958L458.75,42.27L464.16,42.27Z" style="fill:#F15A60" />
<path d="M469.34,48.306L466.64,43.619L472.05,43.619Z" style="fill:#F15A60" />
<path d="M477.23,58.421L474.52,53.734L479.94,53.734Z" style="fill:#F15A60" />
<path d="M485.12,59.545L482.41,54.857L487.82,54.857Z" style="fill:#F15A60" />
<path d="M493,53.027L490.3,48.339L495.71,48.339Z" style="fill:#F15A60" />
<path d="M500.89,58.196L498.18,53.509L503.6,53.509Z" style="fill:#F15A60" />
<path d="M508.78,55.274L506.07,50.587L511.48,50.587Z" style="fill:#F15A60" />
<path d="M516.66,49.43L513.96,44.743L519.37,44.743Z" style="fill:#F15A60" />
<path d="M524.55,46.958L521.84,42.27L527.26,42.27Z" style="fill:#F15A60" />
<path d="M532.44,49.206L529.73,44.518L535.14,44.518Z" style="fill:#F15A60" />
<path d="M540.32,47.407L537.62,42.72L543.03,42.72Z" style="fill:#F15A60" />
<path d="M548.21,46.958L545.5,42.27L550.91,42.27Z" style="fill:#F15A60" />
<path d="M556.09,51.228L553.39,46.541L558.8,46.541Z" style="fill:#F15A60" />
<path d="M563.98,48.082L561.28,43.394L566.69,43.394Z" style="fill:#F15A60" />
<path d="M571.87,46.958L569.16,42.27L574.57,42.27Z" style="fill:#F15A60" />
<path d="M579.75,45.834L577.05,41.146L582.46,41.146Z" style="fill:#F15A60" />
<path d="M587.64,46.508L584.93,41.821L590.35,41.821Z" style="fill:#F15A60" />
<path d="M595.53,47.183L592.82,42.495L598.23,42.495Z" style="fill:#F15A60" />
<path d="M603.41,46.958L600.71,42.27L606.12,42.27Z" style="fill:#F15A60" />
<path d="M611.3,46.733L608.59,42.046L614.01,42.046Z" style="fill:#F15A60" />
<path d="M619.19,48.306L616.48,43.619L621.89,43.619Z" style="fill:#F15A60" />
<path d="M627.07,49.88L624.37,45.192L629.78,45.192Z" style="fill:#F15A60" />
<path d="M634.96,46.958L632.25,42.27L637.67,42.27Z" style="fill:#F15A60" />
<path d="M642.85,46.508L640.14,41.821L645.55,41.821Z" style="fill:#F15A60" />
<path d="M650.73,46.508L648.03,41.821L653.44,41.821Z" style="fill:#F15A60" />
<path d="M658.62,47.857L655.91,43.169L661.33,43.169Z" style="fill:#F15A60" />
<path d="M666.51,49.88L663.8,45.192L669.21,45.192Z" style="fill:#F15A60" />
<path d="M674.39,48.082L671.69,43.394L677.1,43.394Z" style="fill:#F15A60" />
<path d="M682.28,46.958L679.57,42.27L684.98,42.27Z" style="fill:#F15A60" />
<path d="M690.16,48.082L687.46,43.394L692.87,43.394Z" style="fill:#F15A60" />
<path d="M698.05,46.284L695.34,41.596L700.76,41.596Z" style="fill:#F15A60" />
<path d="M705.94,47.632L703.23,42.945L708.64,42.945Z" style="fill:#F15A60" />
<path d="M713.82,47.632L711.12,42.945L716.53,42.945Z" style="fill:#F15A60" />
<path d="M721.71,46.284L719,41.596L724.42,41.596Z" style="fill:#F15A60" />
<path d="M729.6,516.5L726.89,511.82L732.3,511.82Z" style="fill:#F15A60" />
<path d="M737.48,48.306L734.78,43.619L740.19,43.619Z" style="fill:#F15A60" />
<path d="M745.37,49.206L742.66,44.518L748.08,44.518Z" style="fill:#F15A60" />
<path d="M753.26,48.082L750.55,43.394L755.96,43.394Z" style="fill:#F15A60" />
<path d="M761.14,46.958L758.44,42.27L763.85,42.27Z" style="fill:#F15A60" />
<path d="M769.03,48.082L766.32,43.394L771.74,43.394Z" style="fill:#F15A60" />
<path d="M776.92,48.082L774.21,43.394L779.62,43.394Z" style="fill:#F15A60" />
<path d="M784.8,48.082L782.1,43.394L787.51,43.394Z" style="fill:#F15A60" />
<path d="M792.69,46.733L789.98,42.046L795.39,42.046Z" style="fill:#F15A60" />
<path d="M800.57,49.655L797.87,44.968L803.28,44.968Z" style="fill:#F15A60" />
<path d="M808.46,46.958L805.76,42.27L811.17,42.27Z" style="fill:#F15A60" />
<path d="M816.35,46.958L813.64,42.27L819.05,42.27Z" style="fill:#F15A60" />
<path d="M824.23,47.407L821.53,42.72L826.94,42.72Z" style="fill:#F15A60" />
<path d="M832.12,46.958L829.41,42.27L834.83,42.27Z" style="fill:#F15A60" />
<path d="M840.01,47.183L837.3,42.495L842.71,42.495Z" style="fill:#F15A60" />
<path d="M847.89,47.857L845.19,43.169L850.6,43.169Z" style="fill:#F15A60" />
<path d="M67.135,83.617L75.021,81.37L82.908,97.328L90.794,84.741L98.681,80.92L106.57,82.943L114.45,83.842L122.34,80.246L130.23,79.796L138.11,83.842L146,84.292L153.89,80.47L161.77,81.145L169.66,80.47L177.55,83.168L185.43,80.695L193.32,82.718L201.2,80.92L209.09,82.044L216.98,82.493L224.86,80.92L232.75,80.47L240.64,82.493L248.52,82.493L256.41,82.718L264.3,82.493L272.18,80.47L280.07,82.044L287.96,80.47L295.84,81.145L303.73,81.37L311.61,80.021L319.5,80.021L327.39,82.044L335.27,83.842L343.16,81.145L351.05,83.617L358.93,81.819L366.82,80.92L374.71,81.37L382.59,130.14L390.48,84.966L398.37,81.37L406.25,82.943L414.14,81.145L422.03,82.493L429.91,81.819L437.8,82.493L445.68,96.429L453.57,84.067L461.46,82.718L469.34,89.012L477.23,122.5L485.12,117.56L493,100.92L500.89,100.92L508.78,126.32L516.66,98.003L524.55,80.92L532.44,83.842L540.32,81.594L548.21,81.594L556.09,103.62L563.98,84.292L571.87,80.92L579.75,84.067L587.64,81.819L595.53,82.044L603.41,85.415L611.3,82.269L619.19,82.718L627.07,84.741L634.96,82.269L642.85,82.044L650.73,81.37L658.62,82.493L666.51,84.741L674.39,83.168L682.28,82.269L690.16,82.493L698.05,80.695L705.94,81.594L713.82,82.269L721.71,81.594L729.6,551.14L737.48,82.493L745.37,83.168L753.26,83.168L761.14,81.37L769.03,82.718L776.92,84.067L784.8,82.269L792.69,81.594L800.57,84.516L808.46,81.594L816.35,81.37L824.23,81.819L832.12,81.37L840.01,81.37L847.89,82.269" style="fill:none;stroke:#7AC36A" />
<path d="M67.135,86.742L64.428,82.055L69.841,82.055Z" style="fill:#7AC36A" />
<path d="M75.021,84.495L72.315,79.807L77.728,79.807Z" style="fill:#7AC36A" />
<path d="M82.908,100.45L80.201,95.766L85.614,95.766Z" style="fill:#7AC36A" />
<path d="M90.794,87.866L88.088,83.179L93.5,83.179Z" style="fill:#7AC36A" />
<path d="M98.681,84.045L95.974,79.357L101.39,79.357Z" style="fill:#7AC36A" />
<path d="M106.57,86.068L103.86,81.38L109.27,81.38Z" style="fill:#7AC36A" />
<path d="M114.45,86.967L111.75,82.28L117.16,82.28Z" style="fill:#7AC36A" />
<path d="M122.34,83.371L119.63,78.683L125.05,78.683Z" style="fill:#7AC36A" />
<path d="M130.23,82.921L127.52,78.234L132.93,78.234Z" style="fill:#7AC36A" />
<path d="M138.11,86.967L135.41,82.28L140.82,82.28Z" style="fill:#7AC36A" />
<path d="M146,87.417L143.29,82.729L148.71,82.729Z" style="fill:#7AC36A" />
<path d="M153.89,83.595L151.18,78.908L156.59,78.908Z" style="fill:#7AC36A" />
<path d="M161.77,84.27L159.07,79.582L164.48,79.582Z" style="fill:#7AC36A" />
<path d="M169.66,83.595L166.95,78.908L172.36,78.908Z" style="fill:#7AC36A" />
<path d="M177.55,86.293L174.84,81.605L180.25,81.605Z" style="fill:#7AC36A" />
<path d="M185.43,83.82L182.73,79.133L188.14,79.133Z" style="fill:#7AC36A" />
<path d="M193.32,85.843L190.61,81.156L196.02,81.156Z" style="fill:#7AC36A" />
<path d="M201.2,84.045L198.5,79.357L203.91,79.357Z" style="fill:#7AC36A" />
<path d="M209.09,85.169L206.38,80.481L211.8,80.481Z" style="fill:#7AC36A" />
<path d="M216.98,85.618L214.27,80.931L219.68,80.931Z" style="fill:#7AC36A" />
<path d="M224.86,84.045L222.16,79.357L227.57,79.357Z" style="fill:#7AC36A" />
<path d="M232.75,83.595L230.04,78.908L235.46,78.908Z" style="fill:#7AC36A" />
<path d="M240.64,85.618L237.93,80.931L243.34,80.931Z" style="fill:#7AC36A" />
<path d="M248.52,85.618L245.82,80.931L251.23,80.931Z" style="fill:#7AC36A" />
<path d="M256.41,85.843L253.7,81.156L259.12,81.156Z" style="fill:#7AC36A" />
<path d="M264.3,85.618L261.59,80.931L267,80.931Z" style="fill:#7AC36A" />
<path d="M272.18,83.595L269.48,78.908L274.89,78.908Z" style="fill:#7AC36A" />
<path d="M280.07,85.169L277.36,80.481L282.78,80.481Z" style="fill:#7AC36A" />
<path d="M287.96,83.595L285.25,78.908L290.66,78.908Z" style="fill:#7AC36A" />
<path d="M295.84,84.27L293.14,79.582L298.55,79.582Z" style="fill:#7AC36A" />
<path d="M303.73,84.495L301.02,79.807L306.43,79.807Z" style="fill:#7AC36A" />
<path d="M311.61,83.146L308.91,78.458L314.32,78.458Z" style="fill:#7AC36A" />
<path d="M319.5,83.146L316.79,78.458L322.21,78.458Z" style="fill:#7AC36A" />
<path d="M327.39,85.169L324.68,80.481L330.09,80.481Z" style="fill:#7AC36A" />
<path d="M335.27,86.967L332.57,82.28L337.98,82.28Z" style="fill:#7AC36A" />
<path d="M343.16,84.27L340.45,79.582L345.87,79.582Z" style="fill:#7AC36A" />
<path d="M351.05,86.742L348.34,82.055L353.75,82.055Z" style="fill:#7AC36A" />
<path d="M358.93,84.944L356.23,80.257L361.64,80.257Z" style="fill:#7AC36A" />
<path d="M366.82,84.045L364.11,79.357L369.53,79.357Z" style="fill:#7AC36A" />
<path d="M374.71,84.495L372,79.807L377.41,79.807Z" style="fill:#7AC36A" />
<path d="M382.59,133.27L379.89,128.58L385.3,128.58Z" style="fill:#7AC36A" />
<path d="M390.48,88.091L387.77,83.403L393.19,83.403Z" style="fill:#7AC36A" />
<path d="M398.37,84.495L395.66,79.807L401.07,79.807Z" style="fill:#7AC36A" />
<path d="M406.25,86.068L403.55,81.38L408.96,81.38Z" style="fill:#7AC36A" />
<path d="M414.14,84.27L411.43,79.582L416.85,79.582Z" style="fill:#7AC36A" />
<path d="M422.03,85.618L419.32,80.931L424.73,80.931Z" style="fill:#7AC36A" />
<path d="M429.91,84.944L427.21,80.257L432.62,80.257Z" style="fill:#7AC36A" />
<path d="M437.8,85.618L435.09,80.931L440.5,80.931Z" style="fill:#7AC36A" />
<path d="M445.68,99.554L442.98,94.867L448.39,94.867Z" style="fill:#7AC36A" />
<path d="M453.57,87.192L450.86,82.504L456.28,82.504Z" style="fill:#7AC36A" />
<path d="M461.46,85.843L458.75,81.156L464.16,81.156Z" style="fill:#7AC36A" />
<path d="M469.34,92.137L466.64,87.449L472.05,87.449Z" style="fill:#7AC36A" />
<path d="M477.23,125.63L474.52,120.94L479.94,120.94Z" style="fill:#7AC36A" />
<path d="M485.12,120.68L482.41,116L487.82,116Z" style="fill:#7AC36A" />
<path d="M493,104.05L490.3,99.362L495.71,99.362Z" style="fill:#7AC36A" />
<path d="M500.89,104.05L498.18,99.362L503.6,99.362Z" style="fill:#7AC36A" />
<path d="M508.78,129.45L506.07,124.76L511.48,124.76Z" style="fill:#7AC36A" />
<path d="M516.66,101.13L513.96,96.44L519.37,96.44Z" style="fill:#7AC36A" />
<path d="M524.55,84.045L521.84,79.357L527.26,79.357Z" style="fill:#7AC36A" />
<path d="M532.44,86.967L529.73,82.28L535.14,82.28Z" style="fill:#7AC36A" />
<path d="M540.32,84.719L537.62,80.032L543.03,80.032Z" style="fill:#7AC36A" />
<path d="M548.21,84.719L545.5,80.032L550.91,80.032Z" style="fill:#7AC36A" />
<path d="M556.09,106.75L553.39,102.06L558.8,102.06Z" style="fill:#7AC36A" />
<path d="M563.98,87.417L561.28,82.729L566.69,82.729Z" style="fill:#7AC36A" />
<path d="M571.87,84.045L569.16,79.357L574.57,79.357Z" style="fill:#7AC36A" />
<path d="M579.75,87.192L577.05,82.504L582.46,82.504Z" style="fill:#7AC36A" />
<path d="M587.64,84.944L584.93,80.257L590.35,80.257Z" style="fill:#7AC36A" />
<path d="M595.53,85.169L592.82,80.481L598.23,80.481Z" style="fill:#7AC36A" />
<path d="M603.41,88.54L600.71,83.853L606.12,83.853Z" style="fill:#7AC36A" />
<path d="M611.3,85.394L608.59,80.706L614.01,80.706Z" style="fill:#7AC36A" />
<path d="M619.19,85.843L616.48,81.156L621.89,81.156Z" style="fill:#7AC36A" />
<path d="M627.07,87.866L624.37,83.179L629.78,83.179Z" style="fill:#7AC36A" />
<path d="M634.96,85.394L632.25,80.706L637.67,80.706Z" style="fill:#7AC36A" />
<path d="M642.85,85.169L640.14,80.481L645.55,80.481Z" style="fill:#7AC36A" />
<path d="M650.73,84.495L648.03,79.807L653.44,79.807Z" style="fill:#7AC36A" />
<path d="M658.62,85.618L655.91,80.931L661.33,80.931Z" style="fill:#7AC36A" />
<path d="M666.51,87.866L663.8,83.179L669.21,83.179Z" style="fill:#7AC36A" />
<path d="M674.39,86.293L671.69,81.605L677.1,81.605Z" style="fill:#7AC36A" />
<path d="M682.28,85.394L679.57,80.706L684.98,80.706Z" style="fill:#7AC36A" />
<path d="M690.16,85.618L687.46,80.931L692.87,80.931Z" style="fill:#7AC36A" />
<path d="M698.05,83.82L695.34,79.133L700.76,79.133Z" style="fill:#7AC36A" />
<path d="M705.94,84.719L703.23,80.032L708.64,80.032Z" style="fill:#7AC36A" />
<path d="M713.82,85.394L711.12,80.706L716.53,80.706Z" style="fill:#7AC36A" />
<path d="M721.71,84.719L719,80.032L724.42,80.032Z" style="fill:#7AC36A" />
<path d="M729.6,554.27L726.89,549.58L732.3,549.58Z" style="fill:#7AC36A" />
<path d="M737.48,85.618L734.78,80.931L740.19,80.931Z" style="fill:#7AC36A" />
<path d="M745.37,86.293L742.66,81.605L748.08,81.605Z" style="fill:#7AC36A" />
<path d="M753.26,86.293L750.55,81.605L755.96,81.605Z" style="fill:#7AC36A" />
<path d="M761.14,84.495L758.44,79.807L763.85,79.807Z" style="fill:#7AC36A" />
<path d="M769.03,85.843L766.32,81.156L771.74,81.156Z" style="fill:#7AC36A" />
<path d="M776.92,87.192L774.21,82.504L779.62,82.504Z" style="fill:#7AC36A" />
<path d="M784.8,85.394L782.1,80.706L787.51,80.706Z" style="fill:#7AC36A" />
<path d="M792.69,84.719L789.98,80.032L795.39,80.032Z" style="fill:#7AC36A" />
<path d="M800.57,87.641L797.87,82.954L803.28,82.954Z" style="fill:#7AC36A" />
<path d="M808.46,84.719L805.76,80.032L811.17,80.032Z" style="fill:#7AC36A" />
<path d="M816.35,84.495L813.64,79.807L819.05,79.807Z" style="fill:#7AC36A" />
<path d="M824.23,84.944L821.53,80.257L826.94,80.257Z" style="fill:#7AC36A" />
<path d="M832.12,84.495L829.41,79.807L834.83,79.807Z" style="fill:#7AC36A" />
<path d="M840.01,84.495L837.3,79.807L842.71,79.807Z" style="fill:#7AC36A" />
<path d="M847.89,85.394L845.19,80.706L850.6,80.706Z" style="fill:#7AC36A" />
<path d="M67.135,72.379L75.021,73.503L82.908,86.09L90.794,75.525L98.681,72.154L106.57,72.828L114.45,73.053L122.34,72.154L130.23,71.704L138.11,72.154L146,74.851L153.89,72.154L161.77,72.828L169.66,72.603L177.55,74.177L185.43,72.603L193.32,73.952L201.2,72.154L209.09,72.828L216.98,72.603L224.86,72.154L232.75,72.379L240.64,73.503L248.52,72.603L256.41,72.603L264.3,73.053L272.18,72.828L280.07,72.154L287.96,72.154L295.84,73.053L303.73,72.828L311.61,72.379L319.5,72.154L327.39,73.053L335.27,72.603L343.16,73.503L351.05,73.053L358.93,72.603L366.82,72.603L374.71,72.603L382.59,112.16L390.48,77.099L398.37,72.603L406.25,72.379L414.14,72.154L422.03,71.929L429.91,73.053L437.8,73.053L445.68,86.989L453.57,74.402L461.46,74.626L469.34,79.347L477.23,102.95L485.12,96.879L493,86.764L500.89,81.37L508.78,109.69L516.66,87.438L524.55,72.603L532.44,73.503L540.32,72.828L548.21,73.278L556.09,91.035L563.98,74.851L571.87,72.828L579.75,77.099L587.64,74.177L595.53,73.727L603.41,77.099L611.3,74.177L619.19,73.053L627.07,73.727L634.96,73.952L642.85,74.177L650.73,73.727L658.62,73.278L666.51,73.727L674.39,73.727L682.28,73.952L690.16,73.278L698.05,73.278L705.94,72.603L713.82,73.503L721.71,73.952L729.6,73.503L737.48,72.828L745.37,72.828L753.26,73.727L761.14,73.278L769.03,73.503L776.92,74.626L784.8,73.053L792.69,73.727L800.57,73.503L808.46,73.503L816.35,73.053L824.23,73.278L832.12,73.278L840.01,73.053L847.89,73.278" style="fill:none;stroke:#5A9BD4" />
<path d="M67.135,75.504L64.428,70.816L69.841,70.816Z" style="fill:#5A9BD4" />
<path d="M75.021,76.628L72.315,71.94L77.728,71.94Z" style="fill:#5A9BD4" />
<path d="M82.908,89.215L80.201,84.527L85.614,84.527Z" style="fill:#5A9BD4" />
<path d="M90.794,78.65L88.088,73.963L93.5,73.963Z" style="fill:#5A9BD4" />
<path d="M98.681,75.279L95.974,70.591L101.39,70.591Z" style="fill:#5A9BD4" />
<path d="M106.57,75.953L103.86,71.266L109.27,71.266Z" style="fill:#5A9BD4" />
<path d="M114.45,76.178L111.75,71.491L117.16,71.491Z" style="fill:#5A9BD4" />
<path d="M122.34,75.279L119.63,70.591L125.05,70.591Z" style="fill:#5A9BD4" />
<path d="M130.23,74.829L127.52,70.142L132.93,70.142Z" style="fill:#5A9BD4" />
<path d="M138.11,75.279L135.41,70.591L140.82,70.591Z" style="fill:#5A9BD4" />
<path d="M146,77.976L143.29,73.289L148.71,73.289Z" style="fill:#5A9BD4" />
<path d="M153.89,75.279L151.18,70.591L156.59,70.591Z" style="fill:#5A9BD4" />
<path d="M161.77,75.953L159.07,71.266L164.48,71.266Z" style="fill:#5A9BD4" />
<path d="M169.66,75.728L166.95,71.041L172.36,71.041Z" style="fill:#5A9BD4" />
<path d="M177.55,77.302L174.84,72.614L180.25,72.614Z" style="fill:#5A9BD4" />
<path d="M185.43,75.728L182.73,71.041L188.14,71.041Z" style="fill:#5A9BD4" />
<path d="M193.32,77.077L190.61,72.39L196.02,72.39Z" style="fill:#5A9BD4" />
<path d="M201.2,75.279L198.5,70.591L203.91,70.591Z" style="fill:#5A9BD4" />
<path d="M209.09,75.953L206.38,71.266L211.8,71.266Z" style="fill:#5A9BD4" />
<path d="M216.98,75.728L214.27,71.041L219.68,71.041Z" style="fill:#5A9BD4" />
<path d="M224.86,75.279L222.16,70.591L227.57,70.591Z" style="fill:#5A9BD4" />
<path d="M232.75,75.504L230.04,70.816L235.46,70.816Z" style="fill:#5A9BD4" />
<path d="M240.64,76.628L237.93,71.94L243.34,71.94Z" style="fill:#5A9BD4" />
<path d="M248.52,75.728L245.82,71.041L251.23,71.041Z" style="fill:#5A9BD4" />
<path d="M256.41,75.728L253.7,71.041L259.12,71.041Z" style="fill:#5A9BD4" />
<path d="M264.3,76.178L261.59,71.491L267,71.491Z" style="fill:#5A9BD4" />
<path d="M272.18,75.953L269.48,71.266L274.89,71.266Z" style="fill:#5A9BD4" />
<path d="M280.07,75.279L277.36,70.591L282.78,70.591Z" style="fill:#5A9BD4" />
<path d="M287.96,75.279L285.25,70.591L290.66,70.591Z" style="fill:#5A9BD4" />
<path d="M295.84,76.178L293.14,71.491L298.55,71.491Z" style="fill:#5A9BD4" />
<path d="M303.73,75.953L301.02,71.266L306.43,71.266Z" style="fill:#5A9BD4" />
<path d="M311.61,75.504L308.91,70.816L314.32,70.816Z" style="fill:#5A9BD4" />
<path d="M319.5,75.279L316.79,70.591L322.21,70.591Z" style="fill:#5A9BD4" />
<path d="M327.39,76.178L324.68,71.491L330.09,71.491Z" style="fill:#5A9BD4" />
<path d="M335.27,75.728L332.57,71.041L337.98,71.041Z" style="fill:#5A9BD4" />
<path d="M343.16,76.628L340.45,71.94L345.87,71.94Z" style="fill:#5A9BD4" />
<path d="M351.05,76.178L348.34,71.491L353.75,71.491Z" style="fill:#5A9BD4" />
<path d="M358.93,75.728L356.23,71.041L361.64,71.041Z" style="fill:#5A9BD4" />
<path d="M366.82,75.728L364.11,71.041L369.53,71.041Z" style="fill:#5A9BD4" />
<path d="M374.71,75.728L372,71.041L377.41,71.041Z" style="fill:#5A9BD4" />
<path d="M382.59,115.29L379.89,110.6L385.3,110.6Z" style="fill:#5A9BD4" />
<path d="M390.48,80.224L387.77,75.536L393.19,75.536Z" style="fill:#5A9BD4" />
<path d="M398.37,75.728L395.66,71.041L401.07,71.041Z" style="fill:#5A9BD4" />
<path d="M406.25,75.504L403.55,70.816L408.96,70.816Z" style="fill:#5A9BD4" />
<path d="M414.14,75.279L411.43,70.591L416.85,70.591Z" style="fill:#5A9BD4" />
<path d="M422.03,75.054L419.32,70.367L424.73,70.367Z" style="fill:#5A9BD4" />
<path d="M429.91,76.178L427.21,71.491L432.62,71.491Z" style="fill:#5A9BD4" />
<path d="M437.8,76.178L435.09,71.491L440.5,71.491Z" style="fill:#5A9BD4" />
<path d="M445.68,90.114L442.98,85.426L448.39,85.426Z" style="fill:#5A9BD4" />
<path d="M453.57,77.527L450.86,72.839L456.28,72.839Z" style="fill:#5A9BD4" />
<path d="M461.46,77.751L458.75,73.064L464.16,73.064Z" style="fill:#5A9BD4" />
<path d="M469.34,82.472L466.64,77.784L472.05,77.784Z" style="fill:#5A9BD4" />
<path d="M477.23,106.07L474.52,101.39L479.94,101.39Z" style="fill:#5A9BD4" />
<path d="M485.12,100L482.41,95.316L487.82,95.316Z" style="fill:#5A9BD4" />
<path d="M493,89.889L490.3,85.202L495.71,85.202Z" style="fill:#5A9BD4" />
<path d="M500.89,84.495L498.18,79.807L503.6,79.807Z" style="fill:#5A9BD4" />
<path d="M508.78,112.82L506.07,108.13L511.48,108.13Z" style="fill:#5A9BD4" />
<path d="M516.66,90.563L513.96,85.876L519.37,85.876Z" style="fill:#5A9BD4" />
<path d="M524.55,75.728L521.84,71.041L527.26,71.041Z" style="fill:#5A9BD4" />
<path d="M532.44,76.628L529.73,71.94L535.14,71.94Z" style="fill:#5A9BD4" />
<path d="M540.32,75.953L537.62,71.266L543.03,71.266Z" style="fill:#5A9BD4" />
<path d="M548.21,76.403L545.5,71.715L550.91,71.715Z" style="fill:#5A9BD4" />
<path d="M556.09,94.16L553.39,89.472L558.8,89.472Z" style="fill:#5A9BD4" />
<path d="M563.98,77.976L561.28,73.289L566.69,73.289Z" style="fill:#5A9BD4" />
<path d="M571.87,75.953L569.16,71.266L574.57,71.266Z" style="fill:#5A9BD4" />
<path d="M579.75,80.224L577.05,75.536L582.46,75.536Z" style="fill:#5A9BD4" />
<path d="M587.64,77.302L584.93,72.614L590.35,72.614Z" style="fill:#5A9BD4" />
<path d="M595.53,76.852L592.82,72.165L598.23,72.165Z" style="fill:#5A9BD4" />
<path d="M603.41,80.224L600.71,75.536L606.12,75.536Z" style="fill:#5A9BD4" />
<path d="M611.3,77.302L608.59,72.614L614.01,72.614Z" style="fill:#5A9BD4" />
<path d="M619.19,76.178L616.48,71.491L621.89,71.491Z" style="fill:#5A9BD4" />
<path d="M627.07,76.852L624.37,72.165L629.78,72.165Z" style="fill:#5A9BD4" />
<path d="M634.96,77.077L632.25,72.39L637.67,72.39Z" style="fill:#5A9BD4" />
<path d="M642.85,77.302L640.14,72.614L645.55,72.614Z" style="fill:#5A9BD4" />
<path d="M650.73,76.852L648.03,72.165L653.44,72.165Z" style="fill:#5A9BD4" />
<path d="M658.62,76.403L655.91,71.715L661.33,71.715Z" style="fill:#5A9BD4" />
<path d="M666.51,76.852L663.8,72.165L669.21,72.165Z" style="fill:#5A9BD4" />
<path d="M674.39,76.852L671.69,72.165L677.1,72.165Z" style="fill:#5A9BD4" />
<path d="M682.28,77.077L679.57,72.39L684.98,72.39Z" style="fill:#5A9BD4" />
<path d="M690.16,76.403L687.46,71.715L692.87,71.715Z" style="fill:#5A9BD4" />
<path d="M698.05,76.403L695.34,71.715L700.76,71.715Z" style="fill:#5A9BD4" />
<path d="M705.94,75.728L703.23,71.041L708.64,71.041Z" style="fill:#5A9BD4" />
<path d="M713.82,76.628L711.12,71.94L716.53,71.94Z" style="fill:#5A9BD4" />
<path d="M721.71,77.077L719,72.39L724.42,72.39Z" style="fill:#5A9BD4" />
<path d="M729.6,76.628L726.89,71.94L732.3,71.94Z" style="fill:#5A9BD4" />
<path d="M737.48,75.953L734.78,71.266L740.19,71.266Z" style="fill:#5A9BD4" />
<path d="M745.37,75.953L742.66,71.266L748.08,71.266Z" style="fill:#5A9BD4" />
<path d="M753.26,76.852L750.55,72.165L755.96,72.165Z" style="fill:#5A9BD4" />
<path d="M761.14,76.403L758.44,71.715L763.85,71.715Z" style="fill:#5A9BD4" />
<path d="M769.03,76.628L766.32,71.94L771.74,71.94Z" style="fill:#5A9BD4" />
<path d="M776.92,77.751L774.21,73.064L779.62,73.064Z" style="fill:#5A9BD4" />
<path d="M784.8,76.178L782.1,71.491L787.51,71.491Z" style="fill:#5A9BD4" />
<path d="M792.69,76.852L789.98,72.165L795.39,72.165Z" style="fill:#5A9BD4" />
<path d="M800.57,76.628L797.87,71.94L803.28,71.94Z" style="fill:#5A9BD4" />
<path d="M808.46,76.628L805.76,71.94L811.17,71.94Z" style="fill:#5A9BD4" />
<path d="M816.35,76.178L813.64,71.491L819.05,71.491Z" style="fill:#5A9BD4" />
<path d="M824.23,76.403L821.53,71.715L826.94,71.715Z" style="fill:#5A9BD4" />
<path d="M832.12,76.403L829.41,71.715L834.83,71.715Z" style="fill:#5A9BD4" />
<path d="M840.01,76.178L837.3,71.491L842.71,71.491Z" style="fill:#5A9BD4" />
<path d="M847.89,76.403L845.19,71.715L850.6,71.715Z" style="fill:#5A9BD4" />
<path d="M830.39,65.668L850.39,65.668" style="fill:none;stroke:#F15A60" />
<path d="M840.39,68.793L837.69,64.105L843.1,64.105Z" style="fill:#F15A60" />
<text x="790.07" y="-63.181" transform="scale(1, -1)"
	style="font-family:Liberation Serif;font-variant:normal;font-weight:normal;font-style:normal;font-size:12px">to-main</text>
<path d="M830.39,55.484L850.39,55.484" style="fill:none;stroke:#7AC36A" />
<path d="M840.39,58.609L837.69,53.922L843.1,53.922Z" style="fill:#7AC36A" />
<text x="763.42" y="-52.997" transform="scale(1, -1)"
	style="font-family:Liberation Serif;font-variant:normal;font-weight:normal;font-style:normal;font-size:12px">to-fronted-up</text>
<path d="M830.39,45.301L850.39,45.301" style="fill:none;stroke:#5A9BD4" />
<path d="M840.39,48.426L837.69,43.738L843.1,43.738Z" style="fill:#5A9BD4" />
<text x="721.44" y="-42.813" transform="scale(1, -1)"
	style="font-family:Liberation Serif;font-variant:normal;font-weight:normal;font-style:normal;font-size:12px">fronted-up-main-delta</text>
</g>
</svg>
