<?xml version="1.0"?>
<!-- Generated by SVGo and Plotinum VG -->
<svg width="850.39pt" height="566.93pt" viewBox="0 0 850.39 566.93"
	xmlns="http://www.w3.org/2000/svg"
	xmlns:xlink="http://www.w3.org/1999/xlink">
<g transform="scale(1, -1) translate(0, -566.93)">
<path d="M0,0L850.39,0L850.39,566.93L0,566.93Z" style="fill:#FFFFFF" />
<text x="238.21" y="-557.54" transform="scale(1, -1)"
	style="font-family:Liberation Serif;font-variant:normal;font-weight:normal;font-style:normal;font-size:12px">Percentiles - FrontEndUp (Nearest Rank): regular-localhost-zeroload-800Kdb</text>
<text x="424.78" y="-3.9023" transform="scale(1, -1)"
	style="font-family:Liberation Serif;font-variant:normal;font-weight:normal;font-style:normal;font-size:12px">Percentile</text>
<text x="200.92" y="-16.541" transform="scale(1, -1)"
	style="font-family:Liberation Serif;font-variant:normal;font-weight:normal;font-style:normal;font-size:10px">20</text>
<text x="519.41" y="-16.541" transform="scale(1, -1)"
	style="font-family:Liberation Serif;font-variant:normal;font-weight:normal;font-style:normal;font-size:10px">60</text>
<text x="835.39" y="-16.541" transform="scale(1, -1)"
	style="font-family:Liberation Serif;font-variant:normal;font-weight:normal;font-style:normal;font-size:10px">100</text>
<path d="M205.92,24.363L205.92,32.363" style="fill:none;stroke:#000000;stroke-width:0.5" />
<path d="M524.41,24.363L524.41,32.363" style="fill:none;stroke:#000000;stroke-width:0.5" />
<path d="M842.89,24.363L842.89,32.363" style="fill:none;stroke:#000000;stroke-width:0.5" />
<path d="M126.29,28.363L126.29,32.363" style="fill:none;stroke:#000000;stroke-width:0.5" />
<path d="M285.54,28.363L285.54,32.363" style="fill:none;stroke:#000000;stroke-width:0.5" />
<path d="M365.16,28.363L365.16,32.363" style="fill:none;stroke:#000000;stroke-width:0.5" />
<path d="M444.78,28.363L444.78,32.363" style="fill:none;stroke:#000000;stroke-width:0.5" />
<path d="M604.03,28.363L604.03,32.363" style="fill:none;stroke:#000000;stroke-width:0.5" />
<path d="M683.65,28.363L683.65,32.363" style="fill:none;stroke:#000000;stroke-width:0.5" />
<path d="M763.27,28.363L763.27,32.363" style="fill:none;stroke:#000000;stroke-width:0.5" />
<path d="M54.635,32.363L842.89,32.363" style="fill:none;stroke:#000000;stroke-width:0.5" />
<g transform="rotate(90)">
<text x="265.43" y="9.3867" transform="scale(1, -1)"
	style="font-family:Liberation Serif;font-variant:normal;font-weight:normal;font-style:normal;font-size:12px">Duration: ms</text>
</g>
<text x="20.885" y="-70.915" transform="scale(1, -1)"
	style="font-family:Liberation Serif;font-variant:normal;font-weight:normal;font-style:normal;font-size:10px">500</text>
<text x="15.885" y="-286.66" transform="scale(1, -1)"
	style="font-family:Liberation Serif;font-variant:normal;font-weight:normal;font-style:normal;font-size:10px">2000</text>
<text x="15.885" y="-502.4" transform="scale(1, -1)"
	style="font-family:Liberation Serif;font-variant:normal;font-weight:normal;font-style:normal;font-size:10px">3500</text>
<path d="M38.385,73.2L46.385,73.2" style="fill:none;stroke:#000000;stroke-width:0.5" />
<path d="M38.385,288.94L46.385,288.94" style="fill:none;stroke:#000000;stroke-width:0.5" />
<path d="M38.385,504.68L46.385,504.68" style="fill:none;stroke:#000000;stroke-width:0.5" />
<path d="M42.385,181.07L46.385,181.07" style="fill:none;stroke:#000000;stroke-width:0.5" />
<path d="M42.385,396.81L46.385,396.81" style="fill:none;stroke:#000000;stroke-width:0.5" />
<path d="M46.385,42.709L46.385,551.14" style="fill:none;stroke:#000000;stroke-width:0.5" />
<path d="M205.92,42.709L205.92,551.14" style="fill:none;stroke:#808080;stroke-width:0.25" />
<path d="M524.41,42.709L524.41,551.14" style="fill:none;stroke:#808080;stroke-width:0.25" />
<path d="M842.89,42.709L842.89,551.14" style="fill:none;stroke:#808080;stroke-width:0.25" />
<path d="M54.635,73.2L842.89,73.2" style="fill:none;stroke:#808080;stroke-width:0.25" />
<path d="M54.635,288.94L842.89,288.94" style="fill:none;stroke:#808080;stroke-width:0.25" />
<path d="M54.635,504.68L842.89,504.68" style="fill:none;stroke:#808080;stroke-width:0.25" />
<path d="M54.635,42.709L62.597,50.907L70.559,51.051L78.521,51.482L86.484,51.482L94.446,51.626L102.41,51.626L110.37,51.77L118.33,51.914L126.29,52.202L134.26,52.202L142.22,52.202L150.18,52.345L158.14,52.345L166.11,52.345L174.07,52.345L182.03,52.489L189.99,52.489L197.95,52.633L205.92,52.633L213.88,52.633L221.84,52.633L229.8,52.633L237.77,52.777L245.73,52.777L253.69,52.777L261.65,52.777L269.61,52.777L277.58,52.777L285.54,52.921L293.5,52.921L301.46,52.921L309.43,52.921L317.39,52.921L325.35,52.921L333.31,53.065L341.27,53.065L349.24,53.065L357.2,53.065L365.16,53.065L373.12,53.065L381.09,53.065L389.05,53.208L397.01,53.208L404.97,53.208L412.93,53.208L420.9,53.208L428.86,53.208L436.82,53.208L444.78,53.208L452.75,53.208L460.71,53.352L468.67,53.352L476.63,53.352L484.59,53.496L492.56,53.64L500.52,53.64L508.48,53.64L516.44,53.64L524.41,53.64L532.37,53.64L540.33,53.64L548.29,53.784L556.25,53.784L564.22,53.784L572.18,53.784L580.14,53.928L588.1,53.928L596.07,53.928L604.03,53.928L611.99,54.071L619.95,54.071L627.91,54.215L635.88,54.215L643.84,54.215L651.8,54.215L659.76,54.359L667.73,54.359L675.69,54.359L683.65,54.359L691.61,54.359L699.57,54.503L707.54,54.503L715.5,54.647L723.46,54.647L731.42,54.791L739.38,54.791L747.35,54.934L755.31,55.222L763.27,55.222L771.23,55.222L779.2,55.222L787.16,55.653L795.12,55.941L803.08,56.229L811.04,56.516L819.01,56.948L826.97,58.242L834.93,123.25L842.89,551.14" style="fill:none;stroke:#7AC36A" />
<path d="M54.635,45.834L51.928,41.146L57.341,41.146Z" style="fill:#7AC36A" />
<path d="M62.597,54.032L59.891,49.345L65.303,49.345Z" style="fill:#7AC36A" />
<path d="M70.559,54.176L67.853,49.488L73.266,49.488Z" style="fill:#7AC36A" />
<path d="M78.521,54.607L75.815,49.92L81.228,49.92Z" style="fill:#7AC36A" />
<path d="M86.484,54.607L83.777,49.92L89.19,49.92Z" style="fill:#7AC36A" />
<path d="M94.446,54.751L91.739,50.064L97.152,50.064Z" style="fill:#7AC36A" />
<path d="M102.41,54.751L99.702,50.064L105.11,50.064Z" style="fill:#7AC36A" />
<path d="M110.37,54.895L107.66,50.208L113.08,50.208Z" style="fill:#7AC36A" />
<path d="M118.33,55.039L115.63,50.351L121.04,50.351Z" style="fill:#7AC36A" />
<path d="M126.29,55.327L123.59,50.639L129,50.639Z" style="fill:#7AC36A" />
<path d="M134.26,55.327L131.55,50.639L136.96,50.639Z" style="fill:#7AC36A" />
<path d="M142.22,55.327L139.51,50.639L144.93,50.639Z" style="fill:#7AC36A" />
<path d="M150.18,55.47L147.47,50.783L152.89,50.783Z" style="fill:#7AC36A" />
<path d="M158.14,55.47L155.44,50.783L160.85,50.783Z" style="fill:#7AC36A" />
<path d="M166.11,55.47L163.4,50.783L168.81,50.783Z" style="fill:#7AC36A" />
<path d="M174.07,55.47L171.36,50.783L176.77,50.783Z" style="fill:#7AC36A" />
<path d="M182.03,55.614L179.32,50.927L184.74,50.927Z" style="fill:#7AC36A" />
<path d="M189.99,55.614L187.29,50.927L192.7,50.927Z" style="fill:#7AC36A" />
<path d="M197.95,55.758L195.25,51.071L200.66,51.071Z" style="fill:#7AC36A" />
<path d="M205.92,55.758L203.21,51.071L208.62,51.071Z" style="fill:#7AC36A" />
<path d="M213.88,55.758L211.17,51.071L216.59,51.071Z" style="fill:#7AC36A" />
<path d="M221.84,55.758L219.13,51.071L224.55,51.071Z" style="fill:#7AC36A" />
<path d="M229.8,55.758L227.1,51.071L232.51,51.071Z" style="fill:#7AC36A" />
<path d="M237.77,55.902L235.06,51.214L240.47,51.214Z" style="fill:#7AC36A" />
<path d="M245.73,55.902L243.02,51.214L248.43,51.214Z" style="fill:#7AC36A" />
<path d="M253.69,55.902L250.98,51.214L256.4,51.214Z" style="fill:#7AC36A" />
<path d="M261.65,55.902L258.95,51.214L264.36,51.214Z" style="fill:#7AC36A" />
<path d="M269.61,55.902L266.91,51.214L272.32,51.214Z" style="fill:#7AC36A" />
<path d="M277.58,55.902L274.87,51.214L280.28,51.214Z" style="fill:#7AC36A" />
<path d="M285.54,56.046L282.83,51.358L288.25,51.358Z" style="fill:#7AC36A" />
<path d="M293.5,56.046L290.79,51.358L296.21,51.358Z" style="fill:#7AC36A" />
<path d="M301.46,56.046L298.76,51.358L304.17,51.358Z" style="fill:#7AC36A" />
<path d="M309.43,56.046L306.72,51.358L312.13,51.358Z" style="fill:#7AC36A" />
<path d="M317.39,56.046L314.68,51.358L320.09,51.358Z" style="fill:#7AC36A" />
<path d="M325.35,56.046L322.64,51.358L328.06,51.358Z" style="fill:#7AC36A" />
<path d="M333.31,56.19L330.61,51.502L336.02,51.502Z" style="fill:#7AC36A" />
<path d="M341.27,56.19L338.57,51.502L343.98,51.502Z" style="fill:#7AC36A" />
<path d="M349.24,56.19L346.53,51.502L351.94,51.502Z" style="fill:#7AC36A" />
<path d="M357.2,56.19L354.49,51.502L359.91,51.502Z" style="fill:#7AC36A" />
<path d="M365.16,56.19L362.45,51.502L367.87,51.502Z" style="fill:#7AC36A" />
<path d="M373.12,56.19L370.42,51.502L375.83,51.502Z" style="fill:#7AC36A" />
<path d="M381.09,56.19L378.38,51.502L383.79,51.502Z" style="fill:#7AC36A" />
<path d="M389.05,56.333L386.34,51.646L391.75,51.646Z" style="fill:#7AC36A" />
<path d="M397.01,56.333L394.3,51.646L399.72,51.646Z" style="fill:#7AC36A" />
<path d="M404.97,56.333L402.27,51.646L407.68,51.646Z" style="fill:#7AC36A" />
<path d="M412.93,56.333L410.23,51.646L415.64,51.646Z" style="fill:#7AC36A" />
<path d="M420.9,56.333L418.19,51.646L423.6,51.646Z" style="fill:#7AC36A" />
<path d="M428.86,56.333L426.15,51.646L431.57,51.646Z" style="fill:#7AC36A" />
<path d="M436.82,56.333L434.11,51.646L439.53,51.646Z" style="fill:#7AC36A" />
<path d="M444.78,56.333L442.08,51.646L447.49,51.646Z" style="fill:#7AC36A" />
<path d="M452.75,56.333L450.04,51.646L455.45,51.646Z" style="fill:#7AC36A" />
<path d="M460.71,56.477L458,51.79L463.41,51.79Z" style="fill:#7AC36A" />
<path d="M468.67,56.477L465.96,51.79L471.38,51.79Z" style="fill:#7AC36A" />
<path d="M476.63,56.477L473.93,51.79L479.34,51.79Z" style="fill:#7AC36A" />
<path d="M484.59,56.621L481.89,51.934L487.3,51.934Z" style="fill:#7AC36A" />
<path d="M492.56,56.765L489.85,52.077L495.26,52.077Z" style="fill:#7AC36A" />
<path d="M500.52,56.765L497.81,52.077L503.22,52.077Z" style="fill:#7AC36A" />
<path d="M508.48,56.765L505.77,52.077L511.19,52.077Z" style="fill:#7AC36A" />
<path d="M516.44,56.765L513.74,52.077L519.15,52.077Z" style="fill:#7AC36A" />
<path d="M524.41,56.765L521.7,52.077L527.11,52.077Z" style="fill:#7AC36A" />
<path d="M532.37,56.765L529.66,52.077L535.07,52.077Z" style="fill:#7AC36A" />
<path d="M540.33,56.765L537.62,52.077L543.04,52.077Z" style="fill:#7AC36A" />
<path d="M548.29,56.909L545.59,52.221L551,52.221Z" style="fill:#7AC36A" />
<path d="M556.25,56.909L553.55,52.221L558.96,52.221Z" style="fill:#7AC36A" />
<path d="M564.22,56.909L561.51,52.221L566.92,52.221Z" style="fill:#7AC36A" />
<path d="M572.18,56.909L569.47,52.221L574.88,52.221Z" style="fill:#7AC36A" />
<path d="M580.14,57.053L577.43,52.365L582.85,52.365Z" style="fill:#7AC36A" />
<path d="M588.1,57.053L585.4,52.365L590.81,52.365Z" style="fill:#7AC36A" />
<path d="M596.07,57.053L593.36,52.365L598.77,52.365Z" style="fill:#7AC36A" />
<path d="M604.03,57.053L601.32,52.365L606.73,52.365Z" style="fill:#7AC36A" />
<path d="M611.99,57.196L609.28,52.509L614.7,52.509Z" style="fill:#7AC36A" />
<path d="M619.95,57.196L617.25,52.509L622.66,52.509Z" style="fill:#7AC36A" />
<path d="M627.91,57.34L625.21,52.653L630.62,52.653Z" style="fill:#7AC36A" />
<path d="M635.88,57.34L633.17,52.653L638.58,52.653Z" style="fill:#7AC36A" />
<path d="M643.84,57.34L641.13,52.653L646.54,52.653Z" style="fill:#7AC36A" />
<path d="M651.8,57.34L649.09,52.653L654.51,52.653Z" style="fill:#7AC36A" />
<path d="M659.76,57.484L657.06,52.797L662.47,52.797Z" style="fill:#7AC36A" />
<path d="M667.73,57.484L665.02,52.797L670.43,52.797Z" style="fill:#7AC36A" />
<path d="M675.69,57.484L672.98,52.797L678.39,52.797Z" style="fill:#7AC36A" />
<path d="M683.65,57.484L680.94,52.797L686.36,52.797Z" style="fill:#7AC36A" />
<path d="M691.61,57.484L688.91,52.797L694.32,52.797Z" style="fill:#7AC36A" />
<path d="M699.57,57.628L696.87,52.94L702.28,52.94Z" style="fill:#7AC36A" />
<path d="M707.54,57.628L704.83,52.94L710.24,52.94Z" style="fill:#7AC36A" />
<path d="M715.5,57.772L712.79,53.084L718.2,53.084Z" style="fill:#7AC36A" />
<path d="M723.46,57.772L720.75,53.084L726.17,53.084Z" style="fill:#7AC36A" />
<path d="M731.42,57.916L728.72,53.228L734.13,53.228Z" style="fill:#7AC36A" />
<path d="M739.38,57.916L736.68,53.228L742.09,53.228Z" style="fill:#7AC36A" />
<path d="M747.35,58.059L744.64,53.372L750.05,53.372Z" style="fill:#7AC36A" />
<path d="M755.31,58.347L752.6,53.659L758.02,53.659Z" style="fill:#7AC36A" />
<path d="M763.27,58.347L760.57,53.659L765.98,53.659Z" style="fill:#7AC36A" />
<path d="M771.23,58.347L768.53,53.659L773.94,53.659Z" style="fill:#7AC36A" />
<path d="M779.2,58.347L776.49,53.659L781.9,53.659Z" style="fill:#7AC36A" />
<path d="M787.16,58.778L784.45,54.091L789.86,54.091Z" style="fill:#7AC36A" />
<path d="M795.12,59.066L792.41,54.379L797.83,54.379Z" style="fill:#7AC36A" />
<path d="M803.08,59.354L800.38,54.666L805.79,54.666Z" style="fill:#7AC36A" />
<path d="M811.04,59.641L808.34,54.954L813.75,54.954Z" style="fill:#7AC36A" />
<path d="M819.01,60.073L816.3,55.385L821.71,55.385Z" style="fill:#7AC36A" />
<path d="M826.97,61.367L824.26,56.68L829.68,56.68Z" style="fill:#7AC36A" />
<path d="M834.93,126.38L832.23,121.69L837.64,121.69Z" style="fill:#7AC36A" />
<path d="M842.89,554.27L840.19,549.58L845.6,549.58Z" style="fill:#7AC36A" />
<path d="M830.39,45.301L850.39,45.301" style="fill:none;stroke:#7AC36A" />
<path d="M840.39,48.426L837.69,43.738L843.1,43.738Z" style="fill:#7AC36A" />
<text x="763.42" y="-42.813" transform="scale(1, -1)"
	style="font-family:Liberation Serif;font-variant:normal;font-weight:normal;font-style:normal;font-size:12px">to-fronted-up</text>
</g>
</svg>
