<?xml version="1.0"?>
<!-- Generated by SVGo and Plotinum VG -->
<svg width="850.39pt" height="566.93pt" viewBox="0 0 850.39 566.93"
	xmlns="http://www.w3.org/2000/svg"
	xmlns:xlink="http://www.w3.org/1999/xlink">
<g transform="scale(1, -1) translate(0, -566.93)">
<path d="M0,0L850.39,0L850.39,566.93L0,566.93Z" style="fill:#FFFFFF" />
<text x="289.2" y="-557.54" transform="scale(1, -1)"
	style="font-family:Liberation Serif;font-variant:normal;font-weight:normal;font-style:normal;font-size:12px">Raw Data Measures: regular-localhost-zeroload-800Kdb</text>
<text x="426.44" y="-3.9023" transform="scale(1, -1)"
	style="font-family:Liberation Serif;font-variant:normal;font-weight:normal;font-style:normal;font-size:12px">Restart ID</text>
<text x="52.135" y="-16.541" transform="scale(1, -1)"
	style="font-family:Liberation Serif;font-variant:normal;font-weight:normal;font-style:normal;font-size:10px">0</text>
<text x="290.02" y="-16.541" transform="scale(1, -1)"
	style="font-family:Liberation Serif;font-variant:normal;font-weight:normal;font-style:normal;font-size:10px">30</text>
<text x="530.4" y="-16.541" transform="scale(1, -1)"
	style="font-family:Liberation Serif;font-variant:normal;font-weight:normal;font-style:normal;font-size:10px">60</text>
<text x="770.78" y="-16.541" transform="scale(1, -1)"
	style="font-family:Liberation Serif;font-variant:normal;font-weight:normal;font-style:normal;font-size:10px">90</text>
<path d="M54.635,24.363L54.635,32.363" style="fill:none;stroke:#000000;stroke-width:0.5" />
<path d="M295.02,24.363L295.02,32.363" style="fill:none;stroke:#000000;stroke-width:0.5" />
<path d="M535.4,24.363L535.4,32.363" style="fill:none;stroke:#000000;stroke-width:0.5" />
<path d="M775.78,24.363L775.78,32.363" style="fill:none;stroke:#000000;stroke-width:0.5" />
<path d="M134.76,28.363L134.76,32.363" style="fill:none;stroke:#000000;stroke-width:0.5" />
<path d="M214.89,28.363L214.89,32.363" style="fill:none;stroke:#000000;stroke-width:0.5" />
<path d="M375.14,28.363L375.14,32.363" style="fill:none;stroke:#000000;stroke-width:0.5" />
<path d="M455.27,28.363L455.27,32.363" style="fill:none;stroke:#000000;stroke-width:0.5" />
<path d="M615.52,28.363L615.52,32.363" style="fill:none;stroke:#000000;stroke-width:0.5" />
<path d="M695.65,28.363L695.65,32.363" style="fill:none;stroke:#000000;stroke-width:0.5" />
<path d="M54.635,32.363L847.89,32.363" style="fill:none;stroke:#000000;stroke-width:0.5" />
<g transform="rotate(90)">
<text x="265.43" y="9.3867" transform="scale(1, -1)"
	style="font-family:Liberation Serif;font-variant:normal;font-weight:normal;font-style:normal;font-size:12px">Duration: ms</text>
</g>
<text x="20.885" y="-103.31" transform="scale(1, -1)"
	style="font-family:Liberation Serif;font-variant:normal;font-weight:normal;font-style:normal;font-size:10px">500</text>
<text x="15.885" y="-304.43" transform="scale(1, -1)"
	style="font-family:Liberation Serif;font-variant:normal;font-weight:normal;font-style:normal;font-size:10px">2000</text>
<text x="15.885" y="-505.55" transform="scale(1, -1)"
	style="font-family:Liberation Serif;font-variant:normal;font-weight:normal;font-style:normal;font-size:10px">3500</text>
<path d="M38.385,105.59L46.385,105.59" style="fill:none;stroke:#000000;stroke-width:0.5" />
<path d="M38.385,306.71L46.385,306.71" style="fill:none;stroke:#000000;stroke-width:0.5" />
<path d="M38.385,507.83L46.385,507.83" style="fill:none;stroke:#000000;stroke-width:0.5" />
<path d="M42.385,206.15L46.385,206.15" style="fill:none;stroke:#000000;stroke-width:0.5" />
<path d="M42.385,407.27L46.385,407.27" style="fill:none;stroke:#000000;stroke-width:0.5" />
<path d="M46.385,42.709L46.385,551.14" style="fill:none;stroke:#000000;stroke-width:0.5" />
<path d="M54.635,42.709L54.635,551.14" style="fill:none;stroke:#808080;stroke-width:0.25" />
<path d="M295.02,42.709L295.02,551.14" style="fill:none;stroke:#808080;stroke-width:0.25" />
<path d="M535.4,42.709L535.4,551.14" style="fill:none;stroke:#808080;stroke-width:0.25" />
<path d="M775.78,42.709L775.78,551.14" style="fill:none;stroke:#808080;stroke-width:0.25" />
<path d="M54.635,105.59L847.89,105.59" style="fill:none;stroke:#808080;stroke-width:0.25" />
<path d="M54.635,306.71L847.89,306.71" style="fill:none;stroke:#808080;stroke-width:0.25" />
<path d="M54.635,507.83L847.89,507.83" style="fill:none;stroke:#808080;stroke-width:0.25" />
<path d="M54.635,402.45L62.647,43.245L70.66,44.72L78.673,43.245L86.686,44.184L94.698,44.452L102.71,43.648L110.72,45.927L118.74,43.782L126.75,44.854L134.76,43.513L142.77,43.648L150.79,43.782L158.8,44.184L166.81,43.111L174.83,43.782L182.84,43.916L190.85,43.648L198.86,43.916L206.88,43.513L214.89,44.586L222.9,44.184L230.91,43.245L238.93,42.977L246.94,44.318L254.95,43.245L262.97,43.782L270.98,44.586L278.99,43.916L287,43.379L295.02,43.379L303.03,43.111L311.04,43.782L319.05,44.184L327.07,44.452L335.08,43.379L343.09,43.916L351.11,44.586L359.12,45.122L367.13,43.916L375.14,45.122L383.16,45.391L391.17,43.245L399.18,44.05L407.19,108.14L415.21,44.184L423.22,43.379L431.23,43.379L439.25,43.379L447.26,43.245L455.27,43.513L463.28,43.513L471.3,43.782L479.31,43.379L487.32,44.586L495.33,43.245L503.35,43.916L511.36,43.782L519.37,43.916L527.39,43.648L535.4,43.379L543.41,43.111L551.42,44.988L559.44,43.111L567.45,43.379L575.46,43.245L583.47,44.184L591.49,43.245L599.5,44.184L607.51,43.379L615.52,43.513L623.54,43.782L631.55,43.245L639.56,43.648L647.58,43.513L655.59,44.05L663.6,43.379L671.61,43.245L679.63,43.245L687.64,43.111L695.65,43.379L703.66,44.452L711.68,43.782L719.69,43.513L727.7,43.513L735.72,44.854L743.73,43.648L751.74,43.513L759.75,43.379L767.77,43.111L775.78,42.709L783.79,43.648L791.8,43.245L799.82,44.586L807.83,43.513L815.84,44.05L823.86,43.648L831.87,44.184L839.88,43.648L847.89,43.513" style="fill:none;stroke:#F15A60" />
<path d="M54.635,405.57L51.928,400.88L57.341,400.88Z" style="fill:#F15A60" />
<path d="M62.647,46.37L59.941,41.683L65.354,41.683Z" style="fill:#F15A60" />
<path d="M70.66,47.845L67.954,43.158L73.367,43.158Z" style="fill:#F15A60" />
<path d="M78.673,46.37L75.967,41.683L81.379,41.683Z" style="fill:#F15A60" />
<path d="M86.686,47.309L83.979,42.621L89.392,42.621Z" style="fill:#F15A60" />
<path d="M94.698,47.577L91.992,42.89L97.405,42.89Z" style="fill:#F15A60" />
<path d="M102.71,46.773L100,42.085L105.42,42.085Z" style="fill:#F15A60" />
<path d="M110.72,49.052L108.02,44.364L113.43,44.364Z" style="fill:#F15A60" />
<path d="M118.74,46.907L116.03,42.219L121.44,42.219Z" style="fill:#F15A60" />
<path d="M126.75,47.979L124.04,43.292L129.46,43.292Z" style="fill:#F15A60" />
<path d="M134.76,46.638L132.06,41.951L137.47,41.951Z" style="fill:#F15A60" />
<path d="M142.77,46.773L140.07,42.085L145.48,42.085Z" style="fill:#F15A60" />
<path d="M150.79,46.907L148.08,42.219L153.49,42.219Z" style="fill:#F15A60" />
<path d="M158.8,47.309L156.09,42.621L161.51,42.621Z" style="fill:#F15A60" />
<path d="M166.81,46.236L164.11,41.549L169.52,41.549Z" style="fill:#F15A60" />
<path d="M174.83,46.907L172.12,42.219L177.53,42.219Z" style="fill:#F15A60" />
<path d="M182.84,47.041L180.13,42.353L185.54,42.353Z" style="fill:#F15A60" />
<path d="M190.85,46.773L188.14,42.085L193.56,42.085Z" style="fill:#F15A60" />
<path d="M198.86,47.041L196.16,42.353L201.57,42.353Z" style="fill:#F15A60" />
<path d="M206.88,46.638L204.17,41.951L209.58,41.951Z" style="fill:#F15A60" />
<path d="M214.89,47.711L212.18,43.024L217.6,43.024Z" style="fill:#F15A60" />
<path d="M222.9,47.309L220.2,42.621L225.61,42.621Z" style="fill:#F15A60" />
<path d="M230.91,46.37L228.21,41.683L233.62,41.683Z" style="fill:#F15A60" />
<path d="M238.93,46.102L236.22,41.415L241.63,41.415Z" style="fill:#F15A60" />
<path d="M246.94,47.443L244.23,42.755L249.65,42.755Z" style="fill:#F15A60" />
<path d="M254.95,46.37L252.25,41.683L257.66,41.683Z" style="fill:#F15A60" />
<path d="M262.97,46.907L260.26,42.219L265.67,42.219Z" style="fill:#F15A60" />
<path d="M270.98,47.711L268.27,43.024L273.68,43.024Z" style="fill:#F15A60" />
<path d="M278.99,47.041L276.28,42.353L281.7,42.353Z" style="fill:#F15A60" />
<path d="M287,46.504L284.3,41.817L289.71,41.817Z" style="fill:#F15A60" />
<path d="M295.02,46.504L292.31,41.817L297.72,41.817Z" style="fill:#F15A60" />
<path d="M303.03,46.236L300.32,41.549L305.74,41.549Z" style="fill:#F15A60" />
<path d="M311.04,46.907L308.34,42.219L313.75,42.219Z" style="fill:#F15A60" />
<path d="M319.05,47.309L316.35,42.621L321.76,42.621Z" style="fill:#F15A60" />
<path d="M327.07,47.577L324.36,42.89L329.77,42.89Z" style="fill:#F15A60" />
<path d="M335.08,46.504L332.37,41.817L337.79,41.817Z" style="fill:#F15A60" />
<path d="M343.09,47.041L340.39,42.353L345.8,42.353Z" style="fill:#F15A60" />
<path d="M351.11,47.711L348.4,43.024L353.81,43.024Z" style="fill:#F15A60" />
<path d="M359.12,48.247L356.41,43.56L361.82,43.56Z" style="fill:#F15A60" />
<path d="M367.13,47.041L364.42,42.353L369.84,42.353Z" style="fill:#F15A60" />
<path d="M375.14,48.247L372.44,43.56L377.85,43.56Z" style="fill:#F15A60" />
<path d="M383.16,48.516L380.45,43.828L385.86,43.828Z" style="fill:#F15A60" />
<path d="M391.17,46.37L388.46,41.683L393.88,41.683Z" style="fill:#F15A60" />
<path d="M399.18,47.175L396.48,42.487L401.89,42.487Z" style="fill:#F15A60" />
<path d="M407.19,111.26L404.49,106.58L409.9,106.58Z" style="fill:#F15A60" />
<path d="M415.21,47.309L412.5,42.621L417.91,42.621Z" style="fill:#F15A60" />
<path d="M423.22,46.504L420.51,41.817L425.93,41.817Z" style="fill:#F15A60" />
<path d="M431.23,46.504L428.53,41.817L433.94,41.817Z" style="fill:#F15A60" />
<path d="M439.25,46.504L436.54,41.817L441.95,41.817Z" style="fill:#F15A60" />
<path d="M447.26,46.37L444.55,41.683L449.96,41.683Z" style="fill:#F15A60" />
<path d="M455.27,46.638L452.56,41.951L457.98,41.951Z" style="fill:#F15A60" />
<path d="M463.28,46.638L460.58,41.951L465.99,41.951Z" style="fill:#F15A60" />
<path d="M471.3,46.907L468.59,42.219L474,42.219Z" style="fill:#F15A60" />
<path d="M479.31,46.504L476.6,41.817L482.02,41.817Z" style="fill:#F15A60" />
<path d="M487.32,47.711L484.62,43.024L490.03,43.024Z" style="fill:#F15A60" />
<path d="M495.33,46.37L492.63,41.683L498.04,41.683Z" style="fill:#F15A60" />
<path d="M503.35,47.041L500.64,42.353L506.05,42.353Z" style="fill:#F15A60" />
<path d="M511.36,46.907L508.65,42.219L514.07,42.219Z" style="fill:#F15A60" />
<path d="M519.37,47.041L516.67,42.353L522.08,42.353Z" style="fill:#F15A60" />
<path d="M527.39,46.773L524.68,42.085L530.09,42.085Z" style="fill:#F15A60" />
<path d="M535.4,46.504L532.69,41.817L538.1,41.817Z" style="fill:#F15A60" />
<path d="M543.41,46.236L540.7,41.549L546.12,41.549Z" style="fill:#F15A60" />
<path d="M551.42,48.113L548.72,43.426L554.13,43.426Z" style="fill:#F15A60" />
<path d="M559.44,46.236L556.73,41.549L562.14,41.549Z" style="fill:#F15A60" />
<path d="M567.45,46.504L564.74,41.817L570.15,41.817Z" style="fill:#F15A60" />
<path d="M575.46,46.37L572.76,41.683L578.17,41.683Z" style="fill:#F15A60" />
<path d="M583.47,47.309L580.77,42.621L586.18,42.621Z" style="fill:#F15A60" />
<path d="M591.49,46.37L588.78,41.683L594.19,41.683Z" style="fill:#F15A60" />
<path d="M599.5,47.309L596.79,42.621L602.21,42.621Z" style="fill:#F15A60" />
<path d="M607.51,46.504L604.81,41.817L610.22,41.817Z" style="fill:#F15A60" />
<path d="M615.52,46.638L612.82,41.951L618.23,41.951Z" style="fill:#F15A60" />
<path d="M623.54,46.907L620.83,42.219L626.24,42.219Z" style="fill:#F15A60" />
<path d="M631.55,46.37L628.84,41.683L634.26,41.683Z" style="fill:#F15A60" />
<path d="M639.56,46.773L636.86,42.085L642.27,42.085Z" style="fill:#F15A60" />
<path d="M647.58,46.638L644.87,41.951L650.28,41.951Z" style="fill:#F15A60" />
<path d="M655.59,47.175L652.88,42.487L658.29,42.487Z" style="fill:#F15A60" />
<path d="M663.6,46.504L660.89,41.817L666.31,41.817Z" style="fill:#F15A60" />
<path d="M671.61,46.37L668.91,41.683L674.32,41.683Z" style="fill:#F15A60" />
<path d="M679.63,46.37L676.92,41.683L682.33,41.683Z" style="fill:#F15A60" />
<path d="M687.64,46.236L684.93,41.549L690.35,41.549Z" style="fill:#F15A60" />
<path d="M695.65,46.504L692.95,41.817L698.36,41.817Z" style="fill:#F15A60" />
<path d="M703.66,47.577L700.96,42.89L706.37,42.89Z" style="fill:#F15A60" />
<path d="M711.68,46.907L708.97,42.219L714.38,42.219Z" style="fill:#F15A60" />
<path d="M719.69,46.638L716.98,41.951L722.4,41.951Z" style="fill:#F15A60" />
<path d="M727.7,46.638L725,41.951L730.41,41.951Z" style="fill:#F15A60" />
<path d="M735.72,47.979L733.01,43.292L738.42,43.292Z" style="fill:#F15A60" />
<path d="M743.73,46.773L741.02,42.085L746.43,42.085Z" style="fill:#F15A60" />
<path d="M751.74,46.638L749.03,41.951L754.45,41.951Z" style="fill:#F15A60" />
<path d="M759.75,46.504L757.05,41.817L762.46,41.817Z" style="fill:#F15A60" />
<path d="M767.77,46.236L765.06,41.549L770.47,41.549Z" style="fill:#F15A60" />
<path d="M775.78,45.834L773.07,41.146L778.49,41.146Z" style="fill:#F15A60" />
<path d="M783.79,46.773L781.09,42.085L786.5,42.085Z" style="fill:#F15A60" />
<path d="M791.8,46.37L789.1,41.683L794.51,41.683Z" style="fill:#F15A60" />
<path d="M799.82,47.711L797.11,43.024L802.52,43.024Z" style="fill:#F15A60" />
<path d="M807.83,46.638L805.12,41.951L810.54,41.951Z" style="fill:#F15A60" />
<path d="M815.84,47.175L813.14,42.487L818.55,42.487Z" style="fill:#F15A60" />
<path d="M823.86,46.773L821.15,42.085L826.56,42.085Z" style="fill:#F15A60" />
<path d="M831.87,47.309L829.16,42.621L834.57,42.621Z" style="fill:#F15A60" />
<path d="M839.88,46.773L837.17,42.085L842.59,42.085Z" style="fill:#F15A60" />
<path d="M847.89,46.638L845.19,41.951L850.6,41.951Z" style="fill:#F15A60" />
<path d="M54.635,551.14L62.647,90.441L70.66,87.224L78.673,86.017L86.686,86.553L94.698,88.832L102.71,90.039L110.72,89.503L118.74,91.648L126.75,87.76L134.76,86.151L142.77,86.285L150.79,87.626L158.8,86.955L166.81,85.749L174.83,86.151L182.84,87.894L190.85,86.285L198.86,87.358L206.88,89.771L214.89,87.358L222.9,88.832L230.91,87.358L238.93,86.553L246.94,88.028L254.95,86.821L262.97,86.955L270.98,88.028L278.99,87.492L287,86.419L295.02,86.553L303.03,86.687L311.04,86.955L319.05,88.028L327.07,88.162L335.08,86.821L343.09,86.955L351.11,88.162L359.12,88.43L367.13,87.358L375.14,88.564L383.16,89.235L391.17,86.687L399.18,87.76L407.19,152.25L415.21,87.492L423.22,87.089L431.23,88.296L439.25,88.832L447.26,86.821L455.27,86.687L463.28,86.419L471.3,88.028L479.31,87.894L487.32,88.43L495.33,87.358L503.35,87.089L511.36,87.089L519.37,87.626L527.39,86.419L535.4,86.553L543.41,86.419L551.42,88.296L559.44,86.419L567.45,88.832L575.46,86.687L583.47,87.894L591.49,86.821L599.5,87.358L607.51,86.955L615.52,87.492L623.54,86.687L631.55,86.821L639.56,87.492L647.58,86.955L655.59,87.358L663.6,86.553L671.61,77.168L679.63,84.944L687.64,85.615L695.65,85.48L703.66,86.553L711.68,86.017L719.69,85.48L727.7,85.346L735.72,86.955L743.73,86.151L751.74,86.151L759.75,85.346L767.77,84.81L775.78,86.017L783.79,87.626L791.8,86.687L799.82,88.028L807.83,86.821L815.84,87.894L823.86,86.955L831.87,87.626L839.88,86.955L847.89,86.821" style="fill:none;stroke:#7AC36A" />
<path d="M54.635,554.27L51.928,549.58L57.341,549.58Z" style="fill:#7AC36A" />
<path d="M62.647,93.566L59.941,88.879L65.354,88.879Z" style="fill:#7AC36A" />
<path d="M70.66,90.349L67.954,85.661L73.367,85.661Z" style="fill:#7AC36A" />
<path d="M78.673,89.142L75.967,84.454L81.379,84.454Z" style="fill:#7AC36A" />
<path d="M86.686,89.678L83.979,84.991L89.392,84.991Z" style="fill:#7AC36A" />
<path d="M94.698,91.957L91.992,87.27L97.405,87.27Z" style="fill:#7AC36A" />
<path d="M102.71,93.164L100,88.477L105.42,88.477Z" style="fill:#7AC36A" />
<path d="M110.72,92.628L108.02,87.94L113.43,87.94Z" style="fill:#7AC36A" />
<path d="M118.74,94.773L116.03,90.086L121.44,90.086Z" style="fill:#7AC36A" />
<path d="M126.75,90.885L124.04,86.197L129.46,86.197Z" style="fill:#7AC36A" />
<path d="M134.76,89.276L132.06,84.588L137.47,84.588Z" style="fill:#7AC36A" />
<path d="M142.77,89.41L140.07,84.722L145.48,84.722Z" style="fill:#7AC36A" />
<path d="M150.79,90.751L148.08,86.063L153.49,86.063Z" style="fill:#7AC36A" />
<path d="M158.8,90.08L156.09,85.393L161.51,85.393Z" style="fill:#7AC36A" />
<path d="M166.81,88.874L164.11,84.186L169.52,84.186Z" style="fill:#7AC36A" />
<path d="M174.83,89.276L172.12,84.588L177.53,84.588Z" style="fill:#7AC36A" />
<path d="M182.84,91.019L180.13,86.331L185.54,86.331Z" style="fill:#7AC36A" />
<path d="M190.85,89.41L188.14,84.722L193.56,84.722Z" style="fill:#7AC36A" />
<path d="M198.86,90.483L196.16,85.795L201.57,85.795Z" style="fill:#7AC36A" />
<path d="M206.88,92.896L204.17,88.209L209.58,88.209Z" style="fill:#7AC36A" />
<path d="M214.89,90.483L212.18,85.795L217.6,85.795Z" style="fill:#7AC36A" />
<path d="M222.9,91.957L220.2,87.27L225.61,87.27Z" style="fill:#7AC36A" />
<path d="M230.91,90.483L228.21,85.795L233.62,85.795Z" style="fill:#7AC36A" />
<path d="M238.93,89.678L236.22,84.991L241.63,84.991Z" style="fill:#7AC36A" />
<path d="M246.94,91.153L244.23,86.466L249.65,86.466Z" style="fill:#7AC36A" />
<path d="M254.95,89.946L252.25,85.259L257.66,85.259Z" style="fill:#7AC36A" />
<path d="M262.97,90.08L260.26,85.393L265.67,85.393Z" style="fill:#7AC36A" />
<path d="M270.98,91.153L268.27,86.466L273.68,86.466Z" style="fill:#7AC36A" />
<path d="M278.99,90.617L276.28,85.929L281.7,85.929Z" style="fill:#7AC36A" />
<path d="M287,89.544L284.3,84.857L289.71,84.857Z" style="fill:#7AC36A" />
<path d="M295.02,89.678L292.31,84.991L297.72,84.991Z" style="fill:#7AC36A" />
<path d="M303.03,89.812L300.32,85.125L305.74,85.125Z" style="fill:#7AC36A" />
<path d="M311.04,90.08L308.34,85.393L313.75,85.393Z" style="fill:#7AC36A" />
<path d="M319.05,91.153L316.35,86.466L321.76,86.466Z" style="fill:#7AC36A" />
<path d="M327.07,91.287L324.36,86.6L329.77,86.6Z" style="fill:#7AC36A" />
<path d="M335.08,89.946L332.37,85.259L337.79,85.259Z" style="fill:#7AC36A" />
<path d="M343.09,90.08L340.39,85.393L345.8,85.393Z" style="fill:#7AC36A" />
<path d="M351.11,91.287L348.4,86.6L353.81,86.6Z" style="fill:#7AC36A" />
<path d="M359.12,91.555L356.41,86.868L361.82,86.868Z" style="fill:#7AC36A" />
<path d="M367.13,90.483L364.42,85.795L369.84,85.795Z" style="fill:#7AC36A" />
<path d="M375.14,91.689L372.44,87.002L377.85,87.002Z" style="fill:#7AC36A" />
<path d="M383.16,92.36L380.45,87.672L385.86,87.672Z" style="fill:#7AC36A" />
<path d="M391.17,89.812L388.46,85.125L393.88,85.125Z" style="fill:#7AC36A" />
<path d="M399.18,90.885L396.48,86.197L401.89,86.197Z" style="fill:#7AC36A" />
<path d="M407.19,155.38L404.49,150.69L409.9,150.69Z" style="fill:#7AC36A" />
<path d="M415.21,90.617L412.5,85.929L417.91,85.929Z" style="fill:#7AC36A" />
<path d="M423.22,90.214L420.51,85.527L425.93,85.527Z" style="fill:#7AC36A" />
<path d="M431.23,91.421L428.53,86.734L433.94,86.734Z" style="fill:#7AC36A" />
<path d="M439.25,91.957L436.54,87.27L441.95,87.27Z" style="fill:#7AC36A" />
<path d="M447.26,89.946L444.55,85.259L449.96,85.259Z" style="fill:#7AC36A" />
<path d="M455.27,89.812L452.56,85.125L457.98,85.125Z" style="fill:#7AC36A" />
<path d="M463.28,89.544L460.58,84.857L465.99,84.857Z" style="fill:#7AC36A" />
<path d="M471.3,91.153L468.59,86.466L474,86.466Z" style="fill:#7AC36A" />
<path d="M479.31,91.019L476.6,86.331L482.02,86.331Z" style="fill:#7AC36A" />
<path d="M487.32,91.555L484.62,86.868L490.03,86.868Z" style="fill:#7AC36A" />
<path d="M495.33,90.483L492.63,85.795L498.04,85.795Z" style="fill:#7AC36A" />
<path d="M503.35,90.214L500.64,85.527L506.05,85.527Z" style="fill:#7AC36A" />
<path d="M511.36,90.214L508.65,85.527L514.07,85.527Z" style="fill:#7AC36A" />
<path d="M519.37,90.751L516.67,86.063L522.08,86.063Z" style="fill:#7AC36A" />
<path d="M527.39,89.544L524.68,84.857L530.09,84.857Z" style="fill:#7AC36A" />
<path d="M535.4,89.678L532.69,84.991L538.1,84.991Z" style="fill:#7AC36A" />
<path d="M543.41,89.544L540.7,84.857L546.12,84.857Z" style="fill:#7AC36A" />
<path d="M551.42,91.421L548.72,86.734L554.13,86.734Z" style="fill:#7AC36A" />
<path d="M559.44,89.544L556.73,84.857L562.14,84.857Z" style="fill:#7AC36A" />
<path d="M567.45,91.957L564.74,87.27L570.15,87.27Z" style="fill:#7AC36A" />
<path d="M575.46,89.812L572.76,85.125L578.17,85.125Z" style="fill:#7AC36A" />
<path d="M583.47,91.019L580.77,86.331L586.18,86.331Z" style="fill:#7AC36A" />
<path d="M591.49,89.946L588.78,85.259L594.19,85.259Z" style="fill:#7AC36A" />
<path d="M599.5,90.483L596.79,85.795L602.21,85.795Z" style="fill:#7AC36A" />
<path d="M607.51,90.08L604.81,85.393L610.22,85.393Z" style="fill:#7AC36A" />
<path d="M615.52,90.617L612.82,85.929L618.23,85.929Z" style="fill:#7AC36A" />
<path d="M623.54,89.812L620.83,85.125L626.24,85.125Z" style="fill:#7AC36A" />
<path d="M631.55,89.946L628.84,85.259L634.26,85.259Z" style="fill:#7AC36A" />
<path d="M639.56,90.617L636.86,85.929L642.27,85.929Z" style="fill:#7AC36A" />
<path d="M647.58,90.08L644.87,85.393L650.28,85.393Z" style="fill:#7AC36A" />
<path d="M655.59,90.483L652.88,85.795L658.29,85.795Z" style="fill:#7AC36A" />
<path d="M663.6,89.678L660.89,84.991L666.31,84.991Z" style="fill:#7AC36A" />
<path d="M671.61,80.293L668.91,75.605L674.32,75.605Z" style="fill:#7AC36A" />
<path d="M679.63,88.069L676.92,83.382L682.33,83.382Z" style="fill:#7AC36A" />
<path d="M687.64,88.74L684.93,84.052L690.35,84.052Z" style="fill:#7AC36A" />
<path d="M695.65,88.605L692.95,83.918L698.36,83.918Z" style="fill:#7AC36A" />
<path d="M703.66,89.678L700.96,84.991L706.37,84.991Z" style="fill:#7AC36A" />
<path d="M711.68,89.142L708.97,84.454L714.38,84.454Z" style="fill:#7AC36A" />
<path d="M719.69,88.605L716.98,83.918L722.4,83.918Z" style="fill:#7AC36A" />
<path d="M727.7,88.471L725,83.784L730.41,83.784Z" style="fill:#7AC36A" />
<path d="M735.72,90.08L733.01,85.393L738.42,85.393Z" style="fill:#7AC36A" />
<path d="M743.73,89.276L741.02,84.588L746.43,84.588Z" style="fill:#7AC36A" />
<path d="M751.74,89.276L749.03,84.588L754.45,84.588Z" style="fill:#7AC36A" />
<path d="M759.75,88.471L757.05,83.784L762.46,83.784Z" style="fill:#7AC36A" />
<path d="M767.77,87.935L765.06,83.248L770.47,83.248Z" style="fill:#7AC36A" />
<path d="M775.78,89.142L773.07,84.454L778.49,84.454Z" style="fill:#7AC36A" />
<path d="M783.79,90.751L781.09,86.063L786.5,86.063Z" style="fill:#7AC36A" />
<path d="M791.8,89.812L789.1,85.125L794.51,85.125Z" style="fill:#7AC36A" />
<path d="M799.82,91.153L797.11,86.466L802.52,86.466Z" style="fill:#7AC36A" />
<path d="M807.83,89.946L805.12,85.259L810.54,85.259Z" style="fill:#7AC36A" />
<path d="M815.84,91.019L813.14,86.331L818.55,86.331Z" style="fill:#7AC36A" />
<path d="M823.86,90.08L821.15,85.393L826.56,85.393Z" style="fill:#7AC36A" />
<path d="M831.87,90.751L829.16,86.063L834.57,86.063Z" style="fill:#7AC36A" />
<path d="M839.88,90.08L837.17,85.393L842.59,85.393Z" style="fill:#7AC36A" />
<path d="M847.89,89.946L845.19,85.259L850.6,85.259Z" style="fill:#7AC36A" />
<path d="M54.635,187.11L62.647,85.615L70.66,80.922L78.673,81.19L86.686,80.788L94.698,82.799L102.71,84.81L110.72,82.128L118.74,86.419L126.75,81.324L134.76,81.19L142.77,81.19L150.79,82.263L158.8,81.324L166.81,81.056L174.83,80.922L182.84,82.397L190.85,81.19L198.86,81.994L206.88,84.676L214.89,81.324L222.9,83.067L230.91,82.665L238.93,82.128L246.94,82.128L254.95,82.128L262.97,81.592L270.98,81.86L278.99,82.128L287,81.592L295.02,81.726L303.03,82.128L311.04,81.592L319.05,82.397L327.07,82.128L335.08,81.994L343.09,81.592L351.11,81.994L359.12,81.86L367.13,81.994L375.14,81.994L383.16,82.263L391.17,81.86L399.18,82.128L407.19,82.665L415.21,81.86L423.22,82.128L431.23,83.335L439.25,83.872L447.26,82.128L455.27,81.592L463.28,81.458L471.3,82.799L479.31,83.067L487.32,82.263L495.33,82.665L503.35,81.592L511.36,81.86L519.37,82.263L527.39,81.324L535.4,81.726L543.41,81.726L551.42,81.86L559.44,81.726L567.45,84.006L575.46,81.994L583.47,82.128L591.49,82.128L599.5,81.592L607.51,81.994L615.52,82.531L623.54,81.458L631.55,81.994L639.56,82.263L647.58,81.86L655.59,81.726L663.6,81.726L671.61,72.475L679.63,80.251L687.64,80.922L695.65,80.654L703.66,80.52L711.68,80.654L719.69,80.385L727.7,80.251L735.72,80.654L743.73,80.922L751.74,81.056L759.75,80.385L767.77,80.117L775.78,81.726L783.79,82.397L791.8,81.994L799.82,81.994L807.83,81.726L815.84,82.263L823.86,81.726L831.87,81.994L839.88,81.726L847.89,81.726" style="fill:none;stroke:#5A9BD4" />
<path d="M54.635,190.24L51.928,185.55L57.341,185.55Z" style="fill:#5A9BD4" />
<path d="M62.647,88.74L59.941,84.052L65.354,84.052Z" style="fill:#5A9BD4" />
<path d="M70.66,84.047L67.954,79.359L73.367,79.359Z" style="fill:#5A9BD4" />
<path d="M78.673,84.315L75.967,79.627L81.379,79.627Z" style="fill:#5A9BD4" />
<path d="M86.686,83.913L83.979,79.225L89.392,79.225Z" style="fill:#5A9BD4" />
<path d="M94.698,85.924L91.992,81.236L97.405,81.236Z" style="fill:#5A9BD4" />
<path d="M102.71,87.935L100,83.248L105.42,83.248Z" style="fill:#5A9BD4" />
<path d="M110.72,85.253L108.02,80.566L113.43,80.566Z" style="fill:#5A9BD4" />
<path d="M118.74,89.544L116.03,84.857L121.44,84.857Z" style="fill:#5A9BD4" />
<path d="M126.75,84.449L124.04,79.762L129.46,79.762Z" style="fill:#5A9BD4" />
<path d="M134.76,84.315L132.06,79.627L137.47,79.627Z" style="fill:#5A9BD4" />
<path d="M142.77,84.315L140.07,79.627L145.48,79.627Z" style="fill:#5A9BD4" />
<path d="M150.79,85.388L148.08,80.7L153.49,80.7Z" style="fill:#5A9BD4" />
<path d="M158.8,84.449L156.09,79.762L161.51,79.762Z" style="fill:#5A9BD4" />
<path d="M166.81,84.181L164.11,79.493L169.52,79.493Z" style="fill:#5A9BD4" />
<path d="M174.83,84.047L172.12,79.359L177.53,79.359Z" style="fill:#5A9BD4" />
<path d="M182.84,85.522L180.13,80.834L185.54,80.834Z" style="fill:#5A9BD4" />
<path d="M190.85,84.315L188.14,79.627L193.56,79.627Z" style="fill:#5A9BD4" />
<path d="M198.86,85.119L196.16,80.432L201.57,80.432Z" style="fill:#5A9BD4" />
<path d="M206.88,87.801L204.17,83.114L209.58,83.114Z" style="fill:#5A9BD4" />
<path d="M214.89,84.449L212.18,79.762L217.6,79.762Z" style="fill:#5A9BD4" />
<path d="M222.9,86.192L220.2,81.505L225.61,81.505Z" style="fill:#5A9BD4" />
<path d="M230.91,85.79L228.21,81.102L233.62,81.102Z" style="fill:#5A9BD4" />
<path d="M238.93,85.253L236.22,80.566L241.63,80.566Z" style="fill:#5A9BD4" />
<path d="M246.94,85.253L244.23,80.566L249.65,80.566Z" style="fill:#5A9BD4" />
<path d="M254.95,85.253L252.25,80.566L257.66,80.566Z" style="fill:#5A9BD4" />
<path d="M262.97,84.717L260.26,80.03L265.67,80.03Z" style="fill:#5A9BD4" />
<path d="M270.98,84.985L268.27,80.298L273.68,80.298Z" style="fill:#5A9BD4" />
<path d="M278.99,85.253L276.28,80.566L281.7,80.566Z" style="fill:#5A9BD4" />
<path d="M287,84.717L284.3,80.03L289.71,80.03Z" style="fill:#5A9BD4" />
<path d="M295.02,84.851L292.31,80.164L297.72,80.164Z" style="fill:#5A9BD4" />
<path d="M303.03,85.253L300.32,80.566L305.74,80.566Z" style="fill:#5A9BD4" />
<path d="M311.04,84.717L308.34,80.03L313.75,80.03Z" style="fill:#5A9BD4" />
<path d="M319.05,85.522L316.35,80.834L321.76,80.834Z" style="fill:#5A9BD4" />
<path d="M327.07,85.253L324.36,80.566L329.77,80.566Z" style="fill:#5A9BD4" />
<path d="M335.08,85.119L332.37,80.432L337.79,80.432Z" style="fill:#5A9BD4" />
<path d="M343.09,84.717L340.39,80.03L345.8,80.03Z" style="fill:#5A9BD4" />
<path d="M351.11,85.119L348.4,80.432L353.81,80.432Z" style="fill:#5A9BD4" />
<path d="M359.12,84.985L356.41,80.298L361.82,80.298Z" style="fill:#5A9BD4" />
<path d="M367.13,85.119L364.42,80.432L369.84,80.432Z" style="fill:#5A9BD4" />
<path d="M375.14,85.119L372.44,80.432L377.85,80.432Z" style="fill:#5A9BD4" />
<path d="M383.16,85.388L380.45,80.7L385.86,80.7Z" style="fill:#5A9BD4" />
<path d="M391.17,84.985L388.46,80.298L393.88,80.298Z" style="fill:#5A9BD4" />
<path d="M399.18,85.253L396.48,80.566L401.89,80.566Z" style="fill:#5A9BD4" />
<path d="M407.19,85.79L404.49,81.102L409.9,81.102Z" style="fill:#5A9BD4" />
<path d="M415.21,84.985L412.5,80.298L417.91,80.298Z" style="fill:#5A9BD4" />
<path d="M423.22,85.253L420.51,80.566L425.93,80.566Z" style="fill:#5A9BD4" />
<path d="M431.23,86.46L428.53,81.773L433.94,81.773Z" style="fill:#5A9BD4" />
<path d="M439.25,86.997L436.54,82.309L441.95,82.309Z" style="fill:#5A9BD4" />
<path d="M447.26,85.253L444.55,80.566L449.96,80.566Z" style="fill:#5A9BD4" />
<path d="M455.27,84.717L452.56,80.03L457.98,80.03Z" style="fill:#5A9BD4" />
<path d="M463.28,84.583L460.58,79.896L465.99,79.896Z" style="fill:#5A9BD4" />
<path d="M471.3,85.924L468.59,81.236L474,81.236Z" style="fill:#5A9BD4" />
<path d="M479.31,86.192L476.6,81.505L482.02,81.505Z" style="fill:#5A9BD4" />
<path d="M487.32,85.388L484.62,80.7L490.03,80.7Z" style="fill:#5A9BD4" />
<path d="M495.33,85.79L492.63,81.102L498.04,81.102Z" style="fill:#5A9BD4" />
<path d="M503.35,84.717L500.64,80.03L506.05,80.03Z" style="fill:#5A9BD4" />
<path d="M511.36,84.985L508.65,80.298L514.07,80.298Z" style="fill:#5A9BD4" />
<path d="M519.37,85.388L516.67,80.7L522.08,80.7Z" style="fill:#5A9BD4" />
<path d="M527.39,84.449L524.68,79.762L530.09,79.762Z" style="fill:#5A9BD4" />
<path d="M535.4,84.851L532.69,80.164L538.1,80.164Z" style="fill:#5A9BD4" />
<path d="M543.41,84.851L540.7,80.164L546.12,80.164Z" style="fill:#5A9BD4" />
<path d="M551.42,84.985L548.72,80.298L554.13,80.298Z" style="fill:#5A9BD4" />
<path d="M559.44,84.851L556.73,80.164L562.14,80.164Z" style="fill:#5A9BD4" />
<path d="M567.45,87.131L564.74,82.443L570.15,82.443Z" style="fill:#5A9BD4" />
<path d="M575.46,85.119L572.76,80.432L578.17,80.432Z" style="fill:#5A9BD4" />
<path d="M583.47,85.253L580.77,80.566L586.18,80.566Z" style="fill:#5A9BD4" />
<path d="M591.49,85.253L588.78,80.566L594.19,80.566Z" style="fill:#5A9BD4" />
<path d="M599.5,84.717L596.79,80.03L602.21,80.03Z" style="fill:#5A9BD4" />
<path d="M607.51,85.119L604.81,80.432L610.22,80.432Z" style="fill:#5A9BD4" />
<path d="M615.52,85.656L612.82,80.968L618.23,80.968Z" style="fill:#5A9BD4" />
<path d="M623.54,84.583L620.83,79.896L626.24,79.896Z" style="fill:#5A9BD4" />
<path d="M631.55,85.119L628.84,80.432L634.26,80.432Z" style="fill:#5A9BD4" />
<path d="M639.56,85.388L636.86,80.7L642.27,80.7Z" style="fill:#5A9BD4" />
<path d="M647.58,84.985L644.87,80.298L650.28,80.298Z" style="fill:#5A9BD4" />
<path d="M655.59,84.851L652.88,80.164L658.29,80.164Z" style="fill:#5A9BD4" />
<path d="M663.6,84.851L660.89,80.164L666.31,80.164Z" style="fill:#5A9BD4" />
<path d="M671.61,75.6L668.91,70.912L674.32,70.912Z" style="fill:#5A9BD4" />
<path d="M679.63,83.376L676.92,78.689L682.33,78.689Z" style="fill:#5A9BD4" />
<path d="M687.64,84.047L684.93,79.359L690.35,79.359Z" style="fill:#5A9BD4" />
<path d="M695.65,83.779L692.95,79.091L698.36,79.091Z" style="fill:#5A9BD4" />
<path d="M703.66,83.645L700.96,78.957L706.37,78.957Z" style="fill:#5A9BD4" />
<path d="M711.68,83.779L708.97,79.091L714.38,79.091Z" style="fill:#5A9BD4" />
<path d="M719.69,83.51L716.98,78.823L722.4,78.823Z" style="fill:#5A9BD4" />
<path d="M727.7,83.376L725,78.689L730.41,78.689Z" style="fill:#5A9BD4" />
<path d="M735.72,83.779L733.01,79.091L738.42,79.091Z" style="fill:#5A9BD4" />
<path d="M743.73,84.047L741.02,79.359L746.43,79.359Z" style="fill:#5A9BD4" />
<path d="M751.74,84.181L749.03,79.493L754.45,79.493Z" style="fill:#5A9BD4" />
<path d="M759.75,83.51L757.05,78.823L762.46,78.823Z" style="fill:#5A9BD4" />
<path d="M767.77,83.242L765.06,78.555L770.47,78.555Z" style="fill:#5A9BD4" />
<path d="M775.78,84.851L773.07,80.164L778.49,80.164Z" style="fill:#5A9BD4" />
<path d="M783.79,85.522L781.09,80.834L786.5,80.834Z" style="fill:#5A9BD4" />
<path d="M791.8,85.119L789.1,80.432L794.51,80.432Z" style="fill:#5A9BD4" />
<path d="M799.82,85.119L797.11,80.432L802.52,80.432Z" style="fill:#5A9BD4" />
<path d="M807.83,84.851L805.12,80.164L810.54,80.164Z" style="fill:#5A9BD4" />
<path d="M815.84,85.388L813.14,80.7L818.55,80.7Z" style="fill:#5A9BD4" />
<path d="M823.86,84.851L821.15,80.164L826.56,80.164Z" style="fill:#5A9BD4" />
<path d="M831.87,85.119L829.16,80.432L834.57,80.432Z" style="fill:#5A9BD4" />
<path d="M839.88,84.851L837.17,80.164L842.59,80.164Z" style="fill:#5A9BD4" />
<path d="M847.89,84.851L845.19,80.164L850.6,80.164Z" style="fill:#5A9BD4" />
<path d="M830.39,65.668L850.39,65.668" style="fill:none;stroke:#F15A60" />
<path d="M840.39,68.793L837.69,64.105L843.1,64.105Z" style="fill:#F15A60" />
<text x="790.07" y="-63.181" transform="scale(1, -1)"
	style="font-family:Liberation Serif;font-variant:normal;font-weight:normal;font-style:normal;font-size:12px">to-main</text>
<path d="M830.39,55.484L850.39,55.484" style="fill:none;stroke:#7AC36A" />
<path d="M840.39,58.609L837.69,53.922L843.1,53.922Z" style="fill:#7AC36A" />
<text x="763.42" y="-52.997" transform="scale(1, -1)"
	style="font-family:Liberation Serif;font-variant:normal;font-weight:normal;font-style:normal;font-size:12px">to-fronted-up</text>
<path d="M830.39,45.301L850.39,45.301" style="fill:none;stroke:#5A9BD4" />
<path d="M840.39,48.426L837.69,43.738L843.1,43.738Z" style="fill:#5A9BD4" />
<text x="721.44" y="-42.813" transform="scale(1, -1)"
	style="font-family:Liberation Serif;font-variant:normal;font-weight:normal;font-style:normal;font-size:12px">fronted-up-main-delta</text>
</g>
</svg>
