<?xml version="1.0"?>
<!-- Generated by SVGo and Plotinum VG -->
<svg width="850.39pt" height="566.93pt" viewBox="0 0 850.39 566.93"
	xmlns="http://www.w3.org/2000/svg"
	xmlns:xlink="http://www.w3.org/1999/xlink">
<g transform="scale(1, -1) translate(0, -566.93)">
<path d="M0,0L850.39,0L850.39,566.93L0,566.93Z" style="fill:#FFFFFF" />
<text x="234.88" y="-557.54" transform="scale(1, -1)"
	style="font-family:Liberation Serif;font-variant:normal;font-weight:normal;font-style:normal;font-size:12px">Percentiles - FrontEndUp (Nearest Rank): regular-localhost-incremental-fill-5k</text>
<text x="424.78" y="-3.9023" transform="scale(1, -1)"
	style="font-family:Liberation Serif;font-variant:normal;font-weight:normal;font-style:normal;font-size:12px">Percentile</text>
<text x="200.92" y="-16.541" transform="scale(1, -1)"
	style="font-family:Liberation Serif;font-variant:normal;font-weight:normal;font-style:normal;font-size:10px">20</text>
<text x="519.41" y="-16.541" transform="scale(1, -1)"
	style="font-family:Liberation Serif;font-variant:normal;font-weight:normal;font-style:normal;font-size:10px">60</text>
<text x="835.39" y="-16.541" transform="scale(1, -1)"
	style="font-family:Liberation Serif;font-variant:normal;font-weight:normal;font-style:normal;font-size:10px">100</text>
<path d="M205.92,24.363L205.92,32.363" style="fill:none;stroke:#000000;stroke-width:0.5" />
<path d="M524.41,24.363L524.41,32.363" style="fill:none;stroke:#000000;stroke-width:0.5" />
<path d="M842.89,24.363L842.89,32.363" style="fill:none;stroke:#000000;stroke-width:0.5" />
<path d="M126.29,28.363L126.29,32.363" style="fill:none;stroke:#000000;stroke-width:0.5" />
<path d="M285.54,28.363L285.54,32.363" style="fill:none;stroke:#000000;stroke-width:0.5" />
<path d="M365.16,28.363L365.16,32.363" style="fill:none;stroke:#000000;stroke-width:0.5" />
<path d="M444.78,28.363L444.78,32.363" style="fill:none;stroke:#000000;stroke-width:0.5" />
<path d="M604.03,28.363L604.03,32.363" style="fill:none;stroke:#000000;stroke-width:0.5" />
<path d="M683.65,28.363L683.65,32.363" style="fill:none;stroke:#000000;stroke-width:0.5" />
<path d="M763.27,28.363L763.27,32.363" style="fill:none;stroke:#000000;stroke-width:0.5" />
<path d="M54.635,32.363L842.89,32.363" style="fill:none;stroke:#000000;stroke-width:0.5" />
<g transform="rotate(90)">
<text x="265.43" y="9.3867" transform="scale(1, -1)"
	style="font-family:Liberation Serif;font-variant:normal;font-weight:normal;font-style:normal;font-size:12px">Duration: ms</text>
</g>
<text x="20.885" y="-97.314" transform="scale(1, -1)"
	style="font-family:Liberation Serif;font-variant:normal;font-weight:normal;font-style:normal;font-size:10px">500</text>
<text x="15.885" y="-296.23" transform="scale(1, -1)"
	style="font-family:Liberation Serif;font-variant:normal;font-weight:normal;font-style:normal;font-size:10px">1000</text>
<text x="15.885" y="-495.15" transform="scale(1, -1)"
	style="font-family:Liberation Serif;font-variant:normal;font-weight:normal;font-style:normal;font-size:10px">1500</text>
<path d="M38.385,99.599L46.385,99.599" style="fill:none;stroke:#000000;stroke-width:0.5" />
<path d="M38.385,298.52L46.385,298.52" style="fill:none;stroke:#000000;stroke-width:0.5" />
<path d="M38.385,497.43L46.385,497.43" style="fill:none;stroke:#000000;stroke-width:0.5" />
<path d="M42.385,59.816L46.385,59.816" style="fill:none;stroke:#000000;stroke-width:0.5" />
<path d="M42.385,139.38L46.385,139.38" style="fill:none;stroke:#000000;stroke-width:0.5" />
<path d="M42.385,179.17L46.385,179.17" style="fill:none;stroke:#000000;stroke-width:0.5" />
<path d="M42.385,218.95L46.385,218.95" style="fill:none;stroke:#000000;stroke-width:0.5" />
<path d="M42.385,258.73L46.385,258.73" style="fill:none;stroke:#000000;stroke-width:0.5" />
<path d="M42.385,338.3L46.385,338.3" style="fill:none;stroke:#000000;stroke-width:0.5" />
<path d="M42.385,378.08L46.385,378.08" style="fill:none;stroke:#000000;stroke-width:0.5" />
<path d="M42.385,417.87L46.385,417.87" style="fill:none;stroke:#000000;stroke-width:0.5" />
<path d="M42.385,457.65L46.385,457.65" style="fill:none;stroke:#000000;stroke-width:0.5" />
<path d="M42.385,537.22L46.385,537.22" style="fill:none;stroke:#000000;stroke-width:0.5" />
<path d="M46.385,42.709L46.385,551.14" style="fill:none;stroke:#000000;stroke-width:0.5" />
<path d="M205.92,42.709L205.92,551.14" style="fill:none;stroke:#808080;stroke-width:0.25" />
<path d="M524.41,42.709L524.41,551.14" style="fill:none;stroke:#808080;stroke-width:0.25" />
<path d="M842.89,42.709L842.89,551.14" style="fill:none;stroke:#808080;stroke-width:0.25" />
<path d="M54.635,99.599L842.89,99.599" style="fill:none;stroke:#808080;stroke-width:0.25" />
<path d="M54.635,298.52L842.89,298.52" style="fill:none;stroke:#808080;stroke-width:0.25" />
<path d="M54.635,497.43L842.89,497.43" style="fill:none;stroke:#808080;stroke-width:0.25" />
<path d="M54.635,42.709L62.597,52.257L70.559,52.257L78.521,55.042L86.484,60.214L94.446,61.805L102.41,66.579L110.37,68.17L118.33,68.17L126.29,72.546L134.26,73.342L142.22,73.342L150.18,73.74L158.14,80.105L166.11,83.288L174.07,84.084L182.03,86.471L189.99,86.471L197.95,98.803L205.92,101.99L213.88,104.77L221.84,104.77L229.8,104.77L237.77,107.16L245.73,115.91L253.69,117.1L261.65,119.09L269.61,125.46L277.58,127.45L285.54,127.45L293.5,127.85L301.46,130.63L309.43,131.82L317.39,131.82L325.35,132.62L333.31,136.6L341.27,137L349.24,137.39L357.2,139.38L365.16,139.78L373.12,140.97L381.09,142.57L389.05,143.36L397.01,145.75L404.97,145.75L412.93,146.15L420.9,150.12L428.86,152.91L436.82,152.91L444.78,154.5L452.75,155.69L460.71,155.69L468.67,156.89L476.63,160.47L484.59,162.06L492.56,166.04L500.52,168.42L508.48,169.22L516.44,171.61L524.41,172.4L532.37,173.2L540.33,181.95L548.29,183.14L556.25,183.14L564.22,187.92L572.18,189.51L580.14,191.1L588.1,191.5L596.07,195.48L604.03,195.87L611.99,196.27L619.95,196.67L627.91,197.47L635.88,198.26L643.84,204.23L651.8,206.62L659.76,213.78L667.73,214.18L675.69,220.94L683.65,222.13L691.61,222.53L699.57,229.29L707.54,229.29L715.5,233.67L723.46,233.67L731.42,241.23L739.38,244.81L747.35,259.93L755.31,266.69L763.27,278.23L771.23,286.98L779.2,300.9L787.16,301.7L795.12,301.7L803.08,308.46L811.04,317.21L819.01,345.06L826.97,409.91L834.93,427.41L842.89,551.14" style="fill:none;stroke:#7AC36A" />
<path d="M54.635,45.834L51.928,41.146L57.341,41.146Z" style="fill:#7AC36A" />
<path d="M62.597,55.382L59.891,50.694L65.303,50.694Z" style="fill:#7AC36A" />
<path d="M70.559,55.382L67.853,50.694L73.266,50.694Z" style="fill:#7AC36A" />
<path d="M78.521,58.167L75.815,53.479L81.228,53.479Z" style="fill:#7AC36A" />
<path d="M86.484,63.339L83.777,58.651L89.19,58.651Z" style="fill:#7AC36A" />
<path d="M94.446,64.93L91.739,60.242L97.152,60.242Z" style="fill:#7AC36A" />
<path d="M102.41,69.704L99.702,65.016L105.11,65.016Z" style="fill:#7AC36A" />
<path d="M110.37,71.295L107.66,66.608L113.08,66.608Z" style="fill:#7AC36A" />
<path d="M118.33,71.295L115.63,66.608L121.04,66.608Z" style="fill:#7AC36A" />
<path d="M126.29,75.671L123.59,70.984L129,70.984Z" style="fill:#7AC36A" />
<path d="M134.26,76.467L131.55,71.78L136.96,71.78Z" style="fill:#7AC36A" />
<path d="M142.22,76.467L139.51,71.78L144.93,71.78Z" style="fill:#7AC36A" />
<path d="M150.18,76.865L147.47,72.177L152.89,72.177Z" style="fill:#7AC36A" />
<path d="M158.14,83.23L155.44,78.543L160.85,78.543Z" style="fill:#7AC36A" />
<path d="M166.11,86.413L163.4,81.725L168.81,81.725Z" style="fill:#7AC36A" />
<path d="M174.07,87.209L171.36,82.521L176.77,82.521Z" style="fill:#7AC36A" />
<path d="M182.03,89.596L179.32,84.908L184.74,84.908Z" style="fill:#7AC36A" />
<path d="M189.99,89.596L187.29,84.908L192.7,84.908Z" style="fill:#7AC36A" />
<path d="M197.95,101.93L195.25,97.241L200.66,97.241Z" style="fill:#7AC36A" />
<path d="M205.92,105.11L203.21,100.42L208.62,100.42Z" style="fill:#7AC36A" />
<path d="M213.88,107.9L211.17,103.21L216.59,103.21Z" style="fill:#7AC36A" />
<path d="M221.84,107.9L219.13,103.21L224.55,103.21Z" style="fill:#7AC36A" />
<path d="M229.8,107.9L227.1,103.21L232.51,103.21Z" style="fill:#7AC36A" />
<path d="M237.77,110.28L235.06,105.6L240.47,105.6Z" style="fill:#7AC36A" />
<path d="M245.73,119.04L243.02,114.35L248.43,114.35Z" style="fill:#7AC36A" />
<path d="M253.69,120.23L250.98,115.54L256.4,115.54Z" style="fill:#7AC36A" />
<path d="M261.65,122.22L258.95,117.53L264.36,117.53Z" style="fill:#7AC36A" />
<path d="M269.61,128.58L266.91,123.9L272.32,123.9Z" style="fill:#7AC36A" />
<path d="M277.58,130.57L274.87,125.88L280.28,125.88Z" style="fill:#7AC36A" />
<path d="M285.54,130.57L282.83,125.88L288.25,125.88Z" style="fill:#7AC36A" />
<path d="M293.5,130.97L290.79,126.28L296.21,126.28Z" style="fill:#7AC36A" />
<path d="M301.46,133.76L298.76,129.07L304.17,129.07Z" style="fill:#7AC36A" />
<path d="M309.43,134.95L306.72,130.26L312.13,130.26Z" style="fill:#7AC36A" />
<path d="M317.39,134.95L314.68,130.26L320.09,130.26Z" style="fill:#7AC36A" />
<path d="M325.35,135.74L322.64,131.06L328.06,131.06Z" style="fill:#7AC36A" />
<path d="M333.31,139.72L330.61,135.04L336.02,135.04Z" style="fill:#7AC36A" />
<path d="M341.27,140.12L338.57,135.43L343.98,135.43Z" style="fill:#7AC36A" />
<path d="M349.24,140.52L346.53,135.83L351.94,135.83Z" style="fill:#7AC36A" />
<path d="M357.2,142.51L354.49,137.82L359.91,137.82Z" style="fill:#7AC36A" />
<path d="M365.16,142.91L362.45,138.22L367.87,138.22Z" style="fill:#7AC36A" />
<path d="M373.12,144.1L370.42,139.41L375.83,139.41Z" style="fill:#7AC36A" />
<path d="M381.09,145.69L378.38,141L383.79,141Z" style="fill:#7AC36A" />
<path d="M389.05,146.49L386.34,141.8L391.75,141.8Z" style="fill:#7AC36A" />
<path d="M397.01,148.87L394.3,144.19L399.72,144.19Z" style="fill:#7AC36A" />
<path d="M404.97,148.87L402.27,144.19L407.68,144.19Z" style="fill:#7AC36A" />
<path d="M412.93,149.27L410.23,144.58L415.64,144.58Z" style="fill:#7AC36A" />
<path d="M420.9,153.25L418.19,148.56L423.6,148.56Z" style="fill:#7AC36A" />
<path d="M428.86,156.03L426.15,151.35L431.57,151.35Z" style="fill:#7AC36A" />
<path d="M436.82,156.03L434.11,151.35L439.53,151.35Z" style="fill:#7AC36A" />
<path d="M444.78,157.63L442.08,152.94L447.49,152.94Z" style="fill:#7AC36A" />
<path d="M452.75,158.82L450.04,154.13L455.45,154.13Z" style="fill:#7AC36A" />
<path d="M460.71,158.82L458,154.13L463.41,154.13Z" style="fill:#7AC36A" />
<path d="M468.67,160.01L465.96,155.32L471.38,155.32Z" style="fill:#7AC36A" />
<path d="M476.63,163.59L473.93,158.91L479.34,158.91Z" style="fill:#7AC36A" />
<path d="M484.59,165.18L481.89,160.5L487.3,160.5Z" style="fill:#7AC36A" />
<path d="M492.56,169.16L489.85,164.47L495.26,164.47Z" style="fill:#7AC36A" />
<path d="M500.52,171.55L497.81,166.86L503.22,166.86Z" style="fill:#7AC36A" />
<path d="M508.48,172.35L505.77,167.66L511.19,167.66Z" style="fill:#7AC36A" />
<path d="M516.44,174.73L513.74,170.04L519.15,170.04Z" style="fill:#7AC36A" />
<path d="M524.41,175.53L521.7,170.84L527.11,170.84Z" style="fill:#7AC36A" />
<path d="M532.37,176.32L529.66,171.64L535.07,171.64Z" style="fill:#7AC36A" />
<path d="M540.33,185.08L537.62,180.39L543.04,180.39Z" style="fill:#7AC36A" />
<path d="M548.29,186.27L545.59,181.58L551,181.58Z" style="fill:#7AC36A" />
<path d="M556.25,186.27L553.55,181.58L558.96,181.58Z" style="fill:#7AC36A" />
<path d="M564.22,191.04L561.51,186.36L566.92,186.36Z" style="fill:#7AC36A" />
<path d="M572.18,192.63L569.47,187.95L574.88,187.95Z" style="fill:#7AC36A" />
<path d="M580.14,194.23L577.43,189.54L582.85,189.54Z" style="fill:#7AC36A" />
<path d="M588.1,194.62L585.4,189.94L590.81,189.94Z" style="fill:#7AC36A" />
<path d="M596.07,198.6L593.36,193.91L598.77,193.91Z" style="fill:#7AC36A" />
<path d="M604.03,199L601.32,194.31L606.73,194.31Z" style="fill:#7AC36A" />
<path d="M611.99,199.4L609.28,194.71L614.7,194.71Z" style="fill:#7AC36A" />
<path d="M619.95,199.8L617.25,195.11L622.66,195.11Z" style="fill:#7AC36A" />
<path d="M627.91,200.59L625.21,195.9L630.62,195.9Z" style="fill:#7AC36A" />
<path d="M635.88,201.39L633.17,196.7L638.58,196.7Z" style="fill:#7AC36A" />
<path d="M643.84,207.35L641.13,202.67L646.54,202.67Z" style="fill:#7AC36A" />
<path d="M651.8,209.74L649.09,205.05L654.51,205.05Z" style="fill:#7AC36A" />
<path d="M659.76,216.9L657.06,212.21L662.47,212.21Z" style="fill:#7AC36A" />
<path d="M667.73,217.3L665.02,212.61L670.43,212.61Z" style="fill:#7AC36A" />
<path d="M675.69,224.06L672.98,219.38L678.39,219.38Z" style="fill:#7AC36A" />
<path d="M683.65,225.26L680.94,220.57L686.36,220.57Z" style="fill:#7AC36A" />
<path d="M691.61,225.65L688.91,220.97L694.32,220.97Z" style="fill:#7AC36A" />
<path d="M699.57,232.42L696.87,227.73L702.28,227.73Z" style="fill:#7AC36A" />
<path d="M707.54,232.42L704.83,227.73L710.24,227.73Z" style="fill:#7AC36A" />
<path d="M715.5,236.79L712.79,232.11L718.2,232.11Z" style="fill:#7AC36A" />
<path d="M723.46,236.79L720.75,232.11L726.17,232.11Z" style="fill:#7AC36A" />
<path d="M731.42,244.35L728.72,239.67L734.13,239.67Z" style="fill:#7AC36A" />
<path d="M739.38,247.93L736.68,243.25L742.09,243.25Z" style="fill:#7AC36A" />
<path d="M747.35,263.05L744.64,258.36L750.05,258.36Z" style="fill:#7AC36A" />
<path d="M755.31,269.81L752.6,265.13L758.02,265.13Z" style="fill:#7AC36A" />
<path d="M763.27,281.35L760.57,276.66L765.98,276.66Z" style="fill:#7AC36A" />
<path d="M771.23,290.1L768.53,285.42L773.94,285.42Z" style="fill:#7AC36A" />
<path d="M779.2,304.03L776.49,299.34L781.9,299.34Z" style="fill:#7AC36A" />
<path d="M787.16,304.82L784.45,300.14L789.86,300.14Z" style="fill:#7AC36A" />
<path d="M795.12,304.82L792.41,300.14L797.83,300.14Z" style="fill:#7AC36A" />
<path d="M803.08,311.59L800.38,306.9L805.79,306.9Z" style="fill:#7AC36A" />
<path d="M811.04,320.34L808.34,315.65L813.75,315.65Z" style="fill:#7AC36A" />
<path d="M819.01,348.19L816.3,343.5L821.71,343.5Z" style="fill:#7AC36A" />
<path d="M826.97,413.03L824.26,408.35L829.68,408.35Z" style="fill:#7AC36A" />
<path d="M834.93,430.54L832.23,425.85L837.64,425.85Z" style="fill:#7AC36A" />
<path d="M842.89,554.27L840.19,549.58L845.6,549.58Z" style="fill:#7AC36A" />
<path d="M830.39,45.301L850.39,45.301" style="fill:none;stroke:#7AC36A" />
<path d="M840.39,48.426L837.69,43.738L843.1,43.738Z" style="fill:#7AC36A" />
<text x="763.42" y="-42.813" transform="scale(1, -1)"
	style="font-family:Liberation Serif;font-variant:normal;font-weight:normal;font-style:normal;font-size:12px">to-fronted-up</text>
</g>
</svg>
