<?xml version="1.0"?>
<!-- Generated by SVGo and Plotinum VG -->
<svg width="850.39pt" height="566.93pt" viewBox="0 0 850.39 566.93"
	xmlns="http://www.w3.org/2000/svg"
	xmlns:xlink="http://www.w3.org/1999/xlink">
<g transform="scale(1, -1) translate(0, -566.93)">
<path d="M0,0L850.39,0L850.39,566.93L0,566.93Z" style="fill:#FFFFFF" />
<text x="205.23" y="-557.54" transform="scale(1, -1)"
	style="font-family:Liberation Serif;font-variant:normal;font-weight:normal;font-style:normal;font-size:12px">Percentiles - FrontEndUp-Main-Delta (Nearest Rank): regular-localhost-incremental-fill-5k</text>
<text x="424.78" y="-3.9023" transform="scale(1, -1)"
	style="font-family:Liberation Serif;font-variant:normal;font-weight:normal;font-style:normal;font-size:12px">Percentile</text>
<text x="200.92" y="-16.541" transform="scale(1, -1)"
	style="font-family:Liberation Serif;font-variant:normal;font-weight:normal;font-style:normal;font-size:10px">20</text>
<text x="519.41" y="-16.541" transform="scale(1, -1)"
	style="font-family:Liberation Serif;font-variant:normal;font-weight:normal;font-style:normal;font-size:10px">60</text>
<text x="835.39" y="-16.541" transform="scale(1, -1)"
	style="font-family:Liberation Serif;font-variant:normal;font-weight:normal;font-style:normal;font-size:10px">100</text>
<path d="M205.92,24.363L205.92,32.363" style="fill:none;stroke:#000000;stroke-width:0.5" />
<path d="M524.41,24.363L524.41,32.363" style="fill:none;stroke:#000000;stroke-width:0.5" />
<path d="M842.89,24.363L842.89,32.363" style="fill:none;stroke:#000000;stroke-width:0.5" />
<path d="M126.29,28.363L126.29,32.363" style="fill:none;stroke:#000000;stroke-width:0.5" />
<path d="M285.54,28.363L285.54,32.363" style="fill:none;stroke:#000000;stroke-width:0.5" />
<path d="M365.16,28.363L365.16,32.363" style="fill:none;stroke:#000000;stroke-width:0.5" />
<path d="M444.78,28.363L444.78,32.363" style="fill:none;stroke:#000000;stroke-width:0.5" />
<path d="M604.03,28.363L604.03,32.363" style="fill:none;stroke:#000000;stroke-width:0.5" />
<path d="M683.65,28.363L683.65,32.363" style="fill:none;stroke:#000000;stroke-width:0.5" />
<path d="M763.27,28.363L763.27,32.363" style="fill:none;stroke:#000000;stroke-width:0.5" />
<path d="M54.635,32.363L842.89,32.363" style="fill:none;stroke:#000000;stroke-width:0.5" />
<g transform="rotate(90)">
<text x="265.43" y="9.3867" transform="scale(1, -1)"
	style="font-family:Liberation Serif;font-variant:normal;font-weight:normal;font-style:normal;font-size:12px">Duration: ms</text>
</g>
<text x="20.885" y="-79.775" transform="scale(1, -1)"
	style="font-family:Liberation Serif;font-variant:normal;font-weight:normal;font-style:normal;font-size:10px">400</text>
<text x="20.885" y="-258.64" transform="scale(1, -1)"
	style="font-family:Liberation Serif;font-variant:normal;font-weight:normal;font-style:normal;font-size:10px">800</text>
<text x="15.885" y="-437.51" transform="scale(1, -1)"
	style="font-family:Liberation Serif;font-variant:normal;font-weight:normal;font-style:normal;font-size:10px">1200</text>
<path d="M38.385,82.06L46.385,82.06" style="fill:none;stroke:#000000;stroke-width:0.5" />
<path d="M38.385,260.93L46.385,260.93" style="fill:none;stroke:#000000;stroke-width:0.5" />
<path d="M38.385,439.8L46.385,439.8" style="fill:none;stroke:#000000;stroke-width:0.5" />
<path d="M42.385,126.78L46.385,126.78" style="fill:none;stroke:#000000;stroke-width:0.5" />
<path d="M42.385,171.49L46.385,171.49" style="fill:none;stroke:#000000;stroke-width:0.5" />
<path d="M42.385,216.21L46.385,216.21" style="fill:none;stroke:#000000;stroke-width:0.5" />
<path d="M42.385,305.64L46.385,305.64" style="fill:none;stroke:#000000;stroke-width:0.5" />
<path d="M42.385,350.36L46.385,350.36" style="fill:none;stroke:#000000;stroke-width:0.5" />
<path d="M42.385,395.08L46.385,395.08" style="fill:none;stroke:#000000;stroke-width:0.5" />
<path d="M42.385,484.51L46.385,484.51" style="fill:none;stroke:#000000;stroke-width:0.5" />
<path d="M42.385,529.23L46.385,529.23" style="fill:none;stroke:#000000;stroke-width:0.5" />
<path d="M46.385,42.709L46.385,551.14" style="fill:none;stroke:#000000;stroke-width:0.5" />
<path d="M205.92,42.709L205.92,551.14" style="fill:none;stroke:#808080;stroke-width:0.25" />
<path d="M524.41,42.709L524.41,551.14" style="fill:none;stroke:#808080;stroke-width:0.25" />
<path d="M842.89,42.709L842.89,551.14" style="fill:none;stroke:#808080;stroke-width:0.25" />
<path d="M54.635,82.06L842.89,82.06" style="fill:none;stroke:#808080;stroke-width:0.25" />
<path d="M54.635,260.93L842.89,260.93" style="fill:none;stroke:#808080;stroke-width:0.25" />
<path d="M54.635,439.8L842.89,439.8" style="fill:none;stroke:#808080;stroke-width:0.25" />
<path d="M54.635,42.709L62.597,43.603L70.559,43.603L78.521,46.286L86.484,46.734L94.446,47.181L102.41,47.628L110.37,48.522L118.33,51.652L126.29,54.335L134.26,55.23L142.22,57.913L150.18,61.043L158.14,62.384L166.11,63.726L174.07,65.067L182.03,65.515L189.99,69.092L197.95,79.377L205.92,90.109L213.88,90.556L221.84,92.345L229.8,95.922L237.77,97.264L245.73,99.499L253.69,102.63L261.65,103.52L269.61,104.87L277.58,108L285.54,112.47L293.5,116.94L301.46,119.62L309.43,120.07L317.39,120.52L325.35,124.99L333.31,125.44L341.27,126.33L349.24,126.78L357.2,126.78L365.16,129.01L373.12,130.8L381.09,131.25L389.05,137.06L397.01,137.06L404.97,137.96L412.93,139.3L420.9,141.98L428.86,142.43L436.82,142.87L444.78,143.32L452.75,143.32L460.71,146.45L468.67,146.45L476.63,149.14L484.59,150.92L492.56,151.37L500.52,152.71L508.48,156.29L516.44,156.74L524.41,162.55L532.37,163L540.33,165.68L548.29,166.57L556.25,167.92L564.22,175.97L572.18,180.88L580.14,186.25L588.1,187.14L596.07,190.27L604.03,192.06L611.99,192.51L619.95,192.51L627.91,194.3L635.88,194.75L643.84,195.64L651.8,195.64L659.76,196.54L667.73,197.88L675.69,206.82L683.65,209.95L691.61,212.63L699.57,217.1L707.54,217.1L715.5,226.94L723.46,230.52L731.42,236.78L739.38,237.23L747.35,248.85L755.31,249.3L763.27,267.19L771.23,282.39L779.2,285.52L787.16,285.97L795.12,292.68L803.08,311.01L811.04,314.59L819.01,338.73L826.97,392.84L834.93,433.53L842.89,551.14" style="fill:none;stroke:#5A9BD4" />
<path d="M54.635,45.834L51.928,41.146L57.341,41.146Z" style="fill:#5A9BD4" />
<path d="M62.597,46.728L59.891,42.041L65.303,42.041Z" style="fill:#5A9BD4" />
<path d="M70.559,46.728L67.853,42.041L73.266,42.041Z" style="fill:#5A9BD4" />
<path d="M78.521,49.411L75.815,44.724L81.228,44.724Z" style="fill:#5A9BD4" />
<path d="M86.484,49.859L83.777,45.171L89.19,45.171Z" style="fill:#5A9BD4" />
<path d="M94.446,50.306L91.739,45.618L97.152,45.618Z" style="fill:#5A9BD4" />
<path d="M102.41,50.753L99.702,46.065L105.11,46.065Z" style="fill:#5A9BD4" />
<path d="M110.37,51.647L107.66,46.96L113.08,46.96Z" style="fill:#5A9BD4" />
<path d="M118.33,54.777L115.63,50.09L121.04,50.09Z" style="fill:#5A9BD4" />
<path d="M126.29,57.46L123.59,52.773L129,52.773Z" style="fill:#5A9BD4" />
<path d="M134.26,58.355L131.55,53.667L136.96,53.667Z" style="fill:#5A9BD4" />
<path d="M142.22,61.038L139.51,56.35L144.93,56.35Z" style="fill:#5A9BD4" />
<path d="M150.18,64.168L147.47,59.48L152.89,59.48Z" style="fill:#5A9BD4" />
<path d="M158.14,65.509L155.44,60.822L160.85,60.822Z" style="fill:#5A9BD4" />
<path d="M166.11,66.851L163.4,62.163L168.81,62.163Z" style="fill:#5A9BD4" />
<path d="M174.07,68.192L171.36,63.505L176.77,63.505Z" style="fill:#5A9BD4" />
<path d="M182.03,68.64L179.32,63.952L184.74,63.952Z" style="fill:#5A9BD4" />
<path d="M189.99,72.217L187.29,67.529L192.7,67.529Z" style="fill:#5A9BD4" />
<path d="M197.95,82.502L195.25,77.814L200.66,77.814Z" style="fill:#5A9BD4" />
<path d="M205.92,93.234L203.21,88.546L208.62,88.546Z" style="fill:#5A9BD4" />
<path d="M213.88,93.681L211.17,88.994L216.59,88.994Z" style="fill:#5A9BD4" />
<path d="M221.84,95.47L219.13,90.782L224.55,90.782Z" style="fill:#5A9BD4" />
<path d="M229.8,99.047L227.1,94.36L232.51,94.36Z" style="fill:#5A9BD4" />
<path d="M237.77,100.39L235.06,95.701L240.47,95.701Z" style="fill:#5A9BD4" />
<path d="M245.73,102.62L243.02,97.937L248.43,97.937Z" style="fill:#5A9BD4" />
<path d="M253.69,105.75L250.98,101.07L256.4,101.07Z" style="fill:#5A9BD4" />
<path d="M261.65,106.65L258.95,101.96L264.36,101.96Z" style="fill:#5A9BD4" />
<path d="M269.61,107.99L266.91,103.3L272.32,103.3Z" style="fill:#5A9BD4" />
<path d="M277.58,111.12L274.87,106.43L280.28,106.43Z" style="fill:#5A9BD4" />
<path d="M285.54,115.59L282.83,110.9L288.25,110.9Z" style="fill:#5A9BD4" />
<path d="M293.5,120.06L290.79,115.38L296.21,115.38Z" style="fill:#5A9BD4" />
<path d="M301.46,122.75L298.76,118.06L304.17,118.06Z" style="fill:#5A9BD4" />
<path d="M309.43,123.19L306.72,118.51L312.13,118.51Z" style="fill:#5A9BD4" />
<path d="M317.39,123.64L314.68,118.95L320.09,118.95Z" style="fill:#5A9BD4" />
<path d="M325.35,128.11L322.64,123.43L328.06,123.43Z" style="fill:#5A9BD4" />
<path d="M333.31,128.56L330.61,123.87L336.02,123.87Z" style="fill:#5A9BD4" />
<path d="M341.27,129.45L338.57,124.77L343.98,124.77Z" style="fill:#5A9BD4" />
<path d="M349.24,129.9L346.53,125.21L351.94,125.21Z" style="fill:#5A9BD4" />
<path d="M357.2,129.9L354.49,125.21L359.91,125.21Z" style="fill:#5A9BD4" />
<path d="M365.16,132.14L362.45,127.45L367.87,127.45Z" style="fill:#5A9BD4" />
<path d="M373.12,133.93L370.42,129.24L375.83,129.24Z" style="fill:#5A9BD4" />
<path d="M381.09,134.37L378.38,129.69L383.79,129.69Z" style="fill:#5A9BD4" />
<path d="M389.05,140.19L386.34,135.5L391.75,135.5Z" style="fill:#5A9BD4" />
<path d="M397.01,140.19L394.3,135.5L399.72,135.5Z" style="fill:#5A9BD4" />
<path d="M404.97,141.08L402.27,136.39L407.68,136.39Z" style="fill:#5A9BD4" />
<path d="M412.93,142.42L410.23,137.73L415.64,137.73Z" style="fill:#5A9BD4" />
<path d="M420.9,145.11L418.19,140.42L423.6,140.42Z" style="fill:#5A9BD4" />
<path d="M428.86,145.55L426.15,140.87L431.57,140.87Z" style="fill:#5A9BD4" />
<path d="M436.82,146L434.11,141.31L439.53,141.31Z" style="fill:#5A9BD4" />
<path d="M444.78,146.45L442.08,141.76L447.49,141.76Z" style="fill:#5A9BD4" />
<path d="M452.75,146.45L450.04,141.76L455.45,141.76Z" style="fill:#5A9BD4" />
<path d="M460.71,149.58L458,144.89L463.41,144.89Z" style="fill:#5A9BD4" />
<path d="M468.67,149.58L465.96,144.89L471.38,144.89Z" style="fill:#5A9BD4" />
<path d="M476.63,152.26L473.93,147.57L479.34,147.57Z" style="fill:#5A9BD4" />
<path d="M484.59,154.05L481.89,149.36L487.3,149.36Z" style="fill:#5A9BD4" />
<path d="M492.56,154.5L489.85,149.81L495.26,149.81Z" style="fill:#5A9BD4" />
<path d="M500.52,155.84L497.81,151.15L503.22,151.15Z" style="fill:#5A9BD4" />
<path d="M508.48,159.41L505.77,154.73L511.19,154.73Z" style="fill:#5A9BD4" />
<path d="M516.44,159.86L513.74,155.17L519.15,155.17Z" style="fill:#5A9BD4" />
<path d="M524.41,165.68L521.7,160.99L527.11,160.99Z" style="fill:#5A9BD4" />
<path d="M532.37,166.12L529.66,161.43L535.07,161.43Z" style="fill:#5A9BD4" />
<path d="M540.33,168.81L537.62,164.12L543.04,164.12Z" style="fill:#5A9BD4" />
<path d="M548.29,169.7L545.59,165.01L551,165.01Z" style="fill:#5A9BD4" />
<path d="M556.25,171.04L553.55,166.35L558.96,166.35Z" style="fill:#5A9BD4" />
<path d="M564.22,179.09L561.51,174.4L566.92,174.4Z" style="fill:#5A9BD4" />
<path d="M572.18,184.01L569.47,179.32L574.88,179.32Z" style="fill:#5A9BD4" />
<path d="M580.14,189.38L577.43,184.69L582.85,184.69Z" style="fill:#5A9BD4" />
<path d="M588.1,190.27L585.4,185.58L590.81,185.58Z" style="fill:#5A9BD4" />
<path d="M596.07,193.4L593.36,188.71L598.77,188.71Z" style="fill:#5A9BD4" />
<path d="M604.03,195.19L601.32,190.5L606.73,190.5Z" style="fill:#5A9BD4" />
<path d="M611.99,195.64L609.28,190.95L614.7,190.95Z" style="fill:#5A9BD4" />
<path d="M619.95,195.64L617.25,190.95L622.66,190.95Z" style="fill:#5A9BD4" />
<path d="M627.91,197.42L625.21,192.74L630.62,192.74Z" style="fill:#5A9BD4" />
<path d="M635.88,197.87L633.17,193.18L638.58,193.18Z" style="fill:#5A9BD4" />
<path d="M643.84,198.77L641.13,194.08L646.54,194.08Z" style="fill:#5A9BD4" />
<path d="M651.8,198.77L649.09,194.08L654.51,194.08Z" style="fill:#5A9BD4" />
<path d="M659.76,199.66L657.06,194.97L662.47,194.97Z" style="fill:#5A9BD4" />
<path d="M667.73,201L665.02,196.31L670.43,196.31Z" style="fill:#5A9BD4" />
<path d="M675.69,209.94L672.98,205.26L678.39,205.26Z" style="fill:#5A9BD4" />
<path d="M683.65,213.08L680.94,208.39L686.36,208.39Z" style="fill:#5A9BD4" />
<path d="M691.61,215.76L688.91,211.07L694.32,211.07Z" style="fill:#5A9BD4" />
<path d="M699.57,220.23L696.87,215.54L702.28,215.54Z" style="fill:#5A9BD4" />
<path d="M707.54,220.23L704.83,215.54L710.24,215.54Z" style="fill:#5A9BD4" />
<path d="M715.5,230.07L712.79,225.38L718.2,225.38Z" style="fill:#5A9BD4" />
<path d="M723.46,233.64L720.75,228.96L726.17,228.96Z" style="fill:#5A9BD4" />
<path d="M731.42,239.91L728.72,235.22L734.13,235.22Z" style="fill:#5A9BD4" />
<path d="M739.38,240.35L736.68,235.66L742.09,235.66Z" style="fill:#5A9BD4" />
<path d="M747.35,251.98L744.64,247.29L750.05,247.29Z" style="fill:#5A9BD4" />
<path d="M755.31,252.43L752.6,247.74L758.02,247.74Z" style="fill:#5A9BD4" />
<path d="M763.27,270.31L760.57,265.63L765.98,265.63Z" style="fill:#5A9BD4" />
<path d="M771.23,285.52L768.53,280.83L773.94,280.83Z" style="fill:#5A9BD4" />
<path d="M779.2,288.65L776.49,283.96L781.9,283.96Z" style="fill:#5A9BD4" />
<path d="M787.16,289.09L784.45,284.41L789.86,284.41Z" style="fill:#5A9BD4" />
<path d="M795.12,295.8L792.41,291.11L797.83,291.11Z" style="fill:#5A9BD4" />
<path d="M803.08,314.14L800.38,309.45L805.79,309.45Z" style="fill:#5A9BD4" />
<path d="M811.04,317.71L808.34,313.03L813.75,313.03Z" style="fill:#5A9BD4" />
<path d="M819.01,341.86L816.3,337.17L821.71,337.17Z" style="fill:#5A9BD4" />
<path d="M826.97,395.97L824.26,391.28L829.68,391.28Z" style="fill:#5A9BD4" />
<path d="M834.93,436.66L832.23,431.97L837.64,431.97Z" style="fill:#5A9BD4" />
<path d="M842.89,554.27L840.19,549.58L845.6,549.58Z" style="fill:#5A9BD4" />
<path d="M830.39,45.301L850.39,45.301" style="fill:none;stroke:#5A9BD4" />
<path d="M840.39,48.426L837.69,43.738L843.1,43.738Z" style="fill:#5A9BD4" />
<text x="763.42" y="-42.813" transform="scale(1, -1)"
	style="font-family:Liberation Serif;font-variant:normal;font-weight:normal;font-style:normal;font-size:12px">to-fronted-up</text>
</g>
</svg>
