<?xml version="1.0"?>
<!-- Generated by SVGo and Plotinum VG -->
<svg width="850.39pt" height="566.93pt" viewBox="0 0 850.39 566.93"
	xmlns="http://www.w3.org/2000/svg"
	xmlns:xlink="http://www.w3.org/1999/xlink">
<g transform="scale(1, -1) translate(0, -566.93)">
<path d="M0,0L850.39,0L850.39,566.93L0,566.93Z" style="fill:#FFFFFF" />
<text x="252.22" y="-557.54" transform="scale(1, -1)"
	style="font-family:Liberation Serif;font-variant:normal;font-weight:normal;font-style:normal;font-size:12px">Percentiles - Main (Nearest Rank): regular-localhost-incremental-fill-5k</text>
<text x="422.28" y="-3.9023" transform="scale(1, -1)"
	style="font-family:Liberation Serif;font-variant:normal;font-weight:normal;font-style:normal;font-size:12px">Percentile</text>
<text x="196.88" y="-16.541" transform="scale(1, -1)"
	style="font-family:Liberation Serif;font-variant:normal;font-weight:normal;font-style:normal;font-size:10px">20</text>
<text x="517.39" y="-16.541" transform="scale(1, -1)"
	style="font-family:Liberation Serif;font-variant:normal;font-weight:normal;font-style:normal;font-size:10px">60</text>
<text x="835.39" y="-16.541" transform="scale(1, -1)"
	style="font-family:Liberation Serif;font-variant:normal;font-weight:normal;font-style:normal;font-size:10px">100</text>
<path d="M201.88,24.363L201.88,32.363" style="fill:none;stroke:#000000;stroke-width:0.5" />
<path d="M522.39,24.363L522.39,32.363" style="fill:none;stroke:#000000;stroke-width:0.5" />
<path d="M842.89,24.363L842.89,32.363" style="fill:none;stroke:#000000;stroke-width:0.5" />
<path d="M121.75,28.363L121.75,32.363" style="fill:none;stroke:#000000;stroke-width:0.5" />
<path d="M282,28.363L282,32.363" style="fill:none;stroke:#000000;stroke-width:0.5" />
<path d="M362.13,28.363L362.13,32.363" style="fill:none;stroke:#000000;stroke-width:0.5" />
<path d="M442.26,28.363L442.26,32.363" style="fill:none;stroke:#000000;stroke-width:0.5" />
<path d="M602.51,28.363L602.51,32.363" style="fill:none;stroke:#000000;stroke-width:0.5" />
<path d="M682.64,28.363L682.64,32.363" style="fill:none;stroke:#000000;stroke-width:0.5" />
<path d="M762.77,28.363L762.77,32.363" style="fill:none;stroke:#000000;stroke-width:0.5" />
<path d="M49.635,32.363L842.89,32.363" style="fill:none;stroke:#000000;stroke-width:0.5" />
<g transform="rotate(90)">
<text x="265.43" y="9.3867" transform="scale(1, -1)"
	style="font-family:Liberation Serif;font-variant:normal;font-weight:normal;font-style:normal;font-size:12px">Duration: ms</text>
</g>
<text x="20.885" y="-101.85" transform="scale(1, -1)"
	style="font-family:Liberation Serif;font-variant:normal;font-weight:normal;font-style:normal;font-size:10px">60</text>
<text x="15.885" y="-306.58" transform="scale(1, -1)"
	style="font-family:Liberation Serif;font-variant:normal;font-weight:normal;font-style:normal;font-size:10px">120</text>
<text x="15.885" y="-511.32" transform="scale(1, -1)"
	style="font-family:Liberation Serif;font-variant:normal;font-weight:normal;font-style:normal;font-size:10px">180</text>
<path d="M33.385,104.13L41.385,104.13" style="fill:none;stroke:#000000;stroke-width:0.5" />
<path d="M33.385,308.87L41.385,308.87" style="fill:none;stroke:#000000;stroke-width:0.5" />
<path d="M33.385,513.6L41.385,513.6" style="fill:none;stroke:#000000;stroke-width:0.5" />
<path d="M37.385,206.5L41.385,206.5" style="fill:none;stroke:#000000;stroke-width:0.5" />
<path d="M37.385,411.24L41.385,411.24" style="fill:none;stroke:#000000;stroke-width:0.5" />
<path d="M41.385,42.709L41.385,551.14" style="fill:none;stroke:#000000;stroke-width:0.5" />
<path d="M201.88,42.709L201.88,551.14" style="fill:none;stroke:#808080;stroke-width:0.25" />
<path d="M522.39,42.709L522.39,551.14" style="fill:none;stroke:#808080;stroke-width:0.25" />
<path d="M842.89,42.709L842.89,551.14" style="fill:none;stroke:#808080;stroke-width:0.25" />
<path d="M49.635,104.13L842.89,104.13" style="fill:none;stroke:#808080;stroke-width:0.25" />
<path d="M49.635,308.87L842.89,308.87" style="fill:none;stroke:#808080;stroke-width:0.25" />
<path d="M49.635,513.6L842.89,513.6" style="fill:none;stroke:#808080;stroke-width:0.25" />
<path d="M49.635,42.709L57.647,100.72L65.66,107.54L73.673,114.37L81.686,121.19L89.698,128.02L97.711,131.43L105.72,138.25L113.74,141.67L121.75,141.67L129.76,141.67L137.77,145.08L145.79,145.08L153.8,148.49L161.81,165.55L169.83,165.55L177.84,168.96L185.85,172.38L193.86,175.79L201.88,175.79L209.89,179.2L217.9,182.61L225.91,186.03L233.93,186.03L241.94,186.03L249.95,186.03L257.97,186.03L265.98,189.44L273.99,192.85L282,196.26L290.02,196.26L298.03,199.67L306.04,203.09L314.05,203.09L322.07,203.09L330.08,206.5L338.09,209.91L346.11,209.91L354.12,209.91L362.13,209.91L370.14,209.91L378.16,213.32L386.17,216.74L394.18,216.74L402.19,220.15L410.21,223.56L418.22,223.56L426.23,226.97L434.25,226.97L442.26,237.21L450.27,237.21L458.28,240.62L466.3,244.03L474.31,247.45L482.32,247.45L490.33,250.86L498.35,257.68L506.36,257.68L514.37,261.1L522.39,261.1L530.4,271.33L538.41,274.74L546.42,278.16L554.44,278.16L562.45,281.57L570.46,281.57L578.47,281.57L586.49,284.98L594.5,288.39L602.51,291.81L610.52,291.81L618.54,295.22L626.55,298.63L634.56,302.04L642.58,302.04L650.59,305.46L658.6,308.87L666.61,315.69L674.63,319.1L682.64,322.52L690.65,329.34L698.66,336.17L706.68,336.17L714.69,339.58L722.7,339.58L730.72,356.64L738.73,366.88L746.74,366.88L754.75,373.7L762.77,383.94L770.78,387.35L778.79,411.24L786.8,428.3L794.82,479.48L802.83,496.54L810.84,496.54L818.86,527.25L826.87,534.08L834.88,551.14L842.89,551.14" style="fill:none;stroke:#F15A60" />
<path d="M49.635,45.834L46.928,41.146L52.341,41.146Z" style="fill:#F15A60" />
<path d="M57.647,103.84L54.941,99.155L60.354,99.155Z" style="fill:#F15A60" />
<path d="M65.66,110.67L62.954,105.98L68.367,105.98Z" style="fill:#F15A60" />
<path d="M73.673,117.49L70.967,112.8L76.379,112.8Z" style="fill:#F15A60" />
<path d="M81.686,124.32L78.979,119.63L84.392,119.63Z" style="fill:#F15A60" />
<path d="M89.698,131.14L86.992,126.45L92.405,126.45Z" style="fill:#F15A60" />
<path d="M97.711,134.55L95.005,129.87L100.42,129.87Z" style="fill:#F15A60" />
<path d="M105.72,141.38L103.02,136.69L108.43,136.69Z" style="fill:#F15A60" />
<path d="M113.74,144.79L111.03,140.1L116.44,140.1Z" style="fill:#F15A60" />
<path d="M121.75,144.79L119.04,140.1L124.46,140.1Z" style="fill:#F15A60" />
<path d="M129.76,144.79L127.06,140.1L132.47,140.1Z" style="fill:#F15A60" />
<path d="M137.77,148.2L135.07,143.52L140.48,143.52Z" style="fill:#F15A60" />
<path d="M145.79,148.2L143.08,143.52L148.49,143.52Z" style="fill:#F15A60" />
<path d="M153.8,151.61L151.09,146.93L156.51,146.93Z" style="fill:#F15A60" />
<path d="M161.81,168.68L159.11,163.99L164.52,163.99Z" style="fill:#F15A60" />
<path d="M169.83,168.68L167.12,163.99L172.53,163.99Z" style="fill:#F15A60" />
<path d="M177.84,172.09L175.13,167.4L180.54,167.4Z" style="fill:#F15A60" />
<path d="M185.85,175.5L183.14,170.81L188.56,170.81Z" style="fill:#F15A60" />
<path d="M193.86,178.91L191.16,174.23L196.57,174.23Z" style="fill:#F15A60" />
<path d="M201.88,178.91L199.17,174.23L204.58,174.23Z" style="fill:#F15A60" />
<path d="M209.89,182.33L207.18,177.64L212.6,177.64Z" style="fill:#F15A60" />
<path d="M217.9,185.74L215.2,181.05L220.61,181.05Z" style="fill:#F15A60" />
<path d="M225.91,189.15L223.21,184.46L228.62,184.46Z" style="fill:#F15A60" />
<path d="M233.93,189.15L231.22,184.46L236.63,184.46Z" style="fill:#F15A60" />
<path d="M241.94,189.15L239.23,184.46L244.65,184.46Z" style="fill:#F15A60" />
<path d="M249.95,189.15L247.25,184.46L252.66,184.46Z" style="fill:#F15A60" />
<path d="M257.97,189.15L255.26,184.46L260.67,184.46Z" style="fill:#F15A60" />
<path d="M265.98,192.56L263.27,187.87L268.68,187.87Z" style="fill:#F15A60" />
<path d="M273.99,195.97L271.28,191.29L276.7,191.29Z" style="fill:#F15A60" />
<path d="M282,199.39L279.3,194.7L284.71,194.7Z" style="fill:#F15A60" />
<path d="M290.02,199.39L287.31,194.7L292.72,194.7Z" style="fill:#F15A60" />
<path d="M298.03,202.8L295.32,198.11L300.74,198.11Z" style="fill:#F15A60" />
<path d="M306.04,206.21L303.34,201.52L308.75,201.52Z" style="fill:#F15A60" />
<path d="M314.05,206.21L311.35,201.52L316.76,201.52Z" style="fill:#F15A60" />
<path d="M322.07,206.21L319.36,201.52L324.77,201.52Z" style="fill:#F15A60" />
<path d="M330.08,209.62L327.37,204.94L332.79,204.94Z" style="fill:#F15A60" />
<path d="M338.09,213.04L335.39,208.35L340.8,208.35Z" style="fill:#F15A60" />
<path d="M346.11,213.04L343.4,208.35L348.81,208.35Z" style="fill:#F15A60" />
<path d="M354.12,213.04L351.41,208.35L356.82,208.35Z" style="fill:#F15A60" />
<path d="M362.13,213.04L359.42,208.35L364.84,208.35Z" style="fill:#F15A60" />
<path d="M370.14,213.04L367.44,208.35L372.85,208.35Z" style="fill:#F15A60" />
<path d="M378.16,216.45L375.45,211.76L380.86,211.76Z" style="fill:#F15A60" />
<path d="M386.17,219.86L383.46,215.17L388.88,215.17Z" style="fill:#F15A60" />
<path d="M394.18,219.86L391.48,215.17L396.89,215.17Z" style="fill:#F15A60" />
<path d="M402.19,223.27L399.49,218.59L404.9,218.59Z" style="fill:#F15A60" />
<path d="M410.21,226.69L407.5,222L412.91,222Z" style="fill:#F15A60" />
<path d="M418.22,226.69L415.51,222L420.93,222Z" style="fill:#F15A60" />
<path d="M426.23,230.1L423.53,225.41L428.94,225.41Z" style="fill:#F15A60" />
<path d="M434.25,230.1L431.54,225.41L436.95,225.41Z" style="fill:#F15A60" />
<path d="M442.26,240.33L439.55,235.65L444.96,235.65Z" style="fill:#F15A60" />
<path d="M450.27,240.33L447.56,235.65L452.98,235.65Z" style="fill:#F15A60" />
<path d="M458.28,243.75L455.58,239.06L460.99,239.06Z" style="fill:#F15A60" />
<path d="M466.3,247.16L463.59,242.47L469,242.47Z" style="fill:#F15A60" />
<path d="M474.31,250.57L471.6,245.88L477.02,245.88Z" style="fill:#F15A60" />
<path d="M482.32,250.57L479.62,245.88L485.03,245.88Z" style="fill:#F15A60" />
<path d="M490.33,253.98L487.63,249.3L493.04,249.3Z" style="fill:#F15A60" />
<path d="M498.35,260.81L495.64,256.12L501.05,256.12Z" style="fill:#F15A60" />
<path d="M506.36,260.81L503.65,256.12L509.07,256.12Z" style="fill:#F15A60" />
<path d="M514.37,264.22L511.67,259.53L517.08,259.53Z" style="fill:#F15A60" />
<path d="M522.39,264.22L519.68,259.53L525.09,259.53Z" style="fill:#F15A60" />
<path d="M530.4,274.46L527.69,269.77L533.1,269.77Z" style="fill:#F15A60" />
<path d="M538.41,277.87L535.7,273.18L541.12,273.18Z" style="fill:#F15A60" />
<path d="M546.42,281.28L543.72,276.59L549.13,276.59Z" style="fill:#F15A60" />
<path d="M554.44,281.28L551.73,276.59L557.14,276.59Z" style="fill:#F15A60" />
<path d="M562.45,284.69L559.74,280.01L565.15,280.01Z" style="fill:#F15A60" />
<path d="M570.46,284.69L567.76,280.01L573.17,280.01Z" style="fill:#F15A60" />
<path d="M578.47,284.69L575.77,280.01L581.18,280.01Z" style="fill:#F15A60" />
<path d="M586.49,288.11L583.78,283.42L589.19,283.42Z" style="fill:#F15A60" />
<path d="M594.5,291.52L591.79,286.83L597.21,286.83Z" style="fill:#F15A60" />
<path d="M602.51,294.93L599.81,290.24L605.22,290.24Z" style="fill:#F15A60" />
<path d="M610.52,294.93L607.82,290.24L613.23,290.24Z" style="fill:#F15A60" />
<path d="M618.54,298.34L615.83,293.66L621.24,293.66Z" style="fill:#F15A60" />
<path d="M626.55,301.76L623.84,297.07L629.26,297.07Z" style="fill:#F15A60" />
<path d="M634.56,305.17L631.86,300.48L637.27,300.48Z" style="fill:#F15A60" />
<path d="M642.58,305.17L639.87,300.48L645.28,300.48Z" style="fill:#F15A60" />
<path d="M650.59,308.58L647.88,303.89L653.29,303.89Z" style="fill:#F15A60" />
<path d="M658.6,311.99L655.89,307.31L661.31,307.31Z" style="fill:#F15A60" />
<path d="M666.61,318.82L663.91,314.13L669.32,314.13Z" style="fill:#F15A60" />
<path d="M674.63,322.23L671.92,317.54L677.33,317.54Z" style="fill:#F15A60" />
<path d="M682.64,325.64L679.93,320.95L685.35,320.95Z" style="fill:#F15A60" />
<path d="M690.65,332.47L687.95,327.78L693.36,327.78Z" style="fill:#F15A60" />
<path d="M698.66,339.29L695.96,334.6L701.37,334.6Z" style="fill:#F15A60" />
<path d="M706.68,339.29L703.97,334.6L709.38,334.6Z" style="fill:#F15A60" />
<path d="M714.69,342.7L711.98,338.02L717.4,338.02Z" style="fill:#F15A60" />
<path d="M722.7,342.7L720,338.02L725.41,338.02Z" style="fill:#F15A60" />
<path d="M730.72,359.76L728.01,355.08L733.42,355.08Z" style="fill:#F15A60" />
<path d="M738.73,370L736.02,365.31L741.43,365.31Z" style="fill:#F15A60" />
<path d="M746.74,370L744.03,365.31L749.45,365.31Z" style="fill:#F15A60" />
<path d="M754.75,376.83L752.05,372.14L757.46,372.14Z" style="fill:#F15A60" />
<path d="M762.77,387.06L760.06,382.38L765.47,382.38Z" style="fill:#F15A60" />
<path d="M770.78,390.48L768.07,385.79L773.49,385.79Z" style="fill:#F15A60" />
<path d="M778.79,414.36L776.09,409.67L781.5,409.67Z" style="fill:#F15A60" />
<path d="M786.8,431.42L784.1,426.74L789.51,426.74Z" style="fill:#F15A60" />
<path d="M794.82,482.61L792.11,477.92L797.52,477.92Z" style="fill:#F15A60" />
<path d="M802.83,499.67L800.12,494.98L805.54,494.98Z" style="fill:#F15A60" />
<path d="M810.84,499.67L808.14,494.98L813.55,494.98Z" style="fill:#F15A60" />
<path d="M818.86,530.38L816.15,525.69L821.56,525.69Z" style="fill:#F15A60" />
<path d="M826.87,537.2L824.16,532.52L829.57,532.52Z" style="fill:#F15A60" />
<path d="M834.88,554.27L832.17,549.58L837.59,549.58Z" style="fill:#F15A60" />
<path d="M842.89,554.27L840.19,549.58L845.6,549.58Z" style="fill:#F15A60" />
<path d="M830.39,45.301L850.39,45.301" style="fill:none;stroke:#F15A60" />
<path d="M840.39,48.426L837.69,43.738L843.1,43.738Z" style="fill:#F15A60" />
<text x="790.07" y="-42.813" transform="scale(1, -1)"
	style="font-family:Liberation Serif;font-variant:normal;font-weight:normal;font-style:normal;font-size:12px">to-main</text>
</g>
</svg>
