<?xml version="1.0"?>
<!-- Generated by SVGo and Plotinum VG -->
<svg width="850.39pt" height="566.93pt" viewBox="0 0 850.39 566.93"
	xmlns="http://www.w3.org/2000/svg"
	xmlns:xlink="http://www.w3.org/1999/xlink">
<g transform="scale(1, -1) translate(0, -566.93)">
<path d="M0,0L850.39,0L850.39,566.93L0,566.93Z" style="fill:#FFFFFF" />
<text x="285.87" y="-557.54" transform="scale(1, -1)"
	style="font-family:Liberation Serif;font-variant:normal;font-weight:normal;font-style:normal;font-size:12px">Raw Data Measures: regular-localhost-incremental-fill-5k</text>
<text x="426.44" y="-3.9023" transform="scale(1, -1)"
	style="font-family:Liberation Serif;font-variant:normal;font-weight:normal;font-style:normal;font-size:12px">Restart ID</text>
<text x="52.135" y="-16.541" transform="scale(1, -1)"
	style="font-family:Liberation Serif;font-variant:normal;font-weight:normal;font-style:normal;font-size:10px">0</text>
<text x="290.02" y="-16.541" transform="scale(1, -1)"
	style="font-family:Liberation Serif;font-variant:normal;font-weight:normal;font-style:normal;font-size:10px">30</text>
<text x="530.4" y="-16.541" transform="scale(1, -1)"
	style="font-family:Liberation Serif;font-variant:normal;font-weight:normal;font-style:normal;font-size:10px">60</text>
<text x="770.78" y="-16.541" transform="scale(1, -1)"
	style="font-family:Liberation Serif;font-variant:normal;font-weight:normal;font-style:normal;font-size:10px">90</text>
<path d="M54.635,24.363L54.635,32.363" style="fill:none;stroke:#000000;stroke-width:0.5" />
<path d="M295.02,24.363L295.02,32.363" style="fill:none;stroke:#000000;stroke-width:0.5" />
<path d="M535.4,24.363L535.4,32.363" style="fill:none;stroke:#000000;stroke-width:0.5" />
<path d="M775.78,24.363L775.78,32.363" style="fill:none;stroke:#000000;stroke-width:0.5" />
<path d="M134.76,28.363L134.76,32.363" style="fill:none;stroke:#000000;stroke-width:0.5" />
<path d="M214.89,28.363L214.89,32.363" style="fill:none;stroke:#000000;stroke-width:0.5" />
<path d="M375.14,28.363L375.14,32.363" style="fill:none;stroke:#000000;stroke-width:0.5" />
<path d="M455.27,28.363L455.27,32.363" style="fill:none;stroke:#000000;stroke-width:0.5" />
<path d="M615.52,28.363L615.52,32.363" style="fill:none;stroke:#000000;stroke-width:0.5" />
<path d="M695.65,28.363L695.65,32.363" style="fill:none;stroke:#000000;stroke-width:0.5" />
<path d="M54.635,32.363L847.89,32.363" style="fill:none;stroke:#000000;stroke-width:0.5" />
<g transform="rotate(90)">
<text x="265.43" y="9.3867" transform="scale(1, -1)"
	style="font-family:Liberation Serif;font-variant:normal;font-weight:normal;font-style:normal;font-size:12px">Duration: ms</text>
</g>
<text x="20.885" y="-122.77" transform="scale(1, -1)"
	style="font-family:Liberation Serif;font-variant:normal;font-weight:normal;font-style:normal;font-size:10px">300</text>
<text x="20.885" y="-314.27" transform="scale(1, -1)"
	style="font-family:Liberation Serif;font-variant:normal;font-weight:normal;font-style:normal;font-size:10px">900</text>
<text x="15.885" y="-505.77" transform="scale(1, -1)"
	style="font-family:Liberation Serif;font-variant:normal;font-weight:normal;font-style:normal;font-size:10px">1500</text>
<path d="M38.385,125.05L46.385,125.05" style="fill:none;stroke:#000000;stroke-width:0.5" />
<path d="M38.385,316.55L46.385,316.55" style="fill:none;stroke:#000000;stroke-width:0.5" />
<path d="M38.385,508.05L46.385,508.05" style="fill:none;stroke:#000000;stroke-width:0.5" />
<path d="M42.385,220.8L46.385,220.8" style="fill:none;stroke:#000000;stroke-width:0.5" />
<path d="M42.385,412.3L46.385,412.3" style="fill:none;stroke:#000000;stroke-width:0.5" />
<path d="M46.385,42.709L46.385,551.14" style="fill:none;stroke:#000000;stroke-width:0.5" />
<path d="M54.635,42.709L54.635,551.14" style="fill:none;stroke:#808080;stroke-width:0.25" />
<path d="M295.02,42.709L295.02,551.14" style="fill:none;stroke:#808080;stroke-width:0.25" />
<path d="M535.4,42.709L535.4,551.14" style="fill:none;stroke:#808080;stroke-width:0.25" />
<path d="M775.78,42.709L775.78,551.14" style="fill:none;stroke:#808080;stroke-width:0.25" />
<path d="M54.635,125.05L847.89,125.05" style="fill:none;stroke:#808080;stroke-width:0.25" />
<path d="M54.635,316.55L847.89,316.55" style="fill:none;stroke:#808080;stroke-width:0.25" />
<path d="M54.635,508.05L847.89,508.05" style="fill:none;stroke:#808080;stroke-width:0.25" />
<path d="M54.635,42.709L62.647,48.773L70.66,52.603L78.673,63.136L86.686,51.007L94.698,88.669L102.71,62.178L110.72,61.859L118.74,62.816L126.75,66.008L134.76,54.837L142.77,74.945L150.79,48.135L158.8,56.114L166.81,54.199L174.83,65.051L182.84,59.625L190.85,61.54L198.86,70.476L206.88,55.476L214.89,57.071L222.9,50.688L230.91,50.05L238.93,58.348L246.94,57.71L254.95,55.156L262.97,65.051L270.98,64.731L278.99,69.519L287,52.284L295.02,64.731L303.03,58.348L311.04,68.881L319.05,51.965L327.07,64.093L335.08,59.944L343.09,58.986L351.11,66.966L359.12,55.156L367.13,77.179L375.14,60.901L383.16,70.157L391.17,56.114L399.18,68.242L407.19,66.966L415.21,57.71L423.22,67.604L431.23,62.816L439.25,78.775L447.26,68.561L455.27,54.518L463.28,58.667L471.3,56.114L479.31,66.646L487.32,63.136L495.33,58.348L503.35,90.265L511.36,49.411L519.37,85.158L527.39,67.285L535.4,85.158L543.41,73.03L551.42,61.221L559.44,70.476L567.45,57.391L575.46,51.965L583.47,57.71L591.49,52.284L599.5,58.029L607.51,56.433L615.52,51.965L623.54,90.265L631.55,58.986L639.56,56.114L647.58,59.944L655.59,65.689L663.6,56.114L671.61,51.646L679.63,72.072L687.64,55.795L695.65,58.348L703.66,65.051L711.68,83.562L719.69,57.071L727.7,73.668L735.72,58.348L743.73,59.625L751.74,64.412L759.75,54.199L767.77,66.008L775.78,74.626L783.79,88.031L791.8,70.157L799.82,59.306L807.83,65.37L815.84,60.901L823.86,56.752L831.87,61.859L839.88,66.327L847.89,73.03" style="fill:none;stroke:#F15A60" />
<path d="M54.635,45.834L51.928,41.146L57.341,41.146Z" style="fill:#F15A60" />
<path d="M62.647,51.898L59.941,47.211L65.354,47.211Z" style="fill:#F15A60" />
<path d="M70.66,55.728L67.954,51.041L73.367,51.041Z" style="fill:#F15A60" />
<path d="M78.673,66.261L75.967,61.573L81.379,61.573Z" style="fill:#F15A60" />
<path d="M86.686,54.132L83.979,49.445L89.392,49.445Z" style="fill:#F15A60" />
<path d="M94.698,91.794L91.992,87.106L97.405,87.106Z" style="fill:#F15A60" />
<path d="M102.71,65.303L100,60.616L105.42,60.616Z" style="fill:#F15A60" />
<path d="M110.72,64.984L108.02,60.296L113.43,60.296Z" style="fill:#F15A60" />
<path d="M118.74,65.941L116.03,61.254L121.44,61.254Z" style="fill:#F15A60" />
<path d="M126.75,69.133L124.04,64.446L129.46,64.446Z" style="fill:#F15A60" />
<path d="M134.76,57.962L132.06,53.275L137.47,53.275Z" style="fill:#F15A60" />
<path d="M142.77,78.07L140.07,73.382L145.48,73.382Z" style="fill:#F15A60" />
<path d="M150.79,51.26L148.08,46.572L153.49,46.572Z" style="fill:#F15A60" />
<path d="M158.8,59.239L156.09,54.551L161.51,54.551Z" style="fill:#F15A60" />
<path d="M166.81,57.324L164.11,52.636L169.52,52.636Z" style="fill:#F15A60" />
<path d="M174.83,68.176L172.12,63.488L177.53,63.488Z" style="fill:#F15A60" />
<path d="M182.84,62.75L180.13,58.062L185.54,58.062Z" style="fill:#F15A60" />
<path d="M190.85,64.665L188.14,59.977L193.56,59.977Z" style="fill:#F15A60" />
<path d="M198.86,73.601L196.16,68.914L201.57,68.914Z" style="fill:#F15A60" />
<path d="M206.88,58.601L204.17,53.913L209.58,53.913Z" style="fill:#F15A60" />
<path d="M214.89,60.196L212.18,55.509L217.6,55.509Z" style="fill:#F15A60" />
<path d="M222.9,53.813L220.2,49.126L225.61,49.126Z" style="fill:#F15A60" />
<path d="M230.91,53.175L228.21,48.487L233.62,48.487Z" style="fill:#F15A60" />
<path d="M238.93,61.473L236.22,56.786L241.63,56.786Z" style="fill:#F15A60" />
<path d="M246.94,60.835L244.23,56.147L249.65,56.147Z" style="fill:#F15A60" />
<path d="M254.95,58.281L252.25,53.594L257.66,53.594Z" style="fill:#F15A60" />
<path d="M262.97,68.176L260.26,63.488L265.67,63.488Z" style="fill:#F15A60" />
<path d="M270.98,67.856L268.27,63.169L273.68,63.169Z" style="fill:#F15A60" />
<path d="M278.99,72.644L276.28,67.956L281.7,67.956Z" style="fill:#F15A60" />
<path d="M287,55.409L284.3,50.721L289.71,50.721Z" style="fill:#F15A60" />
<path d="M295.02,67.856L292.31,63.169L297.72,63.169Z" style="fill:#F15A60" />
<path d="M303.03,61.473L300.32,56.786L305.74,56.786Z" style="fill:#F15A60" />
<path d="M311.04,72.006L308.34,67.318L313.75,67.318Z" style="fill:#F15A60" />
<path d="M319.05,55.09L316.35,50.402L321.76,50.402Z" style="fill:#F15A60" />
<path d="M327.07,67.218L324.36,62.531L329.77,62.531Z" style="fill:#F15A60" />
<path d="M335.08,63.069L332.37,58.381L337.79,58.381Z" style="fill:#F15A60" />
<path d="M343.09,62.111L340.39,57.424L345.8,57.424Z" style="fill:#F15A60" />
<path d="M351.11,70.091L348.4,65.403L353.81,65.403Z" style="fill:#F15A60" />
<path d="M359.12,58.281L356.41,53.594L361.82,53.594Z" style="fill:#F15A60" />
<path d="M367.13,80.304L364.42,75.616L369.84,75.616Z" style="fill:#F15A60" />
<path d="M375.14,64.026L372.44,59.339L377.85,59.339Z" style="fill:#F15A60" />
<path d="M383.16,73.282L380.45,68.595L385.86,68.595Z" style="fill:#F15A60" />
<path d="M391.17,59.239L388.46,54.551L393.88,54.551Z" style="fill:#F15A60" />
<path d="M399.18,71.367L396.48,66.68L401.89,66.68Z" style="fill:#F15A60" />
<path d="M407.19,70.091L404.49,65.403L409.9,65.403Z" style="fill:#F15A60" />
<path d="M415.21,60.835L412.5,56.147L417.91,56.147Z" style="fill:#F15A60" />
<path d="M423.22,70.729L420.51,66.041L425.93,66.041Z" style="fill:#F15A60" />
<path d="M431.23,65.941L428.53,61.254L433.94,61.254Z" style="fill:#F15A60" />
<path d="M439.25,81.9L436.54,77.212L441.95,77.212Z" style="fill:#F15A60" />
<path d="M447.26,71.686L444.55,66.999L449.96,66.999Z" style="fill:#F15A60" />
<path d="M455.27,57.643L452.56,52.956L457.98,52.956Z" style="fill:#F15A60" />
<path d="M463.28,61.792L460.58,57.105L465.99,57.105Z" style="fill:#F15A60" />
<path d="M471.3,59.239L468.59,54.551L474,54.551Z" style="fill:#F15A60" />
<path d="M479.31,69.771L476.6,65.084L482.02,65.084Z" style="fill:#F15A60" />
<path d="M487.32,66.261L484.62,61.573L490.03,61.573Z" style="fill:#F15A60" />
<path d="M495.33,61.473L492.63,56.786L498.04,56.786Z" style="fill:#F15A60" />
<path d="M503.35,93.39L500.64,88.702L506.05,88.702Z" style="fill:#F15A60" />
<path d="M511.36,52.536L508.65,47.849L514.07,47.849Z" style="fill:#F15A60" />
<path d="M519.37,88.283L516.67,83.596L522.08,83.596Z" style="fill:#F15A60" />
<path d="M527.39,70.41L524.68,65.722L530.09,65.722Z" style="fill:#F15A60" />
<path d="M535.4,88.283L532.69,83.596L538.1,83.596Z" style="fill:#F15A60" />
<path d="M543.41,76.155L540.7,71.467L546.12,71.467Z" style="fill:#F15A60" />
<path d="M551.42,64.346L548.72,59.658L554.13,59.658Z" style="fill:#F15A60" />
<path d="M559.44,73.601L556.73,68.914L562.14,68.914Z" style="fill:#F15A60" />
<path d="M567.45,60.516L564.74,55.828L570.15,55.828Z" style="fill:#F15A60" />
<path d="M575.46,55.09L572.76,50.402L578.17,50.402Z" style="fill:#F15A60" />
<path d="M583.47,60.835L580.77,56.147L586.18,56.147Z" style="fill:#F15A60" />
<path d="M591.49,55.409L588.78,50.721L594.19,50.721Z" style="fill:#F15A60" />
<path d="M599.5,61.154L596.79,56.466L602.21,56.466Z" style="fill:#F15A60" />
<path d="M607.51,59.558L604.81,54.871L610.22,54.871Z" style="fill:#F15A60" />
<path d="M615.52,55.09L612.82,50.402L618.23,50.402Z" style="fill:#F15A60" />
<path d="M623.54,93.39L620.83,88.702L626.24,88.702Z" style="fill:#F15A60" />
<path d="M631.55,62.111L628.84,57.424L634.26,57.424Z" style="fill:#F15A60" />
<path d="M639.56,59.239L636.86,54.551L642.27,54.551Z" style="fill:#F15A60" />
<path d="M647.58,63.069L644.87,58.381L650.28,58.381Z" style="fill:#F15A60" />
<path d="M655.59,68.814L652.88,64.126L658.29,64.126Z" style="fill:#F15A60" />
<path d="M663.6,59.239L660.89,54.551L666.31,54.551Z" style="fill:#F15A60" />
<path d="M671.61,54.771L668.91,50.083L674.32,50.083Z" style="fill:#F15A60" />
<path d="M679.63,75.197L676.92,70.51L682.33,70.51Z" style="fill:#F15A60" />
<path d="M687.64,58.92L684.93,54.232L690.35,54.232Z" style="fill:#F15A60" />
<path d="M695.65,61.473L692.95,56.786L698.36,56.786Z" style="fill:#F15A60" />
<path d="M703.66,68.176L700.96,63.488L706.37,63.488Z" style="fill:#F15A60" />
<path d="M711.68,86.687L708.97,82L714.38,82Z" style="fill:#F15A60" />
<path d="M719.69,60.196L716.98,55.509L722.4,55.509Z" style="fill:#F15A60" />
<path d="M727.7,76.793L725,72.106L730.41,72.106Z" style="fill:#F15A60" />
<path d="M735.72,61.473L733.01,56.786L738.42,56.786Z" style="fill:#F15A60" />
<path d="M743.73,62.75L741.02,58.062L746.43,58.062Z" style="fill:#F15A60" />
<path d="M751.74,67.537L749.03,62.85L754.45,62.85Z" style="fill:#F15A60" />
<path d="M759.75,57.324L757.05,52.636L762.46,52.636Z" style="fill:#F15A60" />
<path d="M767.77,69.133L765.06,64.446L770.47,64.446Z" style="fill:#F15A60" />
<path d="M775.78,77.751L773.07,73.063L778.49,73.063Z" style="fill:#F15A60" />
<path d="M783.79,91.156L781.09,86.468L786.5,86.468Z" style="fill:#F15A60" />
<path d="M791.8,73.282L789.1,68.595L794.51,68.595Z" style="fill:#F15A60" />
<path d="M799.82,62.431L797.11,57.743L802.52,57.743Z" style="fill:#F15A60" />
<path d="M807.83,68.495L805.12,63.807L810.54,63.807Z" style="fill:#F15A60" />
<path d="M815.84,64.026L813.14,59.339L818.55,59.339Z" style="fill:#F15A60" />
<path d="M823.86,59.877L821.15,55.19L826.56,55.19Z" style="fill:#F15A60" />
<path d="M831.87,64.984L829.16,60.296L834.57,60.296Z" style="fill:#F15A60" />
<path d="M839.88,69.452L837.17,64.765L842.59,64.765Z" style="fill:#F15A60" />
<path d="M847.89,76.155L845.19,71.467L850.6,71.467Z" style="fill:#F15A60" />
<path d="M54.635,143.25L62.647,157.29L70.66,153.14L78.673,167.18L86.686,150.91L94.698,551.14L102.71,220.8L110.72,211.23L118.74,224L126.75,218.57L134.76,194.95L142.77,178.35L150.79,150.91L158.8,158.57L166.81,162.4L174.83,175.8L182.84,201.97L190.85,163.67L198.86,213.78L206.88,168.14L214.89,190.8L222.9,176.44L230.91,209.63L238.93,233.89L246.94,163.67L254.95,193.04L262.97,211.55L270.98,178.35L278.99,188.25L287,167.82L295.02,223.36L303.03,173.25L311.04,202.93L319.05,167.82L327.07,218.89L335.08,214.74L343.09,229.42L351.11,211.23L359.12,225.91L367.13,286.23L375.14,234.85L383.16,247.29L391.17,215.38L399.18,246.66L407.19,305.38L415.21,193.04L423.22,239L431.23,233.89L439.25,259.74L447.26,302.51L455.27,193.04L463.28,221.12L471.3,280.49L479.31,226.23L487.32,287.51L495.33,296.45L503.35,363.47L511.36,204.53L519.37,262.3L527.39,254.95L535.4,332.19L543.41,351.02L551.42,242.19L559.44,317.51L567.45,225.91L575.46,219.21L583.47,255.91L591.49,237.72L599.5,231.66L607.51,244.74L615.52,322.94L623.54,350.38L631.55,247.93L639.56,261.02L647.58,231.66L655.59,339.21L663.6,272.83L671.61,214.74L679.63,274.74L687.64,262.61L695.65,244.1L703.66,356.45L711.68,292.93L719.69,351.02L727.7,292.93L735.72,266.44L743.73,266.13L751.74,266.76L759.75,222.08L767.77,232.93L775.78,385.81L783.79,437.84L791.8,280.81L799.82,267.4L807.83,296.45L815.84,255.91L823.86,265.81L831.87,268.04L839.88,287.19L847.89,451.88" style="fill:none;stroke:#7AC36A" />
<path d="M54.635,146.37L51.928,141.68L57.341,141.68Z" style="fill:#7AC36A" />
<path d="M62.647,160.41L59.941,155.73L65.354,155.73Z" style="fill:#7AC36A" />
<path d="M70.66,156.27L67.954,151.58L73.367,151.58Z" style="fill:#7AC36A" />
<path d="M78.673,170.31L75.967,165.62L81.379,165.62Z" style="fill:#7AC36A" />
<path d="M86.686,154.03L83.979,149.34L89.392,149.34Z" style="fill:#7AC36A" />
<path d="M94.698,554.27L91.992,549.58L97.405,549.58Z" style="fill:#7AC36A" />
<path d="M102.71,223.93L100,219.24L105.42,219.24Z" style="fill:#7AC36A" />
<path d="M110.72,214.35L108.02,209.67L113.43,209.67Z" style="fill:#7AC36A" />
<path d="M118.74,227.12L116.03,222.43L121.44,222.43Z" style="fill:#7AC36A" />
<path d="M126.75,221.69L124.04,217.01L129.46,217.01Z" style="fill:#7AC36A" />
<path d="M134.76,198.08L132.06,193.39L137.47,193.39Z" style="fill:#7AC36A" />
<path d="M142.77,181.48L140.07,176.79L145.48,176.79Z" style="fill:#7AC36A" />
<path d="M150.79,154.03L148.08,149.34L153.49,149.34Z" style="fill:#7AC36A" />
<path d="M158.8,161.69L156.09,157L161.51,157Z" style="fill:#7AC36A" />
<path d="M166.81,165.52L164.11,160.83L169.52,160.83Z" style="fill:#7AC36A" />
<path d="M174.83,178.93L172.12,174.24L177.53,174.24Z" style="fill:#7AC36A" />
<path d="M182.84,205.1L180.13,200.41L185.54,200.41Z" style="fill:#7AC36A" />
<path d="M190.85,166.8L188.14,162.11L193.56,162.11Z" style="fill:#7AC36A" />
<path d="M198.86,216.91L196.16,212.22L201.57,212.22Z" style="fill:#7AC36A" />
<path d="M206.88,171.27L204.17,166.58L209.58,166.58Z" style="fill:#7AC36A" />
<path d="M214.89,193.93L212.18,189.24L217.6,189.24Z" style="fill:#7AC36A" />
<path d="M222.9,179.56L220.2,174.88L225.61,174.88Z" style="fill:#7AC36A" />
<path d="M230.91,212.76L228.21,208.07L233.62,208.07Z" style="fill:#7AC36A" />
<path d="M238.93,237.01L236.22,232.33L241.63,232.33Z" style="fill:#7AC36A" />
<path d="M246.94,166.8L244.23,162.11L249.65,162.11Z" style="fill:#7AC36A" />
<path d="M254.95,196.16L252.25,191.47L257.66,191.47Z" style="fill:#7AC36A" />
<path d="M262.97,214.67L260.26,209.99L265.67,209.99Z" style="fill:#7AC36A" />
<path d="M270.98,181.48L268.27,176.79L273.68,176.79Z" style="fill:#7AC36A" />
<path d="M278.99,191.37L276.28,186.69L281.7,186.69Z" style="fill:#7AC36A" />
<path d="M287,170.95L284.3,166.26L289.71,166.26Z" style="fill:#7AC36A" />
<path d="M295.02,226.48L292.31,221.79L297.72,221.79Z" style="fill:#7AC36A" />
<path d="M303.03,176.37L300.32,171.69L305.74,171.69Z" style="fill:#7AC36A" />
<path d="M311.04,206.06L308.34,201.37L313.75,201.37Z" style="fill:#7AC36A" />
<path d="M319.05,170.95L316.35,166.26L321.76,166.26Z" style="fill:#7AC36A" />
<path d="M327.07,222.01L324.36,217.33L329.77,217.33Z" style="fill:#7AC36A" />
<path d="M335.08,217.86L332.37,213.18L337.79,213.18Z" style="fill:#7AC36A" />
<path d="M343.09,232.55L340.39,227.86L345.8,227.86Z" style="fill:#7AC36A" />
<path d="M351.11,214.35L348.4,209.67L353.81,209.67Z" style="fill:#7AC36A" />
<path d="M359.12,229.04L356.41,224.35L361.82,224.35Z" style="fill:#7AC36A" />
<path d="M367.13,289.36L364.42,284.67L369.84,284.67Z" style="fill:#7AC36A" />
<path d="M375.14,237.97L372.44,233.28L377.85,233.28Z" style="fill:#7AC36A" />
<path d="M383.16,250.42L380.45,245.73L385.86,245.73Z" style="fill:#7AC36A" />
<path d="M391.17,218.5L388.46,213.82L393.88,213.82Z" style="fill:#7AC36A" />
<path d="M399.18,249.78L396.48,245.09L401.89,245.09Z" style="fill:#7AC36A" />
<path d="M407.19,308.51L404.49,303.82L409.9,303.82Z" style="fill:#7AC36A" />
<path d="M415.21,196.16L412.5,191.47L417.91,191.47Z" style="fill:#7AC36A" />
<path d="M423.22,242.12L420.51,237.43L425.93,237.43Z" style="fill:#7AC36A" />
<path d="M431.23,237.01L428.53,232.33L433.94,232.33Z" style="fill:#7AC36A" />
<path d="M439.25,262.87L436.54,258.18L441.95,258.18Z" style="fill:#7AC36A" />
<path d="M447.26,305.63L444.55,300.95L449.96,300.95Z" style="fill:#7AC36A" />
<path d="M455.27,196.16L452.56,191.47L457.98,191.47Z" style="fill:#7AC36A" />
<path d="M463.28,224.25L460.58,219.56L465.99,219.56Z" style="fill:#7AC36A" />
<path d="M471.3,283.61L468.59,278.92L474,278.92Z" style="fill:#7AC36A" />
<path d="M479.31,229.35L476.6,224.67L482.02,224.67Z" style="fill:#7AC36A" />
<path d="M487.32,290.63L484.62,285.95L490.03,285.95Z" style="fill:#7AC36A" />
<path d="M495.33,299.57L492.63,294.88L498.04,294.88Z" style="fill:#7AC36A" />
<path d="M503.35,366.6L500.64,361.91L506.05,361.91Z" style="fill:#7AC36A" />
<path d="M511.36,207.65L508.65,202.96L514.07,202.96Z" style="fill:#7AC36A" />
<path d="M519.37,265.42L516.67,260.73L522.08,260.73Z" style="fill:#7AC36A" />
<path d="M527.39,258.08L524.68,253.39L530.09,253.39Z" style="fill:#7AC36A" />
<path d="M535.4,335.32L532.69,330.63L538.1,330.63Z" style="fill:#7AC36A" />
<path d="M543.41,354.15L540.7,349.46L546.12,349.46Z" style="fill:#7AC36A" />
<path d="M551.42,245.31L548.72,240.63L554.13,240.63Z" style="fill:#7AC36A" />
<path d="M559.44,320.64L556.73,315.95L562.14,315.95Z" style="fill:#7AC36A" />
<path d="M567.45,229.04L564.74,224.35L570.15,224.35Z" style="fill:#7AC36A" />
<path d="M575.46,222.33L572.76,217.65L578.17,217.65Z" style="fill:#7AC36A" />
<path d="M583.47,259.04L580.77,254.35L586.18,254.35Z" style="fill:#7AC36A" />
<path d="M591.49,240.84L588.78,236.16L594.19,236.16Z" style="fill:#7AC36A" />
<path d="M599.5,234.78L596.79,230.09L602.21,230.09Z" style="fill:#7AC36A" />
<path d="M607.51,247.87L604.81,243.18L610.22,243.18Z" style="fill:#7AC36A" />
<path d="M615.52,326.06L612.82,321.37L618.23,321.37Z" style="fill:#7AC36A" />
<path d="M623.54,353.51L620.83,348.82L626.24,348.82Z" style="fill:#7AC36A" />
<path d="M631.55,251.06L628.84,246.37L634.26,246.37Z" style="fill:#7AC36A" />
<path d="M639.56,264.14L636.86,259.46L642.27,259.46Z" style="fill:#7AC36A" />
<path d="M647.58,234.78L644.87,230.09L650.28,230.09Z" style="fill:#7AC36A" />
<path d="M655.59,342.34L652.88,337.65L658.29,337.65Z" style="fill:#7AC36A" />
<path d="M663.6,275.95L660.89,271.27L666.31,271.27Z" style="fill:#7AC36A" />
<path d="M671.61,217.86L668.91,213.18L674.32,213.18Z" style="fill:#7AC36A" />
<path d="M679.63,277.87L676.92,273.18L682.33,273.18Z" style="fill:#7AC36A" />
<path d="M687.64,265.74L684.93,261.05L690.35,261.05Z" style="fill:#7AC36A" />
<path d="M695.65,247.23L692.95,242.54L698.36,242.54Z" style="fill:#7AC36A" />
<path d="M703.66,359.57L700.96,354.89L706.37,354.89Z" style="fill:#7AC36A" />
<path d="M711.68,296.06L708.97,291.37L714.38,291.37Z" style="fill:#7AC36A" />
<path d="M719.69,354.15L716.98,349.46L722.4,349.46Z" style="fill:#7AC36A" />
<path d="M727.7,296.06L725,291.37L730.41,291.37Z" style="fill:#7AC36A" />
<path d="M735.72,269.57L733.01,264.88L738.42,264.88Z" style="fill:#7AC36A" />
<path d="M743.73,269.25L741.02,264.56L746.43,264.56Z" style="fill:#7AC36A" />
<path d="M751.74,269.89L749.03,265.2L754.45,265.2Z" style="fill:#7AC36A" />
<path d="M759.75,225.21L757.05,220.52L762.46,220.52Z" style="fill:#7AC36A" />
<path d="M767.77,236.06L765.06,231.37L770.47,231.37Z" style="fill:#7AC36A" />
<path d="M775.78,388.94L773.07,384.25L778.49,384.25Z" style="fill:#7AC36A" />
<path d="M783.79,440.96L781.09,436.27L786.5,436.27Z" style="fill:#7AC36A" />
<path d="M791.8,283.93L789.1,279.24L794.51,279.24Z" style="fill:#7AC36A" />
<path d="M799.82,270.53L797.11,265.84L802.52,265.84Z" style="fill:#7AC36A" />
<path d="M807.83,299.57L805.12,294.88L810.54,294.88Z" style="fill:#7AC36A" />
<path d="M815.84,259.04L813.14,254.35L818.55,254.35Z" style="fill:#7AC36A" />
<path d="M823.86,268.93L821.15,264.24L826.56,264.24Z" style="fill:#7AC36A" />
<path d="M831.87,271.17L829.16,266.48L834.57,266.48Z" style="fill:#7AC36A" />
<path d="M839.88,290.31L837.17,285.63L842.59,285.63Z" style="fill:#7AC36A" />
<path d="M847.89,455L845.19,450.32L850.6,450.32Z" style="fill:#7AC36A" />
<path d="M54.635,129.52L62.647,137.82L70.66,129.52L78.673,133.03L86.686,128.88L94.698,491.78L102.71,187.93L110.72,178.67L118.74,190.48L126.75,181.87L134.76,169.42L142.77,132.39L150.79,132.08L158.8,131.76L166.81,137.18L174.83,139.74L182.84,171.65L190.85,131.44L198.86,172.29L206.88,141.97L214.89,162.72L222.9,155.06L230.91,188.89L238.93,204.85L246.94,135.27L254.95,166.86L262.97,175.48L270.98,142.93L278.99,147.71L287,144.84L295.02,187.61L303.03,143.88L311.04,163.03L319.05,145.16L327.07,184.1L335.08,183.78L343.09,199.74L351.11,173.25L359.12,200.06L367.13,238.04L375.14,202.93L383.16,206.44L391.17,188.57L399.18,207.4L407.19,267.72L415.21,164.31L423.22,200.7L431.23,200.38L439.25,209.95L447.26,262.93L455.27,167.82L463.28,191.76L471.3,253.36L479.31,188.89L487.32,253.36L495.33,267.4L503.35,302.19L511.36,184.42L519.37,206.12L527.39,216.65L535.4,276.02L543.41,307.3L551.42,210.27L559.44,276.34L567.45,197.82L575.46,196.23L583.47,227.51L591.49,214.42L599.5,202.93L607.51,217.29L615.52,299.96L623.54,289.1L631.55,218.25L639.56,234.21L647.58,200.7L655.59,302.51L663.6,246.02L671.61,192.08L679.63,231.97L687.64,235.8L695.65,214.74L703.66,320.38L711.68,238.68L719.69,322.94L727.7,248.25L735.72,237.4L743.73,235.8L751.74,231.34L759.75,196.87L767.77,196.23L775.78,340.17L783.79,378.79L791.8,239.63L799.82,237.08L807.83,260.38L815.84,224L823.86,238.04L831.87,235.49L839.88,250.17L847.89,407.83" style="fill:none;stroke:#5A9BD4" />
<path d="M54.635,132.65L51.928,127.96L57.341,127.96Z" style="fill:#5A9BD4" />
<path d="M62.647,140.95L59.941,136.26L65.354,136.26Z" style="fill:#5A9BD4" />
<path d="M70.66,132.65L67.954,127.96L73.367,127.96Z" style="fill:#5A9BD4" />
<path d="M78.673,136.16L75.967,131.47L81.379,131.47Z" style="fill:#5A9BD4" />
<path d="M86.686,132.01L83.979,127.32L89.392,127.32Z" style="fill:#5A9BD4" />
<path d="M94.698,494.9L91.992,490.21L97.405,490.21Z" style="fill:#5A9BD4" />
<path d="M102.71,191.05L100,186.37L105.42,186.37Z" style="fill:#5A9BD4" />
<path d="M110.72,181.8L108.02,177.11L113.43,177.11Z" style="fill:#5A9BD4" />
<path d="M118.74,193.61L116.03,188.92L121.44,188.92Z" style="fill:#5A9BD4" />
<path d="M126.75,184.99L124.04,180.3L129.46,180.3Z" style="fill:#5A9BD4" />
<path d="M134.76,172.54L132.06,167.86L137.47,167.86Z" style="fill:#5A9BD4" />
<path d="M142.77,135.52L140.07,130.83L145.48,130.83Z" style="fill:#5A9BD4" />
<path d="M150.79,135.2L148.08,130.51L153.49,130.51Z" style="fill:#5A9BD4" />
<path d="M158.8,134.88L156.09,130.19L161.51,130.19Z" style="fill:#5A9BD4" />
<path d="M166.81,140.31L164.11,135.62L169.52,135.62Z" style="fill:#5A9BD4" />
<path d="M174.83,142.86L172.12,138.17L177.53,138.17Z" style="fill:#5A9BD4" />
<path d="M182.84,174.78L180.13,170.09L185.54,170.09Z" style="fill:#5A9BD4" />
<path d="M190.85,134.56L188.14,129.87L193.56,129.87Z" style="fill:#5A9BD4" />
<path d="M198.86,175.42L196.16,170.73L201.57,170.73Z" style="fill:#5A9BD4" />
<path d="M206.88,145.09L204.17,140.41L209.58,140.41Z" style="fill:#5A9BD4" />
<path d="M214.89,165.84L212.18,161.15L217.6,161.15Z" style="fill:#5A9BD4" />
<path d="M222.9,158.18L220.2,153.49L225.61,153.49Z" style="fill:#5A9BD4" />
<path d="M230.91,192.01L228.21,187.32L233.62,187.32Z" style="fill:#5A9BD4" />
<path d="M238.93,207.97L236.22,203.28L241.63,203.28Z" style="fill:#5A9BD4" />
<path d="M246.94,138.39L244.23,133.7L249.65,133.7Z" style="fill:#5A9BD4" />
<path d="M254.95,169.99L252.25,165.3L257.66,165.3Z" style="fill:#5A9BD4" />
<path d="M262.97,178.61L260.26,173.92L265.67,173.92Z" style="fill:#5A9BD4" />
<path d="M270.98,146.05L268.27,141.36L273.68,141.36Z" style="fill:#5A9BD4" />
<path d="M278.99,150.84L276.28,146.15L281.7,146.15Z" style="fill:#5A9BD4" />
<path d="M287,147.97L284.3,143.28L289.71,143.28Z" style="fill:#5A9BD4" />
<path d="M295.02,190.74L292.31,186.05L297.72,186.05Z" style="fill:#5A9BD4" />
<path d="M303.03,147.01L300.32,142.32L305.74,142.32Z" style="fill:#5A9BD4" />
<path d="M311.04,166.16L308.34,161.47L313.75,161.47Z" style="fill:#5A9BD4" />
<path d="M319.05,148.29L316.35,143.6L321.76,143.6Z" style="fill:#5A9BD4" />
<path d="M327.07,187.22L324.36,182.54L329.77,182.54Z" style="fill:#5A9BD4" />
<path d="M335.08,186.91L332.37,182.22L337.79,182.22Z" style="fill:#5A9BD4" />
<path d="M343.09,202.86L340.39,198.18L345.8,198.18Z" style="fill:#5A9BD4" />
<path d="M351.11,176.37L348.4,171.69L353.81,171.69Z" style="fill:#5A9BD4" />
<path d="M359.12,203.18L356.41,198.5L361.82,198.5Z" style="fill:#5A9BD4" />
<path d="M367.13,241.16L364.42,236.48L369.84,236.48Z" style="fill:#5A9BD4" />
<path d="M375.14,206.06L372.44,201.37L377.85,201.37Z" style="fill:#5A9BD4" />
<path d="M383.16,209.57L380.45,204.88L385.86,204.88Z" style="fill:#5A9BD4" />
<path d="M391.17,191.69L388.46,187.01L393.88,187.01Z" style="fill:#5A9BD4" />
<path d="M399.18,210.52L396.48,205.84L401.89,205.84Z" style="fill:#5A9BD4" />
<path d="M407.19,270.85L404.49,266.16L409.9,266.16Z" style="fill:#5A9BD4" />
<path d="M415.21,167.44L412.5,162.75L417.91,162.75Z" style="fill:#5A9BD4" />
<path d="M423.22,203.82L420.51,199.13L425.93,199.13Z" style="fill:#5A9BD4" />
<path d="M431.23,203.5L428.53,198.81L433.94,198.81Z" style="fill:#5A9BD4" />
<path d="M439.25,213.08L436.54,208.39L441.95,208.39Z" style="fill:#5A9BD4" />
<path d="M447.26,266.06L444.55,261.37L449.96,261.37Z" style="fill:#5A9BD4" />
<path d="M455.27,170.95L452.56,166.26L457.98,166.26Z" style="fill:#5A9BD4" />
<path d="M463.28,194.88L460.58,190.2L465.99,190.2Z" style="fill:#5A9BD4" />
<path d="M471.3,256.48L468.59,251.8L474,251.8Z" style="fill:#5A9BD4" />
<path d="M479.31,192.01L476.6,187.32L482.02,187.32Z" style="fill:#5A9BD4" />
<path d="M487.32,256.48L484.62,251.8L490.03,251.8Z" style="fill:#5A9BD4" />
<path d="M495.33,270.53L492.63,265.84L498.04,265.84Z" style="fill:#5A9BD4" />
<path d="M503.35,305.32L500.64,300.63L506.05,300.63Z" style="fill:#5A9BD4" />
<path d="M511.36,187.54L508.65,182.86L514.07,182.86Z" style="fill:#5A9BD4" />
<path d="M519.37,209.25L516.67,204.56L522.08,204.56Z" style="fill:#5A9BD4" />
<path d="M527.39,219.78L524.68,215.09L530.09,215.09Z" style="fill:#5A9BD4" />
<path d="M535.4,279.14L532.69,274.46L538.1,274.46Z" style="fill:#5A9BD4" />
<path d="M543.41,310.42L540.7,305.73L546.12,305.73Z" style="fill:#5A9BD4" />
<path d="M551.42,213.4L548.72,208.71L554.13,208.71Z" style="fill:#5A9BD4" />
<path d="M559.44,279.46L556.73,274.78L562.14,274.78Z" style="fill:#5A9BD4" />
<path d="M567.45,200.95L564.74,196.26L570.15,196.26Z" style="fill:#5A9BD4" />
<path d="M575.46,199.35L572.76,194.67L578.17,194.67Z" style="fill:#5A9BD4" />
<path d="M583.47,230.63L580.77,225.94L586.18,225.94Z" style="fill:#5A9BD4" />
<path d="M591.49,217.55L588.78,212.86L594.19,212.86Z" style="fill:#5A9BD4" />
<path d="M599.5,206.06L596.79,201.37L602.21,201.37Z" style="fill:#5A9BD4" />
<path d="M607.51,220.42L604.81,215.73L610.22,215.73Z" style="fill:#5A9BD4" />
<path d="M615.52,303.08L612.82,298.39L618.23,298.39Z" style="fill:#5A9BD4" />
<path d="M623.54,292.23L620.83,287.54L626.24,287.54Z" style="fill:#5A9BD4" />
<path d="M631.55,221.38L628.84,216.69L634.26,216.69Z" style="fill:#5A9BD4" />
<path d="M639.56,237.33L636.86,232.65L642.27,232.65Z" style="fill:#5A9BD4" />
<path d="M647.58,203.82L644.87,199.13L650.28,199.13Z" style="fill:#5A9BD4" />
<path d="M655.59,305.63L652.88,300.95L658.29,300.95Z" style="fill:#5A9BD4" />
<path d="M663.6,249.14L660.89,244.46L666.31,244.46Z" style="fill:#5A9BD4" />
<path d="M671.61,195.2L668.91,190.52L674.32,190.52Z" style="fill:#5A9BD4" />
<path d="M679.63,235.1L676.92,230.41L682.33,230.41Z" style="fill:#5A9BD4" />
<path d="M687.64,238.93L684.93,234.24L690.35,234.24Z" style="fill:#5A9BD4" />
<path d="M695.65,217.86L692.95,213.18L698.36,213.18Z" style="fill:#5A9BD4" />
<path d="M703.66,323.51L700.96,318.82L706.37,318.82Z" style="fill:#5A9BD4" />
<path d="M711.68,241.8L708.97,237.11L714.38,237.11Z" style="fill:#5A9BD4" />
<path d="M719.69,326.06L716.98,321.37L722.4,321.37Z" style="fill:#5A9BD4" />
<path d="M727.7,251.38L725,246.69L730.41,246.69Z" style="fill:#5A9BD4" />
<path d="M735.72,240.53L733.01,235.84L738.42,235.84Z" style="fill:#5A9BD4" />
<path d="M743.73,238.93L741.02,234.24L746.43,234.24Z" style="fill:#5A9BD4" />
<path d="M751.74,234.46L749.03,229.77L754.45,229.77Z" style="fill:#5A9BD4" />
<path d="M759.75,199.99L757.05,195.3L762.46,195.3Z" style="fill:#5A9BD4" />
<path d="M767.77,199.35L765.06,194.67L770.47,194.67Z" style="fill:#5A9BD4" />
<path d="M775.78,343.3L773.07,338.61L778.49,338.61Z" style="fill:#5A9BD4" />
<path d="M783.79,381.92L781.09,377.23L786.5,377.23Z" style="fill:#5A9BD4" />
<path d="M791.8,242.76L789.1,238.07L794.51,238.07Z" style="fill:#5A9BD4" />
<path d="M799.82,240.21L797.11,235.52L802.52,235.52Z" style="fill:#5A9BD4" />
<path d="M807.83,263.51L805.12,258.82L810.54,258.82Z" style="fill:#5A9BD4" />
<path d="M815.84,227.12L813.14,222.43L818.55,222.43Z" style="fill:#5A9BD4" />
<path d="M823.86,241.16L821.15,236.48L826.56,236.48Z" style="fill:#5A9BD4" />
<path d="M831.87,238.61L829.16,233.92L834.57,233.92Z" style="fill:#5A9BD4" />
<path d="M839.88,253.29L837.17,248.6L842.59,248.6Z" style="fill:#5A9BD4" />
<path d="M847.89,410.96L845.19,406.27L850.6,406.27Z" style="fill:#5A9BD4" />
<path d="M830.39,65.668L850.39,65.668" style="fill:none;stroke:#F15A60" />
<path d="M840.39,68.793L837.69,64.105L843.1,64.105Z" style="fill:#F15A60" />
<text x="790.07" y="-63.181" transform="scale(1, -1)"
	style="font-family:Liberation Serif;font-variant:normal;font-weight:normal;font-style:normal;font-size:12px">to-main</text>
<path d="M830.39,55.484L850.39,55.484" style="fill:none;stroke:#7AC36A" />
<path d="M840.39,58.609L837.69,53.922L843.1,53.922Z" style="fill:#7AC36A" />
<text x="763.42" y="-52.997" transform="scale(1, -1)"
	style="font-family:Liberation Serif;font-variant:normal;font-weight:normal;font-style:normal;font-size:12px">to-fronted-up</text>
<path d="M830.39,45.301L850.39,45.301" style="fill:none;stroke:#5A9BD4" />
<path d="M840.39,48.426L837.69,43.738L843.1,43.738Z" style="fill:#5A9BD4" />
<text x="721.44" y="-42.813" transform="scale(1, -1)"
	style="font-family:Liberation Serif;font-variant:normal;font-weight:normal;font-style:normal;font-size:12px">fronted-up-main-delta</text>
</g>
</svg>
