<?xml version="1.0"?>
<!-- Generated by SVGo and Plotinum VG -->
<svg width="850.39pt" height="566.93pt" viewBox="0 0 850.39 566.93"
	xmlns="http://www.w3.org/2000/svg"
	xmlns:xlink="http://www.w3.org/1999/xlink">
<g transform="scale(1, -1) translate(0, -566.93)">
<path d="M0,0L850.39,0L850.39,566.93L0,566.93Z" style="fill:#FFFFFF" />
<text x="227.08" y="-557.54" transform="scale(1, -1)"
	style="font-family:Liberation Serif;font-variant:normal;font-weight:normal;font-style:normal;font-size:12px">Percentiles - FrontEndUp-Main-Delta (Nearest Rank): s3wl-putobj-100ms-Ingress</text>
<text x="419.78" y="-3.9023" transform="scale(1, -1)"
	style="font-family:Liberation Serif;font-variant:normal;font-weight:normal;font-style:normal;font-size:12px">Percentile</text>
<text x="192.84" y="-16.541" transform="scale(1, -1)"
	style="font-family:Liberation Serif;font-variant:normal;font-weight:normal;font-style:normal;font-size:10px">20</text>
<text x="515.36" y="-16.541" transform="scale(1, -1)"
	style="font-family:Liberation Serif;font-variant:normal;font-weight:normal;font-style:normal;font-size:10px">60</text>
<text x="835.39" y="-16.541" transform="scale(1, -1)"
	style="font-family:Liberation Serif;font-variant:normal;font-weight:normal;font-style:normal;font-size:10px">100</text>
<path d="M197.84,24.363L197.84,32.363" style="fill:none;stroke:#000000;stroke-width:0.5" />
<path d="M520.36,24.363L520.36,32.363" style="fill:none;stroke:#000000;stroke-width:0.5" />
<path d="M842.89,24.363L842.89,32.363" style="fill:none;stroke:#000000;stroke-width:0.5" />
<path d="M117.2,28.363L117.2,32.363" style="fill:none;stroke:#000000;stroke-width:0.5" />
<path d="M278.47,28.363L278.47,32.363" style="fill:none;stroke:#000000;stroke-width:0.5" />
<path d="M359.1,28.363L359.1,32.363" style="fill:none;stroke:#000000;stroke-width:0.5" />
<path d="M439.73,28.363L439.73,32.363" style="fill:none;stroke:#000000;stroke-width:0.5" />
<path d="M601,28.363L601,32.363" style="fill:none;stroke:#000000;stroke-width:0.5" />
<path d="M681.63,28.363L681.63,32.363" style="fill:none;stroke:#000000;stroke-width:0.5" />
<path d="M762.26,28.363L762.26,32.363" style="fill:none;stroke:#000000;stroke-width:0.5" />
<path d="M44.635,32.363L842.89,32.363" style="fill:none;stroke:#000000;stroke-width:0.5" />
<g transform="rotate(90)">
<text x="265.43" y="9.3867" transform="scale(1, -1)"
	style="font-family:Liberation Serif;font-variant:normal;font-weight:normal;font-style:normal;font-size:12px">Duration: ms</text>
</g>
<text x="15.885" y="-40.424" transform="scale(1, -1)"
	style="font-family:Liberation Serif;font-variant:normal;font-weight:normal;font-style:normal;font-size:10px">40</text>
<text x="15.885" y="-196.86" transform="scale(1, -1)"
	style="font-family:Liberation Serif;font-variant:normal;font-weight:normal;font-style:normal;font-size:10px">44</text>
<text x="15.885" y="-353.3" transform="scale(1, -1)"
	style="font-family:Liberation Serif;font-variant:normal;font-weight:normal;font-style:normal;font-size:10px">48</text>
<text x="15.885" y="-509.74" transform="scale(1, -1)"
	style="font-family:Liberation Serif;font-variant:normal;font-weight:normal;font-style:normal;font-size:10px">52</text>
<path d="M28.385,42.709L36.385,42.709" style="fill:none;stroke:#000000;stroke-width:0.5" />
<path d="M28.385,199.15L36.385,199.15" style="fill:none;stroke:#000000;stroke-width:0.5" />
<path d="M28.385,355.59L36.385,355.59" style="fill:none;stroke:#000000;stroke-width:0.5" />
<path d="M28.385,512.03L36.385,512.03" style="fill:none;stroke:#000000;stroke-width:0.5" />
<path d="M32.385,81.819L36.385,81.819" style="fill:none;stroke:#000000;stroke-width:0.5" />
<path d="M32.385,120.93L36.385,120.93" style="fill:none;stroke:#000000;stroke-width:0.5" />
<path d="M32.385,160.04L36.385,160.04" style="fill:none;stroke:#000000;stroke-width:0.5" />
<path d="M32.385,238.26L36.385,238.26" style="fill:none;stroke:#000000;stroke-width:0.5" />
<path d="M32.385,277.37L36.385,277.37" style="fill:none;stroke:#000000;stroke-width:0.5" />
<path d="M32.385,316.48L36.385,316.48" style="fill:none;stroke:#000000;stroke-width:0.5" />
<path d="M32.385,394.7L36.385,394.7" style="fill:none;stroke:#000000;stroke-width:0.5" />
<path d="M32.385,433.81L36.385,433.81" style="fill:none;stroke:#000000;stroke-width:0.5" />
<path d="M32.385,472.92L36.385,472.92" style="fill:none;stroke:#000000;stroke-width:0.5" />
<path d="M32.385,551.14L36.385,551.14" style="fill:none;stroke:#000000;stroke-width:0.5" />
<path d="M36.385,42.709L36.385,551.14" style="fill:none;stroke:#000000;stroke-width:0.5" />
<path d="M197.84,42.709L197.84,551.14" style="fill:none;stroke:#808080;stroke-width:0.25" />
<path d="M520.36,42.709L520.36,551.14" style="fill:none;stroke:#808080;stroke-width:0.25" />
<path d="M842.89,42.709L842.89,551.14" style="fill:none;stroke:#808080;stroke-width:0.25" />
<path d="M44.635,42.709L842.89,42.709" style="fill:none;stroke:#808080;stroke-width:0.25" />
<path d="M44.635,199.15L842.89,199.15" style="fill:none;stroke:#808080;stroke-width:0.25" />
<path d="M44.635,355.59L842.89,355.59" style="fill:none;stroke:#808080;stroke-width:0.25" />
<path d="M44.635,512.03L842.89,512.03" style="fill:none;stroke:#808080;stroke-width:0.25" />
<path d="M44.635,42.709L52.698,42.709L60.761,42.709L68.824,42.709L76.888,42.709L84.951,42.709L93.014,42.709L101.08,42.709L109.14,42.709L117.2,42.709L125.27,42.709L133.33,42.709L141.39,42.709L149.46,42.709L157.52,42.709L165.58,42.709L173.65,42.709L181.71,42.709L189.77,42.709L197.84,42.709L205.9,42.709L213.96,42.709L222.03,42.709L230.09,42.709L238.15,42.709L246.22,42.709L254.28,42.709L262.34,42.709L270.4,42.709L278.47,42.709L286.53,81.819L294.59,81.819L302.66,81.819L310.72,81.819L318.78,81.819L326.85,81.819L334.91,81.819L342.97,81.819L351.04,81.819L359.1,81.819L367.16,120.93L375.23,120.93L383.29,120.93L391.35,120.93L399.42,120.93L407.48,120.93L415.54,120.93L423.61,120.93L431.67,120.93L439.73,120.93L447.8,120.93L455.86,120.93L463.92,120.93L471.99,120.93L480.05,120.93L488.11,120.93L496.18,120.93L504.24,120.93L512.3,120.93L520.36,120.93L528.43,238.26L536.49,238.26L544.55,238.26L552.62,238.26L560.68,238.26L568.74,238.26L576.81,238.26L584.87,238.26L592.93,238.26L601,238.26L609.06,238.26L617.12,238.26L625.19,238.26L633.25,238.26L641.31,238.26L649.38,238.26L657.44,238.26L665.5,238.26L673.57,238.26L681.63,238.26L689.69,277.37L697.76,277.37L705.82,277.37L713.88,277.37L721.95,277.37L730.01,277.37L738.07,277.37L746.14,277.37L754.2,277.37L762.26,277.37L770.32,551.14L778.39,551.14L786.45,551.14L794.51,551.14L802.58,551.14L810.64,551.14L818.7,551.14L826.77,551.14L834.83,551.14L842.89,551.14" style="fill:none;stroke:#5A9BD4" />
<path d="M44.635,45.834L41.928,41.146L47.341,41.146Z" style="fill:#5A9BD4" />
<path d="M52.698,45.834L49.992,41.146L55.404,41.146Z" style="fill:#5A9BD4" />
<path d="M60.761,45.834L58.055,41.146L63.468,41.146Z" style="fill:#5A9BD4" />
<path d="M68.824,45.834L66.118,41.146L71.531,41.146Z" style="fill:#5A9BD4" />
<path d="M76.888,45.834L74.181,41.146L79.594,41.146Z" style="fill:#5A9BD4" />
<path d="M84.951,45.834L82.245,41.146L87.657,41.146Z" style="fill:#5A9BD4" />
<path d="M93.014,45.834L90.308,41.146L95.72,41.146Z" style="fill:#5A9BD4" />
<path d="M101.08,45.834L98.371,41.146L103.78,41.146Z" style="fill:#5A9BD4" />
<path d="M109.14,45.834L106.43,41.146L111.85,41.146Z" style="fill:#5A9BD4" />
<path d="M117.2,45.834L114.5,41.146L119.91,41.146Z" style="fill:#5A9BD4" />
<path d="M125.27,45.834L122.56,41.146L127.97,41.146Z" style="fill:#5A9BD4" />
<path d="M133.33,45.834L130.62,41.146L136.04,41.146Z" style="fill:#5A9BD4" />
<path d="M141.39,45.834L138.69,41.146L144.1,41.146Z" style="fill:#5A9BD4" />
<path d="M149.46,45.834L146.75,41.146L152.16,41.146Z" style="fill:#5A9BD4" />
<path d="M157.52,45.834L154.81,41.146L160.23,41.146Z" style="fill:#5A9BD4" />
<path d="M165.58,45.834L162.88,41.146L168.29,41.146Z" style="fill:#5A9BD4" />
<path d="M173.65,45.834L170.94,41.146L176.35,41.146Z" style="fill:#5A9BD4" />
<path d="M181.71,45.834L179,41.146L184.42,41.146Z" style="fill:#5A9BD4" />
<path d="M189.77,45.834L187.07,41.146L192.48,41.146Z" style="fill:#5A9BD4" />
<path d="M197.84,45.834L195.13,41.146L200.54,41.146Z" style="fill:#5A9BD4" />
<path d="M205.9,45.834L203.19,41.146L208.61,41.146Z" style="fill:#5A9BD4" />
<path d="M213.96,45.834L211.26,41.146L216.67,41.146Z" style="fill:#5A9BD4" />
<path d="M222.03,45.834L219.32,41.146L224.73,41.146Z" style="fill:#5A9BD4" />
<path d="M230.09,45.834L227.38,41.146L232.8,41.146Z" style="fill:#5A9BD4" />
<path d="M238.15,45.834L235.45,41.146L240.86,41.146Z" style="fill:#5A9BD4" />
<path d="M246.22,45.834L243.51,41.146L248.92,41.146Z" style="fill:#5A9BD4" />
<path d="M254.28,45.834L251.57,41.146L256.98,41.146Z" style="fill:#5A9BD4" />
<path d="M262.34,45.834L259.64,41.146L265.05,41.146Z" style="fill:#5A9BD4" />
<path d="M270.4,45.834L267.7,41.146L273.11,41.146Z" style="fill:#5A9BD4" />
<path d="M278.47,45.834L275.76,41.146L281.17,41.146Z" style="fill:#5A9BD4" />
<path d="M286.53,84.944L283.83,80.257L289.24,80.257Z" style="fill:#5A9BD4" />
<path d="M294.59,84.944L291.89,80.257L297.3,80.257Z" style="fill:#5A9BD4" />
<path d="M302.66,84.944L299.95,80.257L305.36,80.257Z" style="fill:#5A9BD4" />
<path d="M310.72,84.944L308.01,80.257L313.43,80.257Z" style="fill:#5A9BD4" />
<path d="M318.78,84.944L316.08,80.257L321.49,80.257Z" style="fill:#5A9BD4" />
<path d="M326.85,84.944L324.14,80.257L329.55,80.257Z" style="fill:#5A9BD4" />
<path d="M334.91,84.944L332.2,80.257L337.62,80.257Z" style="fill:#5A9BD4" />
<path d="M342.97,84.944L340.27,80.257L345.68,80.257Z" style="fill:#5A9BD4" />
<path d="M351.04,84.944L348.33,80.257L353.74,80.257Z" style="fill:#5A9BD4" />
<path d="M359.1,84.944L356.39,80.257L361.81,80.257Z" style="fill:#5A9BD4" />
<path d="M367.16,124.05L364.46,119.37L369.87,119.37Z" style="fill:#5A9BD4" />
<path d="M375.23,124.05L372.52,119.37L377.93,119.37Z" style="fill:#5A9BD4" />
<path d="M383.29,124.05L380.58,119.37L386,119.37Z" style="fill:#5A9BD4" />
<path d="M391.35,124.05L388.65,119.37L394.06,119.37Z" style="fill:#5A9BD4" />
<path d="M399.42,124.05L396.71,119.37L402.12,119.37Z" style="fill:#5A9BD4" />
<path d="M407.48,124.05L404.77,119.37L410.19,119.37Z" style="fill:#5A9BD4" />
<path d="M415.54,124.05L412.84,119.37L418.25,119.37Z" style="fill:#5A9BD4" />
<path d="M423.61,124.05L420.9,119.37L426.31,119.37Z" style="fill:#5A9BD4" />
<path d="M431.67,124.05L428.96,119.37L434.38,119.37Z" style="fill:#5A9BD4" />
<path d="M439.73,124.05L437.03,119.37L442.44,119.37Z" style="fill:#5A9BD4" />
<path d="M447.8,124.05L445.09,119.37L450.5,119.37Z" style="fill:#5A9BD4" />
<path d="M455.86,124.05L453.15,119.37L458.57,119.37Z" style="fill:#5A9BD4" />
<path d="M463.92,124.05L461.22,119.37L466.63,119.37Z" style="fill:#5A9BD4" />
<path d="M471.99,124.05L469.28,119.37L474.69,119.37Z" style="fill:#5A9BD4" />
<path d="M480.05,124.05L477.34,119.37L482.76,119.37Z" style="fill:#5A9BD4" />
<path d="M488.11,124.05L485.41,119.37L490.82,119.37Z" style="fill:#5A9BD4" />
<path d="M496.18,124.05L493.47,119.37L498.88,119.37Z" style="fill:#5A9BD4" />
<path d="M504.24,124.05L501.53,119.37L506.94,119.37Z" style="fill:#5A9BD4" />
<path d="M512.3,124.05L509.6,119.37L515.01,119.37Z" style="fill:#5A9BD4" />
<path d="M520.36,124.05L517.66,119.37L523.07,119.37Z" style="fill:#5A9BD4" />
<path d="M528.43,241.38L525.72,236.7L531.13,236.7Z" style="fill:#5A9BD4" />
<path d="M536.49,241.38L533.78,236.7L539.2,236.7Z" style="fill:#5A9BD4" />
<path d="M544.55,241.38L541.85,236.7L547.26,236.7Z" style="fill:#5A9BD4" />
<path d="M552.62,241.38L549.91,236.7L555.32,236.7Z" style="fill:#5A9BD4" />
<path d="M560.68,241.38L557.97,236.7L563.39,236.7Z" style="fill:#5A9BD4" />
<path d="M568.74,241.38L566.04,236.7L571.45,236.7Z" style="fill:#5A9BD4" />
<path d="M576.81,241.38L574.1,236.7L579.51,236.7Z" style="fill:#5A9BD4" />
<path d="M584.87,241.38L582.16,236.7L587.58,236.7Z" style="fill:#5A9BD4" />
<path d="M592.93,241.38L590.23,236.7L595.64,236.7Z" style="fill:#5A9BD4" />
<path d="M601,241.38L598.29,236.7L603.7,236.7Z" style="fill:#5A9BD4" />
<path d="M609.06,241.38L606.35,236.7L611.77,236.7Z" style="fill:#5A9BD4" />
<path d="M617.12,241.38L614.42,236.7L619.83,236.7Z" style="fill:#5A9BD4" />
<path d="M625.19,241.38L622.48,236.7L627.89,236.7Z" style="fill:#5A9BD4" />
<path d="M633.25,241.38L630.54,236.7L635.96,236.7Z" style="fill:#5A9BD4" />
<path d="M641.31,241.38L638.61,236.7L644.02,236.7Z" style="fill:#5A9BD4" />
<path d="M649.38,241.38L646.67,236.7L652.08,236.7Z" style="fill:#5A9BD4" />
<path d="M657.44,241.38L654.73,236.7L660.15,236.7Z" style="fill:#5A9BD4" />
<path d="M665.5,241.38L662.8,236.7L668.21,236.7Z" style="fill:#5A9BD4" />
<path d="M673.57,241.38L670.86,236.7L676.27,236.7Z" style="fill:#5A9BD4" />
<path d="M681.63,241.38L678.92,236.7L684.34,236.7Z" style="fill:#5A9BD4" />
<path d="M689.69,280.49L686.99,275.81L692.4,275.81Z" style="fill:#5A9BD4" />
<path d="M697.76,280.49L695.05,275.81L700.46,275.81Z" style="fill:#5A9BD4" />
<path d="M705.82,280.49L703.11,275.81L708.53,275.81Z" style="fill:#5A9BD4" />
<path d="M713.88,280.49L711.18,275.81L716.59,275.81Z" style="fill:#5A9BD4" />
<path d="M721.95,280.49L719.24,275.81L724.65,275.81Z" style="fill:#5A9BD4" />
<path d="M730.01,280.49L727.3,275.81L732.71,275.81Z" style="fill:#5A9BD4" />
<path d="M738.07,280.49L735.37,275.81L740.78,275.81Z" style="fill:#5A9BD4" />
<path d="M746.14,280.49L743.43,275.81L748.84,275.81Z" style="fill:#5A9BD4" />
<path d="M754.2,280.49L751.49,275.81L756.9,275.81Z" style="fill:#5A9BD4" />
<path d="M762.26,280.49L759.56,275.81L764.97,275.81Z" style="fill:#5A9BD4" />
<path d="M770.32,554.27L767.62,549.58L773.03,549.58Z" style="fill:#5A9BD4" />
<path d="M778.39,554.27L775.68,549.58L781.09,549.58Z" style="fill:#5A9BD4" />
<path d="M786.45,554.27L783.74,549.58L789.16,549.58Z" style="fill:#5A9BD4" />
<path d="M794.51,554.27L791.81,549.58L797.22,549.58Z" style="fill:#5A9BD4" />
<path d="M802.58,554.27L799.87,549.58L805.28,549.58Z" style="fill:#5A9BD4" />
<path d="M810.64,554.27L807.93,549.58L813.35,549.58Z" style="fill:#5A9BD4" />
<path d="M818.7,554.27L816,549.58L821.41,549.58Z" style="fill:#5A9BD4" />
<path d="M826.77,554.27L824.06,549.58L829.47,549.58Z" style="fill:#5A9BD4" />
<path d="M834.83,554.27L832.12,549.58L837.54,549.58Z" style="fill:#5A9BD4" />
<path d="M842.89,554.27L840.19,549.58L845.6,549.58Z" style="fill:#5A9BD4" />
<path d="M830.39,45.301L850.39,45.301" style="fill:none;stroke:#5A9BD4" />
<path d="M840.39,48.426L837.69,43.738L843.1,43.738Z" style="fill:#5A9BD4" />
<text x="763.42" y="-42.813" transform="scale(1, -1)"
	style="font-family:Liberation Serif;font-variant:normal;font-weight:normal;font-style:normal;font-size:12px">to-fronted-up</text>
</g>
</svg>
