<?xml version="1.0"?>
<!-- Generated by SVGo and Plotinum VG -->
<svg width="850.39pt" height="566.93pt" viewBox="0 0 850.39 566.93"
	xmlns="http://www.w3.org/2000/svg"
	xmlns:xlink="http://www.w3.org/1999/xlink">
<g transform="scale(1, -1) translate(0, -566.93)">
<path d="M0,0L850.39,0L850.39,566.93L0,566.93Z" style="fill:#FFFFFF" />
<text x="307.72" y="-557.54" transform="scale(1, -1)"
	style="font-family:Liberation Serif;font-variant:normal;font-weight:normal;font-style:normal;font-size:12px">Raw Data Measures: s3wl-putobj-100ms-Ingress</text>
<text x="426.44" y="-3.9023" transform="scale(1, -1)"
	style="font-family:Liberation Serif;font-variant:normal;font-weight:normal;font-style:normal;font-size:12px">Restart ID</text>
<text x="52.135" y="-16.541" transform="scale(1, -1)"
	style="font-family:Liberation Serif;font-variant:normal;font-weight:normal;font-style:normal;font-size:10px">0</text>
<text x="404.69" y="-16.541" transform="scale(1, -1)"
	style="font-family:Liberation Serif;font-variant:normal;font-weight:normal;font-style:normal;font-size:10px">4</text>
<text x="757.25" y="-16.541" transform="scale(1, -1)"
	style="font-family:Liberation Serif;font-variant:normal;font-weight:normal;font-style:normal;font-size:10px">8</text>
<path d="M54.635,24.363L54.635,32.363" style="fill:none;stroke:#000000;stroke-width:0.5" />
<path d="M407.19,24.363L407.19,32.363" style="fill:none;stroke:#000000;stroke-width:0.5" />
<path d="M759.75,24.363L759.75,32.363" style="fill:none;stroke:#000000;stroke-width:0.5" />
<path d="M142.77,28.363L142.77,32.363" style="fill:none;stroke:#000000;stroke-width:0.5" />
<path d="M230.91,28.363L230.91,32.363" style="fill:none;stroke:#000000;stroke-width:0.5" />
<path d="M319.05,28.363L319.05,32.363" style="fill:none;stroke:#000000;stroke-width:0.5" />
<path d="M495.33,28.363L495.33,32.363" style="fill:none;stroke:#000000;stroke-width:0.5" />
<path d="M583.47,28.363L583.47,32.363" style="fill:none;stroke:#000000;stroke-width:0.5" />
<path d="M671.61,28.363L671.61,32.363" style="fill:none;stroke:#000000;stroke-width:0.5" />
<path d="M847.89,28.363L847.89,32.363" style="fill:none;stroke:#000000;stroke-width:0.5" />
<path d="M54.635,32.363L847.89,32.363" style="fill:none;stroke:#000000;stroke-width:0.5" />
<g transform="rotate(90)">
<text x="265.43" y="9.3867" transform="scale(1, -1)"
	style="font-family:Liberation Serif;font-variant:normal;font-weight:normal;font-style:normal;font-size:12px">Duration: ms</text>
</g>
<text x="20.885" y="-103.89" transform="scale(1, -1)"
	style="font-family:Liberation Serif;font-variant:normal;font-weight:normal;font-style:normal;font-size:10px">400</text>
<text x="15.885" y="-315.44" transform="scale(1, -1)"
	style="font-family:Liberation Serif;font-variant:normal;font-weight:normal;font-style:normal;font-size:10px">1600</text>
<text x="15.885" y="-526.99" transform="scale(1, -1)"
	style="font-family:Liberation Serif;font-variant:normal;font-weight:normal;font-style:normal;font-size:10px">2800</text>
<path d="M38.385,106.17L46.385,106.17" style="fill:none;stroke:#000000;stroke-width:0.5" />
<path d="M38.385,317.73L46.385,317.73" style="fill:none;stroke:#000000;stroke-width:0.5" />
<path d="M38.385,529.28L46.385,529.28" style="fill:none;stroke:#000000;stroke-width:0.5" />
<path d="M42.385,211.95L46.385,211.95" style="fill:none;stroke:#000000;stroke-width:0.5" />
<path d="M42.385,423.5L46.385,423.5" style="fill:none;stroke:#000000;stroke-width:0.5" />
<path d="M46.385,42.709L46.385,551.14" style="fill:none;stroke:#000000;stroke-width:0.5" />
<path d="M54.635,42.709L54.635,551.14" style="fill:none;stroke:#808080;stroke-width:0.25" />
<path d="M407.19,42.709L407.19,551.14" style="fill:none;stroke:#808080;stroke-width:0.25" />
<path d="M759.75,42.709L759.75,551.14" style="fill:none;stroke:#808080;stroke-width:0.25" />
<path d="M54.635,106.17L847.89,106.17" style="fill:none;stroke:#808080;stroke-width:0.25" />
<path d="M54.635,317.73L847.89,317.73" style="fill:none;stroke:#808080;stroke-width:0.25" />
<path d="M54.635,529.28L847.89,529.28" style="fill:none;stroke:#808080;stroke-width:0.25" />
<path d="M54.635,543.56L142.77,141.43L230.91,138.97L319.05,139.67L407.19,150.07L495.33,137.56L583.47,154.66L671.61,194.15L759.75,144.43L847.89,144.25" style="fill:none;stroke:#F15A60" />
<path d="M54.635,546.68L51.928,542L57.341,542Z" style="fill:#F15A60" />
<path d="M142.77,144.56L140.07,139.87L145.48,139.87Z" style="fill:#F15A60" />
<path d="M230.91,142.09L228.21,137.4L233.62,137.4Z" style="fill:#F15A60" />
<path d="M319.05,142.8L316.35,138.11L321.76,138.11Z" style="fill:#F15A60" />
<path d="M407.19,153.2L404.49,148.51L409.9,148.51Z" style="fill:#F15A60" />
<path d="M495.33,140.68L492.63,135.99L498.04,135.99Z" style="fill:#F15A60" />
<path d="M583.47,157.78L580.77,153.09L586.18,153.09Z" style="fill:#F15A60" />
<path d="M671.61,197.27L668.91,192.58L674.32,192.58Z" style="fill:#F15A60" />
<path d="M759.75,147.56L757.05,142.87L762.46,142.87Z" style="fill:#F15A60" />
<path d="M847.89,147.38L845.19,142.69L850.6,142.69Z" style="fill:#F15A60" />
<path d="M54.635,551.14L142.77,149.37L230.91,146.37L319.05,146.9L407.19,159.59L495.33,145.84L583.47,162.24L671.61,201.2L759.75,152.54L847.89,151.31" style="fill:none;stroke:#7AC36A" />
<path d="M54.635,554.27L51.928,549.58L57.341,549.58Z" style="fill:#7AC36A" />
<path d="M142.77,152.49L140.07,147.8L145.48,147.8Z" style="fill:#7AC36A" />
<path d="M230.91,149.49L228.21,144.81L233.62,144.81Z" style="fill:#7AC36A" />
<path d="M319.05,150.02L316.35,145.34L321.76,145.34Z" style="fill:#7AC36A" />
<path d="M407.19,162.72L404.49,158.03L409.9,158.03Z" style="fill:#7AC36A" />
<path d="M495.33,148.97L492.63,144.28L498.04,144.28Z" style="fill:#7AC36A" />
<path d="M583.47,165.36L580.77,160.67L586.18,160.67Z" style="fill:#7AC36A" />
<path d="M671.61,204.32L668.91,199.63L674.32,199.63Z" style="fill:#7AC36A" />
<path d="M759.75,155.66L757.05,150.98L762.46,150.98Z" style="fill:#7AC36A" />
<path d="M847.89,154.43L845.19,149.74L850.6,149.74Z" style="fill:#7AC36A" />
<path d="M54.635,43.062L142.77,43.59L230.91,42.885L319.05,42.709L407.19,45.001L495.33,43.767L583.47,43.062L671.61,42.709L759.75,43.59L847.89,42.709" style="fill:none;stroke:#5A9BD4" />
<path d="M54.635,46.187L51.928,41.499L57.341,41.499Z" style="fill:#5A9BD4" />
<path d="M142.77,46.715L140.07,42.028L145.48,42.028Z" style="fill:#5A9BD4" />
<path d="M230.91,46.01L228.21,41.323L233.62,41.323Z" style="fill:#5A9BD4" />
<path d="M319.05,45.834L316.35,41.146L321.76,41.146Z" style="fill:#5A9BD4" />
<path d="M407.19,48.126L404.49,43.438L409.9,43.438Z" style="fill:#5A9BD4" />
<path d="M495.33,46.892L492.63,42.204L498.04,42.204Z" style="fill:#5A9BD4" />
<path d="M583.47,46.187L580.77,41.499L586.18,41.499Z" style="fill:#5A9BD4" />
<path d="M671.61,45.834L668.91,41.146L674.32,41.146Z" style="fill:#5A9BD4" />
<path d="M759.75,46.715L757.05,42.028L762.46,42.028Z" style="fill:#5A9BD4" />
<path d="M847.89,45.834L845.19,41.146L850.6,41.146Z" style="fill:#5A9BD4" />
<path d="M830.39,65.668L850.39,65.668" style="fill:none;stroke:#F15A60" />
<path d="M840.39,68.793L837.69,64.105L843.1,64.105Z" style="fill:#F15A60" />
<text x="790.07" y="-63.181" transform="scale(1, -1)"
	style="font-family:Liberation Serif;font-variant:normal;font-weight:normal;font-style:normal;font-size:12px">to-main</text>
<path d="M830.39,55.484L850.39,55.484" style="fill:none;stroke:#7AC36A" />
<path d="M840.39,58.609L837.69,53.922L843.1,53.922Z" style="fill:#7AC36A" />
<text x="763.42" y="-52.997" transform="scale(1, -1)"
	style="font-family:Liberation Serif;font-variant:normal;font-weight:normal;font-style:normal;font-size:12px">to-fronted-up</text>
<path d="M830.39,45.301L850.39,45.301" style="fill:none;stroke:#5A9BD4" />
<path d="M840.39,48.426L837.69,43.738L843.1,43.738Z" style="fill:#5A9BD4" />
<text x="721.44" y="-42.813" transform="scale(1, -1)"
	style="font-family:Liberation Serif;font-variant:normal;font-weight:normal;font-style:normal;font-size:12px">fronted-up-main-delta</text>
</g>
</svg>
