<?xml version="1.0"?>
<!-- Generated by SVGo and Plotinum VG -->
<svg width="850.39pt" height="566.93pt" viewBox="0 0 850.39 566.93"
	xmlns="http://www.w3.org/2000/svg"
	xmlns:xlink="http://www.w3.org/1999/xlink">
<g transform="scale(1, -1) translate(0, -566.93)">
<path d="M0,0L850.39,0L850.39,566.93L0,566.93Z" style="fill:#FFFFFF" />
<text x="274.07" y="-557.54" transform="scale(1, -1)"
	style="font-family:Liberation Serif;font-variant:normal;font-weight:normal;font-style:normal;font-size:12px">Percentiles - Main (Nearest Rank): s3wl-putobj-100ms-Ingress</text>
<text x="431.03" y="-3.9023" transform="scale(1, -1)"
	style="font-family:Liberation Serif;font-variant:normal;font-weight:normal;font-style:normal;font-size:12px">Percentile</text>
<text x="211.02" y="-16.541" transform="scale(1, -1)"
	style="font-family:Liberation Serif;font-variant:normal;font-weight:normal;font-style:normal;font-size:10px">20</text>
<text x="524.46" y="-16.541" transform="scale(1, -1)"
	style="font-family:Liberation Serif;font-variant:normal;font-weight:normal;font-style:normal;font-size:10px">60</text>
<text x="835.39" y="-16.541" transform="scale(1, -1)"
	style="font-family:Liberation Serif;font-variant:normal;font-weight:normal;font-style:normal;font-size:10px">100</text>
<path d="M216.02,24.363L216.02,32.363" style="fill:none;stroke:#000000;stroke-width:0.5" />
<path d="M529.46,24.363L529.46,32.363" style="fill:none;stroke:#000000;stroke-width:0.5" />
<path d="M842.89,24.363L842.89,32.363" style="fill:none;stroke:#000000;stroke-width:0.5" />
<path d="M137.66,28.363L137.66,32.363" style="fill:none;stroke:#000000;stroke-width:0.5" />
<path d="M294.38,28.363L294.38,32.363" style="fill:none;stroke:#000000;stroke-width:0.5" />
<path d="M372.74,28.363L372.74,32.363" style="fill:none;stroke:#000000;stroke-width:0.5" />
<path d="M451.1,28.363L451.1,32.363" style="fill:none;stroke:#000000;stroke-width:0.5" />
<path d="M607.82,28.363L607.82,32.363" style="fill:none;stroke:#000000;stroke-width:0.5" />
<path d="M686.17,28.363L686.17,32.363" style="fill:none;stroke:#000000;stroke-width:0.5" />
<path d="M764.53,28.363L764.53,32.363" style="fill:none;stroke:#000000;stroke-width:0.5" />
<path d="M67.135,32.363L842.89,32.363" style="fill:none;stroke:#000000;stroke-width:0.5" />
<g transform="rotate(90)">
<text x="265.43" y="9.3867" transform="scale(1, -1)"
	style="font-family:Liberation Serif;font-variant:normal;font-weight:normal;font-style:normal;font-size:12px">Duration: ms</text>
</g>
<text x="20.885" y="-78.396" transform="scale(1, -1)"
	style="font-family:Liberation Serif;font-variant:normal;font-weight:normal;font-style:normal;font-size:10px">750.00</text>
<text x="15.885" y="-299.17" transform="scale(1, -1)"
	style="font-family:Liberation Serif;font-variant:normal;font-weight:normal;font-style:normal;font-size:10px">1750.00</text>
<text x="15.885" y="-519.93" transform="scale(1, -1)"
	style="font-family:Liberation Serif;font-variant:normal;font-weight:normal;font-style:normal;font-size:10px">2750.00</text>
<path d="M50.885,80.681L58.885,80.681" style="fill:none;stroke:#000000;stroke-width:0.5" />
<path d="M50.885,301.45L58.885,301.45" style="fill:none;stroke:#000000;stroke-width:0.5" />
<path d="M50.885,522.22L58.885,522.22" style="fill:none;stroke:#000000;stroke-width:0.5" />
<path d="M54.885,191.07L58.885,191.07" style="fill:none;stroke:#000000;stroke-width:0.5" />
<path d="M54.885,411.83L58.885,411.83" style="fill:none;stroke:#000000;stroke-width:0.5" />
<path d="M58.885,42.709L58.885,551.14" style="fill:none;stroke:#000000;stroke-width:0.5" />
<path d="M216.02,42.709L216.02,551.14" style="fill:none;stroke:#808080;stroke-width:0.25" />
<path d="M529.46,42.709L529.46,551.14" style="fill:none;stroke:#808080;stroke-width:0.25" />
<path d="M842.89,42.709L842.89,551.14" style="fill:none;stroke:#808080;stroke-width:0.25" />
<path d="M67.135,80.681L842.89,80.681" style="fill:none;stroke:#808080;stroke-width:0.25" />
<path d="M67.135,301.45L842.89,301.45" style="fill:none;stroke:#808080;stroke-width:0.25" />
<path d="M67.135,522.22L842.89,522.22" style="fill:none;stroke:#808080;stroke-width:0.25" />
<path d="M67.135,42.709L74.971,42.709L82.807,42.709L90.643,42.709L98.479,42.709L106.31,42.709L114.15,42.709L121.99,42.709L129.82,42.709L137.66,42.709L145.49,44.475L153.33,44.475L161.17,44.475L169,44.475L176.84,44.475L184.67,44.475L192.51,44.475L200.35,44.475L208.18,44.475L216.02,44.475L223.85,45.358L231.69,45.358L239.53,45.358L247.36,45.358L255.2,45.358L263.03,45.358L270.87,45.358L278.71,45.358L286.54,45.358L294.38,45.358L302.21,47.566L310.05,47.566L317.89,47.566L325.72,47.566L333.56,47.566L341.39,47.566L349.23,47.566L357.06,47.566L364.9,47.566L372.74,47.566L380.57,51.098L388.41,51.098L396.24,51.098L404.08,51.098L411.92,51.098L419.75,51.098L427.59,51.098L435.42,51.098L443.26,51.098L451.1,51.098L458.93,51.319L466.77,51.319L474.6,51.319L482.44,51.319L490.28,51.319L498.11,51.319L505.95,51.319L513.78,51.319L521.62,51.319L529.46,51.319L537.29,58.384L545.13,58.384L552.96,58.384L560.8,58.384L568.64,58.384L576.47,58.384L584.31,58.384L592.14,58.384L599.98,58.384L607.82,58.384L615.65,64.124L623.49,64.124L631.32,64.124L639.16,64.124L646.99,64.124L654.83,64.124L662.67,64.124L670.5,64.124L678.34,64.124L686.17,64.124L694.01,113.58L701.85,113.58L709.68,113.58L717.52,113.58L725.35,113.58L733.19,113.58L741.03,113.58L748.86,113.58L756.7,113.58L764.53,113.58L772.37,551.14L780.21,551.14L788.04,551.14L795.88,551.14L803.71,551.14L811.55,551.14L819.39,551.14L827.22,551.14L835.06,551.14L842.89,551.14" style="fill:none;stroke:#F15A60" />
<path d="M67.135,45.834L64.428,41.146L69.841,41.146Z" style="fill:#F15A60" />
<path d="M74.971,45.834L72.264,41.146L77.677,41.146Z" style="fill:#F15A60" />
<path d="M82.807,45.834L80.1,41.146L85.513,41.146Z" style="fill:#F15A60" />
<path d="M90.643,45.834L87.936,41.146L93.349,41.146Z" style="fill:#F15A60" />
<path d="M98.479,45.834L95.772,41.146L101.18,41.146Z" style="fill:#F15A60" />
<path d="M106.31,45.834L103.61,41.146L109.02,41.146Z" style="fill:#F15A60" />
<path d="M114.15,45.834L111.44,41.146L116.86,41.146Z" style="fill:#F15A60" />
<path d="M121.99,45.834L119.28,41.146L124.69,41.146Z" style="fill:#F15A60" />
<path d="M129.82,45.834L127.12,41.146L132.53,41.146Z" style="fill:#F15A60" />
<path d="M137.66,45.834L134.95,41.146L140.36,41.146Z" style="fill:#F15A60" />
<path d="M145.49,47.6L142.79,42.913L148.2,42.913Z" style="fill:#F15A60" />
<path d="M153.33,47.6L150.62,42.913L156.04,42.913Z" style="fill:#F15A60" />
<path d="M161.17,47.6L158.46,42.913L163.87,42.913Z" style="fill:#F15A60" />
<path d="M169,47.6L166.3,42.913L171.71,42.913Z" style="fill:#F15A60" />
<path d="M176.84,47.6L174.13,42.913L179.54,42.913Z" style="fill:#F15A60" />
<path d="M184.67,47.6L181.97,42.913L187.38,42.913Z" style="fill:#F15A60" />
<path d="M192.51,47.6L189.8,42.913L195.22,42.913Z" style="fill:#F15A60" />
<path d="M200.35,47.6L197.64,42.913L203.05,42.913Z" style="fill:#F15A60" />
<path d="M208.18,47.6L205.48,42.913L210.89,42.913Z" style="fill:#F15A60" />
<path d="M216.02,47.6L213.31,42.913L218.72,42.913Z" style="fill:#F15A60" />
<path d="M223.85,48.483L221.15,43.796L226.56,43.796Z" style="fill:#F15A60" />
<path d="M231.69,48.483L228.98,43.796L234.4,43.796Z" style="fill:#F15A60" />
<path d="M239.53,48.483L236.82,43.796L242.23,43.796Z" style="fill:#F15A60" />
<path d="M247.36,48.483L244.66,43.796L250.07,43.796Z" style="fill:#F15A60" />
<path d="M255.2,48.483L252.49,43.796L257.9,43.796Z" style="fill:#F15A60" />
<path d="M263.03,48.483L260.33,43.796L265.74,43.796Z" style="fill:#F15A60" />
<path d="M270.87,48.483L268.16,43.796L273.58,43.796Z" style="fill:#F15A60" />
<path d="M278.71,48.483L276,43.796L281.41,43.796Z" style="fill:#F15A60" />
<path d="M286.54,48.483L283.84,43.796L289.25,43.796Z" style="fill:#F15A60" />
<path d="M294.38,48.483L291.67,43.796L297.08,43.796Z" style="fill:#F15A60" />
<path d="M302.21,50.691L299.51,46.003L304.92,46.003Z" style="fill:#F15A60" />
<path d="M310.05,50.691L307.34,46.003L312.76,46.003Z" style="fill:#F15A60" />
<path d="M317.89,50.691L315.18,46.003L320.59,46.003Z" style="fill:#F15A60" />
<path d="M325.72,50.691L323.01,46.003L328.43,46.003Z" style="fill:#F15A60" />
<path d="M333.56,50.691L330.85,46.003L336.26,46.003Z" style="fill:#F15A60" />
<path d="M341.39,50.691L338.69,46.003L344.1,46.003Z" style="fill:#F15A60" />
<path d="M349.23,50.691L346.52,46.003L351.94,46.003Z" style="fill:#F15A60" />
<path d="M357.06,50.691L354.36,46.003L359.77,46.003Z" style="fill:#F15A60" />
<path d="M364.9,50.691L362.19,46.003L367.61,46.003Z" style="fill:#F15A60" />
<path d="M372.74,50.691L370.03,46.003L375.44,46.003Z" style="fill:#F15A60" />
<path d="M380.57,54.223L377.87,49.536L383.28,49.536Z" style="fill:#F15A60" />
<path d="M388.41,54.223L385.7,49.536L391.11,49.536Z" style="fill:#F15A60" />
<path d="M396.24,54.223L393.54,49.536L398.95,49.536Z" style="fill:#F15A60" />
<path d="M404.08,54.223L401.37,49.536L406.79,49.536Z" style="fill:#F15A60" />
<path d="M411.92,54.223L409.21,49.536L414.62,49.536Z" style="fill:#F15A60" />
<path d="M419.75,54.223L417.05,49.536L422.46,49.536Z" style="fill:#F15A60" />
<path d="M427.59,54.223L424.88,49.536L430.29,49.536Z" style="fill:#F15A60" />
<path d="M435.42,54.223L432.72,49.536L438.13,49.536Z" style="fill:#F15A60" />
<path d="M443.26,54.223L440.55,49.536L445.97,49.536Z" style="fill:#F15A60" />
<path d="M451.1,54.223L448.39,49.536L453.8,49.536Z" style="fill:#F15A60" />
<path d="M458.93,54.444L456.23,49.756L461.64,49.756Z" style="fill:#F15A60" />
<path d="M466.77,54.444L464.06,49.756L469.47,49.756Z" style="fill:#F15A60" />
<path d="M474.6,54.444L471.9,49.756L477.31,49.756Z" style="fill:#F15A60" />
<path d="M482.44,54.444L479.73,49.756L485.15,49.756Z" style="fill:#F15A60" />
<path d="M490.28,54.444L487.57,49.756L492.98,49.756Z" style="fill:#F15A60" />
<path d="M498.11,54.444L495.41,49.756L500.82,49.756Z" style="fill:#F15A60" />
<path d="M505.95,54.444L503.24,49.756L508.65,49.756Z" style="fill:#F15A60" />
<path d="M513.78,54.444L511.08,49.756L516.49,49.756Z" style="fill:#F15A60" />
<path d="M521.62,54.444L518.91,49.756L524.33,49.756Z" style="fill:#F15A60" />
<path d="M529.46,54.444L526.75,49.756L532.16,49.756Z" style="fill:#F15A60" />
<path d="M537.29,61.509L534.59,56.821L540,56.821Z" style="fill:#F15A60" />
<path d="M545.13,61.509L542.42,56.821L547.83,56.821Z" style="fill:#F15A60" />
<path d="M552.96,61.509L550.26,56.821L555.67,56.821Z" style="fill:#F15A60" />
<path d="M560.8,61.509L558.09,56.821L563.51,56.821Z" style="fill:#F15A60" />
<path d="M568.64,61.509L565.93,56.821L571.34,56.821Z" style="fill:#F15A60" />
<path d="M576.47,61.509L573.77,56.821L579.18,56.821Z" style="fill:#F15A60" />
<path d="M584.31,61.509L581.6,56.821L587.01,56.821Z" style="fill:#F15A60" />
<path d="M592.14,61.509L589.44,56.821L594.85,56.821Z" style="fill:#F15A60" />
<path d="M599.98,61.509L597.27,56.821L602.69,56.821Z" style="fill:#F15A60" />
<path d="M607.82,61.509L605.11,56.821L610.52,56.821Z" style="fill:#F15A60" />
<path d="M615.65,67.249L612.94,62.561L618.36,62.561Z" style="fill:#F15A60" />
<path d="M623.49,67.249L620.78,62.561L626.19,62.561Z" style="fill:#F15A60" />
<path d="M631.32,67.249L628.62,62.561L634.03,62.561Z" style="fill:#F15A60" />
<path d="M639.16,67.249L636.45,62.561L641.87,62.561Z" style="fill:#F15A60" />
<path d="M646.99,67.249L644.29,62.561L649.7,62.561Z" style="fill:#F15A60" />
<path d="M654.83,67.249L652.12,62.561L657.54,62.561Z" style="fill:#F15A60" />
<path d="M662.67,67.249L659.96,62.561L665.37,62.561Z" style="fill:#F15A60" />
<path d="M670.5,67.249L667.8,62.561L673.21,62.561Z" style="fill:#F15A60" />
<path d="M678.34,67.249L675.63,62.561L681.05,62.561Z" style="fill:#F15A60" />
<path d="M686.17,67.249L683.47,62.561L688.88,62.561Z" style="fill:#F15A60" />
<path d="M694.01,116.7L691.3,112.01L696.72,112.01Z" style="fill:#F15A60" />
<path d="M701.85,116.7L699.14,112.01L704.55,112.01Z" style="fill:#F15A60" />
<path d="M709.68,116.7L706.98,112.01L712.39,112.01Z" style="fill:#F15A60" />
<path d="M717.52,116.7L714.81,112.01L720.22,112.01Z" style="fill:#F15A60" />
<path d="M725.35,116.7L722.65,112.01L728.06,112.01Z" style="fill:#F15A60" />
<path d="M733.19,116.7L730.48,112.01L735.9,112.01Z" style="fill:#F15A60" />
<path d="M741.03,116.7L738.32,112.01L743.73,112.01Z" style="fill:#F15A60" />
<path d="M748.86,116.7L746.16,112.01L751.57,112.01Z" style="fill:#F15A60" />
<path d="M756.7,116.7L753.99,112.01L759.4,112.01Z" style="fill:#F15A60" />
<path d="M764.53,116.7L761.83,112.01L767.24,112.01Z" style="fill:#F15A60" />
<path d="M772.37,554.27L769.66,549.58L775.08,549.58Z" style="fill:#F15A60" />
<path d="M780.21,554.27L777.5,549.58L782.91,549.58Z" style="fill:#F15A60" />
<path d="M788.04,554.27L785.34,549.58L790.75,549.58Z" style="fill:#F15A60" />
<path d="M795.88,554.27L793.17,549.58L798.58,549.58Z" style="fill:#F15A60" />
<path d="M803.71,554.27L801.01,549.58L806.42,549.58Z" style="fill:#F15A60" />
<path d="M811.55,554.27L808.84,549.58L814.26,549.58Z" style="fill:#F15A60" />
<path d="M819.39,554.27L816.68,549.58L822.09,549.58Z" style="fill:#F15A60" />
<path d="M827.22,554.27L824.52,549.58L829.93,549.58Z" style="fill:#F15A60" />
<path d="M835.06,554.27L832.35,549.58L837.76,549.58Z" style="fill:#F15A60" />
<path d="M842.89,554.27L840.19,549.58L845.6,549.58Z" style="fill:#F15A60" />
<path d="M830.39,45.301L850.39,45.301" style="fill:none;stroke:#F15A60" />
<path d="M840.39,48.426L837.69,43.738L843.1,43.738Z" style="fill:#F15A60" />
<text x="790.07" y="-42.813" transform="scale(1, -1)"
	style="font-family:Liberation Serif;font-variant:normal;font-weight:normal;font-style:normal;font-size:12px">to-main</text>
</g>
</svg>
