<?xml version="1.0"?>
<!-- Generated by SVGo and Plotinum VG -->
<svg width="850.39pt" height="566.93pt" viewBox="0 0 850.39 566.93"
	xmlns="http://www.w3.org/2000/svg"
	xmlns:xlink="http://www.w3.org/1999/xlink">
<g transform="scale(1, -1) translate(0, -566.93)">
<path d="M0,0L850.39,0L850.39,566.93L0,566.93Z" style="fill:#FFFFFF" />
<text x="313.82" y="-557.54" transform="scale(1, -1)"
	style="font-family:Liberation Serif;font-variant:normal;font-weight:normal;font-style:normal;font-size:12px">RTT S3Workload: s3wl-putobj-100ms-Ingress</text>
<text x="437.31" y="-3.9023" transform="scale(1, -1)"
	style="font-family:Liberation Serif;font-variant:normal;font-weight:normal;font-style:normal;font-size:12px">Time</text>
<text x="42.104" y="-16.541" transform="scale(1, -1)"
	style="font-family:Liberation Serif;font-variant:normal;font-weight:normal;font-style:normal;font-size:10px">0.00</text>
<text x="386.65" y="-16.541" transform="scale(1, -1)"
	style="font-family:Liberation Serif;font-variant:normal;font-weight:normal;font-style:normal;font-size:10px">25000.00</text>
<text x="741.2" y="-16.541" transform="scale(1, -1)"
	style="font-family:Liberation Serif;font-variant:normal;font-weight:normal;font-style:normal;font-size:10px">50000.00</text>
<path d="M50.854,24.363L50.854,32.363" style="fill:none;stroke:#000000;stroke-width:0.5" />
<path d="M405.4,24.363L405.4,32.363" style="fill:none;stroke:#000000;stroke-width:0.5" />
<path d="M759.95,24.363L759.95,32.363" style="fill:none;stroke:#000000;stroke-width:0.5" />
<path d="M121.76,28.363L121.76,32.363" style="fill:none;stroke:#000000;stroke-width:0.5" />
<path d="M192.67,28.363L192.67,32.363" style="fill:none;stroke:#000000;stroke-width:0.5" />
<path d="M263.58,28.363L263.58,32.363" style="fill:none;stroke:#000000;stroke-width:0.5" />
<path d="M334.49,28.363L334.49,32.363" style="fill:none;stroke:#000000;stroke-width:0.5" />
<path d="M476.31,28.363L476.31,32.363" style="fill:none;stroke:#000000;stroke-width:0.5" />
<path d="M547.22,28.363L547.22,32.363" style="fill:none;stroke:#000000;stroke-width:0.5" />
<path d="M618.13,28.363L618.13,32.363" style="fill:none;stroke:#000000;stroke-width:0.5" />
<path d="M689.04,28.363L689.04,32.363" style="fill:none;stroke:#000000;stroke-width:0.5" />
<path d="M830.86,28.363L830.86,32.363" style="fill:none;stroke:#000000;stroke-width:0.5" />
<path d="M49.635,32.363L849.89,32.363" style="fill:none;stroke:#000000;stroke-width:0.5" />
<g transform="rotate(90)">
<text x="276.08" y="9.3867" transform="scale(1, -1)"
	style="font-family:Liberation Serif;font-variant:normal;font-weight:normal;font-style:normal;font-size:12px">RTT: ms</text>
</g>
<text x="25.885" y="-37.924" transform="scale(1, -1)"
	style="font-family:Liberation Serif;font-variant:normal;font-weight:normal;font-style:normal;font-size:10px">0</text>
<text x="15.885" y="-193.63" transform="scale(1, -1)"
	style="font-family:Liberation Serif;font-variant:normal;font-weight:normal;font-style:normal;font-size:10px">300</text>
<text x="15.885" y="-349.34" transform="scale(1, -1)"
	style="font-family:Liberation Serif;font-variant:normal;font-weight:normal;font-style:normal;font-size:10px">600</text>
<text x="15.885" y="-505.04" transform="scale(1, -1)"
	style="font-family:Liberation Serif;font-variant:normal;font-weight:normal;font-style:normal;font-size:10px">900</text>
<path d="M33.385,40.209L41.385,40.209" style="fill:none;stroke:#000000;stroke-width:0.5" />
<path d="M33.385,195.92L41.385,195.92" style="fill:none;stroke:#000000;stroke-width:0.5" />
<path d="M33.385,351.62L41.385,351.62" style="fill:none;stroke:#000000;stroke-width:0.5" />
<path d="M33.385,507.33L41.385,507.33" style="fill:none;stroke:#000000;stroke-width:0.5" />
<path d="M37.385,92.111L41.385,92.111" style="fill:none;stroke:#000000;stroke-width:0.5" />
<path d="M37.385,144.01L41.385,144.01" style="fill:none;stroke:#000000;stroke-width:0.5" />
<path d="M37.385,247.82L41.385,247.82" style="fill:none;stroke:#000000;stroke-width:0.5" />
<path d="M37.385,299.72L41.385,299.72" style="fill:none;stroke:#000000;stroke-width:0.5" />
<path d="M37.385,403.52L41.385,403.52" style="fill:none;stroke:#000000;stroke-width:0.5" />
<path d="M37.385,455.43L41.385,455.43" style="fill:none;stroke:#000000;stroke-width:0.5" />
<path d="M41.385,40.209L41.385,553.64" style="fill:none;stroke:#000000;stroke-width:0.5" />
<path d="M50.854,40.209L50.854,553.64" style="fill:none;stroke:#808080;stroke-width:0.25" />
<path d="M405.4,40.209L405.4,553.64" style="fill:none;stroke:#808080;stroke-width:0.25" />
<path d="M759.95,40.209L759.95,553.64" style="fill:none;stroke:#808080;stroke-width:0.25" />
<path d="M49.635,40.209L849.89,40.209" style="fill:none;stroke:#808080;stroke-width:0.25" />
<path d="M49.635,195.92L849.89,195.92" style="fill:none;stroke:#808080;stroke-width:0.25" />
<path d="M49.635,351.62L849.89,351.62" style="fill:none;stroke:#808080;stroke-width:0.25" />
<path d="M49.635,507.33L849.89,507.33" style="fill:none;stroke:#808080;stroke-width:0.25" />
<path d="M91.089,296.92L104.73,296.92" style="fill:none;stroke:#5A9BD4" />
<path d="M91.089,300.05L88.382,295.36L93.795,295.36Z" style="fill:none;stroke:#5A9BD4;stroke-width:0.5" />
<path d="M104.73,300.05L102.03,295.36L107.44,295.36Z" style="fill:none;stroke:#5A9BD4;stroke-width:0.5" />
<path d="M49.635,296.92L91.089,296.92" style="fill:none;stroke:#FAA75B" />
<path d="M52.135,296.92A2.5,2.5 0 1 1 47.135,296.92A2.5,2.5 0 1 1 52.135,296.92Z" style="fill:#FAA75B" />
<path d="M93.589,296.92A2.5,2.5 0 1 1 88.589,296.92A2.5,2.5 0 1 1 93.589,296.92Z" style="fill:#FAA75B" />
<path d="M174.32,296.92L195.5,296.92" style="fill:none;stroke:#5A9BD4" />
<path d="M174.32,300.05L171.62,295.36L177.03,295.36Z" style="fill:none;stroke:#5A9BD4;stroke-width:0.5" />
<path d="M195.5,300.05L192.79,295.36L198.2,295.36Z" style="fill:none;stroke:#5A9BD4;stroke-width:0.5" />
<path d="M165.16,296.92L174.32,296.92" style="fill:none;stroke:#FAA75B" />
<path d="M167.66,296.92A2.5,2.5 0 1 1 162.66,296.92A2.5,2.5 0 1 1 167.66,296.92Z" style="fill:#FAA75B" />
<path d="M176.82,296.92A2.5,2.5 0 1 1 171.82,296.92A2.5,2.5 0 1 1 176.82,296.92Z" style="fill:#FAA75B" />
<path d="M257.22,296.92L277.77,296.92" style="fill:none;stroke:#5A9BD4" />
<path d="M257.22,300.05L254.51,295.36L259.92,295.36Z" style="fill:none;stroke:#5A9BD4;stroke-width:0.5" />
<path d="M277.77,300.05L275.06,295.36L280.47,295.36Z" style="fill:none;stroke:#5A9BD4;stroke-width:0.5" />
<path d="M248.31,296.92L257.22,296.92" style="fill:none;stroke:#FAA75B" />
<path d="M250.81,296.92A2.5,2.5 0 1 1 245.81,296.92A2.5,2.5 0 1 1 250.81,296.92Z" style="fill:#FAA75B" />
<path d="M259.72,296.92A2.5,2.5 0 1 1 254.72,296.92A2.5,2.5 0 1 1 259.72,296.92Z" style="fill:#FAA75B" />
<path d="M340.25,296.92L361.44,296.92" style="fill:none;stroke:#5A9BD4" />
<path d="M340.25,300.05L337.54,295.36L342.96,295.36Z" style="fill:none;stroke:#5A9BD4;stroke-width:0.5" />
<path d="M361.44,300.05L358.73,295.36L364.15,295.36Z" style="fill:none;stroke:#5A9BD4;stroke-width:0.5" />
<path d="M331.3,296.92L340.25,296.92" style="fill:none;stroke:#FAA75B" />
<path d="M333.8,296.92A2.5,2.5 0 1 1 328.8,296.92A2.5,2.5 0 1 1 333.8,296.92Z" style="fill:#FAA75B" />
<path d="M342.75,296.92A2.5,2.5 0 1 1 337.75,296.92A2.5,2.5 0 1 1 342.75,296.92Z" style="fill:#FAA75B" />
<path d="M424.38,296.92L446.52,296.92" style="fill:none;stroke:#5A9BD4" />
<path d="M424.38,300.05L421.67,295.36L427.08,295.36Z" style="fill:none;stroke:#5A9BD4;stroke-width:0.5" />
<path d="M446.52,300.05L443.81,295.36L449.22,295.36Z" style="fill:none;stroke:#5A9BD4;stroke-width:0.5" />
<path d="M414.39,296.92L424.38,296.92" style="fill:none;stroke:#FAA75B" />
<path d="M416.89,296.92A2.5,2.5 0 1 1 411.89,296.92A2.5,2.5 0 1 1 416.89,296.92Z" style="fill:#FAA75B" />
<path d="M426.88,296.92A2.5,2.5 0 1 1 421.88,296.92A2.5,2.5 0 1 1 426.88,296.92Z" style="fill:#FAA75B" />
<path d="M507.27,296.92L528.77,296.92" style="fill:none;stroke:#5A9BD4" />
<path d="M507.27,300.05L504.57,295.36L509.98,295.36Z" style="fill:none;stroke:#5A9BD4;stroke-width:0.5" />
<path d="M528.77,300.05L526.07,295.36L531.48,295.36Z" style="fill:none;stroke:#5A9BD4;stroke-width:0.5" />
<path d="M498.41,296.92L507.27,296.92" style="fill:none;stroke:#FAA75B" />
<path d="M500.91,296.92A2.5,2.5 0 1 1 495.91,296.92A2.5,2.5 0 1 1 500.91,296.92Z" style="fill:#FAA75B" />
<path d="M509.77,296.92A2.5,2.5 0 1 1 504.77,296.92A2.5,2.5 0 1 1 509.77,296.92Z" style="fill:#FAA75B" />
<path d="M591.6,296.92L612.46,296.92" style="fill:none;stroke:#5A9BD4" />
<path d="M591.6,300.05L588.89,295.36L594.3,295.36Z" style="fill:none;stroke:#5A9BD4;stroke-width:0.5" />
<path d="M612.46,300.05L609.75,295.36L615.17,295.36Z" style="fill:none;stroke:#5A9BD4;stroke-width:0.5" />
<path d="M581.4,296.92L591.6,296.92" style="fill:none;stroke:#FAA75B" />
<path d="M583.9,296.92A2.5,2.5 0 1 1 578.9,296.92A2.5,2.5 0 1 1 583.9,296.92Z" style="fill:#FAA75B" />
<path d="M594.1,296.92A2.5,2.5 0 1 1 589.1,296.92A2.5,2.5 0 1 1 594.1,296.92Z" style="fill:#FAA75B" />
<path d="M678.97,296.92L696.12,296.92" style="fill:none;stroke:#5A9BD4" />
<path d="M678.97,300.05L676.27,295.36L681.68,295.36Z" style="fill:none;stroke:#5A9BD4;stroke-width:0.5" />
<path d="M696.12,300.05L693.41,295.36L698.83,295.36Z" style="fill:none;stroke:#5A9BD4;stroke-width:0.5" />
<path d="M665.64,296.92L678.97,296.92" style="fill:none;stroke:#FAA75B" />
<path d="M668.14,296.92A2.5,2.5 0 1 1 663.14,296.92A2.5,2.5 0 1 1 668.14,296.92Z" style="fill:#FAA75B" />
<path d="M681.47,296.92A2.5,2.5 0 1 1 676.47,296.92A2.5,2.5 0 1 1 681.47,296.92Z" style="fill:#FAA75B" />
<path d="M762.43,296.92L782.63,296.92" style="fill:none;stroke:#5A9BD4" />
<path d="M762.43,300.05L759.73,295.36L765.14,295.36Z" style="fill:none;stroke:#5A9BD4;stroke-width:0.5" />
<path d="M782.63,300.05L779.92,295.36L785.34,295.36Z" style="fill:none;stroke:#5A9BD4;stroke-width:0.5" />
<path d="M753.02,296.92L762.43,296.92" style="fill:none;stroke:#FAA75B" />
<path d="M755.52,296.92A2.5,2.5 0 1 1 750.52,296.92A2.5,2.5 0 1 1 755.52,296.92Z" style="fill:#FAA75B" />
<path d="M764.93,296.92A2.5,2.5 0 1 1 759.93,296.92A2.5,2.5 0 1 1 764.93,296.92Z" style="fill:#FAA75B" />
<path d="M836.52,296.92L845.84,296.92" style="fill:none;stroke:#FAA75B" />
<path d="M839.02,296.92A2.5,2.5 0 1 1 834.02,296.92A2.5,2.5 0 1 1 839.02,296.92Z" style="fill:#FAA75B" />
<path d="M848.34,296.92A2.5,2.5 0 1 1 843.34,296.92A2.5,2.5 0 1 1 848.34,296.92Z" style="fill:#FAA75B" />
<path d="M50.854,40.209L50.854,412.11" style="fill:none;stroke:#C40000" />
<path d="M61.009,40.209L61.009,40.336" style="fill:none;stroke:#C40000" />
<path d="M62.186,40.209L62.186,40.541" style="fill:none;stroke:#C40000" />
<path d="M63.604,40.209L63.604,40.5" style="fill:none;stroke:#C40000" />
<path d="M65.022,40.209L65.022,40.376" style="fill:none;stroke:#C40000" />
<path d="M66.44,40.209L66.44,40.398" style="fill:none;stroke:#C40000" />
<path d="M67.859,40.209L67.859,40.375" style="fill:none;stroke:#C40000" />
<path d="M69.277,40.209L69.277,40.358" style="fill:none;stroke:#C40000" />
<path d="M70.695,40.209L70.695,40.489" style="fill:none;stroke:#C40000" />
<path d="M72.113,40.209L72.113,41.201" style="fill:none;stroke:#C40000" />
<path d="M73.531,40.209L73.531,41.406" style="fill:none;stroke:#C40000" />
<path d="M74.964,40.209L74.964,40.777" style="fill:none;stroke:#C40000" />
<path d="M76.368,40.209L76.368,40.423" style="fill:none;stroke:#C40000" />
<path d="M77.8,40.209L77.8,40.375" style="fill:none;stroke:#C40000" />
<path d="M79.204,40.209L79.204,40.524" style="fill:none;stroke:#C40000" />
<path d="M80.622,40.209L80.622,40.649" style="fill:none;stroke:#C40000" />
<path d="M82.041,40.209L82.041,40.494" style="fill:none;stroke:#C40000" />
<path d="M83.459,40.209L83.459,40.462" style="fill:none;stroke:#C40000" />
<path d="M84.877,40.209L84.877,40.772" style="fill:none;stroke:#C40000" />
<path d="M86.309,40.209L86.309,40.51" style="fill:none;stroke:#C40000" />
<path d="M87.713,40.209L87.713,40.422" style="fill:none;stroke:#C40000" />
<path d="M89.131,40.209L89.131,40.443" style="fill:none;stroke:#C40000" />
<path d="M90.564,40.209L90.564,40.488" style="fill:none;stroke:#C40000" />
<path d="M91.968,40.209L91.968,40.692" style="fill:none;stroke:#C40000" />
<path d="M93.386,40.209L93.386,40.75" style="fill:none;stroke:#C40000" />
<path d="M94.804,40.209L94.804,40.671" style="fill:none;stroke:#C40000" />
<path d="M96.222,40.209L96.222,40.648" style="fill:none;stroke:#C40000" />
<path d="M97.641,40.209L97.641,40.794" style="fill:none;stroke:#C40000" />
<path d="M99.059,40.209L99.059,40.756" style="fill:none;stroke:#C40000" />
<path d="M100.48,40.209L100.48,40.753" style="fill:none;stroke:#C40000" />
<path d="M101.9,40.209L101.9,41.602" style="fill:none;stroke:#C40000" />
<path d="M103.31,40.209L103.31,40.435" style="fill:none;stroke:#C40000" />
<path d="M104.73,40.209L104.73,44.496" style="fill:none;stroke:#008000" />
<path d="M106.15,40.209L106.15,46.008" style="fill:none;stroke:#008000" />
<path d="M107.57,40.209L107.57,46.263" style="fill:none;stroke:#008000" />
<path d="M108.99,40.209L108.99,44.987" style="fill:none;stroke:#008000" />
<path d="M110.42,40.209L110.42,45.803" style="fill:none;stroke:#008000" />
<path d="M111.84,40.209L111.84,46.314" style="fill:none;stroke:#008000" />
<path d="M113.25,40.209L113.25,46.026" style="fill:none;stroke:#008000" />
<path d="M114.66,40.209L114.66,46.371" style="fill:none;stroke:#008000" />
<path d="M116.08,40.209L116.08,46.048" style="fill:none;stroke:#008000" />
<path d="M117.51,40.209L117.51,45.684" style="fill:none;stroke:#008000" />
<path d="M118.91,40.209L118.91,46.685" style="fill:none;stroke:#008000" />
<path d="M120.33,40.209L120.33,44.293" style="fill:none;stroke:#008000" />
<path d="M121.75,40.209L121.75,47.055" style="fill:none;stroke:#008000" />
<path d="M123.18,40.209L123.18,46.09" style="fill:none;stroke:#008000" />
<path d="M124.59,40.209L124.59,45.868" style="fill:none;stroke:#008000" />
<path d="M126,40.209L126,46.349" style="fill:none;stroke:#008000" />
<path d="M127.44,40.209L127.44,46.15" style="fill:none;stroke:#008000" />
<path d="M128.84,40.209L128.84,46.241" style="fill:none;stroke:#008000" />
<path d="M130.26,40.209L130.26,46.055" style="fill:none;stroke:#008000" />
<path d="M131.68,40.209L131.68,45.324" style="fill:none;stroke:#008000" />
<path d="M133.1,40.209L133.1,46.01" style="fill:none;stroke:#008000" />
<path d="M134.51,40.209L134.51,46.431" style="fill:none;stroke:#008000" />
<path d="M135.93,40.209L135.93,45.993" style="fill:none;stroke:#008000" />
<path d="M137.35,40.209L137.35,45.757" style="fill:none;stroke:#008000" />
<path d="M138.77,40.209L138.77,45.886" style="fill:none;stroke:#008000" />
<path d="M140.19,40.209L140.19,45.513" style="fill:none;stroke:#008000" />
<path d="M141.6,40.209L141.6,45.545" style="fill:none;stroke:#008000" />
<path d="M143.02,40.209L143.02,46.099" style="fill:none;stroke:#008000" />
<path d="M144.46,40.209L144.46,46.524" style="fill:none;stroke:#008000" />
<path d="M145.86,40.209L145.86,46.229" style="fill:none;stroke:#008000" />
<path d="M147.28,40.209L147.28,46.287" style="fill:none;stroke:#008000" />
<path d="M148.7,40.209L148.7,46.108" style="fill:none;stroke:#008000" />
<path d="M150.11,40.209L150.11,46.311" style="fill:none;stroke:#008000" />
<path d="M151.53,40.209L151.53,45.303" style="fill:none;stroke:#008000" />
<path d="M152.96,40.209L152.96,45.887" style="fill:none;stroke:#008000" />
<path d="M154.37,40.209L154.37,46.146" style="fill:none;stroke:#008000" />
<path d="M155.79,40.209L155.79,46.161" style="fill:none;stroke:#008000" />
<path d="M157.2,40.209L157.2,46.186" style="fill:none;stroke:#008000" />
<path d="M158.62,40.209L158.62,46.285" style="fill:none;stroke:#008000" />
<path d="M160.04,40.209L160.04,46.206" style="fill:none;stroke:#008000" />
<path d="M161.46,40.209L161.46,46.369" style="fill:none;stroke:#008000" />
<path d="M162.88,40.209L162.88,45.719" style="fill:none;stroke:#008000" />
<path d="M164.3,40.209L164.3,45.9" style="fill:none;stroke:#008000" />
<path d="M165.71,40.209L165.71,543.87" style="fill:none;stroke:#C40000" />
<path d="M179.48,40.209L179.48,40.598" style="fill:none;stroke:#C40000" />
<path d="M179.91,40.209L179.91,40.327" style="fill:none;stroke:#C40000" />
<path d="M181.31,40.209L181.31,40.736" style="fill:none;stroke:#C40000" />
<path d="M182.73,40.209L182.73,40.819" style="fill:none;stroke:#C40000" />
<path d="M184.15,40.209L184.15,40.658" style="fill:none;stroke:#C40000" />
<path d="M185.57,40.209L185.57,40.698" style="fill:none;stroke:#C40000" />
<path d="M186.99,40.209L186.99,40.704" style="fill:none;stroke:#C40000" />
<path d="M188.41,40.209L188.41,40.44" style="fill:none;stroke:#C40000" />
<path d="M189.82,40.209L189.82,40.705" style="fill:none;stroke:#C40000" />
<path d="M191.26,40.209L191.26,40.68" style="fill:none;stroke:#C40000" />
<path d="M192.67,40.209L192.67,40.81" style="fill:none;stroke:#C40000" />
<path d="M194.08,40.209L194.08,40.44" style="fill:none;stroke:#C40000" />
<path d="M195.5,40.209L195.5,50.175" style="fill:none;stroke:#008000" />
<path d="M196.91,40.209L196.91,46.438" style="fill:none;stroke:#008000" />
<path d="M198.33,40.209L198.33,46.177" style="fill:none;stroke:#008000" />
<path d="M199.75,40.209L199.75,46.211" style="fill:none;stroke:#008000" />
<path d="M201.17,40.209L201.17,46.137" style="fill:none;stroke:#008000" />
<path d="M202.59,40.209L202.59,46.023" style="fill:none;stroke:#008000" />
<path d="M204.01,40.209L204.01,46.413" style="fill:none;stroke:#008000" />
<path d="M205.42,40.209L205.42,46.248" style="fill:none;stroke:#008000" />
<path d="M206.84,40.209L206.84,46.018" style="fill:none;stroke:#008000" />
<path d="M208.26,40.209L208.26,45.823" style="fill:none;stroke:#008000" />
<path d="M209.68,40.209L209.68,45.682" style="fill:none;stroke:#008000" />
<path d="M211.11,40.209L211.11,46.296" style="fill:none;stroke:#008000" />
<path d="M212.53,40.209L212.53,46.299" style="fill:none;stroke:#008000" />
<path d="M213.93,40.209L213.93,46.205" style="fill:none;stroke:#008000" />
<path d="M215.35,40.209L215.35,46.193" style="fill:none;stroke:#008000" />
<path d="M216.77,40.209L216.77,45.727" style="fill:none;stroke:#008000" />
<path d="M218.19,40.209L218.19,46.983" style="fill:none;stroke:#008000" />
<path d="M219.61,40.209L219.61,45.884" style="fill:none;stroke:#008000" />
<path d="M221.04,40.209L221.04,46.042" style="fill:none;stroke:#008000" />
<path d="M222.44,40.209L222.44,45.819" style="fill:none;stroke:#008000" />
<path d="M223.86,40.209L223.86,45.969" style="fill:none;stroke:#008000" />
<path d="M225.29,40.209L225.29,46.327" style="fill:none;stroke:#008000" />
<path d="M226.7,40.209L226.7,46.044" style="fill:none;stroke:#008000" />
<path d="M228.11,40.209L228.11,46.188" style="fill:none;stroke:#008000" />
<path d="M229.53,40.209L229.53,46.517" style="fill:none;stroke:#008000" />
<path d="M230.95,40.209L230.95,45.457" style="fill:none;stroke:#008000" />
<path d="M232.37,40.209L232.37,46.509" style="fill:none;stroke:#008000" />
<path d="M233.79,40.209L233.79,45.964" style="fill:none;stroke:#008000" />
<path d="M235.21,40.209L235.21,46.208" style="fill:none;stroke:#008000" />
<path d="M236.64,40.209L236.64,46.152" style="fill:none;stroke:#008000" />
<path d="M238.04,40.209L238.04,46.012" style="fill:none;stroke:#008000" />
<path d="M239.46,40.209L239.46,46.137" style="fill:none;stroke:#008000" />
<path d="M240.88,40.209L240.88,46.02" style="fill:none;stroke:#008000" />
<path d="M242.3,40.209L242.3,45.997" style="fill:none;stroke:#008000" />
<path d="M243.71,40.209L243.71,46.306" style="fill:none;stroke:#008000" />
<path d="M245.13,40.209L245.13,44.169" style="fill:none;stroke:#008000" />
<path d="M246.55,40.209L246.55,45.838" style="fill:none;stroke:#008000" />
<path d="M247.97,40.209L247.97,44.368" style="fill:none;stroke:#008000" />
<path d="M249.39,40.209L249.39,373.34" style="fill:none;stroke:#C40000" />
<path d="M258.48,40.209L258.48,40.588" style="fill:none;stroke:#C40000" />
<path d="M259.31,40.209L259.31,40.66" style="fill:none;stroke:#C40000" />
<path d="M260.75,40.209L260.75,40.69" style="fill:none;stroke:#C40000" />
<path d="M262.17,40.209L262.17,40.371" style="fill:none;stroke:#C40000" />
<path d="M263.57,40.209L263.57,40.634" style="fill:none;stroke:#C40000" />
<path d="M264.99,40.209L264.99,40.79" style="fill:none;stroke:#C40000" />
<path d="M266.42,40.209L266.42,40.616" style="fill:none;stroke:#C40000" />
<path d="M267.84,40.209L267.84,40.67" style="fill:none;stroke:#C40000" />
<path d="M269.24,40.209L269.24,40.739" style="fill:none;stroke:#C40000" />
<path d="M270.66,40.209L270.66,40.725" style="fill:none;stroke:#C40000" />
<path d="M272.09,40.209L272.09,40.774" style="fill:none;stroke:#C40000" />
<path d="M273.5,40.209L273.5,40.747" style="fill:none;stroke:#C40000" />
<path d="M274.92,40.209L274.92,40.696" style="fill:none;stroke:#C40000" />
<path d="M276.33,40.209L276.33,40.677" style="fill:none;stroke:#C40000" />
<path d="M277.77,40.209L277.77,48.387" style="fill:none;stroke:#008000" />
<path d="M279.17,40.209L279.17,45.976" style="fill:none;stroke:#008000" />
<path d="M280.59,40.209L280.59,45.988" style="fill:none;stroke:#008000" />
<path d="M282.02,40.209L282.02,46.004" style="fill:none;stroke:#008000" />
<path d="M283.42,40.209L283.42,46.259" style="fill:none;stroke:#008000" />
<path d="M284.84,40.209L284.84,46.177" style="fill:none;stroke:#008000" />
<path d="M286.26,40.209L286.26,45.963" style="fill:none;stroke:#008000" />
<path d="M287.68,40.209L287.68,45.592" style="fill:none;stroke:#008000" />
<path d="M289.1,40.209L289.1,46.321" style="fill:none;stroke:#008000" />
<path d="M290.52,40.209L290.52,46.033" style="fill:none;stroke:#008000" />
<path d="M291.95,40.209L291.95,46" style="fill:none;stroke:#008000" />
<path d="M293.35,40.209L293.35,46.379" style="fill:none;stroke:#008000" />
<path d="M294.77,40.209L294.77,46.261" style="fill:none;stroke:#008000" />
<path d="M296.19,40.209L296.19,46.149" style="fill:none;stroke:#008000" />
<path d="M297.61,40.209L297.61,46.195" style="fill:none;stroke:#008000" />
<path d="M299.04,40.209L299.04,45.792" style="fill:none;stroke:#008000" />
<path d="M300.46,40.209L300.46,46.171" style="fill:none;stroke:#008000" />
<path d="M301.87,40.209L301.87,46.237" style="fill:none;stroke:#008000" />
<path d="M303.28,40.209L303.28,46.011" style="fill:none;stroke:#008000" />
<path d="M304.7,40.209L304.7,45.165" style="fill:none;stroke:#008000" />
<path d="M306.13,40.209L306.13,45.857" style="fill:none;stroke:#008000" />
<path d="M307.53,40.209L307.53,46.15" style="fill:none;stroke:#008000" />
<path d="M308.95,40.209L308.95,46.078" style="fill:none;stroke:#008000" />
<path d="M310.37,40.209L310.37,46.361" style="fill:none;stroke:#008000" />
<path d="M311.79,40.209L311.79,46.181" style="fill:none;stroke:#008000" />
<path d="M313.22,40.209L313.22,43.472" style="fill:none;stroke:#008000" />
<path d="M314.62,40.209L314.62,46.255" style="fill:none;stroke:#008000" />
<path d="M316.04,40.209L316.04,45.852" style="fill:none;stroke:#008000" />
<path d="M317.46,40.209L317.46,45.908" style="fill:none;stroke:#008000" />
<path d="M318.89,40.209L318.89,46.19" style="fill:none;stroke:#008000" />
<path d="M320.3,40.209L320.3,45.982" style="fill:none;stroke:#008000" />
<path d="M321.72,40.209L321.72,43.528" style="fill:none;stroke:#008000" />
<path d="M323.13,40.209L323.13,48.327" style="fill:none;stroke:#008000" />
<path d="M324.55,40.209L324.55,46.143" style="fill:none;stroke:#008000" />
<path d="M325.97,40.209L325.97,46.238" style="fill:none;stroke:#008000" />
<path d="M327.39,40.209L327.39,46.218" style="fill:none;stroke:#008000" />
<path d="M328.81,40.209L328.81,46.288" style="fill:none;stroke:#008000" />
<path d="M330.22,40.209L330.22,45.899" style="fill:none;stroke:#008000" />
<path d="M331.64,40.209L331.64,471.98" style="fill:none;stroke:#C40000" />
<path d="M343.44,40.209L343.44,40.617" style="fill:none;stroke:#C40000" />
<path d="M344.42,40.209L344.42,40.627" style="fill:none;stroke:#C40000" />
<path d="M345.84,40.209L345.84,40.704" style="fill:none;stroke:#C40000" />
<path d="M347.24,40.209L347.24,40.665" style="fill:none;stroke:#C40000" />
<path d="M348.66,40.209L348.66,40.673" style="fill:none;stroke:#C40000" />
<path d="M350.08,40.209L350.08,40.769" style="fill:none;stroke:#C40000" />
<path d="M351.5,40.209L351.5,40.584" style="fill:none;stroke:#C40000" />
<path d="M352.93,40.209L352.93,40.761" style="fill:none;stroke:#C40000" />
<path d="M354.33,40.209L354.33,40.666" style="fill:none;stroke:#C40000" />
<path d="M355.75,40.209L355.75,40.666" style="fill:none;stroke:#C40000" />
<path d="M357.17,40.209L357.17,40.791" style="fill:none;stroke:#C40000" />
<path d="M358.6,40.209L358.6,40.718" style="fill:none;stroke:#C40000" />
<path d="M360.01,40.209L360.01,40.411" style="fill:none;stroke:#C40000" />
<path d="M361.44,40.209L361.44,48.75" style="fill:none;stroke:#008000" />
<path d="M362.84,40.209L362.84,45.97" style="fill:none;stroke:#008000" />
<path d="M364.26,40.209L364.26,46.055" style="fill:none;stroke:#008000" />
<path d="M365.68,40.209L365.68,45.738" style="fill:none;stroke:#008000" />
<path d="M367.1,40.209L367.1,46.272" style="fill:none;stroke:#008000" />
<path d="M368.52,40.209L368.52,45.953" style="fill:none;stroke:#008000" />
<path d="M369.93,40.209L369.93,46.263" style="fill:none;stroke:#008000" />
<path d="M371.35,40.209L371.35,46.113" style="fill:none;stroke:#008000" />
<path d="M372.77,40.209L372.77,45.886" style="fill:none;stroke:#008000" />
<path d="M374.19,40.209L374.19,46.265" style="fill:none;stroke:#008000" />
<path d="M375.61,40.209L375.61,46.114" style="fill:none;stroke:#008000" />
<path d="M377.03,40.209L377.03,46.066" style="fill:none;stroke:#008000" />
<path d="M378.46,40.209L378.46,45.96" style="fill:none;stroke:#008000" />
<path d="M379.86,40.209L379.86,45.96" style="fill:none;stroke:#008000" />
<path d="M381.28,40.209L381.28,46.023" style="fill:none;stroke:#008000" />
<path d="M382.71,40.209L382.71,45.772" style="fill:none;stroke:#008000" />
<path d="M384.13,40.209L384.13,46.127" style="fill:none;stroke:#008000" />
<path d="M385.53,40.209L385.53,46.425" style="fill:none;stroke:#008000" />
<path d="M386.97,40.209L386.97,45.798" style="fill:none;stroke:#008000" />
<path d="M388.37,40.209L388.37,46.093" style="fill:none;stroke:#008000" />
<path d="M389.79,40.209L389.79,45.947" style="fill:none;stroke:#008000" />
<path d="M391.22,40.209L391.22,46.067" style="fill:none;stroke:#008000" />
<path d="M392.63,40.209L392.63,47.051" style="fill:none;stroke:#008000" />
<path d="M394.06,40.209L394.06,45.995" style="fill:none;stroke:#008000" />
<path d="M395.46,40.209L395.46,45.964" style="fill:none;stroke:#008000" />
<path d="M396.89,40.209L396.89,46.025" style="fill:none;stroke:#008000" />
<path d="M398.3,40.209L398.3,46.306" style="fill:none;stroke:#008000" />
<path d="M399.72,40.209L399.72,46.255" style="fill:none;stroke:#008000" />
<path d="M401.13,40.209L401.13,46.101" style="fill:none;stroke:#008000" />
<path d="M402.55,40.209L402.55,46.334" style="fill:none;stroke:#008000" />
<path d="M403.97,40.209L403.97,43.517" style="fill:none;stroke:#008000" />
<path d="M405.39,40.209L405.39,43.465" style="fill:none;stroke:#008000" />
<path d="M406.82,40.209L406.82,48.55" style="fill:none;stroke:#008000" />
<path d="M408.23,40.209L408.23,45.846" style="fill:none;stroke:#008000" />
<path d="M409.64,40.209L409.64,46.408" style="fill:none;stroke:#008000" />
<path d="M411.06,40.209L411.06,46.017" style="fill:none;stroke:#008000" />
<path d="M412.48,40.209L412.48,45.813" style="fill:none;stroke:#008000" />
<path d="M413.9,40.209L413.9,46.082" style="fill:none;stroke:#008000" />
<path d="M415.32,40.209L415.32,412.93" style="fill:none;stroke:#C40000" />
<path d="M425.5,40.209L425.5,40.502" style="fill:none;stroke:#C40000" />
<path d="M426.66,40.209L426.66,40.72" style="fill:none;stroke:#C40000" />
<path d="M428.09,40.209L428.09,40.448" style="fill:none;stroke:#C40000" />
<path d="M429.5,40.209L429.5,40.683" style="fill:none;stroke:#C40000" />
<path d="M430.92,40.209L430.92,40.471" style="fill:none;stroke:#C40000" />
<path d="M432.33,40.209L432.33,40.654" style="fill:none;stroke:#C40000" />
<path d="M433.75,40.209L433.75,40.776" style="fill:none;stroke:#C40000" />
<path d="M435.17,40.209L435.17,40.452" style="fill:none;stroke:#C40000" />
<path d="M436.59,40.209L436.59,40.747" style="fill:none;stroke:#C40000" />
<path d="M438.02,40.209L438.02,40.739" style="fill:none;stroke:#C40000" />
<path d="M439.44,40.209L439.44,40.786" style="fill:none;stroke:#C40000" />
<path d="M440.84,40.209L440.84,40.746" style="fill:none;stroke:#C40000" />
<path d="M442.26,40.209L442.26,40.793" style="fill:none;stroke:#C40000" />
<path d="M443.68,40.209L443.68,40.435" style="fill:none;stroke:#C40000" />
<path d="M445.1,40.209L445.1,40.361" style="fill:none;stroke:#C40000" />
<path d="M446.52,40.209L446.52,44.538" style="fill:none;stroke:#008000" />
<path d="M447.95,40.209L447.95,47.527" style="fill:none;stroke:#008000" />
<path d="M449.35,40.209L449.35,46.601" style="fill:none;stroke:#008000" />
<path d="M450.79,40.209L450.79,45.895" style="fill:none;stroke:#008000" />
<path d="M452.19,40.209L452.19,46.717" style="fill:none;stroke:#008000" />
<path d="M453.62,40.209L453.62,46.104" style="fill:none;stroke:#008000" />
<path d="M455.04,40.209L455.04,46.227" style="fill:none;stroke:#008000" />
<path d="M456.44,40.209L456.44,47.186" style="fill:none;stroke:#008000" />
<path d="M457.86,40.209L457.86,46.705" style="fill:none;stroke:#008000" />
<path d="M459.28,40.209L459.28,47.309" style="fill:none;stroke:#008000" />
<path d="M460.7,40.209L460.7,46.219" style="fill:none;stroke:#008000" />
<path d="M462.12,40.209L462.12,46.57" style="fill:none;stroke:#008000" />
<path d="M463.55,40.209L463.55,44.118" style="fill:none;stroke:#008000" />
<path d="M464.97,40.209L464.97,46.58" style="fill:none;stroke:#008000" />
<path d="M466.37,40.209L466.37,47.112" style="fill:none;stroke:#008000" />
<path d="M467.79,40.209L467.79,43.623" style="fill:none;stroke:#008000" />
<path d="M469.21,40.209L469.21,45.761" style="fill:none;stroke:#008000" />
<path d="M470.64,40.209L470.64,46.232" style="fill:none;stroke:#008000" />
<path d="M472.04,40.209L472.04,46.506" style="fill:none;stroke:#008000" />
<path d="M473.46,40.209L473.46,46.059" style="fill:none;stroke:#008000" />
<path d="M474.88,40.209L474.88,44.966" style="fill:none;stroke:#008000" />
<path d="M476.3,40.209L476.3,46.28" style="fill:none;stroke:#008000" />
<path d="M477.72,40.209L477.72,46.532" style="fill:none;stroke:#008000" />
<path d="M479.14,40.209L479.14,46.813" style="fill:none;stroke:#008000" />
<path d="M480.55,40.209L480.55,48.421" style="fill:none;stroke:#008000" />
<path d="M481.97,40.209L481.97,46.186" style="fill:none;stroke:#008000" />
<path d="M483.39,40.209L483.39,46.957" style="fill:none;stroke:#008000" />
<path d="M484.81,40.209L484.81,46.976" style="fill:none;stroke:#008000" />
<path d="M486.23,40.209L486.23,46.517" style="fill:none;stroke:#008000" />
<path d="M487.64,40.209L487.64,47.01" style="fill:none;stroke:#008000" />
<path d="M489.06,40.209L489.06,46.852" style="fill:none;stroke:#008000" />
<path d="M490.48,40.209L490.48,47.167" style="fill:none;stroke:#008000" />
<path d="M491.9,40.209L491.9,45.824" style="fill:none;stroke:#008000" />
<path d="M493.33,40.209L493.33,44.196" style="fill:none;stroke:#008000" />
<path d="M494.74,40.209L494.74,47.056" style="fill:none;stroke:#008000" />
<path d="M496.15,40.209L496.15,46.478" style="fill:none;stroke:#008000" />
<path d="M497.57,40.209L497.57,46.21" style="fill:none;stroke:#008000" />
<path d="M499,40.209L499,553.64" style="fill:none;stroke:#C40000" />
<path d="M513.03,40.209L513.03,40.619" style="fill:none;stroke:#C40000" />
<path d="M513.17,40.209L513.17,40.524" style="fill:none;stroke:#C40000" />
<path d="M514.59,40.209L514.59,40.407" style="fill:none;stroke:#C40000" />
<path d="M516.01,40.209L516.01,40.397" style="fill:none;stroke:#C40000" />
<path d="M517.44,40.209L517.44,40.79" style="fill:none;stroke:#C40000" />
<path d="M518.84,40.209L518.84,40.828" style="fill:none;stroke:#C40000" />
<path d="M520.26,40.209L520.26,40.738" style="fill:none;stroke:#C40000" />
<path d="M521.68,40.209L521.68,40.647" style="fill:none;stroke:#C40000" />
<path d="M523.1,40.209L523.1,40.777" style="fill:none;stroke:#C40000" />
<path d="M524.52,40.209L524.52,40.767" style="fill:none;stroke:#C40000" />
<path d="M525.94,40.209L525.94,40.717" style="fill:none;stroke:#C40000" />
<path d="M527.35,40.209L527.35,40.469" style="fill:none;stroke:#C40000" />
<path d="M528.77,40.209L528.77,51.217" style="fill:none;stroke:#008000" />
<path d="M530.19,40.209L530.19,45.823" style="fill:none;stroke:#008000" />
<path d="M531.61,40.209L531.61,46.009" style="fill:none;stroke:#008000" />
<path d="M533.03,40.209L533.03,46.015" style="fill:none;stroke:#008000" />
<path d="M534.44,40.209L534.44,46.207" style="fill:none;stroke:#008000" />
<path d="M535.86,40.209L535.86,46.221" style="fill:none;stroke:#008000" />
<path d="M537.28,40.209L537.28,45.941" style="fill:none;stroke:#008000" />
<path d="M538.71,40.209L538.71,46.221" style="fill:none;stroke:#008000" />
<path d="M540.12,40.209L540.12,46.392" style="fill:none;stroke:#008000" />
<path d="M541.54,40.209L541.54,46.251" style="fill:none;stroke:#008000" />
<path d="M542.97,40.209L542.97,46.313" style="fill:none;stroke:#008000" />
<path d="M544.39,40.209L544.39,45.75" style="fill:none;stroke:#008000" />
<path d="M545.8,40.209L545.8,43.832" style="fill:none;stroke:#008000" />
<path d="M547.21,40.209L547.21,44.377" style="fill:none;stroke:#008000" />
<path d="M548.63,40.209L548.63,45.989" style="fill:none;stroke:#008000" />
<path d="M550.04,40.209L550.04,46.39" style="fill:none;stroke:#008000" />
<path d="M551.46,40.209L551.46,46.386" style="fill:none;stroke:#008000" />
<path d="M552.88,40.209L552.88,46.209" style="fill:none;stroke:#008000" />
<path d="M554.31,40.209L554.31,46.389" style="fill:none;stroke:#008000" />
<path d="M555.72,40.209L555.72,46.28" style="fill:none;stroke:#008000" />
<path d="M557.14,40.209L557.14,46.382" style="fill:none;stroke:#008000" />
<path d="M558.55,40.209L558.55,45.94" style="fill:none;stroke:#008000" />
<path d="M559.97,40.209L559.97,46.046" style="fill:none;stroke:#008000" />
<path d="M561.4,40.209L561.4,46.326" style="fill:none;stroke:#008000" />
<path d="M562.81,40.209L562.81,46.033" style="fill:none;stroke:#008000" />
<path d="M564.23,40.209L564.23,46.145" style="fill:none;stroke:#008000" />
<path d="M565.64,40.209L565.64,46.52" style="fill:none;stroke:#008000" />
<path d="M567.06,40.209L567.06,46.346" style="fill:none;stroke:#008000" />
<path d="M568.5,40.209L568.5,46.485" style="fill:none;stroke:#008000" />
<path d="M569.9,40.209L569.9,46.38" style="fill:none;stroke:#008000" />
<path d="M571.32,40.209L571.32,46.202" style="fill:none;stroke:#008000" />
<path d="M572.74,40.209L572.74,46.203" style="fill:none;stroke:#008000" />
<path d="M574.15,40.209L574.15,46.821" style="fill:none;stroke:#008000" />
<path d="M575.57,40.209L575.57,46.636" style="fill:none;stroke:#008000" />
<path d="M576.99,40.209L576.99,45.82" style="fill:none;stroke:#008000" />
<path d="M578.41,40.209L578.41,46.249" style="fill:none;stroke:#008000" />
<path d="M579.83,40.209L579.83,46.924" style="fill:none;stroke:#008000" />
<path d="M581.25,40.209L581.25,44.822" style="fill:none;stroke:#008000" />
<path d="M582.66,40.209L582.66,433.95" style="fill:none;stroke:#C40000" />
<path d="M593.43,40.209L593.43,40.553" style="fill:none;stroke:#C40000" />
<path d="M594.01,40.209L594.01,40.685" style="fill:none;stroke:#C40000" />
<path d="M595.43,40.209L595.43,40.731" style="fill:none;stroke:#C40000" />
<path d="M596.86,40.209L596.86,40.741" style="fill:none;stroke:#C40000" />
<path d="M598.26,40.209L598.26,40.709" style="fill:none;stroke:#C40000" />
<path d="M599.68,40.209L599.68,40.635" style="fill:none;stroke:#C40000" />
<path d="M601.1,40.209L601.1,40.381" style="fill:none;stroke:#C40000" />
<path d="M602.52,40.209L602.52,40.679" style="fill:none;stroke:#C40000" />
<path d="M603.94,40.209L603.94,40.678" style="fill:none;stroke:#C40000" />
<path d="M605.35,40.209L605.35,40.542" style="fill:none;stroke:#C40000" />
<path d="M606.77,40.209L606.77,40.703" style="fill:none;stroke:#C40000" />
<path d="M608.19,40.209L608.19,40.726" style="fill:none;stroke:#C40000" />
<path d="M609.61,40.209L609.61,40.736" style="fill:none;stroke:#C40000" />
<path d="M611.03,40.209L611.03,40.445" style="fill:none;stroke:#C40000" />
<path d="M612.46,40.209L612.46,50.271" style="fill:none;stroke:#008000" />
<path d="M613.86,40.209L613.86,45.972" style="fill:none;stroke:#008000" />
<path d="M615.3,40.209L615.3,45.257" style="fill:none;stroke:#008000" />
<path d="M616.71,40.209L616.71,44.348" style="fill:none;stroke:#008000" />
<path d="M618.12,40.209L618.12,46.374" style="fill:none;stroke:#008000" />
<path d="M619.54,40.209L619.54,46.304" style="fill:none;stroke:#008000" />
<path d="M620.97,40.209L620.97,45.573" style="fill:none;stroke:#008000" />
<path d="M622.37,40.209L622.37,46.459" style="fill:none;stroke:#008000" />
<path d="M623.79,40.209L623.79,46.387" style="fill:none;stroke:#008000" />
<path d="M625.22,40.209L625.22,46.219" style="fill:none;stroke:#008000" />
<path d="M626.63,40.209L626.63,46.5" style="fill:none;stroke:#008000" />
<path d="M628.05,40.209L628.05,45.94" style="fill:none;stroke:#008000" />
<path d="M629.46,40.209L629.46,46.277" style="fill:none;stroke:#008000" />
<path d="M630.88,40.209L630.88,45.865" style="fill:none;stroke:#008000" />
<path d="M632.31,40.209L632.31,46.354" style="fill:none;stroke:#008000" />
<path d="M633.73,40.209L633.73,46.128" style="fill:none;stroke:#008000" />
<path d="M635.14,40.209L635.14,43.703" style="fill:none;stroke:#008000" />
<path d="M636.55,40.209L636.55,49.24" style="fill:none;stroke:#008000" />
<path d="M637.97,40.209L637.97,46.227" style="fill:none;stroke:#008000" />
<path d="M639.39,40.209L639.39,46.553" style="fill:none;stroke:#008000" />
<path d="M640.81,40.209L640.81,46.204" style="fill:none;stroke:#008000" />
<path d="M642.23,40.209L642.23,46.149" style="fill:none;stroke:#008000" />
<path d="M643.65,40.209L643.65,46.149" style="fill:none;stroke:#008000" />
<path d="M645.06,40.209L645.06,44.138" style="fill:none;stroke:#008000" />
<path d="M646.48,40.209L646.48,46.237" style="fill:none;stroke:#008000" />
<path d="M647.9,40.209L647.9,46.038" style="fill:none;stroke:#008000" />
<path d="M649.33,40.209L649.33,45.814" style="fill:none;stroke:#008000" />
<path d="M650.74,40.209L650.74,47.002" style="fill:none;stroke:#008000" />
<path d="M652.15,40.209L652.15,46.323" style="fill:none;stroke:#008000" />
<path d="M653.57,40.209L653.57,46.222" style="fill:none;stroke:#008000" />
<path d="M654.99,40.209L654.99,46.251" style="fill:none;stroke:#008000" />
<path d="M656.41,40.209L656.41,46.082" style="fill:none;stroke:#008000" />
<path d="M657.84,40.209L657.84,46.127" style="fill:none;stroke:#008000" />
<path d="M659.25,40.209L659.25,46.477" style="fill:none;stroke:#008000" />
<path d="M660.68,40.209L660.68,46.614" style="fill:none;stroke:#008000" />
<path d="M662.08,40.209L662.08,46.42" style="fill:none;stroke:#008000" />
<path d="M663.51,40.209L663.51,46.57" style="fill:none;stroke:#008000" />
<path d="M664.92,40.209L664.92,46.447" style="fill:none;stroke:#008000" />
<path d="M666.35,40.209L666.35,407.5" style="fill:none;stroke:#C40000" />
<path d="M676.38,40.209L676.38,40.3" style="fill:none;stroke:#C40000" />
<path d="M677.68,40.209L677.68,40.444" style="fill:none;stroke:#C40000" />
<path d="M679.1,40.209L679.1,40.366" style="fill:none;stroke:#C40000" />
<path d="M680.52,40.209L680.52,40.405" style="fill:none;stroke:#C40000" />
<path d="M681.94,40.209L681.94,40.706" style="fill:none;stroke:#C40000" />
<path d="M683.36,40.209L683.36,40.813" style="fill:none;stroke:#C40000" />
<path d="M684.77,40.209L684.77,40.645" style="fill:none;stroke:#C40000" />
<path d="M686.19,40.209L686.19,40.39" style="fill:none;stroke:#C40000" />
<path d="M687.61,40.209L687.61,40.399" style="fill:none;stroke:#C40000" />
<path d="M689.03,40.209L689.03,40.784" style="fill:none;stroke:#C40000" />
<path d="M690.45,40.209L690.45,40.625" style="fill:none;stroke:#C40000" />
<path d="M691.86,40.209L691.86,40.72" style="fill:none;stroke:#C40000" />
<path d="M693.3,40.209L693.3,40.71" style="fill:none;stroke:#C40000" />
<path d="M694.7,40.209L694.7,40.432" style="fill:none;stroke:#C40000" />
<path d="M696.12,40.209L696.12,49.642" style="fill:none;stroke:#008000" />
<path d="M697.54,40.209L697.54,46.205" style="fill:none;stroke:#008000" />
<path d="M698.96,40.209L698.96,46.131" style="fill:none;stroke:#008000" />
<path d="M700.37,40.209L700.37,45.522" style="fill:none;stroke:#008000" />
<path d="M701.79,40.209L701.79,43.422" style="fill:none;stroke:#008000" />
<path d="M703.21,40.209L703.21,46.031" style="fill:none;stroke:#008000" />
<path d="M704.63,40.209L704.63,46.041" style="fill:none;stroke:#008000" />
<path d="M706.05,40.209L706.05,45.933" style="fill:none;stroke:#008000" />
<path d="M707.48,40.209L707.48,45.683" style="fill:none;stroke:#008000" />
<path d="M708.9,40.209L708.9,45.934" style="fill:none;stroke:#008000" />
<path d="M710.3,40.209L710.3,46.103" style="fill:none;stroke:#008000" />
<path d="M711.72,40.209L711.72,46.268" style="fill:none;stroke:#008000" />
<path d="M713.14,40.209L713.14,44.5" style="fill:none;stroke:#008000" />
<path d="M714.56,40.209L714.56,46.084" style="fill:none;stroke:#008000" />
<path d="M715.97,40.209L715.97,46.164" style="fill:none;stroke:#008000" />
<path d="M717.39,40.209L717.39,46.127" style="fill:none;stroke:#008000" />
<path d="M718.82,40.209L718.82,46.203" style="fill:none;stroke:#008000" />
<path d="M720.23,40.209L720.23,46.006" style="fill:none;stroke:#008000" />
<path d="M721.65,40.209L721.65,46.407" style="fill:none;stroke:#008000" />
<path d="M723.06,40.209L723.06,45.906" style="fill:none;stroke:#008000" />
<path d="M724.48,40.209L724.48,46.173" style="fill:none;stroke:#008000" />
<path d="M725.9,40.209L725.9,46.155" style="fill:none;stroke:#008000" />
<path d="M727.32,40.209L727.32,46.075" style="fill:none;stroke:#008000" />
<path d="M728.74,40.209L728.74,43.551" style="fill:none;stroke:#008000" />
<path d="M730.17,40.209L730.17,44.442" style="fill:none;stroke:#008000" />
<path d="M731.57,40.209L731.57,46.329" style="fill:none;stroke:#008000" />
<path d="M732.99,40.209L732.99,45.803" style="fill:none;stroke:#008000" />
<path d="M734.41,40.209L734.41,46.124" style="fill:none;stroke:#008000" />
<path d="M735.83,40.209L735.83,46.247" style="fill:none;stroke:#008000" />
<path d="M737.26,40.209L737.26,46.316" style="fill:none;stroke:#008000" />
<path d="M738.66,40.209L738.66,46.374" style="fill:none;stroke:#008000" />
<path d="M740.08,40.209L740.08,46.342" style="fill:none;stroke:#008000" />
<path d="M741.5,40.209L741.5,46.16" style="fill:none;stroke:#008000" />
<path d="M742.92,40.209L742.92,44.853" style="fill:none;stroke:#008000" />
<path d="M744.34,40.209L744.34,46.254" style="fill:none;stroke:#008000" />
<path d="M745.76,40.209L745.76,47.169" style="fill:none;stroke:#008000" />
<path d="M747.17,40.209L747.17,45.529" style="fill:none;stroke:#008000" />
<path d="M748.59,40.209L748.59,45.938" style="fill:none;stroke:#008000" />
<path d="M750.01,40.209L750.01,46.31" style="fill:none;stroke:#008000" />
<path d="M751.43,40.209L751.43,46.046" style="fill:none;stroke:#008000" />
<path d="M752.85,40.209L752.85,44.221" style="fill:none;stroke:#008000" />
<path d="M754.26,40.209L754.26,40.446" style="fill:none;stroke:#C40000" />
<path d="M755.68,40.209L755.68,40.443" style="fill:none;stroke:#C40000" />
<path d="M757.1,40.209L757.1,40.465" style="fill:none;stroke:#C40000" />
<path d="M758.53,40.209L758.53,40.401" style="fill:none;stroke:#C40000" />
<path d="M759.94,40.209L759.94,40.67" style="fill:none;stroke:#C40000" />
<path d="M761.36,40.209L761.36,40.44" style="fill:none;stroke:#C40000" />
<path d="M762.79,40.209L762.79,40.431" style="fill:none;stroke:#C40000" />
<path d="M764.19,40.209L764.19,40.741" style="fill:none;stroke:#C40000" />
<path d="M765.61,40.209L765.61,40.641" style="fill:none;stroke:#C40000" />
<path d="M767.03,40.209L767.03,40.712" style="fill:none;stroke:#C40000" />
<path d="M768.45,40.209L768.45,40.768" style="fill:none;stroke:#C40000" />
<path d="M769.86,40.209L769.86,40.649" style="fill:none;stroke:#C40000" />
<path d="M771.28,40.209L771.28,40.755" style="fill:none;stroke:#C40000" />
<path d="M772.7,40.209L772.7,40.655" style="fill:none;stroke:#C40000" />
<path d="M774.13,40.209L774.13,40.82" style="fill:none;stroke:#C40000" />
<path d="M775.54,40.209L775.54,40.741" style="fill:none;stroke:#C40000" />
<path d="M776.96,40.209L776.96,40.473" style="fill:none;stroke:#C40000" />
<path d="M778.37,40.209L778.37,40.709" style="fill:none;stroke:#C40000" />
<path d="M779.79,40.209L779.79,40.668" style="fill:none;stroke:#C40000" />
<path d="M781.21,40.209L781.21,40.717" style="fill:none;stroke:#C40000" />
<path d="M782.63,40.209L782.63,50.081" style="fill:none;stroke:#008000" />
<path d="M784.05,40.209L784.05,45.85" style="fill:none;stroke:#008000" />
<path d="M785.47,40.209L785.47,45.665" style="fill:none;stroke:#008000" />
<path d="M786.88,40.209L786.88,43.505" style="fill:none;stroke:#008000" />
<path d="M788.3,40.209L788.3,49.669" style="fill:none;stroke:#008000" />
<path d="M789.72,40.209L789.72,46.235" style="fill:none;stroke:#008000" />
<path d="M791.14,40.209L791.14,45.454" style="fill:none;stroke:#008000" />
<path d="M792.56,40.209L792.56,45.969" style="fill:none;stroke:#008000" />
<path d="M793.97,40.209L793.97,46.03" style="fill:none;stroke:#008000" />
<path d="M795.39,40.209L795.39,46.174" style="fill:none;stroke:#008000" />
<path d="M796.82,40.209L796.82,45.946" style="fill:none;stroke:#008000" />
<path d="M798.23,40.209L798.23,45.771" style="fill:none;stroke:#008000" />
<path d="M799.65,40.209L799.65,46.316" style="fill:none;stroke:#008000" />
<path d="M801.07,40.209L801.07,46.11" style="fill:none;stroke:#008000" />
<path d="M802.5,40.209L802.5,46.231" style="fill:none;stroke:#008000" />
<path d="M803.9,40.209L803.9,45.852" style="fill:none;stroke:#008000" />
<path d="M805.33,40.209L805.33,45.635" style="fill:none;stroke:#008000" />
<path d="M806.74,40.209L806.74,46.364" style="fill:none;stroke:#008000" />
<path d="M808.17,40.209L808.17,46.119" style="fill:none;stroke:#008000" />
<path d="M809.57,40.209L809.57,46.002" style="fill:none;stroke:#008000" />
<path d="M811.01,40.209L811.01,46.22" style="fill:none;stroke:#008000" />
<path d="M812.42,40.209L812.42,46.242" style="fill:none;stroke:#008000" />
<path d="M813.83,40.209L813.83,45.903" style="fill:none;stroke:#008000" />
<path d="M815.25,40.209L815.25,43.924" style="fill:none;stroke:#008000" />
<path d="M816.67,40.209L816.67,46.006" style="fill:none;stroke:#008000" />
<path d="M818.1,40.209L818.1,47.088" style="fill:none;stroke:#008000" />
<path d="M819.5,40.209L819.5,45.899" style="fill:none;stroke:#008000" />
<path d="M820.93,40.209L820.93,46.145" style="fill:none;stroke:#008000" />
<path d="M822.34,40.209L822.34,45.995" style="fill:none;stroke:#008000" />
<path d="M823.77,40.209L823.77,45.918" style="fill:none;stroke:#008000" />
<path d="M825.17,40.209L825.17,45.953" style="fill:none;stroke:#008000" />
<path d="M826.59,40.209L826.59,45.767" style="fill:none;stroke:#008000" />
<path d="M828.01,40.209L828.01,45.812" style="fill:none;stroke:#008000" />
<path d="M829.43,40.209L829.43,43.5" style="fill:none;stroke:#008000" />
<path d="M830.85,40.209L830.85,49.974" style="fill:none;stroke:#008000" />
<path d="M832.27,40.209L832.27,46.22" style="fill:none;stroke:#008000" />
<path d="M833.68,40.209L833.68,45.468" style="fill:none;stroke:#008000" />
<path d="M835.1,40.209L835.1,46.5" style="fill:none;stroke:#008000" />
<path d="M836.52,40.209L836.52,529.63" style="fill:none;stroke:#C40000" />
<path d="M849.89,40.209L849.89,40.596" style="fill:none;stroke:#C40000" />
</g>
</svg>
