<?xml version="1.0"?>
<!-- Generated by SVGo and Plotinum VG -->
<svg width="850.39pt" height="566.93pt" viewBox="0 0 850.39 566.93"
	xmlns="http://www.w3.org/2000/svg"
	xmlns:xlink="http://www.w3.org/1999/xlink">
<g transform="scale(1, -1) translate(0, -566.93)">
<path d="M0,0L850.39,0L850.39,566.93L0,566.93Z" style="fill:#FFFFFF" />
<text x="256.73" y="-557.54" transform="scale(1, -1)"
	style="font-family:Liberation Serif;font-variant:normal;font-weight:normal;font-style:normal;font-size:12px">Percentiles - FrontEndUp (Nearest Rank): s3wl-putobj-100ms-Ingress</text>
<text x="431.03" y="-3.9023" transform="scale(1, -1)"
	style="font-family:Liberation Serif;font-variant:normal;font-weight:normal;font-style:normal;font-size:12px">Percentile</text>
<text x="211.02" y="-16.541" transform="scale(1, -1)"
	style="font-family:Liberation Serif;font-variant:normal;font-weight:normal;font-style:normal;font-size:10px">20</text>
<text x="524.46" y="-16.541" transform="scale(1, -1)"
	style="font-family:Liberation Serif;font-variant:normal;font-weight:normal;font-style:normal;font-size:10px">60</text>
<text x="835.39" y="-16.541" transform="scale(1, -1)"
	style="font-family:Liberation Serif;font-variant:normal;font-weight:normal;font-style:normal;font-size:10px">100</text>
<path d="M216.02,24.363L216.02,32.363" style="fill:none;stroke:#000000;stroke-width:0.5" />
<path d="M529.46,24.363L529.46,32.363" style="fill:none;stroke:#000000;stroke-width:0.5" />
<path d="M842.89,24.363L842.89,32.363" style="fill:none;stroke:#000000;stroke-width:0.5" />
<path d="M137.66,28.363L137.66,32.363" style="fill:none;stroke:#000000;stroke-width:0.5" />
<path d="M294.38,28.363L294.38,32.363" style="fill:none;stroke:#000000;stroke-width:0.5" />
<path d="M372.74,28.363L372.74,32.363" style="fill:none;stroke:#000000;stroke-width:0.5" />
<path d="M451.1,28.363L451.1,32.363" style="fill:none;stroke:#000000;stroke-width:0.5" />
<path d="M607.82,28.363L607.82,32.363" style="fill:none;stroke:#000000;stroke-width:0.5" />
<path d="M686.17,28.363L686.17,32.363" style="fill:none;stroke:#000000;stroke-width:0.5" />
<path d="M764.53,28.363L764.53,32.363" style="fill:none;stroke:#000000;stroke-width:0.5" />
<path d="M67.135,32.363L842.89,32.363" style="fill:none;stroke:#000000;stroke-width:0.5" />
<g transform="rotate(90)">
<text x="265.43" y="9.3867" transform="scale(1, -1)"
	style="font-family:Liberation Serif;font-variant:normal;font-weight:normal;font-style:normal;font-size:12px">Duration: ms</text>
</g>
<text x="20.885" y="-68.068" transform="scale(1, -1)"
	style="font-family:Liberation Serif;font-variant:normal;font-weight:normal;font-style:normal;font-size:10px">750.00</text>
<text x="15.885" y="-289.22" transform="scale(1, -1)"
	style="font-family:Liberation Serif;font-variant:normal;font-weight:normal;font-style:normal;font-size:10px">1750.00</text>
<text x="15.885" y="-510.37" transform="scale(1, -1)"
	style="font-family:Liberation Serif;font-variant:normal;font-weight:normal;font-style:normal;font-size:10px">2750.00</text>
<path d="M50.885,70.353L58.885,70.353" style="fill:none;stroke:#000000;stroke-width:0.5" />
<path d="M50.885,291.51L58.885,291.51" style="fill:none;stroke:#000000;stroke-width:0.5" />
<path d="M50.885,512.66L58.885,512.66" style="fill:none;stroke:#000000;stroke-width:0.5" />
<path d="M54.885,180.93L58.885,180.93" style="fill:none;stroke:#000000;stroke-width:0.5" />
<path d="M54.885,402.08L58.885,402.08" style="fill:none;stroke:#000000;stroke-width:0.5" />
<path d="M58.885,42.709L58.885,551.14" style="fill:none;stroke:#000000;stroke-width:0.5" />
<path d="M216.02,42.709L216.02,551.14" style="fill:none;stroke:#808080;stroke-width:0.25" />
<path d="M529.46,42.709L529.46,551.14" style="fill:none;stroke:#808080;stroke-width:0.25" />
<path d="M842.89,42.709L842.89,551.14" style="fill:none;stroke:#808080;stroke-width:0.25" />
<path d="M67.135,70.353L842.89,70.353" style="fill:none;stroke:#808080;stroke-width:0.25" />
<path d="M67.135,291.51L842.89,291.51" style="fill:none;stroke:#808080;stroke-width:0.25" />
<path d="M67.135,512.66L842.89,512.66" style="fill:none;stroke:#808080;stroke-width:0.25" />
<path d="M67.135,42.709L74.971,42.709L82.807,42.709L90.643,42.709L98.479,42.709L106.31,42.709L114.15,42.709L121.99,42.709L129.82,42.709L137.66,42.709L145.49,43.372L153.33,43.372L161.17,43.372L169,43.372L176.84,43.372L184.67,43.372L192.51,43.372L200.35,43.372L208.18,43.372L216.02,43.372L223.85,44.036L231.69,44.036L239.53,44.036L247.36,44.036L255.2,44.036L263.03,44.036L270.87,44.036L278.71,44.036L286.54,44.036L294.38,44.036L302.21,47.132L310.05,47.132L317.89,47.132L325.72,47.132L333.56,47.132L341.39,47.132L349.23,47.132L357.06,47.132L364.9,47.132L372.74,47.132L380.57,49.565L388.41,49.565L396.24,49.565L404.08,49.565L411.92,49.565L419.75,49.565L427.59,49.565L435.42,49.565L443.26,49.565L451.1,49.565L458.93,51.113L466.77,51.113L474.6,51.113L482.44,51.113L490.28,51.113L498.11,51.113L505.95,51.113L513.78,51.113L521.62,51.113L529.46,51.113L537.29,59.959L545.13,59.959L552.96,59.959L560.8,59.959L568.64,59.959L576.47,59.959L584.31,59.959L592.14,59.959L599.98,59.959L607.82,59.959L615.65,63.276L623.49,63.276L631.32,63.276L639.16,63.276L646.99,63.276L654.83,63.276L662.67,63.276L670.5,63.276L678.34,63.276L686.17,63.276L694.01,112.15L701.85,112.15L709.68,112.15L717.52,112.15L725.35,112.15L733.19,112.15L741.03,112.15L748.86,112.15L756.7,112.15L764.53,112.15L772.37,551.14L780.21,551.14L788.04,551.14L795.88,551.14L803.71,551.14L811.55,551.14L819.39,551.14L827.22,551.14L835.06,551.14L842.89,551.14" style="fill:none;stroke:#7AC36A" />
<path d="M67.135,45.834L64.428,41.146L69.841,41.146Z" style="fill:#7AC36A" />
<path d="M74.971,45.834L72.264,41.146L77.677,41.146Z" style="fill:#7AC36A" />
<path d="M82.807,45.834L80.1,41.146L85.513,41.146Z" style="fill:#7AC36A" />
<path d="M90.643,45.834L87.936,41.146L93.349,41.146Z" style="fill:#7AC36A" />
<path d="M98.479,45.834L95.772,41.146L101.18,41.146Z" style="fill:#7AC36A" />
<path d="M106.31,45.834L103.61,41.146L109.02,41.146Z" style="fill:#7AC36A" />
<path d="M114.15,45.834L111.44,41.146L116.86,41.146Z" style="fill:#7AC36A" />
<path d="M121.99,45.834L119.28,41.146L124.69,41.146Z" style="fill:#7AC36A" />
<path d="M129.82,45.834L127.12,41.146L132.53,41.146Z" style="fill:#7AC36A" />
<path d="M137.66,45.834L134.95,41.146L140.36,41.146Z" style="fill:#7AC36A" />
<path d="M145.49,46.497L142.79,41.81L148.2,41.81Z" style="fill:#7AC36A" />
<path d="M153.33,46.497L150.62,41.81L156.04,41.81Z" style="fill:#7AC36A" />
<path d="M161.17,46.497L158.46,41.81L163.87,41.81Z" style="fill:#7AC36A" />
<path d="M169,46.497L166.3,41.81L171.71,41.81Z" style="fill:#7AC36A" />
<path d="M176.84,46.497L174.13,41.81L179.54,41.81Z" style="fill:#7AC36A" />
<path d="M184.67,46.497L181.97,41.81L187.38,41.81Z" style="fill:#7AC36A" />
<path d="M192.51,46.497L189.8,41.81L195.22,41.81Z" style="fill:#7AC36A" />
<path d="M200.35,46.497L197.64,41.81L203.05,41.81Z" style="fill:#7AC36A" />
<path d="M208.18,46.497L205.48,41.81L210.89,41.81Z" style="fill:#7AC36A" />
<path d="M216.02,46.497L213.31,41.81L218.72,41.81Z" style="fill:#7AC36A" />
<path d="M223.85,47.161L221.15,42.473L226.56,42.473Z" style="fill:#7AC36A" />
<path d="M231.69,47.161L228.98,42.473L234.4,42.473Z" style="fill:#7AC36A" />
<path d="M239.53,47.161L236.82,42.473L242.23,42.473Z" style="fill:#7AC36A" />
<path d="M247.36,47.161L244.66,42.473L250.07,42.473Z" style="fill:#7AC36A" />
<path d="M255.2,47.161L252.49,42.473L257.9,42.473Z" style="fill:#7AC36A" />
<path d="M263.03,47.161L260.33,42.473L265.74,42.473Z" style="fill:#7AC36A" />
<path d="M270.87,47.161L268.16,42.473L273.58,42.473Z" style="fill:#7AC36A" />
<path d="M278.71,47.161L276,42.473L281.41,42.473Z" style="fill:#7AC36A" />
<path d="M286.54,47.161L283.84,42.473L289.25,42.473Z" style="fill:#7AC36A" />
<path d="M294.38,47.161L291.67,42.473L297.08,42.473Z" style="fill:#7AC36A" />
<path d="M302.21,50.257L299.51,45.57L304.92,45.57Z" style="fill:#7AC36A" />
<path d="M310.05,50.257L307.34,45.57L312.76,45.57Z" style="fill:#7AC36A" />
<path d="M317.89,50.257L315.18,45.57L320.59,45.57Z" style="fill:#7AC36A" />
<path d="M325.72,50.257L323.01,45.57L328.43,45.57Z" style="fill:#7AC36A" />
<path d="M333.56,50.257L330.85,45.57L336.26,45.57Z" style="fill:#7AC36A" />
<path d="M341.39,50.257L338.69,45.57L344.1,45.57Z" style="fill:#7AC36A" />
<path d="M349.23,50.257L346.52,45.57L351.94,45.57Z" style="fill:#7AC36A" />
<path d="M357.06,50.257L354.36,45.57L359.77,45.57Z" style="fill:#7AC36A" />
<path d="M364.9,50.257L362.19,45.57L367.61,45.57Z" style="fill:#7AC36A" />
<path d="M372.74,50.257L370.03,45.57L375.44,45.57Z" style="fill:#7AC36A" />
<path d="M380.57,52.69L377.87,48.002L383.28,48.002Z" style="fill:#7AC36A" />
<path d="M388.41,52.69L385.7,48.002L391.11,48.002Z" style="fill:#7AC36A" />
<path d="M396.24,52.69L393.54,48.002L398.95,48.002Z" style="fill:#7AC36A" />
<path d="M404.08,52.69L401.37,48.002L406.79,48.002Z" style="fill:#7AC36A" />
<path d="M411.92,52.69L409.21,48.002L414.62,48.002Z" style="fill:#7AC36A" />
<path d="M419.75,52.69L417.05,48.002L422.46,48.002Z" style="fill:#7AC36A" />
<path d="M427.59,52.69L424.88,48.002L430.29,48.002Z" style="fill:#7AC36A" />
<path d="M435.42,52.69L432.72,48.002L438.13,48.002Z" style="fill:#7AC36A" />
<path d="M443.26,52.69L440.55,48.002L445.97,48.002Z" style="fill:#7AC36A" />
<path d="M451.1,52.69L448.39,48.002L453.8,48.002Z" style="fill:#7AC36A" />
<path d="M458.93,54.238L456.23,49.55L461.64,49.55Z" style="fill:#7AC36A" />
<path d="M466.77,54.238L464.06,49.55L469.47,49.55Z" style="fill:#7AC36A" />
<path d="M474.6,54.238L471.9,49.55L477.31,49.55Z" style="fill:#7AC36A" />
<path d="M482.44,54.238L479.73,49.55L485.15,49.55Z" style="fill:#7AC36A" />
<path d="M490.28,54.238L487.57,49.55L492.98,49.55Z" style="fill:#7AC36A" />
<path d="M498.11,54.238L495.41,49.55L500.82,49.55Z" style="fill:#7AC36A" />
<path d="M505.95,54.238L503.24,49.55L508.65,49.55Z" style="fill:#7AC36A" />
<path d="M513.78,54.238L511.08,49.55L516.49,49.55Z" style="fill:#7AC36A" />
<path d="M521.62,54.238L518.91,49.55L524.33,49.55Z" style="fill:#7AC36A" />
<path d="M529.46,54.238L526.75,49.55L532.16,49.55Z" style="fill:#7AC36A" />
<path d="M537.29,63.084L534.59,58.396L540,58.396Z" style="fill:#7AC36A" />
<path d="M545.13,63.084L542.42,58.396L547.83,58.396Z" style="fill:#7AC36A" />
<path d="M552.96,63.084L550.26,58.396L555.67,58.396Z" style="fill:#7AC36A" />
<path d="M560.8,63.084L558.09,58.396L563.51,58.396Z" style="fill:#7AC36A" />
<path d="M568.64,63.084L565.93,58.396L571.34,58.396Z" style="fill:#7AC36A" />
<path d="M576.47,63.084L573.77,58.396L579.18,58.396Z" style="fill:#7AC36A" />
<path d="M584.31,63.084L581.6,58.396L587.01,58.396Z" style="fill:#7AC36A" />
<path d="M592.14,63.084L589.44,58.396L594.85,58.396Z" style="fill:#7AC36A" />
<path d="M599.98,63.084L597.27,58.396L602.69,58.396Z" style="fill:#7AC36A" />
<path d="M607.82,63.084L605.11,58.396L610.52,58.396Z" style="fill:#7AC36A" />
<path d="M615.65,66.401L612.94,61.714L618.36,61.714Z" style="fill:#7AC36A" />
<path d="M623.49,66.401L620.78,61.714L626.19,61.714Z" style="fill:#7AC36A" />
<path d="M631.32,66.401L628.62,61.714L634.03,61.714Z" style="fill:#7AC36A" />
<path d="M639.16,66.401L636.45,61.714L641.87,61.714Z" style="fill:#7AC36A" />
<path d="M646.99,66.401L644.29,61.714L649.7,61.714Z" style="fill:#7AC36A" />
<path d="M654.83,66.401L652.12,61.714L657.54,61.714Z" style="fill:#7AC36A" />
<path d="M662.67,66.401L659.96,61.714L665.37,61.714Z" style="fill:#7AC36A" />
<path d="M670.5,66.401L667.8,61.714L673.21,61.714Z" style="fill:#7AC36A" />
<path d="M678.34,66.401L675.63,61.714L681.05,61.714Z" style="fill:#7AC36A" />
<path d="M686.17,66.401L683.47,61.714L688.88,61.714Z" style="fill:#7AC36A" />
<path d="M694.01,115.28L691.3,110.59L696.72,110.59Z" style="fill:#7AC36A" />
<path d="M701.85,115.28L699.14,110.59L704.55,110.59Z" style="fill:#7AC36A" />
<path d="M709.68,115.28L706.98,110.59L712.39,110.59Z" style="fill:#7AC36A" />
<path d="M717.52,115.28L714.81,110.59L720.22,110.59Z" style="fill:#7AC36A" />
<path d="M725.35,115.28L722.65,110.59L728.06,110.59Z" style="fill:#7AC36A" />
<path d="M733.19,115.28L730.48,110.59L735.9,110.59Z" style="fill:#7AC36A" />
<path d="M741.03,115.28L738.32,110.59L743.73,110.59Z" style="fill:#7AC36A" />
<path d="M748.86,115.28L746.16,110.59L751.57,110.59Z" style="fill:#7AC36A" />
<path d="M756.7,115.28L753.99,110.59L759.4,110.59Z" style="fill:#7AC36A" />
<path d="M764.53,115.28L761.83,110.59L767.24,110.59Z" style="fill:#7AC36A" />
<path d="M772.37,554.27L769.66,549.58L775.08,549.58Z" style="fill:#7AC36A" />
<path d="M780.21,554.27L777.5,549.58L782.91,549.58Z" style="fill:#7AC36A" />
<path d="M788.04,554.27L785.34,549.58L790.75,549.58Z" style="fill:#7AC36A" />
<path d="M795.88,554.27L793.17,549.58L798.58,549.58Z" style="fill:#7AC36A" />
<path d="M803.71,554.27L801.01,549.58L806.42,549.58Z" style="fill:#7AC36A" />
<path d="M811.55,554.27L808.84,549.58L814.26,549.58Z" style="fill:#7AC36A" />
<path d="M819.39,554.27L816.68,549.58L822.09,549.58Z" style="fill:#7AC36A" />
<path d="M827.22,554.27L824.52,549.58L829.93,549.58Z" style="fill:#7AC36A" />
<path d="M835.06,554.27L832.35,549.58L837.76,549.58Z" style="fill:#7AC36A" />
<path d="M842.89,554.27L840.19,549.58L845.6,549.58Z" style="fill:#7AC36A" />
<path d="M830.39,45.301L850.39,45.301" style="fill:none;stroke:#7AC36A" />
<path d="M840.39,48.426L837.69,43.738L843.1,43.738Z" style="fill:#7AC36A" />
<text x="763.42" y="-42.813" transform="scale(1, -1)"
	style="font-family:Liberation Serif;font-variant:normal;font-weight:normal;font-style:normal;font-size:12px">to-fronted-up</text>
</g>
</svg>
